<?xml version="1.0" encoding="us-ascii" standalone="no"?><svg xmlns="http://www.w3.org/2000/svg" xmlns:xlink="http://www.w3.org/1999/xlink" contentStyleType="text/css" height="189px" preserveAspectRatio="none" style="width:132px;height:189px;background:#FFFFFF;" version="1.1" viewBox="0 0 132 189" width="132px" zoomAndPan="magnify"><defs/><g><!--class Shadowrun--><g id="elem_Shadowrun"><rect fill="#F1F1F1" height="48" id="Shadowrun" rx="2.5" ry="2.5" style="stroke:#181818;stroke-width:0.5;" width="103" x="14.5" y="7"/><ellipse cx="29.5" cy="23" fill="#ADD1B2" rx="11" ry="11" style="stroke:#181818;stroke-width:1.0;"/><path d="M28.8438,28.8594 Q26.8594,28.8594 25.6875,27.3906 Q24.5313,25.9063 24.5313,22.8281 Q24.5313,20.2188 25.75,18.4688 Q26.9844,16.7188 29.1094,16.7188 Q29.6094,16.7188 30.1406,16.8594 Q30.5781,17.0469 30.8438,17.0469 Q31.0625,17.0469 31.1563,17 Q31.2656,16.9531 31.7188,16.3594 L32.4844,20.0938 L31.5938,20.3594 Q31.1406,18.9063 30.5313,18.3125 Q29.9375,17.7031 28.9844,17.7031 Q27.7656,17.7031 27.0469,19.1406 Q26.3281,20.5625 26.3281,22.75 Q26.3281,25.1563 26.9375,26.4531 Q27.5625,27.7344 28.9219,27.7344 Q29.875,27.7344 30.5625,27.0469 Q31.25,26.3438 31.5781,24.8438 L32.4844,25.25 Q32.0781,26.9531 31.1094,27.9063 Q30.1563,28.8594 28.8438,28.8594 Z " fill="#000000"/><text fill="#000000" font-family="sans-serif" font-size="14" lengthAdjust="spacing" textLength="71" x="43.5" y="29.4839">Shadowrun</text><line style="stroke:#181818;stroke-width:0.5;" x1="15.5" x2="116.5" y1="39" y2="39"/><line style="stroke:#181818;stroke-width:0.5;" x1="15.5" x2="116.5" y1="47" y2="47"/></g><!--class TabletopRPG--><g id="elem_TabletopRPG"><rect fill="#F1F1F1" height="48" id="TabletopRPG" rx="2.5" ry="2.5" style="stroke:#181818;stroke-width:0.5;" width="118" x="7" y="134"/><ellipse cx="22" cy="150" fill="#ADD1B2" rx="11" ry="11" style="stroke:#181818;stroke-width:1.0;"/><path d="M21.3438,155.8594 Q19.3594,155.8594 18.1875,154.3906 Q17.0313,152.9063 17.0313,149.8281 Q17.0313,147.2188 18.25,145.4688 Q19.4844,143.7188 21.6094,143.7188 Q22.1094,143.7188 22.6406,143.8594 Q23.0781,144.0469 23.3438,144.0469 Q23.5625,144.0469 23.6563,144 Q23.7656,143.9531 24.2188,143.3594 L24.9844,147.0938 L24.0938,147.3594 Q23.6406,145.9063 23.0313,145.3125 Q22.4375,144.7031 21.4844,144.7031 Q20.2656,144.7031 19.5469,146.1406 Q18.8281,147.5625 18.8281,149.75 Q18.8281,152.1563 19.4375,153.4531 Q20.0625,154.7344 21.4219,154.7344 Q22.375,154.7344 23.0625,154.0469 Q23.75,153.3438 24.0781,151.8438 L24.9844,152.25 Q24.5781,153.9531 23.6094,154.9063 Q22.6563,155.8594 21.3438,155.8594 Z " fill="#000000"/><text fill="#000000" font-family="sans-serif" font-size="14" lengthAdjust="spacing" textLength="86" x="36" y="156.4839">TabletopRPG</text><line style="stroke:#181818;stroke-width:0.5;" x1="8" x2="124" y1="166" y2="166"/><line style="stroke:#181818;stroke-width:0.5;" x1="8" x2="124" y1="174" y2="174"/></g><!--reverse link Shadowrun to TabletopRPG--><g id="link_Shadowrun_TabletopRPG"><path codeLine="1" d="M66,73.22 C66,95.67 66,111.5 66,133.91 " fill="none" id="Shadowrun-backto-TabletopRPG" style="stroke:#181818;stroke-width:1.0;"/><polygon fill="none" points="66,55.22,60,73.22,72,73.22,66,55.22" style="stroke:#181818;stroke-width:1.0;"/><text fill="#000000" font-family="sans-serif" font-size="13" lengthAdjust="spacing" textLength="42" x="67" y="100.8979">inherits</text></g><!--SRC=[2yv8JCalBohDKx2fqTLL24bCoaajoIy82d1Ni5B8pCj8BSeiAGO0]--></g></svg>