<?xml version="1.0" encoding="us-ascii" standalone="no"?><svg xmlns="http://www.w3.org/2000/svg" xmlns:xlink="http://www.w3.org/1999/xlink" contentStyleType="text/css" height="316px" preserveAspectRatio="none" style="width:271px;height:316px;background:#FFFFFF;" version="1.1" viewBox="0 0 271 316" width="271px" zoomAndPan="magnify"><defs/><g><!--class CongoTheDemocraticRepublicofthe--><g id="elem_CongoTheDemocraticRepublicofthe"><rect fill="#F1F1F1" height="48" id="CongoTheDemocraticRepublicofthe" rx="2.5" ry="2.5" style="stroke:#181818;stroke-width:0.5;" width="257" x="7" y="7"/><ellipse cx="22" cy="23" fill="#ADD1B2" rx="11" ry="11" style="stroke:#181818;stroke-width:1.0;"/><path d="M21.3438,28.8594 Q19.3594,28.8594 18.1875,27.3906 Q17.0313,25.9063 17.0313,22.8281 Q17.0313,20.2188 18.25,18.4688 Q19.4844,16.7188 21.6094,16.7188 Q22.1094,16.7188 22.6406,16.8594 Q23.0781,17.0469 23.3438,17.0469 Q23.5625,17.0469 23.6563,17 Q23.7656,16.9531 24.2188,16.3594 L24.9844,20.0938 L24.0938,20.3594 Q23.6406,18.9063 23.0313,18.3125 Q22.4375,17.7031 21.4844,17.7031 Q20.2656,17.7031 19.5469,19.1406 Q18.8281,20.5625 18.8281,22.75 Q18.8281,25.1563 19.4375,26.4531 Q20.0625,27.7344 21.4219,27.7344 Q22.375,27.7344 23.0625,27.0469 Q23.75,26.3438 24.0781,24.8438 L24.9844,25.25 Q24.5781,26.9531 23.6094,27.9063 Q22.6563,28.8594 21.3438,28.8594 Z " fill="#000000"/><text fill="#000000" font-family="sans-serif" font-size="14" lengthAdjust="spacing" textLength="225" x="36" y="29.4839">CongoTheDemocraticRepublicofthe</text><line style="stroke:#181818;stroke-width:0.5;" x1="8" x2="263" y1="39" y2="39"/><line style="stroke:#181818;stroke-width:0.5;" x1="8" x2="263" y1="47" y2="47"/></g><!--class Country--><g id="elem_Country"><rect fill="#F1F1F1" height="48" id="Country" rx="2.5" ry="2.5" style="stroke:#181818;stroke-width:0.5;" width="82" x="94.5" y="134"/><ellipse cx="109.5" cy="150" fill="#ADD1B2" rx="11" ry="11" style="stroke:#181818;stroke-width:1.0;"/><path d="M108.8438,155.8594 Q106.8594,155.8594 105.6875,154.3906 Q104.5313,152.9063 104.5313,149.8281 Q104.5313,147.2188 105.75,145.4688 Q106.9844,143.7188 109.1094,143.7188 Q109.6094,143.7188 110.1406,143.8594 Q110.5781,144.0469 110.8438,144.0469 Q111.0625,144.0469 111.1563,144 Q111.2656,143.9531 111.7188,143.3594 L112.4844,147.0938 L111.5938,147.3594 Q111.1406,145.9063 110.5313,145.3125 Q109.9375,144.7031 108.9844,144.7031 Q107.7656,144.7031 107.0469,146.1406 Q106.3281,147.5625 106.3281,149.75 Q106.3281,152.1563 106.9375,153.4531 Q107.5625,154.7344 108.9219,154.7344 Q109.875,154.7344 110.5625,154.0469 Q111.25,153.3438 111.5781,151.8438 L112.4844,152.25 Q112.0781,153.9531 111.1094,154.9063 Q110.1563,155.8594 108.8438,155.8594 Z " fill="#000000"/><text fill="#000000" font-family="sans-serif" font-size="14" lengthAdjust="spacing" textLength="50" x="123.5" y="156.4839">Country</text><line style="stroke:#181818;stroke-width:0.5;" x1="95.5" x2="175.5" y1="166" y2="166"/><line style="stroke:#181818;stroke-width:0.5;" x1="95.5" x2="175.5" y1="174" y2="174"/></g><!--class GeopoliticalEntity--><g id="elem_GeopoliticalEntity"><rect fill="#F1F1F1" height="48" id="GeopoliticalEntity" rx="2.5" ry="2.5" style="stroke:#181818;stroke-width:0.5;" width="141" x="65" y="261"/><ellipse cx="80" cy="277" fill="#ADD1B2" rx="11" ry="11" style="stroke:#181818;stroke-width:1.0;"/><path d="M79.3438,282.8594 Q77.3594,282.8594 76.1875,281.3906 Q75.0313,279.9063 75.0313,276.8281 Q75.0313,274.2188 76.25,272.4688 Q77.4844,270.7188 79.6094,270.7188 Q80.1094,270.7188 80.6406,270.8594 Q81.0781,271.0469 81.3438,271.0469 Q81.5625,271.0469 81.6563,271 Q81.7656,270.9531 82.2188,270.3594 L82.9844,274.0938 L82.0938,274.3594 Q81.6406,272.9063 81.0313,272.3125 Q80.4375,271.7031 79.4844,271.7031 Q78.2656,271.7031 77.5469,273.1406 Q76.8281,274.5625 76.8281,276.75 Q76.8281,279.1563 77.4375,280.4531 Q78.0625,281.7344 79.4219,281.7344 Q80.375,281.7344 81.0625,281.0469 Q81.75,280.3438 82.0781,278.8438 L82.9844,279.25 Q82.5781,280.9531 81.6094,281.9063 Q80.6563,282.8594 79.3438,282.8594 Z " fill="#000000"/><text fill="#000000" font-family="sans-serif" font-size="14" lengthAdjust="spacing" textLength="109" x="94" y="283.4839">GeopoliticalEntity</text><line style="stroke:#181818;stroke-width:0.5;" x1="66" x2="205" y1="293" y2="293"/><line style="stroke:#181818;stroke-width:0.5;" x1="66" x2="205" y1="301" y2="301"/></g><!--reverse link CongoTheDemocraticRepublicofthe to Country--><g id="link_CongoTheDemocraticRepublicofthe_Country"><path codeLine="1" d="M135.5,73.22 C135.5,95.67 135.5,111.5 135.5,133.91 " fill="none" id="CongoTheDemocraticRepublicofthe-backto-Country" style="stroke:#181818;stroke-width:1.0;"/><polygon fill="none" points="135.5,55.22,129.5,73.22,141.5,73.22,135.5,55.22" style="stroke:#181818;stroke-width:1.0;"/><text fill="#000000" font-family="sans-serif" font-size="13" lengthAdjust="spacing" textLength="42" x="136.5" y="100.8979">inherits</text></g><!--reverse link Country to GeopoliticalEntity--><g id="link_Country_GeopoliticalEntity"><path codeLine="2" d="M135.5,200.22 C135.5,222.67 135.5,238.5 135.5,260.91 " fill="none" id="Country-backto-GeopoliticalEntity" style="stroke:#181818;stroke-width:1.0;"/><polygon fill="none" points="135.5,182.22,129.5,200.22,141.5,200.22,135.5,182.22" style="stroke:#181818;stroke-width:1.0;"/><text fill="#000000" font-family="sans-serif" font-size="13" lengthAdjust="spacing" textLength="42" x="136.5" y="227.8979">inherits</text></g><!--SRC=[SyxFIyyFoKXrIStDJovABCbC3aejA4tAoKpEJol9I5MmgT7LLN3EByqhAQfKi5B8pCj8BSeiAUQ22O7btLFp2_9pCe6Q4tDSyqeoIv2L0W00]--></g></svg>