<?xml version="1.0" encoding="us-ascii" standalone="no"?><svg xmlns="http://www.w3.org/2000/svg" xmlns:xlink="http://www.w3.org/1999/xlink" contentStyleType="text/css" height="316px" preserveAspectRatio="none" style="width:130px;height:316px;background:#FFFFFF;" version="1.1" viewBox="0 0 130 316" width="130px" zoomAndPan="magnify"><defs/><g><!--class TourTeam--><g id="elem_TourTeam"><rect fill="#F1F1F1" height="48" id="TourTeam" rx="2.5" ry="2.5" style="stroke:#181818;stroke-width:0.5;" width="98" x="8" y="134"/><ellipse cx="23" cy="150" fill="#ADD1B2" rx="11" ry="11" style="stroke:#181818;stroke-width:1.0;"/><path d="M22.3438,155.8594 Q20.3594,155.8594 19.1875,154.3906 Q18.0313,152.9063 18.0313,149.8281 Q18.0313,147.2188 19.25,145.4688 Q20.4844,143.7188 22.6094,143.7188 Q23.1094,143.7188 23.6406,143.8594 Q24.0781,144.0469 24.3438,144.0469 Q24.5625,144.0469 24.6563,144 Q24.7656,143.9531 25.2188,143.3594 L25.9844,147.0938 L25.0938,147.3594 Q24.6406,145.9063 24.0313,145.3125 Q23.4375,144.7031 22.4844,144.7031 Q21.2656,144.7031 20.5469,146.1406 Q19.8281,147.5625 19.8281,149.75 Q19.8281,152.1563 20.4375,153.4531 Q21.0625,154.7344 22.4219,154.7344 Q23.375,154.7344 24.0625,154.0469 Q24.75,153.3438 25.0781,151.8438 L25.9844,152.25 Q25.5781,153.9531 24.6094,154.9063 Q23.6563,155.8594 22.3438,155.8594 Z " fill="#000000"/><text fill="#000000" font-family="sans-serif" font-size="14" lengthAdjust="spacing" textLength="66" x="37" y="156.4839">TourTeam</text><line style="stroke:#181818;stroke-width:0.5;" x1="9" x2="105" y1="166" y2="166"/><line style="stroke:#181818;stroke-width:0.5;" x1="9" x2="105" y1="174" y2="174"/></g><!--class TourGuide--><g id="elem_TourGuide"><rect fill="#F1F1F1" height="48" id="TourGuide" rx="2.5" ry="2.5" style="stroke:#181818;stroke-width:0.5;" width="100" x="7" y="261"/><ellipse cx="22" cy="277" fill="#ADD1B2" rx="11" ry="11" style="stroke:#181818;stroke-width:1.0;"/><path d="M21.3438,282.8594 Q19.3594,282.8594 18.1875,281.3906 Q17.0313,279.9063 17.0313,276.8281 Q17.0313,274.2188 18.25,272.4688 Q19.4844,270.7188 21.6094,270.7188 Q22.1094,270.7188 22.6406,270.8594 Q23.0781,271.0469 23.3438,271.0469 Q23.5625,271.0469 23.6563,271 Q23.7656,270.9531 24.2188,270.3594 L24.9844,274.0938 L24.0938,274.3594 Q23.6406,272.9063 23.0313,272.3125 Q22.4375,271.7031 21.4844,271.7031 Q20.2656,271.7031 19.5469,273.1406 Q18.8281,274.5625 18.8281,276.75 Q18.8281,279.1563 19.4375,280.4531 Q20.0625,281.7344 21.4219,281.7344 Q22.375,281.7344 23.0625,281.0469 Q23.75,280.3438 24.0781,278.8438 L24.9844,279.25 Q24.5781,280.9531 23.6094,281.9063 Q22.6563,282.8594 21.3438,282.8594 Z " fill="#000000"/><text fill="#000000" font-family="sans-serif" font-size="14" lengthAdjust="spacing" textLength="68" x="36" y="283.4839">TourGuide</text><line style="stroke:#181818;stroke-width:0.5;" x1="8" x2="106" y1="293" y2="293"/><line style="stroke:#181818;stroke-width:0.5;" x1="8" x2="106" y1="301" y2="301"/></g><!--class Museum--><g id="elem_Museum"><rect fill="#F1F1F1" height="48" id="Museum" rx="2.5" ry="2.5" style="stroke:#181818;stroke-width:0.5;" width="85" x="14.5" y="7"/><ellipse cx="29.5" cy="23" fill="#ADD1B2" rx="11" ry="11" style="stroke:#181818;stroke-width:1.0;"/><path d="M28.8438,28.8594 Q26.8594,28.8594 25.6875,27.3906 Q24.5313,25.9063 24.5313,22.8281 Q24.5313,20.2188 25.75,18.4688 Q26.9844,16.7188 29.1094,16.7188 Q29.6094,16.7188 30.1406,16.8594 Q30.5781,17.0469 30.8438,17.0469 Q31.0625,17.0469 31.1563,17 Q31.2656,16.9531 31.7188,16.3594 L32.4844,20.0938 L31.5938,20.3594 Q31.1406,18.9063 30.5313,18.3125 Q29.9375,17.7031 28.9844,17.7031 Q27.7656,17.7031 27.0469,19.1406 Q26.3281,20.5625 26.3281,22.75 Q26.3281,25.1563 26.9375,26.4531 Q27.5625,27.7344 28.9219,27.7344 Q29.875,27.7344 30.5625,27.0469 Q31.25,26.3438 31.5781,24.8438 L32.4844,25.25 Q32.0781,26.9531 31.1094,27.9063 Q30.1563,28.8594 28.8438,28.8594 Z " fill="#000000"/><text fill="#000000" font-family="sans-serif" font-size="14" lengthAdjust="spacing" textLength="53" x="43.5" y="29.4839">Museum</text><line style="stroke:#181818;stroke-width:0.5;" x1="15.5" x2="98.5" y1="39" y2="39"/><line style="stroke:#181818;stroke-width:0.5;" x1="15.5" x2="98.5" y1="47" y2="47"/></g><!--reverse link TourTeam to TourGuide--><g id="link_TourTeam_TourGuide"><path codeLine="1" d="M57,194.22 C57,216.67 57,238.5 57,260.91 " fill="none" id="TourTeam-backto-TourGuide" style="stroke:#181818;stroke-width:1.0;"/><polygon fill="none" points="57,182.22,53,188.22,57,194.22,61,188.22,57,182.22" style="stroke:#181818;stroke-width:1.0;"/><text fill="#000000" font-family="sans-serif" font-size="13" lengthAdjust="spacing" textLength="64" x="58" y="227.8979">aggregates</text></g><!--reverse link Museum to TourTeam--><g id="link_Museum_TourTeam"><path codeLine="2" d="M57,67.22 C57,89.67 57,111.5 57,133.91 " fill="none" id="Museum-backto-TourTeam" style="stroke:#181818;stroke-width:1.0;"/><polygon fill="none" points="57,55.22,53,61.22,57,67.22,61,61.22,57,55.22" style="stroke:#181818;stroke-width:1.0;"/><text fill="#000000" font-family="sans-serif" font-size="13" lengthAdjust="spacing" textLength="64" x="58" y="100.8979">aggregates</text></g><!--SRC=[2yalBGf9JSnLoDVLLGW1SjnBCrDI5QmK4jFJYrBJ4qjIYxbyIujJIn4gmCgH5G00]--></g></svg>