<?xml version="1.0" encoding="us-ascii" standalone="no"?><svg xmlns="http://www.w3.org/2000/svg" xmlns:xlink="http://www.w3.org/1999/xlink" contentStyleType="text/css" height="316px" preserveAspectRatio="none" style="width:194px;height:316px;background:#FFFFFF;" version="1.1" viewBox="0 0 194 316" width="194px" zoomAndPan="magnify"><defs/><g><!--class MaintenanceTeam--><g id="elem_MaintenanceTeam"><rect fill="#F1F1F1" height="48" id="MaintenanceTeam" rx="2.5" ry="2.5" style="stroke:#181818;stroke-width:0.5;" width="149" x="22.5" y="134"/><ellipse cx="37.5" cy="150" fill="#ADD1B2" rx="11" ry="11" style="stroke:#181818;stroke-width:1.0;"/><path d="M36.8438,155.8594 Q34.8594,155.8594 33.6875,154.3906 Q32.5313,152.9063 32.5313,149.8281 Q32.5313,147.2188 33.75,145.4688 Q34.9844,143.7188 37.1094,143.7188 Q37.6094,143.7188 38.1406,143.8594 Q38.5781,144.0469 38.8438,144.0469 Q39.0625,144.0469 39.1563,144 Q39.2656,143.9531 39.7188,143.3594 L40.4844,147.0938 L39.5938,147.3594 Q39.1406,145.9063 38.5313,145.3125 Q37.9375,144.7031 36.9844,144.7031 Q35.7656,144.7031 35.0469,146.1406 Q34.3281,147.5625 34.3281,149.75 Q34.3281,152.1563 34.9375,153.4531 Q35.5625,154.7344 36.9219,154.7344 Q37.875,154.7344 38.5625,154.0469 Q39.25,153.3438 39.5781,151.8438 L40.4844,152.25 Q40.0781,153.9531 39.1094,154.9063 Q38.1563,155.8594 36.8438,155.8594 Z " fill="#000000"/><text fill="#000000" font-family="sans-serif" font-size="14" lengthAdjust="spacing" textLength="117" x="51.5" y="156.4839">MaintenanceTeam</text><line style="stroke:#181818;stroke-width:0.5;" x1="23.5" x2="170.5" y1="166" y2="166"/><line style="stroke:#181818;stroke-width:0.5;" x1="23.5" x2="170.5" y1="174" y2="174"/></g><!--class Engineer--><g id="elem_Engineer"><rect fill="#F1F1F1" height="48" id="Engineer" rx="2.5" ry="2.5" style="stroke:#181818;stroke-width:0.5;" width="89" x="52.5" y="261"/><ellipse cx="67.5" cy="277" fill="#ADD1B2" rx="11" ry="11" style="stroke:#181818;stroke-width:1.0;"/><path d="M66.8438,282.8594 Q64.8594,282.8594 63.6875,281.3906 Q62.5313,279.9063 62.5313,276.8281 Q62.5313,274.2188 63.75,272.4688 Q64.9844,270.7188 67.1094,270.7188 Q67.6094,270.7188 68.1406,270.8594 Q68.5781,271.0469 68.8438,271.0469 Q69.0625,271.0469 69.1563,271 Q69.2656,270.9531 69.7188,270.3594 L70.4844,274.0938 L69.5938,274.3594 Q69.1406,272.9063 68.5313,272.3125 Q67.9375,271.7031 66.9844,271.7031 Q65.7656,271.7031 65.0469,273.1406 Q64.3281,274.5625 64.3281,276.75 Q64.3281,279.1563 64.9375,280.4531 Q65.5625,281.7344 66.9219,281.7344 Q67.875,281.7344 68.5625,281.0469 Q69.25,280.3438 69.5781,278.8438 L70.4844,279.25 Q70.0781,280.9531 69.1094,281.9063 Q68.1563,282.8594 66.8438,282.8594 Z " fill="#000000"/><text fill="#000000" font-family="sans-serif" font-size="14" lengthAdjust="spacing" textLength="57" x="81.5" y="283.4839">Engineer</text><line style="stroke:#181818;stroke-width:0.5;" x1="53.5" x2="140.5" y1="293" y2="293"/><line style="stroke:#181818;stroke-width:0.5;" x1="53.5" x2="140.5" y1="301" y2="301"/></g><!--class RegionalTechCompany--><g id="elem_RegionalTechCompany"><rect fill="#F1F1F1" height="48" id="RegionalTechCompany" rx="2.5" ry="2.5" style="stroke:#181818;stroke-width:0.5;" width="180" x="7" y="7"/><ellipse cx="22" cy="23" fill="#ADD1B2" rx="11" ry="11" style="stroke:#181818;stroke-width:1.0;"/><path d="M21.3438,28.8594 Q19.3594,28.8594 18.1875,27.3906 Q17.0313,25.9063 17.0313,22.8281 Q17.0313,20.2188 18.25,18.4688 Q19.4844,16.7188 21.6094,16.7188 Q22.1094,16.7188 22.6406,16.8594 Q23.0781,17.0469 23.3438,17.0469 Q23.5625,17.0469 23.6563,17 Q23.7656,16.9531 24.2188,16.3594 L24.9844,20.0938 L24.0938,20.3594 Q23.6406,18.9063 23.0313,18.3125 Q22.4375,17.7031 21.4844,17.7031 Q20.2656,17.7031 19.5469,19.1406 Q18.8281,20.5625 18.8281,22.75 Q18.8281,25.1563 19.4375,26.4531 Q20.0625,27.7344 21.4219,27.7344 Q22.375,27.7344 23.0625,27.0469 Q23.75,26.3438 24.0781,24.8438 L24.9844,25.25 Q24.5781,26.9531 23.6094,27.9063 Q22.6563,28.8594 21.3438,28.8594 Z " fill="#000000"/><text fill="#000000" font-family="sans-serif" font-size="14" lengthAdjust="spacing" textLength="148" x="36" y="29.4839">RegionalTechCompany</text><line style="stroke:#181818;stroke-width:0.5;" x1="8" x2="186" y1="39" y2="39"/><line style="stroke:#181818;stroke-width:0.5;" x1="8" x2="186" y1="47" y2="47"/></g><!--reverse link MaintenanceTeam to Engineer--><g id="link_MaintenanceTeam_Engineer"><path codeLine="1" d="M97,194.22 C97,216.67 97,238.5 97,260.91 " fill="none" id="MaintenanceTeam-backto-Engineer" style="stroke:#181818;stroke-width:1.0;"/><polygon fill="none" points="97,182.22,93,188.22,97,194.22,101,188.22,97,182.22" style="stroke:#181818;stroke-width:1.0;"/><text fill="#000000" font-family="sans-serif" font-size="13" lengthAdjust="spacing" textLength="64" x="98" y="227.8979">aggregates</text></g><!--reverse link RegionalTechCompany to MaintenanceTeam--><g id="link_RegionalTechCompany_MaintenanceTeam"><path codeLine="2" d="M97,67.22 C97,89.67 97,111.5 97,133.91 " fill="none" id="RegionalTechCompany-backto-MaintenanceTeam" style="stroke:#181818;stroke-width:1.0;"/><polygon fill="none" points="97,55.22,93,61.22,97,67.22,101,61.22,97,55.22" style="stroke:#181818;stroke-width:1.0;"/><text fill="#000000" font-family="sans-serif" font-size="13" lengthAdjust="spacing" textLength="64" x="98" y="100.8979">aggregates</text></g><!--SRC=[yqtCp2j9pKlCIquDIKtCLSZNrLLmpKlFp4jDBLAmKaXCJozAJKyiIItc2afDpypFIym9IKtESCxFBKZCgmIhzaKp0LaJ0000]--></g></svg>