<?xml version="1.0" encoding="us-ascii" standalone="no"?><svg xmlns="http://www.w3.org/2000/svg" xmlns:xlink="http://www.w3.org/1999/xlink" contentStyleType="text/css" height="316px" preserveAspectRatio="none" style="width:195px;height:316px;background:#FFFFFF;" version="1.1" viewBox="0 0 195 316" width="195px" zoomAndPan="magnify"><defs/><g><!--class IncidentResponseTeam--><g id="elem_IncidentResponseTeam"><rect fill="#F1F1F1" height="48" id="IncidentResponseTeam" rx="2.5" ry="2.5" style="stroke:#181818;stroke-width:0.5;" width="181" x="7" y="134"/><ellipse cx="22" cy="150" fill="#ADD1B2" rx="11" ry="11" style="stroke:#181818;stroke-width:1.0;"/><path d="M21.3438,155.8594 Q19.3594,155.8594 18.1875,154.3906 Q17.0313,152.9063 17.0313,149.8281 Q17.0313,147.2188 18.25,145.4688 Q19.4844,143.7188 21.6094,143.7188 Q22.1094,143.7188 22.6406,143.8594 Q23.0781,144.0469 23.3438,144.0469 Q23.5625,144.0469 23.6563,144 Q23.7656,143.9531 24.2188,143.3594 L24.9844,147.0938 L24.0938,147.3594 Q23.6406,145.9063 23.0313,145.3125 Q22.4375,144.7031 21.4844,144.7031 Q20.2656,144.7031 19.5469,146.1406 Q18.8281,147.5625 18.8281,149.75 Q18.8281,152.1563 19.4375,153.4531 Q20.0625,154.7344 21.4219,154.7344 Q22.375,154.7344 23.0625,154.0469 Q23.75,153.3438 24.0781,151.8438 L24.9844,152.25 Q24.5781,153.9531 23.6094,154.9063 Q22.6563,155.8594 21.3438,155.8594 Z " fill="#000000"/><text fill="#000000" font-family="sans-serif" font-size="14" lengthAdjust="spacing" textLength="149" x="36" y="156.4839">IncidentResponseTeam</text><line style="stroke:#181818;stroke-width:0.5;" x1="8" x2="187" y1="166" y2="166"/><line style="stroke:#181818;stroke-width:0.5;" x1="8" x2="187" y1="174" y2="174"/></g><!--class Registrar--><g id="elem_Registrar"><rect fill="#F1F1F1" height="48" id="Registrar" rx="2.5" ry="2.5" style="stroke:#181818;stroke-width:0.5;" width="90" x="52.5" y="261"/><ellipse cx="67.5" cy="277" fill="#ADD1B2" rx="11" ry="11" style="stroke:#181818;stroke-width:1.0;"/><path d="M66.8438,282.8594 Q64.8594,282.8594 63.6875,281.3906 Q62.5313,279.9063 62.5313,276.8281 Q62.5313,274.2188 63.75,272.4688 Q64.9844,270.7188 67.1094,270.7188 Q67.6094,270.7188 68.1406,270.8594 Q68.5781,271.0469 68.8438,271.0469 Q69.0625,271.0469 69.1563,271 Q69.2656,270.9531 69.7188,270.3594 L70.4844,274.0938 L69.5938,274.3594 Q69.1406,272.9063 68.5313,272.3125 Q67.9375,271.7031 66.9844,271.7031 Q65.7656,271.7031 65.0469,273.1406 Q64.3281,274.5625 64.3281,276.75 Q64.3281,279.1563 64.9375,280.4531 Q65.5625,281.7344 66.9219,281.7344 Q67.875,281.7344 68.5625,281.0469 Q69.25,280.3438 69.5781,278.8438 L70.4844,279.25 Q70.0781,280.9531 69.1094,281.9063 Q68.1563,282.8594 66.8438,282.8594 Z " fill="#000000"/><text fill="#000000" font-family="sans-serif" font-size="14" lengthAdjust="spacing" textLength="58" x="81.5" y="283.4839">Registrar</text><line style="stroke:#181818;stroke-width:0.5;" x1="53.5" x2="141.5" y1="293" y2="293"/><line style="stroke:#181818;stroke-width:0.5;" x1="53.5" x2="141.5" y1="301" y2="301"/></g><!--class MediaMusicAcademy--><g id="elem_MediaMusicAcademy"><rect fill="#F1F1F1" height="48" id="MediaMusicAcademy" rx="2.5" ry="2.5" style="stroke:#181818;stroke-width:0.5;" width="164" x="15.5" y="7"/><ellipse cx="30.5" cy="23" fill="#ADD1B2" rx="11" ry="11" style="stroke:#181818;stroke-width:1.0;"/><path d="M29.8438,28.8594 Q27.8594,28.8594 26.6875,27.3906 Q25.5313,25.9063 25.5313,22.8281 Q25.5313,20.2188 26.75,18.4688 Q27.9844,16.7188 30.1094,16.7188 Q30.6094,16.7188 31.1406,16.8594 Q31.5781,17.0469 31.8438,17.0469 Q32.0625,17.0469 32.1563,17 Q32.2656,16.9531 32.7188,16.3594 L33.4844,20.0938 L32.5938,20.3594 Q32.1406,18.9063 31.5313,18.3125 Q30.9375,17.7031 29.9844,17.7031 Q28.7656,17.7031 28.0469,19.1406 Q27.3281,20.5625 27.3281,22.75 Q27.3281,25.1563 27.9375,26.4531 Q28.5625,27.7344 29.9219,27.7344 Q30.875,27.7344 31.5625,27.0469 Q32.25,26.3438 32.5781,24.8438 L33.4844,25.25 Q33.0781,26.9531 32.1094,27.9063 Q31.1563,28.8594 29.8438,28.8594 Z " fill="#000000"/><text fill="#000000" font-family="sans-serif" font-size="14" lengthAdjust="spacing" textLength="132" x="44.5" y="29.4839">MediaMusicAcademy</text><line style="stroke:#181818;stroke-width:0.5;" x1="16.5" x2="178.5" y1="39" y2="39"/><line style="stroke:#181818;stroke-width:0.5;" x1="16.5" x2="178.5" y1="47" y2="47"/></g><!--reverse link IncidentResponseTeam to Registrar--><g id="link_IncidentResponseTeam_Registrar"><path codeLine="1" d="M97.5,194.22 C97.5,216.67 97.5,238.5 97.5,260.91 " fill="none" id="IncidentResponseTeam-backto-Registrar" style="stroke:#181818;stroke-width:1.0;"/><polygon fill="none" points="97.5,182.22,93.5,188.22,97.5,194.22,101.5,188.22,97.5,182.22" style="stroke:#181818;stroke-width:1.0;"/><text fill="#000000" font-family="sans-serif" font-size="13" lengthAdjust="spacing" textLength="64" x="98.5" y="227.8979">aggregates</text></g><!--reverse link MediaMusicAcademy to IncidentResponseTeam--><g id="link_MediaMusicAcademy_IncidentResponseTeam"><path codeLine="2" d="M97.5,67.22 C97.5,89.67 97.5,111.5 97.5,133.91 " fill="none" id="MediaMusicAcademy-backto-IncidentResponseTeam" style="stroke:#181818;stroke-width:1.0;"/><polygon fill="none" points="97.5,55.22,93.5,61.22,97.5,67.22,101.5,61.22,97.5,55.22" style="stroke:#181818;stroke-width:1.0;"/><text fill="#000000" font-family="sans-serif" font-size="13" lengthAdjust="spacing" textLength="64" x="98.5" y="100.8979">aggregates</text></g><!--SRC=[yynBpan9pIi9IYqkoCyhJWr9JSnLoDVLLGXAJSyiBYbAB5AmKaXCJozAJKyiIItcyarDoKpqBItEJ7PCJan9pQq4A_R4PWgoFW00]--></g></svg>