<?xml version="1.0" encoding="us-ascii" standalone="no"?><svg xmlns="http://www.w3.org/2000/svg" xmlns:xlink="http://www.w3.org/1999/xlink" contentStyleType="text/css" height="316px" preserveAspectRatio="none" style="width:140px;height:316px;background:#FFFFFF;" version="1.1" viewBox="0 0 140 316" width="140px" zoomAndPan="magnify"><defs/><g><!--class RangerTeam--><g id="elem_RangerTeam"><rect fill="#F1F1F1" height="48" id="RangerTeam" rx="2.5" ry="2.5" style="stroke:#181818;stroke-width:0.5;" width="115" x="9.5" y="134"/><ellipse cx="24.5" cy="150" fill="#ADD1B2" rx="11" ry="11" style="stroke:#181818;stroke-width:1.0;"/><path d="M23.8438,155.8594 Q21.8594,155.8594 20.6875,154.3906 Q19.5313,152.9063 19.5313,149.8281 Q19.5313,147.2188 20.75,145.4688 Q21.9844,143.7188 24.1094,143.7188 Q24.6094,143.7188 25.1406,143.8594 Q25.5781,144.0469 25.8438,144.0469 Q26.0625,144.0469 26.1563,144 Q26.2656,143.9531 26.7188,143.3594 L27.4844,147.0938 L26.5938,147.3594 Q26.1406,145.9063 25.5313,145.3125 Q24.9375,144.7031 23.9844,144.7031 Q22.7656,144.7031 22.0469,146.1406 Q21.3281,147.5625 21.3281,149.75 Q21.3281,152.1563 21.9375,153.4531 Q22.5625,154.7344 23.9219,154.7344 Q24.875,154.7344 25.5625,154.0469 Q26.25,153.3438 26.5781,151.8438 L27.4844,152.25 Q27.0781,153.9531 26.1094,154.9063 Q25.1563,155.8594 23.8438,155.8594 Z " fill="#000000"/><text fill="#000000" font-family="sans-serif" font-size="14" lengthAdjust="spacing" textLength="83" x="38.5" y="156.4839">RangerTeam</text><line style="stroke:#181818;stroke-width:0.5;" x1="10.5" x2="123.5" y1="166" y2="166"/><line style="stroke:#181818;stroke-width:0.5;" x1="10.5" x2="123.5" y1="174" y2="174"/></g><!--class ForestRanger--><g id="elem_ForestRanger"><rect fill="#F1F1F1" height="48" id="ForestRanger" rx="2.5" ry="2.5" style="stroke:#181818;stroke-width:0.5;" width="120" x="7" y="261"/><ellipse cx="22" cy="277" fill="#ADD1B2" rx="11" ry="11" style="stroke:#181818;stroke-width:1.0;"/><path d="M21.3438,282.8594 Q19.3594,282.8594 18.1875,281.3906 Q17.0313,279.9063 17.0313,276.8281 Q17.0313,274.2188 18.25,272.4688 Q19.4844,270.7188 21.6094,270.7188 Q22.1094,270.7188 22.6406,270.8594 Q23.0781,271.0469 23.3438,271.0469 Q23.5625,271.0469 23.6563,271 Q23.7656,270.9531 24.2188,270.3594 L24.9844,274.0938 L24.0938,274.3594 Q23.6406,272.9063 23.0313,272.3125 Q22.4375,271.7031 21.4844,271.7031 Q20.2656,271.7031 19.5469,273.1406 Q18.8281,274.5625 18.8281,276.75 Q18.8281,279.1563 19.4375,280.4531 Q20.0625,281.7344 21.4219,281.7344 Q22.375,281.7344 23.0625,281.0469 Q23.75,280.3438 24.0781,278.8438 L24.9844,279.25 Q24.5781,280.9531 23.6094,281.9063 Q22.6563,282.8594 21.3438,282.8594 Z " fill="#000000"/><text fill="#000000" font-family="sans-serif" font-size="14" lengthAdjust="spacing" textLength="88" x="36" y="283.4839">ForestRanger</text><line style="stroke:#181818;stroke-width:0.5;" x1="8" x2="126" y1="293" y2="293"/><line style="stroke:#181818;stroke-width:0.5;" x1="8" x2="126" y1="301" y2="301"/></g><!--class ForestPark--><g id="elem_ForestPark"><rect fill="#F1F1F1" height="48" id="ForestPark" rx="2.5" ry="2.5" style="stroke:#181818;stroke-width:0.5;" width="102" x="16" y="7"/><ellipse cx="31" cy="23" fill="#ADD1B2" rx="11" ry="11" style="stroke:#181818;stroke-width:1.0;"/><path d="M30.3438,28.8594 Q28.3594,28.8594 27.1875,27.3906 Q26.0313,25.9063 26.0313,22.8281 Q26.0313,20.2188 27.25,18.4688 Q28.4844,16.7188 30.6094,16.7188 Q31.1094,16.7188 31.6406,16.8594 Q32.0781,17.0469 32.3438,17.0469 Q32.5625,17.0469 32.6563,17 Q32.7656,16.9531 33.2188,16.3594 L33.9844,20.0938 L33.0938,20.3594 Q32.6406,18.9063 32.0313,18.3125 Q31.4375,17.7031 30.4844,17.7031 Q29.2656,17.7031 28.5469,19.1406 Q27.8281,20.5625 27.8281,22.75 Q27.8281,25.1563 28.4375,26.4531 Q29.0625,27.7344 30.4219,27.7344 Q31.375,27.7344 32.0625,27.0469 Q32.75,26.3438 33.0781,24.8438 L33.9844,25.25 Q33.5781,26.9531 32.6094,27.9063 Q31.6563,28.8594 30.3438,28.8594 Z " fill="#000000"/><text fill="#000000" font-family="sans-serif" font-size="14" lengthAdjust="spacing" textLength="70" x="45" y="29.4839">ForestPark</text><line style="stroke:#181818;stroke-width:0.5;" x1="17" x2="117" y1="39" y2="39"/><line style="stroke:#181818;stroke-width:0.5;" x1="17" x2="117" y1="47" y2="47"/></g><!--reverse link RangerTeam to ForestRanger--><g id="link_RangerTeam_ForestRanger"><path codeLine="1" d="M67,194.22 C67,216.67 67,238.5 67,260.91 " fill="none" id="RangerTeam-backto-ForestRanger" style="stroke:#181818;stroke-width:1.0;"/><polygon fill="none" points="67,182.22,63,188.22,67,194.22,71,188.22,67,182.22" style="stroke:#181818;stroke-width:1.0;"/><text fill="#000000" font-family="sans-serif" font-size="13" lengthAdjust="spacing" textLength="64" x="68" y="227.8979">aggregates</text></g><!--reverse link ForestPark to RangerTeam--><g id="link_ForestPark_RangerTeam"><path codeLine="2" d="M67,67.22 C67,89.67 67,111.5 67,133.91 " fill="none" id="ForestPark-backto-RangerTeam" style="stroke:#181818;stroke-width:1.0;"/><polygon fill="none" points="67,55.22,63,61.22,67,67.22,71,61.22,67,55.22" style="stroke:#181818;stroke-width:1.0;"/><text fill="#000000" font-family="sans-serif" font-size="13" lengthAdjust="spacing" textLength="64" x="68" y="100.8979">aggregates</text></g><!--SRC=[2qhCIqyj2abDp5N8rzLLSCilIYqk2G8BAbWf9AQd5wMc9vQa5dD1P08IYxB12eCG-f2L0G00]--></g></svg>