<?xml version="1.0" encoding="us-ascii" standalone="no"?><svg xmlns="http://www.w3.org/2000/svg" xmlns:xlink="http://www.w3.org/1999/xlink" contentStyleType="text/css" height="316px" preserveAspectRatio="none" style="width:144px;height:316px;background:#FFFFFF;" version="1.1" viewBox="0 0 144 316" width="144px" zoomAndPan="magnify"><defs/><g><!--class FireTeam--><g id="elem_FireTeam"><rect fill="#F1F1F1" height="48" id="FireTeam" rx="2.5" ry="2.5" style="stroke:#181818;stroke-width:0.5;" width="93" x="25" y="134"/><ellipse cx="40" cy="150" fill="#ADD1B2" rx="11" ry="11" style="stroke:#181818;stroke-width:1.0;"/><path d="M39.3438,155.8594 Q37.3594,155.8594 36.1875,154.3906 Q35.0313,152.9063 35.0313,149.8281 Q35.0313,147.2188 36.25,145.4688 Q37.4844,143.7188 39.6094,143.7188 Q40.1094,143.7188 40.6406,143.8594 Q41.0781,144.0469 41.3438,144.0469 Q41.5625,144.0469 41.6563,144 Q41.7656,143.9531 42.2188,143.3594 L42.9844,147.0938 L42.0938,147.3594 Q41.6406,145.9063 41.0313,145.3125 Q40.4375,144.7031 39.4844,144.7031 Q38.2656,144.7031 37.5469,146.1406 Q36.8281,147.5625 36.8281,149.75 Q36.8281,152.1563 37.4375,153.4531 Q38.0625,154.7344 39.4219,154.7344 Q40.375,154.7344 41.0625,154.0469 Q41.75,153.3438 42.0781,151.8438 L42.9844,152.25 Q42.5781,153.9531 41.6094,154.9063 Q40.6563,155.8594 39.3438,155.8594 Z " fill="#000000"/><text fill="#000000" font-family="sans-serif" font-size="14" lengthAdjust="spacing" textLength="61" x="54" y="156.4839">FireTeam</text><line style="stroke:#181818;stroke-width:0.5;" x1="26" x2="117" y1="166" y2="166"/><line style="stroke:#181818;stroke-width:0.5;" x1="26" x2="117" y1="174" y2="174"/></g><!--class Firefighter--><g id="elem_Firefighter"><rect fill="#F1F1F1" height="48" id="Firefighter" rx="2.5" ry="2.5" style="stroke:#181818;stroke-width:0.5;" width="97" x="23" y="261"/><ellipse cx="38" cy="277" fill="#ADD1B2" rx="11" ry="11" style="stroke:#181818;stroke-width:1.0;"/><path d="M37.3438,282.8594 Q35.3594,282.8594 34.1875,281.3906 Q33.0313,279.9063 33.0313,276.8281 Q33.0313,274.2188 34.25,272.4688 Q35.4844,270.7188 37.6094,270.7188 Q38.1094,270.7188 38.6406,270.8594 Q39.0781,271.0469 39.3438,271.0469 Q39.5625,271.0469 39.6563,271 Q39.7656,270.9531 40.2188,270.3594 L40.9844,274.0938 L40.0938,274.3594 Q39.6406,272.9063 39.0313,272.3125 Q38.4375,271.7031 37.4844,271.7031 Q36.2656,271.7031 35.5469,273.1406 Q34.8281,274.5625 34.8281,276.75 Q34.8281,279.1563 35.4375,280.4531 Q36.0625,281.7344 37.4219,281.7344 Q38.375,281.7344 39.0625,281.0469 Q39.75,280.3438 40.0781,278.8438 L40.9844,279.25 Q40.5781,280.9531 39.6094,281.9063 Q38.6563,282.8594 37.3438,282.8594 Z " fill="#000000"/><text fill="#000000" font-family="sans-serif" font-size="14" lengthAdjust="spacing" textLength="65" x="52" y="283.4839">Firefighter</text><line style="stroke:#181818;stroke-width:0.5;" x1="24" x2="119" y1="293" y2="293"/><line style="stroke:#181818;stroke-width:0.5;" x1="24" x2="119" y1="301" y2="301"/></g><!--class ForestAuthority--><g id="elem_ForestAuthority"><rect fill="#F1F1F1" height="48" id="ForestAuthority" rx="2.5" ry="2.5" style="stroke:#181818;stroke-width:0.5;" width="129" x="7" y="7"/><ellipse cx="22" cy="23" fill="#ADD1B2" rx="11" ry="11" style="stroke:#181818;stroke-width:1.0;"/><path d="M21.3438,28.8594 Q19.3594,28.8594 18.1875,27.3906 Q17.0313,25.9063 17.0313,22.8281 Q17.0313,20.2188 18.25,18.4688 Q19.4844,16.7188 21.6094,16.7188 Q22.1094,16.7188 22.6406,16.8594 Q23.0781,17.0469 23.3438,17.0469 Q23.5625,17.0469 23.6563,17 Q23.7656,16.9531 24.2188,16.3594 L24.9844,20.0938 L24.0938,20.3594 Q23.6406,18.9063 23.0313,18.3125 Q22.4375,17.7031 21.4844,17.7031 Q20.2656,17.7031 19.5469,19.1406 Q18.8281,20.5625 18.8281,22.75 Q18.8281,25.1563 19.4375,26.4531 Q20.0625,27.7344 21.4219,27.7344 Q22.375,27.7344 23.0625,27.0469 Q23.75,26.3438 24.0781,24.8438 L24.9844,25.25 Q24.5781,26.9531 23.6094,27.9063 Q22.6563,28.8594 21.3438,28.8594 Z " fill="#000000"/><text fill="#000000" font-family="sans-serif" font-size="14" lengthAdjust="spacing" textLength="97" x="36" y="29.4839">ForestAuthority</text><line style="stroke:#181818;stroke-width:0.5;" x1="8" x2="135" y1="39" y2="39"/><line style="stroke:#181818;stroke-width:0.5;" x1="8" x2="135" y1="47" y2="47"/></g><!--reverse link FireTeam to Firefighter--><g id="link_FireTeam_Firefighter"><path codeLine="1" d="M71.5,194.22 C71.5,216.67 71.5,238.5 71.5,260.91 " fill="none" id="FireTeam-backto-Firefighter" style="stroke:#181818;stroke-width:1.0;"/><polygon fill="none" points="71.5,182.22,67.5,188.22,71.5,194.22,75.5,188.22,71.5,182.22" style="stroke:#181818;stroke-width:1.0;"/><text fill="#000000" font-family="sans-serif" font-size="13" lengthAdjust="spacing" textLength="64" x="72.5" y="227.8979">aggregates</text></g><!--reverse link ForestAuthority to FireTeam--><g id="link_ForestAuthority_FireTeam"><path codeLine="2" d="M71.5,67.22 C71.5,89.67 71.5,111.5 71.5,133.91 " fill="none" id="ForestAuthority-backto-FireTeam" style="stroke:#181818;stroke-width:1.0;"/><polygon fill="none" points="71.5,55.22,67.5,61.22,71.5,67.22,75.5,61.22,71.5,55.22" style="stroke:#181818;stroke-width:1.0;"/><text fill="#000000" font-family="sans-serif" font-size="13" lengthAdjust="spacing" textLength="64" x="72.5" y="100.8979">aggregates</text></g><!--SRC=[SyiiIWr9JSnLoDVLLN03Sj8oqpDAKeiKh1GIqzEBKjCJIrABkTpoYrABInnBIpBoYp9BAk6AmJgHLG80]--></g></svg>