<?xml version="1.0" encoding="us-ascii" standalone="no"?><svg xmlns="http://www.w3.org/2000/svg" xmlns:xlink="http://www.w3.org/1999/xlink" contentStyleType="text/css" height="316px" preserveAspectRatio="none" style="width:165px;height:316px;background:#FFFFFF;" version="1.1" viewBox="0 0 165 316" width="165px" zoomAndPan="magnify"><defs/><g><!--class RehearsalTeam--><g id="elem_RehearsalTeam"><rect fill="#F1F1F1" height="48" id="RehearsalTeam" rx="2.5" ry="2.5" style="stroke:#181818;stroke-width:0.5;" width="133" x="16" y="134"/><ellipse cx="31" cy="150" fill="#ADD1B2" rx="11" ry="11" style="stroke:#181818;stroke-width:1.0;"/><path d="M30.3438,155.8594 Q28.3594,155.8594 27.1875,154.3906 Q26.0313,152.9063 26.0313,149.8281 Q26.0313,147.2188 27.25,145.4688 Q28.4844,143.7188 30.6094,143.7188 Q31.1094,143.7188 31.6406,143.8594 Q32.0781,144.0469 32.3438,144.0469 Q32.5625,144.0469 32.6563,144 Q32.7656,143.9531 33.2188,143.3594 L33.9844,147.0938 L33.0938,147.3594 Q32.6406,145.9063 32.0313,145.3125 Q31.4375,144.7031 30.4844,144.7031 Q29.2656,144.7031 28.5469,146.1406 Q27.8281,147.5625 27.8281,149.75 Q27.8281,152.1563 28.4375,153.4531 Q29.0625,154.7344 30.4219,154.7344 Q31.375,154.7344 32.0625,154.0469 Q32.75,153.3438 33.0781,151.8438 L33.9844,152.25 Q33.5781,153.9531 32.6094,154.9063 Q31.6563,155.8594 30.3438,155.8594 Z " fill="#000000"/><text fill="#000000" font-family="sans-serif" font-size="14" lengthAdjust="spacing" textLength="101" x="45" y="156.4839">RehearsalTeam</text><line style="stroke:#181818;stroke-width:0.5;" x1="17" x2="148" y1="166" y2="166"/><line style="stroke:#181818;stroke-width:0.5;" x1="17" x2="148" y1="174" y2="174"/></g><!--class Violinist--><g id="elem_Violinist"><rect fill="#F1F1F1" height="48" id="Violinist" rx="2.5" ry="2.5" style="stroke:#181818;stroke-width:0.5;" width="80" x="42.5" y="261"/><ellipse cx="57.5" cy="277" fill="#ADD1B2" rx="11" ry="11" style="stroke:#181818;stroke-width:1.0;"/><path d="M56.8438,282.8594 Q54.8594,282.8594 53.6875,281.3906 Q52.5313,279.9063 52.5313,276.8281 Q52.5313,274.2188 53.75,272.4688 Q54.9844,270.7188 57.1094,270.7188 Q57.6094,270.7188 58.1406,270.8594 Q58.5781,271.0469 58.8438,271.0469 Q59.0625,271.0469 59.1563,271 Q59.2656,270.9531 59.7188,270.3594 L60.4844,274.0938 L59.5938,274.3594 Q59.1406,272.9063 58.5313,272.3125 Q57.9375,271.7031 56.9844,271.7031 Q55.7656,271.7031 55.0469,273.1406 Q54.3281,274.5625 54.3281,276.75 Q54.3281,279.1563 54.9375,280.4531 Q55.5625,281.7344 56.9219,281.7344 Q57.875,281.7344 58.5625,281.0469 Q59.25,280.3438 59.5781,278.8438 L60.4844,279.25 Q60.0781,280.9531 59.1094,281.9063 Q58.1563,282.8594 56.8438,282.8594 Z " fill="#000000"/><text fill="#000000" font-family="sans-serif" font-size="14" lengthAdjust="spacing" textLength="48" x="71.5" y="283.4839">Violinist</text><line style="stroke:#181818;stroke-width:0.5;" x1="43.5" x2="121.5" y1="293" y2="293"/><line style="stroke:#181818;stroke-width:0.5;" x1="43.5" x2="121.5" y1="301" y2="301"/></g><!--class OrchestraAuthority--><g id="elem_OrchestraAuthority"><rect fill="#F1F1F1" height="48" id="OrchestraAuthority" rx="2.5" ry="2.5" style="stroke:#181818;stroke-width:0.5;" width="151" x="7" y="7"/><ellipse cx="22" cy="23" fill="#ADD1B2" rx="11" ry="11" style="stroke:#181818;stroke-width:1.0;"/><path d="M21.3438,28.8594 Q19.3594,28.8594 18.1875,27.3906 Q17.0313,25.9063 17.0313,22.8281 Q17.0313,20.2188 18.25,18.4688 Q19.4844,16.7188 21.6094,16.7188 Q22.1094,16.7188 22.6406,16.8594 Q23.0781,17.0469 23.3438,17.0469 Q23.5625,17.0469 23.6563,17 Q23.7656,16.9531 24.2188,16.3594 L24.9844,20.0938 L24.0938,20.3594 Q23.6406,18.9063 23.0313,18.3125 Q22.4375,17.7031 21.4844,17.7031 Q20.2656,17.7031 19.5469,19.1406 Q18.8281,20.5625 18.8281,22.75 Q18.8281,25.1563 19.4375,26.4531 Q20.0625,27.7344 21.4219,27.7344 Q22.375,27.7344 23.0625,27.0469 Q23.75,26.3438 24.0781,24.8438 L24.9844,25.25 Q24.5781,26.9531 23.6094,27.9063 Q22.6563,28.8594 21.3438,28.8594 Z " fill="#000000"/><text fill="#000000" font-family="sans-serif" font-size="14" lengthAdjust="spacing" textLength="119" x="36" y="29.4839">OrchestraAuthority</text><line style="stroke:#181818;stroke-width:0.5;" x1="8" x2="157" y1="39" y2="39"/><line style="stroke:#181818;stroke-width:0.5;" x1="8" x2="157" y1="47" y2="47"/></g><!--reverse link RehearsalTeam to Violinist--><g id="link_RehearsalTeam_Violinist"><path codeLine="1" d="M82.5,194.22 C82.5,216.67 82.5,238.5 82.5,260.91 " fill="none" id="RehearsalTeam-backto-Violinist" style="stroke:#181818;stroke-width:1.0;"/><polygon fill="none" points="82.5,182.22,78.5,188.22,82.5,194.22,86.5,188.22,82.5,182.22" style="stroke:#181818;stroke-width:1.0;"/><text fill="#000000" font-family="sans-serif" font-size="13" lengthAdjust="spacing" textLength="64" x="83.5" y="227.8979">aggregates</text></g><!--reverse link OrchestraAuthority to RehearsalTeam--><g id="link_OrchestraAuthority_RehearsalTeam"><path codeLine="2" d="M82.5,67.22 C82.5,89.67 82.5,111.5 82.5,133.91 " fill="none" id="OrchestraAuthority-backto-RehearsalTeam" style="stroke:#181818;stroke-width:1.0;"/><polygon fill="none" points="82.5,55.22,78.5,61.22,82.5,67.22,86.5,61.22,82.5,55.22" style="stroke:#181818;stroke-width:1.0;"/><text fill="#000000" font-family="sans-serif" font-size="13" lengthAdjust="spacing" textLength="64" x="83.5" y="100.8979">aggregates</text></g><!--SRC=[2qhDI4qiAaxC2KbDp5N8rzLL2ClCpydCoomkKR1II4nFBqfDJon9BURoBqhEI2qkAKfqB2t9o2_ABAa4gmv2qO-i0m00]--></g></svg>