<?xml version="1.0" encoding="us-ascii" standalone="no"?><svg xmlns="http://www.w3.org/2000/svg" xmlns:xlink="http://www.w3.org/1999/xlink" contentStyleType="text/css" height="316px" preserveAspectRatio="none" style="width:153px;height:316px;background:#FFFFFF;" version="1.1" viewBox="0 0 153 316" width="153px" zoomAndPan="magnify"><defs/><g><!--class FordF150--><g id="elem_FordF150"><rect fill="#F1F1F1" height="48" id="FordF150" rx="2.5" ry="2.5" style="stroke:#181818;stroke-width:0.5;" width="95" x="29" y="7"/><ellipse cx="44" cy="23" fill="#ADD1B2" rx="11" ry="11" style="stroke:#181818;stroke-width:1.0;"/><path d="M43.3438,28.8594 Q41.3594,28.8594 40.1875,27.3906 Q39.0313,25.9063 39.0313,22.8281 Q39.0313,20.2188 40.25,18.4688 Q41.4844,16.7188 43.6094,16.7188 Q44.1094,16.7188 44.6406,16.8594 Q45.0781,17.0469 45.3438,17.0469 Q45.5625,17.0469 45.6563,17 Q45.7656,16.9531 46.2188,16.3594 L46.9844,20.0938 L46.0938,20.3594 Q45.6406,18.9063 45.0313,18.3125 Q44.4375,17.7031 43.4844,17.7031 Q42.2656,17.7031 41.5469,19.1406 Q40.8281,20.5625 40.8281,22.75 Q40.8281,25.1563 41.4375,26.4531 Q42.0625,27.7344 43.4219,27.7344 Q44.375,27.7344 45.0625,27.0469 Q45.75,26.3438 46.0781,24.8438 L46.9844,25.25 Q46.5781,26.9531 45.6094,27.9063 Q44.6563,28.8594 43.3438,28.8594 Z " fill="#000000"/><text fill="#000000" font-family="sans-serif" font-size="14" lengthAdjust="spacing" textLength="63" x="58" y="29.4839">FordF150</text><line style="stroke:#181818;stroke-width:0.5;" x1="30" x2="123" y1="39" y2="39"/><line style="stroke:#181818;stroke-width:0.5;" x1="30" x2="123" y1="47" y2="47"/></g><!--class Ford--><g id="elem_Ford"><rect fill="#F1F1F1" height="48" id="Ford" rx="2.5" ry="2.5" style="stroke:#181818;stroke-width:0.5;" width="62" x="45.5" y="134"/><ellipse cx="60.5" cy="150" fill="#ADD1B2" rx="11" ry="11" style="stroke:#181818;stroke-width:1.0;"/><path d="M59.8438,155.8594 Q57.8594,155.8594 56.6875,154.3906 Q55.5313,152.9063 55.5313,149.8281 Q55.5313,147.2188 56.75,145.4688 Q57.9844,143.7188 60.1094,143.7188 Q60.6094,143.7188 61.1406,143.8594 Q61.5781,144.0469 61.8438,144.0469 Q62.0625,144.0469 62.1563,144 Q62.2656,143.9531 62.7188,143.3594 L63.4844,147.0938 L62.5938,147.3594 Q62.1406,145.9063 61.5313,145.3125 Q60.9375,144.7031 59.9844,144.7031 Q58.7656,144.7031 58.0469,146.1406 Q57.3281,147.5625 57.3281,149.75 Q57.3281,152.1563 57.9375,153.4531 Q58.5625,154.7344 59.9219,154.7344 Q60.875,154.7344 61.5625,154.0469 Q62.25,153.3438 62.5781,151.8438 L63.4844,152.25 Q63.0781,153.9531 62.1094,154.9063 Q61.1563,155.8594 59.8438,155.8594 Z " fill="#000000"/><text fill="#000000" font-family="sans-serif" font-size="14" lengthAdjust="spacing" textLength="30" x="74.5" y="156.4839">Ford</text><line style="stroke:#181818;stroke-width:0.5;" x1="46.5" x2="106.5" y1="166" y2="166"/><line style="stroke:#181818;stroke-width:0.5;" x1="46.5" x2="106.5" y1="174" y2="174"/></g><!--class CarManufacturer--><g id="elem_CarManufacturer"><rect fill="#F1F1F1" height="48" id="CarManufacturer" rx="2.5" ry="2.5" style="stroke:#181818;stroke-width:0.5;" width="139" x="7" y="261"/><ellipse cx="22" cy="277" fill="#ADD1B2" rx="11" ry="11" style="stroke:#181818;stroke-width:1.0;"/><path d="M21.3438,282.8594 Q19.3594,282.8594 18.1875,281.3906 Q17.0313,279.9063 17.0313,276.8281 Q17.0313,274.2188 18.25,272.4688 Q19.4844,270.7188 21.6094,270.7188 Q22.1094,270.7188 22.6406,270.8594 Q23.0781,271.0469 23.3438,271.0469 Q23.5625,271.0469 23.6563,271 Q23.7656,270.9531 24.2188,270.3594 L24.9844,274.0938 L24.0938,274.3594 Q23.6406,272.9063 23.0313,272.3125 Q22.4375,271.7031 21.4844,271.7031 Q20.2656,271.7031 19.5469,273.1406 Q18.8281,274.5625 18.8281,276.75 Q18.8281,279.1563 19.4375,280.4531 Q20.0625,281.7344 21.4219,281.7344 Q22.375,281.7344 23.0625,281.0469 Q23.75,280.3438 24.0781,278.8438 L24.9844,279.25 Q24.5781,280.9531 23.6094,281.9063 Q22.6563,282.8594 21.3438,282.8594 Z " fill="#000000"/><text fill="#000000" font-family="sans-serif" font-size="14" lengthAdjust="spacing" textLength="107" x="36" y="283.4839">CarManufacturer</text><line style="stroke:#181818;stroke-width:0.5;" x1="8" x2="145" y1="293" y2="293"/><line style="stroke:#181818;stroke-width:0.5;" x1="8" x2="145" y1="301" y2="301"/></g><!--reverse link FordF150 to Ford--><g id="link_FordF150_Ford"><path codeLine="1" d="M76.5,73.22 C76.5,95.67 76.5,111.5 76.5,133.91 " fill="none" id="FordF150-backto-Ford" style="stroke:#181818;stroke-width:1.0;"/><polygon fill="none" points="76.5,55.22,70.5,73.22,82.5,73.22,76.5,55.22" style="stroke:#181818;stroke-width:1.0;"/><text fill="#000000" font-family="sans-serif" font-size="13" lengthAdjust="spacing" textLength="42" x="77.5" y="100.8979">inherits</text></g><!--reverse link Ford to CarManufacturer--><g id="link_Ford_CarManufacturer"><path codeLine="2" d="M76.5,200.22 C76.5,222.67 76.5,238.5 76.5,260.91 " fill="none" id="Ford-backto-CarManufacturer" style="stroke:#181818;stroke-width:1.0;"/><polygon fill="none" points="76.5,182.22,70.5,200.22,82.5,200.22,76.5,182.22" style="stroke:#181818;stroke-width:1.0;"/><text fill="#000000" font-family="sans-serif" font-size="13" lengthAdjust="spacing" textLength="42" x="77.5" y="227.8979">inherits</text></g><!--SRC=[SyilId4pD3LGiAdHrLLm0_8Kh1Goyp9IYp9BYhd0VB2CSsAHRs9UQLfYSabfKMeHaY80]--></g></svg>