<?xml version="1.0" encoding="us-ascii" standalone="no"?><svg xmlns="http://www.w3.org/2000/svg" xmlns:xlink="http://www.w3.org/1999/xlink" contentStyleType="text/css" height="316px" preserveAspectRatio="none" style="width:99px;height:316px;background:#FFFFFF;" version="1.1" viewBox="0 0 99 316" width="99px" zoomAndPan="magnify"><defs/><g><!--class Fencing--><g id="elem_Fencing"><rect fill="#F1F1F1" height="48" id="Fencing" rx="2.5" ry="2.5" style="stroke:#181818;stroke-width:0.5;" width="83" x="7" y="7"/><ellipse cx="22" cy="23" fill="#ADD1B2" rx="11" ry="11" style="stroke:#181818;stroke-width:1.0;"/><path d="M21.3438,28.8594 Q19.3594,28.8594 18.1875,27.3906 Q17.0313,25.9063 17.0313,22.8281 Q17.0313,20.2188 18.25,18.4688 Q19.4844,16.7188 21.6094,16.7188 Q22.1094,16.7188 22.6406,16.8594 Q23.0781,17.0469 23.3438,17.0469 Q23.5625,17.0469 23.6563,17 Q23.7656,16.9531 24.2188,16.3594 L24.9844,20.0938 L24.0938,20.3594 Q23.6406,18.9063 23.0313,18.3125 Q22.4375,17.7031 21.4844,17.7031 Q20.2656,17.7031 19.5469,19.1406 Q18.8281,20.5625 18.8281,22.75 Q18.8281,25.1563 19.4375,26.4531 Q20.0625,27.7344 21.4219,27.7344 Q22.375,27.7344 23.0625,27.0469 Q23.75,26.3438 24.0781,24.8438 L24.9844,25.25 Q24.5781,26.9531 23.6094,27.9063 Q22.6563,28.8594 21.3438,28.8594 Z " fill="#000000"/><text fill="#000000" font-family="sans-serif" font-size="14" lengthAdjust="spacing" textLength="51" x="36" y="29.4839">Fencing</text><line style="stroke:#181818;stroke-width:0.5;" x1="8" x2="89" y1="39" y2="39"/><line style="stroke:#181818;stroke-width:0.5;" x1="8" x2="89" y1="47" y2="47"/></g><!--class Sport--><g id="elem_Sport"><rect fill="#F1F1F1" height="48" id="Sport" rx="2.5" ry="2.5" style="stroke:#181818;stroke-width:0.5;" width="66" x="15.5" y="134"/><ellipse cx="30.5" cy="150" fill="#ADD1B2" rx="11" ry="11" style="stroke:#181818;stroke-width:1.0;"/><path d="M29.8438,155.8594 Q27.8594,155.8594 26.6875,154.3906 Q25.5313,152.9063 25.5313,149.8281 Q25.5313,147.2188 26.75,145.4688 Q27.9844,143.7188 30.1094,143.7188 Q30.6094,143.7188 31.1406,143.8594 Q31.5781,144.0469 31.8438,144.0469 Q32.0625,144.0469 32.1563,144 Q32.2656,143.9531 32.7188,143.3594 L33.4844,147.0938 L32.5938,147.3594 Q32.1406,145.9063 31.5313,145.3125 Q30.9375,144.7031 29.9844,144.7031 Q28.7656,144.7031 28.0469,146.1406 Q27.3281,147.5625 27.3281,149.75 Q27.3281,152.1563 27.9375,153.4531 Q28.5625,154.7344 29.9219,154.7344 Q30.875,154.7344 31.5625,154.0469 Q32.25,153.3438 32.5781,151.8438 L33.4844,152.25 Q33.0781,153.9531 32.1094,154.9063 Q31.1563,155.8594 29.8438,155.8594 Z " fill="#000000"/><text fill="#000000" font-family="sans-serif" font-size="14" lengthAdjust="spacing" textLength="34" x="44.5" y="156.4839">Sport</text><line style="stroke:#181818;stroke-width:0.5;" x1="16.5" x2="80.5" y1="166" y2="166"/><line style="stroke:#181818;stroke-width:0.5;" x1="16.5" x2="80.5" y1="174" y2="174"/></g><!--class Activity--><g id="elem_Activity"><rect fill="#F1F1F1" height="48" id="Activity" rx="2.5" ry="2.5" style="stroke:#181818;stroke-width:0.5;" width="76" x="10.5" y="261"/><ellipse cx="25.5" cy="277" fill="#ADD1B2" rx="11" ry="11" style="stroke:#181818;stroke-width:1.0;"/><path d="M24.8438,282.8594 Q22.8594,282.8594 21.6875,281.3906 Q20.5313,279.9063 20.5313,276.8281 Q20.5313,274.2188 21.75,272.4688 Q22.9844,270.7188 25.1094,270.7188 Q25.6094,270.7188 26.1406,270.8594 Q26.5781,271.0469 26.8438,271.0469 Q27.0625,271.0469 27.1563,271 Q27.2656,270.9531 27.7188,270.3594 L28.4844,274.0938 L27.5938,274.3594 Q27.1406,272.9063 26.5313,272.3125 Q25.9375,271.7031 24.9844,271.7031 Q23.7656,271.7031 23.0469,273.1406 Q22.3281,274.5625 22.3281,276.75 Q22.3281,279.1563 22.9375,280.4531 Q23.5625,281.7344 24.9219,281.7344 Q25.875,281.7344 26.5625,281.0469 Q27.25,280.3438 27.5781,278.8438 L28.4844,279.25 Q28.0781,280.9531 27.1094,281.9063 Q26.1563,282.8594 24.8438,282.8594 Z " fill="#000000"/><text fill="#000000" font-family="sans-serif" font-size="14" lengthAdjust="spacing" textLength="44" x="39.5" y="283.4839">Activity</text><line style="stroke:#181818;stroke-width:0.5;" x1="11.5" x2="85.5" y1="293" y2="293"/><line style="stroke:#181818;stroke-width:0.5;" x1="11.5" x2="85.5" y1="301" y2="301"/></g><!--reverse link Fencing to Sport--><g id="link_Fencing_Sport"><path codeLine="1" d="M48.5,73.22 C48.5,95.67 48.5,111.5 48.5,133.91 " fill="none" id="Fencing-backto-Sport" style="stroke:#181818;stroke-width:1.0;"/><polygon fill="none" points="48.5,55.22,42.5,73.22,54.5,73.22,48.5,55.22" style="stroke:#181818;stroke-width:1.0;"/><text fill="#000000" font-family="sans-serif" font-size="13" lengthAdjust="spacing" textLength="42" x="49.5" y="100.8979">inherits</text></g><!--reverse link Sport to Activity--><g id="link_Sport_Activity"><path codeLine="2" d="M48.5,200.22 C48.5,222.67 48.5,238.5 48.5,260.91 " fill="none" id="Sport-backto-Activity" style="stroke:#181818;stroke-width:1.0;"/><polygon fill="none" points="48.5,182.22,42.5,200.22,54.5,200.22,48.5,182.22" style="stroke:#181818;stroke-width:1.0;"/><text fill="#000000" font-family="sans-serif" font-size="13" lengthAdjust="spacing" textLength="42" x="49.5" y="227.8979">inherits</text></g><!--SRC=[SqlDIyxCIrUmgT7LLGWko2ygKR1IoCpBI2tAB2dcWWY0vHoJIpBBCaigaQG1]--></g></svg>