<?xml version="1.0" encoding="us-ascii" standalone="no"?><svg xmlns="http://www.w3.org/2000/svg" xmlns:xlink="http://www.w3.org/1999/xlink" contentStyleType="text/css" height="316px" preserveAspectRatio="none" style="width:129px;height:316px;background:#FFFFFF;" version="1.1" viewBox="0 0 129 316" width="129px" zoomAndPan="magnify"><defs/><g><!--class Kendo--><g id="elem_Kendo"><rect fill="#F1F1F1" height="48" id="Kendo" rx="2.5" ry="2.5" style="stroke:#181818;stroke-width:0.5;" width="73" x="28" y="7"/><ellipse cx="43" cy="23" fill="#ADD1B2" rx="11" ry="11" style="stroke:#181818;stroke-width:1.0;"/><path d="M42.3438,28.8594 Q40.3594,28.8594 39.1875,27.3906 Q38.0313,25.9063 38.0313,22.8281 Q38.0313,20.2188 39.25,18.4688 Q40.4844,16.7188 42.6094,16.7188 Q43.1094,16.7188 43.6406,16.8594 Q44.0781,17.0469 44.3438,17.0469 Q44.5625,17.0469 44.6563,17 Q44.7656,16.9531 45.2188,16.3594 L45.9844,20.0938 L45.0938,20.3594 Q44.6406,18.9063 44.0313,18.3125 Q43.4375,17.7031 42.4844,17.7031 Q41.2656,17.7031 40.5469,19.1406 Q39.8281,20.5625 39.8281,22.75 Q39.8281,25.1563 40.4375,26.4531 Q41.0625,27.7344 42.4219,27.7344 Q43.375,27.7344 44.0625,27.0469 Q44.75,26.3438 45.0781,24.8438 L45.9844,25.25 Q45.5781,26.9531 44.6094,27.9063 Q43.6563,28.8594 42.3438,28.8594 Z " fill="#000000"/><text fill="#000000" font-family="sans-serif" font-size="14" lengthAdjust="spacing" textLength="41" x="57" y="29.4839">Kendo</text><line style="stroke:#181818;stroke-width:0.5;" x1="29" x2="100" y1="39" y2="39"/><line style="stroke:#181818;stroke-width:0.5;" x1="29" x2="100" y1="47" y2="47"/></g><!--class CombatSport--><g id="elem_CombatSport"><rect fill="#F1F1F1" height="48" id="CombatSport" rx="2.5" ry="2.5" style="stroke:#181818;stroke-width:0.5;" width="115" x="7" y="134"/><ellipse cx="22" cy="150" fill="#ADD1B2" rx="11" ry="11" style="stroke:#181818;stroke-width:1.0;"/><path d="M21.3438,155.8594 Q19.3594,155.8594 18.1875,154.3906 Q17.0313,152.9063 17.0313,149.8281 Q17.0313,147.2188 18.25,145.4688 Q19.4844,143.7188 21.6094,143.7188 Q22.1094,143.7188 22.6406,143.8594 Q23.0781,144.0469 23.3438,144.0469 Q23.5625,144.0469 23.6563,144 Q23.7656,143.9531 24.2188,143.3594 L24.9844,147.0938 L24.0938,147.3594 Q23.6406,145.9063 23.0313,145.3125 Q22.4375,144.7031 21.4844,144.7031 Q20.2656,144.7031 19.5469,146.1406 Q18.8281,147.5625 18.8281,149.75 Q18.8281,152.1563 19.4375,153.4531 Q20.0625,154.7344 21.4219,154.7344 Q22.375,154.7344 23.0625,154.0469 Q23.75,153.3438 24.0781,151.8438 L24.9844,152.25 Q24.5781,153.9531 23.6094,154.9063 Q22.6563,155.8594 21.3438,155.8594 Z " fill="#000000"/><text fill="#000000" font-family="sans-serif" font-size="14" lengthAdjust="spacing" textLength="83" x="36" y="156.4839">CombatSport</text><line style="stroke:#181818;stroke-width:0.5;" x1="8" x2="121" y1="166" y2="166"/><line style="stroke:#181818;stroke-width:0.5;" x1="8" x2="121" y1="174" y2="174"/></g><!--class Sport--><g id="elem_Sport"><rect fill="#F1F1F1" height="48" id="Sport" rx="2.5" ry="2.5" style="stroke:#181818;stroke-width:0.5;" width="66" x="31.5" y="261"/><ellipse cx="46.5" cy="277" fill="#ADD1B2" rx="11" ry="11" style="stroke:#181818;stroke-width:1.0;"/><path d="M45.8438,282.8594 Q43.8594,282.8594 42.6875,281.3906 Q41.5313,279.9063 41.5313,276.8281 Q41.5313,274.2188 42.75,272.4688 Q43.9844,270.7188 46.1094,270.7188 Q46.6094,270.7188 47.1406,270.8594 Q47.5781,271.0469 47.8438,271.0469 Q48.0625,271.0469 48.1563,271 Q48.2656,270.9531 48.7188,270.3594 L49.4844,274.0938 L48.5938,274.3594 Q48.1406,272.9063 47.5313,272.3125 Q46.9375,271.7031 45.9844,271.7031 Q44.7656,271.7031 44.0469,273.1406 Q43.3281,274.5625 43.3281,276.75 Q43.3281,279.1563 43.9375,280.4531 Q44.5625,281.7344 45.9219,281.7344 Q46.875,281.7344 47.5625,281.0469 Q48.25,280.3438 48.5781,278.8438 L49.4844,279.25 Q49.0781,280.9531 48.1094,281.9063 Q47.1563,282.8594 45.8438,282.8594 Z " fill="#000000"/><text fill="#000000" font-family="sans-serif" font-size="14" lengthAdjust="spacing" textLength="34" x="60.5" y="283.4839">Sport</text><line style="stroke:#181818;stroke-width:0.5;" x1="32.5" x2="96.5" y1="293" y2="293"/><line style="stroke:#181818;stroke-width:0.5;" x1="32.5" x2="96.5" y1="301" y2="301"/></g><!--reverse link Kendo to CombatSport--><g id="link_Kendo_CombatSport"><path codeLine="1" d="M64.5,73.22 C64.5,95.67 64.5,111.5 64.5,133.91 " fill="none" id="Kendo-backto-CombatSport" style="stroke:#181818;stroke-width:1.0;"/><polygon fill="none" points="64.5,55.22,58.5,73.22,70.5,73.22,64.5,55.22" style="stroke:#181818;stroke-width:1.0;"/><text fill="#000000" font-family="sans-serif" font-size="13" lengthAdjust="spacing" textLength="42" x="65.5" y="100.8979">inherits</text></g><!--reverse link CombatSport to Sport--><g id="link_CombatSport_Sport"><path codeLine="2" d="M64.5,200.22 C64.5,222.67 64.5,238.5 64.5,260.91 " fill="none" id="CombatSport-backto-Sport" style="stroke:#181818;stroke-width:1.0;"/><polygon fill="none" points="64.5,182.22,58.5,200.22,70.5,200.22,64.5,182.22" style="stroke:#181818;stroke-width:1.0;"/><text fill="#000000" font-family="sans-serif" font-size="13" lengthAdjust="spacing" textLength="42" x="65.5" y="227.8979">inherits</text></g><!--SRC=[yqxDIybNiAdHrLLmpizDIYm9BiWlAb6mKiZCoqWjoYmfva8M1gj3Lm40]--></g></svg>