<?xml version="1.0" encoding="us-ascii" standalone="no"?><svg xmlns="http://www.w3.org/2000/svg" xmlns:xlink="http://www.w3.org/1999/xlink" contentStyleType="text/css" height="316px" preserveAspectRatio="none" style="width:123px;height:316px;background:#FFFFFF;" version="1.1" viewBox="0 0 123 316" width="123px" zoomAndPan="magnify"><defs/><g><!--class AlpineSkiing--><g id="elem_AlpineSkiing"><rect fill="#F1F1F1" height="48" id="AlpineSkiing" rx="2.5" ry="2.5" style="stroke:#181818;stroke-width:0.5;" width="109" x="7" y="7"/><ellipse cx="22" cy="23" fill="#ADD1B2" rx="11" ry="11" style="stroke:#181818;stroke-width:1.0;"/><path d="M21.3438,28.8594 Q19.3594,28.8594 18.1875,27.3906 Q17.0313,25.9063 17.0313,22.8281 Q17.0313,20.2188 18.25,18.4688 Q19.4844,16.7188 21.6094,16.7188 Q22.1094,16.7188 22.6406,16.8594 Q23.0781,17.0469 23.3438,17.0469 Q23.5625,17.0469 23.6563,17 Q23.7656,16.9531 24.2188,16.3594 L24.9844,20.0938 L24.0938,20.3594 Q23.6406,18.9063 23.0313,18.3125 Q22.4375,17.7031 21.4844,17.7031 Q20.2656,17.7031 19.5469,19.1406 Q18.8281,20.5625 18.8281,22.75 Q18.8281,25.1563 19.4375,26.4531 Q20.0625,27.7344 21.4219,27.7344 Q22.375,27.7344 23.0625,27.0469 Q23.75,26.3438 24.0781,24.8438 L24.9844,25.25 Q24.5781,26.9531 23.6094,27.9063 Q22.6563,28.8594 21.3438,28.8594 Z " fill="#000000"/><text fill="#000000" font-family="sans-serif" font-size="14" lengthAdjust="spacing" textLength="77" x="36" y="29.4839">AlpineSkiing</text><line style="stroke:#181818;stroke-width:0.5;" x1="8" x2="115" y1="39" y2="39"/><line style="stroke:#181818;stroke-width:0.5;" x1="8" x2="115" y1="47" y2="47"/></g><!--class WinterSport--><g id="elem_WinterSport"><rect fill="#F1F1F1" height="48" id="WinterSport" rx="2.5" ry="2.5" style="stroke:#181818;stroke-width:0.5;" width="107" x="8" y="134"/><ellipse cx="23" cy="150" fill="#ADD1B2" rx="11" ry="11" style="stroke:#181818;stroke-width:1.0;"/><path d="M22.3438,155.8594 Q20.3594,155.8594 19.1875,154.3906 Q18.0313,152.9063 18.0313,149.8281 Q18.0313,147.2188 19.25,145.4688 Q20.4844,143.7188 22.6094,143.7188 Q23.1094,143.7188 23.6406,143.8594 Q24.0781,144.0469 24.3438,144.0469 Q24.5625,144.0469 24.6563,144 Q24.7656,143.9531 25.2188,143.3594 L25.9844,147.0938 L25.0938,147.3594 Q24.6406,145.9063 24.0313,145.3125 Q23.4375,144.7031 22.4844,144.7031 Q21.2656,144.7031 20.5469,146.1406 Q19.8281,147.5625 19.8281,149.75 Q19.8281,152.1563 20.4375,153.4531 Q21.0625,154.7344 22.4219,154.7344 Q23.375,154.7344 24.0625,154.0469 Q24.75,153.3438 25.0781,151.8438 L25.9844,152.25 Q25.5781,153.9531 24.6094,154.9063 Q23.6563,155.8594 22.3438,155.8594 Z " fill="#000000"/><text fill="#000000" font-family="sans-serif" font-size="14" lengthAdjust="spacing" textLength="75" x="37" y="156.4839">WinterSport</text><line style="stroke:#181818;stroke-width:0.5;" x1="9" x2="114" y1="166" y2="166"/><line style="stroke:#181818;stroke-width:0.5;" x1="9" x2="114" y1="174" y2="174"/></g><!--class Sport--><g id="elem_Sport"><rect fill="#F1F1F1" height="48" id="Sport" rx="2.5" ry="2.5" style="stroke:#181818;stroke-width:0.5;" width="66" x="28.5" y="261"/><ellipse cx="43.5" cy="277" fill="#ADD1B2" rx="11" ry="11" style="stroke:#181818;stroke-width:1.0;"/><path d="M42.8438,282.8594 Q40.8594,282.8594 39.6875,281.3906 Q38.5313,279.9063 38.5313,276.8281 Q38.5313,274.2188 39.75,272.4688 Q40.9844,270.7188 43.1094,270.7188 Q43.6094,270.7188 44.1406,270.8594 Q44.5781,271.0469 44.8438,271.0469 Q45.0625,271.0469 45.1563,271 Q45.2656,270.9531 45.7188,270.3594 L46.4844,274.0938 L45.5938,274.3594 Q45.1406,272.9063 44.5313,272.3125 Q43.9375,271.7031 42.9844,271.7031 Q41.7656,271.7031 41.0469,273.1406 Q40.3281,274.5625 40.3281,276.75 Q40.3281,279.1563 40.9375,280.4531 Q41.5625,281.7344 42.9219,281.7344 Q43.875,281.7344 44.5625,281.0469 Q45.25,280.3438 45.5781,278.8438 L46.4844,279.25 Q46.0781,280.9531 45.1094,281.9063 Q44.1563,282.8594 42.8438,282.8594 Z " fill="#000000"/><text fill="#000000" font-family="sans-serif" font-size="14" lengthAdjust="spacing" textLength="34" x="57.5" y="283.4839">Sport</text><line style="stroke:#181818;stroke-width:0.5;" x1="29.5" x2="93.5" y1="293" y2="293"/><line style="stroke:#181818;stroke-width:0.5;" x1="29.5" x2="93.5" y1="301" y2="301"/></g><!--reverse link AlpineSkiing to WinterSport--><g id="link_AlpineSkiing_WinterSport"><path codeLine="1" d="M61.5,73.22 C61.5,95.67 61.5,111.5 61.5,133.91 " fill="none" id="AlpineSkiing-backto-WinterSport" style="stroke:#181818;stroke-width:1.0;"/><polygon fill="none" points="61.5,55.22,55.5,73.22,67.5,73.22,61.5,55.22" style="stroke:#181818;stroke-width:1.0;"/><text fill="#000000" font-family="sans-serif" font-size="13" lengthAdjust="spacing" textLength="42" x="62.5" y="100.8979">inherits</text></g><!--reverse link WinterSport to Sport--><g id="link_WinterSport_Sport"><path codeLine="2" d="M61.5,200.22 C61.5,222.67 61.5,238.5 61.5,260.91 " fill="none" id="WinterSport-backto-Sport" style="stroke:#181818;stroke-width:1.0;"/><polygon fill="none" points="61.5,182.22,55.5,200.22,67.5,200.22,61.5,182.22" style="stroke:#181818;stroke-width:1.0;"/><text fill="#000000" font-family="sans-serif" font-size="13" lengthAdjust="spacing" textLength="42" x="62.5" y="227.8979">inherits</text></g><!--SRC=[SymfoCnB3SxEpCnBLx2fqTLL2C_CAqaj2Yx8BofHi5B8pCj8BSeiAUP25WQhGrS10000]--></g></svg>