<?xml version="1.0" encoding="us-ascii" standalone="no"?><svg xmlns="http://www.w3.org/2000/svg" xmlns:xlink="http://www.w3.org/1999/xlink" contentStyleType="text/css" height="189px" preserveAspectRatio="none" style="width:330px;height:189px;background:#FFFFFF;" version="1.1" viewBox="0 0 330 189" width="330px" zoomAndPan="magnify"><defs/><g><!--class SingaporeUniversityOfTechnologyAndDesign--><g id="elem_SingaporeUniversityOfTechnologyAndDesign"><rect fill="#F1F1F1" height="48" id="SingaporeUniversityOfTechnologyAndDesign" rx="2.5" ry="2.5" style="stroke:#181818;stroke-width:0.5;" width="316" x="7" y="7"/><ellipse cx="22" cy="23" fill="#ADD1B2" rx="11" ry="11" style="stroke:#181818;stroke-width:1.0;"/><path d="M21.3438,28.8594 Q19.3594,28.8594 18.1875,27.3906 Q17.0313,25.9063 17.0313,22.8281 Q17.0313,20.2188 18.25,18.4688 Q19.4844,16.7188 21.6094,16.7188 Q22.1094,16.7188 22.6406,16.8594 Q23.0781,17.0469 23.3438,17.0469 Q23.5625,17.0469 23.6563,17 Q23.7656,16.9531 24.2188,16.3594 L24.9844,20.0938 L24.0938,20.3594 Q23.6406,18.9063 23.0313,18.3125 Q22.4375,17.7031 21.4844,17.7031 Q20.2656,17.7031 19.5469,19.1406 Q18.8281,20.5625 18.8281,22.75 Q18.8281,25.1563 19.4375,26.4531 Q20.0625,27.7344 21.4219,27.7344 Q22.375,27.7344 23.0625,27.0469 Q23.75,26.3438 24.0781,24.8438 L24.9844,25.25 Q24.5781,26.9531 23.6094,27.9063 Q22.6563,28.8594 21.3438,28.8594 Z " fill="#000000"/><text fill="#000000" font-family="sans-serif" font-size="14" lengthAdjust="spacing" textLength="284" x="36" y="29.4839">SingaporeUniversityOfTechnologyAndDesign</text><line style="stroke:#181818;stroke-width:0.5;" x1="8" x2="322" y1="39" y2="39"/><line style="stroke:#181818;stroke-width:0.5;" x1="8" x2="322" y1="47" y2="47"/></g><!--class University--><g id="elem_University"><rect fill="#F1F1F1" height="48" id="University" rx="2.5" ry="2.5" style="stroke:#181818;stroke-width:0.5;" width="93" x="118.5" y="134"/><ellipse cx="133.5" cy="150" fill="#ADD1B2" rx="11" ry="11" style="stroke:#181818;stroke-width:1.0;"/><path d="M132.8438,155.8594 Q130.8594,155.8594 129.6875,154.3906 Q128.5313,152.9063 128.5313,149.8281 Q128.5313,147.2188 129.75,145.4688 Q130.9844,143.7188 133.1094,143.7188 Q133.6094,143.7188 134.1406,143.8594 Q134.5781,144.0469 134.8438,144.0469 Q135.0625,144.0469 135.1563,144 Q135.2656,143.9531 135.7188,143.3594 L136.4844,147.0938 L135.5938,147.3594 Q135.1406,145.9063 134.5313,145.3125 Q133.9375,144.7031 132.9844,144.7031 Q131.7656,144.7031 131.0469,146.1406 Q130.3281,147.5625 130.3281,149.75 Q130.3281,152.1563 130.9375,153.4531 Q131.5625,154.7344 132.9219,154.7344 Q133.875,154.7344 134.5625,154.0469 Q135.25,153.3438 135.5781,151.8438 L136.4844,152.25 Q136.0781,153.9531 135.1094,154.9063 Q134.1563,155.8594 132.8438,155.8594 Z " fill="#000000"/><text fill="#000000" font-family="sans-serif" font-size="14" lengthAdjust="spacing" textLength="61" x="147.5" y="156.4839">University</text><line style="stroke:#181818;stroke-width:0.5;" x1="119.5" x2="210.5" y1="166" y2="166"/><line style="stroke:#181818;stroke-width:0.5;" x1="119.5" x2="210.5" y1="174" y2="174"/></g><!--reverse link SingaporeUniversityOfTechnologyAndDesign to University--><g id="link_SingaporeUniversityOfTechnologyAndDesign_University"><path codeLine="1" d="M165,73.22 C165,95.67 165,111.5 165,133.91 " fill="none" id="SingaporeUniversityOfTechnologyAndDesign-backto-University" style="stroke:#181818;stroke-width:1.0;"/><polygon fill="none" points="165,55.22,159,73.22,171,73.22,165,55.22" style="stroke:#181818;stroke-width:1.0;"/><text fill="#000000" font-family="sans-serif" font-size="13" lengthAdjust="spacing" textLength="42" x="166" y="100.8979">inherits</text></g><!--SRC=[2yxCIqyio2zA3StBB4ijAiuigVHF2qbDpiZBpybFhtJCIt59BSvCprEmgT7LLK0eKh1IoCpBI2tAB2a60000]--></g></svg>