<?xml version="1.0" encoding="us-ascii" standalone="no"?><svg xmlns="http://www.w3.org/2000/svg" xmlns:xlink="http://www.w3.org/1999/xlink" contentStyleType="text/css" height="316px" preserveAspectRatio="none" style="width:166px;height:316px;background:#FFFFFF;" version="1.1" viewBox="0 0 166 316" width="166px" zoomAndPan="magnify"><defs/><g><!--class GitRepositoryHost--><g id="elem_GitRepositoryHost"><rect fill="#F1F1F1" height="48" id="GitRepositoryHost" rx="2.5" ry="2.5" style="stroke:#181818;stroke-width:0.5;" width="146" x="10" y="134"/><ellipse cx="25" cy="150" fill="#ADD1B2" rx="11" ry="11" style="stroke:#181818;stroke-width:1.0;"/><path d="M24.3438,155.8594 Q22.3594,155.8594 21.1875,154.3906 Q20.0313,152.9063 20.0313,149.8281 Q20.0313,147.2188 21.25,145.4688 Q22.4844,143.7188 24.6094,143.7188 Q25.1094,143.7188 25.6406,143.8594 Q26.0781,144.0469 26.3438,144.0469 Q26.5625,144.0469 26.6563,144 Q26.7656,143.9531 27.2188,143.3594 L27.9844,147.0938 L27.0938,147.3594 Q26.6406,145.9063 26.0313,145.3125 Q25.4375,144.7031 24.4844,144.7031 Q23.2656,144.7031 22.5469,146.1406 Q21.8281,147.5625 21.8281,149.75 Q21.8281,152.1563 22.4375,153.4531 Q23.0625,154.7344 24.4219,154.7344 Q25.375,154.7344 26.0625,154.0469 Q26.75,153.3438 27.0781,151.8438 L27.9844,152.25 Q27.5781,153.9531 26.6094,154.9063 Q25.6563,155.8594 24.3438,155.8594 Z " fill="#000000"/><text fill="#000000" font-family="sans-serif" font-size="14" lengthAdjust="spacing" textLength="114" x="39" y="156.4839">GitRepositoryHost</text><line style="stroke:#181818;stroke-width:0.5;" x1="11" x2="155" y1="166" y2="166"/><line style="stroke:#181818;stroke-width:0.5;" x1="11" x2="155" y1="174" y2="174"/></g><!--class CodeReview--><g id="elem_CodeReview"><rect fill="#F1F1F1" height="48" id="CodeReview" rx="2.5" ry="2.5" style="stroke:#181818;stroke-width:0.5;" width="111" x="27.5" y="261"/><ellipse cx="42.5" cy="277" fill="#ADD1B2" rx="11" ry="11" style="stroke:#181818;stroke-width:1.0;"/><path d="M41.8438,282.8594 Q39.8594,282.8594 38.6875,281.3906 Q37.5313,279.9063 37.5313,276.8281 Q37.5313,274.2188 38.75,272.4688 Q39.9844,270.7188 42.1094,270.7188 Q42.6094,270.7188 43.1406,270.8594 Q43.5781,271.0469 43.8438,271.0469 Q44.0625,271.0469 44.1563,271 Q44.2656,270.9531 44.7188,270.3594 L45.4844,274.0938 L44.5938,274.3594 Q44.1406,272.9063 43.5313,272.3125 Q42.9375,271.7031 41.9844,271.7031 Q40.7656,271.7031 40.0469,273.1406 Q39.3281,274.5625 39.3281,276.75 Q39.3281,279.1563 39.9375,280.4531 Q40.5625,281.7344 41.9219,281.7344 Q42.875,281.7344 43.5625,281.0469 Q44.25,280.3438 44.5781,278.8438 L45.4844,279.25 Q45.0781,280.9531 44.1094,281.9063 Q43.1563,282.8594 41.8438,282.8594 Z " fill="#000000"/><text fill="#000000" font-family="sans-serif" font-size="14" lengthAdjust="spacing" textLength="79" x="56.5" y="283.4839">CodeReview</text><line style="stroke:#181818;stroke-width:0.5;" x1="28.5" x2="137.5" y1="293" y2="293"/><line style="stroke:#181818;stroke-width:0.5;" x1="28.5" x2="137.5" y1="301" y2="301"/></g><!--class InternetConnection--><g id="elem_InternetConnection"><rect fill="#F1F1F1" height="48" id="InternetConnection" rx="2.5" ry="2.5" style="stroke:#181818;stroke-width:0.5;" width="152" x="7" y="7"/><ellipse cx="22" cy="23" fill="#ADD1B2" rx="11" ry="11" style="stroke:#181818;stroke-width:1.0;"/><path d="M21.3438,28.8594 Q19.3594,28.8594 18.1875,27.3906 Q17.0313,25.9063 17.0313,22.8281 Q17.0313,20.2188 18.25,18.4688 Q19.4844,16.7188 21.6094,16.7188 Q22.1094,16.7188 22.6406,16.8594 Q23.0781,17.0469 23.3438,17.0469 Q23.5625,17.0469 23.6563,17 Q23.7656,16.9531 24.2188,16.3594 L24.9844,20.0938 L24.0938,20.3594 Q23.6406,18.9063 23.0313,18.3125 Q22.4375,17.7031 21.4844,17.7031 Q20.2656,17.7031 19.5469,19.1406 Q18.8281,20.5625 18.8281,22.75 Q18.8281,25.1563 19.4375,26.4531 Q20.0625,27.7344 21.4219,27.7344 Q22.375,27.7344 23.0625,27.0469 Q23.75,26.3438 24.0781,24.8438 L24.9844,25.25 Q24.5781,26.9531 23.6094,27.9063 Q22.6563,28.8594 21.3438,28.8594 Z " fill="#000000"/><text fill="#000000" font-family="sans-serif" font-size="14" lengthAdjust="spacing" textLength="120" x="36" y="29.4839">InternetConnection</text><line style="stroke:#181818;stroke-width:0.5;" x1="8" x2="158" y1="39" y2="39"/><line style="stroke:#181818;stroke-width:0.5;" x1="8" x2="158" y1="47" y2="47"/></g><!--link GitRepositoryHost to CodeReview--><g id="link_GitRepositoryHost_CodeReview"><path codeLine="1" d="M83,182.22 C83,204.67 83,232.5 83,254.91 " fill="none" id="GitRepositoryHost-to-CodeReview" style="stroke:#181818;stroke-width:1.0;stroke-dasharray:7.0,7.0;"/><polygon fill="#181818" points="83,260.91,87,251.91,83,255.91,79,251.91,83,260.91" style="stroke:#181818;stroke-width:1.0;"/><text fill="#000000" font-family="sans-serif" font-size="13" lengthAdjust="spacing" textLength="67" x="84" y="227.8979">depends on</text></g><!--link InternetConnection to GitRepositoryHost--><g id="link_InternetConnection_GitRepositoryHost"><path codeLine="2" d="M83,55.22 C83,77.67 83,105.5 83,127.91 " fill="none" id="InternetConnection-to-GitRepositoryHost" style="stroke:#181818;stroke-width:1.0;stroke-dasharray:7.0,7.0;"/><polygon fill="#181818" points="83,133.91,87,124.91,83,128.91,79,124.91,83,133.91" style="stroke:#181818;stroke-width:1.0;"/><text fill="#000000" font-family="sans-serif" font-size="13" lengthAdjust="spacing" textLength="67" x="84" y="100.8979">depends on</text></g><!--SRC=[Syyi2Kejo2_EBCalglJ8BovHqDEpKt3EJqaDIYtBJ2rNi598IIr8pKifLiZFu_BCAqajoaijSSxFoqjDBidCpmChTySm15aN0000]--></g></svg>