<?xml version="1.0" encoding="us-ascii" standalone="no"?><svg xmlns="http://www.w3.org/2000/svg" xmlns:xlink="http://www.w3.org/1999/xlink" contentStyleType="text/css" height="316px" preserveAspectRatio="none" style="width:110px;height:316px;background:#FFFFFF;" version="1.1" viewBox="0 0 110 316" width="110px" zoomAndPan="magnify"><defs/><g><!--class Vehicle--><g id="elem_Vehicle"><rect fill="#F1F1F1" height="48" id="Vehicle" rx="2.5" ry="2.5" style="stroke:#181818;stroke-width:0.5;" width="78" x="16" y="7"/><ellipse cx="31" cy="23" fill="#ADD1B2" rx="11" ry="11" style="stroke:#181818;stroke-width:1.0;"/><path d="M30.3438,28.8594 Q28.3594,28.8594 27.1875,27.3906 Q26.0313,25.9063 26.0313,22.8281 Q26.0313,20.2188 27.25,18.4688 Q28.4844,16.7188 30.6094,16.7188 Q31.1094,16.7188 31.6406,16.8594 Q32.0781,17.0469 32.3438,17.0469 Q32.5625,17.0469 32.6563,17 Q32.7656,16.9531 33.2188,16.3594 L33.9844,20.0938 L33.0938,20.3594 Q32.6406,18.9063 32.0313,18.3125 Q31.4375,17.7031 30.4844,17.7031 Q29.2656,17.7031 28.5469,19.1406 Q27.8281,20.5625 27.8281,22.75 Q27.8281,25.1563 28.4375,26.4531 Q29.0625,27.7344 30.4219,27.7344 Q31.375,27.7344 32.0625,27.0469 Q32.75,26.3438 33.0781,24.8438 L33.9844,25.25 Q33.5781,26.9531 32.6094,27.9063 Q31.6563,28.8594 30.3438,28.8594 Z " fill="#000000"/><text fill="#000000" font-family="sans-serif" font-size="14" lengthAdjust="spacing" textLength="46" x="45" y="29.4839">Vehicle</text><line style="stroke:#181818;stroke-width:0.5;" x1="17" x2="93" y1="39" y2="39"/><line style="stroke:#181818;stroke-width:0.5;" x1="17" x2="93" y1="47" y2="47"/></g><!--class Car--><g id="elem_Car"><rect fill="#F1F1F1" height="48" id="Car" rx="2.5" ry="2.5" style="stroke:#181818;stroke-width:0.5;" width="55" x="27.5" y="134"/><ellipse cx="42.5" cy="150" fill="#ADD1B2" rx="11" ry="11" style="stroke:#181818;stroke-width:1.0;"/><path d="M41.8438,155.8594 Q39.8594,155.8594 38.6875,154.3906 Q37.5313,152.9063 37.5313,149.8281 Q37.5313,147.2188 38.75,145.4688 Q39.9844,143.7188 42.1094,143.7188 Q42.6094,143.7188 43.1406,143.8594 Q43.5781,144.0469 43.8438,144.0469 Q44.0625,144.0469 44.1563,144 Q44.2656,143.9531 44.7188,143.3594 L45.4844,147.0938 L44.5938,147.3594 Q44.1406,145.9063 43.5313,145.3125 Q42.9375,144.7031 41.9844,144.7031 Q40.7656,144.7031 40.0469,146.1406 Q39.3281,147.5625 39.3281,149.75 Q39.3281,152.1563 39.9375,153.4531 Q40.5625,154.7344 41.9219,154.7344 Q42.875,154.7344 43.5625,154.0469 Q44.25,153.3438 44.5781,151.8438 L45.4844,152.25 Q45.0781,153.9531 44.1094,154.9063 Q43.1563,155.8594 41.8438,155.8594 Z " fill="#000000"/><text fill="#000000" font-family="sans-serif" font-size="14" lengthAdjust="spacing" textLength="23" x="56.5" y="156.4839">Car</text><line style="stroke:#181818;stroke-width:0.5;" x1="28.5" x2="81.5" y1="166" y2="166"/><line style="stroke:#181818;stroke-width:0.5;" x1="28.5" x2="81.5" y1="174" y2="174"/></g><!--class SportsCar--><g id="elem_SportsCar"><rect fill="#F1F1F1" height="48" id="SportsCar" rx="2.5" ry="2.5" style="stroke:#181818;stroke-width:0.5;" width="96" x="7" y="261"/><ellipse cx="22" cy="277" fill="#ADD1B2" rx="11" ry="11" style="stroke:#181818;stroke-width:1.0;"/><path d="M21.3438,282.8594 Q19.3594,282.8594 18.1875,281.3906 Q17.0313,279.9063 17.0313,276.8281 Q17.0313,274.2188 18.25,272.4688 Q19.4844,270.7188 21.6094,270.7188 Q22.1094,270.7188 22.6406,270.8594 Q23.0781,271.0469 23.3438,271.0469 Q23.5625,271.0469 23.6563,271 Q23.7656,270.9531 24.2188,270.3594 L24.9844,274.0938 L24.0938,274.3594 Q23.6406,272.9063 23.0313,272.3125 Q22.4375,271.7031 21.4844,271.7031 Q20.2656,271.7031 19.5469,273.1406 Q18.8281,274.5625 18.8281,276.75 Q18.8281,279.1563 19.4375,280.4531 Q20.0625,281.7344 21.4219,281.7344 Q22.375,281.7344 23.0625,281.0469 Q23.75,280.3438 24.0781,278.8438 L24.9844,279.25 Q24.5781,280.9531 23.6094,281.9063 Q22.6563,282.8594 21.3438,282.8594 Z " fill="#000000"/><text fill="#000000" font-family="sans-serif" font-size="14" lengthAdjust="spacing" textLength="64" x="36" y="283.4839">SportsCar</text><line style="stroke:#181818;stroke-width:0.5;" x1="8" x2="102" y1="293" y2="293"/><line style="stroke:#181818;stroke-width:0.5;" x1="8" x2="102" y1="301" y2="301"/></g><!--reverse link Vehicle to Car--><g id="link_Vehicle_Car"><path codeLine="1" d="M55,73.22 C55,95.67 55,111.5 55,133.91 " fill="none" id="Vehicle-backto-Car" style="stroke:#181818;stroke-width:1.0;"/><polygon fill="none" points="55,55.22,49,73.22,61,73.22,55,55.22" style="stroke:#181818;stroke-width:1.0;"/><text fill="#000000" font-family="sans-serif" font-size="13" lengthAdjust="spacing" textLength="42" x="56" y="100.8979">inherits</text></g><!--reverse link Car to SportsCar--><g id="link_Car_SportsCar"><path codeLine="2" d="M55,200.22 C55,222.67 55,238.5 55,260.91 " fill="none" id="Car-backto-SportsCar" style="stroke:#181818;stroke-width:1.0;"/><polygon fill="none" points="55,182.22,49,200.22,61,200.22,55,182.22" style="stroke:#181818;stroke-width:1.0;"/><text fill="#000000" font-family="sans-serif" font-size="13" lengthAdjust="spacing" textLength="42" x="56" y="227.8979">inherits</text></g><!--SRC=[2qlDo4pEILMmgT7LLN1EB5AmKiZCoqWjoYmfvW9nmUB11Vb59SMeiW00]--></g></svg>