<?xml version="1.0" encoding="us-ascii" standalone="no"?><svg xmlns="http://www.w3.org/2000/svg" xmlns:xlink="http://www.w3.org/1999/xlink" contentStyleType="text/css" height="316px" preserveAspectRatio="none" style="width:153px;height:316px;background:#FFFFFF;" version="1.1" viewBox="0 0 153 316" width="153px" zoomAndPan="magnify"><defs/><g><!--class CarManufacturer--><g id="elem_CarManufacturer"><rect fill="#F1F1F1" height="48" id="CarManufacturer" rx="2.5" ry="2.5" style="stroke:#181818;stroke-width:0.5;" width="139" x="7" y="7"/><ellipse cx="22" cy="23" fill="#ADD1B2" rx="11" ry="11" style="stroke:#181818;stroke-width:1.0;"/><path d="M21.3438,28.8594 Q19.3594,28.8594 18.1875,27.3906 Q17.0313,25.9063 17.0313,22.8281 Q17.0313,20.2188 18.25,18.4688 Q19.4844,16.7188 21.6094,16.7188 Q22.1094,16.7188 22.6406,16.8594 Q23.0781,17.0469 23.3438,17.0469 Q23.5625,17.0469 23.6563,17 Q23.7656,16.9531 24.2188,16.3594 L24.9844,20.0938 L24.0938,20.3594 Q23.6406,18.9063 23.0313,18.3125 Q22.4375,17.7031 21.4844,17.7031 Q20.2656,17.7031 19.5469,19.1406 Q18.8281,20.5625 18.8281,22.75 Q18.8281,25.1563 19.4375,26.4531 Q20.0625,27.7344 21.4219,27.7344 Q22.375,27.7344 23.0625,27.0469 Q23.75,26.3438 24.0781,24.8438 L24.9844,25.25 Q24.5781,26.9531 23.6094,27.9063 Q22.6563,28.8594 21.3438,28.8594 Z " fill="#000000"/><text fill="#000000" font-family="sans-serif" font-size="14" lengthAdjust="spacing" textLength="107" x="36" y="29.4839">CarManufacturer</text><line style="stroke:#181818;stroke-width:0.5;" x1="8" x2="145" y1="39" y2="39"/><line style="stroke:#181818;stroke-width:0.5;" x1="8" x2="145" y1="47" y2="47"/></g><!--class Chevrolet--><g id="elem_Chevrolet"><rect fill="#F1F1F1" height="48" id="Chevrolet" rx="2.5" ry="2.5" style="stroke:#181818;stroke-width:0.5;" width="93" x="30" y="134"/><ellipse cx="45" cy="150" fill="#ADD1B2" rx="11" ry="11" style="stroke:#181818;stroke-width:1.0;"/><path d="M44.3438,155.8594 Q42.3594,155.8594 41.1875,154.3906 Q40.0313,152.9063 40.0313,149.8281 Q40.0313,147.2188 41.25,145.4688 Q42.4844,143.7188 44.6094,143.7188 Q45.1094,143.7188 45.6406,143.8594 Q46.0781,144.0469 46.3438,144.0469 Q46.5625,144.0469 46.6563,144 Q46.7656,143.9531 47.2188,143.3594 L47.9844,147.0938 L47.0938,147.3594 Q46.6406,145.9063 46.0313,145.3125 Q45.4375,144.7031 44.4844,144.7031 Q43.2656,144.7031 42.5469,146.1406 Q41.8281,147.5625 41.8281,149.75 Q41.8281,152.1563 42.4375,153.4531 Q43.0625,154.7344 44.4219,154.7344 Q45.375,154.7344 46.0625,154.0469 Q46.75,153.3438 47.0781,151.8438 L47.9844,152.25 Q47.5781,153.9531 46.6094,154.9063 Q45.6563,155.8594 44.3438,155.8594 Z " fill="#000000"/><text fill="#000000" font-family="sans-serif" font-size="14" lengthAdjust="spacing" textLength="61" x="59" y="156.4839">Chevrolet</text><line style="stroke:#181818;stroke-width:0.5;" x1="31" x2="122" y1="166" y2="166"/><line style="stroke:#181818;stroke-width:0.5;" x1="31" x2="122" y1="174" y2="174"/></g><!--class ChevroletTahoe--><g id="elem_ChevroletTahoe"><rect fill="#F1F1F1" height="48" id="ChevroletTahoe" rx="2.5" ry="2.5" style="stroke:#181818;stroke-width:0.5;" width="134" x="9.5" y="261"/><ellipse cx="24.5" cy="277" fill="#ADD1B2" rx="11" ry="11" style="stroke:#181818;stroke-width:1.0;"/><path d="M23.8438,282.8594 Q21.8594,282.8594 20.6875,281.3906 Q19.5313,279.9063 19.5313,276.8281 Q19.5313,274.2188 20.75,272.4688 Q21.9844,270.7188 24.1094,270.7188 Q24.6094,270.7188 25.1406,270.8594 Q25.5781,271.0469 25.8438,271.0469 Q26.0625,271.0469 26.1563,271 Q26.2656,270.9531 26.7188,270.3594 L27.4844,274.0938 L26.5938,274.3594 Q26.1406,272.9063 25.5313,272.3125 Q24.9375,271.7031 23.9844,271.7031 Q22.7656,271.7031 22.0469,273.1406 Q21.3281,274.5625 21.3281,276.75 Q21.3281,279.1563 21.9375,280.4531 Q22.5625,281.7344 23.9219,281.7344 Q24.875,281.7344 25.5625,281.0469 Q26.25,280.3438 26.5781,278.8438 L27.4844,279.25 Q27.0781,280.9531 26.1094,281.9063 Q25.1563,282.8594 23.8438,282.8594 Z " fill="#000000"/><text fill="#000000" font-family="sans-serif" font-size="14" lengthAdjust="spacing" textLength="102" x="38.5" y="283.4839">ChevroletTahoe</text><line style="stroke:#181818;stroke-width:0.5;" x1="10.5" x2="142.5" y1="293" y2="293"/><line style="stroke:#181818;stroke-width:0.5;" x1="10.5" x2="142.5" y1="301" y2="301"/></g><!--reverse link CarManufacturer to Chevrolet--><g id="link_CarManufacturer_Chevrolet"><path codeLine="1" d="M76.5,73.22 C76.5,95.67 76.5,111.5 76.5,133.91 " fill="none" id="CarManufacturer-backto-Chevrolet" style="stroke:#181818;stroke-width:1.0;"/><polygon fill="none" points="76.5,55.22,70.5,73.22,82.5,73.22,76.5,55.22" style="stroke:#181818;stroke-width:1.0;"/><text fill="#000000" font-family="sans-serif" font-size="13" lengthAdjust="spacing" textLength="42" x="77.5" y="100.8979">inherits</text></g><!--reverse link Chevrolet to ChevroletTahoe--><g id="link_Chevrolet_ChevroletTahoe"><path codeLine="2" d="M76.5,200.22 C76.5,222.67 76.5,238.5 76.5,260.91 " fill="none" id="Chevrolet-backto-ChevroletTahoe" style="stroke:#181818;stroke-width:1.0;"/><polygon fill="none" points="76.5,182.22,70.5,200.22,82.5,200.22,76.5,182.22" style="stroke:#181818;stroke-width:1.0;"/><text fill="#000000" font-family="sans-serif" font-size="13" lengthAdjust="spacing" textLength="42" x="77.5" y="227.8979">inherits</text></g><!--SRC=[SquiyatCAqrBJ2ufBKejKh2fqTLLSCv8BIlApqajKR1IoCpBI2tAB2dcGWYYgWb9pCXFHL880000]--></g></svg>