<?xml version="1.0" encoding="us-ascii" standalone="no"?><svg xmlns="http://www.w3.org/2000/svg" xmlns:xlink="http://www.w3.org/1999/xlink" contentStyleType="text/css" height="189px" preserveAspectRatio="none" style="width:153px;height:189px;background:#FFFFFF;" version="1.1" viewBox="0 0 153 189" width="153px" zoomAndPan="magnify"><defs/><g><!--class Firefighter--><g id="elem_Firefighter"><rect fill="#F1F1F1" height="48" id="Firefighter" rx="2.5" ry="2.5" style="stroke:#181818;stroke-width:0.5;" width="97" x="28" y="7"/><ellipse cx="43" cy="23" fill="#ADD1B2" rx="11" ry="11" style="stroke:#181818;stroke-width:1.0;"/><path d="M42.3438,28.8594 Q40.3594,28.8594 39.1875,27.3906 Q38.0313,25.9063 38.0313,22.8281 Q38.0313,20.2188 39.25,18.4688 Q40.4844,16.7188 42.6094,16.7188 Q43.1094,16.7188 43.6406,16.8594 Q44.0781,17.0469 44.3438,17.0469 Q44.5625,17.0469 44.6563,17 Q44.7656,16.9531 45.2188,16.3594 L45.9844,20.0938 L45.0938,20.3594 Q44.6406,18.9063 44.0313,18.3125 Q43.4375,17.7031 42.4844,17.7031 Q41.2656,17.7031 40.5469,19.1406 Q39.8281,20.5625 39.8281,22.75 Q39.8281,25.1563 40.4375,26.4531 Q41.0625,27.7344 42.4219,27.7344 Q43.375,27.7344 44.0625,27.0469 Q44.75,26.3438 45.0781,24.8438 L45.9844,25.25 Q45.5781,26.9531 44.6094,27.9063 Q43.6563,28.8594 42.3438,28.8594 Z " fill="#000000"/><text fill="#000000" font-family="sans-serif" font-size="14" lengthAdjust="spacing" textLength="65" x="57" y="29.4839">Firefighter</text><line style="stroke:#181818;stroke-width:0.5;" x1="29" x2="124" y1="39" y2="39"/><line style="stroke:#181818;stroke-width:0.5;" x1="29" x2="124" y1="47" y2="47"/></g><!--class EmergencyTeam--><g id="elem_EmergencyTeam"><rect fill="#F1F1F1" height="48" id="EmergencyTeam" rx="2.5" ry="2.5" style="stroke:#181818;stroke-width:0.5;" width="139" x="7" y="134"/><ellipse cx="22" cy="150" fill="#ADD1B2" rx="11" ry="11" style="stroke:#181818;stroke-width:1.0;"/><path d="M21.3438,155.8594 Q19.3594,155.8594 18.1875,154.3906 Q17.0313,152.9063 17.0313,149.8281 Q17.0313,147.2188 18.25,145.4688 Q19.4844,143.7188 21.6094,143.7188 Q22.1094,143.7188 22.6406,143.8594 Q23.0781,144.0469 23.3438,144.0469 Q23.5625,144.0469 23.6563,144 Q23.7656,143.9531 24.2188,143.3594 L24.9844,147.0938 L24.0938,147.3594 Q23.6406,145.9063 23.0313,145.3125 Q22.4375,144.7031 21.4844,144.7031 Q20.2656,144.7031 19.5469,146.1406 Q18.8281,147.5625 18.8281,149.75 Q18.8281,152.1563 19.4375,153.4531 Q20.0625,154.7344 21.4219,154.7344 Q22.375,154.7344 23.0625,154.0469 Q23.75,153.3438 24.0781,151.8438 L24.9844,152.25 Q24.5781,153.9531 23.6094,154.9063 Q22.6563,155.8594 21.3438,155.8594 Z " fill="#000000"/><text fill="#000000" font-family="sans-serif" font-size="14" lengthAdjust="spacing" textLength="107" x="36" y="156.4839">EmergencyTeam</text><line style="stroke:#181818;stroke-width:0.5;" x1="8" x2="145" y1="166" y2="166"/><line style="stroke:#181818;stroke-width:0.5;" x1="8" x2="145" y1="174" y2="174"/></g><!--reverse link Firefighter to EmergencyTeam--><g id="link_Firefighter_EmergencyTeam"><path codeLine="1" d="M76.5,67.22 C76.5,89.67 76.5,111.5 76.5,133.91 " fill="none" id="Firefighter-backto-EmergencyTeam" style="stroke:#181818;stroke-width:1.0;"/><polygon fill="none" points="76.5,55.22,72.5,61.22,76.5,67.22,80.5,61.22,76.5,55.22" style="stroke:#181818;stroke-width:1.0;"/><text fill="#000000" font-family="sans-serif" font-size="13" lengthAdjust="spacing" textLength="64" x="77.5" y="100.8979">aggregates</text></g><!--SRC=[SyiiIatBJCyeIIrIoDVLLN3DJIrAJyrBhWn9JSnLi598J4ylIarFB4aj1W00]--></g></svg>