<?xml version="1.0" encoding="us-ascii" standalone="no"?><svg xmlns="http://www.w3.org/2000/svg" xmlns:xlink="http://www.w3.org/1999/xlink" contentStyleType="text/css" height="189px" preserveAspectRatio="none" style="width:190px;height:189px;background:#FFFFFF;" version="1.1" viewBox="0 0 190 189" width="190px" zoomAndPan="magnify"><defs/><g><!--class EditorialCrew--><g id="elem_EditorialCrew"><rect fill="#F1F1F1" height="48" id="EditorialCrew" rx="2.5" ry="2.5" style="stroke:#181818;stroke-width:0.5;" width="115" x="37.5" y="7"/><ellipse cx="52.5" cy="23" fill="#ADD1B2" rx="11" ry="11" style="stroke:#181818;stroke-width:1.0;"/><path d="M51.8438,28.8594 Q49.8594,28.8594 48.6875,27.3906 Q47.5313,25.9063 47.5313,22.8281 Q47.5313,20.2188 48.75,18.4688 Q49.9844,16.7188 52.1094,16.7188 Q52.6094,16.7188 53.1406,16.8594 Q53.5781,17.0469 53.8438,17.0469 Q54.0625,17.0469 54.1563,17 Q54.2656,16.9531 54.7188,16.3594 L55.4844,20.0938 L54.5938,20.3594 Q54.1406,18.9063 53.5313,18.3125 Q52.9375,17.7031 51.9844,17.7031 Q50.7656,17.7031 50.0469,19.1406 Q49.3281,20.5625 49.3281,22.75 Q49.3281,25.1563 49.9375,26.4531 Q50.5625,27.7344 51.9219,27.7344 Q52.875,27.7344 53.5625,27.0469 Q54.25,26.3438 54.5781,24.8438 L55.4844,25.25 Q55.0781,26.9531 54.1094,27.9063 Q53.1563,28.8594 51.8438,28.8594 Z " fill="#000000"/><text fill="#000000" font-family="sans-serif" font-size="14" lengthAdjust="spacing" textLength="83" x="66.5" y="29.4839">EditorialCrew</text><line style="stroke:#181818;stroke-width:0.5;" x1="38.5" x2="151.5" y1="39" y2="39"/><line style="stroke:#181818;stroke-width:0.5;" x1="38.5" x2="151.5" y1="47" y2="47"/></g><!--class RuralResearchInstitute--><g id="elem_RuralResearchInstitute"><rect fill="#F1F1F1" height="48" id="RuralResearchInstitute" rx="2.5" ry="2.5" style="stroke:#181818;stroke-width:0.5;" width="176" x="7" y="134"/><ellipse cx="22" cy="150" fill="#ADD1B2" rx="11" ry="11" style="stroke:#181818;stroke-width:1.0;"/><path d="M21.3438,155.8594 Q19.3594,155.8594 18.1875,154.3906 Q17.0313,152.9063 17.0313,149.8281 Q17.0313,147.2188 18.25,145.4688 Q19.4844,143.7188 21.6094,143.7188 Q22.1094,143.7188 22.6406,143.8594 Q23.0781,144.0469 23.3438,144.0469 Q23.5625,144.0469 23.6563,144 Q23.7656,143.9531 24.2188,143.3594 L24.9844,147.0938 L24.0938,147.3594 Q23.6406,145.9063 23.0313,145.3125 Q22.4375,144.7031 21.4844,144.7031 Q20.2656,144.7031 19.5469,146.1406 Q18.8281,147.5625 18.8281,149.75 Q18.8281,152.1563 19.4375,153.4531 Q20.0625,154.7344 21.4219,154.7344 Q22.375,154.7344 23.0625,154.0469 Q23.75,153.3438 24.0781,151.8438 L24.9844,152.25 Q24.5781,153.9531 23.6094,154.9063 Q22.6563,155.8594 21.3438,155.8594 Z " fill="#000000"/><text fill="#000000" font-family="sans-serif" font-size="14" lengthAdjust="spacing" textLength="144" x="36" y="156.4839">RuralResearchInstitute</text><line style="stroke:#181818;stroke-width:0.5;" x1="8" x2="182" y1="166" y2="166"/><line style="stroke:#181818;stroke-width:0.5;" x1="8" x2="182" y1="174" y2="174"/></g><!--reverse link EditorialCrew to RuralResearchInstitute--><g id="link_EditorialCrew_RuralResearchInstitute"><path codeLine="1" d="M95,67.22 C95,89.67 95,111.5 95,133.91 " fill="none" id="EditorialCrew-backto-RuralResearchInstitute" style="stroke:#181818;stroke-width:1.0;"/><polygon fill="none" points="95,55.22,91,61.22,95,67.22,99,61.22,95,55.22" style="stroke:#181818;stroke-width:1.0;"/><text fill="#000000" font-family="sans-serif" font-size="13" lengthAdjust="spacing" textLength="64" x="96" y="100.8979">aggregates</text></g><!--SRC=[Sqt9BCaloapCSIvABLV8rzLL22ejIim9IYrEJInApl3CAox9B2ajILMmKaXCJozAJKyiIIq60000]--></g></svg>