<?xml version="1.0" encoding="us-ascii" standalone="no"?><svg xmlns="http://www.w3.org/2000/svg" xmlns:xlink="http://www.w3.org/1999/xlink" contentStyleType="text/css" height="189px" preserveAspectRatio="none" style="width:212px;height:189px;background:#FFFFFF;" version="1.1" viewBox="0 0 212 189" width="212px" zoomAndPan="magnify"><defs/><g><!--class FieldCrew--><g id="elem_FieldCrew"><rect fill="#F1F1F1" height="48" id="FieldCrew" rx="2.5" ry="2.5" style="stroke:#181818;stroke-width:0.5;" width="95" x="58.5" y="7"/><ellipse cx="73.5" cy="23" fill="#ADD1B2" rx="11" ry="11" style="stroke:#181818;stroke-width:1.0;"/><path d="M72.8438,28.8594 Q70.8594,28.8594 69.6875,27.3906 Q68.5313,25.9063 68.5313,22.8281 Q68.5313,20.2188 69.75,18.4688 Q70.9844,16.7188 73.1094,16.7188 Q73.6094,16.7188 74.1406,16.8594 Q74.5781,17.0469 74.8438,17.0469 Q75.0625,17.0469 75.1563,17 Q75.2656,16.9531 75.7188,16.3594 L76.4844,20.0938 L75.5938,20.3594 Q75.1406,18.9063 74.5313,18.3125 Q73.9375,17.7031 72.9844,17.7031 Q71.7656,17.7031 71.0469,19.1406 Q70.3281,20.5625 70.3281,22.75 Q70.3281,25.1563 70.9375,26.4531 Q71.5625,27.7344 72.9219,27.7344 Q73.875,27.7344 74.5625,27.0469 Q75.25,26.3438 75.5781,24.8438 L76.4844,25.25 Q76.0781,26.9531 75.1094,27.9063 Q74.1563,28.8594 72.8438,28.8594 Z " fill="#000000"/><text fill="#000000" font-family="sans-serif" font-size="14" lengthAdjust="spacing" textLength="63" x="87.5" y="29.4839">FieldCrew</text><line style="stroke:#181818;stroke-width:0.5;" x1="59.5" x2="152.5" y1="39" y2="39"/><line style="stroke:#181818;stroke-width:0.5;" x1="59.5" x2="152.5" y1="47" y2="47"/></g><!--class AerospaceUniversityOffice--><g id="elem_AerospaceUniversityOffice"><rect fill="#F1F1F1" height="48" id="AerospaceUniversityOffice" rx="2.5" ry="2.5" style="stroke:#181818;stroke-width:0.5;" width="198" x="7" y="134"/><ellipse cx="22" cy="150" fill="#ADD1B2" rx="11" ry="11" style="stroke:#181818;stroke-width:1.0;"/><path d="M21.3438,155.8594 Q19.3594,155.8594 18.1875,154.3906 Q17.0313,152.9063 17.0313,149.8281 Q17.0313,147.2188 18.25,145.4688 Q19.4844,143.7188 21.6094,143.7188 Q22.1094,143.7188 22.6406,143.8594 Q23.0781,144.0469 23.3438,144.0469 Q23.5625,144.0469 23.6563,144 Q23.7656,143.9531 24.2188,143.3594 L24.9844,147.0938 L24.0938,147.3594 Q23.6406,145.9063 23.0313,145.3125 Q22.4375,144.7031 21.4844,144.7031 Q20.2656,144.7031 19.5469,146.1406 Q18.8281,147.5625 18.8281,149.75 Q18.8281,152.1563 19.4375,153.4531 Q20.0625,154.7344 21.4219,154.7344 Q22.375,154.7344 23.0625,154.0469 Q23.75,153.3438 24.0781,151.8438 L24.9844,152.25 Q24.5781,153.9531 23.6094,154.9063 Q22.6563,155.8594 21.3438,155.8594 Z " fill="#000000"/><text fill="#000000" font-family="sans-serif" font-size="14" lengthAdjust="spacing" textLength="166" x="36" y="156.4839">AerospaceUniversityOffice</text><line style="stroke:#181818;stroke-width:0.5;" x1="8" x2="204" y1="166" y2="166"/><line style="stroke:#181818;stroke-width:0.5;" x1="8" x2="204" y1="174" y2="174"/></g><!--reverse link FieldCrew to AerospaceUniversityOffice--><g id="link_FieldCrew_AerospaceUniversityOffice"><path codeLine="1" d="M106,67.22 C106,89.67 106,111.5 106,133.91 " fill="none" id="FieldCrew-backto-AerospaceUniversityOffice" style="stroke:#181818;stroke-width:1.0;"/><polygon fill="none" points="106,55.22,102,61.22,106,67.22,110,61.22,106,55.22" style="stroke:#181818;stroke-width:1.0;"/><text fill="#000000" font-family="sans-serif" font-size="13" lengthAdjust="spacing" textLength="64" x="107" y="100.8979">aggregates</text></g><!--SRC=[SyjCpKbnBaejLyZNrLLmJ2tABov8J4uDpSiiIoqgpYofz4zBoqnELR1II4nFBqfDJon9BGO0]--></g></svg>