<?xml version="1.0" encoding="us-ascii" standalone="no"?><svg xmlns="http://www.w3.org/2000/svg" xmlns:xlink="http://www.w3.org/1999/xlink" contentStyleType="text/css" height="189px" preserveAspectRatio="none" style="width:278px;height:189px;background:#FFFFFF;" version="1.1" viewBox="0 0 278 189" width="278px" zoomAndPan="magnify"><defs/><g><!--class VideoGame--><g id="elem_VideoGame"><rect fill="#F1F1F1" height="48" id="VideoGame" rx="2.5" ry="2.5" style="stroke:#181818;stroke-width:0.5;" width="106" x="86" y="7"/><ellipse cx="101" cy="23" fill="#ADD1B2" rx="11" ry="11" style="stroke:#181818;stroke-width:1.0;"/><path d="M100.3438,28.8594 Q98.3594,28.8594 97.1875,27.3906 Q96.0313,25.9063 96.0313,22.8281 Q96.0313,20.2188 97.25,18.4688 Q98.4844,16.7188 100.6094,16.7188 Q101.1094,16.7188 101.6406,16.8594 Q102.0781,17.0469 102.3438,17.0469 Q102.5625,17.0469 102.6563,17 Q102.7656,16.9531 103.2188,16.3594 L103.9844,20.0938 L103.0938,20.3594 Q102.6406,18.9063 102.0313,18.3125 Q101.4375,17.7031 100.4844,17.7031 Q99.2656,17.7031 98.5469,19.1406 Q97.8281,20.5625 97.8281,22.75 Q97.8281,25.1563 98.4375,26.4531 Q99.0625,27.7344 100.4219,27.7344 Q101.375,27.7344 102.0625,27.0469 Q102.75,26.3438 103.0781,24.8438 L103.9844,25.25 Q103.5781,26.9531 102.6094,27.9063 Q101.6563,28.8594 100.3438,28.8594 Z " fill="#000000"/><text fill="#000000" font-family="sans-serif" font-size="14" lengthAdjust="spacing" textLength="74" x="115" y="29.4839">VideoGame</text><line style="stroke:#181818;stroke-width:0.5;" x1="87" x2="191" y1="39" y2="39"/><line style="stroke:#181818;stroke-width:0.5;" x1="87" x2="191" y1="47" y2="47"/></g><!--class TheLegendOfZeldaBreathOfTheWild--><g id="elem_TheLegendOfZeldaBreathOfTheWild"><rect fill="#F1F1F1" height="48" id="TheLegendOfZeldaBreathOfTheWild" rx="2.5" ry="2.5" style="stroke:#181818;stroke-width:0.5;" width="264" x="7" y="134"/><ellipse cx="22" cy="150" fill="#ADD1B2" rx="11" ry="11" style="stroke:#181818;stroke-width:1.0;"/><path d="M21.3438,155.8594 Q19.3594,155.8594 18.1875,154.3906 Q17.0313,152.9063 17.0313,149.8281 Q17.0313,147.2188 18.25,145.4688 Q19.4844,143.7188 21.6094,143.7188 Q22.1094,143.7188 22.6406,143.8594 Q23.0781,144.0469 23.3438,144.0469 Q23.5625,144.0469 23.6563,144 Q23.7656,143.9531 24.2188,143.3594 L24.9844,147.0938 L24.0938,147.3594 Q23.6406,145.9063 23.0313,145.3125 Q22.4375,144.7031 21.4844,144.7031 Q20.2656,144.7031 19.5469,146.1406 Q18.8281,147.5625 18.8281,149.75 Q18.8281,152.1563 19.4375,153.4531 Q20.0625,154.7344 21.4219,154.7344 Q22.375,154.7344 23.0625,154.0469 Q23.75,153.3438 24.0781,151.8438 L24.9844,152.25 Q24.5781,153.9531 23.6094,154.9063 Q22.6563,155.8594 21.3438,155.8594 Z " fill="#000000"/><text fill="#000000" font-family="sans-serif" font-size="14" lengthAdjust="spacing" textLength="232" x="36" y="156.4839">TheLegendOfZeldaBreathOfTheWild</text><line style="stroke:#181818;stroke-width:0.5;" x1="8" x2="270" y1="166" y2="166"/><line style="stroke:#181818;stroke-width:0.5;" x1="8" x2="270" y1="174" y2="174"/></g><!--reverse link VideoGame to TheLegendOfZeldaBreathOfTheWild--><g id="link_VideoGame_TheLegendOfZeldaBreathOfTheWild"><path codeLine="1" d="M139,73.22 C139,95.67 139,111.5 139,133.91 " fill="none" id="VideoGame-backto-TheLegendOfZeldaBreathOfTheWild" style="stroke:#181818;stroke-width:1.0;"/><polygon fill="none" points="139,55.22,133,73.22,145,73.22,139,55.22" style="stroke:#181818;stroke-width:1.0;"/><text fill="#000000" font-family="sans-serif" font-size="13" lengthAdjust="spacing" textLength="42" x="140" y="100.8979">inherits</text></g><!--SRC=[2yjCISrtJynDLR2fqTLL2Cb8zKbDJyrByK-BIir9INGgIaqioV1F0ug7P-QaA5WfPEPbf1PbbXG30000]--></g></svg>