<?xml version="1.0" encoding="us-ascii" standalone="no"?><svg xmlns="http://www.w3.org/2000/svg" xmlns:xlink="http://www.w3.org/1999/xlink" contentStyleType="text/css" height="316px" preserveAspectRatio="none" style="width:138px;height:316px;background:#FFFFFF;" version="1.1" viewBox="0 0 138 316" width="138px" zoomAndPan="magnify"><defs/><g><!--class CoolSurface--><g id="elem_CoolSurface"><rect fill="#F1F1F1" height="48" id="CoolSurface" rx="2.5" ry="2.5" style="stroke:#181818;stroke-width:0.5;" width="110" x="7" y="134"/><ellipse cx="22" cy="150" fill="#ADD1B2" rx="11" ry="11" style="stroke:#181818;stroke-width:1.0;"/><path d="M21.3438,155.8594 Q19.3594,155.8594 18.1875,154.3906 Q17.0313,152.9063 17.0313,149.8281 Q17.0313,147.2188 18.25,145.4688 Q19.4844,143.7188 21.6094,143.7188 Q22.1094,143.7188 22.6406,143.8594 Q23.0781,144.0469 23.3438,144.0469 Q23.5625,144.0469 23.6563,144 Q23.7656,143.9531 24.2188,143.3594 L24.9844,147.0938 L24.0938,147.3594 Q23.6406,145.9063 23.0313,145.3125 Q22.4375,144.7031 21.4844,144.7031 Q20.2656,144.7031 19.5469,146.1406 Q18.8281,147.5625 18.8281,149.75 Q18.8281,152.1563 19.4375,153.4531 Q20.0625,154.7344 21.4219,154.7344 Q22.375,154.7344 23.0625,154.0469 Q23.75,153.3438 24.0781,151.8438 L24.9844,152.25 Q24.5781,153.9531 23.6094,154.9063 Q22.6563,155.8594 21.3438,155.8594 Z " fill="#000000"/><text fill="#000000" font-family="sans-serif" font-size="14" lengthAdjust="spacing" textLength="78" x="36" y="156.4839">CoolSurface</text><line style="stroke:#181818;stroke-width:0.5;" x1="8" x2="116" y1="166" y2="166"/><line style="stroke:#181818;stroke-width:0.5;" x1="8" x2="116" y1="174" y2="174"/></g><!--class Dew--><g id="elem_Dew"><rect fill="#F1F1F1" height="48" id="Dew" rx="2.5" ry="2.5" style="stroke:#181818;stroke-width:0.5;" width="59" x="32.5" y="261"/><ellipse cx="47.5" cy="277" fill="#ADD1B2" rx="11" ry="11" style="stroke:#181818;stroke-width:1.0;"/><path d="M46.8438,282.8594 Q44.8594,282.8594 43.6875,281.3906 Q42.5313,279.9063 42.5313,276.8281 Q42.5313,274.2188 43.75,272.4688 Q44.9844,270.7188 47.1094,270.7188 Q47.6094,270.7188 48.1406,270.8594 Q48.5781,271.0469 48.8438,271.0469 Q49.0625,271.0469 49.1563,271 Q49.2656,270.9531 49.7188,270.3594 L50.4844,274.0938 L49.5938,274.3594 Q49.1406,272.9063 48.5313,272.3125 Q47.9375,271.7031 46.9844,271.7031 Q45.7656,271.7031 45.0469,273.1406 Q44.3281,274.5625 44.3281,276.75 Q44.3281,279.1563 44.9375,280.4531 Q45.5625,281.7344 46.9219,281.7344 Q47.875,281.7344 48.5625,281.0469 Q49.25,280.3438 49.5781,278.8438 L50.4844,279.25 Q50.0781,280.9531 49.1094,281.9063 Q48.1563,282.8594 46.8438,282.8594 Z " fill="#000000"/><text fill="#000000" font-family="sans-serif" font-size="14" lengthAdjust="spacing" textLength="27" x="61.5" y="283.4839">Dew</text><line style="stroke:#181818;stroke-width:0.5;" x1="33.5" x2="90.5" y1="293" y2="293"/><line style="stroke:#181818;stroke-width:0.5;" x1="33.5" x2="90.5" y1="301" y2="301"/></g><!--class NightSky--><g id="elem_NightSky"><rect fill="#F1F1F1" height="48" id="NightSky" rx="2.5" ry="2.5" style="stroke:#181818;stroke-width:0.5;" width="87" x="18.5" y="7"/><ellipse cx="33.5" cy="23" fill="#ADD1B2" rx="11" ry="11" style="stroke:#181818;stroke-width:1.0;"/><path d="M32.8438,28.8594 Q30.8594,28.8594 29.6875,27.3906 Q28.5313,25.9063 28.5313,22.8281 Q28.5313,20.2188 29.75,18.4688 Q30.9844,16.7188 33.1094,16.7188 Q33.6094,16.7188 34.1406,16.8594 Q34.5781,17.0469 34.8438,17.0469 Q35.0625,17.0469 35.1563,17 Q35.2656,16.9531 35.7188,16.3594 L36.4844,20.0938 L35.5938,20.3594 Q35.1406,18.9063 34.5313,18.3125 Q33.9375,17.7031 32.9844,17.7031 Q31.7656,17.7031 31.0469,19.1406 Q30.3281,20.5625 30.3281,22.75 Q30.3281,25.1563 30.9375,26.4531 Q31.5625,27.7344 32.9219,27.7344 Q33.875,27.7344 34.5625,27.0469 Q35.25,26.3438 35.5781,24.8438 L36.4844,25.25 Q36.0781,26.9531 35.1094,27.9063 Q34.1563,28.8594 32.8438,28.8594 Z " fill="#000000"/><text fill="#000000" font-family="sans-serif" font-size="14" lengthAdjust="spacing" textLength="55" x="47.5" y="29.4839">NightSky</text><line style="stroke:#181818;stroke-width:0.5;" x1="19.5" x2="104.5" y1="39" y2="39"/><line style="stroke:#181818;stroke-width:0.5;" x1="19.5" x2="104.5" y1="47" y2="47"/></g><!--link CoolSurface to Dew--><g id="link_CoolSurface_Dew"><path codeLine="1" d="M62,182.22 C62,204.67 62,232.5 62,254.91 " fill="none" id="CoolSurface-to-Dew" style="stroke:#181818;stroke-width:1.0;stroke-dasharray:7.0,7.0;"/><polygon fill="#181818" points="62,260.91,66,251.91,62,255.91,58,251.91,62,260.91" style="stroke:#181818;stroke-width:1.0;"/><text fill="#000000" font-family="sans-serif" font-size="13" lengthAdjust="spacing" textLength="67" x="63" y="227.8979">depends on</text></g><!--link NightSky to CoolSurface--><g id="link_NightSky_CoolSurface"><path codeLine="2" d="M62,55.22 C62,77.67 62,105.5 62,127.91 " fill="none" id="NightSky-to-CoolSurface" style="stroke:#181818;stroke-width:1.0;stroke-dasharray:7.0,7.0;"/><polygon fill="#181818" points="62,133.91,66,124.91,62,128.91,58,124.91,62,133.91" style="stroke:#181818;stroke-width:1.0;"/><text fill="#000000" font-family="sans-serif" font-size="13" lengthAdjust="spacing" textLength="67" x="63" y="100.8979">depends on</text></g><!--SRC=[SyxFpmakBKfBJ4vLqDEpKt19BLUmKaX9BKZDIobMoC_ZyijCpoW9pgu4opeZgKPM1G00]--></g></svg>