<?xml version="1.0" encoding="us-ascii" standalone="no"?><svg xmlns="http://www.w3.org/2000/svg" xmlns:xlink="http://www.w3.org/1999/xlink" contentStyleType="text/css" height="316px" preserveAspectRatio="none" style="width:95px;height:316px;background:#FFFFFF;" version="1.1" viewBox="0 0 95 316" width="95px" zoomAndPan="magnify"><defs/><g><!--class Cod--><g id="elem_Cod"><rect fill="#F1F1F1" height="48" id="Cod" rx="2.5" ry="2.5" style="stroke:#181818;stroke-width:0.5;" width="58" x="15" y="7"/><ellipse cx="30" cy="23" fill="#ADD1B2" rx="11" ry="11" style="stroke:#181818;stroke-width:1.0;"/><path d="M29.3438,28.8594 Q27.3594,28.8594 26.1875,27.3906 Q25.0313,25.9063 25.0313,22.8281 Q25.0313,20.2188 26.25,18.4688 Q27.4844,16.7188 29.6094,16.7188 Q30.1094,16.7188 30.6406,16.8594 Q31.0781,17.0469 31.3438,17.0469 Q31.5625,17.0469 31.6563,17 Q31.7656,16.9531 32.2188,16.3594 L32.9844,20.0938 L32.0938,20.3594 Q31.6406,18.9063 31.0313,18.3125 Q30.4375,17.7031 29.4844,17.7031 Q28.2656,17.7031 27.5469,19.1406 Q26.8281,20.5625 26.8281,22.75 Q26.8281,25.1563 27.4375,26.4531 Q28.0625,27.7344 29.4219,27.7344 Q30.375,27.7344 31.0625,27.0469 Q31.75,26.3438 32.0781,24.8438 L32.9844,25.25 Q32.5781,26.9531 31.6094,27.9063 Q30.6563,28.8594 29.3438,28.8594 Z " fill="#000000"/><text fill="#000000" font-family="sans-serif" font-size="14" lengthAdjust="spacing" textLength="26" x="44" y="29.4839">Cod</text><line style="stroke:#181818;stroke-width:0.5;" x1="16" x2="72" y1="39" y2="39"/><line style="stroke:#181818;stroke-width:0.5;" x1="16" x2="72" y1="47" y2="47"/></g><!--class Fish--><g id="elem_Fish"><rect fill="#F1F1F1" height="48" id="Fish" rx="2.5" ry="2.5" style="stroke:#181818;stroke-width:0.5;" width="59" x="14.5" y="134"/><ellipse cx="29.5" cy="150" fill="#ADD1B2" rx="11" ry="11" style="stroke:#181818;stroke-width:1.0;"/><path d="M28.8438,155.8594 Q26.8594,155.8594 25.6875,154.3906 Q24.5313,152.9063 24.5313,149.8281 Q24.5313,147.2188 25.75,145.4688 Q26.9844,143.7188 29.1094,143.7188 Q29.6094,143.7188 30.1406,143.8594 Q30.5781,144.0469 30.8438,144.0469 Q31.0625,144.0469 31.1563,144 Q31.2656,143.9531 31.7188,143.3594 L32.4844,147.0938 L31.5938,147.3594 Q31.1406,145.9063 30.5313,145.3125 Q29.9375,144.7031 28.9844,144.7031 Q27.7656,144.7031 27.0469,146.1406 Q26.3281,147.5625 26.3281,149.75 Q26.3281,152.1563 26.9375,153.4531 Q27.5625,154.7344 28.9219,154.7344 Q29.875,154.7344 30.5625,154.0469 Q31.25,153.3438 31.5781,151.8438 L32.4844,152.25 Q32.0781,153.9531 31.1094,154.9063 Q30.1563,155.8594 28.8438,155.8594 Z " fill="#000000"/><text fill="#000000" font-family="sans-serif" font-size="14" lengthAdjust="spacing" textLength="27" x="43.5" y="156.4839">Fish</text><line style="stroke:#181818;stroke-width:0.5;" x1="15.5" x2="72.5" y1="166" y2="166"/><line style="stroke:#181818;stroke-width:0.5;" x1="15.5" x2="72.5" y1="174" y2="174"/></g><!--class Animal--><g id="elem_Animal"><rect fill="#F1F1F1" height="48" id="Animal" rx="2.5" ry="2.5" style="stroke:#181818;stroke-width:0.5;" width="74" x="7" y="261"/><ellipse cx="22" cy="277" fill="#ADD1B2" rx="11" ry="11" style="stroke:#181818;stroke-width:1.0;"/><path d="M21.3438,282.8594 Q19.3594,282.8594 18.1875,281.3906 Q17.0313,279.9063 17.0313,276.8281 Q17.0313,274.2188 18.25,272.4688 Q19.4844,270.7188 21.6094,270.7188 Q22.1094,270.7188 22.6406,270.8594 Q23.0781,271.0469 23.3438,271.0469 Q23.5625,271.0469 23.6563,271 Q23.7656,270.9531 24.2188,270.3594 L24.9844,274.0938 L24.0938,274.3594 Q23.6406,272.9063 23.0313,272.3125 Q22.4375,271.7031 21.4844,271.7031 Q20.2656,271.7031 19.5469,273.1406 Q18.8281,274.5625 18.8281,276.75 Q18.8281,279.1563 19.4375,280.4531 Q20.0625,281.7344 21.4219,281.7344 Q22.375,281.7344 23.0625,281.0469 Q23.75,280.3438 24.0781,278.8438 L24.9844,279.25 Q24.5781,280.9531 23.6094,281.9063 Q22.6563,282.8594 21.3438,282.8594 Z " fill="#000000"/><text fill="#000000" font-family="sans-serif" font-size="14" lengthAdjust="spacing" textLength="42" x="36" y="283.4839">Animal</text><line style="stroke:#181818;stroke-width:0.5;" x1="8" x2="80" y1="293" y2="293"/><line style="stroke:#181818;stroke-width:0.5;" x1="8" x2="80" y1="301" y2="301"/></g><!--reverse link Cod to Fish--><g id="link_Cod_Fish"><path codeLine="1" d="M44,73.22 C44,95.67 44,111.5 44,133.91 " fill="none" id="Cod-backto-Fish" style="stroke:#181818;stroke-width:1.0;"/><polygon fill="none" points="44,55.22,38,73.22,50,73.22,44,55.22" style="stroke:#181818;stroke-width:1.0;"/><text fill="#000000" font-family="sans-serif" font-size="13" lengthAdjust="spacing" textLength="42" x="45" y="100.8979">inherits</text></g><!--reverse link Fish to Animal--><g id="link_Fish_Animal"><path codeLine="2" d="M44,200.22 C44,222.67 44,238.5 44,260.91 " fill="none" id="Fish-backto-Animal" style="stroke:#181818;stroke-width:1.0;"/><polygon fill="none" points="44,182.22,38,200.22,50,200.22,44,182.22" style="stroke:#181818;stroke-width:1.0;"/><text fill="#000000" font-family="sans-serif" font-size="13" lengthAdjust="spacing" textLength="42" x="45" y="227.8979">inherits</text></g><!--SRC=[SyvFKR2fqTLLSCiipb2mKiZCoqWjoYmfvWBpmJAEUPcvYJb8SW00]--></g></svg>