<?xml version="1.0" encoding="us-ascii" standalone="no"?><svg xmlns="http://www.w3.org/2000/svg" xmlns:xlink="http://www.w3.org/1999/xlink" contentStyleType="text/css" height="316px" preserveAspectRatio="none" style="width:167px;height:316px;background:#FFFFFF;" version="1.1" viewBox="0 0 167 316" width="167px" zoomAndPan="magnify"><defs/><g><!--class GeothermalHeat--><g id="elem_GeothermalHeat"><rect fill="#F1F1F1" height="48" id="GeothermalHeat" rx="2.5" ry="2.5" style="stroke:#181818;stroke-width:0.5;" width="135" x="16" y="134"/><ellipse cx="31" cy="150" fill="#ADD1B2" rx="11" ry="11" style="stroke:#181818;stroke-width:1.0;"/><path d="M30.3438,155.8594 Q28.3594,155.8594 27.1875,154.3906 Q26.0313,152.9063 26.0313,149.8281 Q26.0313,147.2188 27.25,145.4688 Q28.4844,143.7188 30.6094,143.7188 Q31.1094,143.7188 31.6406,143.8594 Q32.0781,144.0469 32.3438,144.0469 Q32.5625,144.0469 32.6563,144 Q32.7656,143.9531 33.2188,143.3594 L33.9844,147.0938 L33.0938,147.3594 Q32.6406,145.9063 32.0313,145.3125 Q31.4375,144.7031 30.4844,144.7031 Q29.2656,144.7031 28.5469,146.1406 Q27.8281,147.5625 27.8281,149.75 Q27.8281,152.1563 28.4375,153.4531 Q29.0625,154.7344 30.4219,154.7344 Q31.375,154.7344 32.0625,154.0469 Q32.75,153.3438 33.0781,151.8438 L33.9844,152.25 Q33.5781,153.9531 32.6094,154.9063 Q31.6563,155.8594 30.3438,155.8594 Z " fill="#000000"/><text fill="#000000" font-family="sans-serif" font-size="14" lengthAdjust="spacing" textLength="103" x="45" y="156.4839">GeothermalHeat</text><line style="stroke:#181818;stroke-width:0.5;" x1="17" x2="150" y1="166" y2="166"/><line style="stroke:#181818;stroke-width:0.5;" x1="17" x2="150" y1="174" y2="174"/></g><!--class UndergroundWater--><g id="elem_UndergroundWater"><rect fill="#F1F1F1" height="48" id="UndergroundWater" rx="2.5" ry="2.5" style="stroke:#181818;stroke-width:0.5;" width="153" x="7" y="261"/><ellipse cx="22" cy="277" fill="#ADD1B2" rx="11" ry="11" style="stroke:#181818;stroke-width:1.0;"/><path d="M21.3438,282.8594 Q19.3594,282.8594 18.1875,281.3906 Q17.0313,279.9063 17.0313,276.8281 Q17.0313,274.2188 18.25,272.4688 Q19.4844,270.7188 21.6094,270.7188 Q22.1094,270.7188 22.6406,270.8594 Q23.0781,271.0469 23.3438,271.0469 Q23.5625,271.0469 23.6563,271 Q23.7656,270.9531 24.2188,270.3594 L24.9844,274.0938 L24.0938,274.3594 Q23.6406,272.9063 23.0313,272.3125 Q22.4375,271.7031 21.4844,271.7031 Q20.2656,271.7031 19.5469,273.1406 Q18.8281,274.5625 18.8281,276.75 Q18.8281,279.1563 19.4375,280.4531 Q20.0625,281.7344 21.4219,281.7344 Q22.375,281.7344 23.0625,281.0469 Q23.75,280.3438 24.0781,278.8438 L24.9844,279.25 Q24.5781,280.9531 23.6094,281.9063 Q22.6563,282.8594 21.3438,282.8594 Z " fill="#000000"/><text fill="#000000" font-family="sans-serif" font-size="14" lengthAdjust="spacing" textLength="121" x="36" y="283.4839">UndergroundWater</text><line style="stroke:#181818;stroke-width:0.5;" x1="8" x2="159" y1="293" y2="293"/><line style="stroke:#181818;stroke-width:0.5;" x1="8" x2="159" y1="301" y2="301"/></g><!--class HotSpring--><g id="elem_HotSpring"><rect fill="#F1F1F1" height="48" id="HotSpring" rx="2.5" ry="2.5" style="stroke:#181818;stroke-width:0.5;" width="94" x="36.5" y="7"/><ellipse cx="51.5" cy="23" fill="#ADD1B2" rx="11" ry="11" style="stroke:#181818;stroke-width:1.0;"/><path d="M50.8438,28.8594 Q48.8594,28.8594 47.6875,27.3906 Q46.5313,25.9063 46.5313,22.8281 Q46.5313,20.2188 47.75,18.4688 Q48.9844,16.7188 51.1094,16.7188 Q51.6094,16.7188 52.1406,16.8594 Q52.5781,17.0469 52.8438,17.0469 Q53.0625,17.0469 53.1563,17 Q53.2656,16.9531 53.7188,16.3594 L54.4844,20.0938 L53.5938,20.3594 Q53.1406,18.9063 52.5313,18.3125 Q51.9375,17.7031 50.9844,17.7031 Q49.7656,17.7031 49.0469,19.1406 Q48.3281,20.5625 48.3281,22.75 Q48.3281,25.1563 48.9375,26.4531 Q49.5625,27.7344 50.9219,27.7344 Q51.875,27.7344 52.5625,27.0469 Q53.25,26.3438 53.5781,24.8438 L54.4844,25.25 Q54.0781,26.9531 53.1094,27.9063 Q52.1563,28.8594 50.8438,28.8594 Z " fill="#000000"/><text fill="#000000" font-family="sans-serif" font-size="14" lengthAdjust="spacing" textLength="62" x="65.5" y="29.4839">HotSpring</text><line style="stroke:#181818;stroke-width:0.5;" x1="37.5" x2="129.5" y1="39" y2="39"/><line style="stroke:#181818;stroke-width:0.5;" x1="37.5" x2="129.5" y1="47" y2="47"/></g><!--link GeothermalHeat to UndergroundWater--><g id="link_GeothermalHeat_UndergroundWater"><path codeLine="1" d="M83.5,182.22 C83.5,204.67 83.5,232.5 83.5,254.91 " fill="none" id="GeothermalHeat-to-UndergroundWater" style="stroke:#181818;stroke-width:1.0;stroke-dasharray:7.0,7.0;"/><polygon fill="#181818" points="83.5,260.91,87.5,251.91,83.5,255.91,79.5,251.91,83.5,260.91" style="stroke:#181818;stroke-width:1.0;"/><text fill="#000000" font-family="sans-serif" font-size="13" lengthAdjust="spacing" textLength="67" x="84.5" y="227.8979">depends on</text></g><!--link HotSpring to GeothermalHeat--><g id="link_HotSpring_GeothermalHeat"><path codeLine="2" d="M83.5,55.22 C83.5,77.67 83.5,105.5 83.5,127.91 " fill="none" id="HotSpring-to-GeothermalHeat" style="stroke:#181818;stroke-width:1.0;stroke-dasharray:7.0,7.0;"/><polygon fill="#181818" points="83.5,133.91,87.5,124.91,83.5,128.91,79.5,124.91,83.5,133.91" style="stroke:#181818;stroke-width:1.0;"/><text fill="#000000" font-family="sans-serif" font-size="13" lengthAdjust="spacing" textLength="67" x="84.5" y="100.8979">depends on</text></g><!--SRC=[Sq_DByb8BSfDpF58JInHqDEpKmZDIqajIY_AByrB2KyiIIrIi598IIr8pKifLiZFu_B8BmakAChCImUhTKVLZgmI0000]--></g></svg>