<?xml version="1.0" encoding="us-ascii" standalone="no"?><svg xmlns="http://www.w3.org/2000/svg" xmlns:xlink="http://www.w3.org/1999/xlink" contentStyleType="text/css" height="316px" preserveAspectRatio="none" style="width:131px;height:316px;background:#FFFFFF;" version="1.1" viewBox="0 0 131 316" width="131px" zoomAndPan="magnify"><defs/><g><!--class Refraction--><g id="elem_Refraction"><rect fill="#F1F1F1" height="48" id="Refraction" rx="2.5" ry="2.5" style="stroke:#181818;stroke-width:0.5;" width="97" x="7" y="134"/><ellipse cx="22" cy="150" fill="#ADD1B2" rx="11" ry="11" style="stroke:#181818;stroke-width:1.0;"/><path d="M21.3438,155.8594 Q19.3594,155.8594 18.1875,154.3906 Q17.0313,152.9063 17.0313,149.8281 Q17.0313,147.2188 18.25,145.4688 Q19.4844,143.7188 21.6094,143.7188 Q22.1094,143.7188 22.6406,143.8594 Q23.0781,144.0469 23.3438,144.0469 Q23.5625,144.0469 23.6563,144 Q23.7656,143.9531 24.2188,143.3594 L24.9844,147.0938 L24.0938,147.3594 Q23.6406,145.9063 23.0313,145.3125 Q22.4375,144.7031 21.4844,144.7031 Q20.2656,144.7031 19.5469,146.1406 Q18.8281,147.5625 18.8281,149.75 Q18.8281,152.1563 19.4375,153.4531 Q20.0625,154.7344 21.4219,154.7344 Q22.375,154.7344 23.0625,154.0469 Q23.75,153.3438 24.0781,151.8438 L24.9844,152.25 Q24.5781,153.9531 23.6094,154.9063 Q22.6563,155.8594 21.3438,155.8594 Z " fill="#000000"/><text fill="#000000" font-family="sans-serif" font-size="14" lengthAdjust="spacing" textLength="65" x="36" y="156.4839">Refraction</text><line style="stroke:#181818;stroke-width:0.5;" x1="8" x2="103" y1="166" y2="166"/><line style="stroke:#181818;stroke-width:0.5;" x1="8" x2="103" y1="174" y2="174"/></g><!--class Medium--><g id="elem_Medium"><rect fill="#F1F1F1" height="48" id="Medium" rx="2.5" ry="2.5" style="stroke:#181818;stroke-width:0.5;" width="81" x="15" y="261"/><ellipse cx="30" cy="277" fill="#ADD1B2" rx="11" ry="11" style="stroke:#181818;stroke-width:1.0;"/><path d="M29.3438,282.8594 Q27.3594,282.8594 26.1875,281.3906 Q25.0313,279.9063 25.0313,276.8281 Q25.0313,274.2188 26.25,272.4688 Q27.4844,270.7188 29.6094,270.7188 Q30.1094,270.7188 30.6406,270.8594 Q31.0781,271.0469 31.3438,271.0469 Q31.5625,271.0469 31.6563,271 Q31.7656,270.9531 32.2188,270.3594 L32.9844,274.0938 L32.0938,274.3594 Q31.6406,272.9063 31.0313,272.3125 Q30.4375,271.7031 29.4844,271.7031 Q28.2656,271.7031 27.5469,273.1406 Q26.8281,274.5625 26.8281,276.75 Q26.8281,279.1563 27.4375,280.4531 Q28.0625,281.7344 29.4219,281.7344 Q30.375,281.7344 31.0625,281.0469 Q31.75,280.3438 32.0781,278.8438 L32.9844,279.25 Q32.5781,280.9531 31.6094,281.9063 Q30.6563,282.8594 29.3438,282.8594 Z " fill="#000000"/><text fill="#000000" font-family="sans-serif" font-size="14" lengthAdjust="spacing" textLength="49" x="44" y="283.4839">Medium</text><line style="stroke:#181818;stroke-width:0.5;" x1="16" x2="95" y1="293" y2="293"/><line style="stroke:#181818;stroke-width:0.5;" x1="16" x2="95" y1="301" y2="301"/></g><!--class Caustics--><g id="elem_Caustics"><rect fill="#F1F1F1" height="48" id="Caustics" rx="2.5" ry="2.5" style="stroke:#181818;stroke-width:0.5;" width="86" x="12.5" y="7"/><ellipse cx="27.5" cy="23" fill="#ADD1B2" rx="11" ry="11" style="stroke:#181818;stroke-width:1.0;"/><path d="M26.8438,28.8594 Q24.8594,28.8594 23.6875,27.3906 Q22.5313,25.9063 22.5313,22.8281 Q22.5313,20.2188 23.75,18.4688 Q24.9844,16.7188 27.1094,16.7188 Q27.6094,16.7188 28.1406,16.8594 Q28.5781,17.0469 28.8438,17.0469 Q29.0625,17.0469 29.1563,17 Q29.2656,16.9531 29.7188,16.3594 L30.4844,20.0938 L29.5938,20.3594 Q29.1406,18.9063 28.5313,18.3125 Q27.9375,17.7031 26.9844,17.7031 Q25.7656,17.7031 25.0469,19.1406 Q24.3281,20.5625 24.3281,22.75 Q24.3281,25.1563 24.9375,26.4531 Q25.5625,27.7344 26.9219,27.7344 Q27.875,27.7344 28.5625,27.0469 Q29.25,26.3438 29.5781,24.8438 L30.4844,25.25 Q30.0781,26.9531 29.1094,27.9063 Q28.1563,28.8594 26.8438,28.8594 Z " fill="#000000"/><text fill="#000000" font-family="sans-serif" font-size="14" lengthAdjust="spacing" textLength="54" x="41.5" y="29.4839">Caustics</text><line style="stroke:#181818;stroke-width:0.5;" x1="13.5" x2="97.5" y1="39" y2="39"/><line style="stroke:#181818;stroke-width:0.5;" x1="13.5" x2="97.5" y1="47" y2="47"/></g><!--link Refraction to Medium--><g id="link_Refraction_Medium"><path codeLine="1" d="M55.5,182.22 C55.5,204.67 55.5,232.5 55.5,254.91 " fill="none" id="Refraction-to-Medium" style="stroke:#181818;stroke-width:1.0;stroke-dasharray:7.0,7.0;"/><polygon fill="#181818" points="55.5,260.91,59.5,251.91,55.5,255.91,51.5,251.91,55.5,260.91" style="stroke:#181818;stroke-width:1.0;"/><text fill="#000000" font-family="sans-serif" font-size="13" lengthAdjust="spacing" textLength="67" x="56.5" y="227.8979">depends on</text></g><!--link Caustics to Refraction--><g id="link_Caustics_Refraction"><path codeLine="2" d="M55.5,55.22 C55.5,77.67 55.5,105.5 55.5,127.91 " fill="none" id="Caustics-to-Refraction" style="stroke:#181818;stroke-width:1.0;stroke-dasharray:7.0,7.0;"/><polygon fill="#181818" points="55.5,133.91,59.5,124.91,55.5,128.91,51.5,124.91,55.5,133.91" style="stroke:#181818;stroke-width:1.0;"/><text fill="#000000" font-family="sans-serif" font-size="13" lengthAdjust="spacing" textLength="67" x="56.5" y="100.8979">depends on</text></g><!--SRC=[2qfDAqfCBidCprFGqxDJy4rDoIpDLR1II4ajICrBALR8p-DoJYmjBibCBWOh24AeHrO40000]--></g></svg>