<?xml version="1.0" encoding="us-ascii" standalone="no"?><svg xmlns="http://www.w3.org/2000/svg" xmlns:xlink="http://www.w3.org/1999/xlink" contentStyleType="text/css" height="316px" preserveAspectRatio="none" style="width:143px;height:316px;background:#FFFFFF;" version="1.1" viewBox="0 0 143 316" width="143px" zoomAndPan="magnify"><defs/><g><!--class Thundercloud--><g id="elem_Thundercloud"><rect fill="#F1F1F1" height="48" id="Thundercloud" rx="2.5" ry="2.5" style="stroke:#181818;stroke-width:0.5;" width="120" x="7" y="134"/><ellipse cx="22" cy="150" fill="#ADD1B2" rx="11" ry="11" style="stroke:#181818;stroke-width:1.0;"/><path d="M21.3438,155.8594 Q19.3594,155.8594 18.1875,154.3906 Q17.0313,152.9063 17.0313,149.8281 Q17.0313,147.2188 18.25,145.4688 Q19.4844,143.7188 21.6094,143.7188 Q22.1094,143.7188 22.6406,143.8594 Q23.0781,144.0469 23.3438,144.0469 Q23.5625,144.0469 23.6563,144 Q23.7656,143.9531 24.2188,143.3594 L24.9844,147.0938 L24.0938,147.3594 Q23.6406,145.9063 23.0313,145.3125 Q22.4375,144.7031 21.4844,144.7031 Q20.2656,144.7031 19.5469,146.1406 Q18.8281,147.5625 18.8281,149.75 Q18.8281,152.1563 19.4375,153.4531 Q20.0625,154.7344 21.4219,154.7344 Q22.375,154.7344 23.0625,154.0469 Q23.75,153.3438 24.0781,151.8438 L24.9844,152.25 Q24.5781,153.9531 23.6094,154.9063 Q22.6563,155.8594 21.3438,155.8594 Z " fill="#000000"/><text fill="#000000" font-family="sans-serif" font-size="14" lengthAdjust="spacing" textLength="88" x="36" y="156.4839">Thundercloud</text><line style="stroke:#181818;stroke-width:0.5;" x1="8" x2="126" y1="166" y2="166"/><line style="stroke:#181818;stroke-width:0.5;" x1="8" x2="126" y1="174" y2="174"/></g><!--class StormSystem--><g id="elem_StormSystem"><rect fill="#F1F1F1" height="48" id="StormSystem" rx="2.5" ry="2.5" style="stroke:#181818;stroke-width:0.5;" width="115" x="9.5" y="261"/><ellipse cx="24.5" cy="277" fill="#ADD1B2" rx="11" ry="11" style="stroke:#181818;stroke-width:1.0;"/><path d="M23.8438,282.8594 Q21.8594,282.8594 20.6875,281.3906 Q19.5313,279.9063 19.5313,276.8281 Q19.5313,274.2188 20.75,272.4688 Q21.9844,270.7188 24.1094,270.7188 Q24.6094,270.7188 25.1406,270.8594 Q25.5781,271.0469 25.8438,271.0469 Q26.0625,271.0469 26.1563,271 Q26.2656,270.9531 26.7188,270.3594 L27.4844,274.0938 L26.5938,274.3594 Q26.1406,272.9063 25.5313,272.3125 Q24.9375,271.7031 23.9844,271.7031 Q22.7656,271.7031 22.0469,273.1406 Q21.3281,274.5625 21.3281,276.75 Q21.3281,279.1563 21.9375,280.4531 Q22.5625,281.7344 23.9219,281.7344 Q24.875,281.7344 25.5625,281.0469 Q26.25,280.3438 26.5781,278.8438 L27.4844,279.25 Q27.0781,280.9531 26.1094,281.9063 Q25.1563,282.8594 23.8438,282.8594 Z " fill="#000000"/><text fill="#000000" font-family="sans-serif" font-size="14" lengthAdjust="spacing" textLength="83" x="38.5" y="283.4839">StormSystem</text><line style="stroke:#181818;stroke-width:0.5;" x1="10.5" x2="123.5" y1="293" y2="293"/><line style="stroke:#181818;stroke-width:0.5;" x1="10.5" x2="123.5" y1="301" y2="301"/></g><!--class Hail--><g id="elem_Hail"><rect fill="#F1F1F1" height="48" id="Hail" rx="2.5" ry="2.5" style="stroke:#181818;stroke-width:0.5;" width="55" x="39.5" y="7"/><ellipse cx="54.5" cy="23" fill="#ADD1B2" rx="11" ry="11" style="stroke:#181818;stroke-width:1.0;"/><path d="M53.8438,28.8594 Q51.8594,28.8594 50.6875,27.3906 Q49.5313,25.9063 49.5313,22.8281 Q49.5313,20.2188 50.75,18.4688 Q51.9844,16.7188 54.1094,16.7188 Q54.6094,16.7188 55.1406,16.8594 Q55.5781,17.0469 55.8438,17.0469 Q56.0625,17.0469 56.1563,17 Q56.2656,16.9531 56.7188,16.3594 L57.4844,20.0938 L56.5938,20.3594 Q56.1406,18.9063 55.5313,18.3125 Q54.9375,17.7031 53.9844,17.7031 Q52.7656,17.7031 52.0469,19.1406 Q51.3281,20.5625 51.3281,22.75 Q51.3281,25.1563 51.9375,26.4531 Q52.5625,27.7344 53.9219,27.7344 Q54.875,27.7344 55.5625,27.0469 Q56.25,26.3438 56.5781,24.8438 L57.4844,25.25 Q57.0781,26.9531 56.1094,27.9063 Q55.1563,28.8594 53.8438,28.8594 Z " fill="#000000"/><text fill="#000000" font-family="sans-serif" font-size="14" lengthAdjust="spacing" textLength="23" x="68.5" y="29.4839">Hail</text><line style="stroke:#181818;stroke-width:0.5;" x1="40.5" x2="93.5" y1="39" y2="39"/><line style="stroke:#181818;stroke-width:0.5;" x1="40.5" x2="93.5" y1="47" y2="47"/></g><!--link Thundercloud to StormSystem--><g id="link_Thundercloud_StormSystem"><path codeLine="1" d="M67,182.22 C67,204.67 67,232.5 67,254.91 " fill="none" id="Thundercloud-to-StormSystem" style="stroke:#181818;stroke-width:1.0;stroke-dasharray:7.0,7.0;"/><polygon fill="#181818" points="67,260.91,71,251.91,67,255.91,63,251.91,67,260.91" style="stroke:#181818;stroke-width:1.0;"/><text fill="#000000" font-family="sans-serif" font-size="13" lengthAdjust="spacing" textLength="67" x="68" y="227.8979">depends on</text></g><!--link Hail to Thundercloud--><g id="link_Hail_Thundercloud"><path codeLine="2" d="M67,55.22 C67,77.67 67,105.5 67,127.91 " fill="none" id="Hail-to-Thundercloud" style="stroke:#181818;stroke-width:1.0;stroke-dasharray:7.0,7.0;"/><polygon fill="#181818" points="67,133.91,71,124.91,67,128.91,63,124.91,67,133.91" style="stroke:#181818;stroke-width:1.0;"/><text fill="#000000" font-family="sans-serif" font-size="13" lengthAdjust="spacing" textLength="67" x="68" y="100.8979">depends on</text></g><!--SRC=[2yaepKj9BKhEoIzDKT3JirC8BialoWskB2v9pLMmKaX9BKZDIobMoC_ZyaZCp06h247MWgm40000]--></g></svg>