<?xml version="1.0" encoding="us-ascii" standalone="no"?><svg xmlns="http://www.w3.org/2000/svg" xmlns:xlink="http://www.w3.org/1999/xlink" contentStyleType="text/css" height="316px" preserveAspectRatio="none" style="width:137px;height:316px;background:#FFFFFF;" version="1.1" viewBox="0 0 137 316" width="137px" zoomAndPan="magnify"><defs/><g><!--class Volcano--><g id="elem_Volcano"><rect fill="#F1F1F1" height="48" id="Volcano" rx="2.5" ry="2.5" style="stroke:#181818;stroke-width:0.5;" width="83" x="20" y="134"/><ellipse cx="35" cy="150" fill="#ADD1B2" rx="11" ry="11" style="stroke:#181818;stroke-width:1.0;"/><path d="M34.3438,155.8594 Q32.3594,155.8594 31.1875,154.3906 Q30.0313,152.9063 30.0313,149.8281 Q30.0313,147.2188 31.25,145.4688 Q32.4844,143.7188 34.6094,143.7188 Q35.1094,143.7188 35.6406,143.8594 Q36.0781,144.0469 36.3438,144.0469 Q36.5625,144.0469 36.6563,144 Q36.7656,143.9531 37.2188,143.3594 L37.9844,147.0938 L37.0938,147.3594 Q36.6406,145.9063 36.0313,145.3125 Q35.4375,144.7031 34.4844,144.7031 Q33.2656,144.7031 32.5469,146.1406 Q31.8281,147.5625 31.8281,149.75 Q31.8281,152.1563 32.4375,153.4531 Q33.0625,154.7344 34.4219,154.7344 Q35.375,154.7344 36.0625,154.0469 Q36.75,153.3438 37.0781,151.8438 L37.9844,152.25 Q37.5781,153.9531 36.6094,154.9063 Q35.6563,155.8594 34.3438,155.8594 Z " fill="#000000"/><text fill="#000000" font-family="sans-serif" font-size="14" lengthAdjust="spacing" textLength="51" x="49" y="156.4839">Volcano</text><line style="stroke:#181818;stroke-width:0.5;" x1="21" x2="102" y1="166" y2="166"/><line style="stroke:#181818;stroke-width:0.5;" x1="21" x2="102" y1="174" y2="174"/></g><!--class Magma--><g id="elem_Magma"><rect fill="#F1F1F1" height="48" id="Magma" rx="2.5" ry="2.5" style="stroke:#181818;stroke-width:0.5;" width="78" x="22.5" y="261"/><ellipse cx="37.5" cy="277" fill="#ADD1B2" rx="11" ry="11" style="stroke:#181818;stroke-width:1.0;"/><path d="M36.8438,282.8594 Q34.8594,282.8594 33.6875,281.3906 Q32.5313,279.9063 32.5313,276.8281 Q32.5313,274.2188 33.75,272.4688 Q34.9844,270.7188 37.1094,270.7188 Q37.6094,270.7188 38.1406,270.8594 Q38.5781,271.0469 38.8438,271.0469 Q39.0625,271.0469 39.1563,271 Q39.2656,270.9531 39.7188,270.3594 L40.4844,274.0938 L39.5938,274.3594 Q39.1406,272.9063 38.5313,272.3125 Q37.9375,271.7031 36.9844,271.7031 Q35.7656,271.7031 35.0469,273.1406 Q34.3281,274.5625 34.3281,276.75 Q34.3281,279.1563 34.9375,280.4531 Q35.5625,281.7344 36.9219,281.7344 Q37.875,281.7344 38.5625,281.0469 Q39.25,280.3438 39.5781,278.8438 L40.4844,279.25 Q40.0781,280.9531 39.1094,281.9063 Q38.1563,282.8594 36.8438,282.8594 Z " fill="#000000"/><text fill="#000000" font-family="sans-serif" font-size="14" lengthAdjust="spacing" textLength="46" x="51.5" y="283.4839">Magma</text><line style="stroke:#181818;stroke-width:0.5;" x1="23.5" x2="99.5" y1="293" y2="293"/><line style="stroke:#181818;stroke-width:0.5;" x1="23.5" x2="99.5" y1="301" y2="301"/></g><!--class VolcanicAsh--><g id="elem_VolcanicAsh"><rect fill="#F1F1F1" height="48" id="VolcanicAsh" rx="2.5" ry="2.5" style="stroke:#181818;stroke-width:0.5;" width="109" x="7" y="7"/><ellipse cx="22" cy="23" fill="#ADD1B2" rx="11" ry="11" style="stroke:#181818;stroke-width:1.0;"/><path d="M21.3438,28.8594 Q19.3594,28.8594 18.1875,27.3906 Q17.0313,25.9063 17.0313,22.8281 Q17.0313,20.2188 18.25,18.4688 Q19.4844,16.7188 21.6094,16.7188 Q22.1094,16.7188 22.6406,16.8594 Q23.0781,17.0469 23.3438,17.0469 Q23.5625,17.0469 23.6563,17 Q23.7656,16.9531 24.2188,16.3594 L24.9844,20.0938 L24.0938,20.3594 Q23.6406,18.9063 23.0313,18.3125 Q22.4375,17.7031 21.4844,17.7031 Q20.2656,17.7031 19.5469,19.1406 Q18.8281,20.5625 18.8281,22.75 Q18.8281,25.1563 19.4375,26.4531 Q20.0625,27.7344 21.4219,27.7344 Q22.375,27.7344 23.0625,27.0469 Q23.75,26.3438 24.0781,24.8438 L24.9844,25.25 Q24.5781,26.9531 23.6094,27.9063 Q22.6563,28.8594 21.3438,28.8594 Z " fill="#000000"/><text fill="#000000" font-family="sans-serif" font-size="14" lengthAdjust="spacing" textLength="77" x="36" y="29.4839">VolcanicAsh</text><line style="stroke:#181818;stroke-width:0.5;" x1="8" x2="115" y1="39" y2="39"/><line style="stroke:#181818;stroke-width:0.5;" x1="8" x2="115" y1="47" y2="47"/></g><!--link Volcano to Magma--><g id="link_Volcano_Magma"><path codeLine="1" d="M61.5,182.22 C61.5,204.67 61.5,232.5 61.5,254.91 " fill="none" id="Volcano-to-Magma" style="stroke:#181818;stroke-width:1.0;stroke-dasharray:7.0,7.0;"/><polygon fill="#181818" points="61.5,260.91,65.5,251.91,61.5,255.91,57.5,251.91,61.5,260.91" style="stroke:#181818;stroke-width:1.0;"/><text fill="#000000" font-family="sans-serif" font-size="13" lengthAdjust="spacing" textLength="67" x="62.5" y="227.8979">depends on</text></g><!--link VolcanicAsh to Volcano--><g id="link_VolcanicAsh_Volcano"><path codeLine="2" d="M61.5,55.22 C61.5,77.67 61.5,105.5 61.5,127.91 " fill="none" id="VolcanicAsh-to-Volcano" style="stroke:#181818;stroke-width:1.0;stroke-dasharray:7.0,7.0;"/><polygon fill="#181818" points="61.5,133.91,65.5,124.91,61.5,128.91,57.5,124.91,61.5,133.91" style="stroke:#181818;stroke-width:1.0;"/><text fill="#000000" font-family="sans-serif" font-size="13" lengthAdjust="spacing" textLength="67" x="62.5" y="100.8979">depends on</text></g><!--SRC=[2ylFIKxCorVGqxDJy4rCpqrKi598IIr8pKifLiZFume3IsScEnPdW9M4GPKZAm80]--></g></svg>