<?xml version="1.0" encoding="us-ascii" standalone="no"?><svg xmlns="http://www.w3.org/2000/svg" xmlns:xlink="http://www.w3.org/1999/xlink" contentStyleType="text/css" height="316px" preserveAspectRatio="none" style="width:100px;height:316px;background:#FFFFFF;" version="1.1" viewBox="0 0 100 316" width="100px" zoomAndPan="magnify"><defs/><g><!--class Leopard--><g id="elem_Leopard"><rect fill="#F1F1F1" height="48" id="Leopard" rx="2.5" ry="2.5" style="stroke:#181818;stroke-width:0.5;" width="85" x="7" y="7"/><ellipse cx="22" cy="23" fill="#ADD1B2" rx="11" ry="11" style="stroke:#181818;stroke-width:1.0;"/><path d="M21.3438,28.8594 Q19.3594,28.8594 18.1875,27.3906 Q17.0313,25.9063 17.0313,22.8281 Q17.0313,20.2188 18.25,18.4688 Q19.4844,16.7188 21.6094,16.7188 Q22.1094,16.7188 22.6406,16.8594 Q23.0781,17.0469 23.3438,17.0469 Q23.5625,17.0469 23.6563,17 Q23.7656,16.9531 24.2188,16.3594 L24.9844,20.0938 L24.0938,20.3594 Q23.6406,18.9063 23.0313,18.3125 Q22.4375,17.7031 21.4844,17.7031 Q20.2656,17.7031 19.5469,19.1406 Q18.8281,20.5625 18.8281,22.75 Q18.8281,25.1563 19.4375,26.4531 Q20.0625,27.7344 21.4219,27.7344 Q22.375,27.7344 23.0625,27.0469 Q23.75,26.3438 24.0781,24.8438 L24.9844,25.25 Q24.5781,26.9531 23.6094,27.9063 Q22.6563,28.8594 21.3438,28.8594 Z " fill="#000000"/><text fill="#000000" font-family="sans-serif" font-size="14" lengthAdjust="spacing" textLength="53" x="36" y="29.4839">Leopard</text><line style="stroke:#181818;stroke-width:0.5;" x1="8" x2="91" y1="39" y2="39"/><line style="stroke:#181818;stroke-width:0.5;" x1="8" x2="91" y1="47" y2="47"/></g><!--class Mammal--><g id="elem_Mammal"><rect fill="#F1F1F1" height="48" id="Mammal" rx="2.5" ry="2.5" style="stroke:#181818;stroke-width:0.5;" width="84" x="7.5" y="134"/><ellipse cx="22.5" cy="150" fill="#ADD1B2" rx="11" ry="11" style="stroke:#181818;stroke-width:1.0;"/><path d="M21.8438,155.8594 Q19.8594,155.8594 18.6875,154.3906 Q17.5313,152.9063 17.5313,149.8281 Q17.5313,147.2188 18.75,145.4688 Q19.9844,143.7188 22.1094,143.7188 Q22.6094,143.7188 23.1406,143.8594 Q23.5781,144.0469 23.8438,144.0469 Q24.0625,144.0469 24.1563,144 Q24.2656,143.9531 24.7188,143.3594 L25.4844,147.0938 L24.5938,147.3594 Q24.1406,145.9063 23.5313,145.3125 Q22.9375,144.7031 21.9844,144.7031 Q20.7656,144.7031 20.0469,146.1406 Q19.3281,147.5625 19.3281,149.75 Q19.3281,152.1563 19.9375,153.4531 Q20.5625,154.7344 21.9219,154.7344 Q22.875,154.7344 23.5625,154.0469 Q24.25,153.3438 24.5781,151.8438 L25.4844,152.25 Q25.0781,153.9531 24.1094,154.9063 Q23.1563,155.8594 21.8438,155.8594 Z " fill="#000000"/><text fill="#000000" font-family="sans-serif" font-size="14" lengthAdjust="spacing" textLength="52" x="36.5" y="156.4839">Mammal</text><line style="stroke:#181818;stroke-width:0.5;" x1="8.5" x2="90.5" y1="166" y2="166"/><line style="stroke:#181818;stroke-width:0.5;" x1="8.5" x2="90.5" y1="174" y2="174"/></g><!--class Animal--><g id="elem_Animal"><rect fill="#F1F1F1" height="48" id="Animal" rx="2.5" ry="2.5" style="stroke:#181818;stroke-width:0.5;" width="74" x="12.5" y="261"/><ellipse cx="27.5" cy="277" fill="#ADD1B2" rx="11" ry="11" style="stroke:#181818;stroke-width:1.0;"/><path d="M26.8438,282.8594 Q24.8594,282.8594 23.6875,281.3906 Q22.5313,279.9063 22.5313,276.8281 Q22.5313,274.2188 23.75,272.4688 Q24.9844,270.7188 27.1094,270.7188 Q27.6094,270.7188 28.1406,270.8594 Q28.5781,271.0469 28.8438,271.0469 Q29.0625,271.0469 29.1563,271 Q29.2656,270.9531 29.7188,270.3594 L30.4844,274.0938 L29.5938,274.3594 Q29.1406,272.9063 28.5313,272.3125 Q27.9375,271.7031 26.9844,271.7031 Q25.7656,271.7031 25.0469,273.1406 Q24.3281,274.5625 24.3281,276.75 Q24.3281,279.1563 24.9375,280.4531 Q25.5625,281.7344 26.9219,281.7344 Q27.875,281.7344 28.5625,281.0469 Q29.25,280.3438 29.5781,278.8438 L30.4844,279.25 Q30.0781,280.9531 29.1094,281.9063 Q28.1563,282.8594 26.8438,282.8594 Z " fill="#000000"/><text fill="#000000" font-family="sans-serif" font-size="14" lengthAdjust="spacing" textLength="42" x="41.5" y="283.4839">Animal</text><line style="stroke:#181818;stroke-width:0.5;" x1="13.5" x2="85.5" y1="293" y2="293"/><line style="stroke:#181818;stroke-width:0.5;" x1="13.5" x2="85.5" y1="301" y2="301"/></g><!--reverse link Leopard to Mammal--><g id="link_Leopard_Mammal"><path codeLine="1" d="M49.5,73.22 C49.5,95.67 49.5,111.5 49.5,133.91 " fill="none" id="Leopard-backto-Mammal" style="stroke:#181818;stroke-width:1.0;"/><polygon fill="none" points="49.5,55.22,43.5,73.22,55.5,73.22,49.5,55.22" style="stroke:#181818;stroke-width:1.0;"/><text fill="#000000" font-family="sans-serif" font-size="13" lengthAdjust="spacing" textLength="42" x="50.5" y="100.8979">inherits</text></g><!--reverse link Mammal to Animal--><g id="link_Mammal_Animal"><path codeLine="2" d="M49.5,200.22 C49.5,222.67 49.5,238.5 49.5,260.91 " fill="none" id="Mammal-backto-Animal" style="stroke:#181818;stroke-width:1.0;"/><polygon fill="none" points="49.5,182.22,43.5,200.22,55.5,200.22,49.5,182.22" style="stroke:#181818;stroke-width:1.0;"/><text fill="#000000" font-family="sans-serif" font-size="13" lengthAdjust="spacing" textLength="42" x="50.5" y="227.8979">inherits</text></g><!--SRC=[yqdDBqWiIb6mgT7LLV1DpCrDp56mKiZCoqWjoYmfveAAW6KTyp9HPG40]--></g></svg>