<?xml version="1.0" encoding="us-ascii" standalone="no"?><svg xmlns="http://www.w3.org/2000/svg" xmlns:xlink="http://www.w3.org/1999/xlink" contentStyleType="text/css" height="316px" preserveAspectRatio="none" style="width:166px;height:316px;background:#FFFFFF;" version="1.1" viewBox="0 0 166 316" width="166px" zoomAndPan="magnify"><defs/><g><!--class CommunityForum--><g id="elem_CommunityForum"><rect fill="#F1F1F1" height="48" id="CommunityForum" rx="2.5" ry="2.5" style="stroke:#181818;stroke-width:0.5;" width="143" x="11.5" y="134"/><ellipse cx="26.5" cy="150" fill="#ADD1B2" rx="11" ry="11" style="stroke:#181818;stroke-width:1.0;"/><path d="M25.8438,155.8594 Q23.8594,155.8594 22.6875,154.3906 Q21.5313,152.9063 21.5313,149.8281 Q21.5313,147.2188 22.75,145.4688 Q23.9844,143.7188 26.1094,143.7188 Q26.6094,143.7188 27.1406,143.8594 Q27.5781,144.0469 27.8438,144.0469 Q28.0625,144.0469 28.1563,144 Q28.2656,143.9531 28.7188,143.3594 L29.4844,147.0938 L28.5938,147.3594 Q28.1406,145.9063 27.5313,145.3125 Q26.9375,144.7031 25.9844,144.7031 Q24.7656,144.7031 24.0469,146.1406 Q23.3281,147.5625 23.3281,149.75 Q23.3281,152.1563 23.9375,153.4531 Q24.5625,154.7344 25.9219,154.7344 Q26.875,154.7344 27.5625,154.0469 Q28.25,153.3438 28.5781,151.8438 L29.4844,152.25 Q29.0781,153.9531 28.1094,154.9063 Q27.1563,155.8594 25.8438,155.8594 Z " fill="#000000"/><text fill="#000000" font-family="sans-serif" font-size="14" lengthAdjust="spacing" textLength="111" x="40.5" y="156.4839">CommunityForum</text><line style="stroke:#181818;stroke-width:0.5;" x1="12.5" x2="153.5" y1="166" y2="166"/><line style="stroke:#181818;stroke-width:0.5;" x1="12.5" x2="153.5" y1="174" y2="174"/></g><!--class InternetConnection--><g id="elem_InternetConnection"><rect fill="#F1F1F1" height="48" id="InternetConnection" rx="2.5" ry="2.5" style="stroke:#181818;stroke-width:0.5;" width="152" x="7" y="261"/><ellipse cx="22" cy="277" fill="#ADD1B2" rx="11" ry="11" style="stroke:#181818;stroke-width:1.0;"/><path d="M21.3438,282.8594 Q19.3594,282.8594 18.1875,281.3906 Q17.0313,279.9063 17.0313,276.8281 Q17.0313,274.2188 18.25,272.4688 Q19.4844,270.7188 21.6094,270.7188 Q22.1094,270.7188 22.6406,270.8594 Q23.0781,271.0469 23.3438,271.0469 Q23.5625,271.0469 23.6563,271 Q23.7656,270.9531 24.2188,270.3594 L24.9844,274.0938 L24.0938,274.3594 Q23.6406,272.9063 23.0313,272.3125 Q22.4375,271.7031 21.4844,271.7031 Q20.2656,271.7031 19.5469,273.1406 Q18.8281,274.5625 18.8281,276.75 Q18.8281,279.1563 19.4375,280.4531 Q20.0625,281.7344 21.4219,281.7344 Q22.375,281.7344 23.0625,281.0469 Q23.75,280.3438 24.0781,278.8438 L24.9844,279.25 Q24.5781,280.9531 23.6094,281.9063 Q22.6563,282.8594 21.3438,282.8594 Z " fill="#000000"/><text fill="#000000" font-family="sans-serif" font-size="14" lengthAdjust="spacing" textLength="120" x="36" y="283.4839">InternetConnection</text><line style="stroke:#181818;stroke-width:0.5;" x1="8" x2="158" y1="293" y2="293"/><line style="stroke:#181818;stroke-width:0.5;" x1="8" x2="158" y1="301" y2="301"/></g><!--class GroupChat--><g id="elem_GroupChat"><rect fill="#F1F1F1" height="48" id="GroupChat" rx="2.5" ry="2.5" style="stroke:#181818;stroke-width:0.5;" width="102" x="32" y="7"/><ellipse cx="47" cy="23" fill="#ADD1B2" rx="11" ry="11" style="stroke:#181818;stroke-width:1.0;"/><path d="M46.3438,28.8594 Q44.3594,28.8594 43.1875,27.3906 Q42.0313,25.9063 42.0313,22.8281 Q42.0313,20.2188 43.25,18.4688 Q44.4844,16.7188 46.6094,16.7188 Q47.1094,16.7188 47.6406,16.8594 Q48.0781,17.0469 48.3438,17.0469 Q48.5625,17.0469 48.6563,17 Q48.7656,16.9531 49.2188,16.3594 L49.9844,20.0938 L49.0938,20.3594 Q48.6406,18.9063 48.0313,18.3125 Q47.4375,17.7031 46.4844,17.7031 Q45.2656,17.7031 44.5469,19.1406 Q43.8281,20.5625 43.8281,22.75 Q43.8281,25.1563 44.4375,26.4531 Q45.0625,27.7344 46.4219,27.7344 Q47.375,27.7344 48.0625,27.0469 Q48.75,26.3438 49.0781,24.8438 L49.9844,25.25 Q49.5781,26.9531 48.6094,27.9063 Q47.6563,28.8594 46.3438,28.8594 Z " fill="#000000"/><text fill="#000000" font-family="sans-serif" font-size="14" lengthAdjust="spacing" textLength="70" x="61" y="29.4839">GroupChat</text><line style="stroke:#181818;stroke-width:0.5;" x1="33" x2="133" y1="39" y2="39"/><line style="stroke:#181818;stroke-width:0.5;" x1="33" x2="133" y1="47" y2="47"/></g><!--link CommunityForum to InternetConnection--><g id="link_CommunityForum_InternetConnection"><path codeLine="1" d="M83,182.22 C83,204.67 83,232.5 83,254.91 " fill="none" id="CommunityForum-to-InternetConnection" style="stroke:#181818;stroke-width:1.0;stroke-dasharray:7.0,7.0;"/><polygon fill="#181818" points="83,260.91,87,251.91,83,255.91,79,251.91,83,260.91" style="stroke:#181818;stroke-width:1.0;"/><text fill="#000000" font-family="sans-serif" font-size="13" lengthAdjust="spacing" textLength="67" x="84" y="227.8979">depends on</text></g><!--link GroupChat to CommunityForum--><g id="link_GroupChat_CommunityForum"><path codeLine="2" d="M83,55.22 C83,77.67 83,105.5 83,127.91 " fill="none" id="GroupChat-to-CommunityForum" style="stroke:#181818;stroke-width:1.0;stroke-dasharray:7.0,7.0;"/><polygon fill="#181818" points="83,133.91,87,124.91,83,128.91,79,124.91,83,133.91" style="stroke:#181818;stroke-width:1.0;"/><text fill="#000000" font-family="sans-serif" font-size="13" lengthAdjust="spacing" textLength="67" x="84" y="100.8979">depends on</text></g><!--SRC=[SyxFpItDooofTCilAirLqDEpK_3CAqajoaijSSxFoqjDBidCprEmKaX9BKZDIobMoC_ZSY_ABormpaWi0QjsHZK0MIK0]--></g></svg>