<?xml version="1.0" encoding="us-ascii" standalone="no"?><svg xmlns="http://www.w3.org/2000/svg" xmlns:xlink="http://www.w3.org/1999/xlink" contentStyleType="text/css" height="316px" preserveAspectRatio="none" style="width:166px;height:316px;background:#FFFFFF;" version="1.1" viewBox="0 0 166 316" width="166px" zoomAndPan="magnify"><defs/><g><!--class EncyclopediaSite--><g id="elem_EncyclopediaSite"><rect fill="#F1F1F1" height="48" id="EncyclopediaSite" rx="2.5" ry="2.5" style="stroke:#181818;stroke-width:0.5;" width="140" x="13" y="134"/><ellipse cx="28" cy="150" fill="#ADD1B2" rx="11" ry="11" style="stroke:#181818;stroke-width:1.0;"/><path d="M27.3438,155.8594 Q25.3594,155.8594 24.1875,154.3906 Q23.0313,152.9063 23.0313,149.8281 Q23.0313,147.2188 24.25,145.4688 Q25.4844,143.7188 27.6094,143.7188 Q28.1094,143.7188 28.6406,143.8594 Q29.0781,144.0469 29.3438,144.0469 Q29.5625,144.0469 29.6563,144 Q29.7656,143.9531 30.2188,143.3594 L30.9844,147.0938 L30.0938,147.3594 Q29.6406,145.9063 29.0313,145.3125 Q28.4375,144.7031 27.4844,144.7031 Q26.2656,144.7031 25.5469,146.1406 Q24.8281,147.5625 24.8281,149.75 Q24.8281,152.1563 25.4375,153.4531 Q26.0625,154.7344 27.4219,154.7344 Q28.375,154.7344 29.0625,154.0469 Q29.75,153.3438 30.0781,151.8438 L30.9844,152.25 Q30.5781,153.9531 29.6094,154.9063 Q28.6563,155.8594 27.3438,155.8594 Z " fill="#000000"/><text fill="#000000" font-family="sans-serif" font-size="14" lengthAdjust="spacing" textLength="108" x="42" y="156.4839">EncyclopediaSite</text><line style="stroke:#181818;stroke-width:0.5;" x1="14" x2="152" y1="166" y2="166"/><line style="stroke:#181818;stroke-width:0.5;" x1="14" x2="152" y1="174" y2="174"/></g><!--class InternetConnection--><g id="elem_InternetConnection"><rect fill="#F1F1F1" height="48" id="InternetConnection" rx="2.5" ry="2.5" style="stroke:#181818;stroke-width:0.5;" width="152" x="7" y="261"/><ellipse cx="22" cy="277" fill="#ADD1B2" rx="11" ry="11" style="stroke:#181818;stroke-width:1.0;"/><path d="M21.3438,282.8594 Q19.3594,282.8594 18.1875,281.3906 Q17.0313,279.9063 17.0313,276.8281 Q17.0313,274.2188 18.25,272.4688 Q19.4844,270.7188 21.6094,270.7188 Q22.1094,270.7188 22.6406,270.8594 Q23.0781,271.0469 23.3438,271.0469 Q23.5625,271.0469 23.6563,271 Q23.7656,270.9531 24.2188,270.3594 L24.9844,274.0938 L24.0938,274.3594 Q23.6406,272.9063 23.0313,272.3125 Q22.4375,271.7031 21.4844,271.7031 Q20.2656,271.7031 19.5469,273.1406 Q18.8281,274.5625 18.8281,276.75 Q18.8281,279.1563 19.4375,280.4531 Q20.0625,281.7344 21.4219,281.7344 Q22.375,281.7344 23.0625,281.0469 Q23.75,280.3438 24.0781,278.8438 L24.9844,279.25 Q24.5781,280.9531 23.6094,281.9063 Q22.6563,282.8594 21.3438,282.8594 Z " fill="#000000"/><text fill="#000000" font-family="sans-serif" font-size="14" lengthAdjust="spacing" textLength="120" x="36" y="283.4839">InternetConnection</text><line style="stroke:#181818;stroke-width:0.5;" x1="8" x2="158" y1="293" y2="293"/><line style="stroke:#181818;stroke-width:0.5;" x1="8" x2="158" y1="301" y2="301"/></g><!--class WebSearch--><g id="elem_WebSearch"><rect fill="#F1F1F1" height="48" id="WebSearch" rx="2.5" ry="2.5" style="stroke:#181818;stroke-width:0.5;" width="106" x="30" y="7"/><ellipse cx="45" cy="23" fill="#ADD1B2" rx="11" ry="11" style="stroke:#181818;stroke-width:1.0;"/><path d="M44.3438,28.8594 Q42.3594,28.8594 41.1875,27.3906 Q40.0313,25.9063 40.0313,22.8281 Q40.0313,20.2188 41.25,18.4688 Q42.4844,16.7188 44.6094,16.7188 Q45.1094,16.7188 45.6406,16.8594 Q46.0781,17.0469 46.3438,17.0469 Q46.5625,17.0469 46.6563,17 Q46.7656,16.9531 47.2188,16.3594 L47.9844,20.0938 L47.0938,20.3594 Q46.6406,18.9063 46.0313,18.3125 Q45.4375,17.7031 44.4844,17.7031 Q43.2656,17.7031 42.5469,19.1406 Q41.8281,20.5625 41.8281,22.75 Q41.8281,25.1563 42.4375,26.4531 Q43.0625,27.7344 44.4219,27.7344 Q45.375,27.7344 46.0625,27.0469 Q46.75,26.3438 47.0781,24.8438 L47.9844,25.25 Q47.5781,26.9531 46.6094,27.9063 Q45.6563,28.8594 44.3438,28.8594 Z " fill="#000000"/><text fill="#000000" font-family="sans-serif" font-size="14" lengthAdjust="spacing" textLength="74" x="59" y="29.4839">WebSearch</text><line style="stroke:#181818;stroke-width:0.5;" x1="31" x2="135" y1="39" y2="39"/><line style="stroke:#181818;stroke-width:0.5;" x1="31" x2="135" y1="47" y2="47"/></g><!--link EncyclopediaSite to InternetConnection--><g id="link_EncyclopediaSite_InternetConnection"><path codeLine="1" d="M83,182.22 C83,204.67 83,232.5 83,254.91 " fill="none" id="EncyclopediaSite-to-InternetConnection" style="stroke:#181818;stroke-width:1.0;stroke-dasharray:7.0,7.0;"/><polygon fill="#181818" points="83,260.91,87,251.91,83,255.91,79,251.91,83,260.91" style="stroke:#181818;stroke-width:1.0;"/><text fill="#000000" font-family="sans-serif" font-size="13" lengthAdjust="spacing" textLength="67" x="84" y="227.8979">depends on</text></g><!--link WebSearch to EncyclopediaSite--><g id="link_WebSearch_EncyclopediaSite"><path codeLine="2" d="M83,55.22 C83,77.67 83,105.5 83,127.91 " fill="none" id="WebSearch-to-EncyclopediaSite" style="stroke:#181818;stroke-width:1.0;stroke-dasharray:7.0,7.0;"/><polygon fill="#181818" points="83,133.91,87,124.91,83,128.91,79,124.91,83,133.91" style="stroke:#181818;stroke-width:1.0;"/><text fill="#000000" font-family="sans-serif" font-size="13" lengthAdjust="spacing" textLength="67" x="84" y="100.8979">depends on</text></g><!--SRC=[SyrBhapEoIz8JSbC3CuiILNGqxDJyCmhIItAIornpi_BIqqkoSpFKx1II4ajICrBALR8p-CAJqqAJaqiIiu0gtP5Dm9PBG00]--></g></svg>