<?xml version="1.0" encoding="us-ascii" standalone="no"?><svg xmlns="http://www.w3.org/2000/svg" xmlns:xlink="http://www.w3.org/1999/xlink" contentStyleType="text/css" height="316px" preserveAspectRatio="none" style="width:120px;height:316px;background:#FFFFFF;" version="1.1" viewBox="0 0 120 316" width="120px" zoomAndPan="magnify"><defs/><g><!--class Fin--><g id="elem_Fin"><rect fill="#F1F1F1" height="48" id="Fin" rx="2.5" ry="2.5" style="stroke:#181818;stroke-width:0.5;" width="52" x="25.5" y="134"/><ellipse cx="40.5" cy="150" fill="#ADD1B2" rx="11" ry="11" style="stroke:#181818;stroke-width:1.0;"/><path d="M39.8438,155.8594 Q37.8594,155.8594 36.6875,154.3906 Q35.5313,152.9063 35.5313,149.8281 Q35.5313,147.2188 36.75,145.4688 Q37.9844,143.7188 40.1094,143.7188 Q40.6094,143.7188 41.1406,143.8594 Q41.5781,144.0469 41.8438,144.0469 Q42.0625,144.0469 42.1563,144 Q42.2656,143.9531 42.7188,143.3594 L43.4844,147.0938 L42.5938,147.3594 Q42.1406,145.9063 41.5313,145.3125 Q40.9375,144.7031 39.9844,144.7031 Q38.7656,144.7031 38.0469,146.1406 Q37.3281,147.5625 37.3281,149.75 Q37.3281,152.1563 37.9375,153.4531 Q38.5625,154.7344 39.9219,154.7344 Q40.875,154.7344 41.5625,154.0469 Q42.25,153.3438 42.5781,151.8438 L43.4844,152.25 Q43.0781,153.9531 42.1094,154.9063 Q41.1563,155.8594 39.8438,155.8594 Z " fill="#000000"/><text fill="#000000" font-family="sans-serif" font-size="14" lengthAdjust="spacing" textLength="20" x="54.5" y="156.4839">Fin</text><line style="stroke:#181818;stroke-width:0.5;" x1="26.5" x2="76.5" y1="166" y2="166"/><line style="stroke:#181818;stroke-width:0.5;" x1="26.5" x2="76.5" y1="174" y2="174"/></g><!--class Mackerel--><g id="elem_Mackerel"><rect fill="#F1F1F1" height="48" id="Mackerel" rx="2.5" ry="2.5" style="stroke:#181818;stroke-width:0.5;" width="89" x="7" y="261"/><ellipse cx="22" cy="277" fill="#ADD1B2" rx="11" ry="11" style="stroke:#181818;stroke-width:1.0;"/><path d="M21.3438,282.8594 Q19.3594,282.8594 18.1875,281.3906 Q17.0313,279.9063 17.0313,276.8281 Q17.0313,274.2188 18.25,272.4688 Q19.4844,270.7188 21.6094,270.7188 Q22.1094,270.7188 22.6406,270.8594 Q23.0781,271.0469 23.3438,271.0469 Q23.5625,271.0469 23.6563,271 Q23.7656,270.9531 24.2188,270.3594 L24.9844,274.0938 L24.0938,274.3594 Q23.6406,272.9063 23.0313,272.3125 Q22.4375,271.7031 21.4844,271.7031 Q20.2656,271.7031 19.5469,273.1406 Q18.8281,274.5625 18.8281,276.75 Q18.8281,279.1563 19.4375,280.4531 Q20.0625,281.7344 21.4219,281.7344 Q22.375,281.7344 23.0625,281.0469 Q23.75,280.3438 24.0781,278.8438 L24.9844,279.25 Q24.5781,280.9531 23.6094,281.9063 Q22.6563,282.8594 21.3438,282.8594 Z " fill="#000000"/><text fill="#000000" font-family="sans-serif" font-size="14" lengthAdjust="spacing" textLength="57" x="36" y="283.4839">Mackerel</text><line style="stroke:#181818;stroke-width:0.5;" x1="8" x2="95" y1="293" y2="293"/><line style="stroke:#181818;stroke-width:0.5;" x1="8" x2="95" y1="301" y2="301"/></g><!--class Ray--><g id="elem_Ray"><rect fill="#F1F1F1" height="48" id="Ray" rx="2.5" ry="2.5" style="stroke:#181818;stroke-width:0.5;" width="57" x="23" y="7"/><ellipse cx="38" cy="23" fill="#ADD1B2" rx="11" ry="11" style="stroke:#181818;stroke-width:1.0;"/><path d="M37.3438,28.8594 Q35.3594,28.8594 34.1875,27.3906 Q33.0313,25.9063 33.0313,22.8281 Q33.0313,20.2188 34.25,18.4688 Q35.4844,16.7188 37.6094,16.7188 Q38.1094,16.7188 38.6406,16.8594 Q39.0781,17.0469 39.3438,17.0469 Q39.5625,17.0469 39.6563,17 Q39.7656,16.9531 40.2188,16.3594 L40.9844,20.0938 L40.0938,20.3594 Q39.6406,18.9063 39.0313,18.3125 Q38.4375,17.7031 37.4844,17.7031 Q36.2656,17.7031 35.5469,19.1406 Q34.8281,20.5625 34.8281,22.75 Q34.8281,25.1563 35.4375,26.4531 Q36.0625,27.7344 37.4219,27.7344 Q38.375,27.7344 39.0625,27.0469 Q39.75,26.3438 40.0781,24.8438 L40.9844,25.25 Q40.5781,26.9531 39.6094,27.9063 Q38.6563,28.8594 37.3438,28.8594 Z " fill="#000000"/><text fill="#000000" font-family="sans-serif" font-size="14" lengthAdjust="spacing" textLength="25" x="52" y="29.4839">Ray</text><line style="stroke:#181818;stroke-width:0.5;" x1="24" x2="79" y1="39" y2="39"/><line style="stroke:#181818;stroke-width:0.5;" x1="24" x2="79" y1="47" y2="47"/></g><!--reverse link Fin to Mackerel--><g id="link_Fin_Mackerel"><path codeLine="1" d="M51.5,194.22 C51.5,216.67 51.5,238.5 51.5,260.91 " fill="none" id="Fin-backto-Mackerel" style="stroke:#181818;stroke-width:1.0;"/><polygon fill="#181818" points="51.5,182.22,47.5,188.22,51.5,194.22,55.5,188.22,51.5,182.22" style="stroke:#181818;stroke-width:1.0;"/><text fill="#000000" font-family="sans-serif" font-size="13" lengthAdjust="spacing" textLength="60" x="52.5" y="227.8979">composes</text></g><!--reverse link Ray to Fin--><g id="link_Ray_Fin"><path codeLine="2" d="M51.5,67.22 C51.5,89.67 51.5,111.5 51.5,133.91 " fill="none" id="Ray-backto-Fin" style="stroke:#181818;stroke-width:1.0;"/><polygon fill="#181818" points="51.5,55.22,47.5,61.22,51.5,67.22,55.5,61.22,51.5,55.22" style="stroke:#181818;stroke-width:1.0;"/><text fill="#000000" font-family="sans-serif" font-size="13" lengthAdjust="spacing" textLength="60" x="52.5" y="100.8979">composes</text></g><!--SRC=[SylCKz3IrLNmJKpEJYrApL6mKaZEpot8BqujvWfAh0JBkG7L88G1]--></g></svg>