<?xml version="1.0" encoding="us-ascii" standalone="no"?><svg xmlns="http://www.w3.org/2000/svg" xmlns:xlink="http://www.w3.org/1999/xlink" contentStyleType="text/css" height="316px" preserveAspectRatio="none" style="width:120px;height:316px;background:#FFFFFF;" version="1.1" viewBox="0 0 120 316" width="120px" zoomAndPan="magnify"><defs/><g><!--class Nose--><g id="elem_Nose"><rect fill="#F1F1F1" height="48" id="Nose" rx="2.5" ry="2.5" style="stroke:#181818;stroke-width:0.5;" width="64" x="19" y="134"/><ellipse cx="34" cy="150" fill="#ADD1B2" rx="11" ry="11" style="stroke:#181818;stroke-width:1.0;"/><path d="M33.3438,155.8594 Q31.3594,155.8594 30.1875,154.3906 Q29.0313,152.9063 29.0313,149.8281 Q29.0313,147.2188 30.25,145.4688 Q31.4844,143.7188 33.6094,143.7188 Q34.1094,143.7188 34.6406,143.8594 Q35.0781,144.0469 35.3438,144.0469 Q35.5625,144.0469 35.6563,144 Q35.7656,143.9531 36.2188,143.3594 L36.9844,147.0938 L36.0938,147.3594 Q35.6406,145.9063 35.0313,145.3125 Q34.4375,144.7031 33.4844,144.7031 Q32.2656,144.7031 31.5469,146.1406 Q30.8281,147.5625 30.8281,149.75 Q30.8281,152.1563 31.4375,153.4531 Q32.0625,154.7344 33.4219,154.7344 Q34.375,154.7344 35.0625,154.0469 Q35.75,153.3438 36.0781,151.8438 L36.9844,152.25 Q36.5781,153.9531 35.6094,154.9063 Q34.6563,155.8594 33.3438,155.8594 Z " fill="#000000"/><text fill="#000000" font-family="sans-serif" font-size="14" lengthAdjust="spacing" textLength="32" x="48" y="156.4839">Nose</text><line style="stroke:#181818;stroke-width:0.5;" x1="20" x2="82" y1="166" y2="166"/><line style="stroke:#181818;stroke-width:0.5;" x1="20" x2="82" y1="174" y2="174"/></g><!--class Raccoon--><g id="elem_Raccoon"><rect fill="#F1F1F1" height="48" id="Raccoon" rx="2.5" ry="2.5" style="stroke:#181818;stroke-width:0.5;" width="88" x="7" y="261"/><ellipse cx="22" cy="277" fill="#ADD1B2" rx="11" ry="11" style="stroke:#181818;stroke-width:1.0;"/><path d="M21.3438,282.8594 Q19.3594,282.8594 18.1875,281.3906 Q17.0313,279.9063 17.0313,276.8281 Q17.0313,274.2188 18.25,272.4688 Q19.4844,270.7188 21.6094,270.7188 Q22.1094,270.7188 22.6406,270.8594 Q23.0781,271.0469 23.3438,271.0469 Q23.5625,271.0469 23.6563,271 Q23.7656,270.9531 24.2188,270.3594 L24.9844,274.0938 L24.0938,274.3594 Q23.6406,272.9063 23.0313,272.3125 Q22.4375,271.7031 21.4844,271.7031 Q20.2656,271.7031 19.5469,273.1406 Q18.8281,274.5625 18.8281,276.75 Q18.8281,279.1563 19.4375,280.4531 Q20.0625,281.7344 21.4219,281.7344 Q22.375,281.7344 23.0625,281.0469 Q23.75,280.3438 24.0781,278.8438 L24.9844,279.25 Q24.5781,280.9531 23.6094,281.9063 Q22.6563,282.8594 21.3438,282.8594 Z " fill="#000000"/><text fill="#000000" font-family="sans-serif" font-size="14" lengthAdjust="spacing" textLength="56" x="36" y="283.4839">Raccoon</text><line style="stroke:#181818;stroke-width:0.5;" x1="8" x2="94" y1="293" y2="293"/><line style="stroke:#181818;stroke-width:0.5;" x1="8" x2="94" y1="301" y2="301"/></g><!--class Nostril--><g id="elem_Nostril"><rect fill="#F1F1F1" height="48" id="Nostril" rx="2.5" ry="2.5" style="stroke:#181818;stroke-width:0.5;" width="71" x="15.5" y="7"/><ellipse cx="30.5" cy="23" fill="#ADD1B2" rx="11" ry="11" style="stroke:#181818;stroke-width:1.0;"/><path d="M29.8438,28.8594 Q27.8594,28.8594 26.6875,27.3906 Q25.5313,25.9063 25.5313,22.8281 Q25.5313,20.2188 26.75,18.4688 Q27.9844,16.7188 30.1094,16.7188 Q30.6094,16.7188 31.1406,16.8594 Q31.5781,17.0469 31.8438,17.0469 Q32.0625,17.0469 32.1563,17 Q32.2656,16.9531 32.7188,16.3594 L33.4844,20.0938 L32.5938,20.3594 Q32.1406,18.9063 31.5313,18.3125 Q30.9375,17.7031 29.9844,17.7031 Q28.7656,17.7031 28.0469,19.1406 Q27.3281,20.5625 27.3281,22.75 Q27.3281,25.1563 27.9375,26.4531 Q28.5625,27.7344 29.9219,27.7344 Q30.875,27.7344 31.5625,27.0469 Q32.25,26.3438 32.5781,24.8438 L33.4844,25.25 Q33.0781,26.9531 32.1094,27.9063 Q31.1563,28.8594 29.8438,28.8594 Z " fill="#000000"/><text fill="#000000" font-family="sans-serif" font-size="14" lengthAdjust="spacing" textLength="39" x="44.5" y="29.4839">Nostril</text><line style="stroke:#181818;stroke-width:0.5;" x1="16.5" x2="85.5" y1="39" y2="39"/><line style="stroke:#181818;stroke-width:0.5;" x1="16.5" x2="85.5" y1="47" y2="47"/></g><!--reverse link Nose to Raccoon--><g id="link_Nose_Raccoon"><path codeLine="1" d="M51,194.22 C51,216.67 51,238.5 51,260.91 " fill="none" id="Nose-backto-Raccoon" style="stroke:#181818;stroke-width:1.0;"/><polygon fill="#181818" points="51,182.22,47,188.22,51,194.22,55,188.22,51,182.22" style="stroke:#181818;stroke-width:1.0;"/><text fill="#000000" font-family="sans-serif" font-size="13" lengthAdjust="spacing" textLength="60" x="52" y="227.8979">composes</text></g><!--reverse link Nostril to Nose--><g id="link_Nostril_Nose"><path codeLine="2" d="M51,67.22 C51,89.67 51,111.5 51,133.91 " fill="none" id="Nostril-backto-Nose" style="stroke:#181818;stroke-width:1.0;"/><polygon fill="#181818" points="51,55.22,47,61.22,51,67.22,55,61.22,51,55.22" style="stroke:#181818;stroke-width:1.0;"/><text fill="#000000" font-family="sans-serif" font-size="13" lengthAdjust="spacing" textLength="60" x="52" y="100.8979">composes</text></g><!--SRC=[yyilJbNGqjLL24fCJixFprEmKaZEpoq0YXPp-UKNbnHbve2b_K3g4780]--></g></svg>