<?xml version="1.0" encoding="us-ascii" standalone="no"?><svg xmlns="http://www.w3.org/2000/svg" xmlns:xlink="http://www.w3.org/1999/xlink" contentStyleType="text/css" height="316px" preserveAspectRatio="none" style="width:118px;height:316px;background:#FFFFFF;" version="1.1" viewBox="0 0 118 316" width="118px" zoomAndPan="magnify"><defs/><g><!--class Wing--><g id="elem_Wing"><rect fill="#F1F1F1" height="48" id="Wing" rx="2.5" ry="2.5" style="stroke:#181818;stroke-width:0.5;" width="64" x="17" y="134"/><ellipse cx="32" cy="150" fill="#ADD1B2" rx="11" ry="11" style="stroke:#181818;stroke-width:1.0;"/><path d="M31.3438,155.8594 Q29.3594,155.8594 28.1875,154.3906 Q27.0313,152.9063 27.0313,149.8281 Q27.0313,147.2188 28.25,145.4688 Q29.4844,143.7188 31.6094,143.7188 Q32.1094,143.7188 32.6406,143.8594 Q33.0781,144.0469 33.3438,144.0469 Q33.5625,144.0469 33.6563,144 Q33.7656,143.9531 34.2188,143.3594 L34.9844,147.0938 L34.0938,147.3594 Q33.6406,145.9063 33.0313,145.3125 Q32.4375,144.7031 31.4844,144.7031 Q30.2656,144.7031 29.5469,146.1406 Q28.8281,147.5625 28.8281,149.75 Q28.8281,152.1563 29.4375,153.4531 Q30.0625,154.7344 31.4219,154.7344 Q32.375,154.7344 33.0625,154.0469 Q33.75,153.3438 34.0781,151.8438 L34.9844,152.25 Q34.5781,153.9531 33.6094,154.9063 Q32.6563,155.8594 31.3438,155.8594 Z " fill="#000000"/><text fill="#000000" font-family="sans-serif" font-size="14" lengthAdjust="spacing" textLength="32" x="46" y="156.4839">Wing</text><line style="stroke:#181818;stroke-width:0.5;" x1="18" x2="80" y1="166" y2="166"/><line style="stroke:#181818;stroke-width:0.5;" x1="18" x2="80" y1="174" y2="174"/></g><!--class Sparrow--><g id="elem_Sparrow"><rect fill="#F1F1F1" height="48" id="Sparrow" rx="2.5" ry="2.5" style="stroke:#181818;stroke-width:0.5;" width="84" x="7" y="261"/><ellipse cx="22" cy="277" fill="#ADD1B2" rx="11" ry="11" style="stroke:#181818;stroke-width:1.0;"/><path d="M21.3438,282.8594 Q19.3594,282.8594 18.1875,281.3906 Q17.0313,279.9063 17.0313,276.8281 Q17.0313,274.2188 18.25,272.4688 Q19.4844,270.7188 21.6094,270.7188 Q22.1094,270.7188 22.6406,270.8594 Q23.0781,271.0469 23.3438,271.0469 Q23.5625,271.0469 23.6563,271 Q23.7656,270.9531 24.2188,270.3594 L24.9844,274.0938 L24.0938,274.3594 Q23.6406,272.9063 23.0313,272.3125 Q22.4375,271.7031 21.4844,271.7031 Q20.2656,271.7031 19.5469,273.1406 Q18.8281,274.5625 18.8281,276.75 Q18.8281,279.1563 19.4375,280.4531 Q20.0625,281.7344 21.4219,281.7344 Q22.375,281.7344 23.0625,281.0469 Q23.75,280.3438 24.0781,278.8438 L24.9844,279.25 Q24.5781,280.9531 23.6094,281.9063 Q22.6563,282.8594 21.3438,282.8594 Z " fill="#000000"/><text fill="#000000" font-family="sans-serif" font-size="14" lengthAdjust="spacing" textLength="52" x="36" y="283.4839">Sparrow</text><line style="stroke:#181818;stroke-width:0.5;" x1="8" x2="90" y1="293" y2="293"/><line style="stroke:#181818;stroke-width:0.5;" x1="8" x2="90" y1="301" y2="301"/></g><!--class Feather--><g id="elem_Feather"><rect fill="#F1F1F1" height="48" id="Feather" rx="2.5" ry="2.5" style="stroke:#181818;stroke-width:0.5;" width="82" x="8" y="7"/><ellipse cx="23" cy="23" fill="#ADD1B2" rx="11" ry="11" style="stroke:#181818;stroke-width:1.0;"/><path d="M22.3438,28.8594 Q20.3594,28.8594 19.1875,27.3906 Q18.0313,25.9063 18.0313,22.8281 Q18.0313,20.2188 19.25,18.4688 Q20.4844,16.7188 22.6094,16.7188 Q23.1094,16.7188 23.6406,16.8594 Q24.0781,17.0469 24.3438,17.0469 Q24.5625,17.0469 24.6563,17 Q24.7656,16.9531 25.2188,16.3594 L25.9844,20.0938 L25.0938,20.3594 Q24.6406,18.9063 24.0313,18.3125 Q23.4375,17.7031 22.4844,17.7031 Q21.2656,17.7031 20.5469,19.1406 Q19.8281,20.5625 19.8281,22.75 Q19.8281,25.1563 20.4375,26.4531 Q21.0625,27.7344 22.4219,27.7344 Q23.375,27.7344 24.0625,27.0469 Q24.75,26.3438 25.0781,24.8438 L25.9844,25.25 Q25.5781,26.9531 24.6094,27.9063 Q23.6563,28.8594 22.3438,28.8594 Z " fill="#000000"/><text fill="#000000" font-family="sans-serif" font-size="14" lengthAdjust="spacing" textLength="50" x="37" y="29.4839">Feather</text><line style="stroke:#181818;stroke-width:0.5;" x1="9" x2="89" y1="39" y2="39"/><line style="stroke:#181818;stroke-width:0.5;" x1="9" x2="89" y1="47" y2="47"/></g><!--reverse link Wing to Sparrow--><g id="link_Wing_Sparrow"><path codeLine="1" d="M49,194.22 C49,216.67 49,238.5 49,260.91 " fill="none" id="Wing-backto-Sparrow" style="stroke:#181818;stroke-width:1.0;"/><polygon fill="#181818" points="49,182.22,45,188.22,49,194.22,53,188.22,49,182.22" style="stroke:#181818;stroke-width:1.0;"/><text fill="#000000" font-family="sans-serif" font-size="13" lengthAdjust="spacing" textLength="60" x="50" y="227.8979">composes</text></g><!--reverse link Feather to Wing--><g id="link_Feather_Wing"><path codeLine="2" d="M49,67.22 C49,89.67 49,111.5 49,133.91 " fill="none" id="Feather-backto-Wing" style="stroke:#181818;stroke-width:1.0;"/><polygon fill="#181818" points="49,55.22,45,61.22,49,67.22,53,61.22,49,55.22" style="stroke:#181818;stroke-width:1.0;"/><text fill="#000000" font-family="sans-serif" font-size="13" lengthAdjust="spacing" textLength="60" x="50" y="100.8979">composes</text></g><!--SRC=[2y_CIrVGqjLL22v8B2hABrUmKaZEpot8Bqujvd9BJIp9I2q2IuU3r27a0000]--></g></svg>