<?xml version="1.0" encoding="us-ascii" standalone="no"?><svg xmlns="http://www.w3.org/2000/svg" xmlns:xlink="http://www.w3.org/1999/xlink" contentStyleType="text/css" height="316px" preserveAspectRatio="none" style="width:124px;height:316px;background:#FFFFFF;" version="1.1" viewBox="0 0 124 316" width="124px" zoomAndPan="magnify"><defs/><g><!--class Tooth--><g id="elem_Tooth"><rect fill="#F1F1F1" height="48" id="Tooth" rx="2.5" ry="2.5" style="stroke:#181818;stroke-width:0.5;" width="69" x="21" y="134"/><ellipse cx="36" cy="150" fill="#ADD1B2" rx="11" ry="11" style="stroke:#181818;stroke-width:1.0;"/><path d="M35.3438,155.8594 Q33.3594,155.8594 32.1875,154.3906 Q31.0313,152.9063 31.0313,149.8281 Q31.0313,147.2188 32.25,145.4688 Q33.4844,143.7188 35.6094,143.7188 Q36.1094,143.7188 36.6406,143.8594 Q37.0781,144.0469 37.3438,144.0469 Q37.5625,144.0469 37.6563,144 Q37.7656,143.9531 38.2188,143.3594 L38.9844,147.0938 L38.0938,147.3594 Q37.6406,145.9063 37.0313,145.3125 Q36.4375,144.7031 35.4844,144.7031 Q34.2656,144.7031 33.5469,146.1406 Q32.8281,147.5625 32.8281,149.75 Q32.8281,152.1563 33.4375,153.4531 Q34.0625,154.7344 35.4219,154.7344 Q36.375,154.7344 37.0625,154.0469 Q37.75,153.3438 38.0781,151.8438 L38.9844,152.25 Q38.5781,153.9531 37.6094,154.9063 Q36.6563,155.8594 35.3438,155.8594 Z " fill="#000000"/><text fill="#000000" font-family="sans-serif" font-size="14" lengthAdjust="spacing" textLength="37" x="50" y="156.4839">Tooth</text><line style="stroke:#181818;stroke-width:0.5;" x1="22" x2="89" y1="166" y2="166"/><line style="stroke:#181818;stroke-width:0.5;" x1="22" x2="89" y1="174" y2="174"/></g><!--class Hedgehog--><g id="elem_Hedgehog"><rect fill="#F1F1F1" height="48" id="Hedgehog" rx="2.5" ry="2.5" style="stroke:#181818;stroke-width:0.5;" width="97" x="7" y="261"/><ellipse cx="22" cy="277" fill="#ADD1B2" rx="11" ry="11" style="stroke:#181818;stroke-width:1.0;"/><path d="M21.3438,282.8594 Q19.3594,282.8594 18.1875,281.3906 Q17.0313,279.9063 17.0313,276.8281 Q17.0313,274.2188 18.25,272.4688 Q19.4844,270.7188 21.6094,270.7188 Q22.1094,270.7188 22.6406,270.8594 Q23.0781,271.0469 23.3438,271.0469 Q23.5625,271.0469 23.6563,271 Q23.7656,270.9531 24.2188,270.3594 L24.9844,274.0938 L24.0938,274.3594 Q23.6406,272.9063 23.0313,272.3125 Q22.4375,271.7031 21.4844,271.7031 Q20.2656,271.7031 19.5469,273.1406 Q18.8281,274.5625 18.8281,276.75 Q18.8281,279.1563 19.4375,280.4531 Q20.0625,281.7344 21.4219,281.7344 Q22.375,281.7344 23.0625,281.0469 Q23.75,280.3438 24.0781,278.8438 L24.9844,279.25 Q24.5781,280.9531 23.6094,281.9063 Q22.6563,282.8594 21.3438,282.8594 Z " fill="#000000"/><text fill="#000000" font-family="sans-serif" font-size="14" lengthAdjust="spacing" textLength="65" x="36" y="283.4839">Hedgehog</text><line style="stroke:#181818;stroke-width:0.5;" x1="8" x2="103" y1="293" y2="293"/><line style="stroke:#181818;stroke-width:0.5;" x1="8" x2="103" y1="301" y2="301"/></g><!--class Root--><g id="elem_Root"><rect fill="#F1F1F1" height="48" id="Root" rx="2.5" ry="2.5" style="stroke:#181818;stroke-width:0.5;" width="62" x="24.5" y="7"/><ellipse cx="39.5" cy="23" fill="#ADD1B2" rx="11" ry="11" style="stroke:#181818;stroke-width:1.0;"/><path d="M38.8438,28.8594 Q36.8594,28.8594 35.6875,27.3906 Q34.5313,25.9063 34.5313,22.8281 Q34.5313,20.2188 35.75,18.4688 Q36.9844,16.7188 39.1094,16.7188 Q39.6094,16.7188 40.1406,16.8594 Q40.5781,17.0469 40.8438,17.0469 Q41.0625,17.0469 41.1563,17 Q41.2656,16.9531 41.7188,16.3594 L42.4844,20.0938 L41.5938,20.3594 Q41.1406,18.9063 40.5313,18.3125 Q39.9375,17.7031 38.9844,17.7031 Q37.7656,17.7031 37.0469,19.1406 Q36.3281,20.5625 36.3281,22.75 Q36.3281,25.1563 36.9375,26.4531 Q37.5625,27.7344 38.9219,27.7344 Q39.875,27.7344 40.5625,27.0469 Q41.25,26.3438 41.5781,24.8438 L42.4844,25.25 Q42.0781,26.9531 41.1094,27.9063 Q40.1563,28.8594 38.8438,28.8594 Z " fill="#000000"/><text fill="#000000" font-family="sans-serif" font-size="14" lengthAdjust="spacing" textLength="30" x="53.5" y="29.4839">Root</text><line style="stroke:#181818;stroke-width:0.5;" x1="25.5" x2="85.5" y1="39" y2="39"/><line style="stroke:#181818;stroke-width:0.5;" x1="25.5" x2="85.5" y1="47" y2="47"/></g><!--reverse link Tooth to Hedgehog--><g id="link_Tooth_Hedgehog"><path codeLine="1" d="M55.5,194.22 C55.5,216.67 55.5,238.5 55.5,260.91 " fill="none" id="Tooth-backto-Hedgehog" style="stroke:#181818;stroke-width:1.0;"/><polygon fill="#181818" points="55.5,182.22,51.5,188.22,55.5,194.22,59.5,188.22,55.5,182.22" style="stroke:#181818;stroke-width:1.0;"/><text fill="#000000" font-family="sans-serif" font-size="13" lengthAdjust="spacing" textLength="60" x="56.5" y="227.8979">composes</text></g><!--reverse link Root to Tooth--><g id="link_Root_Tooth"><path codeLine="2" d="M55.5,67.22 C55.5,89.67 55.5,111.5 55.5,133.91 " fill="none" id="Root-backto-Tooth" style="stroke:#181818;stroke-width:1.0;"/><polygon fill="#181818" points="55.5,55.22,51.5,61.22,55.5,67.22,59.5,61.22,55.5,55.22" style="stroke:#181818;stroke-width:1.0;"/><text fill="#000000" font-family="sans-serif" font-size="13" lengthAdjust="spacing" textLength="60" x="56.5" y="100.8979">composes</text></g><!--SRC=[2ydFBybGqDBLLV18JKbFpSXFLx1IICxFBSWlJYtc2WBAWYL3mCeGCW00]--></g></svg>