<?xml version="1.0" encoding="us-ascii" standalone="no"?><svg xmlns="http://www.w3.org/2000/svg" xmlns:xlink="http://www.w3.org/1999/xlink" contentStyleType="text/css" height="316px" preserveAspectRatio="none" style="width:140px;height:316px;background:#FFFFFF;" version="1.1" viewBox="0 0 140 316" width="140px" zoomAndPan="magnify"><defs/><g><!--class Eye--><g id="elem_Eye"><rect fill="#F1F1F1" height="48" id="Eye" rx="2.5" ry="2.5" style="stroke:#181818;stroke-width:0.5;" width="56" x="42" y="134"/><ellipse cx="57" cy="150" fill="#ADD1B2" rx="11" ry="11" style="stroke:#181818;stroke-width:1.0;"/><path d="M56.3438,155.8594 Q54.3594,155.8594 53.1875,154.3906 Q52.0313,152.9063 52.0313,149.8281 Q52.0313,147.2188 53.25,145.4688 Q54.4844,143.7188 56.6094,143.7188 Q57.1094,143.7188 57.6406,143.8594 Q58.0781,144.0469 58.3438,144.0469 Q58.5625,144.0469 58.6563,144 Q58.7656,143.9531 59.2188,143.3594 L59.9844,147.0938 L59.0938,147.3594 Q58.6406,145.9063 58.0313,145.3125 Q57.4375,144.7031 56.4844,144.7031 Q55.2656,144.7031 54.5469,146.1406 Q53.8281,147.5625 53.8281,149.75 Q53.8281,152.1563 54.4375,153.4531 Q55.0625,154.7344 56.4219,154.7344 Q57.375,154.7344 58.0625,154.0469 Q58.75,153.3438 59.0781,151.8438 L59.9844,152.25 Q59.5781,153.9531 58.6094,154.9063 Q57.6563,155.8594 56.3438,155.8594 Z " fill="#000000"/><text fill="#000000" font-family="sans-serif" font-size="14" lengthAdjust="spacing" textLength="24" x="71" y="156.4839">Eye</text><line style="stroke:#181818;stroke-width:0.5;" x1="43" x2="97" y1="166" y2="166"/><line style="stroke:#181818;stroke-width:0.5;" x1="43" x2="97" y1="174" y2="174"/></g><!--class LeopardGecko--><g id="elem_LeopardGecko"><rect fill="#F1F1F1" height="48" id="LeopardGecko" rx="2.5" ry="2.5" style="stroke:#181818;stroke-width:0.5;" width="126" x="7" y="261"/><ellipse cx="22" cy="277" fill="#ADD1B2" rx="11" ry="11" style="stroke:#181818;stroke-width:1.0;"/><path d="M21.3438,282.8594 Q19.3594,282.8594 18.1875,281.3906 Q17.0313,279.9063 17.0313,276.8281 Q17.0313,274.2188 18.25,272.4688 Q19.4844,270.7188 21.6094,270.7188 Q22.1094,270.7188 22.6406,270.8594 Q23.0781,271.0469 23.3438,271.0469 Q23.5625,271.0469 23.6563,271 Q23.7656,270.9531 24.2188,270.3594 L24.9844,274.0938 L24.0938,274.3594 Q23.6406,272.9063 23.0313,272.3125 Q22.4375,271.7031 21.4844,271.7031 Q20.2656,271.7031 19.5469,273.1406 Q18.8281,274.5625 18.8281,276.75 Q18.8281,279.1563 19.4375,280.4531 Q20.0625,281.7344 21.4219,281.7344 Q22.375,281.7344 23.0625,281.0469 Q23.75,280.3438 24.0781,278.8438 L24.9844,279.25 Q24.5781,280.9531 23.6094,281.9063 Q22.6563,282.8594 21.3438,282.8594 Z " fill="#000000"/><text fill="#000000" font-family="sans-serif" font-size="14" lengthAdjust="spacing" textLength="94" x="36" y="283.4839">LeopardGecko</text><line style="stroke:#181818;stroke-width:0.5;" x1="8" x2="132" y1="293" y2="293"/><line style="stroke:#181818;stroke-width:0.5;" x1="8" x2="132" y1="301" y2="301"/></g><!--class Lens--><g id="elem_Lens"><rect fill="#F1F1F1" height="48" id="Lens" rx="2.5" ry="2.5" style="stroke:#181818;stroke-width:0.5;" width="63" x="38.5" y="7"/><ellipse cx="53.5" cy="23" fill="#ADD1B2" rx="11" ry="11" style="stroke:#181818;stroke-width:1.0;"/><path d="M52.8438,28.8594 Q50.8594,28.8594 49.6875,27.3906 Q48.5313,25.9063 48.5313,22.8281 Q48.5313,20.2188 49.75,18.4688 Q50.9844,16.7188 53.1094,16.7188 Q53.6094,16.7188 54.1406,16.8594 Q54.5781,17.0469 54.8438,17.0469 Q55.0625,17.0469 55.1563,17 Q55.2656,16.9531 55.7188,16.3594 L56.4844,20.0938 L55.5938,20.3594 Q55.1406,18.9063 54.5313,18.3125 Q53.9375,17.7031 52.9844,17.7031 Q51.7656,17.7031 51.0469,19.1406 Q50.3281,20.5625 50.3281,22.75 Q50.3281,25.1563 50.9375,26.4531 Q51.5625,27.7344 52.9219,27.7344 Q53.875,27.7344 54.5625,27.0469 Q55.25,26.3438 55.5781,24.8438 L56.4844,25.25 Q56.0781,26.9531 55.1094,27.9063 Q54.1563,28.8594 52.8438,28.8594 Z " fill="#000000"/><text fill="#000000" font-family="sans-serif" font-size="14" lengthAdjust="spacing" textLength="31" x="67.5" y="29.4839">Lens</text><line style="stroke:#181818;stroke-width:0.5;" x1="39.5" x2="100.5" y1="39" y2="39"/><line style="stroke:#181818;stroke-width:0.5;" x1="39.5" x2="100.5" y1="47" y2="47"/></g><!--reverse link Eye to LeopardGecko--><g id="link_Eye_LeopardGecko"><path codeLine="1" d="M70,194.22 C70,216.67 70,238.5 70,260.91 " fill="none" id="Eye-backto-LeopardGecko" style="stroke:#181818;stroke-width:1.0;"/><polygon fill="#181818" points="70,182.22,66,188.22,70,194.22,74,188.22,70,182.22" style="stroke:#181818;stroke-width:1.0;"/><text fill="#000000" font-family="sans-serif" font-size="13" lengthAdjust="spacing" textLength="60" x="71" y="227.8979">composes</text></g><!--reverse link Lens to Eye--><g id="link_Lens_Eye"><path codeLine="2" d="M70,67.22 C70,89.67 70,111.5 70,133.91 " fill="none" id="Lens-backto-Eye" style="stroke:#181818;stroke-width:1.0;"/><polygon fill="#181818" points="70,55.22,66,61.22,70,67.22,74,61.22,70,55.22" style="stroke:#181818;stroke-width:1.0;"/><text fill="#000000" font-family="sans-serif" font-size="13" lengthAdjust="spacing" textLength="60" x="71" y="100.8979">composes</text></g><!--SRC=[SwrCLT3IrLNmISqlI2nASKzDpivNi598piyjo2zEBURoISqh1Yjm1If4Y0C0]--></g></svg>