<?xml version="1.0" encoding="us-ascii" standalone="no"?><svg xmlns="http://www.w3.org/2000/svg" xmlns:xlink="http://www.w3.org/1999/xlink" contentStyleType="text/css" height="316px" preserveAspectRatio="none" style="width:116px;height:316px;background:#FFFFFF;" version="1.1" viewBox="0 0 116 316" width="116px" zoomAndPan="magnify"><defs/><g><!--class Skin--><g id="elem_Skin"><rect fill="#F1F1F1" height="48" id="Skin" rx="2.5" ry="2.5" style="stroke:#181818;stroke-width:0.5;" width="59" x="17.5" y="134"/><ellipse cx="32.5" cy="150" fill="#ADD1B2" rx="11" ry="11" style="stroke:#181818;stroke-width:1.0;"/><path d="M31.8438,155.8594 Q29.8594,155.8594 28.6875,154.3906 Q27.5313,152.9063 27.5313,149.8281 Q27.5313,147.2188 28.75,145.4688 Q29.9844,143.7188 32.1094,143.7188 Q32.6094,143.7188 33.1406,143.8594 Q33.5781,144.0469 33.8438,144.0469 Q34.0625,144.0469 34.1563,144 Q34.2656,143.9531 34.7188,143.3594 L35.4844,147.0938 L34.5938,147.3594 Q34.1406,145.9063 33.5313,145.3125 Q32.9375,144.7031 31.9844,144.7031 Q30.7656,144.7031 30.0469,146.1406 Q29.3281,147.5625 29.3281,149.75 Q29.3281,152.1563 29.9375,153.4531 Q30.5625,154.7344 31.9219,154.7344 Q32.875,154.7344 33.5625,154.0469 Q34.25,153.3438 34.5781,151.8438 L35.4844,152.25 Q35.0781,153.9531 34.1094,154.9063 Q33.1563,155.8594 31.8438,155.8594 Z " fill="#000000"/><text fill="#000000" font-family="sans-serif" font-size="14" lengthAdjust="spacing" textLength="27" x="46.5" y="156.4839">Skin</text><line style="stroke:#181818;stroke-width:0.5;" x1="18.5" x2="75.5" y1="166" y2="166"/><line style="stroke:#181818;stroke-width:0.5;" x1="18.5" x2="75.5" y1="174" y2="174"/></g><!--class Caiman--><g id="elem_Caiman"><rect fill="#F1F1F1" height="48" id="Caiman" rx="2.5" ry="2.5" style="stroke:#181818;stroke-width:0.5;" width="80" x="7" y="261"/><ellipse cx="22" cy="277" fill="#ADD1B2" rx="11" ry="11" style="stroke:#181818;stroke-width:1.0;"/><path d="M21.3438,282.8594 Q19.3594,282.8594 18.1875,281.3906 Q17.0313,279.9063 17.0313,276.8281 Q17.0313,274.2188 18.25,272.4688 Q19.4844,270.7188 21.6094,270.7188 Q22.1094,270.7188 22.6406,270.8594 Q23.0781,271.0469 23.3438,271.0469 Q23.5625,271.0469 23.6563,271 Q23.7656,270.9531 24.2188,270.3594 L24.9844,274.0938 L24.0938,274.3594 Q23.6406,272.9063 23.0313,272.3125 Q22.4375,271.7031 21.4844,271.7031 Q20.2656,271.7031 19.5469,273.1406 Q18.8281,274.5625 18.8281,276.75 Q18.8281,279.1563 19.4375,280.4531 Q20.0625,281.7344 21.4219,281.7344 Q22.375,281.7344 23.0625,281.0469 Q23.75,280.3438 24.0781,278.8438 L24.9844,279.25 Q24.5781,280.9531 23.6094,281.9063 Q22.6563,282.8594 21.3438,282.8594 Z " fill="#000000"/><text fill="#000000" font-family="sans-serif" font-size="14" lengthAdjust="spacing" textLength="48" x="36" y="283.4839">Caiman</text><line style="stroke:#181818;stroke-width:0.5;" x1="8" x2="86" y1="293" y2="293"/><line style="stroke:#181818;stroke-width:0.5;" x1="8" x2="86" y1="301" y2="301"/></g><!--class Scale--><g id="elem_Scale"><rect fill="#F1F1F1" height="48" id="Scale" rx="2.5" ry="2.5" style="stroke:#181818;stroke-width:0.5;" width="67" x="13.5" y="7"/><ellipse cx="28.5" cy="23" fill="#ADD1B2" rx="11" ry="11" style="stroke:#181818;stroke-width:1.0;"/><path d="M27.8438,28.8594 Q25.8594,28.8594 24.6875,27.3906 Q23.5313,25.9063 23.5313,22.8281 Q23.5313,20.2188 24.75,18.4688 Q25.9844,16.7188 28.1094,16.7188 Q28.6094,16.7188 29.1406,16.8594 Q29.5781,17.0469 29.8438,17.0469 Q30.0625,17.0469 30.1563,17 Q30.2656,16.9531 30.7188,16.3594 L31.4844,20.0938 L30.5938,20.3594 Q30.1406,18.9063 29.5313,18.3125 Q28.9375,17.7031 27.9844,17.7031 Q26.7656,17.7031 26.0469,19.1406 Q25.3281,20.5625 25.3281,22.75 Q25.3281,25.1563 25.9375,26.4531 Q26.5625,27.7344 27.9219,27.7344 Q28.875,27.7344 29.5625,27.0469 Q30.25,26.3438 30.5781,24.8438 L31.4844,25.25 Q31.0781,26.9531 30.1094,27.9063 Q29.1563,28.8594 27.8438,28.8594 Z " fill="#000000"/><text fill="#000000" font-family="sans-serif" font-size="14" lengthAdjust="spacing" textLength="35" x="42.5" y="29.4839">Scale</text><line style="stroke:#181818;stroke-width:0.5;" x1="14.5" x2="79.5" y1="39" y2="39"/><line style="stroke:#181818;stroke-width:0.5;" x1="14.5" x2="79.5" y1="47" y2="47"/></g><!--reverse link Skin to Caiman--><g id="link_Skin_Caiman"><path codeLine="1" d="M47,194.22 C47,216.67 47,238.5 47,260.91 " fill="none" id="Skin-backto-Caiman" style="stroke:#181818;stroke-width:1.0;"/><polygon fill="#181818" points="47,182.22,43,188.22,47,194.22,51,188.22,47,182.22" style="stroke:#181818;stroke-width:1.0;"/><text fill="#000000" font-family="sans-serif" font-size="13" lengthAdjust="spacing" textLength="60" x="48" y="227.8979">composes</text></g><!--reverse link Scale to Skin--><g id="link_Scale_Skin"><path codeLine="2" d="M47,67.22 C47,89.67 47,111.5 47,133.91 " fill="none" id="Scale-backto-Skin" style="stroke:#181818;stroke-width:1.0;"/><polygon fill="#181818" points="47,55.22,43,61.22,47,67.22,51,61.22,47,55.22" style="stroke:#181818;stroke-width:1.0;"/><text fill="#000000" font-family="sans-serif" font-size="13" lengthAdjust="spacing" textLength="60" x="48" y="100.8979">composes</text></g><!--SRC=[2yxEp5FGqjLLS4xCp4tCKx1IICxFBSWlJYtc2avEp4a5omM3525a0000]--></g></svg>