<?xml version="1.0" encoding="us-ascii" standalone="no"?><svg xmlns="http://www.w3.org/2000/svg" xmlns:xlink="http://www.w3.org/1999/xlink" contentStyleType="text/css" height="316px" preserveAspectRatio="none" style="width:194px;height:316px;background:#FFFFFF;" version="1.1" viewBox="0 0 194 316" width="194px" zoomAndPan="magnify"><defs/><g><!--class Skin--><g id="elem_Skin"><rect fill="#F1F1F1" height="48" id="Skin" rx="2.5" ry="2.5" style="stroke:#181818;stroke-width:0.5;" width="59" x="67.5" y="134"/><ellipse cx="82.5" cy="150" fill="#ADD1B2" rx="11" ry="11" style="stroke:#181818;stroke-width:1.0;"/><path d="M81.8438,155.8594 Q79.8594,155.8594 78.6875,154.3906 Q77.5313,152.9063 77.5313,149.8281 Q77.5313,147.2188 78.75,145.4688 Q79.9844,143.7188 82.1094,143.7188 Q82.6094,143.7188 83.1406,143.8594 Q83.5781,144.0469 83.8438,144.0469 Q84.0625,144.0469 84.1563,144 Q84.2656,143.9531 84.7188,143.3594 L85.4844,147.0938 L84.5938,147.3594 Q84.1406,145.9063 83.5313,145.3125 Q82.9375,144.7031 81.9844,144.7031 Q80.7656,144.7031 80.0469,146.1406 Q79.3281,147.5625 79.3281,149.75 Q79.3281,152.1563 79.9375,153.4531 Q80.5625,154.7344 81.9219,154.7344 Q82.875,154.7344 83.5625,154.0469 Q84.25,153.3438 84.5781,151.8438 L85.4844,152.25 Q85.0781,153.9531 84.1094,154.9063 Q83.1563,155.8594 81.8438,155.8594 Z " fill="#000000"/><text fill="#000000" font-family="sans-serif" font-size="14" lengthAdjust="spacing" textLength="27" x="96.5" y="156.4839">Skin</text><line style="stroke:#181818;stroke-width:0.5;" x1="68.5" x2="125.5" y1="166" y2="166"/><line style="stroke:#181818;stroke-width:0.5;" x1="68.5" x2="125.5" y1="174" y2="174"/></g><!--class AlligatorSnappingTurtle--><g id="elem_AlligatorSnappingTurtle"><rect fill="#F1F1F1" height="48" id="AlligatorSnappingTurtle" rx="2.5" ry="2.5" style="stroke:#181818;stroke-width:0.5;" width="180" x="7" y="261"/><ellipse cx="22" cy="277" fill="#ADD1B2" rx="11" ry="11" style="stroke:#181818;stroke-width:1.0;"/><path d="M21.3438,282.8594 Q19.3594,282.8594 18.1875,281.3906 Q17.0313,279.9063 17.0313,276.8281 Q17.0313,274.2188 18.25,272.4688 Q19.4844,270.7188 21.6094,270.7188 Q22.1094,270.7188 22.6406,270.8594 Q23.0781,271.0469 23.3438,271.0469 Q23.5625,271.0469 23.6563,271 Q23.7656,270.9531 24.2188,270.3594 L24.9844,274.0938 L24.0938,274.3594 Q23.6406,272.9063 23.0313,272.3125 Q22.4375,271.7031 21.4844,271.7031 Q20.2656,271.7031 19.5469,273.1406 Q18.8281,274.5625 18.8281,276.75 Q18.8281,279.1563 19.4375,280.4531 Q20.0625,281.7344 21.4219,281.7344 Q22.375,281.7344 23.0625,281.0469 Q23.75,280.3438 24.0781,278.8438 L24.9844,279.25 Q24.5781,280.9531 23.6094,281.9063 Q22.6563,282.8594 21.3438,282.8594 Z " fill="#000000"/><text fill="#000000" font-family="sans-serif" font-size="14" lengthAdjust="spacing" textLength="148" x="36" y="283.4839">AlligatorSnappingTurtle</text><line style="stroke:#181818;stroke-width:0.5;" x1="8" x2="186" y1="293" y2="293"/><line style="stroke:#181818;stroke-width:0.5;" x1="8" x2="186" y1="301" y2="301"/></g><!--class Scale--><g id="elem_Scale"><rect fill="#F1F1F1" height="48" id="Scale" rx="2.5" ry="2.5" style="stroke:#181818;stroke-width:0.5;" width="67" x="63.5" y="7"/><ellipse cx="78.5" cy="23" fill="#ADD1B2" rx="11" ry="11" style="stroke:#181818;stroke-width:1.0;"/><path d="M77.8438,28.8594 Q75.8594,28.8594 74.6875,27.3906 Q73.5313,25.9063 73.5313,22.8281 Q73.5313,20.2188 74.75,18.4688 Q75.9844,16.7188 78.1094,16.7188 Q78.6094,16.7188 79.1406,16.8594 Q79.5781,17.0469 79.8438,17.0469 Q80.0625,17.0469 80.1563,17 Q80.2656,16.9531 80.7188,16.3594 L81.4844,20.0938 L80.5938,20.3594 Q80.1406,18.9063 79.5313,18.3125 Q78.9375,17.7031 77.9844,17.7031 Q76.7656,17.7031 76.0469,19.1406 Q75.3281,20.5625 75.3281,22.75 Q75.3281,25.1563 75.9375,26.4531 Q76.5625,27.7344 77.9219,27.7344 Q78.875,27.7344 79.5625,27.0469 Q80.25,26.3438 80.5781,24.8438 L81.4844,25.25 Q81.0781,26.9531 80.1094,27.9063 Q79.1563,28.8594 77.8438,28.8594 Z " fill="#000000"/><text fill="#000000" font-family="sans-serif" font-size="14" lengthAdjust="spacing" textLength="35" x="92.5" y="29.4839">Scale</text><line style="stroke:#181818;stroke-width:0.5;" x1="64.5" x2="129.5" y1="39" y2="39"/><line style="stroke:#181818;stroke-width:0.5;" x1="64.5" x2="129.5" y1="47" y2="47"/></g><!--reverse link Skin to AlligatorSnappingTurtle--><g id="link_Skin_AlligatorSnappingTurtle"><path codeLine="1" d="M97,194.22 C97,216.67 97,238.5 97,260.91 " fill="none" id="Skin-backto-AlligatorSnappingTurtle" style="stroke:#181818;stroke-width:1.0;"/><polygon fill="#181818" points="97,182.22,93,188.22,97,194.22,101,188.22,97,182.22" style="stroke:#181818;stroke-width:1.0;"/><text fill="#000000" font-family="sans-serif" font-size="13" lengthAdjust="spacing" textLength="60" x="98" y="227.8979">composes</text></g><!--reverse link Scale to Skin--><g id="link_Scale_Skin"><path codeLine="2" d="M97,67.22 C97,89.67 97,111.5 97,133.91 " fill="none" id="Scale-backto-Skin" style="stroke:#181818;stroke-width:1.0;"/><polygon fill="#181818" points="97,55.22,93,61.22,97,67.22,101,61.22,97,55.22" style="stroke:#181818;stroke-width:1.0;"/><text fill="#000000" font-family="sans-serif" font-size="13" lengthAdjust="spacing" textLength="60" x="98" y="100.8979">composes</text></g><!--SRC=[2yxEp5FGqjLLSCp9oKnFBCal2ivBB2Z8p4iFAIqgoKbLi598piyjo2zEBUOAJau42e0K1uDq8MG0]--></g></svg>