<?xml version="1.0" encoding="us-ascii" standalone="no"?><svg xmlns="http://www.w3.org/2000/svg" xmlns:xlink="http://www.w3.org/1999/xlink" contentStyleType="text/css" height="316px" preserveAspectRatio="none" style="width:146px;height:316px;background:#FFFFFF;" version="1.1" viewBox="0 0 146 316" width="146px" zoomAndPan="magnify"><defs/><g><!--class Eye--><g id="elem_Eye"><rect fill="#F1F1F1" height="48" id="Eye" rx="2.5" ry="2.5" style="stroke:#181818;stroke-width:0.5;" width="56" x="45" y="134"/><ellipse cx="60" cy="150" fill="#ADD1B2" rx="11" ry="11" style="stroke:#181818;stroke-width:1.0;"/><path d="M59.3438,155.8594 Q57.3594,155.8594 56.1875,154.3906 Q55.0313,152.9063 55.0313,149.8281 Q55.0313,147.2188 56.25,145.4688 Q57.4844,143.7188 59.6094,143.7188 Q60.1094,143.7188 60.6406,143.8594 Q61.0781,144.0469 61.3438,144.0469 Q61.5625,144.0469 61.6563,144 Q61.7656,143.9531 62.2188,143.3594 L62.9844,147.0938 L62.0938,147.3594 Q61.6406,145.9063 61.0313,145.3125 Q60.4375,144.7031 59.4844,144.7031 Q58.2656,144.7031 57.5469,146.1406 Q56.8281,147.5625 56.8281,149.75 Q56.8281,152.1563 57.4375,153.4531 Q58.0625,154.7344 59.4219,154.7344 Q60.375,154.7344 61.0625,154.0469 Q61.75,153.3438 62.0781,151.8438 L62.9844,152.25 Q62.5781,153.9531 61.6094,154.9063 Q60.6563,155.8594 59.3438,155.8594 Z " fill="#000000"/><text fill="#000000" font-family="sans-serif" font-size="14" lengthAdjust="spacing" textLength="24" x="74" y="156.4839">Eye</text><line style="stroke:#181818;stroke-width:0.5;" x1="46" x2="100" y1="166" y2="166"/><line style="stroke:#181818;stroke-width:0.5;" x1="46" x2="100" y1="174" y2="174"/></g><!--class PoisonDartFrog--><g id="elem_PoisonDartFrog"><rect fill="#F1F1F1" height="48" id="PoisonDartFrog" rx="2.5" ry="2.5" style="stroke:#181818;stroke-width:0.5;" width="132" x="7" y="261"/><ellipse cx="22" cy="277" fill="#ADD1B2" rx="11" ry="11" style="stroke:#181818;stroke-width:1.0;"/><path d="M21.3438,282.8594 Q19.3594,282.8594 18.1875,281.3906 Q17.0313,279.9063 17.0313,276.8281 Q17.0313,274.2188 18.25,272.4688 Q19.4844,270.7188 21.6094,270.7188 Q22.1094,270.7188 22.6406,270.8594 Q23.0781,271.0469 23.3438,271.0469 Q23.5625,271.0469 23.6563,271 Q23.7656,270.9531 24.2188,270.3594 L24.9844,274.0938 L24.0938,274.3594 Q23.6406,272.9063 23.0313,272.3125 Q22.4375,271.7031 21.4844,271.7031 Q20.2656,271.7031 19.5469,273.1406 Q18.8281,274.5625 18.8281,276.75 Q18.8281,279.1563 19.4375,280.4531 Q20.0625,281.7344 21.4219,281.7344 Q22.375,281.7344 23.0625,281.0469 Q23.75,280.3438 24.0781,278.8438 L24.9844,279.25 Q24.5781,280.9531 23.6094,281.9063 Q22.6563,282.8594 21.3438,282.8594 Z " fill="#000000"/><text fill="#000000" font-family="sans-serif" font-size="14" lengthAdjust="spacing" textLength="100" x="36" y="283.4839">PoisonDartFrog</text><line style="stroke:#181818;stroke-width:0.5;" x1="8" x2="138" y1="293" y2="293"/><line style="stroke:#181818;stroke-width:0.5;" x1="8" x2="138" y1="301" y2="301"/></g><!--class Lens--><g id="elem_Lens"><rect fill="#F1F1F1" height="48" id="Lens" rx="2.5" ry="2.5" style="stroke:#181818;stroke-width:0.5;" width="63" x="41.5" y="7"/><ellipse cx="56.5" cy="23" fill="#ADD1B2" rx="11" ry="11" style="stroke:#181818;stroke-width:1.0;"/><path d="M55.8438,28.8594 Q53.8594,28.8594 52.6875,27.3906 Q51.5313,25.9063 51.5313,22.8281 Q51.5313,20.2188 52.75,18.4688 Q53.9844,16.7188 56.1094,16.7188 Q56.6094,16.7188 57.1406,16.8594 Q57.5781,17.0469 57.8438,17.0469 Q58.0625,17.0469 58.1563,17 Q58.2656,16.9531 58.7188,16.3594 L59.4844,20.0938 L58.5938,20.3594 Q58.1406,18.9063 57.5313,18.3125 Q56.9375,17.7031 55.9844,17.7031 Q54.7656,17.7031 54.0469,19.1406 Q53.3281,20.5625 53.3281,22.75 Q53.3281,25.1563 53.9375,26.4531 Q54.5625,27.7344 55.9219,27.7344 Q56.875,27.7344 57.5625,27.0469 Q58.25,26.3438 58.5781,24.8438 L59.4844,25.25 Q59.0781,26.9531 58.1094,27.9063 Q57.1563,28.8594 55.8438,28.8594 Z " fill="#000000"/><text fill="#000000" font-family="sans-serif" font-size="14" lengthAdjust="spacing" textLength="31" x="70.5" y="29.4839">Lens</text><line style="stroke:#181818;stroke-width:0.5;" x1="42.5" x2="103.5" y1="39" y2="39"/><line style="stroke:#181818;stroke-width:0.5;" x1="42.5" x2="103.5" y1="47" y2="47"/></g><!--reverse link Eye to PoisonDartFrog--><g id="link_Eye_PoisonDartFrog"><path codeLine="1" d="M73,194.22 C73,216.67 73,238.5 73,260.91 " fill="none" id="Eye-backto-PoisonDartFrog" style="stroke:#181818;stroke-width:1.0;"/><polygon fill="#181818" points="73,182.22,69,188.22,73,194.22,77,188.22,73,182.22" style="stroke:#181818;stroke-width:1.0;"/><text fill="#000000" font-family="sans-serif" font-size="13" lengthAdjust="spacing" textLength="60" x="74" y="227.8979">composes</text></g><!--reverse link Lens to Eye--><g id="link_Lens_Eye"><path codeLine="2" d="M73,67.22 C73,89.67 73,111.5 73,133.91 " fill="none" id="Lens-backto-Eye" style="stroke:#181818;stroke-width:1.0;"/><polygon fill="#181818" points="73,55.22,69,61.22,73,67.22,77,61.22,73,55.22" style="stroke:#181818;stroke-width:1.0;"/><text fill="#000000" font-family="sans-serif" font-size="13" lengthAdjust="spacing" textLength="60" x="74" y="100.8979">composes</text></g><!--SRC=[SwrCLT3IrLK8oCyipizpIImgSIlAJrUmKaZEpot8Bqujvl99pIi6At45AaM80m00]--></g></svg>