<?xml version="1.0" encoding="us-ascii" standalone="no"?><svg xmlns="http://www.w3.org/2000/svg" xmlns:xlink="http://www.w3.org/1999/xlink" contentStyleType="text/css" height="316px" preserveAspectRatio="none" style="width:179px;height:316px;background:#FFFFFF;" version="1.1" viewBox="0 0 179 316" width="179px" zoomAndPan="magnify"><defs/><g><!--class GeopoliticalEntity--><g id="elem_GeopoliticalEntity"><rect fill="#F1F1F1" height="48" id="GeopoliticalEntity" rx="2.5" ry="2.5" style="stroke:#181818;stroke-width:0.5;" width="141" x="19" y="7"/><ellipse cx="34" cy="23" fill="#ADD1B2" rx="11" ry="11" style="stroke:#181818;stroke-width:1.0;"/><path d="M33.3438,28.8594 Q31.3594,28.8594 30.1875,27.3906 Q29.0313,25.9063 29.0313,22.8281 Q29.0313,20.2188 30.25,18.4688 Q31.4844,16.7188 33.6094,16.7188 Q34.1094,16.7188 34.6406,16.8594 Q35.0781,17.0469 35.3438,17.0469 Q35.5625,17.0469 35.6563,17 Q35.7656,16.9531 36.2188,16.3594 L36.9844,20.0938 L36.0938,20.3594 Q35.6406,18.9063 35.0313,18.3125 Q34.4375,17.7031 33.4844,17.7031 Q32.2656,17.7031 31.5469,19.1406 Q30.8281,20.5625 30.8281,22.75 Q30.8281,25.1563 31.4375,26.4531 Q32.0625,27.7344 33.4219,27.7344 Q34.375,27.7344 35.0625,27.0469 Q35.75,26.3438 36.0781,24.8438 L36.9844,25.25 Q36.5781,26.9531 35.6094,27.9063 Q34.6563,28.8594 33.3438,28.8594 Z " fill="#000000"/><text fill="#000000" font-family="sans-serif" font-size="14" lengthAdjust="spacing" textLength="109" x="48" y="29.4839">GeopoliticalEntity</text><line style="stroke:#181818;stroke-width:0.5;" x1="20" x2="159" y1="39" y2="39"/><line style="stroke:#181818;stroke-width:0.5;" x1="20" x2="159" y1="47" y2="47"/></g><!--class Country--><g id="elem_Country"><rect fill="#F1F1F1" height="48" id="Country" rx="2.5" ry="2.5" style="stroke:#181818;stroke-width:0.5;" width="82" x="48.5" y="134"/><ellipse cx="63.5" cy="150" fill="#ADD1B2" rx="11" ry="11" style="stroke:#181818;stroke-width:1.0;"/><path d="M62.8438,155.8594 Q60.8594,155.8594 59.6875,154.3906 Q58.5313,152.9063 58.5313,149.8281 Q58.5313,147.2188 59.75,145.4688 Q60.9844,143.7188 63.1094,143.7188 Q63.6094,143.7188 64.1406,143.8594 Q64.5781,144.0469 64.8438,144.0469 Q65.0625,144.0469 65.1563,144 Q65.2656,143.9531 65.7188,143.3594 L66.4844,147.0938 L65.5938,147.3594 Q65.1406,145.9063 64.5313,145.3125 Q63.9375,144.7031 62.9844,144.7031 Q61.7656,144.7031 61.0469,146.1406 Q60.3281,147.5625 60.3281,149.75 Q60.3281,152.1563 60.9375,153.4531 Q61.5625,154.7344 62.9219,154.7344 Q63.875,154.7344 64.5625,154.0469 Q65.25,153.3438 65.5781,151.8438 L66.4844,152.25 Q66.0781,153.9531 65.1094,154.9063 Q64.1563,155.8594 62.8438,155.8594 Z " fill="#000000"/><text fill="#000000" font-family="sans-serif" font-size="14" lengthAdjust="spacing" textLength="50" x="77.5" y="156.4839">Country</text><line style="stroke:#181818;stroke-width:0.5;" x1="49.5" x2="129.5" y1="166" y2="166"/><line style="stroke:#181818;stroke-width:0.5;" x1="49.5" x2="129.5" y1="174" y2="174"/></g><!--class IranIslamicRepublicof--><g id="elem_IranIslamicRepublicof"><rect fill="#F1F1F1" height="48" id="IranIslamicRepublicof" rx="2.5" ry="2.5" style="stroke:#181818;stroke-width:0.5;" width="165" x="7" y="261"/><ellipse cx="22" cy="277" fill="#ADD1B2" rx="11" ry="11" style="stroke:#181818;stroke-width:1.0;"/><path d="M21.3438,282.8594 Q19.3594,282.8594 18.1875,281.3906 Q17.0313,279.9063 17.0313,276.8281 Q17.0313,274.2188 18.25,272.4688 Q19.4844,270.7188 21.6094,270.7188 Q22.1094,270.7188 22.6406,270.8594 Q23.0781,271.0469 23.3438,271.0469 Q23.5625,271.0469 23.6563,271 Q23.7656,270.9531 24.2188,270.3594 L24.9844,274.0938 L24.0938,274.3594 Q23.6406,272.9063 23.0313,272.3125 Q22.4375,271.7031 21.4844,271.7031 Q20.2656,271.7031 19.5469,273.1406 Q18.8281,274.5625 18.8281,276.75 Q18.8281,279.1563 19.4375,280.4531 Q20.0625,281.7344 21.4219,281.7344 Q22.375,281.7344 23.0625,281.0469 Q23.75,280.3438 24.0781,278.8438 L24.9844,279.25 Q24.5781,280.9531 23.6094,281.9063 Q22.6563,282.8594 21.3438,282.8594 Z " fill="#000000"/><text fill="#000000" font-family="sans-serif" font-size="14" lengthAdjust="spacing" textLength="133" x="36" y="283.4839">IranIslamicRepublicof</text><line style="stroke:#181818;stroke-width:0.5;" x1="8" x2="171" y1="293" y2="293"/><line style="stroke:#181818;stroke-width:0.5;" x1="8" x2="171" y1="301" y2="301"/></g><!--reverse link GeopoliticalEntity to Country--><g id="link_GeopoliticalEntity_Country"><path codeLine="1" d="M89.5,73.22 C89.5,95.67 89.5,111.5 89.5,133.91 " fill="none" id="GeopoliticalEntity-backto-Country" style="stroke:#181818;stroke-width:1.0;"/><polygon fill="none" points="89.5,55.22,83.5,73.22,95.5,73.22,89.5,55.22" style="stroke:#181818;stroke-width:1.0;"/><text fill="#000000" font-family="sans-serif" font-size="13" lengthAdjust="spacing" textLength="42" x="90.5" y="100.8979">inherits</text></g><!--reverse link Country to IranIslamicRepublicof--><g id="link_Country_IranIslamicRepublicof"><path codeLine="2" d="M89.5,200.22 C89.5,222.67 89.5,238.5 89.5,260.91 " fill="none" id="Country-backto-IranIslamicRepublicof" style="stroke:#181818;stroke-width:1.0;"/><polygon fill="none" points="89.5,182.22,83.5,200.22,95.5,200.22,89.5,182.22" style="stroke:#181818;stroke-width:1.0;"/><text fill="#000000" font-family="sans-serif" font-size="13" lengthAdjust="spacing" textLength="42" x="90.5" y="227.8979">inherits</text></g><!--SRC=[Sq_DByZFoIp9J4xCSSqhoIofLB2fqTLLSCulpIifgbImKiZCoqWjoYmfve89WUKzYnBpF8jp4dCpauDI2qgJSZAJyzEGL0C0]--></g></svg>