<?xml version="1.0" encoding="us-ascii" standalone="no"?><svg xmlns="http://www.w3.org/2000/svg" xmlns:xlink="http://www.w3.org/1999/xlink" contentStyleType="text/css" height="316px" preserveAspectRatio="none" style="width:252px;height:316px;background:#FFFFFF;" version="1.1" viewBox="0 0 252 316" width="252px" zoomAndPan="magnify"><defs/><g><!--class GeopoliticalEntity--><g id="elem_GeopoliticalEntity"><rect fill="#F1F1F1" height="48" id="GeopoliticalEntity" rx="2.5" ry="2.5" style="stroke:#181818;stroke-width:0.5;" width="141" x="55.5" y="7"/><ellipse cx="70.5" cy="23" fill="#ADD1B2" rx="11" ry="11" style="stroke:#181818;stroke-width:1.0;"/><path d="M69.8438,28.8594 Q67.8594,28.8594 66.6875,27.3906 Q65.5313,25.9063 65.5313,22.8281 Q65.5313,20.2188 66.75,18.4688 Q67.9844,16.7188 70.1094,16.7188 Q70.6094,16.7188 71.1406,16.8594 Q71.5781,17.0469 71.8438,17.0469 Q72.0625,17.0469 72.1563,17 Q72.2656,16.9531 72.7188,16.3594 L73.4844,20.0938 L72.5938,20.3594 Q72.1406,18.9063 71.5313,18.3125 Q70.9375,17.7031 69.9844,17.7031 Q68.7656,17.7031 68.0469,19.1406 Q67.3281,20.5625 67.3281,22.75 Q67.3281,25.1563 67.9375,26.4531 Q68.5625,27.7344 69.9219,27.7344 Q70.875,27.7344 71.5625,27.0469 Q72.25,26.3438 72.5781,24.8438 L73.4844,25.25 Q73.0781,26.9531 72.1094,27.9063 Q71.1563,28.8594 69.8438,28.8594 Z " fill="#000000"/><text fill="#000000" font-family="sans-serif" font-size="14" lengthAdjust="spacing" textLength="109" x="84.5" y="29.4839">GeopoliticalEntity</text><line style="stroke:#181818;stroke-width:0.5;" x1="56.5" x2="195.5" y1="39" y2="39"/><line style="stroke:#181818;stroke-width:0.5;" x1="56.5" x2="195.5" y1="47" y2="47"/></g><!--class Country--><g id="elem_Country"><rect fill="#F1F1F1" height="48" id="Country" rx="2.5" ry="2.5" style="stroke:#181818;stroke-width:0.5;" width="82" x="85" y="134"/><ellipse cx="100" cy="150" fill="#ADD1B2" rx="11" ry="11" style="stroke:#181818;stroke-width:1.0;"/><path d="M99.3438,155.8594 Q97.3594,155.8594 96.1875,154.3906 Q95.0313,152.9063 95.0313,149.8281 Q95.0313,147.2188 96.25,145.4688 Q97.4844,143.7188 99.6094,143.7188 Q100.1094,143.7188 100.6406,143.8594 Q101.0781,144.0469 101.3438,144.0469 Q101.5625,144.0469 101.6563,144 Q101.7656,143.9531 102.2188,143.3594 L102.9844,147.0938 L102.0938,147.3594 Q101.6406,145.9063 101.0313,145.3125 Q100.4375,144.7031 99.4844,144.7031 Q98.2656,144.7031 97.5469,146.1406 Q96.8281,147.5625 96.8281,149.75 Q96.8281,152.1563 97.4375,153.4531 Q98.0625,154.7344 99.4219,154.7344 Q100.375,154.7344 101.0625,154.0469 Q101.75,153.3438 102.0781,151.8438 L102.9844,152.25 Q102.5781,153.9531 101.6094,154.9063 Q100.6563,155.8594 99.3438,155.8594 Z " fill="#000000"/><text fill="#000000" font-family="sans-serif" font-size="14" lengthAdjust="spacing" textLength="50" x="114" y="156.4839">Country</text><line style="stroke:#181818;stroke-width:0.5;" x1="86" x2="166" y1="166" y2="166"/><line style="stroke:#181818;stroke-width:0.5;" x1="86" x2="166" y1="174" y2="174"/></g><!--class HeardIslandandMcDonaldIslands--><g id="elem_HeardIslandandMcDonaldIslands"><rect fill="#F1F1F1" height="48" id="HeardIslandandMcDonaldIslands" rx="2.5" ry="2.5" style="stroke:#181818;stroke-width:0.5;" width="238" x="7" y="261"/><ellipse cx="22" cy="277" fill="#ADD1B2" rx="11" ry="11" style="stroke:#181818;stroke-width:1.0;"/><path d="M21.3438,282.8594 Q19.3594,282.8594 18.1875,281.3906 Q17.0313,279.9063 17.0313,276.8281 Q17.0313,274.2188 18.25,272.4688 Q19.4844,270.7188 21.6094,270.7188 Q22.1094,270.7188 22.6406,270.8594 Q23.0781,271.0469 23.3438,271.0469 Q23.5625,271.0469 23.6563,271 Q23.7656,270.9531 24.2188,270.3594 L24.9844,274.0938 L24.0938,274.3594 Q23.6406,272.9063 23.0313,272.3125 Q22.4375,271.7031 21.4844,271.7031 Q20.2656,271.7031 19.5469,273.1406 Q18.8281,274.5625 18.8281,276.75 Q18.8281,279.1563 19.4375,280.4531 Q20.0625,281.7344 21.4219,281.7344 Q22.375,281.7344 23.0625,281.0469 Q23.75,280.3438 24.0781,278.8438 L24.9844,279.25 Q24.5781,280.9531 23.6094,281.9063 Q22.6563,282.8594 21.3438,282.8594 Z " fill="#000000"/><text fill="#000000" font-family="sans-serif" font-size="14" lengthAdjust="spacing" textLength="206" x="36" y="283.4839">HeardIslandandMcDonaldIslands</text><line style="stroke:#181818;stroke-width:0.5;" x1="8" x2="244" y1="293" y2="293"/><line style="stroke:#181818;stroke-width:0.5;" x1="8" x2="244" y1="301" y2="301"/></g><!--reverse link GeopoliticalEntity to Country--><g id="link_GeopoliticalEntity_Country"><path codeLine="1" d="M126,73.22 C126,95.67 126,111.5 126,133.91 " fill="none" id="GeopoliticalEntity-backto-Country" style="stroke:#181818;stroke-width:1.0;"/><polygon fill="none" points="126,55.22,120,73.22,132,73.22,126,55.22" style="stroke:#181818;stroke-width:1.0;"/><text fill="#000000" font-family="sans-serif" font-size="13" lengthAdjust="spacing" textLength="42" x="127" y="100.8979">inherits</text></g><!--reverse link Country to HeardIslandandMcDonaldIslands--><g id="link_Country_HeardIslandandMcDonaldIslands"><path codeLine="2" d="M126,200.22 C126,222.67 126,238.5 126,260.91 " fill="none" id="Country-backto-HeardIslandandMcDonaldIslands" style="stroke:#181818;stroke-width:1.0;"/><polygon fill="none" points="126,182.22,120,200.22,132,200.22,126,182.22" style="stroke:#181818;stroke-width:1.0;"/><text fill="#000000" font-family="sans-serif" font-size="13" lengthAdjust="spacing" textLength="42" x="127" y="227.8979">inherits</text></g><!--SRC=[Sq_DByZFoIp9J4xCSSqhoIofLB2fqTLLSCulpIifgbImKiZCoqWjoYmfve89WUKzKXEBKZoBSnBpKe38DzabFoyn1ofGZAGB0000]--></g></svg>