<?xml version="1.0" encoding="us-ascii" standalone="no"?><svg xmlns="http://www.w3.org/2000/svg" xmlns:xlink="http://www.w3.org/1999/xlink" contentStyleType="text/css" height="316px" preserveAspectRatio="none" style="width:172px;height:316px;background:#FFFFFF;" version="1.1" viewBox="0 0 172 316" width="172px" zoomAndPan="magnify"><defs/><g><!--class GeopoliticalEntity--><g id="elem_GeopoliticalEntity"><rect fill="#F1F1F1" height="48" id="GeopoliticalEntity" rx="2.5" ry="2.5" style="stroke:#181818;stroke-width:0.5;" width="141" x="15.5" y="7"/><ellipse cx="30.5" cy="23" fill="#ADD1B2" rx="11" ry="11" style="stroke:#181818;stroke-width:1.0;"/><path d="M29.8438,28.8594 Q27.8594,28.8594 26.6875,27.3906 Q25.5313,25.9063 25.5313,22.8281 Q25.5313,20.2188 26.75,18.4688 Q27.9844,16.7188 30.1094,16.7188 Q30.6094,16.7188 31.1406,16.8594 Q31.5781,17.0469 31.8438,17.0469 Q32.0625,17.0469 32.1563,17 Q32.2656,16.9531 32.7188,16.3594 L33.4844,20.0938 L32.5938,20.3594 Q32.1406,18.9063 31.5313,18.3125 Q30.9375,17.7031 29.9844,17.7031 Q28.7656,17.7031 28.0469,19.1406 Q27.3281,20.5625 27.3281,22.75 Q27.3281,25.1563 27.9375,26.4531 Q28.5625,27.7344 29.9219,27.7344 Q30.875,27.7344 31.5625,27.0469 Q32.25,26.3438 32.5781,24.8438 L33.4844,25.25 Q33.0781,26.9531 32.1094,27.9063 Q31.1563,28.8594 29.8438,28.8594 Z " fill="#000000"/><text fill="#000000" font-family="sans-serif" font-size="14" lengthAdjust="spacing" textLength="109" x="44.5" y="29.4839">GeopoliticalEntity</text><line style="stroke:#181818;stroke-width:0.5;" x1="16.5" x2="155.5" y1="39" y2="39"/><line style="stroke:#181818;stroke-width:0.5;" x1="16.5" x2="155.5" y1="47" y2="47"/></g><!--class Country--><g id="elem_Country"><rect fill="#F1F1F1" height="48" id="Country" rx="2.5" ry="2.5" style="stroke:#181818;stroke-width:0.5;" width="82" x="45" y="134"/><ellipse cx="60" cy="150" fill="#ADD1B2" rx="11" ry="11" style="stroke:#181818;stroke-width:1.0;"/><path d="M59.3438,155.8594 Q57.3594,155.8594 56.1875,154.3906 Q55.0313,152.9063 55.0313,149.8281 Q55.0313,147.2188 56.25,145.4688 Q57.4844,143.7188 59.6094,143.7188 Q60.1094,143.7188 60.6406,143.8594 Q61.0781,144.0469 61.3438,144.0469 Q61.5625,144.0469 61.6563,144 Q61.7656,143.9531 62.2188,143.3594 L62.9844,147.0938 L62.0938,147.3594 Q61.6406,145.9063 61.0313,145.3125 Q60.4375,144.7031 59.4844,144.7031 Q58.2656,144.7031 57.5469,146.1406 Q56.8281,147.5625 56.8281,149.75 Q56.8281,152.1563 57.4375,153.4531 Q58.0625,154.7344 59.4219,154.7344 Q60.375,154.7344 61.0625,154.0469 Q61.75,153.3438 62.0781,151.8438 L62.9844,152.25 Q62.5781,153.9531 61.6094,154.9063 Q60.6563,155.8594 59.3438,155.8594 Z " fill="#000000"/><text fill="#000000" font-family="sans-serif" font-size="14" lengthAdjust="spacing" textLength="50" x="74" y="156.4839">Country</text><line style="stroke:#181818;stroke-width:0.5;" x1="46" x2="126" y1="166" y2="166"/><line style="stroke:#181818;stroke-width:0.5;" x1="46" x2="126" y1="174" y2="174"/></g><!--class AntiguaandBarbuda--><g id="elem_AntiguaandBarbuda"><rect fill="#F1F1F1" height="48" id="AntiguaandBarbuda" rx="2.5" ry="2.5" style="stroke:#181818;stroke-width:0.5;" width="158" x="7" y="261"/><ellipse cx="22" cy="277" fill="#ADD1B2" rx="11" ry="11" style="stroke:#181818;stroke-width:1.0;"/><path d="M21.3438,282.8594 Q19.3594,282.8594 18.1875,281.3906 Q17.0313,279.9063 17.0313,276.8281 Q17.0313,274.2188 18.25,272.4688 Q19.4844,270.7188 21.6094,270.7188 Q22.1094,270.7188 22.6406,270.8594 Q23.0781,271.0469 23.3438,271.0469 Q23.5625,271.0469 23.6563,271 Q23.7656,270.9531 24.2188,270.3594 L24.9844,274.0938 L24.0938,274.3594 Q23.6406,272.9063 23.0313,272.3125 Q22.4375,271.7031 21.4844,271.7031 Q20.2656,271.7031 19.5469,273.1406 Q18.8281,274.5625 18.8281,276.75 Q18.8281,279.1563 19.4375,280.4531 Q20.0625,281.7344 21.4219,281.7344 Q22.375,281.7344 23.0625,281.0469 Q23.75,280.3438 24.0781,278.8438 L24.9844,279.25 Q24.5781,280.9531 23.6094,281.9063 Q22.6563,282.8594 21.3438,282.8594 Z " fill="#000000"/><text fill="#000000" font-family="sans-serif" font-size="14" lengthAdjust="spacing" textLength="126" x="36" y="283.4839">AntiguaandBarbuda</text><line style="stroke:#181818;stroke-width:0.5;" x1="8" x2="164" y1="293" y2="293"/><line style="stroke:#181818;stroke-width:0.5;" x1="8" x2="164" y1="301" y2="301"/></g><!--reverse link GeopoliticalEntity to Country--><g id="link_GeopoliticalEntity_Country"><path codeLine="1" d="M86,73.22 C86,95.67 86,111.5 86,133.91 " fill="none" id="GeopoliticalEntity-backto-Country" style="stroke:#181818;stroke-width:1.0;"/><polygon fill="none" points="86,55.22,80,73.22,92,73.22,86,55.22" style="stroke:#181818;stroke-width:1.0;"/><text fill="#000000" font-family="sans-serif" font-size="13" lengthAdjust="spacing" textLength="42" x="87" y="100.8979">inherits</text></g><!--reverse link Country to AntiguaandBarbuda--><g id="link_Country_AntiguaandBarbuda"><path codeLine="2" d="M86,200.22 C86,222.67 86,238.5 86,260.91 " fill="none" id="Country-backto-AntiguaandBarbuda" style="stroke:#181818;stroke-width:1.0;"/><polygon fill="none" points="86,182.22,80,200.22,92,200.22,86,182.22" style="stroke:#181818;stroke-width:1.0;"/><text fill="#000000" font-family="sans-serif" font-size="13" lengthAdjust="spacing" textLength="42" x="87" y="227.8979">inherits</text></g><!--SRC=[Sq_DByZFoIp9J4xCSSqhoIofLB2fqTLLSCulpIifgbImKiZCoqWjoYmfve89WUKTWMhJInCJyrAS4ekIIbCIaLG20000]--></g></svg>