<?xml version="1.0" encoding="us-ascii" standalone="no"?><svg xmlns="http://www.w3.org/2000/svg" xmlns:xlink="http://www.w3.org/1999/xlink" contentStyleType="text/css" height="316px" preserveAspectRatio="none" style="width:173px;height:316px;background:#FFFFFF;" version="1.1" viewBox="0 0 173 316" width="173px" zoomAndPan="magnify"><defs/><g><!--class ResponseTeam--><g id="elem_ResponseTeam"><rect fill="#F1F1F1" height="48" id="ResponseTeam" rx="2.5" ry="2.5" style="stroke:#181818;stroke-width:0.5;" width="132" x="20.5" y="134"/><ellipse cx="35.5" cy="150" fill="#ADD1B2" rx="11" ry="11" style="stroke:#181818;stroke-width:1.0;"/><path d="M34.8438,155.8594 Q32.8594,155.8594 31.6875,154.3906 Q30.5313,152.9063 30.5313,149.8281 Q30.5313,147.2188 31.75,145.4688 Q32.9844,143.7188 35.1094,143.7188 Q35.6094,143.7188 36.1406,143.8594 Q36.5781,144.0469 36.8438,144.0469 Q37.0625,144.0469 37.1563,144 Q37.2656,143.9531 37.7188,143.3594 L38.4844,147.0938 L37.5938,147.3594 Q37.1406,145.9063 36.5313,145.3125 Q35.9375,144.7031 34.9844,144.7031 Q33.7656,144.7031 33.0469,146.1406 Q32.3281,147.5625 32.3281,149.75 Q32.3281,152.1563 32.9375,153.4531 Q33.5625,154.7344 34.9219,154.7344 Q35.875,154.7344 36.5625,154.0469 Q37.25,153.3438 37.5781,151.8438 L38.4844,152.25 Q38.0781,153.9531 37.1094,154.9063 Q36.1563,155.8594 34.8438,155.8594 Z " fill="#000000"/><text fill="#000000" font-family="sans-serif" font-size="14" lengthAdjust="spacing" textLength="100" x="49.5" y="156.4839">ResponseTeam</text><line style="stroke:#181818;stroke-width:0.5;" x1="21.5" x2="151.5" y1="166" y2="166"/><line style="stroke:#181818;stroke-width:0.5;" x1="21.5" x2="151.5" y1="174" y2="174"/></g><!--class FieldMedic--><g id="elem_FieldMedic"><rect fill="#F1F1F1" height="48" id="FieldMedic" rx="2.5" ry="2.5" style="stroke:#181818;stroke-width:0.5;" width="100" x="36.5" y="261"/><ellipse cx="51.5" cy="277" fill="#ADD1B2" rx="11" ry="11" style="stroke:#181818;stroke-width:1.0;"/><path d="M50.8438,282.8594 Q48.8594,282.8594 47.6875,281.3906 Q46.5313,279.9063 46.5313,276.8281 Q46.5313,274.2188 47.75,272.4688 Q48.9844,270.7188 51.1094,270.7188 Q51.6094,270.7188 52.1406,270.8594 Q52.5781,271.0469 52.8438,271.0469 Q53.0625,271.0469 53.1563,271 Q53.2656,270.9531 53.7188,270.3594 L54.4844,274.0938 L53.5938,274.3594 Q53.1406,272.9063 52.5313,272.3125 Q51.9375,271.7031 50.9844,271.7031 Q49.7656,271.7031 49.0469,273.1406 Q48.3281,274.5625 48.3281,276.75 Q48.3281,279.1563 48.9375,280.4531 Q49.5625,281.7344 50.9219,281.7344 Q51.875,281.7344 52.5625,281.0469 Q53.25,280.3438 53.5781,278.8438 L54.4844,279.25 Q54.0781,280.9531 53.1094,281.9063 Q52.1563,282.8594 50.8438,282.8594 Z " fill="#000000"/><text fill="#000000" font-family="sans-serif" font-size="14" lengthAdjust="spacing" textLength="68" x="65.5" y="283.4839">FieldMedic</text><line style="stroke:#181818;stroke-width:0.5;" x1="37.5" x2="135.5" y1="293" y2="293"/><line style="stroke:#181818;stroke-width:0.5;" x1="37.5" x2="135.5" y1="301" y2="301"/></g><!--class EmergencyAuthority--><g id="elem_EmergencyAuthority"><rect fill="#F1F1F1" height="48" id="EmergencyAuthority" rx="2.5" ry="2.5" style="stroke:#181818;stroke-width:0.5;" width="159" x="7" y="7"/><ellipse cx="22" cy="23" fill="#ADD1B2" rx="11" ry="11" style="stroke:#181818;stroke-width:1.0;"/><path d="M21.3438,28.8594 Q19.3594,28.8594 18.1875,27.3906 Q17.0313,25.9063 17.0313,22.8281 Q17.0313,20.2188 18.25,18.4688 Q19.4844,16.7188 21.6094,16.7188 Q22.1094,16.7188 22.6406,16.8594 Q23.0781,17.0469 23.3438,17.0469 Q23.5625,17.0469 23.6563,17 Q23.7656,16.9531 24.2188,16.3594 L24.9844,20.0938 L24.0938,20.3594 Q23.6406,18.9063 23.0313,18.3125 Q22.4375,17.7031 21.4844,17.7031 Q20.2656,17.7031 19.5469,19.1406 Q18.8281,20.5625 18.8281,22.75 Q18.8281,25.1563 19.4375,26.4531 Q20.0625,27.7344 21.4219,27.7344 Q22.375,27.7344 23.0625,27.0469 Q23.75,26.3438 24.0781,24.8438 L24.9844,25.25 Q24.5781,26.9531 23.6094,27.9063 Q22.6563,28.8594 21.3438,28.8594 Z " fill="#000000"/><text fill="#000000" font-family="sans-serif" font-size="14" lengthAdjust="spacing" textLength="127" x="36" y="29.4839">EmergencyAuthority</text><line style="stroke:#181818;stroke-width:0.5;" x1="8" x2="165" y1="39" y2="39"/><line style="stroke:#181818;stroke-width:0.5;" x1="8" x2="165" y1="47" y2="47"/></g><!--reverse link ResponseTeam to FieldMedic--><g id="link_ResponseTeam_FieldMedic"><path codeLine="1" d="M86.5,194.22 C86.5,216.67 86.5,238.5 86.5,260.91 " fill="none" id="ResponseTeam-backto-FieldMedic" style="stroke:#181818;stroke-width:1.0;"/><polygon fill="none" points="86.5,182.22,82.5,188.22,86.5,194.22,90.5,188.22,86.5,182.22" style="stroke:#181818;stroke-width:1.0;"/><text fill="#000000" font-family="sans-serif" font-size="13" lengthAdjust="spacing" textLength="64" x="87.5" y="227.8979">aggregates</text></g><!--reverse link EmergencyAuthority to ResponseTeam--><g id="link_EmergencyAuthority_ResponseTeam"><path codeLine="2" d="M86.5,67.22 C86.5,89.67 86.5,111.5 86.5,133.91 " fill="none" id="EmergencyAuthority-backto-ResponseTeam" style="stroke:#181818;stroke-width:1.0;"/><polygon fill="none" points="86.5,55.22,82.5,61.22,86.5,67.22,90.5,61.22,86.5,55.22" style="stroke:#181818;stroke-width:1.0;"/><text fill="#000000" font-family="sans-serif" font-size="13" lengthAdjust="spacing" textLength="64" x="87.5" y="100.8979">aggregates</text></g><!--SRC=[2qejBiZFAquDIKtCLSZNrLLmoqpDIV5DJSbCLh1II4nFBqfDJon9BUPopKqjIa_DIwvqB2t9o2_ABAa4Amz2re-i0G00]--></g></svg>