<?xml version="1.0" encoding="us-ascii" standalone="no"?><svg xmlns="http://www.w3.org/2000/svg" xmlns:xlink="http://www.w3.org/1999/xlink" contentStyleType="text/css" height="316px" preserveAspectRatio="none" style="width:137px;height:316px;background:#FFFFFF;" version="1.1" viewBox="0 0 137 316" width="137px" zoomAndPan="magnify"><defs/><g><!--class FacultyTeam--><g id="elem_FacultyTeam"><rect fill="#F1F1F1" height="48" id="FacultyTeam" rx="2.5" ry="2.5" style="stroke:#181818;stroke-width:0.5;" width="114" x="7" y="134"/><ellipse cx="22" cy="150" fill="#ADD1B2" rx="11" ry="11" style="stroke:#181818;stroke-width:1.0;"/><path d="M21.3438,155.8594 Q19.3594,155.8594 18.1875,154.3906 Q17.0313,152.9063 17.0313,149.8281 Q17.0313,147.2188 18.25,145.4688 Q19.4844,143.7188 21.6094,143.7188 Q22.1094,143.7188 22.6406,143.8594 Q23.0781,144.0469 23.3438,144.0469 Q23.5625,144.0469 23.6563,144 Q23.7656,143.9531 24.2188,143.3594 L24.9844,147.0938 L24.0938,147.3594 Q23.6406,145.9063 23.0313,145.3125 Q22.4375,144.7031 21.4844,144.7031 Q20.2656,144.7031 19.5469,146.1406 Q18.8281,147.5625 18.8281,149.75 Q18.8281,152.1563 19.4375,153.4531 Q20.0625,154.7344 21.4219,154.7344 Q22.375,154.7344 23.0625,154.0469 Q23.75,153.3438 24.0781,151.8438 L24.9844,152.25 Q24.5781,153.9531 23.6094,154.9063 Q22.6563,155.8594 21.3438,155.8594 Z " fill="#000000"/><text fill="#000000" font-family="sans-serif" font-size="14" lengthAdjust="spacing" textLength="82" x="36" y="156.4839">FacultyTeam</text><line style="stroke:#181818;stroke-width:0.5;" x1="8" x2="120" y1="166" y2="166"/><line style="stroke:#181818;stroke-width:0.5;" x1="8" x2="120" y1="174" y2="174"/></g><!--class Professor--><g id="elem_Professor"><rect fill="#F1F1F1" height="48" id="Professor" rx="2.5" ry="2.5" style="stroke:#181818;stroke-width:0.5;" width="93" x="17.5" y="261"/><ellipse cx="32.5" cy="277" fill="#ADD1B2" rx="11" ry="11" style="stroke:#181818;stroke-width:1.0;"/><path d="M31.8438,282.8594 Q29.8594,282.8594 28.6875,281.3906 Q27.5313,279.9063 27.5313,276.8281 Q27.5313,274.2188 28.75,272.4688 Q29.9844,270.7188 32.1094,270.7188 Q32.6094,270.7188 33.1406,270.8594 Q33.5781,271.0469 33.8438,271.0469 Q34.0625,271.0469 34.1563,271 Q34.2656,270.9531 34.7188,270.3594 L35.4844,274.0938 L34.5938,274.3594 Q34.1406,272.9063 33.5313,272.3125 Q32.9375,271.7031 31.9844,271.7031 Q30.7656,271.7031 30.0469,273.1406 Q29.3281,274.5625 29.3281,276.75 Q29.3281,279.1563 29.9375,280.4531 Q30.5625,281.7344 31.9219,281.7344 Q32.875,281.7344 33.5625,281.0469 Q34.25,280.3438 34.5781,278.8438 L35.4844,279.25 Q35.0781,280.9531 34.1094,281.9063 Q33.1563,282.8594 31.8438,282.8594 Z " fill="#000000"/><text fill="#000000" font-family="sans-serif" font-size="14" lengthAdjust="spacing" textLength="61" x="46.5" y="283.4839">Professor</text><line style="stroke:#181818;stroke-width:0.5;" x1="18.5" x2="109.5" y1="293" y2="293"/><line style="stroke:#181818;stroke-width:0.5;" x1="18.5" x2="109.5" y1="301" y2="301"/></g><!--class University--><g id="elem_University"><rect fill="#F1F1F1" height="48" id="University" rx="2.5" ry="2.5" style="stroke:#181818;stroke-width:0.5;" width="93" x="17.5" y="7"/><ellipse cx="32.5" cy="23" fill="#ADD1B2" rx="11" ry="11" style="stroke:#181818;stroke-width:1.0;"/><path d="M31.8438,28.8594 Q29.8594,28.8594 28.6875,27.3906 Q27.5313,25.9063 27.5313,22.8281 Q27.5313,20.2188 28.75,18.4688 Q29.9844,16.7188 32.1094,16.7188 Q32.6094,16.7188 33.1406,16.8594 Q33.5781,17.0469 33.8438,17.0469 Q34.0625,17.0469 34.1563,17 Q34.2656,16.9531 34.7188,16.3594 L35.4844,20.0938 L34.5938,20.3594 Q34.1406,18.9063 33.5313,18.3125 Q32.9375,17.7031 31.9844,17.7031 Q30.7656,17.7031 30.0469,19.1406 Q29.3281,20.5625 29.3281,22.75 Q29.3281,25.1563 29.9375,26.4531 Q30.5625,27.7344 31.9219,27.7344 Q32.875,27.7344 33.5625,27.0469 Q34.25,26.3438 34.5781,24.8438 L35.4844,25.25 Q35.0781,26.9531 34.1094,27.9063 Q33.1563,28.8594 31.8438,28.8594 Z " fill="#000000"/><text fill="#000000" font-family="sans-serif" font-size="14" lengthAdjust="spacing" textLength="61" x="46.5" y="29.4839">University</text><line style="stroke:#181818;stroke-width:0.5;" x1="18.5" x2="109.5" y1="39" y2="39"/><line style="stroke:#181818;stroke-width:0.5;" x1="18.5" x2="109.5" y1="47" y2="47"/></g><!--reverse link FacultyTeam to Professor--><g id="link_FacultyTeam_Professor"><path codeLine="1" d="M64,194.22 C64,216.67 64,238.5 64,260.91 " fill="none" id="FacultyTeam-backto-Professor" style="stroke:#181818;stroke-width:1.0;"/><polygon fill="none" points="64,182.22,60,188.22,64,194.22,68,188.22,64,182.22" style="stroke:#181818;stroke-width:1.0;"/><text fill="#000000" font-family="sans-serif" font-size="13" lengthAdjust="spacing" textLength="64" x="65" y="227.8979">aggregates</text></g><!--reverse link University to FacultyTeam--><g id="link_University_FacultyTeam"><path codeLine="2" d="M64,67.22 C64,89.67 64,111.5 64,133.91 " fill="none" id="University-backto-FacultyTeam" style="stroke:#181818;stroke-width:1.0;"/><polygon fill="none" points="64,55.22,60,61.22,64,67.22,68,61.22,64,55.22" style="stroke:#181818;stroke-width:1.0;"/><text fill="#000000" font-family="sans-serif" font-size="13" lengthAdjust="spacing" textLength="64" x="65" y="100.8979">aggregates</text></g><!--SRC=[SqjCBiqfgGn9JSnLoDVLLGWeoazBBIxEBrAmKaXCJozAJKyiIItc2itBB4ijAiuigGIhSaFIXQmE0000]--></g></svg>