<?xml version="1.0" encoding="us-ascii" standalone="no"?><svg xmlns="http://www.w3.org/2000/svg" xmlns:xlink="http://www.w3.org/1999/xlink" contentStyleType="text/css" height="316px" preserveAspectRatio="none" style="width:208px;height:316px;background:#FFFFFF;" version="1.1" viewBox="0 0 208 316" width="208px" zoomAndPan="magnify"><defs/><g><!--class LogisticsSection--><g id="elem_LogisticsSection"><rect fill="#F1F1F1" height="48" id="LogisticsSection" rx="2.5" ry="2.5" style="stroke:#181818;stroke-width:0.5;" width="134" x="37" y="134"/><ellipse cx="52" cy="150" fill="#ADD1B2" rx="11" ry="11" style="stroke:#181818;stroke-width:1.0;"/><path d="M51.3438,155.8594 Q49.3594,155.8594 48.1875,154.3906 Q47.0313,152.9063 47.0313,149.8281 Q47.0313,147.2188 48.25,145.4688 Q49.4844,143.7188 51.6094,143.7188 Q52.1094,143.7188 52.6406,143.8594 Q53.0781,144.0469 53.3438,144.0469 Q53.5625,144.0469 53.6563,144 Q53.7656,143.9531 54.2188,143.3594 L54.9844,147.0938 L54.0938,147.3594 Q53.6406,145.9063 53.0313,145.3125 Q52.4375,144.7031 51.4844,144.7031 Q50.2656,144.7031 49.5469,146.1406 Q48.8281,147.5625 48.8281,149.75 Q48.8281,152.1563 49.4375,153.4531 Q50.0625,154.7344 51.4219,154.7344 Q52.375,154.7344 53.0625,154.0469 Q53.75,153.3438 54.0781,151.8438 L54.9844,152.25 Q54.5781,153.9531 53.6094,154.9063 Q52.6563,155.8594 51.3438,155.8594 Z " fill="#000000"/><text fill="#000000" font-family="sans-serif" font-size="14" lengthAdjust="spacing" textLength="102" x="66" y="156.4839">LogisticsSection</text><line style="stroke:#181818;stroke-width:0.5;" x1="38" x2="170" y1="166" y2="166"/><line style="stroke:#181818;stroke-width:0.5;" x1="38" x2="170" y1="174" y2="174"/></g><!--class Detective--><g id="elem_Detective"><rect fill="#F1F1F1" height="48" id="Detective" rx="2.5" ry="2.5" style="stroke:#181818;stroke-width:0.5;" width="91" x="58.5" y="261"/><ellipse cx="73.5" cy="277" fill="#ADD1B2" rx="11" ry="11" style="stroke:#181818;stroke-width:1.0;"/><path d="M72.8438,282.8594 Q70.8594,282.8594 69.6875,281.3906 Q68.5313,279.9063 68.5313,276.8281 Q68.5313,274.2188 69.75,272.4688 Q70.9844,270.7188 73.1094,270.7188 Q73.6094,270.7188 74.1406,270.8594 Q74.5781,271.0469 74.8438,271.0469 Q75.0625,271.0469 75.1563,271 Q75.2656,270.9531 75.7188,270.3594 L76.4844,274.0938 L75.5938,274.3594 Q75.1406,272.9063 74.5313,272.3125 Q73.9375,271.7031 72.9844,271.7031 Q71.7656,271.7031 71.0469,273.1406 Q70.3281,274.5625 70.3281,276.75 Q70.3281,279.1563 70.9375,280.4531 Q71.5625,281.7344 72.9219,281.7344 Q73.875,281.7344 74.5625,281.0469 Q75.25,280.3438 75.5781,278.8438 L76.4844,279.25 Q76.0781,280.9531 75.1094,281.9063 Q74.1563,282.8594 72.8438,282.8594 Z " fill="#000000"/><text fill="#000000" font-family="sans-serif" font-size="14" lengthAdjust="spacing" textLength="59" x="87.5" y="283.4839">Detective</text><line style="stroke:#181818;stroke-width:0.5;" x1="59.5" x2="148.5" y1="293" y2="293"/><line style="stroke:#181818;stroke-width:0.5;" x1="59.5" x2="148.5" y1="301" y2="301"/></g><!--class CommunityTechCompany--><g id="elem_CommunityTechCompany"><rect fill="#F1F1F1" height="48" id="CommunityTechCompany" rx="2.5" ry="2.5" style="stroke:#181818;stroke-width:0.5;" width="194" x="7" y="7"/><ellipse cx="22" cy="23" fill="#ADD1B2" rx="11" ry="11" style="stroke:#181818;stroke-width:1.0;"/><path d="M21.3438,28.8594 Q19.3594,28.8594 18.1875,27.3906 Q17.0313,25.9063 17.0313,22.8281 Q17.0313,20.2188 18.25,18.4688 Q19.4844,16.7188 21.6094,16.7188 Q22.1094,16.7188 22.6406,16.8594 Q23.0781,17.0469 23.3438,17.0469 Q23.5625,17.0469 23.6563,17 Q23.7656,16.9531 24.2188,16.3594 L24.9844,20.0938 L24.0938,20.3594 Q23.6406,18.9063 23.0313,18.3125 Q22.4375,17.7031 21.4844,17.7031 Q20.2656,17.7031 19.5469,19.1406 Q18.8281,20.5625 18.8281,22.75 Q18.8281,25.1563 19.4375,26.4531 Q20.0625,27.7344 21.4219,27.7344 Q22.375,27.7344 23.0625,27.0469 Q23.75,26.3438 24.0781,24.8438 L24.9844,25.25 Q24.5781,26.9531 23.6094,27.9063 Q22.6563,28.8594 21.3438,28.8594 Z " fill="#000000"/><text fill="#000000" font-family="sans-serif" font-size="14" lengthAdjust="spacing" textLength="162" x="36" y="29.4839">CommunityTechCompany</text><line style="stroke:#181818;stroke-width:0.5;" x1="8" x2="200" y1="39" y2="39"/><line style="stroke:#181818;stroke-width:0.5;" x1="8" x2="200" y1="47" y2="47"/></g><!--reverse link LogisticsSection to Detective--><g id="link_LogisticsSection_Detective"><path codeLine="1" d="M104,194.22 C104,216.67 104,238.5 104,260.91 " fill="none" id="LogisticsSection-backto-Detective" style="stroke:#181818;stroke-width:1.0;"/><polygon fill="none" points="104,182.22,100,188.22,104,194.22,108,188.22,104,182.22" style="stroke:#181818;stroke-width:1.0;"/><text fill="#000000" font-family="sans-serif" font-size="13" lengthAdjust="spacing" textLength="64" x="105" y="227.8979">aggregates</text></g><!--reverse link CommunityTechCompany to LogisticsSection--><g id="link_CommunityTechCompany_LogisticsSection"><path codeLine="2" d="M104,67.22 C104,89.67 104,111.5 104,133.91 " fill="none" id="CommunityTechCompany-backto-LogisticsSection" style="stroke:#181818;stroke-width:1.0;"/><polygon fill="none" points="104,55.22,100,61.22,104,67.22,108,61.22,104,55.22" style="stroke:#181818;stroke-width:1.0;"/><text fill="#000000" font-family="sans-serif" font-size="13" lengthAdjust="spacing" textLength="64" x="105" y="100.8979">aggregates</text></g><!--SRC=[yybFpomkoKmk3avDBidCprF8rzLLS4aj0V7AKXMi51BJqujIqnDBKekvdFDpSqlpCaigGrAJCu2SWiIyIh1w7tH3aBK10000]--></g></svg>