<?xml version="1.0" encoding="us-ascii" standalone="no"?><svg xmlns="http://www.w3.org/2000/svg" xmlns:xlink="http://www.w3.org/1999/xlink" contentStyleType="text/css" height="316px" preserveAspectRatio="none" style="width:186px;height:316px;background:#FFFFFF;" version="1.1" viewBox="0 0 186 316" width="186px" zoomAndPan="magnify"><defs/><g><!--class FinanceUnit--><g id="elem_FinanceUnit"><rect fill="#F1F1F1" height="48" id="FinanceUnit" rx="2.5" ry="2.5" style="stroke:#181818;stroke-width:0.5;" width="107" x="39.5" y="134"/><ellipse cx="54.5" cy="150" fill="#ADD1B2" rx="11" ry="11" style="stroke:#181818;stroke-width:1.0;"/><path d="M53.8438,155.8594 Q51.8594,155.8594 50.6875,154.3906 Q49.5313,152.9063 49.5313,149.8281 Q49.5313,147.2188 50.75,145.4688 Q51.9844,143.7188 54.1094,143.7188 Q54.6094,143.7188 55.1406,143.8594 Q55.5781,144.0469 55.8438,144.0469 Q56.0625,144.0469 56.1563,144 Q56.2656,143.9531 56.7188,143.3594 L57.4844,147.0938 L56.5938,147.3594 Q56.1406,145.9063 55.5313,145.3125 Q54.9375,144.7031 53.9844,144.7031 Q52.7656,144.7031 52.0469,146.1406 Q51.3281,147.5625 51.3281,149.75 Q51.3281,152.1563 51.9375,153.4531 Q52.5625,154.7344 53.9219,154.7344 Q54.875,154.7344 55.5625,154.0469 Q56.25,153.3438 56.5781,151.8438 L57.4844,152.25 Q57.0781,153.9531 56.1094,154.9063 Q55.1563,155.8594 53.8438,155.8594 Z " fill="#000000"/><text fill="#000000" font-family="sans-serif" font-size="14" lengthAdjust="spacing" textLength="75" x="68.5" y="156.4839">FinanceUnit</text><line style="stroke:#181818;stroke-width:0.5;" x1="40.5" x2="145.5" y1="166" y2="166"/><line style="stroke:#181818;stroke-width:0.5;" x1="40.5" x2="145.5" y1="174" y2="174"/></g><!--class SoundEngineer--><g id="elem_SoundEngineer"><rect fill="#F1F1F1" height="48" id="SoundEngineer" rx="2.5" ry="2.5" style="stroke:#181818;stroke-width:0.5;" width="130" x="28" y="261"/><ellipse cx="43" cy="277" fill="#ADD1B2" rx="11" ry="11" style="stroke:#181818;stroke-width:1.0;"/><path d="M42.3438,282.8594 Q40.3594,282.8594 39.1875,281.3906 Q38.0313,279.9063 38.0313,276.8281 Q38.0313,274.2188 39.25,272.4688 Q40.4844,270.7188 42.6094,270.7188 Q43.1094,270.7188 43.6406,270.8594 Q44.0781,271.0469 44.3438,271.0469 Q44.5625,271.0469 44.6563,271 Q44.7656,270.9531 45.2188,270.3594 L45.9844,274.0938 L45.0938,274.3594 Q44.6406,272.9063 44.0313,272.3125 Q43.4375,271.7031 42.4844,271.7031 Q41.2656,271.7031 40.5469,273.1406 Q39.8281,274.5625 39.8281,276.75 Q39.8281,279.1563 40.4375,280.4531 Q41.0625,281.7344 42.4219,281.7344 Q43.375,281.7344 44.0625,281.0469 Q44.75,280.3438 45.0781,278.8438 L45.9844,279.25 Q45.5781,280.9531 44.6094,281.9063 Q43.6563,282.8594 42.3438,282.8594 Z " fill="#000000"/><text fill="#000000" font-family="sans-serif" font-size="14" lengthAdjust="spacing" textLength="98" x="57" y="283.4839">SoundEngineer</text><line style="stroke:#181818;stroke-width:0.5;" x1="29" x2="157" y1="293" y2="293"/><line style="stroke:#181818;stroke-width:0.5;" x1="29" x2="157" y1="301" y2="301"/></g><!--class MountainPortAuthority--><g id="elem_MountainPortAuthority"><rect fill="#F1F1F1" height="48" id="MountainPortAuthority" rx="2.5" ry="2.5" style="stroke:#181818;stroke-width:0.5;" width="172" x="7" y="7"/><ellipse cx="22" cy="23" fill="#ADD1B2" rx="11" ry="11" style="stroke:#181818;stroke-width:1.0;"/><path d="M21.3438,28.8594 Q19.3594,28.8594 18.1875,27.3906 Q17.0313,25.9063 17.0313,22.8281 Q17.0313,20.2188 18.25,18.4688 Q19.4844,16.7188 21.6094,16.7188 Q22.1094,16.7188 22.6406,16.8594 Q23.0781,17.0469 23.3438,17.0469 Q23.5625,17.0469 23.6563,17 Q23.7656,16.9531 24.2188,16.3594 L24.9844,20.0938 L24.0938,20.3594 Q23.6406,18.9063 23.0313,18.3125 Q22.4375,17.7031 21.4844,17.7031 Q20.2656,17.7031 19.5469,19.1406 Q18.8281,20.5625 18.8281,22.75 Q18.8281,25.1563 19.4375,26.4531 Q20.0625,27.7344 21.4219,27.7344 Q22.375,27.7344 23.0625,27.0469 Q23.75,26.3438 24.0781,24.8438 L24.9844,25.25 Q24.5781,26.9531 23.6094,27.9063 Q22.6563,28.8594 21.3438,28.8594 Z " fill="#000000"/><text fill="#000000" font-family="sans-serif" font-size="14" lengthAdjust="spacing" textLength="140" x="36" y="29.4839">MountainPortAuthority</text><line style="stroke:#181818;stroke-width:0.5;" x1="8" x2="178" y1="39" y2="39"/><line style="stroke:#181818;stroke-width:0.5;" x1="8" x2="178" y1="47" y2="47"/></g><!--reverse link FinanceUnit to SoundEngineer--><g id="link_FinanceUnit_SoundEngineer"><path codeLine="1" d="M93,194.22 C93,216.67 93,238.5 93,260.91 " fill="none" id="FinanceUnit-backto-SoundEngineer" style="stroke:#181818;stroke-width:1.0;"/><polygon fill="none" points="93,182.22,89,188.22,93,194.22,97,188.22,93,182.22" style="stroke:#181818;stroke-width:1.0;"/><text fill="#000000" font-family="sans-serif" font-size="13" lengthAdjust="spacing" textLength="64" x="94" y="227.8979">aggregates</text></g><!--reverse link MountainPortAuthority to FinanceUnit--><g id="link_MountainPortAuthority_FinanceUnit"><path codeLine="2" d="M93,67.22 C93,89.67 93,111.5 93,133.91 " fill="none" id="MountainPortAuthority-backto-FinanceUnit" style="stroke:#181818;stroke-width:1.0;"/><polygon fill="none" points="93,55.22,89,61.22,93,67.22,97,61.22,93,55.22" style="stroke:#181818;stroke-width:1.0;"/><text fill="#000000" font-family="sans-serif" font-size="13" lengthAdjust="spacing" textLength="64" x="94" y="100.8979">aggregates</text></g><!--SRC=[SylCIynBJWtDoonHoDVLLGZEByrBSSrBpynBJIrIi598J4ylIarFB4ajvl85IfKaPkO5v1ULE9QMPEGNPPPKWZMv8Hc2h0K0]--></g></svg>