<?xml version="1.0" encoding="us-ascii" standalone="no"?><svg xmlns="http://www.w3.org/2000/svg" xmlns:xlink="http://www.w3.org/1999/xlink" contentStyleType="text/css" height="316px" preserveAspectRatio="none" style="width:242px;height:316px;background:#FFFFFF;" version="1.1" viewBox="0 0 242 316" width="242px" zoomAndPan="magnify"><defs/><g><!--class DockOpsUnit--><g id="elem_DockOpsUnit"><rect fill="#F1F1F1" height="48" id="DockOpsUnit" rx="2.5" ry="2.5" style="stroke:#181818;stroke-width:0.5;" width="114" x="64" y="134"/><ellipse cx="79" cy="150" fill="#ADD1B2" rx="11" ry="11" style="stroke:#181818;stroke-width:1.0;"/><path d="M78.3438,155.8594 Q76.3594,155.8594 75.1875,154.3906 Q74.0313,152.9063 74.0313,149.8281 Q74.0313,147.2188 75.25,145.4688 Q76.4844,143.7188 78.6094,143.7188 Q79.1094,143.7188 79.6406,143.8594 Q80.0781,144.0469 80.3438,144.0469 Q80.5625,144.0469 80.6563,144 Q80.7656,143.9531 81.2188,143.3594 L81.9844,147.0938 L81.0938,147.3594 Q80.6406,145.9063 80.0313,145.3125 Q79.4375,144.7031 78.4844,144.7031 Q77.2656,144.7031 76.5469,146.1406 Q75.8281,147.5625 75.8281,149.75 Q75.8281,152.1563 76.4375,153.4531 Q77.0625,154.7344 78.4219,154.7344 Q79.375,154.7344 80.0625,154.0469 Q80.75,153.3438 81.0781,151.8438 L81.9844,152.25 Q81.5781,153.9531 80.6094,154.9063 Q79.6563,155.8594 78.3438,155.8594 Z " fill="#000000"/><text fill="#000000" font-family="sans-serif" font-size="14" lengthAdjust="spacing" textLength="82" x="93" y="156.4839">DockOpsUnit</text><line style="stroke:#181818;stroke-width:0.5;" x1="65" x2="177" y1="166" y2="166"/><line style="stroke:#181818;stroke-width:0.5;" x1="65" x2="177" y1="174" y2="174"/></g><!--class CommunityCoordinator--><g id="elem_CommunityCoordinator"><rect fill="#F1F1F1" height="48" id="CommunityCoordinator" rx="2.5" ry="2.5" style="stroke:#181818;stroke-width:0.5;" width="177" x="32.5" y="261"/><ellipse cx="47.5" cy="277" fill="#ADD1B2" rx="11" ry="11" style="stroke:#181818;stroke-width:1.0;"/><path d="M46.8438,282.8594 Q44.8594,282.8594 43.6875,281.3906 Q42.5313,279.9063 42.5313,276.8281 Q42.5313,274.2188 43.75,272.4688 Q44.9844,270.7188 47.1094,270.7188 Q47.6094,270.7188 48.1406,270.8594 Q48.5781,271.0469 48.8438,271.0469 Q49.0625,271.0469 49.1563,271 Q49.2656,270.9531 49.7188,270.3594 L50.4844,274.0938 L49.5938,274.3594 Q49.1406,272.9063 48.5313,272.3125 Q47.9375,271.7031 46.9844,271.7031 Q45.7656,271.7031 45.0469,273.1406 Q44.3281,274.5625 44.3281,276.75 Q44.3281,279.1563 44.9375,280.4531 Q45.5625,281.7344 46.9219,281.7344 Q47.875,281.7344 48.5625,281.0469 Q49.25,280.3438 49.5781,278.8438 L50.4844,279.25 Q50.0781,280.9531 49.1094,281.9063 Q48.1563,282.8594 46.8438,282.8594 Z " fill="#000000"/><text fill="#000000" font-family="sans-serif" font-size="14" lengthAdjust="spacing" textLength="145" x="61.5" y="283.4839">CommunityCoordinator</text><line style="stroke:#181818;stroke-width:0.5;" x1="33.5" x2="208.5" y1="293" y2="293"/><line style="stroke:#181818;stroke-width:0.5;" x1="33.5" x2="208.5" y1="301" y2="301"/></g><!--class WetlandHorticultureAssociation--><g id="elem_WetlandHorticultureAssociation"><rect fill="#F1F1F1" height="48" id="WetlandHorticultureAssociation" rx="2.5" ry="2.5" style="stroke:#181818;stroke-width:0.5;" width="228" x="7" y="7"/><ellipse cx="22" cy="23" fill="#ADD1B2" rx="11" ry="11" style="stroke:#181818;stroke-width:1.0;"/><path d="M21.3438,28.8594 Q19.3594,28.8594 18.1875,27.3906 Q17.0313,25.9063 17.0313,22.8281 Q17.0313,20.2188 18.25,18.4688 Q19.4844,16.7188 21.6094,16.7188 Q22.1094,16.7188 22.6406,16.8594 Q23.0781,17.0469 23.3438,17.0469 Q23.5625,17.0469 23.6563,17 Q23.7656,16.9531 24.2188,16.3594 L24.9844,20.0938 L24.0938,20.3594 Q23.6406,18.9063 23.0313,18.3125 Q22.4375,17.7031 21.4844,17.7031 Q20.2656,17.7031 19.5469,19.1406 Q18.8281,20.5625 18.8281,22.75 Q18.8281,25.1563 19.4375,26.4531 Q20.0625,27.7344 21.4219,27.7344 Q22.375,27.7344 23.0625,27.0469 Q23.75,26.3438 24.0781,24.8438 L24.9844,25.25 Q24.5781,26.9531 23.6094,27.9063 Q22.6563,28.8594 21.3438,28.8594 Z " fill="#000000"/><text fill="#000000" font-family="sans-serif" font-size="14" lengthAdjust="spacing" textLength="196" x="36" y="29.4839">WetlandHorticultureAssociation</text><line style="stroke:#181818;stroke-width:0.5;" x1="8" x2="234" y1="39" y2="39"/><line style="stroke:#181818;stroke-width:0.5;" x1="8" x2="234" y1="47" y2="47"/></g><!--reverse link DockOpsUnit to CommunityCoordinator--><g id="link_DockOpsUnit_CommunityCoordinator"><path codeLine="1" d="M121,194.22 C121,216.67 121,238.5 121,260.91 " fill="none" id="DockOpsUnit-backto-CommunityCoordinator" style="stroke:#181818;stroke-width:1.0;"/><polygon fill="none" points="121,182.22,117,188.22,121,194.22,125,188.22,121,182.22" style="stroke:#181818;stroke-width:1.0;"/><text fill="#000000" font-family="sans-serif" font-size="13" lengthAdjust="spacing" textLength="64" x="122" y="227.8979">aggregates</text></g><!--reverse link WetlandHorticultureAssociation to DockOpsUnit--><g id="link_WetlandHorticultureAssociation_DockOpsUnit"><path codeLine="2" d="M121,67.22 C121,89.67 121,111.5 121,133.91 " fill="none" id="WetlandHorticultureAssociation-backto-DockOpsUnit" style="stroke:#181818;stroke-width:1.0;"/><polygon fill="none" points="121,55.22,117,61.22,121,67.22,125,61.22,121,55.22" style="stroke:#181818;stroke-width:1.0;"/><text fill="#000000" font-family="sans-serif" font-size="13" lengthAdjust="spacing" textLength="64" x="122" y="100.8979">aggregates</text></g><!--SRC=[SybFplOlA0xDoonHoDVLLN3Epyqj1N8gdVFpYr8oyn9ByeiKh1GIqzEBKjCJIrABkS9JIt8Iyr8yyejACfDBSqfAYr8TYulpapCJIpBpyy26k20PYgmN0000]--></g></svg>