<?xml version="1.0" encoding="us-ascii" standalone="no"?><svg xmlns="http://www.w3.org/2000/svg" xmlns:xlink="http://www.w3.org/1999/xlink" contentStyleType="text/css" height="316px" preserveAspectRatio="none" style="width:212px;height:316px;background:#FFFFFF;" version="1.1" viewBox="0 0 212 316" width="212px" zoomAndPan="magnify"><defs/><g><!--class FieldCrew--><g id="elem_FieldCrew"><rect fill="#F1F1F1" height="48" id="FieldCrew" rx="2.5" ry="2.5" style="stroke:#181818;stroke-width:0.5;" width="95" x="58.5" y="134"/><ellipse cx="73.5" cy="150" fill="#ADD1B2" rx="11" ry="11" style="stroke:#181818;stroke-width:1.0;"/><path d="M72.8438,155.8594 Q70.8594,155.8594 69.6875,154.3906 Q68.5313,152.9063 68.5313,149.8281 Q68.5313,147.2188 69.75,145.4688 Q70.9844,143.7188 73.1094,143.7188 Q73.6094,143.7188 74.1406,143.8594 Q74.5781,144.0469 74.8438,144.0469 Q75.0625,144.0469 75.1563,144 Q75.2656,143.9531 75.7188,143.3594 L76.4844,147.0938 L75.5938,147.3594 Q75.1406,145.9063 74.5313,145.3125 Q73.9375,144.7031 72.9844,144.7031 Q71.7656,144.7031 71.0469,146.1406 Q70.3281,147.5625 70.3281,149.75 Q70.3281,152.1563 70.9375,153.4531 Q71.5625,154.7344 72.9219,154.7344 Q73.875,154.7344 74.5625,154.0469 Q75.25,153.3438 75.5781,151.8438 L76.4844,152.25 Q76.0781,153.9531 75.1094,154.9063 Q74.1563,155.8594 72.8438,155.8594 Z " fill="#000000"/><text fill="#000000" font-family="sans-serif" font-size="14" lengthAdjust="spacing" textLength="63" x="87.5" y="156.4839">FieldCrew</text><line style="stroke:#181818;stroke-width:0.5;" x1="59.5" x2="152.5" y1="166" y2="166"/><line style="stroke:#181818;stroke-width:0.5;" x1="59.5" x2="152.5" y1="174" y2="174"/></g><!--class FieldEngineer--><g id="elem_FieldEngineer"><rect fill="#F1F1F1" height="48" id="FieldEngineer" rx="2.5" ry="2.5" style="stroke:#181818;stroke-width:0.5;" width="120" x="46" y="261"/><ellipse cx="61" cy="277" fill="#ADD1B2" rx="11" ry="11" style="stroke:#181818;stroke-width:1.0;"/><path d="M60.3438,282.8594 Q58.3594,282.8594 57.1875,281.3906 Q56.0313,279.9063 56.0313,276.8281 Q56.0313,274.2188 57.25,272.4688 Q58.4844,270.7188 60.6094,270.7188 Q61.1094,270.7188 61.6406,270.8594 Q62.0781,271.0469 62.3438,271.0469 Q62.5625,271.0469 62.6563,271 Q62.7656,270.9531 63.2188,270.3594 L63.9844,274.0938 L63.0938,274.3594 Q62.6406,272.9063 62.0313,272.3125 Q61.4375,271.7031 60.4844,271.7031 Q59.2656,271.7031 58.5469,273.1406 Q57.8281,274.5625 57.8281,276.75 Q57.8281,279.1563 58.4375,280.4531 Q59.0625,281.7344 60.4219,281.7344 Q61.375,281.7344 62.0625,281.0469 Q62.75,280.3438 63.0781,278.8438 L63.9844,279.25 Q63.5781,280.9531 62.6094,281.9063 Q61.6563,282.8594 60.3438,282.8594 Z " fill="#000000"/><text fill="#000000" font-family="sans-serif" font-size="14" lengthAdjust="spacing" textLength="88" x="75" y="283.4839">FieldEngineer</text><line style="stroke:#181818;stroke-width:0.5;" x1="47" x2="165" y1="293" y2="293"/><line style="stroke:#181818;stroke-width:0.5;" x1="47" x2="165" y1="301" y2="301"/></g><!--class AerospaceUniversityOffice--><g id="elem_AerospaceUniversityOffice"><rect fill="#F1F1F1" height="48" id="AerospaceUniversityOffice" rx="2.5" ry="2.5" style="stroke:#181818;stroke-width:0.5;" width="198" x="7" y="7"/><ellipse cx="22" cy="23" fill="#ADD1B2" rx="11" ry="11" style="stroke:#181818;stroke-width:1.0;"/><path d="M21.3438,28.8594 Q19.3594,28.8594 18.1875,27.3906 Q17.0313,25.9063 17.0313,22.8281 Q17.0313,20.2188 18.25,18.4688 Q19.4844,16.7188 21.6094,16.7188 Q22.1094,16.7188 22.6406,16.8594 Q23.0781,17.0469 23.3438,17.0469 Q23.5625,17.0469 23.6563,17 Q23.7656,16.9531 24.2188,16.3594 L24.9844,20.0938 L24.0938,20.3594 Q23.6406,18.9063 23.0313,18.3125 Q22.4375,17.7031 21.4844,17.7031 Q20.2656,17.7031 19.5469,19.1406 Q18.8281,20.5625 18.8281,22.75 Q18.8281,25.1563 19.4375,26.4531 Q20.0625,27.7344 21.4219,27.7344 Q22.375,27.7344 23.0625,27.0469 Q23.75,26.3438 24.0781,24.8438 L24.9844,25.25 Q24.5781,26.9531 23.6094,27.9063 Q22.6563,28.8594 21.3438,28.8594 Z " fill="#000000"/><text fill="#000000" font-family="sans-serif" font-size="14" lengthAdjust="spacing" textLength="166" x="36" y="29.4839">AerospaceUniversityOffice</text><line style="stroke:#181818;stroke-width:0.5;" x1="8" x2="204" y1="39" y2="39"/><line style="stroke:#181818;stroke-width:0.5;" x1="8" x2="204" y1="47" y2="47"/></g><!--reverse link FieldCrew to FieldEngineer--><g id="link_FieldCrew_FieldEngineer"><path codeLine="1" d="M106,194.22 C106,216.67 106,238.5 106,260.91 " fill="none" id="FieldCrew-backto-FieldEngineer" style="stroke:#181818;stroke-width:1.0;"/><polygon fill="none" points="106,182.22,102,188.22,106,194.22,110,188.22,106,182.22" style="stroke:#181818;stroke-width:1.0;"/><text fill="#000000" font-family="sans-serif" font-size="13" lengthAdjust="spacing" textLength="64" x="107" y="227.8979">aggregates</text></g><!--reverse link AerospaceUniversityOffice to FieldCrew--><g id="link_AerospaceUniversityOffice_FieldCrew"><path codeLine="2" d="M106,67.22 C106,89.67 106,111.5 106,133.91 " fill="none" id="AerospaceUniversityOffice-backto-FieldCrew" style="stroke:#181818;stroke-width:1.0;"/><polygon fill="none" points="106,55.22,102,61.22,106,67.22,110,61.22,106,55.22" style="stroke:#181818;stroke-width:1.0;"/><text fill="#000000" font-family="sans-serif" font-size="13" lengthAdjust="spacing" textLength="64" x="107" y="100.8979">aggregates</text></g><!--SRC=[SyjCpKbnBaejLyZNrLLm0_5Syz8pyr9JYnIi51BJqujIqnDBKekv75EByeiB4fDJG_CoorABYZDBAltJqZAJKn4QmSOWQm80]--></g></svg>