<?xml version="1.0" encoding="us-ascii" standalone="no"?><svg xmlns="http://www.w3.org/2000/svg" xmlns:xlink="http://www.w3.org/1999/xlink" contentStyleType="text/css" height="316px" preserveAspectRatio="none" style="width:254px;height:316px;background:#FFFFFF;" version="1.1" viewBox="0 0 254 316" width="254px" zoomAndPan="magnify"><defs/><g><!--class SafetyTeam--><g id="elem_SafetyTeam"><rect fill="#F1F1F1" height="48" id="SafetyTeam" rx="2.5" ry="2.5" style="stroke:#181818;stroke-width:0.5;" width="108" x="73" y="134"/><ellipse cx="88" cy="150" fill="#ADD1B2" rx="11" ry="11" style="stroke:#181818;stroke-width:1.0;"/><path d="M87.3438,155.8594 Q85.3594,155.8594 84.1875,154.3906 Q83.0313,152.9063 83.0313,149.8281 Q83.0313,147.2188 84.25,145.4688 Q85.4844,143.7188 87.6094,143.7188 Q88.1094,143.7188 88.6406,143.8594 Q89.0781,144.0469 89.3438,144.0469 Q89.5625,144.0469 89.6563,144 Q89.7656,143.9531 90.2188,143.3594 L90.9844,147.0938 L90.0938,147.3594 Q89.6406,145.9063 89.0313,145.3125 Q88.4375,144.7031 87.4844,144.7031 Q86.2656,144.7031 85.5469,146.1406 Q84.8281,147.5625 84.8281,149.75 Q84.8281,152.1563 85.4375,153.4531 Q86.0625,154.7344 87.4219,154.7344 Q88.375,154.7344 89.0625,154.0469 Q89.75,153.3438 90.0781,151.8438 L90.9844,152.25 Q90.5781,153.9531 89.6094,154.9063 Q88.6563,155.8594 87.3438,155.8594 Z " fill="#000000"/><text fill="#000000" font-family="sans-serif" font-size="14" lengthAdjust="spacing" textLength="76" x="102" y="156.4839">SafetyTeam</text><line style="stroke:#181818;stroke-width:0.5;" x1="74" x2="180" y1="166" y2="166"/><line style="stroke:#181818;stroke-width:0.5;" x1="74" x2="180" y1="174" y2="174"/></g><!--class SecurityGuard--><g id="elem_SecurityGuard"><rect fill="#F1F1F1" height="48" id="SecurityGuard" rx="2.5" ry="2.5" style="stroke:#181818;stroke-width:0.5;" width="123" x="65.5" y="261"/><ellipse cx="80.5" cy="277" fill="#ADD1B2" rx="11" ry="11" style="stroke:#181818;stroke-width:1.0;"/><path d="M79.8438,282.8594 Q77.8594,282.8594 76.6875,281.3906 Q75.5313,279.9063 75.5313,276.8281 Q75.5313,274.2188 76.75,272.4688 Q77.9844,270.7188 80.1094,270.7188 Q80.6094,270.7188 81.1406,270.8594 Q81.5781,271.0469 81.8438,271.0469 Q82.0625,271.0469 82.1563,271 Q82.2656,270.9531 82.7188,270.3594 L83.4844,274.0938 L82.5938,274.3594 Q82.1406,272.9063 81.5313,272.3125 Q80.9375,271.7031 79.9844,271.7031 Q78.7656,271.7031 78.0469,273.1406 Q77.3281,274.5625 77.3281,276.75 Q77.3281,279.1563 77.9375,280.4531 Q78.5625,281.7344 79.9219,281.7344 Q80.875,281.7344 81.5625,281.0469 Q82.25,280.3438 82.5781,278.8438 L83.4844,279.25 Q83.0781,280.9531 82.1094,281.9063 Q81.1563,282.8594 79.8438,282.8594 Z " fill="#000000"/><text fill="#000000" font-family="sans-serif" font-size="14" lengthAdjust="spacing" textLength="91" x="94.5" y="283.4839">SecurityGuard</text><line style="stroke:#181818;stroke-width:0.5;" x1="66.5" x2="187.5" y1="293" y2="293"/><line style="stroke:#181818;stroke-width:0.5;" x1="66.5" x2="187.5" y1="301" y2="301"/></g><!--class HealthcareConstructionCompany--><g id="elem_HealthcareConstructionCompany"><rect fill="#F1F1F1" height="48" id="HealthcareConstructionCompany" rx="2.5" ry="2.5" style="stroke:#181818;stroke-width:0.5;" width="240" x="7" y="7"/><ellipse cx="22" cy="23" fill="#ADD1B2" rx="11" ry="11" style="stroke:#181818;stroke-width:1.0;"/><path d="M21.3438,28.8594 Q19.3594,28.8594 18.1875,27.3906 Q17.0313,25.9063 17.0313,22.8281 Q17.0313,20.2188 18.25,18.4688 Q19.4844,16.7188 21.6094,16.7188 Q22.1094,16.7188 22.6406,16.8594 Q23.0781,17.0469 23.3438,17.0469 Q23.5625,17.0469 23.6563,17 Q23.7656,16.9531 24.2188,16.3594 L24.9844,20.0938 L24.0938,20.3594 Q23.6406,18.9063 23.0313,18.3125 Q22.4375,17.7031 21.4844,17.7031 Q20.2656,17.7031 19.5469,19.1406 Q18.8281,20.5625 18.8281,22.75 Q18.8281,25.1563 19.4375,26.4531 Q20.0625,27.7344 21.4219,27.7344 Q22.375,27.7344 23.0625,27.0469 Q23.75,26.3438 24.0781,24.8438 L24.9844,25.25 Q24.5781,26.9531 23.6094,27.9063 Q22.6563,28.8594 21.3438,28.8594 Z " fill="#000000"/><text fill="#000000" font-family="sans-serif" font-size="14" lengthAdjust="spacing" textLength="208" x="36" y="29.4839">HealthcareConstructionCompany</text><line style="stroke:#181818;stroke-width:0.5;" x1="8" x2="246" y1="39" y2="39"/><line style="stroke:#181818;stroke-width:0.5;" x1="8" x2="246" y1="47" y2="47"/></g><!--reverse link SafetyTeam to SecurityGuard--><g id="link_SafetyTeam_SecurityGuard"><path codeLine="1" d="M127,194.22 C127,216.67 127,238.5 127,260.91 " fill="none" id="SafetyTeam-backto-SecurityGuard" style="stroke:#181818;stroke-width:1.0;"/><polygon fill="none" points="127,182.22,123,188.22,127,194.22,131,188.22,127,182.22" style="stroke:#181818;stroke-width:1.0;"/><text fill="#000000" font-family="sans-serif" font-size="13" lengthAdjust="spacing" textLength="64" x="128" y="227.8979">aggregates</text></g><!--reverse link HealthcareConstructionCompany to SafetyTeam--><g id="link_HealthcareConstructionCompany_SafetyTeam"><path codeLine="2" d="M127,67.22 C127,89.67 127,111.5 127,133.91 " fill="none" id="HealthcareConstructionCompany-backto-SafetyTeam" style="stroke:#181818;stroke-width:1.0;"/><polygon fill="none" points="127,55.22,123,61.22,127,67.22,131,61.22,127,55.22" style="stroke:#181818;stroke-width:1.0;"/><text fill="#000000" font-family="sans-serif" font-size="13" lengthAdjust="spacing" textLength="64" x="128" y="100.8979">aggregates</text></g><!--SRC=[2qvCIosf34bDp5N8rzLL24vDBYtABAbqBqqiIb6mKaXCJozAJKyiIItcyaXDp2d9I4uiIdNEpoikAIfDBidCptFEpor8pAk4Q4QOXQmJ0000]--></g></svg>