<?xml version="1.0" encoding="us-ascii" standalone="no"?><svg xmlns="http://www.w3.org/2000/svg" xmlns:xlink="http://www.w3.org/1999/xlink" contentStyleType="text/css" height="316px" preserveAspectRatio="none" style="width:186px;height:316px;background:#FFFFFF;" version="1.1" viewBox="0 0 186 316" width="186px" zoomAndPan="magnify"><defs/><g><!--class MentorTeam--><g id="elem_MentorTeam"><rect fill="#F1F1F1" height="48" id="MentorTeam" rx="2.5" ry="2.5" style="stroke:#181818;stroke-width:0.5;" width="112" x="37" y="134"/><ellipse cx="52" cy="150" fill="#ADD1B2" rx="11" ry="11" style="stroke:#181818;stroke-width:1.0;"/><path d="M51.3438,155.8594 Q49.3594,155.8594 48.1875,154.3906 Q47.0313,152.9063 47.0313,149.8281 Q47.0313,147.2188 48.25,145.4688 Q49.4844,143.7188 51.6094,143.7188 Q52.1094,143.7188 52.6406,143.8594 Q53.0781,144.0469 53.3438,144.0469 Q53.5625,144.0469 53.6563,144 Q53.7656,143.9531 54.2188,143.3594 L54.9844,147.0938 L54.0938,147.3594 Q53.6406,145.9063 53.0313,145.3125 Q52.4375,144.7031 51.4844,144.7031 Q50.2656,144.7031 49.5469,146.1406 Q48.8281,147.5625 48.8281,149.75 Q48.8281,152.1563 49.4375,153.4531 Q50.0625,154.7344 51.4219,154.7344 Q52.375,154.7344 53.0625,154.0469 Q53.75,153.3438 54.0781,151.8438 L54.9844,152.25 Q54.5781,153.9531 53.6094,154.9063 Q52.6563,155.8594 51.3438,155.8594 Z " fill="#000000"/><text fill="#000000" font-family="sans-serif" font-size="14" lengthAdjust="spacing" textLength="80" x="66" y="156.4839">MentorTeam</text><line style="stroke:#181818;stroke-width:0.5;" x1="38" x2="148" y1="166" y2="166"/><line style="stroke:#181818;stroke-width:0.5;" x1="38" x2="148" y1="174" y2="174"/></g><!--class DataAnalyst--><g id="elem_DataAnalyst"><rect fill="#F1F1F1" height="48" id="DataAnalyst" rx="2.5" ry="2.5" style="stroke:#181818;stroke-width:0.5;" width="108" x="39" y="261"/><ellipse cx="54" cy="277" fill="#ADD1B2" rx="11" ry="11" style="stroke:#181818;stroke-width:1.0;"/><path d="M53.3438,282.8594 Q51.3594,282.8594 50.1875,281.3906 Q49.0313,279.9063 49.0313,276.8281 Q49.0313,274.2188 50.25,272.4688 Q51.4844,270.7188 53.6094,270.7188 Q54.1094,270.7188 54.6406,270.8594 Q55.0781,271.0469 55.3438,271.0469 Q55.5625,271.0469 55.6563,271 Q55.7656,270.9531 56.2188,270.3594 L56.9844,274.0938 L56.0938,274.3594 Q55.6406,272.9063 55.0313,272.3125 Q54.4375,271.7031 53.4844,271.7031 Q52.2656,271.7031 51.5469,273.1406 Q50.8281,274.5625 50.8281,276.75 Q50.8281,279.1563 51.4375,280.4531 Q52.0625,281.7344 53.4219,281.7344 Q54.375,281.7344 55.0625,281.0469 Q55.75,280.3438 56.0781,278.8438 L56.9844,279.25 Q56.5781,280.9531 55.6094,281.9063 Q54.6563,282.8594 53.3438,282.8594 Z " fill="#000000"/><text fill="#000000" font-family="sans-serif" font-size="14" lengthAdjust="spacing" textLength="76" x="68" y="283.4839">DataAnalyst</text><line style="stroke:#181818;stroke-width:0.5;" x1="40" x2="146" y1="293" y2="293"/><line style="stroke:#181818;stroke-width:0.5;" x1="40" x2="146" y1="301" y2="301"/></g><!--class CoastalTechCompany--><g id="elem_CoastalTechCompany"><rect fill="#F1F1F1" height="48" id="CoastalTechCompany" rx="2.5" ry="2.5" style="stroke:#181818;stroke-width:0.5;" width="172" x="7" y="7"/><ellipse cx="22" cy="23" fill="#ADD1B2" rx="11" ry="11" style="stroke:#181818;stroke-width:1.0;"/><path d="M21.3438,28.8594 Q19.3594,28.8594 18.1875,27.3906 Q17.0313,25.9063 17.0313,22.8281 Q17.0313,20.2188 18.25,18.4688 Q19.4844,16.7188 21.6094,16.7188 Q22.1094,16.7188 22.6406,16.8594 Q23.0781,17.0469 23.3438,17.0469 Q23.5625,17.0469 23.6563,17 Q23.7656,16.9531 24.2188,16.3594 L24.9844,20.0938 L24.0938,20.3594 Q23.6406,18.9063 23.0313,18.3125 Q22.4375,17.7031 21.4844,17.7031 Q20.2656,17.7031 19.5469,19.1406 Q18.8281,20.5625 18.8281,22.75 Q18.8281,25.1563 19.4375,26.4531 Q20.0625,27.7344 21.4219,27.7344 Q22.375,27.7344 23.0625,27.0469 Q23.75,26.3438 24.0781,24.8438 L24.9844,25.25 Q24.5781,26.9531 23.6094,27.9063 Q22.6563,28.8594 21.3438,28.8594 Z " fill="#000000"/><text fill="#000000" font-family="sans-serif" font-size="14" lengthAdjust="spacing" textLength="140" x="36" y="29.4839">CoastalTechCompany</text><line style="stroke:#181818;stroke-width:0.5;" x1="8" x2="178" y1="39" y2="39"/><line style="stroke:#181818;stroke-width:0.5;" x1="8" x2="178" y1="47" y2="47"/></g><!--reverse link MentorTeam to DataAnalyst--><g id="link_MentorTeam_DataAnalyst"><path codeLine="1" d="M93,194.22 C93,216.67 93,238.5 93,260.91 " fill="none" id="MentorTeam-backto-DataAnalyst" style="stroke:#181818;stroke-width:1.0;"/><polygon fill="none" points="93,182.22,89,188.22,93,194.22,97,188.22,93,182.22" style="stroke:#181818;stroke-width:1.0;"/><text fill="#000000" font-family="sans-serif" font-size="13" lengthAdjust="spacing" textLength="64" x="94" y="227.8979">aggregates</text></g><!--reverse link CoastalTechCompany to MentorTeam--><g id="link_CoastalTechCompany_MentorTeam"><path codeLine="2" d="M93,67.22 C93,89.67 93,111.5 93,133.91 " fill="none" id="CoastalTechCompany-backto-MentorTeam" style="stroke:#181818;stroke-width:1.0;"/><polygon fill="none" points="93,55.22,89,61.22,93,67.22,97,61.22,93,55.22" style="stroke:#181818;stroke-width:1.0;"/><text fill="#000000" font-family="sans-serif" font-size="13" lengthAdjust="spacing" textLength="64" x="94" y="100.8979">aggregates</text></g><!--SRC=[yqtDAyal2abDp5N8rzLLS4aiINJCIyofB2vHi598J4ylIarFB4ajvdBEJomkISm9IKtESCxFBKZCgmIhzqLeHrOE0000]--></g></svg>