<?xml version="1.0" encoding="us-ascii" standalone="no"?><svg xmlns="http://www.w3.org/2000/svg" xmlns:xlink="http://www.w3.org/1999/xlink" contentStyleType="text/css" height="316px" preserveAspectRatio="none" style="width:221px;height:316px;background:#FFFFFF;" version="1.1" viewBox="0 0 221 316" width="221px" zoomAndPan="magnify"><defs/><g><!--class SecurityTeam--><g id="elem_SecurityTeam"><rect fill="#F1F1F1" height="48" id="SecurityTeam" rx="2.5" ry="2.5" style="stroke:#181818;stroke-width:0.5;" width="119" x="51" y="134"/><ellipse cx="66" cy="150" fill="#ADD1B2" rx="11" ry="11" style="stroke:#181818;stroke-width:1.0;"/><path d="M65.3438,155.8594 Q63.3594,155.8594 62.1875,154.3906 Q61.0313,152.9063 61.0313,149.8281 Q61.0313,147.2188 62.25,145.4688 Q63.4844,143.7188 65.6094,143.7188 Q66.1094,143.7188 66.6406,143.8594 Q67.0781,144.0469 67.3438,144.0469 Q67.5625,144.0469 67.6563,144 Q67.7656,143.9531 68.2188,143.3594 L68.9844,147.0938 L68.0938,147.3594 Q67.6406,145.9063 67.0313,145.3125 Q66.4375,144.7031 65.4844,144.7031 Q64.2656,144.7031 63.5469,146.1406 Q62.8281,147.5625 62.8281,149.75 Q62.8281,152.1563 63.4375,153.4531 Q64.0625,154.7344 65.4219,154.7344 Q66.375,154.7344 67.0625,154.0469 Q67.75,153.3438 68.0781,151.8438 L68.9844,152.25 Q68.5781,153.9531 67.6094,154.9063 Q66.6563,155.8594 65.3438,155.8594 Z " fill="#000000"/><text fill="#000000" font-family="sans-serif" font-size="14" lengthAdjust="spacing" textLength="87" x="80" y="156.4839">SecurityTeam</text><line style="stroke:#181818;stroke-width:0.5;" x1="52" x2="169" y1="166" y2="166"/><line style="stroke:#181818;stroke-width:0.5;" x1="52" x2="169" y1="174" y2="174"/></g><!--class SecurityGuard--><g id="elem_SecurityGuard"><rect fill="#F1F1F1" height="48" id="SecurityGuard" rx="2.5" ry="2.5" style="stroke:#181818;stroke-width:0.5;" width="123" x="49" y="261"/><ellipse cx="64" cy="277" fill="#ADD1B2" rx="11" ry="11" style="stroke:#181818;stroke-width:1.0;"/><path d="M63.3438,282.8594 Q61.3594,282.8594 60.1875,281.3906 Q59.0313,279.9063 59.0313,276.8281 Q59.0313,274.2188 60.25,272.4688 Q61.4844,270.7188 63.6094,270.7188 Q64.1094,270.7188 64.6406,270.8594 Q65.0781,271.0469 65.3438,271.0469 Q65.5625,271.0469 65.6563,271 Q65.7656,270.9531 66.2188,270.3594 L66.9844,274.0938 L66.0938,274.3594 Q65.6406,272.9063 65.0313,272.3125 Q64.4375,271.7031 63.4844,271.7031 Q62.2656,271.7031 61.5469,273.1406 Q60.8281,274.5625 60.8281,276.75 Q60.8281,279.1563 61.4375,280.4531 Q62.0625,281.7344 63.4219,281.7344 Q64.375,281.7344 65.0625,281.0469 Q65.75,280.3438 66.0781,278.8438 L66.9844,279.25 Q66.5781,280.9531 65.6094,281.9063 Q64.6563,282.8594 63.3438,282.8594 Z " fill="#000000"/><text fill="#000000" font-family="sans-serif" font-size="14" lengthAdjust="spacing" textLength="91" x="78" y="283.4839">SecurityGuard</text><line style="stroke:#181818;stroke-width:0.5;" x1="50" x2="171" y1="293" y2="293"/><line style="stroke:#181818;stroke-width:0.5;" x1="50" x2="171" y1="301" y2="301"/></g><!--class InfrastructureDesignAgency--><g id="elem_InfrastructureDesignAgency"><rect fill="#F1F1F1" height="48" id="InfrastructureDesignAgency" rx="2.5" ry="2.5" style="stroke:#181818;stroke-width:0.5;" width="207" x="7" y="7"/><ellipse cx="22" cy="23" fill="#ADD1B2" rx="11" ry="11" style="stroke:#181818;stroke-width:1.0;"/><path d="M21.3438,28.8594 Q19.3594,28.8594 18.1875,27.3906 Q17.0313,25.9063 17.0313,22.8281 Q17.0313,20.2188 18.25,18.4688 Q19.4844,16.7188 21.6094,16.7188 Q22.1094,16.7188 22.6406,16.8594 Q23.0781,17.0469 23.3438,17.0469 Q23.5625,17.0469 23.6563,17 Q23.7656,16.9531 24.2188,16.3594 L24.9844,20.0938 L24.0938,20.3594 Q23.6406,18.9063 23.0313,18.3125 Q22.4375,17.7031 21.4844,17.7031 Q20.2656,17.7031 19.5469,19.1406 Q18.8281,20.5625 18.8281,22.75 Q18.8281,25.1563 19.4375,26.4531 Q20.0625,27.7344 21.4219,27.7344 Q22.375,27.7344 23.0625,27.0469 Q23.75,26.3438 24.0781,24.8438 L24.9844,25.25 Q24.5781,26.9531 23.6094,27.9063 Q22.6563,28.8594 21.3438,28.8594 Z " fill="#000000"/><text fill="#000000" font-family="sans-serif" font-size="14" lengthAdjust="spacing" textLength="175" x="36" y="29.4839">InfrastructureDesignAgency</text><line style="stroke:#181818;stroke-width:0.5;" x1="8" x2="213" y1="39" y2="39"/><line style="stroke:#181818;stroke-width:0.5;" x1="8" x2="213" y1="47" y2="47"/></g><!--reverse link SecurityTeam to SecurityGuard--><g id="link_SecurityTeam_SecurityGuard"><path codeLine="1" d="M110.5,194.22 C110.5,216.67 110.5,238.5 110.5,260.91 " fill="none" id="SecurityTeam-backto-SecurityGuard" style="stroke:#181818;stroke-width:1.0;"/><polygon fill="none" points="110.5,182.22,106.5,188.22,110.5,194.22,114.5,188.22,110.5,182.22" style="stroke:#181818;stroke-width:1.0;"/><text fill="#000000" font-family="sans-serif" font-size="13" lengthAdjust="spacing" textLength="64" x="111.5" y="227.8979">aggregates</text></g><!--reverse link InfrastructureDesignAgency to SecurityTeam--><g id="link_InfrastructureDesignAgency_SecurityTeam"><path codeLine="2" d="M110.5,67.22 C110.5,89.67 110.5,111.5 110.5,133.91 " fill="none" id="InfrastructureDesignAgency-backto-SecurityTeam" style="stroke:#181818;stroke-width:1.0;"/><polygon fill="none" points="110.5,55.22,106.5,61.22,110.5,67.22,114.5,61.22,110.5,55.22" style="stroke:#181818;stroke-width:1.0;"/><text fill="#000000" font-family="sans-serif" font-size="13" lengthAdjust="spacing" textLength="64" x="111.5" y="100.8979">aggregates</text></g><!--SRC=[2qvDBYtABAaCIKtCLSZNrLK8XWguboOMfIXOAIIcfnUbfYUMf1PpUUQb5IKMbnIL9fUK5gMwf1PdfkSvfgVc9LUYw0GRXQmH0000]--></g></svg>