<?xml version="1.0" encoding="us-ascii" standalone="no"?><svg xmlns="http://www.w3.org/2000/svg" xmlns:xlink="http://www.w3.org/1999/xlink" contentStyleType="text/css" height="316px" preserveAspectRatio="none" style="width:134px;height:316px;background:#FFFFFF;" version="1.1" viewBox="0 0 134 316" width="134px" zoomAndPan="magnify"><defs/><g><!--class SledTeam--><g id="elem_SledTeam"><rect fill="#F1F1F1" height="48" id="SledTeam" rx="2.5" ry="2.5" style="stroke:#181818;stroke-width:0.5;" width="96" x="13.5" y="134"/><ellipse cx="28.5" cy="150" fill="#ADD1B2" rx="11" ry="11" style="stroke:#181818;stroke-width:1.0;"/><path d="M27.8438,155.8594 Q25.8594,155.8594 24.6875,154.3906 Q23.5313,152.9063 23.5313,149.8281 Q23.5313,147.2188 24.75,145.4688 Q25.9844,143.7188 28.1094,143.7188 Q28.6094,143.7188 29.1406,143.8594 Q29.5781,144.0469 29.8438,144.0469 Q30.0625,144.0469 30.1563,144 Q30.2656,143.9531 30.7188,143.3594 L31.4844,147.0938 L30.5938,147.3594 Q30.1406,145.9063 29.5313,145.3125 Q28.9375,144.7031 27.9844,144.7031 Q26.7656,144.7031 26.0469,146.1406 Q25.3281,147.5625 25.3281,149.75 Q25.3281,152.1563 25.9375,153.4531 Q26.5625,154.7344 27.9219,154.7344 Q28.875,154.7344 29.5625,154.0469 Q30.25,153.3438 30.5781,151.8438 L31.4844,152.25 Q31.0781,153.9531 30.1094,154.9063 Q29.1563,155.8594 27.8438,155.8594 Z " fill="#000000"/><text fill="#000000" font-family="sans-serif" font-size="14" lengthAdjust="spacing" textLength="64" x="42.5" y="156.4839">SledTeam</text><line style="stroke:#181818;stroke-width:0.5;" x1="14.5" x2="108.5" y1="166" y2="166"/><line style="stroke:#181818;stroke-width:0.5;" x1="14.5" x2="108.5" y1="174" y2="174"/></g><!--class SledDog--><g id="elem_SledDog"><rect fill="#F1F1F1" height="48" id="SledDog" rx="2.5" ry="2.5" style="stroke:#181818;stroke-width:0.5;" width="86" x="18.5" y="261"/><ellipse cx="33.5" cy="277" fill="#ADD1B2" rx="11" ry="11" style="stroke:#181818;stroke-width:1.0;"/><path d="M32.8438,282.8594 Q30.8594,282.8594 29.6875,281.3906 Q28.5313,279.9063 28.5313,276.8281 Q28.5313,274.2188 29.75,272.4688 Q30.9844,270.7188 33.1094,270.7188 Q33.6094,270.7188 34.1406,270.8594 Q34.5781,271.0469 34.8438,271.0469 Q35.0625,271.0469 35.1563,271 Q35.2656,270.9531 35.7188,270.3594 L36.4844,274.0938 L35.5938,274.3594 Q35.1406,272.9063 34.5313,272.3125 Q33.9375,271.7031 32.9844,271.7031 Q31.7656,271.7031 31.0469,273.1406 Q30.3281,274.5625 30.3281,276.75 Q30.3281,279.1563 30.9375,280.4531 Q31.5625,281.7344 32.9219,281.7344 Q33.875,281.7344 34.5625,281.0469 Q35.25,280.3438 35.5781,278.8438 L36.4844,279.25 Q36.0781,280.9531 35.1094,281.9063 Q34.1563,282.8594 32.8438,282.8594 Z " fill="#000000"/><text fill="#000000" font-family="sans-serif" font-size="14" lengthAdjust="spacing" textLength="54" x="47.5" y="283.4839">SledDog</text><line style="stroke:#181818;stroke-width:0.5;" x1="19.5" x2="103.5" y1="293" y2="293"/><line style="stroke:#181818;stroke-width:0.5;" x1="19.5" x2="103.5" y1="301" y2="301"/></g><!--class PolarStation--><g id="elem_PolarStation"><rect fill="#F1F1F1" height="48" id="PolarStation" rx="2.5" ry="2.5" style="stroke:#181818;stroke-width:0.5;" width="109" x="7" y="7"/><ellipse cx="22" cy="23" fill="#ADD1B2" rx="11" ry="11" style="stroke:#181818;stroke-width:1.0;"/><path d="M21.3438,28.8594 Q19.3594,28.8594 18.1875,27.3906 Q17.0313,25.9063 17.0313,22.8281 Q17.0313,20.2188 18.25,18.4688 Q19.4844,16.7188 21.6094,16.7188 Q22.1094,16.7188 22.6406,16.8594 Q23.0781,17.0469 23.3438,17.0469 Q23.5625,17.0469 23.6563,17 Q23.7656,16.9531 24.2188,16.3594 L24.9844,20.0938 L24.0938,20.3594 Q23.6406,18.9063 23.0313,18.3125 Q22.4375,17.7031 21.4844,17.7031 Q20.2656,17.7031 19.5469,19.1406 Q18.8281,20.5625 18.8281,22.75 Q18.8281,25.1563 19.4375,26.4531 Q20.0625,27.7344 21.4219,27.7344 Q22.375,27.7344 23.0625,27.0469 Q23.75,26.3438 24.0781,24.8438 L24.9844,25.25 Q24.5781,26.9531 23.6094,27.9063 Q22.6563,28.8594 21.3438,28.8594 Z " fill="#000000"/><text fill="#000000" font-family="sans-serif" font-size="14" lengthAdjust="spacing" textLength="77" x="36" y="29.4839">PolarStation</text><line style="stroke:#181818;stroke-width:0.5;" x1="8" x2="115" y1="39" y2="39"/><line style="stroke:#181818;stroke-width:0.5;" x1="8" x2="115" y1="47" y2="47"/></g><!--reverse link SledTeam to SledDog--><g id="link_SledTeam_SledDog"><path codeLine="1" d="M61.5,194.22 C61.5,216.67 61.5,238.5 61.5,260.91 " fill="none" id="SledTeam-backto-SledDog" style="stroke:#181818;stroke-width:1.0;"/><polygon fill="none" points="61.5,182.22,57.5,188.22,61.5,194.22,65.5,188.22,61.5,182.22" style="stroke:#181818;stroke-width:1.0;"/><text fill="#000000" font-family="sans-serif" font-size="13" lengthAdjust="spacing" textLength="64" x="62.5" y="227.8979">aggregates</text></g><!--reverse link PolarStation to SledTeam--><g id="link_PolarStation_SledTeam"><path codeLine="2" d="M61.5,67.22 C61.5,89.67 61.5,111.5 61.5,133.91 " fill="none" id="PolarStation-backto-SledTeam" style="stroke:#181818;stroke-width:1.0;"/><polygon fill="none" points="61.5,55.22,57.5,61.22,61.5,67.22,65.5,61.22,61.5,55.22" style="stroke:#181818;stroke-width:1.0;"/><text fill="#000000" font-family="sans-serif" font-size="13" lengthAdjust="spacing" textLength="64" x="62.5" y="100.8979">aggregates</text></g><!--SRC=[2yv9JGb9JSnLoDVLLGW6SbpoqnMi51BJqujIqnDBKekv0l9p4ek2In9BClFpuAh0Mf2L0G00]--></g></svg>