<?xml version="1.0" encoding="us-ascii" standalone="no"?><svg xmlns="http://www.w3.org/2000/svg" xmlns:xlink="http://www.w3.org/1999/xlink" contentStyleType="text/css" height="316px" preserveAspectRatio="none" style="width:134px;height:316px;background:#FFFFFF;" version="1.1" viewBox="0 0 134 316" width="134px" zoomAndPan="magnify"><defs/><g><!--class Customer--><g id="elem_Customer"><rect fill="#F1F1F1" height="48" id="Customer" rx="2.5" ry="2.5" style="stroke:#181818;stroke-width:0.5;" width="93" x="11.5" y="134"/><ellipse cx="26.5" cy="150" fill="#ADD1B2" rx="11" ry="11" style="stroke:#181818;stroke-width:1.0;"/><path d="M25.8438,155.8594 Q23.8594,155.8594 22.6875,154.3906 Q21.5313,152.9063 21.5313,149.8281 Q21.5313,147.2188 22.75,145.4688 Q23.9844,143.7188 26.1094,143.7188 Q26.6094,143.7188 27.1406,143.8594 Q27.5781,144.0469 27.8438,144.0469 Q28.0625,144.0469 28.1563,144 Q28.2656,143.9531 28.7188,143.3594 L29.4844,147.0938 L28.5938,147.3594 Q28.1406,145.9063 27.5313,145.3125 Q26.9375,144.7031 25.9844,144.7031 Q24.7656,144.7031 24.0469,146.1406 Q23.3281,147.5625 23.3281,149.75 Q23.3281,152.1563 23.9375,153.4531 Q24.5625,154.7344 25.9219,154.7344 Q26.875,154.7344 27.5625,154.0469 Q28.25,153.3438 28.5781,151.8438 L29.4844,152.25 Q29.0781,153.9531 28.1094,154.9063 Q27.1563,155.8594 25.8438,155.8594 Z " fill="#000000"/><text fill="#000000" font-family="sans-serif" font-size="14" lengthAdjust="spacing" textLength="61" x="40.5" y="156.4839">Customer</text><line style="stroke:#181818;stroke-width:0.5;" x1="12.5" x2="103.5" y1="166" y2="166"/><line style="stroke:#181818;stroke-width:0.5;" x1="12.5" x2="103.5" y1="174" y2="174"/></g><!--class Meal--><g id="elem_Meal"><rect fill="#F1F1F1" height="48" id="Meal" rx="2.5" ry="2.5" style="stroke:#181818;stroke-width:0.5;" width="62" x="27" y="261"/><ellipse cx="42" cy="277" fill="#ADD1B2" rx="11" ry="11" style="stroke:#181818;stroke-width:1.0;"/><path d="M41.3438,282.8594 Q39.3594,282.8594 38.1875,281.3906 Q37.0313,279.9063 37.0313,276.8281 Q37.0313,274.2188 38.25,272.4688 Q39.4844,270.7188 41.6094,270.7188 Q42.1094,270.7188 42.6406,270.8594 Q43.0781,271.0469 43.3438,271.0469 Q43.5625,271.0469 43.6563,271 Q43.7656,270.9531 44.2188,270.3594 L44.9844,274.0938 L44.0938,274.3594 Q43.6406,272.9063 43.0313,272.3125 Q42.4375,271.7031 41.4844,271.7031 Q40.2656,271.7031 39.5469,273.1406 Q38.8281,274.5625 38.8281,276.75 Q38.8281,279.1563 39.4375,280.4531 Q40.0625,281.7344 41.4219,281.7344 Q42.375,281.7344 43.0625,281.0469 Q43.75,280.3438 44.0781,278.8438 L44.9844,279.25 Q44.5781,280.9531 43.6094,281.9063 Q42.6563,282.8594 41.3438,282.8594 Z " fill="#000000"/><text fill="#000000" font-family="sans-serif" font-size="14" lengthAdjust="spacing" textLength="30" x="56" y="283.4839">Meal</text><line style="stroke:#181818;stroke-width:0.5;" x1="28" x2="88" y1="293" y2="293"/><line style="stroke:#181818;stroke-width:0.5;" x1="28" x2="88" y1="301" y2="301"/></g><!--class Restaurant--><g id="elem_Restaurant"><rect fill="#F1F1F1" height="48" id="Restaurant" rx="2.5" ry="2.5" style="stroke:#181818;stroke-width:0.5;" width="102" x="7" y="7"/><ellipse cx="22" cy="23" fill="#ADD1B2" rx="11" ry="11" style="stroke:#181818;stroke-width:1.0;"/><path d="M21.3438,28.8594 Q19.3594,28.8594 18.1875,27.3906 Q17.0313,25.9063 17.0313,22.8281 Q17.0313,20.2188 18.25,18.4688 Q19.4844,16.7188 21.6094,16.7188 Q22.1094,16.7188 22.6406,16.8594 Q23.0781,17.0469 23.3438,17.0469 Q23.5625,17.0469 23.6563,17 Q23.7656,16.9531 24.2188,16.3594 L24.9844,20.0938 L24.0938,20.3594 Q23.6406,18.9063 23.0313,18.3125 Q22.4375,17.7031 21.4844,17.7031 Q20.2656,17.7031 19.5469,19.1406 Q18.8281,20.5625 18.8281,22.75 Q18.8281,25.1563 19.4375,26.4531 Q20.0625,27.7344 21.4219,27.7344 Q22.375,27.7344 23.0625,27.0469 Q23.75,26.3438 24.0781,24.8438 L24.9844,25.25 Q24.5781,26.9531 23.6094,27.9063 Q22.6563,28.8594 21.3438,28.8594 Z " fill="#000000"/><text fill="#000000" font-family="sans-serif" font-size="14" lengthAdjust="spacing" textLength="70" x="36" y="29.4839">Restaurant</text><line style="stroke:#181818;stroke-width:0.5;" x1="8" x2="108" y1="39" y2="39"/><line style="stroke:#181818;stroke-width:0.5;" x1="8" x2="108" y1="47" y2="47"/></g><!--link Customer to Meal--><g id="link_Customer_Meal"><path codeLine="1" d="M58,182.22 C58,204.67 58,232.5 58,254.91 " fill="none" id="Customer-to-Meal" style="stroke:#181818;stroke-width:1.0;stroke-dasharray:7.0,7.0;"/><polygon fill="#181818" points="58,260.91,62,251.91,58,255.91,54,251.91,58,260.91" style="stroke:#181818;stroke-width:1.0;"/><text fill="#000000" font-family="sans-serif" font-size="13" lengthAdjust="spacing" textLength="67" x="59" y="227.8979">depends on</text></g><!--link Restaurant to Customer--><g id="link_Restaurant_Customer"><path codeLine="2" d="M58,55.22 C58,77.67 58,105.5 58,127.91 " fill="none" id="Restaurant-to-Customer" style="stroke:#181818;stroke-width:1.0;stroke-dasharray:7.0,7.0;"/><polygon fill="#181818" points="58,133.91,62,124.91,58,128.91,54,124.91,58,133.91" style="stroke:#181818;stroke-width:1.0;"/><text fill="#000000" font-family="sans-serif" font-size="13" lengthAdjust="spacing" textLength="67" x="59" y="100.8979">depends on</text></g><!--SRC=[SoujBidFJIrIqDEpK_1DJSnHi598IIr8pKifLiZFumfABIv9B2rAp2i1At26gKPM1000]--></g></svg>