<?xml version="1.0" encoding="us-ascii" standalone="no"?><svg xmlns="http://www.w3.org/2000/svg" xmlns:xlink="http://www.w3.org/1999/xlink" contentStyleType="text/css" height="189px" preserveAspectRatio="none" style="width:247px;height:189px;background:#FFFFFF;" version="1.1" viewBox="0 0 247 189" width="247px" zoomAndPan="magnify"><defs/><g><!--class LaoPeoplesDemocraticRepublic--><g id="elem_LaoPeoplesDemocraticRepublic"><rect fill="#F1F1F1" height="48" id="LaoPeoplesDemocraticRepublic" rx="2.5" ry="2.5" style="stroke:#181818;stroke-width:0.5;" width="233" x="7" y="7"/><ellipse cx="22" cy="23" fill="#ADD1B2" rx="11" ry="11" style="stroke:#181818;stroke-width:1.0;"/><path d="M21.3438,28.8594 Q19.3594,28.8594 18.1875,27.3906 Q17.0313,25.9063 17.0313,22.8281 Q17.0313,20.2188 18.25,18.4688 Q19.4844,16.7188 21.6094,16.7188 Q22.1094,16.7188 22.6406,16.8594 Q23.0781,17.0469 23.3438,17.0469 Q23.5625,17.0469 23.6563,17 Q23.7656,16.9531 24.2188,16.3594 L24.9844,20.0938 L24.0938,20.3594 Q23.6406,18.9063 23.0313,18.3125 Q22.4375,17.7031 21.4844,17.7031 Q20.2656,17.7031 19.5469,19.1406 Q18.8281,20.5625 18.8281,22.75 Q18.8281,25.1563 19.4375,26.4531 Q20.0625,27.7344 21.4219,27.7344 Q22.375,27.7344 23.0625,27.0469 Q23.75,26.3438 24.0781,24.8438 L24.9844,25.25 Q24.5781,26.9531 23.6094,27.9063 Q22.6563,28.8594 21.3438,28.8594 Z " fill="#000000"/><text fill="#000000" font-family="sans-serif" font-size="14" lengthAdjust="spacing" textLength="201" x="36" y="29.4839">LaoPeoplesDemocraticRepublic</text><line style="stroke:#181818;stroke-width:0.5;" x1="8" x2="239" y1="39" y2="39"/><line style="stroke:#181818;stroke-width:0.5;" x1="8" x2="239" y1="47" y2="47"/></g><!--class Country--><g id="elem_Country"><rect fill="#F1F1F1" height="48" id="Country" rx="2.5" ry="2.5" style="stroke:#181818;stroke-width:0.5;" width="82" x="82.5" y="134"/><ellipse cx="97.5" cy="150" fill="#ADD1B2" rx="11" ry="11" style="stroke:#181818;stroke-width:1.0;"/><path d="M96.8438,155.8594 Q94.8594,155.8594 93.6875,154.3906 Q92.5313,152.9063 92.5313,149.8281 Q92.5313,147.2188 93.75,145.4688 Q94.9844,143.7188 97.1094,143.7188 Q97.6094,143.7188 98.1406,143.8594 Q98.5781,144.0469 98.8438,144.0469 Q99.0625,144.0469 99.1563,144 Q99.2656,143.9531 99.7188,143.3594 L100.4844,147.0938 L99.5938,147.3594 Q99.1406,145.9063 98.5313,145.3125 Q97.9375,144.7031 96.9844,144.7031 Q95.7656,144.7031 95.0469,146.1406 Q94.3281,147.5625 94.3281,149.75 Q94.3281,152.1563 94.9375,153.4531 Q95.5625,154.7344 96.9219,154.7344 Q97.875,154.7344 98.5625,154.0469 Q99.25,153.3438 99.5781,151.8438 L100.4844,152.25 Q100.0781,153.9531 99.1094,154.9063 Q98.1563,155.8594 96.8438,155.8594 Z " fill="#000000"/><text fill="#000000" font-family="sans-serif" font-size="14" lengthAdjust="spacing" textLength="50" x="111.5" y="156.4839">Country</text><line style="stroke:#181818;stroke-width:0.5;" x1="83.5" x2="163.5" y1="166" y2="166"/><line style="stroke:#181818;stroke-width:0.5;" x1="83.5" x2="163.5" y1="174" y2="174"/></g><!--reverse link LaoPeoplesDemocraticRepublic to Country--><g id="link_LaoPeoplesDemocraticRepublic_Country"><path codeLine="1" d="M123.5,73.22 C123.5,95.67 123.5,111.5 123.5,133.91 " fill="none" id="LaoPeoplesDemocraticRepublic-backto-Country" style="stroke:#181818;stroke-width:1.0;"/><polygon fill="none" points="123.5,55.22,117.5,73.22,129.5,73.22,123.5,55.22" style="stroke:#181818;stroke-width:1.0;"/><text fill="#000000" font-family="sans-serif" font-size="13" lengthAdjust="spacing" textLength="42" x="124.5" y="100.8979">inherits</text></g><!--SRC=[yqdC3qZDByX9BNP9pSrFBaeioKmEIYqeJSh9J5QmgT7LLN3EByqhAQfKi5B8pCj8BSeiAGO0]--></g></svg>