<?xml version="1.0" encoding="us-ascii" standalone="no"?><svg xmlns="http://www.w3.org/2000/svg" xmlns:xlink="http://www.w3.org/1999/xlink" contentStyleType="text/css" height="189px" preserveAspectRatio="none" style="width:188px;height:189px;background:#FFFFFF;" version="1.1" viewBox="0 0 188 189" width="188px" zoomAndPan="magnify"><defs/><g><!--class StellenboschUniversity--><g id="elem_StellenboschUniversity"><rect fill="#F1F1F1" height="48" id="StellenboschUniversity" rx="2.5" ry="2.5" style="stroke:#181818;stroke-width:0.5;" width="174" x="7" y="7"/><ellipse cx="22" cy="23" fill="#ADD1B2" rx="11" ry="11" style="stroke:#181818;stroke-width:1.0;"/><path d="M21.3438,28.8594 Q19.3594,28.8594 18.1875,27.3906 Q17.0313,25.9063 17.0313,22.8281 Q17.0313,20.2188 18.25,18.4688 Q19.4844,16.7188 21.6094,16.7188 Q22.1094,16.7188 22.6406,16.8594 Q23.0781,17.0469 23.3438,17.0469 Q23.5625,17.0469 23.6563,17 Q23.7656,16.9531 24.2188,16.3594 L24.9844,20.0938 L24.0938,20.3594 Q23.6406,18.9063 23.0313,18.3125 Q22.4375,17.7031 21.4844,17.7031 Q20.2656,17.7031 19.5469,19.1406 Q18.8281,20.5625 18.8281,22.75 Q18.8281,25.1563 19.4375,26.4531 Q20.0625,27.7344 21.4219,27.7344 Q22.375,27.7344 23.0625,27.0469 Q23.75,26.3438 24.0781,24.8438 L24.9844,25.25 Q24.5781,26.9531 23.6094,27.9063 Q22.6563,28.8594 21.3438,28.8594 Z " fill="#000000"/><text fill="#000000" font-family="sans-serif" font-size="14" lengthAdjust="spacing" textLength="142" x="36" y="29.4839">StellenboschUniversity</text><line style="stroke:#181818;stroke-width:0.5;" x1="8" x2="180" y1="39" y2="39"/><line style="stroke:#181818;stroke-width:0.5;" x1="8" x2="180" y1="47" y2="47"/></g><!--class University--><g id="elem_University"><rect fill="#F1F1F1" height="48" id="University" rx="2.5" ry="2.5" style="stroke:#181818;stroke-width:0.5;" width="93" x="47.5" y="134"/><ellipse cx="62.5" cy="150" fill="#ADD1B2" rx="11" ry="11" style="stroke:#181818;stroke-width:1.0;"/><path d="M61.8438,155.8594 Q59.8594,155.8594 58.6875,154.3906 Q57.5313,152.9063 57.5313,149.8281 Q57.5313,147.2188 58.75,145.4688 Q59.9844,143.7188 62.1094,143.7188 Q62.6094,143.7188 63.1406,143.8594 Q63.5781,144.0469 63.8438,144.0469 Q64.0625,144.0469 64.1563,144 Q64.2656,143.9531 64.7188,143.3594 L65.4844,147.0938 L64.5938,147.3594 Q64.1406,145.9063 63.5313,145.3125 Q62.9375,144.7031 61.9844,144.7031 Q60.7656,144.7031 60.0469,146.1406 Q59.3281,147.5625 59.3281,149.75 Q59.3281,152.1563 59.9375,153.4531 Q60.5625,154.7344 61.9219,154.7344 Q62.875,154.7344 63.5625,154.0469 Q64.25,153.3438 64.5781,151.8438 L65.4844,152.25 Q65.0781,153.9531 64.1094,154.9063 Q63.1563,155.8594 61.8438,155.8594 Z " fill="#000000"/><text fill="#000000" font-family="sans-serif" font-size="14" lengthAdjust="spacing" textLength="61" x="76.5" y="156.4839">University</text><line style="stroke:#181818;stroke-width:0.5;" x1="48.5" x2="139.5" y1="166" y2="166"/><line style="stroke:#181818;stroke-width:0.5;" x1="48.5" x2="139.5" y1="174" y2="174"/></g><!--reverse link StellenboschUniversity to University--><g id="link_StellenboschUniversity_University"><path codeLine="1" d="M94,73.22 C94,95.67 94,111.5 94,133.91 " fill="none" id="StellenboschUniversity-backto-University" style="stroke:#181818;stroke-width:1.0;"/><polygon fill="none" points="94,55.22,88,73.22,100,73.22,94,55.22" style="stroke:#181818;stroke-width:1.0;"/><text fill="#000000" font-family="sans-serif" font-size="13" lengthAdjust="spacing" textLength="42" x="95" y="100.8979">inherits</text></g><!--SRC=[2ov9pSb9pKlABqxE2CtBB4ijAiuigLImgT7LLK3YMobavcMa5cMM50C0]--></g></svg>