<?xml version="1.0" encoding="us-ascii" standalone="no"?><svg xmlns="http://www.w3.org/2000/svg" xmlns:xlink="http://www.w3.org/1999/xlink" contentStyleType="text/css" height="316px" preserveAspectRatio="none" style="width:300px;height:316px;background:#FFFFFF;" version="1.1" viewBox="0 0 300 316" width="300px" zoomAndPan="magnify"><defs/><g><!--class AGHUniversityOfScienceAndTechnology--><g id="elem_AGHUniversityOfScienceAndTechnology"><rect fill="#F1F1F1" height="48" id="AGHUniversityOfScienceAndTechnology" rx="2.5" ry="2.5" style="stroke:#181818;stroke-width:0.5;" width="286" x="7" y="7"/><ellipse cx="22" cy="23" fill="#ADD1B2" rx="11" ry="11" style="stroke:#181818;stroke-width:1.0;"/><path d="M21.3438,28.8594 Q19.3594,28.8594 18.1875,27.3906 Q17.0313,25.9063 17.0313,22.8281 Q17.0313,20.2188 18.25,18.4688 Q19.4844,16.7188 21.6094,16.7188 Q22.1094,16.7188 22.6406,16.8594 Q23.0781,17.0469 23.3438,17.0469 Q23.5625,17.0469 23.6563,17 Q23.7656,16.9531 24.2188,16.3594 L24.9844,20.0938 L24.0938,20.3594 Q23.6406,18.9063 23.0313,18.3125 Q22.4375,17.7031 21.4844,17.7031 Q20.2656,17.7031 19.5469,19.1406 Q18.8281,20.5625 18.8281,22.75 Q18.8281,25.1563 19.4375,26.4531 Q20.0625,27.7344 21.4219,27.7344 Q22.375,27.7344 23.0625,27.0469 Q23.75,26.3438 24.0781,24.8438 L24.9844,25.25 Q24.5781,26.9531 23.6094,27.9063 Q22.6563,28.8594 21.3438,28.8594 Z " fill="#000000"/><text fill="#000000" font-family="sans-serif" font-size="14" lengthAdjust="spacing" textLength="254" x="36" y="29.4839">AGHUniversityOfScienceAndTechnology</text><line style="stroke:#181818;stroke-width:0.5;" x1="8" x2="292" y1="39" y2="39"/><line style="stroke:#181818;stroke-width:0.5;" x1="8" x2="292" y1="47" y2="47"/></g><!--class University--><g id="elem_University"><rect fill="#F1F1F1" height="48" id="University" rx="2.5" ry="2.5" style="stroke:#181818;stroke-width:0.5;" width="93" x="103.5" y="134"/><ellipse cx="118.5" cy="150" fill="#ADD1B2" rx="11" ry="11" style="stroke:#181818;stroke-width:1.0;"/><path d="M117.8438,155.8594 Q115.8594,155.8594 114.6875,154.3906 Q113.5313,152.9063 113.5313,149.8281 Q113.5313,147.2188 114.75,145.4688 Q115.9844,143.7188 118.1094,143.7188 Q118.6094,143.7188 119.1406,143.8594 Q119.5781,144.0469 119.8438,144.0469 Q120.0625,144.0469 120.1563,144 Q120.2656,143.9531 120.7188,143.3594 L121.4844,147.0938 L120.5938,147.3594 Q120.1406,145.9063 119.5313,145.3125 Q118.9375,144.7031 117.9844,144.7031 Q116.7656,144.7031 116.0469,146.1406 Q115.3281,147.5625 115.3281,149.75 Q115.3281,152.1563 115.9375,153.4531 Q116.5625,154.7344 117.9219,154.7344 Q118.875,154.7344 119.5625,154.0469 Q120.25,153.3438 120.5781,151.8438 L121.4844,152.25 Q121.0781,153.9531 120.1094,154.9063 Q119.1563,155.8594 117.8438,155.8594 Z " fill="#000000"/><text fill="#000000" font-family="sans-serif" font-size="14" lengthAdjust="spacing" textLength="61" x="132.5" y="156.4839">University</text><line style="stroke:#181818;stroke-width:0.5;" x1="104.5" x2="195.5" y1="166" y2="166"/><line style="stroke:#181818;stroke-width:0.5;" x1="104.5" x2="195.5" y1="174" y2="174"/></g><!--class EducationalInstitution--><g id="elem_EducationalInstitution"><rect fill="#F1F1F1" height="48" id="EducationalInstitution" rx="2.5" ry="2.5" style="stroke:#181818;stroke-width:0.5;" width="166" x="67" y="261"/><ellipse cx="82" cy="277" fill="#ADD1B2" rx="11" ry="11" style="stroke:#181818;stroke-width:1.0;"/><path d="M81.3438,282.8594 Q79.3594,282.8594 78.1875,281.3906 Q77.0313,279.9063 77.0313,276.8281 Q77.0313,274.2188 78.25,272.4688 Q79.4844,270.7188 81.6094,270.7188 Q82.1094,270.7188 82.6406,270.8594 Q83.0781,271.0469 83.3438,271.0469 Q83.5625,271.0469 83.6563,271 Q83.7656,270.9531 84.2188,270.3594 L84.9844,274.0938 L84.0938,274.3594 Q83.6406,272.9063 83.0313,272.3125 Q82.4375,271.7031 81.4844,271.7031 Q80.2656,271.7031 79.5469,273.1406 Q78.8281,274.5625 78.8281,276.75 Q78.8281,279.1563 79.4375,280.4531 Q80.0625,281.7344 81.4219,281.7344 Q82.375,281.7344 83.0625,281.0469 Q83.75,280.3438 84.0781,278.8438 L84.9844,279.25 Q84.5781,280.9531 83.6094,281.9063 Q82.6563,282.8594 81.3438,282.8594 Z " fill="#000000"/><text fill="#000000" font-family="sans-serif" font-size="14" lengthAdjust="spacing" textLength="134" x="96" y="283.4839">EducationalInstitution</text><line style="stroke:#181818;stroke-width:0.5;" x1="68" x2="232" y1="293" y2="293"/><line style="stroke:#181818;stroke-width:0.5;" x1="68" x2="232" y1="301" y2="301"/></g><!--reverse link AGHUniversityOfScienceAndTechnology to University--><g id="link_AGHUniversityOfScienceAndTechnology_University"><path codeLine="1" d="M150,73.22 C150,95.67 150,111.5 150,133.91 " fill="none" id="AGHUniversityOfScienceAndTechnology-backto-University" style="stroke:#181818;stroke-width:1.0;"/><polygon fill="none" points="150,55.22,144,73.22,156,73.22,150,55.22" style="stroke:#181818;stroke-width:1.0;"/><text fill="#000000" font-family="sans-serif" font-size="13" lengthAdjust="spacing" textLength="42" x="151" y="100.8979">inherits</text></g><!--reverse link University to EducationalInstitution--><g id="link_University_EducationalInstitution"><path codeLine="2" d="M150,200.22 C150,222.67 150,238.5 150,260.91 " fill="none" id="University-backto-EducationalInstitution" style="stroke:#181818;stroke-width:1.0;"/><polygon fill="none" points="150,182.22,144,200.22,156,200.22,150,182.22" style="stroke:#181818;stroke-width:1.0;"/><text fill="#000000" font-family="sans-serif" font-size="13" lengthAdjust="spacing" textLength="42" x="151" y="227.8979">inherits</text></g><!--SRC=[StJt2CtBB4ijAiuigVHF2qxEJCrBJdNCImb9JSx8oy_9JwzKiAdHrLL0g5AmKiZCoqWjoYmfva8I1QjoJIbDJYp9pCzBpF7CAox9B2a5SP1q0000]--></g></svg>