<?xml version="1.0" encoding="us-ascii" standalone="no"?><svg xmlns="http://www.w3.org/2000/svg" xmlns:xlink="http://www.w3.org/1999/xlink" contentStyleType="text/css" height="316px" preserveAspectRatio="none" style="width:321px;height:316px;background:#FFFFFF;" version="1.1" viewBox="0 0 321 316" width="321px" zoomAndPan="magnify"><defs/><g><!--class NationalAndKapodistrianUniversityOfAthens--><g id="elem_NationalAndKapodistrianUniversityOfAthens"><rect fill="#F1F1F1" height="48" id="NationalAndKapodistrianUniversityOfAthens" rx="2.5" ry="2.5" style="stroke:#181818;stroke-width:0.5;" width="307" x="7" y="7"/><ellipse cx="22" cy="23" fill="#ADD1B2" rx="11" ry="11" style="stroke:#181818;stroke-width:1.0;"/><path d="M21.3438,28.8594 Q19.3594,28.8594 18.1875,27.3906 Q17.0313,25.9063 17.0313,22.8281 Q17.0313,20.2188 18.25,18.4688 Q19.4844,16.7188 21.6094,16.7188 Q22.1094,16.7188 22.6406,16.8594 Q23.0781,17.0469 23.3438,17.0469 Q23.5625,17.0469 23.6563,17 Q23.7656,16.9531 24.2188,16.3594 L24.9844,20.0938 L24.0938,20.3594 Q23.6406,18.9063 23.0313,18.3125 Q22.4375,17.7031 21.4844,17.7031 Q20.2656,17.7031 19.5469,19.1406 Q18.8281,20.5625 18.8281,22.75 Q18.8281,25.1563 19.4375,26.4531 Q20.0625,27.7344 21.4219,27.7344 Q22.375,27.7344 23.0625,27.0469 Q23.75,26.3438 24.0781,24.8438 L24.9844,25.25 Q24.5781,26.9531 23.6094,27.9063 Q22.6563,28.8594 21.3438,28.8594 Z " fill="#000000"/><text fill="#000000" font-family="sans-serif" font-size="14" lengthAdjust="spacing" textLength="275" x="36" y="29.4839">NationalAndKapodistrianUniversityOfAthens</text><line style="stroke:#181818;stroke-width:0.5;" x1="8" x2="313" y1="39" y2="39"/><line style="stroke:#181818;stroke-width:0.5;" x1="8" x2="313" y1="47" y2="47"/></g><!--class University--><g id="elem_University"><rect fill="#F1F1F1" height="48" id="University" rx="2.5" ry="2.5" style="stroke:#181818;stroke-width:0.5;" width="93" x="114" y="134"/><ellipse cx="129" cy="150" fill="#ADD1B2" rx="11" ry="11" style="stroke:#181818;stroke-width:1.0;"/><path d="M128.3438,155.8594 Q126.3594,155.8594 125.1875,154.3906 Q124.0313,152.9063 124.0313,149.8281 Q124.0313,147.2188 125.25,145.4688 Q126.4844,143.7188 128.6094,143.7188 Q129.1094,143.7188 129.6406,143.8594 Q130.0781,144.0469 130.3438,144.0469 Q130.5625,144.0469 130.6563,144 Q130.7656,143.9531 131.2188,143.3594 L131.9844,147.0938 L131.0938,147.3594 Q130.6406,145.9063 130.0313,145.3125 Q129.4375,144.7031 128.4844,144.7031 Q127.2656,144.7031 126.5469,146.1406 Q125.8281,147.5625 125.8281,149.75 Q125.8281,152.1563 126.4375,153.4531 Q127.0625,154.7344 128.4219,154.7344 Q129.375,154.7344 130.0625,154.0469 Q130.75,153.3438 131.0781,151.8438 L131.9844,152.25 Q131.5781,153.9531 130.6094,154.9063 Q129.6563,155.8594 128.3438,155.8594 Z " fill="#000000"/><text fill="#000000" font-family="sans-serif" font-size="14" lengthAdjust="spacing" textLength="61" x="143" y="156.4839">University</text><line style="stroke:#181818;stroke-width:0.5;" x1="115" x2="206" y1="166" y2="166"/><line style="stroke:#181818;stroke-width:0.5;" x1="115" x2="206" y1="174" y2="174"/></g><!--class EducationalInstitution--><g id="elem_EducationalInstitution"><rect fill="#F1F1F1" height="48" id="EducationalInstitution" rx="2.5" ry="2.5" style="stroke:#181818;stroke-width:0.5;" width="166" x="77.5" y="261"/><ellipse cx="92.5" cy="277" fill="#ADD1B2" rx="11" ry="11" style="stroke:#181818;stroke-width:1.0;"/><path d="M91.8438,282.8594 Q89.8594,282.8594 88.6875,281.3906 Q87.5313,279.9063 87.5313,276.8281 Q87.5313,274.2188 88.75,272.4688 Q89.9844,270.7188 92.1094,270.7188 Q92.6094,270.7188 93.1406,270.8594 Q93.5781,271.0469 93.8438,271.0469 Q94.0625,271.0469 94.1563,271 Q94.2656,270.9531 94.7188,270.3594 L95.4844,274.0938 L94.5938,274.3594 Q94.1406,272.9063 93.5313,272.3125 Q92.9375,271.7031 91.9844,271.7031 Q90.7656,271.7031 90.0469,273.1406 Q89.3281,274.5625 89.3281,276.75 Q89.3281,279.1563 89.9375,280.4531 Q90.5625,281.7344 91.9219,281.7344 Q92.875,281.7344 93.5625,281.0469 Q94.25,280.3438 94.5781,278.8438 L95.4844,279.25 Q95.0781,280.9531 94.1094,281.9063 Q93.1563,282.8594 91.8438,282.8594 Z " fill="#000000"/><text fill="#000000" font-family="sans-serif" font-size="14" lengthAdjust="spacing" textLength="134" x="106.5" y="283.4839">EducationalInstitution</text><line style="stroke:#181818;stroke-width:0.5;" x1="78.5" x2="242.5" y1="293" y2="293"/><line style="stroke:#181818;stroke-width:0.5;" x1="78.5" x2="242.5" y1="301" y2="301"/></g><!--reverse link NationalAndKapodistrianUniversityOfAthens to University--><g id="link_NationalAndKapodistrianUniversityOfAthens_University"><path codeLine="1" d="M160.5,73.22 C160.5,95.67 160.5,111.5 160.5,133.91 " fill="none" id="NationalAndKapodistrianUniversityOfAthens-backto-University" style="stroke:#181818;stroke-width:1.0;"/><polygon fill="none" points="160.5,55.22,154.5,73.22,166.5,73.22,160.5,55.22" style="stroke:#181818;stroke-width:1.0;"/><text fill="#000000" font-family="sans-serif" font-size="13" lengthAdjust="spacing" textLength="42" x="161.5" y="100.8979">inherits</text></g><!--reverse link University to EducationalInstitution--><g id="link_University_EducationalInstitution"><path codeLine="2" d="M160.5,200.22 C160.5,222.67 160.5,238.5 160.5,260.91 " fill="none" id="University-backto-EducationalInstitution" style="stroke:#181818;stroke-width:1.0;"/><polygon fill="none" points="160.5,182.22,154.5,200.22,166.5,200.22,160.5,182.22" style="stroke:#181818;stroke-width:1.0;"/><text fill="#000000" font-family="sans-serif" font-size="13" lengthAdjust="spacing" textLength="42" x="161.5" y="227.8979">inherits</text></g><!--SRC=[yqiioSpFIynnp4lnJYp8JyaiBYdAJCmBpSiiIoqgpYofz4zpBCb8pIjMiAdHrLL0Y2jOAMJcPQGMPPOKSo69WbMvffGcGytrp2ikoImf1N6GT000]--></g></svg>