<?xml version="1.0" encoding="us-ascii" standalone="no"?><svg xmlns="http://www.w3.org/2000/svg" xmlns:xlink="http://www.w3.org/1999/xlink" contentStyleType="text/css" height="316px" preserveAspectRatio="none" style="width:334px;height:316px;background:#FFFFFF;" version="1.1" viewBox="0 0 334 316" width="334px" zoomAndPan="magnify"><defs/><g><!--class HuazhongUniversityOfScienceAndTechnology--><g id="elem_HuazhongUniversityOfScienceAndTechnology"><rect fill="#F1F1F1" height="48" id="HuazhongUniversityOfScienceAndTechnology" rx="2.5" ry="2.5" style="stroke:#181818;stroke-width:0.5;" width="320" x="7" y="7"/><ellipse cx="22" cy="23" fill="#ADD1B2" rx="11" ry="11" style="stroke:#181818;stroke-width:1.0;"/><path d="M21.3438,28.8594 Q19.3594,28.8594 18.1875,27.3906 Q17.0313,25.9063 17.0313,22.8281 Q17.0313,20.2188 18.25,18.4688 Q19.4844,16.7188 21.6094,16.7188 Q22.1094,16.7188 22.6406,16.8594 Q23.0781,17.0469 23.3438,17.0469 Q23.5625,17.0469 23.6563,17 Q23.7656,16.9531 24.2188,16.3594 L24.9844,20.0938 L24.0938,20.3594 Q23.6406,18.9063 23.0313,18.3125 Q22.4375,17.7031 21.4844,17.7031 Q20.2656,17.7031 19.5469,19.1406 Q18.8281,20.5625 18.8281,22.75 Q18.8281,25.1563 19.4375,26.4531 Q20.0625,27.7344 21.4219,27.7344 Q22.375,27.7344 23.0625,27.0469 Q23.75,26.3438 24.0781,24.8438 L24.9844,25.25 Q24.5781,26.9531 23.6094,27.9063 Q22.6563,28.8594 21.3438,28.8594 Z " fill="#000000"/><text fill="#000000" font-family="sans-serif" font-size="14" lengthAdjust="spacing" textLength="288" x="36" y="29.4839">HuazhongUniversityOfScienceAndTechnology</text><line style="stroke:#181818;stroke-width:0.5;" x1="8" x2="326" y1="39" y2="39"/><line style="stroke:#181818;stroke-width:0.5;" x1="8" x2="326" y1="47" y2="47"/></g><!--class University--><g id="elem_University"><rect fill="#F1F1F1" height="48" id="University" rx="2.5" ry="2.5" style="stroke:#181818;stroke-width:0.5;" width="93" x="120.5" y="134"/><ellipse cx="135.5" cy="150" fill="#ADD1B2" rx="11" ry="11" style="stroke:#181818;stroke-width:1.0;"/><path d="M134.8438,155.8594 Q132.8594,155.8594 131.6875,154.3906 Q130.5313,152.9063 130.5313,149.8281 Q130.5313,147.2188 131.75,145.4688 Q132.9844,143.7188 135.1094,143.7188 Q135.6094,143.7188 136.1406,143.8594 Q136.5781,144.0469 136.8438,144.0469 Q137.0625,144.0469 137.1563,144 Q137.2656,143.9531 137.7188,143.3594 L138.4844,147.0938 L137.5938,147.3594 Q137.1406,145.9063 136.5313,145.3125 Q135.9375,144.7031 134.9844,144.7031 Q133.7656,144.7031 133.0469,146.1406 Q132.3281,147.5625 132.3281,149.75 Q132.3281,152.1563 132.9375,153.4531 Q133.5625,154.7344 134.9219,154.7344 Q135.875,154.7344 136.5625,154.0469 Q137.25,153.3438 137.5781,151.8438 L138.4844,152.25 Q138.0781,153.9531 137.1094,154.9063 Q136.1563,155.8594 134.8438,155.8594 Z " fill="#000000"/><text fill="#000000" font-family="sans-serif" font-size="14" lengthAdjust="spacing" textLength="61" x="149.5" y="156.4839">University</text><line style="stroke:#181818;stroke-width:0.5;" x1="121.5" x2="212.5" y1="166" y2="166"/><line style="stroke:#181818;stroke-width:0.5;" x1="121.5" x2="212.5" y1="174" y2="174"/></g><!--class EducationalInstitution--><g id="elem_EducationalInstitution"><rect fill="#F1F1F1" height="48" id="EducationalInstitution" rx="2.5" ry="2.5" style="stroke:#181818;stroke-width:0.5;" width="166" x="84" y="261"/><ellipse cx="99" cy="277" fill="#ADD1B2" rx="11" ry="11" style="stroke:#181818;stroke-width:1.0;"/><path d="M98.3438,282.8594 Q96.3594,282.8594 95.1875,281.3906 Q94.0313,279.9063 94.0313,276.8281 Q94.0313,274.2188 95.25,272.4688 Q96.4844,270.7188 98.6094,270.7188 Q99.1094,270.7188 99.6406,270.8594 Q100.0781,271.0469 100.3438,271.0469 Q100.5625,271.0469 100.6563,271 Q100.7656,270.9531 101.2188,270.3594 L101.9844,274.0938 L101.0938,274.3594 Q100.6406,272.9063 100.0313,272.3125 Q99.4375,271.7031 98.4844,271.7031 Q97.2656,271.7031 96.5469,273.1406 Q95.8281,274.5625 95.8281,276.75 Q95.8281,279.1563 96.4375,280.4531 Q97.0625,281.7344 98.4219,281.7344 Q99.375,281.7344 100.0625,281.0469 Q100.75,280.3438 101.0781,278.8438 L101.9844,279.25 Q101.5781,280.9531 100.6094,281.9063 Q99.6563,282.8594 98.3438,282.8594 Z " fill="#000000"/><text fill="#000000" font-family="sans-serif" font-size="14" lengthAdjust="spacing" textLength="134" x="113" y="283.4839">EducationalInstitution</text><line style="stroke:#181818;stroke-width:0.5;" x1="85" x2="249" y1="293" y2="293"/><line style="stroke:#181818;stroke-width:0.5;" x1="85" x2="249" y1="301" y2="301"/></g><!--reverse link HuazhongUniversityOfScienceAndTechnology to University--><g id="link_HuazhongUniversityOfScienceAndTechnology_University"><path codeLine="1" d="M167,73.22 C167,95.67 167,111.5 167,133.91 " fill="none" id="HuazhongUniversityOfScienceAndTechnology-backto-University" style="stroke:#181818;stroke-width:1.0;"/><polygon fill="none" points="167,55.22,161,73.22,173,73.22,167,55.22" style="stroke:#181818;stroke-width:1.0;"/><text fill="#000000" font-family="sans-serif" font-size="13" lengthAdjust="spacing" textLength="42" x="168" y="100.8979">inherits</text></g><!--reverse link University to EducationalInstitution--><g id="link_University_EducationalInstitution"><path codeLine="2" d="M167,200.22 C167,222.67 167,238.5 167,260.91 " fill="none" id="University-backto-EducationalInstitution" style="stroke:#181818;stroke-width:1.0;"/><polygon fill="none" points="167,182.22,161,200.22,173,200.22,167,182.22" style="stroke:#181818;stroke-width:1.0;"/><text fill="#000000" font-family="sans-serif" font-size="13" lengthAdjust="spacing" textLength="42" x="168" y="227.8979">inherits</text></g><!--SRC=[yoXDhCh8pqiFpSiiIoqgpYofz4yBJivCpKjETSnB2KbDpiZBpybFhrImgT7LLK2eKh1IoCpBI2tAB2dcGX85gt9DAKrEBCdCpqlCySmhBiaiAGLna7G00000]--></g></svg>