<?xml version="1.0" encoding="us-ascii" standalone="no"?><svg xmlns="http://www.w3.org/2000/svg" xmlns:xlink="http://www.w3.org/1999/xlink" contentStyleType="text/css" height="316px" preserveAspectRatio="none" style="width:232px;height:316px;background:#FFFFFF;" version="1.1" viewBox="0 0 232 316" width="232px" zoomAndPan="magnify"><defs/><g><!--class NationalUniversityOfColombia--><g id="elem_NationalUniversityOfColombia"><rect fill="#F1F1F1" height="48" id="NationalUniversityOfColombia" rx="2.5" ry="2.5" style="stroke:#181818;stroke-width:0.5;" width="218" x="7" y="7"/><ellipse cx="22" cy="23" fill="#ADD1B2" rx="11" ry="11" style="stroke:#181818;stroke-width:1.0;"/><path d="M21.3438,28.8594 Q19.3594,28.8594 18.1875,27.3906 Q17.0313,25.9063 17.0313,22.8281 Q17.0313,20.2188 18.25,18.4688 Q19.4844,16.7188 21.6094,16.7188 Q22.1094,16.7188 22.6406,16.8594 Q23.0781,17.0469 23.3438,17.0469 Q23.5625,17.0469 23.6563,17 Q23.7656,16.9531 24.2188,16.3594 L24.9844,20.0938 L24.0938,20.3594 Q23.6406,18.9063 23.0313,18.3125 Q22.4375,17.7031 21.4844,17.7031 Q20.2656,17.7031 19.5469,19.1406 Q18.8281,20.5625 18.8281,22.75 Q18.8281,25.1563 19.4375,26.4531 Q20.0625,27.7344 21.4219,27.7344 Q22.375,27.7344 23.0625,27.0469 Q23.75,26.3438 24.0781,24.8438 L24.9844,25.25 Q24.5781,26.9531 23.6094,27.9063 Q22.6563,28.8594 21.3438,28.8594 Z " fill="#000000"/><text fill="#000000" font-family="sans-serif" font-size="14" lengthAdjust="spacing" textLength="186" x="36" y="29.4839">NationalUniversityOfColombia</text><line style="stroke:#181818;stroke-width:0.5;" x1="8" x2="224" y1="39" y2="39"/><line style="stroke:#181818;stroke-width:0.5;" x1="8" x2="224" y1="47" y2="47"/></g><!--class University--><g id="elem_University"><rect fill="#F1F1F1" height="48" id="University" rx="2.5" ry="2.5" style="stroke:#181818;stroke-width:0.5;" width="93" x="69.5" y="134"/><ellipse cx="84.5" cy="150" fill="#ADD1B2" rx="11" ry="11" style="stroke:#181818;stroke-width:1.0;"/><path d="M83.8438,155.8594 Q81.8594,155.8594 80.6875,154.3906 Q79.5313,152.9063 79.5313,149.8281 Q79.5313,147.2188 80.75,145.4688 Q81.9844,143.7188 84.1094,143.7188 Q84.6094,143.7188 85.1406,143.8594 Q85.5781,144.0469 85.8438,144.0469 Q86.0625,144.0469 86.1563,144 Q86.2656,143.9531 86.7188,143.3594 L87.4844,147.0938 L86.5938,147.3594 Q86.1406,145.9063 85.5313,145.3125 Q84.9375,144.7031 83.9844,144.7031 Q82.7656,144.7031 82.0469,146.1406 Q81.3281,147.5625 81.3281,149.75 Q81.3281,152.1563 81.9375,153.4531 Q82.5625,154.7344 83.9219,154.7344 Q84.875,154.7344 85.5625,154.0469 Q86.25,153.3438 86.5781,151.8438 L87.4844,152.25 Q87.0781,153.9531 86.1094,154.9063 Q85.1563,155.8594 83.8438,155.8594 Z " fill="#000000"/><text fill="#000000" font-family="sans-serif" font-size="14" lengthAdjust="spacing" textLength="61" x="98.5" y="156.4839">University</text><line style="stroke:#181818;stroke-width:0.5;" x1="70.5" x2="161.5" y1="166" y2="166"/><line style="stroke:#181818;stroke-width:0.5;" x1="70.5" x2="161.5" y1="174" y2="174"/></g><!--class EducationalInstitution--><g id="elem_EducationalInstitution"><rect fill="#F1F1F1" height="48" id="EducationalInstitution" rx="2.5" ry="2.5" style="stroke:#181818;stroke-width:0.5;" width="166" x="33" y="261"/><ellipse cx="48" cy="277" fill="#ADD1B2" rx="11" ry="11" style="stroke:#181818;stroke-width:1.0;"/><path d="M47.3438,282.8594 Q45.3594,282.8594 44.1875,281.3906 Q43.0313,279.9063 43.0313,276.8281 Q43.0313,274.2188 44.25,272.4688 Q45.4844,270.7188 47.6094,270.7188 Q48.1094,270.7188 48.6406,270.8594 Q49.0781,271.0469 49.3438,271.0469 Q49.5625,271.0469 49.6563,271 Q49.7656,270.9531 50.2188,270.3594 L50.9844,274.0938 L50.0938,274.3594 Q49.6406,272.9063 49.0313,272.3125 Q48.4375,271.7031 47.4844,271.7031 Q46.2656,271.7031 45.5469,273.1406 Q44.8281,274.5625 44.8281,276.75 Q44.8281,279.1563 45.4375,280.4531 Q46.0625,281.7344 47.4219,281.7344 Q48.375,281.7344 49.0625,281.0469 Q49.75,280.3438 50.0781,278.8438 L50.9844,279.25 Q50.5781,280.9531 49.6094,281.9063 Q48.6563,282.8594 47.3438,282.8594 Z " fill="#000000"/><text fill="#000000" font-family="sans-serif" font-size="14" lengthAdjust="spacing" textLength="134" x="62" y="283.4839">EducationalInstitution</text><line style="stroke:#181818;stroke-width:0.5;" x1="34" x2="198" y1="293" y2="293"/><line style="stroke:#181818;stroke-width:0.5;" x1="34" x2="198" y1="301" y2="301"/></g><!--reverse link NationalUniversityOfColombia to University--><g id="link_NationalUniversityOfColombia_University"><path codeLine="1" d="M116,73.22 C116,95.67 116,111.5 116,133.91 " fill="none" id="NationalUniversityOfColombia-backto-University" style="stroke:#181818;stroke-width:1.0;"/><polygon fill="none" points="116,55.22,110,73.22,122,73.22,116,55.22" style="stroke:#181818;stroke-width:1.0;"/><text fill="#000000" font-family="sans-serif" font-size="13" lengthAdjust="spacing" textLength="42" x="117" y="100.8979">inherits</text></g><!--reverse link University to EducationalInstitution--><g id="link_University_EducationalInstitution"><path codeLine="2" d="M116,200.22 C116,222.67 116,238.5 116,260.91 " fill="none" id="University-backto-EducationalInstitution" style="stroke:#181818;stroke-width:1.0;"/><polygon fill="none" points="116,182.22,110,200.22,122,200.22,116,182.22" style="stroke:#181818;stroke-width:1.0;"/><text fill="#000000" font-family="sans-serif" font-size="13" lengthAdjust="spacing" textLength="42" x="117" y="227.8979">inherits</text></g><!--SRC=[yqiioSpFIym9pSiiIoqgpYofz4zppi_9pqtAJ5ImgT7LLK38A5WfPEPbf1PbbXHp8Oc2LRccb2P3ZVBCAox9B2a5SP1q0000]--></g></svg>