<?xml version="1.0" encoding="us-ascii" standalone="no"?><svg xmlns="http://www.w3.org/2000/svg" xmlns:xlink="http://www.w3.org/1999/xlink" contentStyleType="text/css" height="316px" preserveAspectRatio="none" style="width:114px;height:316px;background:#FFFFFF;" version="1.1" viewBox="0 0 114 316" width="114px" zoomAndPan="magnify"><defs/><g><!--class Tooth--><g id="elem_Tooth"><rect fill="#F1F1F1" height="48" id="Tooth" rx="2.5" ry="2.5" style="stroke:#181818;stroke-width:0.5;" width="69" x="10.5" y="134"/><ellipse cx="25.5" cy="150" fill="#ADD1B2" rx="11" ry="11" style="stroke:#181818;stroke-width:1.0;"/><path d="M24.8438,155.8594 Q22.8594,155.8594 21.6875,154.3906 Q20.5313,152.9063 20.5313,149.8281 Q20.5313,147.2188 21.75,145.4688 Q22.9844,143.7188 25.1094,143.7188 Q25.6094,143.7188 26.1406,143.8594 Q26.5781,144.0469 26.8438,144.0469 Q27.0625,144.0469 27.1563,144 Q27.2656,143.9531 27.7188,143.3594 L28.4844,147.0938 L27.5938,147.3594 Q27.1406,145.9063 26.5313,145.3125 Q25.9375,144.7031 24.9844,144.7031 Q23.7656,144.7031 23.0469,146.1406 Q22.3281,147.5625 22.3281,149.75 Q22.3281,152.1563 22.9375,153.4531 Q23.5625,154.7344 24.9219,154.7344 Q25.875,154.7344 26.5625,154.0469 Q27.25,153.3438 27.5781,151.8438 L28.4844,152.25 Q28.0781,153.9531 27.1094,154.9063 Q26.1563,155.8594 24.8438,155.8594 Z " fill="#000000"/><text fill="#000000" font-family="sans-serif" font-size="14" lengthAdjust="spacing" textLength="37" x="39.5" y="156.4839">Tooth</text><line style="stroke:#181818;stroke-width:0.5;" x1="11.5" x2="78.5" y1="166" y2="166"/><line style="stroke:#181818;stroke-width:0.5;" x1="11.5" x2="78.5" y1="174" y2="174"/></g><!--class Root--><g id="elem_Root"><rect fill="#F1F1F1" height="48" id="Root" rx="2.5" ry="2.5" style="stroke:#181818;stroke-width:0.5;" width="62" x="14" y="261"/><ellipse cx="29" cy="277" fill="#ADD1B2" rx="11" ry="11" style="stroke:#181818;stroke-width:1.0;"/><path d="M28.3438,282.8594 Q26.3594,282.8594 25.1875,281.3906 Q24.0313,279.9063 24.0313,276.8281 Q24.0313,274.2188 25.25,272.4688 Q26.4844,270.7188 28.6094,270.7188 Q29.1094,270.7188 29.6406,270.8594 Q30.0781,271.0469 30.3438,271.0469 Q30.5625,271.0469 30.6563,271 Q30.7656,270.9531 31.2188,270.3594 L31.9844,274.0938 L31.0938,274.3594 Q30.6406,272.9063 30.0313,272.3125 Q29.4375,271.7031 28.4844,271.7031 Q27.2656,271.7031 26.5469,273.1406 Q25.8281,274.5625 25.8281,276.75 Q25.8281,279.1563 26.4375,280.4531 Q27.0625,281.7344 28.4219,281.7344 Q29.375,281.7344 30.0625,281.0469 Q30.75,280.3438 31.0781,278.8438 L31.9844,279.25 Q31.5781,280.9531 30.6094,281.9063 Q29.6563,282.8594 28.3438,282.8594 Z " fill="#000000"/><text fill="#000000" font-family="sans-serif" font-size="14" lengthAdjust="spacing" textLength="30" x="43" y="283.4839">Root</text><line style="stroke:#181818;stroke-width:0.5;" x1="15" x2="75" y1="293" y2="293"/><line style="stroke:#181818;stroke-width:0.5;" x1="15" x2="75" y1="301" y2="301"/></g><!--class Buffalo--><g id="elem_Buffalo"><rect fill="#F1F1F1" height="48" id="Buffalo" rx="2.5" ry="2.5" style="stroke:#181818;stroke-width:0.5;" width="76" x="7" y="7"/><ellipse cx="22" cy="23" fill="#ADD1B2" rx="11" ry="11" style="stroke:#181818;stroke-width:1.0;"/><path d="M21.3438,28.8594 Q19.3594,28.8594 18.1875,27.3906 Q17.0313,25.9063 17.0313,22.8281 Q17.0313,20.2188 18.25,18.4688 Q19.4844,16.7188 21.6094,16.7188 Q22.1094,16.7188 22.6406,16.8594 Q23.0781,17.0469 23.3438,17.0469 Q23.5625,17.0469 23.6563,17 Q23.7656,16.9531 24.2188,16.3594 L24.9844,20.0938 L24.0938,20.3594 Q23.6406,18.9063 23.0313,18.3125 Q22.4375,17.7031 21.4844,17.7031 Q20.2656,17.7031 19.5469,19.1406 Q18.8281,20.5625 18.8281,22.75 Q18.8281,25.1563 19.4375,26.4531 Q20.0625,27.7344 21.4219,27.7344 Q22.375,27.7344 23.0625,27.0469 Q23.75,26.3438 24.0781,24.8438 L24.9844,25.25 Q24.5781,26.9531 23.6094,27.9063 Q22.6563,28.8594 21.3438,28.8594 Z " fill="#000000"/><text fill="#000000" font-family="sans-serif" font-size="14" lengthAdjust="spacing" textLength="44" x="36" y="29.4839">Buffalo</text><line style="stroke:#181818;stroke-width:0.5;" x1="8" x2="82" y1="39" y2="39"/><line style="stroke:#181818;stroke-width:0.5;" x1="8" x2="82" y1="47" y2="47"/></g><!--reverse link Tooth to Root--><g id="link_Tooth_Root"><path codeLine="1" d="M45,194.22 C45,216.67 45,238.5 45,260.91 " fill="none" id="Tooth-backto-Root" style="stroke:#181818;stroke-width:1.0;"/><polygon fill="#181818" points="45,182.22,41,188.22,45,194.22,49,188.22,45,182.22" style="stroke:#181818;stroke-width:1.0;"/><text fill="#000000" font-family="sans-serif" font-size="13" lengthAdjust="spacing" textLength="60" x="46" y="227.8979">composes</text></g><!--reverse link Buffalo to Tooth--><g id="link_Buffalo_Tooth"><path codeLine="2" d="M45,67.22 C45,89.67 45,111.5 45,133.91 " fill="none" id="Buffalo-backto-Tooth" style="stroke:#181818;stroke-width:1.0;"/><polygon fill="#181818" points="45,55.22,41,61.22,45,67.22,49,61.22,45,55.22" style="stroke:#181818;stroke-width:1.0;"/><text fill="#000000" font-family="sans-serif" font-size="13" lengthAdjust="spacing" textLength="60" x="46" y="100.8979">composes</text></g><!--SRC=[2ydFBybGqDBLLGW2iXIi59BpSmloYrEBkPnAqz8IS_B1SY5WLGX90000]--></g></svg>