<?xml version="1.0" encoding="us-ascii" standalone="no"?><svg xmlns="http://www.w3.org/2000/svg" xmlns:xlink="http://www.w3.org/1999/xlink" contentStyleType="text/css" height="316px" preserveAspectRatio="none" style="width:124px;height:316px;background:#FFFFFF;" version="1.1" viewBox="0 0 124 316" width="124px" zoomAndPan="magnify"><defs/><g><!--class Nose--><g id="elem_Nose"><rect fill="#F1F1F1" height="48" id="Nose" rx="2.5" ry="2.5" style="stroke:#181818;stroke-width:0.5;" width="64" x="23.5" y="134"/><ellipse cx="38.5" cy="150" fill="#ADD1B2" rx="11" ry="11" style="stroke:#181818;stroke-width:1.0;"/><path d="M37.8438,155.8594 Q35.8594,155.8594 34.6875,154.3906 Q33.5313,152.9063 33.5313,149.8281 Q33.5313,147.2188 34.75,145.4688 Q35.9844,143.7188 38.1094,143.7188 Q38.6094,143.7188 39.1406,143.8594 Q39.5781,144.0469 39.8438,144.0469 Q40.0625,144.0469 40.1563,144 Q40.2656,143.9531 40.7188,143.3594 L41.4844,147.0938 L40.5938,147.3594 Q40.1406,145.9063 39.5313,145.3125 Q38.9375,144.7031 37.9844,144.7031 Q36.7656,144.7031 36.0469,146.1406 Q35.3281,147.5625 35.3281,149.75 Q35.3281,152.1563 35.9375,153.4531 Q36.5625,154.7344 37.9219,154.7344 Q38.875,154.7344 39.5625,154.0469 Q40.25,153.3438 40.5781,151.8438 L41.4844,152.25 Q41.0781,153.9531 40.1094,154.9063 Q39.1563,155.8594 37.8438,155.8594 Z " fill="#000000"/><text fill="#000000" font-family="sans-serif" font-size="14" lengthAdjust="spacing" textLength="32" x="52.5" y="156.4839">Nose</text><line style="stroke:#181818;stroke-width:0.5;" x1="24.5" x2="86.5" y1="166" y2="166"/><line style="stroke:#181818;stroke-width:0.5;" x1="24.5" x2="86.5" y1="174" y2="174"/></g><!--class Nostril--><g id="elem_Nostril"><rect fill="#F1F1F1" height="48" id="Nostril" rx="2.5" ry="2.5" style="stroke:#181818;stroke-width:0.5;" width="71" x="20" y="261"/><ellipse cx="35" cy="277" fill="#ADD1B2" rx="11" ry="11" style="stroke:#181818;stroke-width:1.0;"/><path d="M34.3438,282.8594 Q32.3594,282.8594 31.1875,281.3906 Q30.0313,279.9063 30.0313,276.8281 Q30.0313,274.2188 31.25,272.4688 Q32.4844,270.7188 34.6094,270.7188 Q35.1094,270.7188 35.6406,270.8594 Q36.0781,271.0469 36.3438,271.0469 Q36.5625,271.0469 36.6563,271 Q36.7656,270.9531 37.2188,270.3594 L37.9844,274.0938 L37.0938,274.3594 Q36.6406,272.9063 36.0313,272.3125 Q35.4375,271.7031 34.4844,271.7031 Q33.2656,271.7031 32.5469,273.1406 Q31.8281,274.5625 31.8281,276.75 Q31.8281,279.1563 32.4375,280.4531 Q33.0625,281.7344 34.4219,281.7344 Q35.375,281.7344 36.0625,281.0469 Q36.75,280.3438 37.0781,278.8438 L37.9844,279.25 Q37.5781,280.9531 36.6094,281.9063 Q35.6563,282.8594 34.3438,282.8594 Z " fill="#000000"/><text fill="#000000" font-family="sans-serif" font-size="14" lengthAdjust="spacing" textLength="39" x="49" y="283.4839">Nostril</text><line style="stroke:#181818;stroke-width:0.5;" x1="21" x2="90" y1="293" y2="293"/><line style="stroke:#181818;stroke-width:0.5;" x1="21" x2="90" y1="301" y2="301"/></g><!--class Hedgehog--><g id="elem_Hedgehog"><rect fill="#F1F1F1" height="48" id="Hedgehog" rx="2.5" ry="2.5" style="stroke:#181818;stroke-width:0.5;" width="97" x="7" y="7"/><ellipse cx="22" cy="23" fill="#ADD1B2" rx="11" ry="11" style="stroke:#181818;stroke-width:1.0;"/><path d="M21.3438,28.8594 Q19.3594,28.8594 18.1875,27.3906 Q17.0313,25.9063 17.0313,22.8281 Q17.0313,20.2188 18.25,18.4688 Q19.4844,16.7188 21.6094,16.7188 Q22.1094,16.7188 22.6406,16.8594 Q23.0781,17.0469 23.3438,17.0469 Q23.5625,17.0469 23.6563,17 Q23.7656,16.9531 24.2188,16.3594 L24.9844,20.0938 L24.0938,20.3594 Q23.6406,18.9063 23.0313,18.3125 Q22.4375,17.7031 21.4844,17.7031 Q20.2656,17.7031 19.5469,19.1406 Q18.8281,20.5625 18.8281,22.75 Q18.8281,25.1563 19.4375,26.4531 Q20.0625,27.7344 21.4219,27.7344 Q22.375,27.7344 23.0625,27.0469 Q23.75,26.3438 24.0781,24.8438 L24.9844,25.25 Q24.5781,26.9531 23.6094,27.9063 Q22.6563,28.8594 21.3438,28.8594 Z " fill="#000000"/><text fill="#000000" font-family="sans-serif" font-size="14" lengthAdjust="spacing" textLength="65" x="36" y="29.4839">Hedgehog</text><line style="stroke:#181818;stroke-width:0.5;" x1="8" x2="103" y1="39" y2="39"/><line style="stroke:#181818;stroke-width:0.5;" x1="8" x2="103" y1="47" y2="47"/></g><!--reverse link Nose to Nostril--><g id="link_Nose_Nostril"><path codeLine="1" d="M55.5,194.22 C55.5,216.67 55.5,238.5 55.5,260.91 " fill="none" id="Nose-backto-Nostril" style="stroke:#181818;stroke-width:1.0;"/><polygon fill="#181818" points="55.5,182.22,51.5,188.22,55.5,194.22,59.5,188.22,55.5,182.22" style="stroke:#181818;stroke-width:1.0;"/><text fill="#000000" font-family="sans-serif" font-size="13" lengthAdjust="spacing" textLength="60" x="56.5" y="227.8979">composes</text></g><!--reverse link Hedgehog to Nose--><g id="link_Hedgehog_Nose"><path codeLine="2" d="M55.5,67.22 C55.5,89.67 55.5,111.5 55.5,133.91 " fill="none" id="Hedgehog-backto-Nose" style="stroke:#181818;stroke-width:1.0;"/><polygon fill="#181818" points="55.5,55.22,51.5,61.22,55.5,67.22,59.5,61.22,55.5,55.22" style="stroke:#181818;stroke-width:1.0;"/><text fill="#000000" font-family="sans-serif" font-size="13" lengthAdjust="spacing" textLength="60" x="56.5" y="100.8979">composes</text></g><!--SRC=[yyilJbNGqjLLyCilBYdAp56mKaZEpoq0YXPpUQIcfATcvAV3v5EH9040]--></g></svg>