<?xml version="1.0" encoding="us-ascii" standalone="no"?><svg xmlns="http://www.w3.org/2000/svg" xmlns:xlink="http://www.w3.org/1999/xlink" contentStyleType="text/css" height="316px" preserveAspectRatio="none" style="width:147px;height:316px;background:#FFFFFF;" version="1.1" viewBox="0 0 147 316" width="147px" zoomAndPan="magnify"><defs/><g><!--class Nose--><g id="elem_Nose"><rect fill="#F1F1F1" height="48" id="Nose" rx="2.5" ry="2.5" style="stroke:#181818;stroke-width:0.5;" width="64" x="41.5" y="134"/><ellipse cx="56.5" cy="150" fill="#ADD1B2" rx="11" ry="11" style="stroke:#181818;stroke-width:1.0;"/><path d="M55.8438,155.8594 Q53.8594,155.8594 52.6875,154.3906 Q51.5313,152.9063 51.5313,149.8281 Q51.5313,147.2188 52.75,145.4688 Q53.9844,143.7188 56.1094,143.7188 Q56.6094,143.7188 57.1406,143.8594 Q57.5781,144.0469 57.8438,144.0469 Q58.0625,144.0469 58.1563,144 Q58.2656,143.9531 58.7188,143.3594 L59.4844,147.0938 L58.5938,147.3594 Q58.1406,145.9063 57.5313,145.3125 Q56.9375,144.7031 55.9844,144.7031 Q54.7656,144.7031 54.0469,146.1406 Q53.3281,147.5625 53.3281,149.75 Q53.3281,152.1563 53.9375,153.4531 Q54.5625,154.7344 55.9219,154.7344 Q56.875,154.7344 57.5625,154.0469 Q58.25,153.3438 58.5781,151.8438 L59.4844,152.25 Q59.0781,153.9531 58.1094,154.9063 Q57.1563,155.8594 55.8438,155.8594 Z " fill="#000000"/><text fill="#000000" font-family="sans-serif" font-size="14" lengthAdjust="spacing" textLength="32" x="70.5" y="156.4839">Nose</text><line style="stroke:#181818;stroke-width:0.5;" x1="42.5" x2="104.5" y1="166" y2="166"/><line style="stroke:#181818;stroke-width:0.5;" x1="42.5" x2="104.5" y1="174" y2="174"/></g><!--class Nostril--><g id="elem_Nostril"><rect fill="#F1F1F1" height="48" id="Nostril" rx="2.5" ry="2.5" style="stroke:#181818;stroke-width:0.5;" width="71" x="38" y="261"/><ellipse cx="53" cy="277" fill="#ADD1B2" rx="11" ry="11" style="stroke:#181818;stroke-width:1.0;"/><path d="M52.3438,282.8594 Q50.3594,282.8594 49.1875,281.3906 Q48.0313,279.9063 48.0313,276.8281 Q48.0313,274.2188 49.25,272.4688 Q50.4844,270.7188 52.6094,270.7188 Q53.1094,270.7188 53.6406,270.8594 Q54.0781,271.0469 54.3438,271.0469 Q54.5625,271.0469 54.6563,271 Q54.7656,270.9531 55.2188,270.3594 L55.9844,274.0938 L55.0938,274.3594 Q54.6406,272.9063 54.0313,272.3125 Q53.4375,271.7031 52.4844,271.7031 Q51.2656,271.7031 50.5469,273.1406 Q49.8281,274.5625 49.8281,276.75 Q49.8281,279.1563 50.4375,280.4531 Q51.0625,281.7344 52.4219,281.7344 Q53.375,281.7344 54.0625,281.0469 Q54.75,280.3438 55.0781,278.8438 L55.9844,279.25 Q55.5781,280.9531 54.6094,281.9063 Q53.6563,282.8594 52.3438,282.8594 Z " fill="#000000"/><text fill="#000000" font-family="sans-serif" font-size="14" lengthAdjust="spacing" textLength="39" x="67" y="283.4839">Nostril</text><line style="stroke:#181818;stroke-width:0.5;" x1="39" x2="108" y1="293" y2="293"/><line style="stroke:#181818;stroke-width:0.5;" x1="39" x2="108" y1="301" y2="301"/></g><!--class TasmanianDevil--><g id="elem_TasmanianDevil"><rect fill="#F1F1F1" height="48" id="TasmanianDevil" rx="2.5" ry="2.5" style="stroke:#181818;stroke-width:0.5;" width="133" x="7" y="7"/><ellipse cx="22" cy="23" fill="#ADD1B2" rx="11" ry="11" style="stroke:#181818;stroke-width:1.0;"/><path d="M21.3438,28.8594 Q19.3594,28.8594 18.1875,27.3906 Q17.0313,25.9063 17.0313,22.8281 Q17.0313,20.2188 18.25,18.4688 Q19.4844,16.7188 21.6094,16.7188 Q22.1094,16.7188 22.6406,16.8594 Q23.0781,17.0469 23.3438,17.0469 Q23.5625,17.0469 23.6563,17 Q23.7656,16.9531 24.2188,16.3594 L24.9844,20.0938 L24.0938,20.3594 Q23.6406,18.9063 23.0313,18.3125 Q22.4375,17.7031 21.4844,17.7031 Q20.2656,17.7031 19.5469,19.1406 Q18.8281,20.5625 18.8281,22.75 Q18.8281,25.1563 19.4375,26.4531 Q20.0625,27.7344 21.4219,27.7344 Q22.375,27.7344 23.0625,27.0469 Q23.75,26.3438 24.0781,24.8438 L24.9844,25.25 Q24.5781,26.9531 23.6094,27.9063 Q22.6563,28.8594 21.3438,28.8594 Z " fill="#000000"/><text fill="#000000" font-family="sans-serif" font-size="14" lengthAdjust="spacing" textLength="101" x="36" y="29.4839">TasmanianDevil</text><line style="stroke:#181818;stroke-width:0.5;" x1="8" x2="139" y1="39" y2="39"/><line style="stroke:#181818;stroke-width:0.5;" x1="8" x2="139" y1="47" y2="47"/></g><!--reverse link Nose to Nostril--><g id="link_Nose_Nostril"><path codeLine="1" d="M73.5,194.22 C73.5,216.67 73.5,238.5 73.5,260.91 " fill="none" id="Nose-backto-Nostril" style="stroke:#181818;stroke-width:1.0;"/><polygon fill="#181818" points="73.5,182.22,69.5,188.22,73.5,194.22,77.5,188.22,73.5,182.22" style="stroke:#181818;stroke-width:1.0;"/><text fill="#000000" font-family="sans-serif" font-size="13" lengthAdjust="spacing" textLength="60" x="74.5" y="227.8979">composes</text></g><!--reverse link TasmanianDevil to Nose--><g id="link_TasmanianDevil_Nose"><path codeLine="2" d="M73.5,67.22 C73.5,89.67 73.5,111.5 73.5,133.91 " fill="none" id="TasmanianDevil-backto-Nose" style="stroke:#181818;stroke-width:1.0;"/><polygon fill="#181818" points="73.5,55.22,69.5,61.22,73.5,67.22,77.5,61.22,73.5,55.22" style="stroke:#181818;stroke-width:1.0;"/><text fill="#000000" font-family="sans-serif" font-size="13" lengthAdjust="spacing" textLength="60" x="74.5" y="100.8979">composes</text></g><!--SRC=[yyilJbNGqjLLyCilBYdAp56mKaZEpoq0YXPpXIGMvoRcPIRckQIM0MMWgbAHb000]--></g></svg>