<?xml version="1.0" encoding="us-ascii" standalone="no"?><svg xmlns="http://www.w3.org/2000/svg" xmlns:xlink="http://www.w3.org/1999/xlink" contentStyleType="text/css" height="316px" preserveAspectRatio="none" style="width:155px;height:316px;background:#FFFFFF;" version="1.1" viewBox="0 0 155 316" width="155px" zoomAndPan="magnify"><defs/><g><!--class Skin--><g id="elem_Skin"><rect fill="#F1F1F1" height="48" id="Skin" rx="2.5" ry="2.5" style="stroke:#181818;stroke-width:0.5;" width="59" x="48" y="134"/><ellipse cx="63" cy="150" fill="#ADD1B2" rx="11" ry="11" style="stroke:#181818;stroke-width:1.0;"/><path d="M62.3438,155.8594 Q60.3594,155.8594 59.1875,154.3906 Q58.0313,152.9063 58.0313,149.8281 Q58.0313,147.2188 59.25,145.4688 Q60.4844,143.7188 62.6094,143.7188 Q63.1094,143.7188 63.6406,143.8594 Q64.0781,144.0469 64.3438,144.0469 Q64.5625,144.0469 64.6563,144 Q64.7656,143.9531 65.2188,143.3594 L65.9844,147.0938 L65.0938,147.3594 Q64.6406,145.9063 64.0313,145.3125 Q63.4375,144.7031 62.4844,144.7031 Q61.2656,144.7031 60.5469,146.1406 Q59.8281,147.5625 59.8281,149.75 Q59.8281,152.1563 60.4375,153.4531 Q61.0625,154.7344 62.4219,154.7344 Q63.375,154.7344 64.0625,154.0469 Q64.75,153.3438 65.0781,151.8438 L65.9844,152.25 Q65.5781,153.9531 64.6094,154.9063 Q63.6563,155.8594 62.3438,155.8594 Z " fill="#000000"/><text fill="#000000" font-family="sans-serif" font-size="14" lengthAdjust="spacing" textLength="27" x="77" y="156.4839">Skin</text><line style="stroke:#181818;stroke-width:0.5;" x1="49" x2="106" y1="166" y2="166"/><line style="stroke:#181818;stroke-width:0.5;" x1="49" x2="106" y1="174" y2="174"/></g><!--class Scale--><g id="elem_Scale"><rect fill="#F1F1F1" height="48" id="Scale" rx="2.5" ry="2.5" style="stroke:#181818;stroke-width:0.5;" width="67" x="44" y="261"/><ellipse cx="59" cy="277" fill="#ADD1B2" rx="11" ry="11" style="stroke:#181818;stroke-width:1.0;"/><path d="M58.3438,282.8594 Q56.3594,282.8594 55.1875,281.3906 Q54.0313,279.9063 54.0313,276.8281 Q54.0313,274.2188 55.25,272.4688 Q56.4844,270.7188 58.6094,270.7188 Q59.1094,270.7188 59.6406,270.8594 Q60.0781,271.0469 60.3438,271.0469 Q60.5625,271.0469 60.6563,271 Q60.7656,270.9531 61.2188,270.3594 L61.9844,274.0938 L61.0938,274.3594 Q60.6406,272.9063 60.0313,272.3125 Q59.4375,271.7031 58.4844,271.7031 Q57.2656,271.7031 56.5469,273.1406 Q55.8281,274.5625 55.8281,276.75 Q55.8281,279.1563 56.4375,280.4531 Q57.0625,281.7344 58.4219,281.7344 Q59.375,281.7344 60.0625,281.0469 Q60.75,280.3438 61.0781,278.8438 L61.9844,279.25 Q61.5781,280.9531 60.6094,281.9063 Q59.6563,282.8594 58.3438,282.8594 Z " fill="#000000"/><text fill="#000000" font-family="sans-serif" font-size="14" lengthAdjust="spacing" textLength="35" x="73" y="283.4839">Scale</text><line style="stroke:#181818;stroke-width:0.5;" x1="45" x2="110" y1="293" y2="293"/><line style="stroke:#181818;stroke-width:0.5;" x1="45" x2="110" y1="301" y2="301"/></g><!--class TigerSalamander--><g id="elem_TigerSalamander"><rect fill="#F1F1F1" height="48" id="TigerSalamander" rx="2.5" ry="2.5" style="stroke:#181818;stroke-width:0.5;" width="141" x="7" y="7"/><ellipse cx="22" cy="23" fill="#ADD1B2" rx="11" ry="11" style="stroke:#181818;stroke-width:1.0;"/><path d="M21.3438,28.8594 Q19.3594,28.8594 18.1875,27.3906 Q17.0313,25.9063 17.0313,22.8281 Q17.0313,20.2188 18.25,18.4688 Q19.4844,16.7188 21.6094,16.7188 Q22.1094,16.7188 22.6406,16.8594 Q23.0781,17.0469 23.3438,17.0469 Q23.5625,17.0469 23.6563,17 Q23.7656,16.9531 24.2188,16.3594 L24.9844,20.0938 L24.0938,20.3594 Q23.6406,18.9063 23.0313,18.3125 Q22.4375,17.7031 21.4844,17.7031 Q20.2656,17.7031 19.5469,19.1406 Q18.8281,20.5625 18.8281,22.75 Q18.8281,25.1563 19.4375,26.4531 Q20.0625,27.7344 21.4219,27.7344 Q22.375,27.7344 23.0625,27.0469 Q23.75,26.3438 24.0781,24.8438 L24.9844,25.25 Q24.5781,26.9531 23.6094,27.9063 Q22.6563,28.8594 21.3438,28.8594 Z " fill="#000000"/><text fill="#000000" font-family="sans-serif" font-size="14" lengthAdjust="spacing" textLength="109" x="36" y="29.4839">TigerSalamander</text><line style="stroke:#181818;stroke-width:0.5;" x1="8" x2="147" y1="39" y2="39"/><line style="stroke:#181818;stroke-width:0.5;" x1="8" x2="147" y1="47" y2="47"/></g><!--reverse link Skin to Scale--><g id="link_Skin_Scale"><path codeLine="1" d="M77.5,194.22 C77.5,216.67 77.5,238.5 77.5,260.91 " fill="none" id="Skin-backto-Scale" style="stroke:#181818;stroke-width:1.0;"/><polygon fill="#181818" points="77.5,182.22,73.5,188.22,77.5,194.22,81.5,188.22,77.5,182.22" style="stroke:#181818;stroke-width:1.0;"/><text fill="#000000" font-family="sans-serif" font-size="13" lengthAdjust="spacing" textLength="60" x="78.5" y="227.8979">composes</text></g><!--reverse link TigerSalamander to Skin--><g id="link_TigerSalamander_Skin"><path codeLine="2" d="M77.5,67.22 C77.5,89.67 77.5,111.5 77.5,133.91 " fill="none" id="TigerSalamander-backto-Skin" style="stroke:#181818;stroke-width:1.0;"/><polygon fill="#181818" points="77.5,55.22,73.5,61.22,77.5,67.22,81.5,61.22,77.5,55.22" style="stroke:#181818;stroke-width:1.0;"/><text fill="#000000" font-family="sans-serif" font-size="13" lengthAdjust="spacing" textLength="60" x="78.5" y="100.8979">composes</text></g><!--SRC=[2yxEp5FGqjLL24vEp4bLi598piyjo2zEBUOAoKnFBGfEp4dCJSnBIIs2A0AfHgW10000]--></g></svg>