<?xml version="1.0" encoding="us-ascii" standalone="no"?><svg xmlns="http://www.w3.org/2000/svg" xmlns:xlink="http://www.w3.org/1999/xlink" contentStyleType="text/css" height="316px" preserveAspectRatio="none" style="width:144px;height:316px;background:#FFFFFF;" version="1.1" viewBox="0 0 144 316" width="144px" zoomAndPan="magnify"><defs/><g><!--class Krill--><g id="elem_Krill"><rect fill="#F1F1F1" height="48" id="Krill" rx="2.5" ry="2.5" style="stroke:#181818;stroke-width:0.5;" width="55" x="40.5" y="134"/><ellipse cx="55.5" cy="150" fill="#ADD1B2" rx="11" ry="11" style="stroke:#181818;stroke-width:1.0;"/><path d="M54.8438,155.8594 Q52.8594,155.8594 51.6875,154.3906 Q50.5313,152.9063 50.5313,149.8281 Q50.5313,147.2188 51.75,145.4688 Q52.9844,143.7188 55.1094,143.7188 Q55.6094,143.7188 56.1406,143.8594 Q56.5781,144.0469 56.8438,144.0469 Q57.0625,144.0469 57.1563,144 Q57.2656,143.9531 57.7188,143.3594 L58.4844,147.0938 L57.5938,147.3594 Q57.1406,145.9063 56.5313,145.3125 Q55.9375,144.7031 54.9844,144.7031 Q53.7656,144.7031 53.0469,146.1406 Q52.3281,147.5625 52.3281,149.75 Q52.3281,152.1563 52.9375,153.4531 Q53.5625,154.7344 54.9219,154.7344 Q55.875,154.7344 56.5625,154.0469 Q57.25,153.3438 57.5781,151.8438 L58.4844,152.25 Q58.0781,153.9531 57.1094,154.9063 Q56.1563,155.8594 54.8438,155.8594 Z " fill="#000000"/><text fill="#000000" font-family="sans-serif" font-size="14" lengthAdjust="spacing" textLength="23" x="69.5" y="156.4839">Krill</text><line style="stroke:#181818;stroke-width:0.5;" x1="41.5" x2="94.5" y1="166" y2="166"/><line style="stroke:#181818;stroke-width:0.5;" x1="41.5" x2="94.5" y1="174" y2="174"/></g><!--class Phytoplankton--><g id="elem_Phytoplankton"><rect fill="#F1F1F1" height="48" id="Phytoplankton" rx="2.5" ry="2.5" style="stroke:#181818;stroke-width:0.5;" width="122" x="7" y="261"/><ellipse cx="22" cy="277" fill="#ADD1B2" rx="11" ry="11" style="stroke:#181818;stroke-width:1.0;"/><path d="M21.3438,282.8594 Q19.3594,282.8594 18.1875,281.3906 Q17.0313,279.9063 17.0313,276.8281 Q17.0313,274.2188 18.25,272.4688 Q19.4844,270.7188 21.6094,270.7188 Q22.1094,270.7188 22.6406,270.8594 Q23.0781,271.0469 23.3438,271.0469 Q23.5625,271.0469 23.6563,271 Q23.7656,270.9531 24.2188,270.3594 L24.9844,274.0938 L24.0938,274.3594 Q23.6406,272.9063 23.0313,272.3125 Q22.4375,271.7031 21.4844,271.7031 Q20.2656,271.7031 19.5469,273.1406 Q18.8281,274.5625 18.8281,276.75 Q18.8281,279.1563 19.4375,280.4531 Q20.0625,281.7344 21.4219,281.7344 Q22.375,281.7344 23.0625,281.0469 Q23.75,280.3438 24.0781,278.8438 L24.9844,279.25 Q24.5781,280.9531 23.6094,281.9063 Q22.6563,282.8594 21.3438,282.8594 Z " fill="#000000"/><text fill="#000000" font-family="sans-serif" font-size="14" lengthAdjust="spacing" textLength="90" x="36" y="283.4839">Phytoplankton</text><line style="stroke:#181818;stroke-width:0.5;" x1="8" x2="128" y1="293" y2="293"/><line style="stroke:#181818;stroke-width:0.5;" x1="8" x2="128" y1="301" y2="301"/></g><!--class Penguin--><g id="elem_Penguin"><rect fill="#F1F1F1" height="48" id="Penguin" rx="2.5" ry="2.5" style="stroke:#181818;stroke-width:0.5;" width="84" x="26" y="7"/><ellipse cx="41" cy="23" fill="#ADD1B2" rx="11" ry="11" style="stroke:#181818;stroke-width:1.0;"/><path d="M40.3438,28.8594 Q38.3594,28.8594 37.1875,27.3906 Q36.0313,25.9063 36.0313,22.8281 Q36.0313,20.2188 37.25,18.4688 Q38.4844,16.7188 40.6094,16.7188 Q41.1094,16.7188 41.6406,16.8594 Q42.0781,17.0469 42.3438,17.0469 Q42.5625,17.0469 42.6563,17 Q42.7656,16.9531 43.2188,16.3594 L43.9844,20.0938 L43.0938,20.3594 Q42.6406,18.9063 42.0313,18.3125 Q41.4375,17.7031 40.4844,17.7031 Q39.2656,17.7031 38.5469,19.1406 Q37.8281,20.5625 37.8281,22.75 Q37.8281,25.1563 38.4375,26.4531 Q39.0625,27.7344 40.4219,27.7344 Q41.375,27.7344 42.0625,27.0469 Q42.75,26.3438 43.0781,24.8438 L43.9844,25.25 Q43.5781,26.9531 42.6094,27.9063 Q41.6563,28.8594 40.3438,28.8594 Z " fill="#000000"/><text fill="#000000" font-family="sans-serif" font-size="14" lengthAdjust="spacing" textLength="52" x="55" y="29.4839">Penguin</text><line style="stroke:#181818;stroke-width:0.5;" x1="27" x2="109" y1="39" y2="39"/><line style="stroke:#181818;stroke-width:0.5;" x1="27" x2="109" y1="47" y2="47"/></g><!--link Krill to Phytoplankton--><g id="link_Krill_Phytoplankton"><path codeLine="1" d="M68,182.22 C68,204.67 68,232.5 68,254.91 " fill="none" id="Krill-to-Phytoplankton" style="stroke:#181818;stroke-width:1.0;stroke-dasharray:7.0,7.0;"/><polygon fill="#181818" points="68,260.91,72,251.91,68,255.91,64,251.91,68,260.91" style="stroke:#181818;stroke-width:1.0;"/><text fill="#000000" font-family="sans-serif" font-size="13" lengthAdjust="spacing" textLength="67" x="69" y="227.8979">depends on</text></g><!--link Penguin to Krill--><g id="link_Penguin_Krill"><path codeLine="2" d="M68,55.22 C68,77.67 68,105.5 68,127.91 " fill="none" id="Penguin-to-Krill" style="stroke:#181818;stroke-width:1.0;stroke-dasharray:7.0,7.0;"/><polygon fill="#181818" points="68,133.91,72,124.91,68,128.91,64,124.91,68,133.91" style="stroke:#181818;stroke-width:1.0;"/><text fill="#000000" font-family="sans-serif" font-size="13" lengthAdjust="spacing" textLength="67" x="69" y="100.8979">depends on</text></g><!--SRC=[yoxApCbHqDEpKmZ8g2p9ByX9pCikoSzJi598IIr8pKifLiZFumf8pKilpSm3A_C6Qq2M1W00]--></g></svg>