<?xml version="1.0" encoding="us-ascii" standalone="no"?><svg xmlns="http://www.w3.org/2000/svg" xmlns:xlink="http://www.w3.org/1999/xlink" contentStyleType="text/css" height="316px" preserveAspectRatio="none" style="width:183px;height:316px;background:#FFFFFF;" version="1.1" viewBox="0 0 183 316" width="183px" zoomAndPan="magnify"><defs/><g><!--class SeaIce--><g id="elem_SeaIce"><rect fill="#F1F1F1" height="48" id="SeaIce" rx="2.5" ry="2.5" style="stroke:#181818;stroke-width:0.5;" width="75" x="54" y="134"/><ellipse cx="69" cy="150" fill="#ADD1B2" rx="11" ry="11" style="stroke:#181818;stroke-width:1.0;"/><path d="M68.3438,155.8594 Q66.3594,155.8594 65.1875,154.3906 Q64.0313,152.9063 64.0313,149.8281 Q64.0313,147.2188 65.25,145.4688 Q66.4844,143.7188 68.6094,143.7188 Q69.1094,143.7188 69.6406,143.8594 Q70.0781,144.0469 70.3438,144.0469 Q70.5625,144.0469 70.6563,144 Q70.7656,143.9531 71.2188,143.3594 L71.9844,147.0938 L71.0938,147.3594 Q70.6406,145.9063 70.0313,145.3125 Q69.4375,144.7031 68.4844,144.7031 Q67.2656,144.7031 66.5469,146.1406 Q65.8281,147.5625 65.8281,149.75 Q65.8281,152.1563 66.4375,153.4531 Q67.0625,154.7344 68.4219,154.7344 Q69.375,154.7344 70.0625,154.0469 Q70.75,153.3438 71.0781,151.8438 L71.9844,152.25 Q71.5781,153.9531 70.6094,154.9063 Q69.6563,155.8594 68.3438,155.8594 Z " fill="#000000"/><text fill="#000000" font-family="sans-serif" font-size="14" lengthAdjust="spacing" textLength="43" x="83" y="156.4839">SeaIce</text><line style="stroke:#181818;stroke-width:0.5;" x1="55" x2="128" y1="166" y2="166"/><line style="stroke:#181818;stroke-width:0.5;" x1="55" x2="128" y1="174" y2="174"/></g><!--class IceAlbedo--><g id="elem_IceAlbedo"><rect fill="#F1F1F1" height="48" id="IceAlbedo" rx="2.5" ry="2.5" style="stroke:#181818;stroke-width:0.5;" width="94" x="44.5" y="261"/><ellipse cx="59.5" cy="277" fill="#ADD1B2" rx="11" ry="11" style="stroke:#181818;stroke-width:1.0;"/><path d="M58.8438,282.8594 Q56.8594,282.8594 55.6875,281.3906 Q54.5313,279.9063 54.5313,276.8281 Q54.5313,274.2188 55.75,272.4688 Q56.9844,270.7188 59.1094,270.7188 Q59.6094,270.7188 60.1406,270.8594 Q60.5781,271.0469 60.8438,271.0469 Q61.0625,271.0469 61.1563,271 Q61.2656,270.9531 61.7188,270.3594 L62.4844,274.0938 L61.5938,274.3594 Q61.1406,272.9063 60.5313,272.3125 Q59.9375,271.7031 58.9844,271.7031 Q57.7656,271.7031 57.0469,273.1406 Q56.3281,274.5625 56.3281,276.75 Q56.3281,279.1563 56.9375,280.4531 Q57.5625,281.7344 58.9219,281.7344 Q59.875,281.7344 60.5625,281.0469 Q61.25,280.3438 61.5781,278.8438 L62.4844,279.25 Q62.0781,280.9531 61.1094,281.9063 Q60.1563,282.8594 58.8438,282.8594 Z " fill="#000000"/><text fill="#000000" font-family="sans-serif" font-size="14" lengthAdjust="spacing" textLength="62" x="73.5" y="283.4839">IceAlbedo</text><line style="stroke:#181818;stroke-width:0.5;" x1="45.5" x2="137.5" y1="293" y2="293"/><line style="stroke:#181818;stroke-width:0.5;" x1="45.5" x2="137.5" y1="301" y2="301"/></g><!--class FreezingTemperature--><g id="elem_FreezingTemperature"><rect fill="#F1F1F1" height="48" id="FreezingTemperature" rx="2.5" ry="2.5" style="stroke:#181818;stroke-width:0.5;" width="169" x="7" y="7"/><ellipse cx="22" cy="23" fill="#ADD1B2" rx="11" ry="11" style="stroke:#181818;stroke-width:1.0;"/><path d="M21.3438,28.8594 Q19.3594,28.8594 18.1875,27.3906 Q17.0313,25.9063 17.0313,22.8281 Q17.0313,20.2188 18.25,18.4688 Q19.4844,16.7188 21.6094,16.7188 Q22.1094,16.7188 22.6406,16.8594 Q23.0781,17.0469 23.3438,17.0469 Q23.5625,17.0469 23.6563,17 Q23.7656,16.9531 24.2188,16.3594 L24.9844,20.0938 L24.0938,20.3594 Q23.6406,18.9063 23.0313,18.3125 Q22.4375,17.7031 21.4844,17.7031 Q20.2656,17.7031 19.5469,19.1406 Q18.8281,20.5625 18.8281,22.75 Q18.8281,25.1563 19.4375,26.4531 Q20.0625,27.7344 21.4219,27.7344 Q22.375,27.7344 23.0625,27.0469 Q23.75,26.3438 24.0781,24.8438 L24.9844,25.25 Q24.5781,26.9531 23.6094,27.9063 Q22.6563,28.8594 21.3438,28.8594 Z " fill="#000000"/><text fill="#000000" font-family="sans-serif" font-size="14" lengthAdjust="spacing" textLength="137" x="36" y="29.4839">FreezingTemperature</text><line style="stroke:#181818;stroke-width:0.5;" x1="8" x2="175" y1="39" y2="39"/><line style="stroke:#181818;stroke-width:0.5;" x1="8" x2="175" y1="47" y2="47"/></g><!--link SeaIce to IceAlbedo--><g id="link_SeaIce_IceAlbedo"><path codeLine="1" d="M91.5,182.22 C91.5,204.67 91.5,232.5 91.5,254.91 " fill="none" id="SeaIce-to-IceAlbedo" style="stroke:#181818;stroke-width:1.0;stroke-dasharray:7.0,7.0;"/><polygon fill="#181818" points="91.5,260.91,95.5,251.91,91.5,255.91,87.5,251.91,91.5,260.91" style="stroke:#181818;stroke-width:1.0;"/><text fill="#000000" font-family="sans-serif" font-size="13" lengthAdjust="spacing" textLength="67" x="92.5" y="227.8979">depends on</text></g><!--link FreezingTemperature to SeaIce--><g id="link_FreezingTemperature_SeaIce"><path codeLine="2" d="M91.5,55.22 C91.5,77.67 91.5,105.5 91.5,127.91 " fill="none" id="FreezingTemperature-to-SeaIce" style="stroke:#181818;stroke-width:1.0;stroke-dasharray:7.0,7.0;"/><polygon fill="#181818" points="91.5,133.91,95.5,124.91,91.5,128.91,87.5,124.91,91.5,133.91" style="stroke:#181818;stroke-width:1.0;"/><text fill="#000000" font-family="sans-serif" font-size="13" lengthAdjust="spacing" textLength="67" x="92.5" y="100.8979">depends on</text></g><!--SRC=[2qvDz4nELT3JirC0qeuvIQaf-GfM2Ycf1QbvASKA-NbSRaMfgLMPUUaXgRa5gKM99QL54EN149t8QW40]--></g></svg>