<?xml version="1.0" encoding="us-ascii" standalone="no"?><svg xmlns="http://www.w3.org/2000/svg" xmlns:xlink="http://www.w3.org/1999/xlink" contentStyleType="text/css" height="316px" preserveAspectRatio="none" style="width:199px;height:316px;background:#FFFFFF;" version="1.1" viewBox="0 0 199 316" width="199px" zoomAndPan="magnify"><defs/><g><!--class WarmOceanSeaSurface--><g id="elem_WarmOceanSeaSurface"><rect fill="#F1F1F1" height="48" id="WarmOceanSeaSurface" rx="2.5" ry="2.5" style="stroke:#181818;stroke-width:0.5;" width="185" x="7" y="134"/><ellipse cx="22" cy="150" fill="#ADD1B2" rx="11" ry="11" style="stroke:#181818;stroke-width:1.0;"/><path d="M21.3438,155.8594 Q19.3594,155.8594 18.1875,154.3906 Q17.0313,152.9063 17.0313,149.8281 Q17.0313,147.2188 18.25,145.4688 Q19.4844,143.7188 21.6094,143.7188 Q22.1094,143.7188 22.6406,143.8594 Q23.0781,144.0469 23.3438,144.0469 Q23.5625,144.0469 23.6563,144 Q23.7656,143.9531 24.2188,143.3594 L24.9844,147.0938 L24.0938,147.3594 Q23.6406,145.9063 23.0313,145.3125 Q22.4375,144.7031 21.4844,144.7031 Q20.2656,144.7031 19.5469,146.1406 Q18.8281,147.5625 18.8281,149.75 Q18.8281,152.1563 19.4375,153.4531 Q20.0625,154.7344 21.4219,154.7344 Q22.375,154.7344 23.0625,154.0469 Q23.75,153.3438 24.0781,151.8438 L24.9844,152.25 Q24.5781,153.9531 23.6094,154.9063 Q22.6563,155.8594 21.3438,155.8594 Z " fill="#000000"/><text fill="#000000" font-family="sans-serif" font-size="14" lengthAdjust="spacing" textLength="153" x="36" y="156.4839">WarmOceanSeaSurface</text><line style="stroke:#181818;stroke-width:0.5;" x1="8" x2="191" y1="166" y2="166"/><line style="stroke:#181818;stroke-width:0.5;" x1="8" x2="191" y1="174" y2="174"/></g><!--class Hurricane--><g id="elem_Hurricane"><rect fill="#F1F1F1" height="48" id="Hurricane" rx="2.5" ry="2.5" style="stroke:#181818;stroke-width:0.5;" width="93" x="53" y="261"/><ellipse cx="68" cy="277" fill="#ADD1B2" rx="11" ry="11" style="stroke:#181818;stroke-width:1.0;"/><path d="M67.3438,282.8594 Q65.3594,282.8594 64.1875,281.3906 Q63.0313,279.9063 63.0313,276.8281 Q63.0313,274.2188 64.25,272.4688 Q65.4844,270.7188 67.6094,270.7188 Q68.1094,270.7188 68.6406,270.8594 Q69.0781,271.0469 69.3438,271.0469 Q69.5625,271.0469 69.6563,271 Q69.7656,270.9531 70.2188,270.3594 L70.9844,274.0938 L70.0938,274.3594 Q69.6406,272.9063 69.0313,272.3125 Q68.4375,271.7031 67.4844,271.7031 Q66.2656,271.7031 65.5469,273.1406 Q64.8281,274.5625 64.8281,276.75 Q64.8281,279.1563 65.4375,280.4531 Q66.0625,281.7344 67.4219,281.7344 Q68.375,281.7344 69.0625,281.0469 Q69.75,280.3438 70.0781,278.8438 L70.9844,279.25 Q70.5781,280.9531 69.6094,281.9063 Q68.6563,282.8594 67.3438,282.8594 Z " fill="#000000"/><text fill="#000000" font-family="sans-serif" font-size="14" lengthAdjust="spacing" textLength="61" x="82" y="283.4839">Hurricane</text><line style="stroke:#181818;stroke-width:0.5;" x1="54" x2="145" y1="293" y2="293"/><line style="stroke:#181818;stroke-width:0.5;" x1="54" x2="145" y1="301" y2="301"/></g><!--class TropicalOcean--><g id="elem_TropicalOcean"><rect fill="#F1F1F1" height="48" id="TropicalOcean" rx="2.5" ry="2.5" style="stroke:#181818;stroke-width:0.5;" width="125" x="37" y="7"/><ellipse cx="52" cy="23" fill="#ADD1B2" rx="11" ry="11" style="stroke:#181818;stroke-width:1.0;"/><path d="M51.3438,28.8594 Q49.3594,28.8594 48.1875,27.3906 Q47.0313,25.9063 47.0313,22.8281 Q47.0313,20.2188 48.25,18.4688 Q49.4844,16.7188 51.6094,16.7188 Q52.1094,16.7188 52.6406,16.8594 Q53.0781,17.0469 53.3438,17.0469 Q53.5625,17.0469 53.6563,17 Q53.7656,16.9531 54.2188,16.3594 L54.9844,20.0938 L54.0938,20.3594 Q53.6406,18.9063 53.0313,18.3125 Q52.4375,17.7031 51.4844,17.7031 Q50.2656,17.7031 49.5469,19.1406 Q48.8281,20.5625 48.8281,22.75 Q48.8281,25.1563 49.4375,26.4531 Q50.0625,27.7344 51.4219,27.7344 Q52.375,27.7344 53.0625,27.0469 Q53.75,26.3438 54.0781,24.8438 L54.9844,25.25 Q54.5781,26.9531 53.6094,27.9063 Q52.6563,28.8594 51.3438,28.8594 Z " fill="#000000"/><text fill="#000000" font-family="sans-serif" font-size="14" lengthAdjust="spacing" textLength="93" x="66" y="29.4839">TropicalOcean</text><line style="stroke:#181818;stroke-width:0.5;" x1="38" x2="161" y1="39" y2="39"/><line style="stroke:#181818;stroke-width:0.5;" x1="38" x2="161" y1="47" y2="47"/></g><!--link WarmOceanSeaSurface to Hurricane--><g id="link_WarmOceanSeaSurface_Hurricane"><path codeLine="1" d="M99.5,182.22 C99.5,204.67 99.5,232.5 99.5,254.91 " fill="none" id="WarmOceanSeaSurface-to-Hurricane" style="stroke:#181818;stroke-width:1.0;stroke-dasharray:7.0,7.0;"/><polygon fill="#181818" points="99.5,260.91,103.5,251.91,99.5,255.91,95.5,251.91,99.5,260.91" style="stroke:#181818;stroke-width:1.0;"/><text fill="#000000" font-family="sans-serif" font-size="13" lengthAdjust="spacing" textLength="67" x="100.5" y="227.8979">depends on</text></g><!--link TropicalOcean to WarmOceanSeaSurface--><g id="link_TropicalOcean_WarmOceanSeaSurface"><path codeLine="2" d="M99.5,55.22 C99.5,77.67 99.5,105.5 99.5,127.91 " fill="none" id="TropicalOcean-to-WarmOceanSeaSurface" style="stroke:#181818;stroke-width:1.0;stroke-dasharray:7.0,7.0;"/><polygon fill="#181818" points="99.5,133.91,103.5,124.91,99.5,128.91,95.5,124.91,99.5,133.91" style="stroke:#181818;stroke-width:1.0;"/><text fill="#000000" font-family="sans-serif" font-size="13" lengthAdjust="spacing" textLength="67" x="100.5" y="100.8979">depends on</text></g><!--SRC=[2qyiolLFJatC2qvD32ujIajCJbNGqxDJy2WjAifCJinBLR1II4ajICrBALR8p-CAASel00hdWBM05OPZCG1P2m00]--></g></svg>