<?xml version="1.0" encoding="us-ascii" standalone="no"?><svg xmlns="http://www.w3.org/2000/svg" xmlns:xlink="http://www.w3.org/1999/xlink" contentStyleType="text/css" height="316px" preserveAspectRatio="none" style="width:182px;height:316px;background:#FFFFFF;" version="1.1" viewBox="0 0 182 316" width="182px" zoomAndPan="magnify"><defs/><g><!--class TemperatureContrast--><g id="elem_TemperatureContrast"><rect fill="#F1F1F1" height="48" id="TemperatureContrast" rx="2.5" ry="2.5" style="stroke:#181818;stroke-width:0.5;" width="168" x="7" y="134"/><ellipse cx="22" cy="150" fill="#ADD1B2" rx="11" ry="11" style="stroke:#181818;stroke-width:1.0;"/><path d="M21.3438,155.8594 Q19.3594,155.8594 18.1875,154.3906 Q17.0313,152.9063 17.0313,149.8281 Q17.0313,147.2188 18.25,145.4688 Q19.4844,143.7188 21.6094,143.7188 Q22.1094,143.7188 22.6406,143.8594 Q23.0781,144.0469 23.3438,144.0469 Q23.5625,144.0469 23.6563,144 Q23.7656,143.9531 24.2188,143.3594 L24.9844,147.0938 L24.0938,147.3594 Q23.6406,145.9063 23.0313,145.3125 Q22.4375,144.7031 21.4844,144.7031 Q20.2656,144.7031 19.5469,146.1406 Q18.8281,147.5625 18.8281,149.75 Q18.8281,152.1563 19.4375,153.4531 Q20.0625,154.7344 21.4219,154.7344 Q22.375,154.7344 23.0625,154.0469 Q23.75,153.3438 24.0781,151.8438 L24.9844,152.25 Q24.5781,153.9531 23.6094,154.9063 Q22.6563,155.8594 21.3438,155.8594 Z " fill="#000000"/><text fill="#000000" font-family="sans-serif" font-size="14" lengthAdjust="spacing" textLength="136" x="36" y="156.4839">TemperatureContrast</text><line style="stroke:#181818;stroke-width:0.5;" x1="8" x2="174" y1="166" y2="166"/><line style="stroke:#181818;stroke-width:0.5;" x1="8" x2="174" y1="174" y2="174"/></g><!--class SeaBreeze--><g id="elem_SeaBreeze"><rect fill="#F1F1F1" height="48" id="SeaBreeze" rx="2.5" ry="2.5" style="stroke:#181818;stroke-width:0.5;" width="101" x="40.5" y="261"/><ellipse cx="55.5" cy="277" fill="#ADD1B2" rx="11" ry="11" style="stroke:#181818;stroke-width:1.0;"/><path d="M54.8438,282.8594 Q52.8594,282.8594 51.6875,281.3906 Q50.5313,279.9063 50.5313,276.8281 Q50.5313,274.2188 51.75,272.4688 Q52.9844,270.7188 55.1094,270.7188 Q55.6094,270.7188 56.1406,270.8594 Q56.5781,271.0469 56.8438,271.0469 Q57.0625,271.0469 57.1563,271 Q57.2656,270.9531 57.7188,270.3594 L58.4844,274.0938 L57.5938,274.3594 Q57.1406,272.9063 56.5313,272.3125 Q55.9375,271.7031 54.9844,271.7031 Q53.7656,271.7031 53.0469,273.1406 Q52.3281,274.5625 52.3281,276.75 Q52.3281,279.1563 52.9375,280.4531 Q53.5625,281.7344 54.9219,281.7344 Q55.875,281.7344 56.5625,281.0469 Q57.25,280.3438 57.5781,278.8438 L58.4844,279.25 Q58.0781,280.9531 57.1094,281.9063 Q56.1563,282.8594 54.8438,282.8594 Z " fill="#000000"/><text fill="#000000" font-family="sans-serif" font-size="14" lengthAdjust="spacing" textLength="69" x="69.5" y="283.4839">SeaBreeze</text><line style="stroke:#181818;stroke-width:0.5;" x1="41.5" x2="140.5" y1="293" y2="293"/><line style="stroke:#181818;stroke-width:0.5;" x1="41.5" x2="140.5" y1="301" y2="301"/></g><!--class Sunlight--><g id="elem_Sunlight"><rect fill="#F1F1F1" height="48" id="Sunlight" rx="2.5" ry="2.5" style="stroke:#181818;stroke-width:0.5;" width="83" x="49.5" y="7"/><ellipse cx="64.5" cy="23" fill="#ADD1B2" rx="11" ry="11" style="stroke:#181818;stroke-width:1.0;"/><path d="M63.8438,28.8594 Q61.8594,28.8594 60.6875,27.3906 Q59.5313,25.9063 59.5313,22.8281 Q59.5313,20.2188 60.75,18.4688 Q61.9844,16.7188 64.1094,16.7188 Q64.6094,16.7188 65.1406,16.8594 Q65.5781,17.0469 65.8438,17.0469 Q66.0625,17.0469 66.1563,17 Q66.2656,16.9531 66.7188,16.3594 L67.4844,20.0938 L66.5938,20.3594 Q66.1406,18.9063 65.5313,18.3125 Q64.9375,17.7031 63.9844,17.7031 Q62.7656,17.7031 62.0469,19.1406 Q61.3281,20.5625 61.3281,22.75 Q61.3281,25.1563 61.9375,26.4531 Q62.5625,27.7344 63.9219,27.7344 Q64.875,27.7344 65.5625,27.0469 Q66.25,26.3438 66.5781,24.8438 L67.4844,25.25 Q67.0781,26.9531 66.1094,27.9063 Q65.1563,28.8594 63.8438,28.8594 Z " fill="#000000"/><text fill="#000000" font-family="sans-serif" font-size="14" lengthAdjust="spacing" textLength="51" x="78.5" y="29.4839">Sunlight</text><line style="stroke:#181818;stroke-width:0.5;" x1="50.5" x2="131.5" y1="39" y2="39"/><line style="stroke:#181818;stroke-width:0.5;" x1="50.5" x2="131.5" y1="47" y2="47"/></g><!--link TemperatureContrast to SeaBreeze--><g id="link_TemperatureContrast_SeaBreeze"><path codeLine="1" d="M91,182.22 C91,204.67 91,232.5 91,254.91 " fill="none" id="TemperatureContrast-to-SeaBreeze" style="stroke:#181818;stroke-width:1.0;stroke-dasharray:7.0,7.0;"/><polygon fill="#181818" points="91,260.91,95,251.91,91,255.91,87,251.91,91,260.91" style="stroke:#181818;stroke-width:1.0;"/><text fill="#000000" font-family="sans-serif" font-size="13" lengthAdjust="spacing" textLength="67" x="92" y="227.8979">depends on</text></g><!--link Sunlight to TemperatureContrast--><g id="link_Sunlight_TemperatureContrast"><path codeLine="2" d="M91,55.22 C91,77.67 91,105.5 91,127.91 " fill="none" id="Sunlight-to-TemperatureContrast" style="stroke:#181818;stroke-width:1.0;stroke-dasharray:7.0,7.0;"/><polygon fill="#181818" points="91,133.91,95,124.91,91,128.91,87,124.91,91,133.91" style="stroke:#181818;stroke-width:1.0;"/><text fill="#000000" font-family="sans-serif" font-size="13" lengthAdjust="spacing" textLength="67" x="92" y="100.8979">depends on</text></g><!--SRC=[2qdDBKWjIYmfBKfrpiyhAKeiBb7GqxDJ24vDT2fAJQrALR1II4ajICrBALR8p-CABitBoKpFWAW9mQ8NMJK0]--></g></svg>