<?xml version="1.0" encoding="us-ascii" standalone="no"?><svg xmlns="http://www.w3.org/2000/svg" xmlns:xlink="http://www.w3.org/1999/xlink" contentStyleType="text/css" height="189px" preserveAspectRatio="none" style="width:118px;height:189px;background:#FFFFFF;" version="1.1" viewBox="0 0 118 189" width="118px" zoomAndPan="magnify"><defs/><g><!--class Goldfish--><g id="elem_Goldfish"><rect fill="#F1F1F1" height="48" id="Goldfish" rx="2.5" ry="2.5" style="stroke:#181818;stroke-width:0.5;" width="84" x="7" y="7"/><ellipse cx="22" cy="23" fill="#ADD1B2" rx="11" ry="11" style="stroke:#181818;stroke-width:1.0;"/><path d="M21.3438,28.8594 Q19.3594,28.8594 18.1875,27.3906 Q17.0313,25.9063 17.0313,22.8281 Q17.0313,20.2188 18.25,18.4688 Q19.4844,16.7188 21.6094,16.7188 Q22.1094,16.7188 22.6406,16.8594 Q23.0781,17.0469 23.3438,17.0469 Q23.5625,17.0469 23.6563,17 Q23.7656,16.9531 24.2188,16.3594 L24.9844,20.0938 L24.0938,20.3594 Q23.6406,18.9063 23.0313,18.3125 Q22.4375,17.7031 21.4844,17.7031 Q20.2656,17.7031 19.5469,19.1406 Q18.8281,20.5625 18.8281,22.75 Q18.8281,25.1563 19.4375,26.4531 Q20.0625,27.7344 21.4219,27.7344 Q22.375,27.7344 23.0625,27.0469 Q23.75,26.3438 24.0781,24.8438 L24.9844,25.25 Q24.5781,26.9531 23.6094,27.9063 Q22.6563,28.8594 21.3438,28.8594 Z " fill="#000000"/><text fill="#000000" font-family="sans-serif" font-size="14" lengthAdjust="spacing" textLength="52" x="36" y="29.4839">Goldfish</text><line style="stroke:#181818;stroke-width:0.5;" x1="8" x2="90" y1="39" y2="39"/><line style="stroke:#181818;stroke-width:0.5;" x1="8" x2="90" y1="47" y2="47"/></g><!--class Fin--><g id="elem_Fin"><rect fill="#F1F1F1" height="48" id="Fin" rx="2.5" ry="2.5" style="stroke:#181818;stroke-width:0.5;" width="52" x="23" y="134"/><ellipse cx="38" cy="150" fill="#ADD1B2" rx="11" ry="11" style="stroke:#181818;stroke-width:1.0;"/><path d="M37.3438,155.8594 Q35.3594,155.8594 34.1875,154.3906 Q33.0313,152.9063 33.0313,149.8281 Q33.0313,147.2188 34.25,145.4688 Q35.4844,143.7188 37.6094,143.7188 Q38.1094,143.7188 38.6406,143.8594 Q39.0781,144.0469 39.3438,144.0469 Q39.5625,144.0469 39.6563,144 Q39.7656,143.9531 40.2188,143.3594 L40.9844,147.0938 L40.0938,147.3594 Q39.6406,145.9063 39.0313,145.3125 Q38.4375,144.7031 37.4844,144.7031 Q36.2656,144.7031 35.5469,146.1406 Q34.8281,147.5625 34.8281,149.75 Q34.8281,152.1563 35.4375,153.4531 Q36.0625,154.7344 37.4219,154.7344 Q38.375,154.7344 39.0625,154.0469 Q39.75,153.3438 40.0781,151.8438 L40.9844,152.25 Q40.5781,153.9531 39.6094,154.9063 Q38.6563,155.8594 37.3438,155.8594 Z " fill="#000000"/><text fill="#000000" font-family="sans-serif" font-size="14" lengthAdjust="spacing" textLength="20" x="52" y="156.4839">Fin</text><line style="stroke:#181818;stroke-width:0.5;" x1="24" x2="74" y1="166" y2="166"/><line style="stroke:#181818;stroke-width:0.5;" x1="24" x2="74" y1="174" y2="174"/></g><!--reverse link Goldfish to Fin--><g id="link_Goldfish_Fin"><path codeLine="1" d="M49,67.22 C49,89.67 49,111.5 49,133.91 " fill="none" id="Goldfish-backto-Fin" style="stroke:#181818;stroke-width:1.0;"/><polygon fill="#181818" points="49,55.22,45,61.22,49,67.22,53,61.22,49,55.22" style="stroke:#181818;stroke-width:1.0;"/><text fill="#000000" font-family="sans-serif" font-size="13" lengthAdjust="spacing" textLength="60" x="50" y="100.8979">composes</text></g><!--SRC=[Sy_FIKdBBCvGqDBLLN3Bp5EmKaZEpot8Bquj1W00]--></g></svg>