<?xml version="1.0" encoding="us-ascii" standalone="no"?><svg xmlns="http://www.w3.org/2000/svg" xmlns:xlink="http://www.w3.org/1999/xlink" contentStyleType="text/css" height="316px" preserveAspectRatio="none" style="width:144px;height:316px;background:#FFFFFF;" version="1.1" viewBox="0 0 144 316" width="144px" zoomAndPan="magnify"><defs/><g><!--class Box--><g id="elem_Box"><rect fill="#F1F1F1" height="48" id="Box" rx="2.5" ry="2.5" style="stroke:#181818;stroke-width:0.5;" width="55" x="44" y="134"/><ellipse cx="59" cy="150" fill="#ADD1B2" rx="11" ry="11" style="stroke:#181818;stroke-width:1.0;"/><path d="M58.3438,155.8594 Q56.3594,155.8594 55.1875,154.3906 Q54.0313,152.9063 54.0313,149.8281 Q54.0313,147.2188 55.25,145.4688 Q56.4844,143.7188 58.6094,143.7188 Q59.1094,143.7188 59.6406,143.8594 Q60.0781,144.0469 60.3438,144.0469 Q60.5625,144.0469 60.6563,144 Q60.7656,143.9531 61.2188,143.3594 L61.9844,147.0938 L61.0938,147.3594 Q60.6406,145.9063 60.0313,145.3125 Q59.4375,144.7031 58.4844,144.7031 Q57.2656,144.7031 56.5469,146.1406 Q55.8281,147.5625 55.8281,149.75 Q55.8281,152.1563 56.4375,153.4531 Q57.0625,154.7344 58.4219,154.7344 Q59.375,154.7344 60.0625,154.0469 Q60.75,153.3438 61.0781,151.8438 L61.9844,152.25 Q61.5781,153.9531 60.6094,154.9063 Q59.6563,155.8594 58.3438,155.8594 Z " fill="#000000"/><text fill="#000000" font-family="sans-serif" font-size="14" lengthAdjust="spacing" textLength="23" x="73" y="156.4839">Box</text><line style="stroke:#181818;stroke-width:0.5;" x1="45" x2="98" y1="166" y2="166"/><line style="stroke:#181818;stroke-width:0.5;" x1="45" x2="98" y1="174" y2="174"/></g><!--class ChocolateBar--><g id="elem_ChocolateBar"><rect fill="#F1F1F1" height="48" id="ChocolateBar" rx="2.5" ry="2.5" style="stroke:#181818;stroke-width:0.5;" width="118" x="12.5" y="261"/><ellipse cx="27.5" cy="277" fill="#ADD1B2" rx="11" ry="11" style="stroke:#181818;stroke-width:1.0;"/><path d="M26.8438,282.8594 Q24.8594,282.8594 23.6875,281.3906 Q22.5313,279.9063 22.5313,276.8281 Q22.5313,274.2188 23.75,272.4688 Q24.9844,270.7188 27.1094,270.7188 Q27.6094,270.7188 28.1406,270.8594 Q28.5781,271.0469 28.8438,271.0469 Q29.0625,271.0469 29.1563,271 Q29.2656,270.9531 29.7188,270.3594 L30.4844,274.0938 L29.5938,274.3594 Q29.1406,272.9063 28.5313,272.3125 Q27.9375,271.7031 26.9844,271.7031 Q25.7656,271.7031 25.0469,273.1406 Q24.3281,274.5625 24.3281,276.75 Q24.3281,279.1563 24.9375,280.4531 Q25.5625,281.7344 26.9219,281.7344 Q27.875,281.7344 28.5625,281.0469 Q29.25,280.3438 29.5781,278.8438 L30.4844,279.25 Q30.0781,280.9531 29.1094,281.9063 Q28.1563,282.8594 26.8438,282.8594 Z " fill="#000000"/><text fill="#000000" font-family="sans-serif" font-size="14" lengthAdjust="spacing" textLength="86" x="41.5" y="283.4839">ChocolateBar</text><line style="stroke:#181818;stroke-width:0.5;" x1="13.5" x2="129.5" y1="293" y2="293"/><line style="stroke:#181818;stroke-width:0.5;" x1="13.5" x2="129.5" y1="301" y2="301"/></g><!--class ChocolateShop--><g id="elem_ChocolateShop"><rect fill="#F1F1F1" height="48" id="ChocolateShop" rx="2.5" ry="2.5" style="stroke:#181818;stroke-width:0.5;" width="129" x="7" y="7"/><ellipse cx="22" cy="23" fill="#ADD1B2" rx="11" ry="11" style="stroke:#181818;stroke-width:1.0;"/><path d="M21.3438,28.8594 Q19.3594,28.8594 18.1875,27.3906 Q17.0313,25.9063 17.0313,22.8281 Q17.0313,20.2188 18.25,18.4688 Q19.4844,16.7188 21.6094,16.7188 Q22.1094,16.7188 22.6406,16.8594 Q23.0781,17.0469 23.3438,17.0469 Q23.5625,17.0469 23.6563,17 Q23.7656,16.9531 24.2188,16.3594 L24.9844,20.0938 L24.0938,20.3594 Q23.6406,18.9063 23.0313,18.3125 Q22.4375,17.7031 21.4844,17.7031 Q20.2656,17.7031 19.5469,19.1406 Q18.8281,20.5625 18.8281,22.75 Q18.8281,25.1563 19.4375,26.4531 Q20.0625,27.7344 21.4219,27.7344 Q22.375,27.7344 23.0625,27.0469 Q23.75,26.3438 24.0781,24.8438 L24.9844,25.25 Q24.5781,26.9531 23.6094,27.9063 Q22.6563,28.8594 21.3438,28.8594 Z " fill="#000000"/><text fill="#000000" font-family="sans-serif" font-size="14" lengthAdjust="spacing" textLength="97" x="36" y="29.4839">ChocolateShop</text><line style="stroke:#181818;stroke-width:0.5;" x1="8" x2="135" y1="39" y2="39"/><line style="stroke:#181818;stroke-width:0.5;" x1="8" x2="135" y1="47" y2="47"/></g><!--reverse link Box to ChocolateBar--><g id="link_Box_ChocolateBar"><path codeLine="1" d="M71.5,194.22 C71.5,216.67 71.5,238.5 71.5,260.91 " fill="none" id="Box-backto-ChocolateBar" style="stroke:#181818;stroke-width:1.0;"/><polygon fill="none" points="71.5,182.22,67.5,188.22,71.5,194.22,75.5,188.22,71.5,182.22" style="stroke:#181818;stroke-width:1.0;"/><text fill="#000000" font-family="sans-serif" font-size="13" lengthAdjust="spacing" textLength="64" x="72.5" y="227.8979">aggregates</text></g><!--reverse link ChocolateShop to Box--><g id="link_ChocolateShop_Box"><path codeLine="2" d="M71.5,67.22 C71.5,89.67 71.5,111.5 71.5,133.91 " fill="none" id="ChocolateShop-backto-Box" style="stroke:#181818;stroke-width:1.0;"/><polygon fill="none" points="71.5,55.22,67.5,61.22,71.5,67.22,75.5,61.22,71.5,55.22" style="stroke:#181818;stroke-width:1.0;"/><text fill="#000000" font-family="sans-serif" font-size="13" lengthAdjust="spacing" textLength="64" x="72.5" y="100.8979">aggregates</text></g><!--SRC=[SyglKCZNrLLmpiXFpiz9B4brIYnIi598J4ylIaq7Sekvu3B16Va5OBLEG3t8IW00]--></g></svg>