<?xml version="1.0" encoding="us-ascii" standalone="no"?><svg xmlns="http://www.w3.org/2000/svg" xmlns:xlink="http://www.w3.org/1999/xlink" contentStyleType="text/css" height="316px" preserveAspectRatio="none" style="width:142px;height:316px;background:#FFFFFF;" version="1.1" viewBox="0 0 142 316" width="142px" zoomAndPan="magnify"><defs/><g><!--class Box--><g id="elem_Box"><rect fill="#F1F1F1" height="48" id="Box" rx="2.5" ry="2.5" style="stroke:#181818;stroke-width:0.5;" width="55" x="41.5" y="134"/><ellipse cx="56.5" cy="150" fill="#ADD1B2" rx="11" ry="11" style="stroke:#181818;stroke-width:1.0;"/><path d="M55.8438,155.8594 Q53.8594,155.8594 52.6875,154.3906 Q51.5313,152.9063 51.5313,149.8281 Q51.5313,147.2188 52.75,145.4688 Q53.9844,143.7188 56.1094,143.7188 Q56.6094,143.7188 57.1406,143.8594 Q57.5781,144.0469 57.8438,144.0469 Q58.0625,144.0469 58.1563,144 Q58.2656,143.9531 58.7188,143.3594 L59.4844,147.0938 L58.5938,147.3594 Q58.1406,145.9063 57.5313,145.3125 Q56.9375,144.7031 55.9844,144.7031 Q54.7656,144.7031 54.0469,146.1406 Q53.3281,147.5625 53.3281,149.75 Q53.3281,152.1563 53.9375,153.4531 Q54.5625,154.7344 55.9219,154.7344 Q56.875,154.7344 57.5625,154.0469 Q58.25,153.3438 58.5781,151.8438 L59.4844,152.25 Q59.0781,153.9531 58.1094,154.9063 Q57.1563,155.8594 55.8438,155.8594 Z " fill="#000000"/><text fill="#000000" font-family="sans-serif" font-size="14" lengthAdjust="spacing" textLength="23" x="70.5" y="156.4839">Box</text><line style="stroke:#181818;stroke-width:0.5;" x1="42.5" x2="95.5" y1="166" y2="166"/><line style="stroke:#181818;stroke-width:0.5;" x1="42.5" x2="95.5" y1="174" y2="174"/></g><!--class ChocolateBar--><g id="elem_ChocolateBar"><rect fill="#F1F1F1" height="48" id="ChocolateBar" rx="2.5" ry="2.5" style="stroke:#181818;stroke-width:0.5;" width="118" x="10" y="261"/><ellipse cx="25" cy="277" fill="#ADD1B2" rx="11" ry="11" style="stroke:#181818;stroke-width:1.0;"/><path d="M24.3438,282.8594 Q22.3594,282.8594 21.1875,281.3906 Q20.0313,279.9063 20.0313,276.8281 Q20.0313,274.2188 21.25,272.4688 Q22.4844,270.7188 24.6094,270.7188 Q25.1094,270.7188 25.6406,270.8594 Q26.0781,271.0469 26.3438,271.0469 Q26.5625,271.0469 26.6563,271 Q26.7656,270.9531 27.2188,270.3594 L27.9844,274.0938 L27.0938,274.3594 Q26.6406,272.9063 26.0313,272.3125 Q25.4375,271.7031 24.4844,271.7031 Q23.2656,271.7031 22.5469,273.1406 Q21.8281,274.5625 21.8281,276.75 Q21.8281,279.1563 22.4375,280.4531 Q23.0625,281.7344 24.4219,281.7344 Q25.375,281.7344 26.0625,281.0469 Q26.75,280.3438 27.0781,278.8438 L27.9844,279.25 Q27.5781,280.9531 26.6094,281.9063 Q25.6563,282.8594 24.3438,282.8594 Z " fill="#000000"/><text fill="#000000" font-family="sans-serif" font-size="14" lengthAdjust="spacing" textLength="86" x="39" y="283.4839">ChocolateBar</text><line style="stroke:#181818;stroke-width:0.5;" x1="11" x2="127" y1="293" y2="293"/><line style="stroke:#181818;stroke-width:0.5;" x1="11" x2="127" y1="301" y2="301"/></g><!--class MountainStore--><g id="elem_MountainStore"><rect fill="#F1F1F1" height="48" id="MountainStore" rx="2.5" ry="2.5" style="stroke:#181818;stroke-width:0.5;" width="124" x="7" y="7"/><ellipse cx="22" cy="23" fill="#ADD1B2" rx="11" ry="11" style="stroke:#181818;stroke-width:1.0;"/><path d="M21.3438,28.8594 Q19.3594,28.8594 18.1875,27.3906 Q17.0313,25.9063 17.0313,22.8281 Q17.0313,20.2188 18.25,18.4688 Q19.4844,16.7188 21.6094,16.7188 Q22.1094,16.7188 22.6406,16.8594 Q23.0781,17.0469 23.3438,17.0469 Q23.5625,17.0469 23.6563,17 Q23.7656,16.9531 24.2188,16.3594 L24.9844,20.0938 L24.0938,20.3594 Q23.6406,18.9063 23.0313,18.3125 Q22.4375,17.7031 21.4844,17.7031 Q20.2656,17.7031 19.5469,19.1406 Q18.8281,20.5625 18.8281,22.75 Q18.8281,25.1563 19.4375,26.4531 Q20.0625,27.7344 21.4219,27.7344 Q22.375,27.7344 23.0625,27.0469 Q23.75,26.3438 24.0781,24.8438 L24.9844,25.25 Q24.5781,26.9531 23.6094,27.9063 Q22.6563,28.8594 21.3438,28.8594 Z " fill="#000000"/><text fill="#000000" font-family="sans-serif" font-size="14" lengthAdjust="spacing" textLength="92" x="36" y="29.4839">MountainStore</text><line style="stroke:#181818;stroke-width:0.5;" x1="8" x2="130" y1="39" y2="39"/><line style="stroke:#181818;stroke-width:0.5;" x1="8" x2="130" y1="47" y2="47"/></g><!--reverse link Box to ChocolateBar--><g id="link_Box_ChocolateBar"><path codeLine="1" d="M69,194.22 C69,216.67 69,238.5 69,260.91 " fill="none" id="Box-backto-ChocolateBar" style="stroke:#181818;stroke-width:1.0;"/><polygon fill="none" points="69,182.22,65,188.22,69,194.22,73,188.22,69,182.22" style="stroke:#181818;stroke-width:1.0;"/><text fill="#000000" font-family="sans-serif" font-size="13" lengthAdjust="spacing" textLength="64" x="70" y="227.8979">aggregates</text></g><!--reverse link MountainStore to Box--><g id="link_MountainStore_Box"><path codeLine="2" d="M69,67.22 C69,89.67 69,111.5 69,133.91 " fill="none" id="MountainStore-backto-Box" style="stroke:#181818;stroke-width:1.0;"/><polygon fill="none" points="69,55.22,65,61.22,69,67.22,73,61.22,69,55.22" style="stroke:#181818;stroke-width:1.0;"/><text fill="#000000" font-family="sans-serif" font-size="13" lengthAdjust="spacing" textLength="64" x="70" y="100.8979">aggregates</text></g><!--SRC=[SyglKCZNrLLmpiXFpiz9B4brIYnIi598J4ylIaq7SekvVFDByqeIC_E2I_ABKi5gdO1wa9K00000]--></g></svg>