<?xml version="1.0" encoding="us-ascii" standalone="no"?><svg xmlns="http://www.w3.org/2000/svg" xmlns:xlink="http://www.w3.org/1999/xlink" contentStyleType="text/css" height="316px" preserveAspectRatio="none" style="width:138px;height:316px;background:#FFFFFF;" version="1.1" viewBox="0 0 138 316" width="138px" zoomAndPan="magnify"><defs/><g><!--class Crate--><g id="elem_Crate"><rect fill="#F1F1F1" height="48" id="Crate" rx="2.5" ry="2.5" style="stroke:#181818;stroke-width:0.5;" width="67" x="31.5" y="134"/><ellipse cx="46.5" cy="150" fill="#ADD1B2" rx="11" ry="11" style="stroke:#181818;stroke-width:1.0;"/><path d="M45.8438,155.8594 Q43.8594,155.8594 42.6875,154.3906 Q41.5313,152.9063 41.5313,149.8281 Q41.5313,147.2188 42.75,145.4688 Q43.9844,143.7188 46.1094,143.7188 Q46.6094,143.7188 47.1406,143.8594 Q47.5781,144.0469 47.8438,144.0469 Q48.0625,144.0469 48.1563,144 Q48.2656,143.9531 48.7188,143.3594 L49.4844,147.0938 L48.5938,147.3594 Q48.1406,145.9063 47.5313,145.3125 Q46.9375,144.7031 45.9844,144.7031 Q44.7656,144.7031 44.0469,146.1406 Q43.3281,147.5625 43.3281,149.75 Q43.3281,152.1563 43.9375,153.4531 Q44.5625,154.7344 45.9219,154.7344 Q46.875,154.7344 47.5625,154.0469 Q48.25,153.3438 48.5781,151.8438 L49.4844,152.25 Q49.0781,153.9531 48.1094,154.9063 Q47.1563,155.8594 45.8438,155.8594 Z " fill="#000000"/><text fill="#000000" font-family="sans-serif" font-size="14" lengthAdjust="spacing" textLength="35" x="60.5" y="156.4839">Crate</text><line style="stroke:#181818;stroke-width:0.5;" x1="32.5" x2="97.5" y1="166" y2="166"/><line style="stroke:#181818;stroke-width:0.5;" x1="32.5" x2="97.5" y1="174" y2="174"/></g><!--class CoffeeBean--><g id="elem_CoffeeBean"><rect fill="#F1F1F1" height="48" id="CoffeeBean" rx="2.5" ry="2.5" style="stroke:#181818;stroke-width:0.5;" width="107" x="11.5" y="261"/><ellipse cx="26.5" cy="277" fill="#ADD1B2" rx="11" ry="11" style="stroke:#181818;stroke-width:1.0;"/><path d="M25.8438,282.8594 Q23.8594,282.8594 22.6875,281.3906 Q21.5313,279.9063 21.5313,276.8281 Q21.5313,274.2188 22.75,272.4688 Q23.9844,270.7188 26.1094,270.7188 Q26.6094,270.7188 27.1406,270.8594 Q27.5781,271.0469 27.8438,271.0469 Q28.0625,271.0469 28.1563,271 Q28.2656,270.9531 28.7188,270.3594 L29.4844,274.0938 L28.5938,274.3594 Q28.1406,272.9063 27.5313,272.3125 Q26.9375,271.7031 25.9844,271.7031 Q24.7656,271.7031 24.0469,273.1406 Q23.3281,274.5625 23.3281,276.75 Q23.3281,279.1563 23.9375,280.4531 Q24.5625,281.7344 25.9219,281.7344 Q26.875,281.7344 27.5625,281.0469 Q28.25,280.3438 28.5781,278.8438 L29.4844,279.25 Q29.0781,280.9531 28.1094,281.9063 Q27.1563,282.8594 25.8438,282.8594 Z " fill="#000000"/><text fill="#000000" font-family="sans-serif" font-size="14" lengthAdjust="spacing" textLength="75" x="40.5" y="283.4839">CoffeeBean</text><line style="stroke:#181818;stroke-width:0.5;" x1="12.5" x2="117.5" y1="293" y2="293"/><line style="stroke:#181818;stroke-width:0.5;" x1="12.5" x2="117.5" y1="301" y2="301"/></g><!--class ForestMarket--><g id="elem_ForestMarket"><rect fill="#F1F1F1" height="48" id="ForestMarket" rx="2.5" ry="2.5" style="stroke:#181818;stroke-width:0.5;" width="116" x="7" y="7"/><ellipse cx="22" cy="23" fill="#ADD1B2" rx="11" ry="11" style="stroke:#181818;stroke-width:1.0;"/><path d="M21.3438,28.8594 Q19.3594,28.8594 18.1875,27.3906 Q17.0313,25.9063 17.0313,22.8281 Q17.0313,20.2188 18.25,18.4688 Q19.4844,16.7188 21.6094,16.7188 Q22.1094,16.7188 22.6406,16.8594 Q23.0781,17.0469 23.3438,17.0469 Q23.5625,17.0469 23.6563,17 Q23.7656,16.9531 24.2188,16.3594 L24.9844,20.0938 L24.0938,20.3594 Q23.6406,18.9063 23.0313,18.3125 Q22.4375,17.7031 21.4844,17.7031 Q20.2656,17.7031 19.5469,19.1406 Q18.8281,20.5625 18.8281,22.75 Q18.8281,25.1563 19.4375,26.4531 Q20.0625,27.7344 21.4219,27.7344 Q22.375,27.7344 23.0625,27.0469 Q23.75,26.3438 24.0781,24.8438 L24.9844,25.25 Q24.5781,26.9531 23.6094,27.9063 Q22.6563,28.8594 21.3438,28.8594 Z " fill="#000000"/><text fill="#000000" font-family="sans-serif" font-size="14" lengthAdjust="spacing" textLength="84" x="36" y="29.4839">ForestMarket</text><line style="stroke:#181818;stroke-width:0.5;" x1="8" x2="122" y1="39" y2="39"/><line style="stroke:#181818;stroke-width:0.5;" x1="8" x2="122" y1="47" y2="47"/></g><!--reverse link Crate to CoffeeBean--><g id="link_Crate_CoffeeBean"><path codeLine="1" d="M65,194.22 C65,216.67 65,238.5 65,260.91 " fill="none" id="Crate-backto-CoffeeBean" style="stroke:#181818;stroke-width:1.0;"/><polygon fill="none" points="65,182.22,61,188.22,65,194.22,69,188.22,65,182.22" style="stroke:#181818;stroke-width:1.0;"/><text fill="#000000" font-family="sans-serif" font-size="13" lengthAdjust="spacing" textLength="64" x="66" y="227.8979">aggregates</text></g><!--reverse link ForestMarket to Crate--><g id="link_ForestMarket_Crate"><path codeLine="2" d="M65,67.22 C65,89.67 65,111.5 65,133.91 " fill="none" id="ForestMarket-backto-Crate" style="stroke:#181818;stroke-width:1.0;"/><polygon fill="none" points="65,55.22,61,61.22,65,67.22,69,61.22,65,55.22" style="stroke:#181818;stroke-width:1.0;"/><text fill="#000000" font-family="sans-serif" font-size="13" lengthAdjust="spacing" textLength="64" x="66" y="100.8979">aggregates</text></g><!--SRC=[SovAB4bLoDVLLN3EJqjBJNLAJSnJi598J4ylIaq7IXLpkUKNfHQN-2OMPQUMG1I2jI2h0G00]--></g></svg>