<?xml version="1.0" encoding="us-ascii" standalone="no"?><svg xmlns="http://www.w3.org/2000/svg" xmlns:xlink="http://www.w3.org/1999/xlink" contentStyleType="text/css" height="316px" preserveAspectRatio="none" style="width:164px;height:316px;background:#FFFFFF;" version="1.1" viewBox="0 0 164 316" width="164px" zoomAndPan="magnify"><defs/><g><!--class StorageBin--><g id="elem_StorageBin"><rect fill="#F1F1F1" height="48" id="StorageBin" rx="2.5" ry="2.5" style="stroke:#181818;stroke-width:0.5;" width="102" x="31" y="134"/><ellipse cx="46" cy="150" fill="#ADD1B2" rx="11" ry="11" style="stroke:#181818;stroke-width:1.0;"/><path d="M45.3438,155.8594 Q43.3594,155.8594 42.1875,154.3906 Q41.0313,152.9063 41.0313,149.8281 Q41.0313,147.2188 42.25,145.4688 Q43.4844,143.7188 45.6094,143.7188 Q46.1094,143.7188 46.6406,143.8594 Q47.0781,144.0469 47.3438,144.0469 Q47.5625,144.0469 47.6563,144 Q47.7656,143.9531 48.2188,143.3594 L48.9844,147.0938 L48.0938,147.3594 Q47.6406,145.9063 47.0313,145.3125 Q46.4375,144.7031 45.4844,144.7031 Q44.2656,144.7031 43.5469,146.1406 Q42.8281,147.5625 42.8281,149.75 Q42.8281,152.1563 43.4375,153.4531 Q44.0625,154.7344 45.4219,154.7344 Q46.375,154.7344 47.0625,154.0469 Q47.75,153.3438 48.0781,151.8438 L48.9844,152.25 Q48.5781,153.9531 47.6094,154.9063 Q46.6563,155.8594 45.3438,155.8594 Z " fill="#000000"/><text fill="#000000" font-family="sans-serif" font-size="14" lengthAdjust="spacing" textLength="70" x="60" y="156.4839">StorageBin</text><line style="stroke:#181818;stroke-width:0.5;" x1="32" x2="132" y1="166" y2="166"/><line style="stroke:#181818;stroke-width:0.5;" x1="32" x2="132" y1="174" y2="174"/></g><!--class Blanket--><g id="elem_Blanket"><rect fill="#F1F1F1" height="48" id="Blanket" rx="2.5" ry="2.5" style="stroke:#181818;stroke-width:0.5;" width="79" x="42.5" y="261"/><ellipse cx="57.5" cy="277" fill="#ADD1B2" rx="11" ry="11" style="stroke:#181818;stroke-width:1.0;"/><path d="M56.8438,282.8594 Q54.8594,282.8594 53.6875,281.3906 Q52.5313,279.9063 52.5313,276.8281 Q52.5313,274.2188 53.75,272.4688 Q54.9844,270.7188 57.1094,270.7188 Q57.6094,270.7188 58.1406,270.8594 Q58.5781,271.0469 58.8438,271.0469 Q59.0625,271.0469 59.1563,271 Q59.2656,270.9531 59.7188,270.3594 L60.4844,274.0938 L59.5938,274.3594 Q59.1406,272.9063 58.5313,272.3125 Q57.9375,271.7031 56.9844,271.7031 Q55.7656,271.7031 55.0469,273.1406 Q54.3281,274.5625 54.3281,276.75 Q54.3281,279.1563 54.9375,280.4531 Q55.5625,281.7344 56.9219,281.7344 Q57.875,281.7344 58.5625,281.0469 Q59.25,280.3438 59.5781,278.8438 L60.4844,279.25 Q60.0781,280.9531 59.1094,281.9063 Q58.1563,282.8594 56.8438,282.8594 Z " fill="#000000"/><text fill="#000000" font-family="sans-serif" font-size="14" lengthAdjust="spacing" textLength="47" x="71.5" y="283.4839">Blanket</text><line style="stroke:#181818;stroke-width:0.5;" x1="43.5" x2="120.5" y1="293" y2="293"/><line style="stroke:#181818;stroke-width:0.5;" x1="43.5" x2="120.5" y1="301" y2="301"/></g><!--class WildlifeWarehouse--><g id="elem_WildlifeWarehouse"><rect fill="#F1F1F1" height="48" id="WildlifeWarehouse" rx="2.5" ry="2.5" style="stroke:#181818;stroke-width:0.5;" width="150" x="7" y="7"/><ellipse cx="22" cy="23" fill="#ADD1B2" rx="11" ry="11" style="stroke:#181818;stroke-width:1.0;"/><path d="M21.3438,28.8594 Q19.3594,28.8594 18.1875,27.3906 Q17.0313,25.9063 17.0313,22.8281 Q17.0313,20.2188 18.25,18.4688 Q19.4844,16.7188 21.6094,16.7188 Q22.1094,16.7188 22.6406,16.8594 Q23.0781,17.0469 23.3438,17.0469 Q23.5625,17.0469 23.6563,17 Q23.7656,16.9531 24.2188,16.3594 L24.9844,20.0938 L24.0938,20.3594 Q23.6406,18.9063 23.0313,18.3125 Q22.4375,17.7031 21.4844,17.7031 Q20.2656,17.7031 19.5469,19.1406 Q18.8281,20.5625 18.8281,22.75 Q18.8281,25.1563 19.4375,26.4531 Q20.0625,27.7344 21.4219,27.7344 Q22.375,27.7344 23.0625,27.0469 Q23.75,26.3438 24.0781,24.8438 L24.9844,25.25 Q24.5781,26.9531 23.6094,27.9063 Q22.6563,28.8594 21.3438,28.8594 Z " fill="#000000"/><text fill="#000000" font-family="sans-serif" font-size="14" lengthAdjust="spacing" textLength="118" x="36" y="29.4839">WildlifeWarehouse</text><line style="stroke:#181818;stroke-width:0.5;" x1="8" x2="156" y1="39" y2="39"/><line style="stroke:#181818;stroke-width:0.5;" x1="8" x2="156" y1="47" y2="47"/></g><!--reverse link StorageBin to Blanket--><g id="link_StorageBin_Blanket"><path codeLine="1" d="M82,194.22 C82,216.67 82,238.5 82,260.91 " fill="none" id="StorageBin-backto-Blanket" style="stroke:#181818;stroke-width:1.0;"/><polygon fill="none" points="82,182.22,78,188.22,82,194.22,86,188.22,82,182.22" style="stroke:#181818;stroke-width:1.0;"/><text fill="#000000" font-family="sans-serif" font-size="13" lengthAdjust="spacing" textLength="64" x="83" y="227.8979">aggregates</text></g><!--reverse link WildlifeWarehouse to StorageBin--><g id="link_WildlifeWarehouse_StorageBin"><path codeLine="2" d="M82,67.22 C82,89.67 82,111.5 82,133.91 " fill="none" id="WildlifeWarehouse-backto-StorageBin" style="stroke:#181818;stroke-width:1.0;"/><polygon fill="none" points="82,55.22,78,61.22,82,67.22,86,61.22,82,55.22" style="stroke:#181818;stroke-width:1.0;"/><text fill="#000000" font-family="sans-serif" font-size="13" lengthAdjust="spacing" textLength="64" x="83" y="100.8979">aggregates</text></g><!--SRC=[2ox9BqfCJtNAp5F8rzLLSCf9pCjEBL6mKaXCJozAJKyiIItc2i_CISd9J4iDJonApSWlBKu5Amr6w4HM3G00]--></g></svg>