<?xml version="1.0" encoding="us-ascii" standalone="no"?><svg xmlns="http://www.w3.org/2000/svg" xmlns:xlink="http://www.w3.org/1999/xlink" contentStyleType="text/css" height="316px" preserveAspectRatio="none" style="width:168px;height:316px;background:#FFFFFF;" version="1.1" viewBox="0 0 168 316" width="168px" zoomAndPan="magnify"><defs/><g><!--class StorageBin--><g id="elem_StorageBin"><rect fill="#F1F1F1" height="48" id="StorageBin" rx="2.5" ry="2.5" style="stroke:#181818;stroke-width:0.5;" width="102" x="33" y="134"/><ellipse cx="48" cy="150" fill="#ADD1B2" rx="11" ry="11" style="stroke:#181818;stroke-width:1.0;"/><path d="M47.3438,155.8594 Q45.3594,155.8594 44.1875,154.3906 Q43.0313,152.9063 43.0313,149.8281 Q43.0313,147.2188 44.25,145.4688 Q45.4844,143.7188 47.6094,143.7188 Q48.1094,143.7188 48.6406,143.8594 Q49.0781,144.0469 49.3438,144.0469 Q49.5625,144.0469 49.6563,144 Q49.7656,143.9531 50.2188,143.3594 L50.9844,147.0938 L50.0938,147.3594 Q49.6406,145.9063 49.0313,145.3125 Q48.4375,144.7031 47.4844,144.7031 Q46.2656,144.7031 45.5469,146.1406 Q44.8281,147.5625 44.8281,149.75 Q44.8281,152.1563 45.4375,153.4531 Q46.0625,154.7344 47.4219,154.7344 Q48.375,154.7344 49.0625,154.0469 Q49.75,153.3438 50.0781,151.8438 L50.9844,152.25 Q50.5781,153.9531 49.6094,154.9063 Q48.6563,155.8594 47.3438,155.8594 Z " fill="#000000"/><text fill="#000000" font-family="sans-serif" font-size="14" lengthAdjust="spacing" textLength="70" x="62" y="156.4839">StorageBin</text><line style="stroke:#181818;stroke-width:0.5;" x1="34" x2="134" y1="166" y2="166"/><line style="stroke:#181818;stroke-width:0.5;" x1="34" x2="134" y1="174" y2="174"/></g><!--class Blanket--><g id="elem_Blanket"><rect fill="#F1F1F1" height="48" id="Blanket" rx="2.5" ry="2.5" style="stroke:#181818;stroke-width:0.5;" width="79" x="44.5" y="261"/><ellipse cx="59.5" cy="277" fill="#ADD1B2" rx="11" ry="11" style="stroke:#181818;stroke-width:1.0;"/><path d="M58.8438,282.8594 Q56.8594,282.8594 55.6875,281.3906 Q54.5313,279.9063 54.5313,276.8281 Q54.5313,274.2188 55.75,272.4688 Q56.9844,270.7188 59.1094,270.7188 Q59.6094,270.7188 60.1406,270.8594 Q60.5781,271.0469 60.8438,271.0469 Q61.0625,271.0469 61.1563,271 Q61.2656,270.9531 61.7188,270.3594 L62.4844,274.0938 L61.5938,274.3594 Q61.1406,272.9063 60.5313,272.3125 Q59.9375,271.7031 58.9844,271.7031 Q57.7656,271.7031 57.0469,273.1406 Q56.3281,274.5625 56.3281,276.75 Q56.3281,279.1563 56.9375,280.4531 Q57.5625,281.7344 58.9219,281.7344 Q59.875,281.7344 60.5625,281.0469 Q61.25,280.3438 61.5781,278.8438 L62.4844,279.25 Q62.0781,280.9531 61.1094,281.9063 Q60.1563,282.8594 58.8438,282.8594 Z " fill="#000000"/><text fill="#000000" font-family="sans-serif" font-size="14" lengthAdjust="spacing" textLength="47" x="73.5" y="283.4839">Blanket</text><line style="stroke:#181818;stroke-width:0.5;" x1="45.5" x2="122.5" y1="293" y2="293"/><line style="stroke:#181818;stroke-width:0.5;" x1="45.5" x2="122.5" y1="301" y2="301"/></g><!--class FestivalWarehouse--><g id="elem_FestivalWarehouse"><rect fill="#F1F1F1" height="48" id="FestivalWarehouse" rx="2.5" ry="2.5" style="stroke:#181818;stroke-width:0.5;" width="154" x="7" y="7"/><ellipse cx="22" cy="23" fill="#ADD1B2" rx="11" ry="11" style="stroke:#181818;stroke-width:1.0;"/><path d="M21.3438,28.8594 Q19.3594,28.8594 18.1875,27.3906 Q17.0313,25.9063 17.0313,22.8281 Q17.0313,20.2188 18.25,18.4688 Q19.4844,16.7188 21.6094,16.7188 Q22.1094,16.7188 22.6406,16.8594 Q23.0781,17.0469 23.3438,17.0469 Q23.5625,17.0469 23.6563,17 Q23.7656,16.9531 24.2188,16.3594 L24.9844,20.0938 L24.0938,20.3594 Q23.6406,18.9063 23.0313,18.3125 Q22.4375,17.7031 21.4844,17.7031 Q20.2656,17.7031 19.5469,19.1406 Q18.8281,20.5625 18.8281,22.75 Q18.8281,25.1563 19.4375,26.4531 Q20.0625,27.7344 21.4219,27.7344 Q22.375,27.7344 23.0625,27.0469 Q23.75,26.3438 24.0781,24.8438 L24.9844,25.25 Q24.5781,26.9531 23.6094,27.9063 Q22.6563,28.8594 21.3438,28.8594 Z " fill="#000000"/><text fill="#000000" font-family="sans-serif" font-size="14" lengthAdjust="spacing" textLength="122" x="36" y="29.4839">FestivalWarehouse</text><line style="stroke:#181818;stroke-width:0.5;" x1="8" x2="160" y1="39" y2="39"/><line style="stroke:#181818;stroke-width:0.5;" x1="8" x2="160" y1="47" y2="47"/></g><!--reverse link StorageBin to Blanket--><g id="link_StorageBin_Blanket"><path codeLine="1" d="M84,194.22 C84,216.67 84,238.5 84,260.91 " fill="none" id="StorageBin-backto-Blanket" style="stroke:#181818;stroke-width:1.0;"/><polygon fill="none" points="84,182.22,80,188.22,84,194.22,88,188.22,84,182.22" style="stroke:#181818;stroke-width:1.0;"/><text fill="#000000" font-family="sans-serif" font-size="13" lengthAdjust="spacing" textLength="64" x="85" y="227.8979">aggregates</text></g><!--reverse link FestivalWarehouse to StorageBin--><g id="link_FestivalWarehouse_StorageBin"><path codeLine="2" d="M84,67.22 C84,89.67 84,111.5 84,133.91 " fill="none" id="FestivalWarehouse-backto-StorageBin" style="stroke:#181818;stroke-width:1.0;"/><polygon fill="none" points="84,55.22,80,61.22,84,67.22,88,61.22,84,55.22" style="stroke:#181818;stroke-width:1.0;"/><text fill="#000000" font-family="sans-serif" font-size="13" lengthAdjust="spacing" textLength="64" x="85" y="100.8979">aggregates</text></g><!--SRC=[2ox9BqfCJtNAp5F8rzLLSCf9pCjEBL6mKaXCJozAJKyiIItcSaijBiaiIym9JonApSWlBKu5Amr6w4HM3G00]--></g></svg>