<?xml version="1.0" encoding="us-ascii" standalone="no"?><svg xmlns="http://www.w3.org/2000/svg" xmlns:xlink="http://www.w3.org/1999/xlink" contentStyleType="text/css" height="316px" preserveAspectRatio="none" style="width:134px;height:316px;background:#FFFFFF;" version="1.1" viewBox="0 0 134 316" width="134px" zoomAndPan="magnify"><defs/><g><!--class Case--><g id="elem_Case"><rect fill="#F1F1F1" height="48" id="Case" rx="2.5" ry="2.5" style="stroke:#181818;stroke-width:0.5;" width="65" x="28.5" y="134"/><ellipse cx="43.5" cy="150" fill="#ADD1B2" rx="11" ry="11" style="stroke:#181818;stroke-width:1.0;"/><path d="M42.8438,155.8594 Q40.8594,155.8594 39.6875,154.3906 Q38.5313,152.9063 38.5313,149.8281 Q38.5313,147.2188 39.75,145.4688 Q40.9844,143.7188 43.1094,143.7188 Q43.6094,143.7188 44.1406,143.8594 Q44.5781,144.0469 44.8438,144.0469 Q45.0625,144.0469 45.1563,144 Q45.2656,143.9531 45.7188,143.3594 L46.4844,147.0938 L45.5938,147.3594 Q45.1406,145.9063 44.5313,145.3125 Q43.9375,144.7031 42.9844,144.7031 Q41.7656,144.7031 41.0469,146.1406 Q40.3281,147.5625 40.3281,149.75 Q40.3281,152.1563 40.9375,153.4531 Q41.5625,154.7344 42.9219,154.7344 Q43.875,154.7344 44.5625,154.0469 Q45.25,153.3438 45.5781,151.8438 L46.4844,152.25 Q46.0781,153.9531 45.1094,154.9063 Q44.1563,155.8594 42.8438,155.8594 Z " fill="#000000"/><text fill="#000000" font-family="sans-serif" font-size="14" lengthAdjust="spacing" textLength="33" x="57.5" y="156.4839">Case</text><line style="stroke:#181818;stroke-width:0.5;" x1="29.5" x2="92.5" y1="166" y2="166"/><line style="stroke:#181818;stroke-width:0.5;" x1="29.5" x2="92.5" y1="174" y2="174"/></g><!--class VillageStore--><g id="elem_VillageStore"><rect fill="#F1F1F1" height="48" id="VillageStore" rx="2.5" ry="2.5" style="stroke:#181818;stroke-width:0.5;" width="108" x="7" y="261"/><ellipse cx="22" cy="277" fill="#ADD1B2" rx="11" ry="11" style="stroke:#181818;stroke-width:1.0;"/><path d="M21.3438,282.8594 Q19.3594,282.8594 18.1875,281.3906 Q17.0313,279.9063 17.0313,276.8281 Q17.0313,274.2188 18.25,272.4688 Q19.4844,270.7188 21.6094,270.7188 Q22.1094,270.7188 22.6406,270.8594 Q23.0781,271.0469 23.3438,271.0469 Q23.5625,271.0469 23.6563,271 Q23.7656,270.9531 24.2188,270.3594 L24.9844,274.0938 L24.0938,274.3594 Q23.6406,272.9063 23.0313,272.3125 Q22.4375,271.7031 21.4844,271.7031 Q20.2656,271.7031 19.5469,273.1406 Q18.8281,274.5625 18.8281,276.75 Q18.8281,279.1563 19.4375,280.4531 Q20.0625,281.7344 21.4219,281.7344 Q22.375,281.7344 23.0625,281.0469 Q23.75,280.3438 24.0781,278.8438 L24.9844,279.25 Q24.5781,280.9531 23.6094,281.9063 Q22.6563,282.8594 21.3438,282.8594 Z " fill="#000000"/><text fill="#000000" font-family="sans-serif" font-size="14" lengthAdjust="spacing" textLength="76" x="36" y="283.4839">VillageStore</text><line style="stroke:#181818;stroke-width:0.5;" x1="8" x2="114" y1="293" y2="293"/><line style="stroke:#181818;stroke-width:0.5;" x1="8" x2="114" y1="301" y2="301"/></g><!--class TeaTin--><g id="elem_TeaTin"><rect fill="#F1F1F1" height="48" id="TeaTin" rx="2.5" ry="2.5" style="stroke:#181818;stroke-width:0.5;" width="77" x="22.5" y="7"/><ellipse cx="37.5" cy="23" fill="#ADD1B2" rx="11" ry="11" style="stroke:#181818;stroke-width:1.0;"/><path d="M36.8438,28.8594 Q34.8594,28.8594 33.6875,27.3906 Q32.5313,25.9063 32.5313,22.8281 Q32.5313,20.2188 33.75,18.4688 Q34.9844,16.7188 37.1094,16.7188 Q37.6094,16.7188 38.1406,16.8594 Q38.5781,17.0469 38.8438,17.0469 Q39.0625,17.0469 39.1563,17 Q39.2656,16.9531 39.7188,16.3594 L40.4844,20.0938 L39.5938,20.3594 Q39.1406,18.9063 38.5313,18.3125 Q37.9375,17.7031 36.9844,17.7031 Q35.7656,17.7031 35.0469,19.1406 Q34.3281,20.5625 34.3281,22.75 Q34.3281,25.1563 34.9375,26.4531 Q35.5625,27.7344 36.9219,27.7344 Q37.875,27.7344 38.5625,27.0469 Q39.25,26.3438 39.5781,24.8438 L40.4844,25.25 Q40.0781,26.9531 39.1094,27.9063 Q38.1563,28.8594 36.8438,28.8594 Z " fill="#000000"/><text fill="#000000" font-family="sans-serif" font-size="14" lengthAdjust="spacing" textLength="45" x="51.5" y="29.4839">TeaTin</text><line style="stroke:#181818;stroke-width:0.5;" x1="23.5" x2="98.5" y1="39" y2="39"/><line style="stroke:#181818;stroke-width:0.5;" x1="23.5" x2="98.5" y1="47" y2="47"/></g><!--reverse link Case to VillageStore--><g id="link_Case_VillageStore"><path codeLine="1" d="M61,194.22 C61,216.67 61,238.5 61,260.91 " fill="none" id="Case-backto-VillageStore" style="stroke:#181818;stroke-width:1.0;"/><polygon fill="none" points="61,182.22,57,188.22,61,194.22,65,188.22,61,182.22" style="stroke:#181818;stroke-width:1.0;"/><text fill="#000000" font-family="sans-serif" font-size="13" lengthAdjust="spacing" textLength="64" x="62" y="227.8979">aggregates</text></g><!--reverse link TeaTin to Case--><g id="link_TeaTin_Case"><path codeLine="2" d="M61,67.22 C61,89.67 61,111.5 61,133.91 " fill="none" id="TeaTin-backto-Case" style="stroke:#181818;stroke-width:1.0;"/><polygon fill="none" points="61,55.22,57,61.22,61,67.22,65,61.22,61,55.22" style="stroke:#181818;stroke-width:1.0;"/><text fill="#000000" font-family="sans-serif" font-size="13" lengthAdjust="spacing" textLength="64" x="62" y="100.8979">aggregates</text></g><!--SRC=[SquiJbN8rzLL2ClCoKbCJmqkoIzALR1II4nFBqfDJon9BUOAIKqCoSm3At86gKQM1000]--></g></svg>