<?xml version="1.0" encoding="us-ascii" standalone="no"?><svg xmlns="http://www.w3.org/2000/svg" xmlns:xlink="http://www.w3.org/1999/xlink" contentStyleType="text/css" height="316px" preserveAspectRatio="none" style="width:137px;height:316px;background:#FFFFFF;" version="1.1" viewBox="0 0 137 316" width="137px" zoomAndPan="magnify"><defs/><g><!--class Bin--><g id="elem_Bin"><rect fill="#F1F1F1" height="48" id="Bin" rx="2.5" ry="2.5" style="stroke:#181818;stroke-width:0.5;" width="52" x="38" y="134"/><ellipse cx="53" cy="150" fill="#ADD1B2" rx="11" ry="11" style="stroke:#181818;stroke-width:1.0;"/><path d="M52.3438,155.8594 Q50.3594,155.8594 49.1875,154.3906 Q48.0313,152.9063 48.0313,149.8281 Q48.0313,147.2188 49.25,145.4688 Q50.4844,143.7188 52.6094,143.7188 Q53.1094,143.7188 53.6406,143.8594 Q54.0781,144.0469 54.3438,144.0469 Q54.5625,144.0469 54.6563,144 Q54.7656,143.9531 55.2188,143.3594 L55.9844,147.0938 L55.0938,147.3594 Q54.6406,145.9063 54.0313,145.3125 Q53.4375,144.7031 52.4844,144.7031 Q51.2656,144.7031 50.5469,146.1406 Q49.8281,147.5625 49.8281,149.75 Q49.8281,152.1563 50.4375,153.4531 Q51.0625,154.7344 52.4219,154.7344 Q53.375,154.7344 54.0625,154.0469 Q54.75,153.3438 55.0781,151.8438 L55.9844,152.25 Q55.5781,153.9531 54.6094,154.9063 Q53.6563,155.8594 52.3438,155.8594 Z " fill="#000000"/><text fill="#000000" font-family="sans-serif" font-size="14" lengthAdjust="spacing" textLength="20" x="67" y="156.4839">Bin</text><line style="stroke:#181818;stroke-width:0.5;" x1="39" x2="89" y1="166" y2="166"/><line style="stroke:#181818;stroke-width:0.5;" x1="39" x2="89" y1="174" y2="174"/></g><!--class GardenStore--><g id="elem_GardenStore"><rect fill="#F1F1F1" height="48" id="GardenStore" rx="2.5" ry="2.5" style="stroke:#181818;stroke-width:0.5;" width="114" x="7" y="261"/><ellipse cx="22" cy="277" fill="#ADD1B2" rx="11" ry="11" style="stroke:#181818;stroke-width:1.0;"/><path d="M21.3438,282.8594 Q19.3594,282.8594 18.1875,281.3906 Q17.0313,279.9063 17.0313,276.8281 Q17.0313,274.2188 18.25,272.4688 Q19.4844,270.7188 21.6094,270.7188 Q22.1094,270.7188 22.6406,270.8594 Q23.0781,271.0469 23.3438,271.0469 Q23.5625,271.0469 23.6563,271 Q23.7656,270.9531 24.2188,270.3594 L24.9844,274.0938 L24.0938,274.3594 Q23.6406,272.9063 23.0313,272.3125 Q22.4375,271.7031 21.4844,271.7031 Q20.2656,271.7031 19.5469,273.1406 Q18.8281,274.5625 18.8281,276.75 Q18.8281,279.1563 19.4375,280.4531 Q20.0625,281.7344 21.4219,281.7344 Q22.375,281.7344 23.0625,281.0469 Q23.75,280.3438 24.0781,278.8438 L24.9844,279.25 Q24.5781,280.9531 23.6094,281.9063 Q22.6563,282.8594 21.3438,282.8594 Z " fill="#000000"/><text fill="#000000" font-family="sans-serif" font-size="14" lengthAdjust="spacing" textLength="82" x="36" y="283.4839">GardenStore</text><line style="stroke:#181818;stroke-width:0.5;" x1="8" x2="120" y1="293" y2="293"/><line style="stroke:#181818;stroke-width:0.5;" x1="8" x2="120" y1="301" y2="301"/></g><!--class DriedHerb--><g id="elem_DriedHerb"><rect fill="#F1F1F1" height="48" id="DriedHerb" rx="2.5" ry="2.5" style="stroke:#181818;stroke-width:0.5;" width="96" x="16" y="7"/><ellipse cx="31" cy="23" fill="#ADD1B2" rx="11" ry="11" style="stroke:#181818;stroke-width:1.0;"/><path d="M30.3438,28.8594 Q28.3594,28.8594 27.1875,27.3906 Q26.0313,25.9063 26.0313,22.8281 Q26.0313,20.2188 27.25,18.4688 Q28.4844,16.7188 30.6094,16.7188 Q31.1094,16.7188 31.6406,16.8594 Q32.0781,17.0469 32.3438,17.0469 Q32.5625,17.0469 32.6563,17 Q32.7656,16.9531 33.2188,16.3594 L33.9844,20.0938 L33.0938,20.3594 Q32.6406,18.9063 32.0313,18.3125 Q31.4375,17.7031 30.4844,17.7031 Q29.2656,17.7031 28.5469,19.1406 Q27.8281,20.5625 27.8281,22.75 Q27.8281,25.1563 28.4375,26.4531 Q29.0625,27.7344 30.4219,27.7344 Q31.375,27.7344 32.0625,27.0469 Q32.75,26.3438 33.0781,24.8438 L33.9844,25.25 Q33.5781,26.9531 32.6094,27.9063 Q31.6563,28.8594 30.3438,28.8594 Z " fill="#000000"/><text fill="#000000" font-family="sans-serif" font-size="14" lengthAdjust="spacing" textLength="64" x="45" y="29.4839">DriedHerb</text><line style="stroke:#181818;stroke-width:0.5;" x1="17" x2="111" y1="39" y2="39"/><line style="stroke:#181818;stroke-width:0.5;" x1="17" x2="111" y1="47" y2="47"/></g><!--reverse link Bin to GardenStore--><g id="link_Bin_GardenStore"><path codeLine="1" d="M64,194.22 C64,216.67 64,238.5 64,260.91 " fill="none" id="Bin-backto-GardenStore" style="stroke:#181818;stroke-width:1.0;"/><polygon fill="none" points="64,182.22,60,188.22,64,194.22,68,188.22,64,182.22" style="stroke:#181818;stroke-width:1.0;"/><text fill="#000000" font-family="sans-serif" font-size="13" lengthAdjust="spacing" textLength="64" x="65" y="227.8979">aggregates</text></g><!--reverse link DriedHerb to Bin--><g id="link_DriedHerb_Bin"><path codeLine="2" d="M64,67.22 C64,89.67 64,111.5 64,133.91 " fill="none" id="DriedHerb-backto-Bin" style="stroke:#181818;stroke-width:1.0;"/><polygon fill="none" points="64,55.22,60,61.22,64,67.22,68,61.22,64,55.22" style="stroke:#181818;stroke-width:1.0;"/><text fill="#000000" font-family="sans-serif" font-size="13" lengthAdjust="spacing" textLength="64" x="65" y="100.8979">aggregates</text></g><!--SRC=[SyhCKyZNrLLmJonAISqBBialIbMmKaXCJozAJKyiIItcSYdAJ4tnI2rA0Yjp0Yf7bWO0]--></g></svg>