<?xml version="1.0" encoding="us-ascii" standalone="no"?><svg xmlns="http://www.w3.org/2000/svg" xmlns:xlink="http://www.w3.org/1999/xlink" contentStyleType="text/css" height="316px" preserveAspectRatio="none" style="width:171px;height:316px;background:#FFFFFF;" version="1.1" viewBox="0 0 171 316" width="171px" zoomAndPan="magnify"><defs/><g><!--class AccountingSoftware--><g id="elem_AccountingSoftware"><rect fill="#F1F1F1" height="48" id="AccountingSoftware" rx="2.5" ry="2.5" style="stroke:#181818;stroke-width:0.5;" width="157" x="7" y="134"/><ellipse cx="22" cy="150" fill="#ADD1B2" rx="11" ry="11" style="stroke:#181818;stroke-width:1.0;"/><path d="M21.3438,155.8594 Q19.3594,155.8594 18.1875,154.3906 Q17.0313,152.9063 17.0313,149.8281 Q17.0313,147.2188 18.25,145.4688 Q19.4844,143.7188 21.6094,143.7188 Q22.1094,143.7188 22.6406,143.8594 Q23.0781,144.0469 23.3438,144.0469 Q23.5625,144.0469 23.6563,144 Q23.7656,143.9531 24.2188,143.3594 L24.9844,147.0938 L24.0938,147.3594 Q23.6406,145.9063 23.0313,145.3125 Q22.4375,144.7031 21.4844,144.7031 Q20.2656,144.7031 19.5469,146.1406 Q18.8281,147.5625 18.8281,149.75 Q18.8281,152.1563 19.4375,153.4531 Q20.0625,154.7344 21.4219,154.7344 Q22.375,154.7344 23.0625,154.0469 Q23.75,153.3438 24.0781,151.8438 L24.9844,152.25 Q24.5781,153.9531 23.6094,154.9063 Q22.6563,155.8594 21.3438,155.8594 Z " fill="#000000"/><text fill="#000000" font-family="sans-serif" font-size="14" lengthAdjust="spacing" textLength="125" x="36" y="156.4839">AccountingSoftware</text><line style="stroke:#181818;stroke-width:0.5;" x1="8" x2="163" y1="166" y2="166"/><line style="stroke:#181818;stroke-width:0.5;" x1="8" x2="163" y1="174" y2="174"/></g><!--class OperatingSystem--><g id="elem_OperatingSystem"><rect fill="#F1F1F1" height="48" id="OperatingSystem" rx="2.5" ry="2.5" style="stroke:#181818;stroke-width:0.5;" width="141" x="15" y="261"/><ellipse cx="30" cy="277" fill="#ADD1B2" rx="11" ry="11" style="stroke:#181818;stroke-width:1.0;"/><path d="M29.3438,282.8594 Q27.3594,282.8594 26.1875,281.3906 Q25.0313,279.9063 25.0313,276.8281 Q25.0313,274.2188 26.25,272.4688 Q27.4844,270.7188 29.6094,270.7188 Q30.1094,270.7188 30.6406,270.8594 Q31.0781,271.0469 31.3438,271.0469 Q31.5625,271.0469 31.6563,271 Q31.7656,270.9531 32.2188,270.3594 L32.9844,274.0938 L32.0938,274.3594 Q31.6406,272.9063 31.0313,272.3125 Q30.4375,271.7031 29.4844,271.7031 Q28.2656,271.7031 27.5469,273.1406 Q26.8281,274.5625 26.8281,276.75 Q26.8281,279.1563 27.4375,280.4531 Q28.0625,281.7344 29.4219,281.7344 Q30.375,281.7344 31.0625,281.0469 Q31.75,280.3438 32.0781,278.8438 L32.9844,279.25 Q32.5781,280.9531 31.6094,281.9063 Q30.6563,282.8594 29.3438,282.8594 Z " fill="#000000"/><text fill="#000000" font-family="sans-serif" font-size="14" lengthAdjust="spacing" textLength="109" x="44" y="283.4839">OperatingSystem</text><line style="stroke:#181818;stroke-width:0.5;" x1="16" x2="155" y1="293" y2="293"/><line style="stroke:#181818;stroke-width:0.5;" x1="16" x2="155" y1="301" y2="301"/></g><!--class Bookkeeping--><g id="elem_Bookkeeping"><rect fill="#F1F1F1" height="48" id="Bookkeeping" rx="2.5" ry="2.5" style="stroke:#181818;stroke-width:0.5;" width="114" x="28.5" y="7"/><ellipse cx="43.5" cy="23" fill="#ADD1B2" rx="11" ry="11" style="stroke:#181818;stroke-width:1.0;"/><path d="M42.8438,28.8594 Q40.8594,28.8594 39.6875,27.3906 Q38.5313,25.9063 38.5313,22.8281 Q38.5313,20.2188 39.75,18.4688 Q40.9844,16.7188 43.1094,16.7188 Q43.6094,16.7188 44.1406,16.8594 Q44.5781,17.0469 44.8438,17.0469 Q45.0625,17.0469 45.1563,17 Q45.2656,16.9531 45.7188,16.3594 L46.4844,20.0938 L45.5938,20.3594 Q45.1406,18.9063 44.5313,18.3125 Q43.9375,17.7031 42.9844,17.7031 Q41.7656,17.7031 41.0469,19.1406 Q40.3281,20.5625 40.3281,22.75 Q40.3281,25.1563 40.9375,26.4531 Q41.5625,27.7344 42.9219,27.7344 Q43.875,27.7344 44.5625,27.0469 Q45.25,26.3438 45.5781,24.8438 L46.4844,25.25 Q46.0781,26.9531 45.1094,27.9063 Q44.1563,28.8594 42.8438,28.8594 Z " fill="#000000"/><text fill="#000000" font-family="sans-serif" font-size="14" lengthAdjust="spacing" textLength="82" x="57.5" y="29.4839">Bookkeeping</text><line style="stroke:#181818;stroke-width:0.5;" x1="29.5" x2="141.5" y1="39" y2="39"/><line style="stroke:#181818;stroke-width:0.5;" x1="29.5" x2="141.5" y1="47" y2="47"/></g><!--link AccountingSoftware to OperatingSystem--><g id="link_AccountingSoftware_OperatingSystem"><path codeLine="1" d="M85.5,182.22 C85.5,204.67 85.5,232.5 85.5,254.91 " fill="none" id="AccountingSoftware-to-OperatingSystem" style="stroke:#181818;stroke-width:1.0;stroke-dasharray:7.0,7.0;"/><polygon fill="#181818" points="85.5,260.91,89.5,251.91,85.5,255.91,81.5,251.91,85.5,260.91" style="stroke:#181818;stroke-width:1.0;"/><text fill="#000000" font-family="sans-serif" font-size="13" lengthAdjust="spacing" textLength="67" x="86.5" y="227.8979">depends on</text></g><!--link Bookkeeping to AccountingSoftware--><g id="link_Bookkeeping_AccountingSoftware"><path codeLine="2" d="M85.5,55.22 C85.5,77.67 85.5,105.5 85.5,127.91 " fill="none" id="Bookkeeping-to-AccountingSoftware" style="stroke:#181818;stroke-width:1.0;stroke-dasharray:7.0,7.0;"/><polygon fill="#181818" points="85.5,133.91,89.5,124.91,85.5,128.91,81.5,124.91,85.5,133.91" style="stroke:#181818;stroke-width:1.0;"/><text fill="#000000" font-family="sans-serif" font-size="13" lengthAdjust="spacing" textLength="67" x="86.5" y="100.8979">depends on</text></g><!--SRC=[SqnEpY_DAydCIm_EJoifJonALT3JirFmBqWjIWIBLXQNfEOgM2caf1QavgKKA-JdSJdbvsTdfwOM0AN1YXqnpK1M3m00]--></g></svg>