<?xml version="1.0" encoding="us-ascii" standalone="no"?><svg xmlns="http://www.w3.org/2000/svg" xmlns:xlink="http://www.w3.org/1999/xlink" contentStyleType="text/css" height="189px" preserveAspectRatio="none" style="width:146px;height:189px;background:#FFFFFF;" version="1.1" viewBox="0 0 146 189" width="146px" zoomAndPan="magnify"><defs/><g><!--class River--><g id="elem_River"><rect fill="#F1F1F1" height="48" id="River" rx="2.5" ry="2.5" style="stroke:#181818;stroke-width:0.5;" width="65" x="40.5" y="7"/><ellipse cx="55.5" cy="23" fill="#ADD1B2" rx="11" ry="11" style="stroke:#181818;stroke-width:1.0;"/><path d="M54.8438,28.8594 Q52.8594,28.8594 51.6875,27.3906 Q50.5313,25.9063 50.5313,22.8281 Q50.5313,20.2188 51.75,18.4688 Q52.9844,16.7188 55.1094,16.7188 Q55.6094,16.7188 56.1406,16.8594 Q56.5781,17.0469 56.8438,17.0469 Q57.0625,17.0469 57.1563,17 Q57.2656,16.9531 57.7188,16.3594 L58.4844,20.0938 L57.5938,20.3594 Q57.1406,18.9063 56.5313,18.3125 Q55.9375,17.7031 54.9844,17.7031 Q53.7656,17.7031 53.0469,19.1406 Q52.3281,20.5625 52.3281,22.75 Q52.3281,25.1563 52.9375,26.4531 Q53.5625,27.7344 54.9219,27.7344 Q55.875,27.7344 56.5625,27.0469 Q57.25,26.3438 57.5781,24.8438 L58.4844,25.25 Q58.0781,26.9531 57.1094,27.9063 Q56.1563,28.8594 54.8438,28.8594 Z " fill="#000000"/><text fill="#000000" font-family="sans-serif" font-size="14" lengthAdjust="spacing" textLength="33" x="69.5" y="29.4839">River</text><line style="stroke:#181818;stroke-width:0.5;" x1="41.5" x2="104.5" y1="39" y2="39"/><line style="stroke:#181818;stroke-width:0.5;" x1="41.5" x2="104.5" y1="47" y2="47"/></g><!--class MississippiRiver--><g id="elem_MississippiRiver"><rect fill="#F1F1F1" height="48" id="MississippiRiver" rx="2.5" ry="2.5" style="stroke:#181818;stroke-width:0.5;" width="132" x="7" y="134"/><ellipse cx="22" cy="150" fill="#ADD1B2" rx="11" ry="11" style="stroke:#181818;stroke-width:1.0;"/><path d="M21.3438,155.8594 Q19.3594,155.8594 18.1875,154.3906 Q17.0313,152.9063 17.0313,149.8281 Q17.0313,147.2188 18.25,145.4688 Q19.4844,143.7188 21.6094,143.7188 Q22.1094,143.7188 22.6406,143.8594 Q23.0781,144.0469 23.3438,144.0469 Q23.5625,144.0469 23.6563,144 Q23.7656,143.9531 24.2188,143.3594 L24.9844,147.0938 L24.0938,147.3594 Q23.6406,145.9063 23.0313,145.3125 Q22.4375,144.7031 21.4844,144.7031 Q20.2656,144.7031 19.5469,146.1406 Q18.8281,147.5625 18.8281,149.75 Q18.8281,152.1563 19.4375,153.4531 Q20.0625,154.7344 21.4219,154.7344 Q22.375,154.7344 23.0625,154.0469 Q23.75,153.3438 24.0781,151.8438 L24.9844,152.25 Q24.5781,153.9531 23.6094,154.9063 Q22.6563,155.8594 21.3438,155.8594 Z " fill="#000000"/><text fill="#000000" font-family="sans-serif" font-size="14" lengthAdjust="spacing" textLength="100" x="36" y="156.4839">MississippiRiver</text><line style="stroke:#181818;stroke-width:0.5;" x1="8" x2="138" y1="166" y2="166"/><line style="stroke:#181818;stroke-width:0.5;" x1="8" x2="138" y1="174" y2="174"/></g><!--reverse link River to MississippiRiver--><g id="link_River_MississippiRiver"><path codeLine="1" d="M73,73.22 C73,95.67 73,111.5 73,133.91 " fill="none" id="River-backto-MississippiRiver" style="stroke:#181818;stroke-width:1.0;"/><polygon fill="none" points="73,55.22,67,73.22,79,73.22,73,55.22" style="stroke:#181818;stroke-width:1.0;"/><text fill="#000000" font-family="sans-serif" font-size="13" lengthAdjust="spacing" textLength="42" x="74" y="100.8979">inherits</text></g><!--SRC=[2yeiIorIiAdHrLNmpImk1g62WimWiAYLGcPUHcfHPaan0000]--></g></svg>