<?xml version="1.0" encoding="us-ascii" standalone="no"?><svg xmlns="http://www.w3.org/2000/svg" xmlns:xlink="http://www.w3.org/1999/xlink" contentStyleType="text/css" height="316px" preserveAspectRatio="none" style="width:129px;height:316px;background:#FFFFFF;" version="1.1" viewBox="0 0 129 316" width="129px" zoomAndPan="magnify"><defs/><g><!--class Plant--><g id="elem_Plant"><rect fill="#F1F1F1" height="48" id="Plant" rx="2.5" ry="2.5" style="stroke:#181818;stroke-width:0.5;" width="64" x="32.5" y="7"/><ellipse cx="47.5" cy="23" fill="#ADD1B2" rx="11" ry="11" style="stroke:#181818;stroke-width:1.0;"/><path d="M46.8438,28.8594 Q44.8594,28.8594 43.6875,27.3906 Q42.5313,25.9063 42.5313,22.8281 Q42.5313,20.2188 43.75,18.4688 Q44.9844,16.7188 47.1094,16.7188 Q47.6094,16.7188 48.1406,16.8594 Q48.5781,17.0469 48.8438,17.0469 Q49.0625,17.0469 49.1563,17 Q49.2656,16.9531 49.7188,16.3594 L50.4844,20.0938 L49.5938,20.3594 Q49.1406,18.9063 48.5313,18.3125 Q47.9375,17.7031 46.9844,17.7031 Q45.7656,17.7031 45.0469,19.1406 Q44.3281,20.5625 44.3281,22.75 Q44.3281,25.1563 44.9375,26.4531 Q45.5625,27.7344 46.9219,27.7344 Q47.875,27.7344 48.5625,27.0469 Q49.25,26.3438 49.5781,24.8438 L50.4844,25.25 Q50.0781,26.9531 49.1094,27.9063 Q48.1563,28.8594 46.8438,28.8594 Z " fill="#000000"/><text fill="#000000" font-family="sans-serif" font-size="14" lengthAdjust="spacing" textLength="32" x="61.5" y="29.4839">Plant</text><line style="stroke:#181818;stroke-width:0.5;" x1="33.5" x2="95.5" y1="39" y2="39"/><line style="stroke:#181818;stroke-width:0.5;" x1="33.5" x2="95.5" y1="47" y2="47"/></g><!--class Moss--><g id="elem_Moss"><rect fill="#F1F1F1" height="48" id="Moss" rx="2.5" ry="2.5" style="stroke:#181818;stroke-width:0.5;" width="65" x="32" y="134"/><ellipse cx="47" cy="150" fill="#ADD1B2" rx="11" ry="11" style="stroke:#181818;stroke-width:1.0;"/><path d="M46.3438,155.8594 Q44.3594,155.8594 43.1875,154.3906 Q42.0313,152.9063 42.0313,149.8281 Q42.0313,147.2188 43.25,145.4688 Q44.4844,143.7188 46.6094,143.7188 Q47.1094,143.7188 47.6406,143.8594 Q48.0781,144.0469 48.3438,144.0469 Q48.5625,144.0469 48.6563,144 Q48.7656,143.9531 49.2188,143.3594 L49.9844,147.0938 L49.0938,147.3594 Q48.6406,145.9063 48.0313,145.3125 Q47.4375,144.7031 46.4844,144.7031 Q45.2656,144.7031 44.5469,146.1406 Q43.8281,147.5625 43.8281,149.75 Q43.8281,152.1563 44.4375,153.4531 Q45.0625,154.7344 46.4219,154.7344 Q47.375,154.7344 48.0625,154.0469 Q48.75,153.3438 49.0781,151.8438 L49.9844,152.25 Q49.5781,153.9531 48.6094,154.9063 Q47.6563,155.8594 46.3438,155.8594 Z " fill="#000000"/><text fill="#000000" font-family="sans-serif" font-size="14" lengthAdjust="spacing" textLength="33" x="61" y="156.4839">Moss</text><line style="stroke:#181818;stroke-width:0.5;" x1="33" x2="96" y1="166" y2="166"/><line style="stroke:#181818;stroke-width:0.5;" x1="33" x2="96" y1="174" y2="174"/></g><!--class FeatherMoss--><g id="elem_FeatherMoss"><rect fill="#F1F1F1" height="48" id="FeatherMoss" rx="2.5" ry="2.5" style="stroke:#181818;stroke-width:0.5;" width="115" x="7" y="261"/><ellipse cx="22" cy="277" fill="#ADD1B2" rx="11" ry="11" style="stroke:#181818;stroke-width:1.0;"/><path d="M21.3438,282.8594 Q19.3594,282.8594 18.1875,281.3906 Q17.0313,279.9063 17.0313,276.8281 Q17.0313,274.2188 18.25,272.4688 Q19.4844,270.7188 21.6094,270.7188 Q22.1094,270.7188 22.6406,270.8594 Q23.0781,271.0469 23.3438,271.0469 Q23.5625,271.0469 23.6563,271 Q23.7656,270.9531 24.2188,270.3594 L24.9844,274.0938 L24.0938,274.3594 Q23.6406,272.9063 23.0313,272.3125 Q22.4375,271.7031 21.4844,271.7031 Q20.2656,271.7031 19.5469,273.1406 Q18.8281,274.5625 18.8281,276.75 Q18.8281,279.1563 19.4375,280.4531 Q20.0625,281.7344 21.4219,281.7344 Q22.375,281.7344 23.0625,281.0469 Q23.75,280.3438 24.0781,278.8438 L24.9844,279.25 Q24.5781,280.9531 23.6094,281.9063 Q22.6563,282.8594 21.3438,282.8594 Z " fill="#000000"/><text fill="#000000" font-family="sans-serif" font-size="14" lengthAdjust="spacing" textLength="83" x="36" y="283.4839">FeatherMoss</text><line style="stroke:#181818;stroke-width:0.5;" x1="8" x2="121" y1="293" y2="293"/><line style="stroke:#181818;stroke-width:0.5;" x1="8" x2="121" y1="301" y2="301"/></g><!--reverse link Plant to Moss--><g id="link_Plant_Moss"><path codeLine="1" d="M64.5,73.22 C64.5,95.67 64.5,111.5 64.5,133.91 " fill="none" id="Plant-backto-Moss" style="stroke:#181818;stroke-width:1.0;"/><polygon fill="none" points="64.5,55.22,58.5,73.22,70.5,73.22,64.5,55.22" style="stroke:#181818;stroke-width:1.0;"/><text fill="#000000" font-family="sans-serif" font-size="13" lengthAdjust="spacing" textLength="42" x="65.5" y="100.8979">inherits</text></g><!--reverse link Moss to FeatherMoss--><g id="link_Moss_FeatherMoss"><path codeLine="2" d="M64.5,200.22 C64.5,222.67 64.5,238.5 64.5,260.91 " fill="none" id="Moss-backto-FeatherMoss" style="stroke:#181818;stroke-width:1.0;"/><polygon fill="none" points="64.5,182.22,58.5,200.22,70.5,200.22,64.5,182.22" style="stroke:#181818;stroke-width:1.0;"/><text fill="#000000" font-family="sans-serif" font-size="13" lengthAdjust="spacing" textLength="42" x="65.5" y="227.8979">inherits</text></g><!--SRC=[2yX9p2jHiAdHrLNmpIykLh1IoCpBI2tAB2dc0lF1CcwfYIL0GJG50000]--></g></svg>