<?xml version="1.0" encoding="us-ascii" standalone="no"?><svg xmlns="http://www.w3.org/2000/svg" xmlns:xlink="http://www.w3.org/1999/xlink" contentStyleType="text/css" height="316px" preserveAspectRatio="none" style="width:117px;height:316px;background:#FFFFFF;" version="1.1" viewBox="0 0 117 316" width="117px" zoomAndPan="magnify"><defs/><g><!--class Plant--><g id="elem_Plant"><rect fill="#F1F1F1" height="48" id="Plant" rx="2.5" ry="2.5" style="stroke:#181818;stroke-width:0.5;" width="64" x="26.5" y="7"/><ellipse cx="41.5" cy="23" fill="#ADD1B2" rx="11" ry="11" style="stroke:#181818;stroke-width:1.0;"/><path d="M40.8438,28.8594 Q38.8594,28.8594 37.6875,27.3906 Q36.5313,25.9063 36.5313,22.8281 Q36.5313,20.2188 37.75,18.4688 Q38.9844,16.7188 41.1094,16.7188 Q41.6094,16.7188 42.1406,16.8594 Q42.5781,17.0469 42.8438,17.0469 Q43.0625,17.0469 43.1563,17 Q43.2656,16.9531 43.7188,16.3594 L44.4844,20.0938 L43.5938,20.3594 Q43.1406,18.9063 42.5313,18.3125 Q41.9375,17.7031 40.9844,17.7031 Q39.7656,17.7031 39.0469,19.1406 Q38.3281,20.5625 38.3281,22.75 Q38.3281,25.1563 38.9375,26.4531 Q39.5625,27.7344 40.9219,27.7344 Q41.875,27.7344 42.5625,27.0469 Q43.25,26.3438 43.5781,24.8438 L44.4844,25.25 Q44.0781,26.9531 43.1094,27.9063 Q42.1563,28.8594 40.8438,28.8594 Z " fill="#000000"/><text fill="#000000" font-family="sans-serif" font-size="14" lengthAdjust="spacing" textLength="32" x="55.5" y="29.4839">Plant</text><line style="stroke:#181818;stroke-width:0.5;" x1="27.5" x2="89.5" y1="39" y2="39"/><line style="stroke:#181818;stroke-width:0.5;" x1="27.5" x2="89.5" y1="47" y2="47"/></g><!--class Cactus--><g id="elem_Cactus"><rect fill="#F1F1F1" height="48" id="Cactus" rx="2.5" ry="2.5" style="stroke:#181818;stroke-width:0.5;" width="76" x="20.5" y="134"/><ellipse cx="35.5" cy="150" fill="#ADD1B2" rx="11" ry="11" style="stroke:#181818;stroke-width:1.0;"/><path d="M34.8438,155.8594 Q32.8594,155.8594 31.6875,154.3906 Q30.5313,152.9063 30.5313,149.8281 Q30.5313,147.2188 31.75,145.4688 Q32.9844,143.7188 35.1094,143.7188 Q35.6094,143.7188 36.1406,143.8594 Q36.5781,144.0469 36.8438,144.0469 Q37.0625,144.0469 37.1563,144 Q37.2656,143.9531 37.7188,143.3594 L38.4844,147.0938 L37.5938,147.3594 Q37.1406,145.9063 36.5313,145.3125 Q35.9375,144.7031 34.9844,144.7031 Q33.7656,144.7031 33.0469,146.1406 Q32.3281,147.5625 32.3281,149.75 Q32.3281,152.1563 32.9375,153.4531 Q33.5625,154.7344 34.9219,154.7344 Q35.875,154.7344 36.5625,154.0469 Q37.25,153.3438 37.5781,151.8438 L38.4844,152.25 Q38.0781,153.9531 37.1094,154.9063 Q36.1563,155.8594 34.8438,155.8594 Z " fill="#000000"/><text fill="#000000" font-family="sans-serif" font-size="14" lengthAdjust="spacing" textLength="44" x="49.5" y="156.4839">Cactus</text><line style="stroke:#181818;stroke-width:0.5;" x1="21.5" x2="95.5" y1="166" y2="166"/><line style="stroke:#181818;stroke-width:0.5;" x1="21.5" x2="95.5" y1="174" y2="174"/></g><!--class PricklyPear--><g id="elem_PricklyPear"><rect fill="#F1F1F1" height="48" id="PricklyPear" rx="2.5" ry="2.5" style="stroke:#181818;stroke-width:0.5;" width="103" x="7" y="261"/><ellipse cx="22" cy="277" fill="#ADD1B2" rx="11" ry="11" style="stroke:#181818;stroke-width:1.0;"/><path d="M21.3438,282.8594 Q19.3594,282.8594 18.1875,281.3906 Q17.0313,279.9063 17.0313,276.8281 Q17.0313,274.2188 18.25,272.4688 Q19.4844,270.7188 21.6094,270.7188 Q22.1094,270.7188 22.6406,270.8594 Q23.0781,271.0469 23.3438,271.0469 Q23.5625,271.0469 23.6563,271 Q23.7656,270.9531 24.2188,270.3594 L24.9844,274.0938 L24.0938,274.3594 Q23.6406,272.9063 23.0313,272.3125 Q22.4375,271.7031 21.4844,271.7031 Q20.2656,271.7031 19.5469,273.1406 Q18.8281,274.5625 18.8281,276.75 Q18.8281,279.1563 19.4375,280.4531 Q20.0625,281.7344 21.4219,281.7344 Q22.375,281.7344 23.0625,281.0469 Q23.75,280.3438 24.0781,278.8438 L24.9844,279.25 Q24.5781,280.9531 23.6094,281.9063 Q22.6563,282.8594 21.3438,282.8594 Z " fill="#000000"/><text fill="#000000" font-family="sans-serif" font-size="14" lengthAdjust="spacing" textLength="71" x="36" y="283.4839">PricklyPear</text><line style="stroke:#181818;stroke-width:0.5;" x1="8" x2="109" y1="293" y2="293"/><line style="stroke:#181818;stroke-width:0.5;" x1="8" x2="109" y1="301" y2="301"/></g><!--reverse link Plant to Cactus--><g id="link_Plant_Cactus"><path codeLine="1" d="M58.5,73.22 C58.5,95.67 58.5,111.5 58.5,133.91 " fill="none" id="Plant-backto-Cactus" style="stroke:#181818;stroke-width:1.0;"/><polygon fill="none" points="58.5,55.22,52.5,73.22,64.5,73.22,58.5,55.22" style="stroke:#181818;stroke-width:1.0;"/><text fill="#000000" font-family="sans-serif" font-size="13" lengthAdjust="spacing" textLength="42" x="59.5" y="100.8979">inherits</text></g><!--reverse link Cactus to PricklyPear--><g id="link_Cactus_PricklyPear"><path codeLine="2" d="M58.5,200.22 C58.5,222.67 58.5,238.5 58.5,260.91 " fill="none" id="Cactus-backto-PricklyPear" style="stroke:#181818;stroke-width:1.0;"/><polygon fill="none" points="58.5,182.22,52.5,200.22,64.5,200.22,58.5,182.22" style="stroke:#181818;stroke-width:1.0;"/><text fill="#000000" font-family="sans-serif" font-size="13" lengthAdjust="spacing" textLength="42" x="59.5" y="227.8979">inherits</text></g><!--SRC=[2yX9p2jHiAdHrLLmJamkAIrMi5B8pCj8BSeiAUQ2Ye1b0ueoaxDpAWDI4ukGb000]--></g></svg>