<?xml version="1.0" encoding="us-ascii" standalone="no"?><svg xmlns="http://www.w3.org/2000/svg" xmlns:xlink="http://www.w3.org/1999/xlink" contentStyleType="text/css" height="316px" preserveAspectRatio="none" style="width:116px;height:316px;background:#FFFFFF;" version="1.1" viewBox="0 0 116 316" width="116px" zoomAndPan="magnify"><defs/><g><!--class Sport--><g id="elem_Sport"><rect fill="#F1F1F1" height="48" id="Sport" rx="2.5" ry="2.5" style="stroke:#181818;stroke-width:0.5;" width="66" x="25" y="7"/><ellipse cx="40" cy="23" fill="#ADD1B2" rx="11" ry="11" style="stroke:#181818;stroke-width:1.0;"/><path d="M39.3438,28.8594 Q37.3594,28.8594 36.1875,27.3906 Q35.0313,25.9063 35.0313,22.8281 Q35.0313,20.2188 36.25,18.4688 Q37.4844,16.7188 39.6094,16.7188 Q40.1094,16.7188 40.6406,16.8594 Q41.0781,17.0469 41.3438,17.0469 Q41.5625,17.0469 41.6563,17 Q41.7656,16.9531 42.2188,16.3594 L42.9844,20.0938 L42.0938,20.3594 Q41.6406,18.9063 41.0313,18.3125 Q40.4375,17.7031 39.4844,17.7031 Q38.2656,17.7031 37.5469,19.1406 Q36.8281,20.5625 36.8281,22.75 Q36.8281,25.1563 37.4375,26.4531 Q38.0625,27.7344 39.4219,27.7344 Q40.375,27.7344 41.0625,27.0469 Q41.75,26.3438 42.0781,24.8438 L42.9844,25.25 Q42.5781,26.9531 41.6094,27.9063 Q40.6563,28.8594 39.3438,28.8594 Z " fill="#000000"/><text fill="#000000" font-family="sans-serif" font-size="14" lengthAdjust="spacing" textLength="34" x="54" y="29.4839">Sport</text><line style="stroke:#181818;stroke-width:0.5;" x1="26" x2="90" y1="39" y2="39"/><line style="stroke:#181818;stroke-width:0.5;" x1="26" x2="90" y1="47" y2="47"/></g><!--class TeamSport--><g id="elem_TeamSport"><rect fill="#F1F1F1" height="48" id="TeamSport" rx="2.5" ry="2.5" style="stroke:#181818;stroke-width:0.5;" width="102" x="7" y="134"/><ellipse cx="22" cy="150" fill="#ADD1B2" rx="11" ry="11" style="stroke:#181818;stroke-width:1.0;"/><path d="M21.3438,155.8594 Q19.3594,155.8594 18.1875,154.3906 Q17.0313,152.9063 17.0313,149.8281 Q17.0313,147.2188 18.25,145.4688 Q19.4844,143.7188 21.6094,143.7188 Q22.1094,143.7188 22.6406,143.8594 Q23.0781,144.0469 23.3438,144.0469 Q23.5625,144.0469 23.6563,144 Q23.7656,143.9531 24.2188,143.3594 L24.9844,147.0938 L24.0938,147.3594 Q23.6406,145.9063 23.0313,145.3125 Q22.4375,144.7031 21.4844,144.7031 Q20.2656,144.7031 19.5469,146.1406 Q18.8281,147.5625 18.8281,149.75 Q18.8281,152.1563 19.4375,153.4531 Q20.0625,154.7344 21.4219,154.7344 Q22.375,154.7344 23.0625,154.0469 Q23.75,153.3438 24.0781,151.8438 L24.9844,152.25 Q24.5781,153.9531 23.6094,154.9063 Q22.6563,155.8594 21.3438,155.8594 Z " fill="#000000"/><text fill="#000000" font-family="sans-serif" font-size="14" lengthAdjust="spacing" textLength="70" x="36" y="156.4839">TeamSport</text><line style="stroke:#181818;stroke-width:0.5;" x1="8" x2="108" y1="166" y2="166"/><line style="stroke:#181818;stroke-width:0.5;" x1="8" x2="108" y1="174" y2="174"/></g><!--class Kickball--><g id="elem_Kickball"><rect fill="#F1F1F1" height="48" id="Kickball" rx="2.5" ry="2.5" style="stroke:#181818;stroke-width:0.5;" width="80" x="18" y="261"/><ellipse cx="33" cy="277" fill="#ADD1B2" rx="11" ry="11" style="stroke:#181818;stroke-width:1.0;"/><path d="M32.3438,282.8594 Q30.3594,282.8594 29.1875,281.3906 Q28.0313,279.9063 28.0313,276.8281 Q28.0313,274.2188 29.25,272.4688 Q30.4844,270.7188 32.6094,270.7188 Q33.1094,270.7188 33.6406,270.8594 Q34.0781,271.0469 34.3438,271.0469 Q34.5625,271.0469 34.6563,271 Q34.7656,270.9531 35.2188,270.3594 L35.9844,274.0938 L35.0938,274.3594 Q34.6406,272.9063 34.0313,272.3125 Q33.4375,271.7031 32.4844,271.7031 Q31.2656,271.7031 30.5469,273.1406 Q29.8281,274.5625 29.8281,276.75 Q29.8281,279.1563 30.4375,280.4531 Q31.0625,281.7344 32.4219,281.7344 Q33.375,281.7344 34.0625,281.0469 Q34.75,280.3438 35.0781,278.8438 L35.9844,279.25 Q35.5781,280.9531 34.6094,281.9063 Q33.6563,282.8594 32.3438,282.8594 Z " fill="#000000"/><text fill="#000000" font-family="sans-serif" font-size="14" lengthAdjust="spacing" textLength="48" x="47" y="283.4839">Kickball</text><line style="stroke:#181818;stroke-width:0.5;" x1="19" x2="97" y1="293" y2="293"/><line style="stroke:#181818;stroke-width:0.5;" x1="19" x2="97" y1="301" y2="301"/></g><!--reverse link Sport to TeamSport--><g id="link_Sport_TeamSport"><path codeLine="1" d="M58,73.22 C58,95.67 58,111.5 58,133.91 " fill="none" id="Sport-backto-TeamSport" style="stroke:#181818;stroke-width:1.0;"/><polygon fill="none" points="58,55.22,52,73.22,64,73.22,58,55.22" style="stroke:#181818;stroke-width:1.0;"/><text fill="#000000" font-family="sans-serif" font-size="13" lengthAdjust="spacing" textLength="42" x="59" y="100.8979">inherits</text></g><!--reverse link TeamSport to Kickball--><g id="link_TeamSport_Kickball"><path codeLine="2" d="M58,200.22 C58,222.67 58,238.5 58,260.91 " fill="none" id="TeamSport-backto-Kickball" style="stroke:#181818;stroke-width:1.0;"/><polygon fill="none" points="58,182.22,52,200.22,64,200.22,58,182.22" style="stroke:#181818;stroke-width:1.0;"/><text fill="#000000" font-family="sans-serif" font-size="13" lengthAdjust="spacing" textLength="42" x="59" y="227.8979">inherits</text></g><!--SRC=[2ox8BofHiAdHrLK8IKtC3GPphHGoyp9IYp9BYhaGWc0rtfd9sKc9EJb8IW00]--></g></svg>