<?xml version="1.0" encoding="us-ascii" standalone="no"?><svg xmlns="http://www.w3.org/2000/svg" xmlns:xlink="http://www.w3.org/1999/xlink" contentStyleType="text/css" height="316px" preserveAspectRatio="none" style="width:141px;height:316px;background:#FFFFFF;" version="1.1" viewBox="0 0 141 316" width="141px" zoomAndPan="magnify"><defs/><g><!--class Sport--><g id="elem_Sport"><rect fill="#F1F1F1" height="48" id="Sport" rx="2.5" ry="2.5" style="stroke:#181818;stroke-width:0.5;" width="66" x="37.5" y="7"/><ellipse cx="52.5" cy="23" fill="#ADD1B2" rx="11" ry="11" style="stroke:#181818;stroke-width:1.0;"/><path d="M51.8438,28.8594 Q49.8594,28.8594 48.6875,27.3906 Q47.5313,25.9063 47.5313,22.8281 Q47.5313,20.2188 48.75,18.4688 Q49.9844,16.7188 52.1094,16.7188 Q52.6094,16.7188 53.1406,16.8594 Q53.5781,17.0469 53.8438,17.0469 Q54.0625,17.0469 54.1563,17 Q54.2656,16.9531 54.7188,16.3594 L55.4844,20.0938 L54.5938,20.3594 Q54.1406,18.9063 53.5313,18.3125 Q52.9375,17.7031 51.9844,17.7031 Q50.7656,17.7031 50.0469,19.1406 Q49.3281,20.5625 49.3281,22.75 Q49.3281,25.1563 49.9375,26.4531 Q50.5625,27.7344 51.9219,27.7344 Q52.875,27.7344 53.5625,27.0469 Q54.25,26.3438 54.5781,24.8438 L55.4844,25.25 Q55.0781,26.9531 54.1094,27.9063 Q53.1563,28.8594 51.8438,28.8594 Z " fill="#000000"/><text fill="#000000" font-family="sans-serif" font-size="14" lengthAdjust="spacing" textLength="34" x="66.5" y="29.4839">Sport</text><line style="stroke:#181818;stroke-width:0.5;" x1="38.5" x2="102.5" y1="39" y2="39"/><line style="stroke:#181818;stroke-width:0.5;" x1="38.5" x2="102.5" y1="47" y2="47"/></g><!--class Handball--><g id="elem_Handball"><rect fill="#F1F1F1" height="48" id="Handball" rx="2.5" ry="2.5" style="stroke:#181818;stroke-width:0.5;" width="87" x="27" y="134"/><ellipse cx="42" cy="150" fill="#ADD1B2" rx="11" ry="11" style="stroke:#181818;stroke-width:1.0;"/><path d="M41.3438,155.8594 Q39.3594,155.8594 38.1875,154.3906 Q37.0313,152.9063 37.0313,149.8281 Q37.0313,147.2188 38.25,145.4688 Q39.4844,143.7188 41.6094,143.7188 Q42.1094,143.7188 42.6406,143.8594 Q43.0781,144.0469 43.3438,144.0469 Q43.5625,144.0469 43.6563,144 Q43.7656,143.9531 44.2188,143.3594 L44.9844,147.0938 L44.0938,147.3594 Q43.6406,145.9063 43.0313,145.3125 Q42.4375,144.7031 41.4844,144.7031 Q40.2656,144.7031 39.5469,146.1406 Q38.8281,147.5625 38.8281,149.75 Q38.8281,152.1563 39.4375,153.4531 Q40.0625,154.7344 41.4219,154.7344 Q42.375,154.7344 43.0625,154.0469 Q43.75,153.3438 44.0781,151.8438 L44.9844,152.25 Q44.5781,153.9531 43.6094,154.9063 Q42.6563,155.8594 41.3438,155.8594 Z " fill="#000000"/><text fill="#000000" font-family="sans-serif" font-size="14" lengthAdjust="spacing" textLength="55" x="56" y="156.4839">Handball</text><line style="stroke:#181818;stroke-width:0.5;" x1="28" x2="113" y1="166" y2="166"/><line style="stroke:#181818;stroke-width:0.5;" x1="28" x2="113" y1="174" y2="174"/></g><!--class BeachHandball--><g id="elem_BeachHandball"><rect fill="#F1F1F1" height="48" id="BeachHandball" rx="2.5" ry="2.5" style="stroke:#181818;stroke-width:0.5;" width="127" x="7" y="261"/><ellipse cx="22" cy="277" fill="#ADD1B2" rx="11" ry="11" style="stroke:#181818;stroke-width:1.0;"/><path d="M21.3438,282.8594 Q19.3594,282.8594 18.1875,281.3906 Q17.0313,279.9063 17.0313,276.8281 Q17.0313,274.2188 18.25,272.4688 Q19.4844,270.7188 21.6094,270.7188 Q22.1094,270.7188 22.6406,270.8594 Q23.0781,271.0469 23.3438,271.0469 Q23.5625,271.0469 23.6563,271 Q23.7656,270.9531 24.2188,270.3594 L24.9844,274.0938 L24.0938,274.3594 Q23.6406,272.9063 23.0313,272.3125 Q22.4375,271.7031 21.4844,271.7031 Q20.2656,271.7031 19.5469,273.1406 Q18.8281,274.5625 18.8281,276.75 Q18.8281,279.1563 19.4375,280.4531 Q20.0625,281.7344 21.4219,281.7344 Q22.375,281.7344 23.0625,281.0469 Q23.75,280.3438 24.0781,278.8438 L24.9844,279.25 Q24.5781,280.9531 23.6094,281.9063 Q22.6563,282.8594 21.3438,282.8594 Z " fill="#000000"/><text fill="#000000" font-family="sans-serif" font-size="14" lengthAdjust="spacing" textLength="95" x="36" y="283.4839">BeachHandball</text><line style="stroke:#181818;stroke-width:0.5;" x1="8" x2="133" y1="293" y2="293"/><line style="stroke:#181818;stroke-width:0.5;" x1="8" x2="133" y1="301" y2="301"/></g><!--reverse link Sport to Handball--><g id="link_Sport_Handball"><path codeLine="1" d="M70.5,73.22 C70.5,95.67 70.5,111.5 70.5,133.91 " fill="none" id="Sport-backto-Handball" style="stroke:#181818;stroke-width:1.0;"/><polygon fill="none" points="70.5,55.22,64.5,73.22,76.5,73.22,70.5,55.22" style="stroke:#181818;stroke-width:1.0;"/><text fill="#000000" font-family="sans-serif" font-size="13" lengthAdjust="spacing" textLength="42" x="71.5" y="100.8979">inherits</text></g><!--reverse link Handball to BeachHandball--><g id="link_Handball_BeachHandball"><path codeLine="2" d="M70.5,200.22 C70.5,222.67 70.5,238.5 70.5,260.91 " fill="none" id="Handball-backto-BeachHandball" style="stroke:#181818;stroke-width:1.0;"/><polygon fill="none" points="70.5,182.22,64.5,200.22,76.5,200.22,70.5,182.22" style="stroke:#181818;stroke-width:1.0;"/><text fill="#000000" font-family="sans-serif" font-size="13" lengthAdjust="spacing" textLength="42" x="71.5" y="227.8979">inherits</text></g><!--SRC=[2ox8BofHiAdHrLNmICnBIKhCoL6mKiZCoqWjoYmfveABWLKufIOcPs1H1W00]--></g></svg>