<?xml version="1.0" encoding="us-ascii" standalone="no"?><svg xmlns="http://www.w3.org/2000/svg" xmlns:xlink="http://www.w3.org/1999/xlink" contentStyleType="text/css" height="189px" preserveAspectRatio="none" style="width:113px;height:189px;background:#FFFFFF;" version="1.1" viewBox="0 0 113 189" width="113px" zoomAndPan="magnify"><defs/><g><!--class Alpaca--><g id="elem_Alpaca"><rect fill="#F1F1F1" height="48" id="Alpaca" rx="2.5" ry="2.5" style="stroke:#181818;stroke-width:0.5;" width="75" x="7" y="7"/><ellipse cx="22" cy="23" fill="#ADD1B2" rx="11" ry="11" style="stroke:#181818;stroke-width:1.0;"/><path d="M21.3438,28.8594 Q19.3594,28.8594 18.1875,27.3906 Q17.0313,25.9063 17.0313,22.8281 Q17.0313,20.2188 18.25,18.4688 Q19.4844,16.7188 21.6094,16.7188 Q22.1094,16.7188 22.6406,16.8594 Q23.0781,17.0469 23.3438,17.0469 Q23.5625,17.0469 23.6563,17 Q23.7656,16.9531 24.2188,16.3594 L24.9844,20.0938 L24.0938,20.3594 Q23.6406,18.9063 23.0313,18.3125 Q22.4375,17.7031 21.4844,17.7031 Q20.2656,17.7031 19.5469,19.1406 Q18.8281,20.5625 18.8281,22.75 Q18.8281,25.1563 19.4375,26.4531 Q20.0625,27.7344 21.4219,27.7344 Q22.375,27.7344 23.0625,27.0469 Q23.75,26.3438 24.0781,24.8438 L24.9844,25.25 Q24.5781,26.9531 23.6094,27.9063 Q22.6563,28.8594 21.3438,28.8594 Z " fill="#000000"/><text fill="#000000" font-family="sans-serif" font-size="14" lengthAdjust="spacing" textLength="43" x="36" y="29.4839">Alpaca</text><line style="stroke:#181818;stroke-width:0.5;" x1="8" x2="81" y1="39" y2="39"/><line style="stroke:#181818;stroke-width:0.5;" x1="8" x2="81" y1="47" y2="47"/></g><!--class Hoof--><g id="elem_Hoof"><rect fill="#F1F1F1" height="48" id="Hoof" rx="2.5" ry="2.5" style="stroke:#181818;stroke-width:0.5;" width="61" x="14" y="134"/><ellipse cx="29" cy="150" fill="#ADD1B2" rx="11" ry="11" style="stroke:#181818;stroke-width:1.0;"/><path d="M28.3438,155.8594 Q26.3594,155.8594 25.1875,154.3906 Q24.0313,152.9063 24.0313,149.8281 Q24.0313,147.2188 25.25,145.4688 Q26.4844,143.7188 28.6094,143.7188 Q29.1094,143.7188 29.6406,143.8594 Q30.0781,144.0469 30.3438,144.0469 Q30.5625,144.0469 30.6563,144 Q30.7656,143.9531 31.2188,143.3594 L31.9844,147.0938 L31.0938,147.3594 Q30.6406,145.9063 30.0313,145.3125 Q29.4375,144.7031 28.4844,144.7031 Q27.2656,144.7031 26.5469,146.1406 Q25.8281,147.5625 25.8281,149.75 Q25.8281,152.1563 26.4375,153.4531 Q27.0625,154.7344 28.4219,154.7344 Q29.375,154.7344 30.0625,154.0469 Q30.75,153.3438 31.0781,151.8438 L31.9844,152.25 Q31.5781,153.9531 30.6094,154.9063 Q29.6563,155.8594 28.3438,155.8594 Z " fill="#000000"/><text fill="#000000" font-family="sans-serif" font-size="14" lengthAdjust="spacing" textLength="29" x="43" y="156.4839">Hoof</text><line style="stroke:#181818;stroke-width:0.5;" x1="15" x2="74" y1="166" y2="166"/><line style="stroke:#181818;stroke-width:0.5;" x1="15" x2="74" y1="174" y2="174"/></g><!--reverse link Alpaca to Hoof--><g id="link_Alpaca_Hoof"><path codeLine="1" d="M44.5,67.22 C44.5,89.67 44.5,111.5 44.5,133.91 " fill="none" id="Alpaca-backto-Hoof" style="stroke:#181818;stroke-width:1.0;"/><polygon fill="#181818" points="44.5,55.22,40.5,61.22,44.5,67.22,48.5,61.22,44.5,55.22" style="stroke:#181818;stroke-width:1.0;"/><text fill="#000000" font-family="sans-serif" font-size="13" lengthAdjust="spacing" textLength="60" x="45.5" y="100.8979">composes</text></g><!--SRC=[SymfI4nELD3IrLNmoCzFKx1IICxFBSWlJYq60000]--></g></svg>