<?xml version="1.0" encoding="us-ascii" standalone="no"?><svg xmlns="http://www.w3.org/2000/svg" xmlns:xlink="http://www.w3.org/1999/xlink" contentStyleType="text/css" height="316px" preserveAspectRatio="none" style="width:160px;height:316px;background:#FFFFFF;" version="1.1" viewBox="0 0 160 316" width="160px" zoomAndPan="magnify"><defs/><g><!--class SwarmOfMosquito--><g id="elem_SwarmOfMosquito"><rect fill="#F1F1F1" height="48" id="SwarmOfMosquito" rx="2.5" ry="2.5" style="stroke:#181818;stroke-width:0.5;" width="146" x="7" y="134"/><ellipse cx="22" cy="150" fill="#ADD1B2" rx="11" ry="11" style="stroke:#181818;stroke-width:1.0;"/><path d="M21.3438,155.8594 Q19.3594,155.8594 18.1875,154.3906 Q17.0313,152.9063 17.0313,149.8281 Q17.0313,147.2188 18.25,145.4688 Q19.4844,143.7188 21.6094,143.7188 Q22.1094,143.7188 22.6406,143.8594 Q23.0781,144.0469 23.3438,144.0469 Q23.5625,144.0469 23.6563,144 Q23.7656,143.9531 24.2188,143.3594 L24.9844,147.0938 L24.0938,147.3594 Q23.6406,145.9063 23.0313,145.3125 Q22.4375,144.7031 21.4844,144.7031 Q20.2656,144.7031 19.5469,146.1406 Q18.8281,147.5625 18.8281,149.75 Q18.8281,152.1563 19.4375,153.4531 Q20.0625,154.7344 21.4219,154.7344 Q22.375,154.7344 23.0625,154.0469 Q23.75,153.3438 24.0781,151.8438 L24.9844,152.25 Q24.5781,153.9531 23.6094,154.9063 Q22.6563,155.8594 21.3438,155.8594 Z " fill="#000000"/><text fill="#000000" font-family="sans-serif" font-size="14" lengthAdjust="spacing" textLength="114" x="36" y="156.4839">SwarmOfMosquito</text><line style="stroke:#181818;stroke-width:0.5;" x1="8" x2="152" y1="166" y2="166"/><line style="stroke:#181818;stroke-width:0.5;" x1="8" x2="152" y1="174" y2="174"/></g><!--class Mosquito--><g id="elem_Mosquito"><rect fill="#F1F1F1" height="48" id="Mosquito" rx="2.5" ry="2.5" style="stroke:#181818;stroke-width:0.5;" width="89" x="35.5" y="261"/><ellipse cx="50.5" cy="277" fill="#ADD1B2" rx="11" ry="11" style="stroke:#181818;stroke-width:1.0;"/><path d="M49.8438,282.8594 Q47.8594,282.8594 46.6875,281.3906 Q45.5313,279.9063 45.5313,276.8281 Q45.5313,274.2188 46.75,272.4688 Q47.9844,270.7188 50.1094,270.7188 Q50.6094,270.7188 51.1406,270.8594 Q51.5781,271.0469 51.8438,271.0469 Q52.0625,271.0469 52.1563,271 Q52.2656,270.9531 52.7188,270.3594 L53.4844,274.0938 L52.5938,274.3594 Q52.1406,272.9063 51.5313,272.3125 Q50.9375,271.7031 49.9844,271.7031 Q48.7656,271.7031 48.0469,273.1406 Q47.3281,274.5625 47.3281,276.75 Q47.3281,279.1563 47.9375,280.4531 Q48.5625,281.7344 49.9219,281.7344 Q50.875,281.7344 51.5625,281.0469 Q52.25,280.3438 52.5781,278.8438 L53.4844,279.25 Q53.0781,280.9531 52.1094,281.9063 Q51.1563,282.8594 49.8438,282.8594 Z " fill="#000000"/><text fill="#000000" font-family="sans-serif" font-size="14" lengthAdjust="spacing" textLength="57" x="64.5" y="283.4839">Mosquito</text><line style="stroke:#181818;stroke-width:0.5;" x1="36.5" x2="123.5" y1="293" y2="293"/><line style="stroke:#181818;stroke-width:0.5;" x1="36.5" x2="123.5" y1="301" y2="301"/></g><!--class Lagoon--><g id="elem_Lagoon"><rect fill="#F1F1F1" height="48" id="Lagoon" rx="2.5" ry="2.5" style="stroke:#181818;stroke-width:0.5;" width="80" x="40" y="7"/><ellipse cx="55" cy="23" fill="#ADD1B2" rx="11" ry="11" style="stroke:#181818;stroke-width:1.0;"/><path d="M54.3438,28.8594 Q52.3594,28.8594 51.1875,27.3906 Q50.0313,25.9063 50.0313,22.8281 Q50.0313,20.2188 51.25,18.4688 Q52.4844,16.7188 54.6094,16.7188 Q55.1094,16.7188 55.6406,16.8594 Q56.0781,17.0469 56.3438,17.0469 Q56.5625,17.0469 56.6563,17 Q56.7656,16.9531 57.2188,16.3594 L57.9844,20.0938 L57.0938,20.3594 Q56.6406,18.9063 56.0313,18.3125 Q55.4375,17.7031 54.4844,17.7031 Q53.2656,17.7031 52.5469,19.1406 Q51.8281,20.5625 51.8281,22.75 Q51.8281,25.1563 52.4375,26.4531 Q53.0625,27.7344 54.4219,27.7344 Q55.375,27.7344 56.0625,27.0469 Q56.75,26.3438 57.0781,24.8438 L57.9844,25.25 Q57.5781,26.9531 56.6094,27.9063 Q55.6563,28.8594 54.3438,28.8594 Z " fill="#000000"/><text fill="#000000" font-family="sans-serif" font-size="14" lengthAdjust="spacing" textLength="48" x="69" y="29.4839">Lagoon</text><line style="stroke:#181818;stroke-width:0.5;" x1="41" x2="119" y1="39" y2="39"/><line style="stroke:#181818;stroke-width:0.5;" x1="41" x2="119" y1="47" y2="47"/></g><!--reverse link SwarmOfMosquito to Mosquito--><g id="link_SwarmOfMosquito_Mosquito"><path codeLine="1" d="M80,194.22 C80,216.67 80,238.5 80,260.91 " fill="none" id="SwarmOfMosquito-backto-Mosquito" style="stroke:#181818;stroke-width:1.0;"/><polygon fill="none" points="80,182.22,76,188.22,80,194.22,84,188.22,80,182.22" style="stroke:#181818;stroke-width:1.0;"/><text fill="#000000" font-family="sans-serif" font-size="13" lengthAdjust="spacing" textLength="64" x="81" y="227.8979">aggregates</text></g><!--reverse link Lagoon to SwarmOfMosquito--><g id="link_Lagoon_SwarmOfMosquito"><path codeLine="2" d="M80,67.22 C80,89.67 80,111.5 80,133.91 " fill="none" id="Lagoon-backto-SwarmOfMosquito" style="stroke:#181818;stroke-width:1.0;"/><polygon fill="none" points="80,55.22,76,61.22,80,67.22,84,61.22,80,55.22" style="stroke:#181818;stroke-width:1.0;"/><text fill="#000000" font-family="sans-serif" font-size="13" lengthAdjust="spacing" textLength="64" x="81" y="100.8979">aggregates</text></g><!--SRC=[2ovFBChrJ_FDBouipIp9LyZNrLM0SwmK4jFJYrBJ4qjIYxby4jFpy_F02eBHD26h0m00]--></g></svg>