<?xml version="1.0" encoding="us-ascii" standalone="no"?><svg xmlns="http://www.w3.org/2000/svg" xmlns:xlink="http://www.w3.org/1999/xlink" contentStyleType="text/css" height="316px" preserveAspectRatio="none" style="width:164px;height:316px;background:#FFFFFF;" version="1.1" viewBox="0 0 164 316" width="164px" zoomAndPan="magnify"><defs/><g><!--class SwarmOfDragonfly--><g id="elem_SwarmOfDragonfly"><rect fill="#F1F1F1" height="48" id="SwarmOfDragonfly" rx="2.5" ry="2.5" style="stroke:#181818;stroke-width:0.5;" width="150" x="7" y="134"/><ellipse cx="22" cy="150" fill="#ADD1B2" rx="11" ry="11" style="stroke:#181818;stroke-width:1.0;"/><path d="M21.3438,155.8594 Q19.3594,155.8594 18.1875,154.3906 Q17.0313,152.9063 17.0313,149.8281 Q17.0313,147.2188 18.25,145.4688 Q19.4844,143.7188 21.6094,143.7188 Q22.1094,143.7188 22.6406,143.8594 Q23.0781,144.0469 23.3438,144.0469 Q23.5625,144.0469 23.6563,144 Q23.7656,143.9531 24.2188,143.3594 L24.9844,147.0938 L24.0938,147.3594 Q23.6406,145.9063 23.0313,145.3125 Q22.4375,144.7031 21.4844,144.7031 Q20.2656,144.7031 19.5469,146.1406 Q18.8281,147.5625 18.8281,149.75 Q18.8281,152.1563 19.4375,153.4531 Q20.0625,154.7344 21.4219,154.7344 Q22.375,154.7344 23.0625,154.0469 Q23.75,153.3438 24.0781,151.8438 L24.9844,152.25 Q24.5781,153.9531 23.6094,154.9063 Q22.6563,155.8594 21.3438,155.8594 Z " fill="#000000"/><text fill="#000000" font-family="sans-serif" font-size="14" lengthAdjust="spacing" textLength="118" x="36" y="156.4839">SwarmOfDragonfly</text><line style="stroke:#181818;stroke-width:0.5;" x1="8" x2="156" y1="166" y2="166"/><line style="stroke:#181818;stroke-width:0.5;" x1="8" x2="156" y1="174" y2="174"/></g><!--class Dragonfly--><g id="elem_Dragonfly"><rect fill="#F1F1F1" height="48" id="Dragonfly" rx="2.5" ry="2.5" style="stroke:#181818;stroke-width:0.5;" width="93" x="35.5" y="261"/><ellipse cx="50.5" cy="277" fill="#ADD1B2" rx="11" ry="11" style="stroke:#181818;stroke-width:1.0;"/><path d="M49.8438,282.8594 Q47.8594,282.8594 46.6875,281.3906 Q45.5313,279.9063 45.5313,276.8281 Q45.5313,274.2188 46.75,272.4688 Q47.9844,270.7188 50.1094,270.7188 Q50.6094,270.7188 51.1406,270.8594 Q51.5781,271.0469 51.8438,271.0469 Q52.0625,271.0469 52.1563,271 Q52.2656,270.9531 52.7188,270.3594 L53.4844,274.0938 L52.5938,274.3594 Q52.1406,272.9063 51.5313,272.3125 Q50.9375,271.7031 49.9844,271.7031 Q48.7656,271.7031 48.0469,273.1406 Q47.3281,274.5625 47.3281,276.75 Q47.3281,279.1563 47.9375,280.4531 Q48.5625,281.7344 49.9219,281.7344 Q50.875,281.7344 51.5625,281.0469 Q52.25,280.3438 52.5781,278.8438 L53.4844,279.25 Q53.0781,280.9531 52.1094,281.9063 Q51.1563,282.8594 49.8438,282.8594 Z " fill="#000000"/><text fill="#000000" font-family="sans-serif" font-size="14" lengthAdjust="spacing" textLength="61" x="64.5" y="283.4839">Dragonfly</text><line style="stroke:#181818;stroke-width:0.5;" x1="36.5" x2="127.5" y1="293" y2="293"/><line style="stroke:#181818;stroke-width:0.5;" x1="36.5" x2="127.5" y1="301" y2="301"/></g><!--class Bay--><g id="elem_Bay"><rect fill="#F1F1F1" height="48" id="Bay" rx="2.5" ry="2.5" style="stroke:#181818;stroke-width:0.5;" width="56" x="54" y="7"/><ellipse cx="69" cy="23" fill="#ADD1B2" rx="11" ry="11" style="stroke:#181818;stroke-width:1.0;"/><path d="M68.3438,28.8594 Q66.3594,28.8594 65.1875,27.3906 Q64.0313,25.9063 64.0313,22.8281 Q64.0313,20.2188 65.25,18.4688 Q66.4844,16.7188 68.6094,16.7188 Q69.1094,16.7188 69.6406,16.8594 Q70.0781,17.0469 70.3438,17.0469 Q70.5625,17.0469 70.6563,17 Q70.7656,16.9531 71.2188,16.3594 L71.9844,20.0938 L71.0938,20.3594 Q70.6406,18.9063 70.0313,18.3125 Q69.4375,17.7031 68.4844,17.7031 Q67.2656,17.7031 66.5469,19.1406 Q65.8281,20.5625 65.8281,22.75 Q65.8281,25.1563 66.4375,26.4531 Q67.0625,27.7344 68.4219,27.7344 Q69.375,27.7344 70.0625,27.0469 Q70.75,26.3438 71.0781,24.8438 L71.9844,25.25 Q71.5781,26.9531 70.6094,27.9063 Q69.6563,28.8594 68.3438,28.8594 Z " fill="#000000"/><text fill="#000000" font-family="sans-serif" font-size="14" lengthAdjust="spacing" textLength="24" x="83" y="29.4839">Bay</text><line style="stroke:#181818;stroke-width:0.5;" x1="55" x2="109" y1="39" y2="39"/><line style="stroke:#181818;stroke-width:0.5;" x1="55" x2="109" y1="47" y2="47"/></g><!--reverse link SwarmOfDragonfly to Dragonfly--><g id="link_SwarmOfDragonfly_Dragonfly"><path codeLine="1" d="M82,194.22 C82,216.67 82,238.5 82,260.91 " fill="none" id="SwarmOfDragonfly-backto-Dragonfly" style="stroke:#181818;stroke-width:1.0;"/><polygon fill="none" points="82,182.22,78,188.22,82,194.22,86,188.22,82,182.22" style="stroke:#181818;stroke-width:1.0;"/><text fill="#000000" font-family="sans-serif" font-size="13" lengthAdjust="spacing" textLength="64" x="83" y="227.8979">aggregates</text></g><!--reverse link Bay to SwarmOfDragonfly--><g id="link_Bay_SwarmOfDragonfly"><path codeLine="2" d="M82,67.22 C82,89.67 82,111.5 82,133.91 " fill="none" id="Bay-backto-SwarmOfDragonfly" style="stroke:#181818;stroke-width:1.0;"/><polygon fill="none" points="82,55.22,78,61.22,82,67.22,86,61.22,82,55.22" style="stroke:#181818;stroke-width:1.0;"/><text fill="#000000" font-family="sans-serif" font-size="13" lengthAdjust="spacing" textLength="64" x="83" y="100.8979">aggregates</text></g><!--SRC=[2ovFBChrJtCfIapFpqlBgLJ8rzLLGF2i51BJqujIqnDBKekvd18Xqi7eUf1L0G00]--></g></svg>