<?xml version="1.0" encoding="us-ascii" standalone="no"?><svg xmlns="http://www.w3.org/2000/svg" xmlns:xlink="http://www.w3.org/1999/xlink" contentStyleType="text/css" height="316px" preserveAspectRatio="none" style="width:143px;height:316px;background:#FFFFFF;" version="1.1" viewBox="0 0 143 316" width="143px" zoomAndPan="magnify"><defs/><g><!--class NestOfTortoise--><g id="elem_NestOfTortoise"><rect fill="#F1F1F1" height="48" id="NestOfTortoise" rx="2.5" ry="2.5" style="stroke:#181818;stroke-width:0.5;" width="127" x="7" y="134"/><ellipse cx="22" cy="150" fill="#ADD1B2" rx="11" ry="11" style="stroke:#181818;stroke-width:1.0;"/><path d="M21.3438,155.8594 Q19.3594,155.8594 18.1875,154.3906 Q17.0313,152.9063 17.0313,149.8281 Q17.0313,147.2188 18.25,145.4688 Q19.4844,143.7188 21.6094,143.7188 Q22.1094,143.7188 22.6406,143.8594 Q23.0781,144.0469 23.3438,144.0469 Q23.5625,144.0469 23.6563,144 Q23.7656,143.9531 24.2188,143.3594 L24.9844,147.0938 L24.0938,147.3594 Q23.6406,145.9063 23.0313,145.3125 Q22.4375,144.7031 21.4844,144.7031 Q20.2656,144.7031 19.5469,146.1406 Q18.8281,147.5625 18.8281,149.75 Q18.8281,152.1563 19.4375,153.4531 Q20.0625,154.7344 21.4219,154.7344 Q22.375,154.7344 23.0625,154.0469 Q23.75,153.3438 24.0781,151.8438 L24.9844,152.25 Q24.5781,153.9531 23.6094,154.9063 Q22.6563,155.8594 21.3438,155.8594 Z " fill="#000000"/><text fill="#000000" font-family="sans-serif" font-size="14" lengthAdjust="spacing" textLength="95" x="36" y="156.4839">NestOfTortoise</text><line style="stroke:#181818;stroke-width:0.5;" x1="8" x2="133" y1="166" y2="166"/><line style="stroke:#181818;stroke-width:0.5;" x1="8" x2="133" y1="174" y2="174"/></g><!--class Tortoise--><g id="elem_Tortoise"><rect fill="#F1F1F1" height="48" id="Tortoise" rx="2.5" ry="2.5" style="stroke:#181818;stroke-width:0.5;" width="84" x="28.5" y="261"/><ellipse cx="43.5" cy="277" fill="#ADD1B2" rx="11" ry="11" style="stroke:#181818;stroke-width:1.0;"/><path d="M42.8438,282.8594 Q40.8594,282.8594 39.6875,281.3906 Q38.5313,279.9063 38.5313,276.8281 Q38.5313,274.2188 39.75,272.4688 Q40.9844,270.7188 43.1094,270.7188 Q43.6094,270.7188 44.1406,270.8594 Q44.5781,271.0469 44.8438,271.0469 Q45.0625,271.0469 45.1563,271 Q45.2656,270.9531 45.7188,270.3594 L46.4844,274.0938 L45.5938,274.3594 Q45.1406,272.9063 44.5313,272.3125 Q43.9375,271.7031 42.9844,271.7031 Q41.7656,271.7031 41.0469,273.1406 Q40.3281,274.5625 40.3281,276.75 Q40.3281,279.1563 40.9375,280.4531 Q41.5625,281.7344 42.9219,281.7344 Q43.875,281.7344 44.5625,281.0469 Q45.25,280.3438 45.5781,278.8438 L46.4844,279.25 Q46.0781,280.9531 45.1094,281.9063 Q44.1563,282.8594 42.8438,282.8594 Z " fill="#000000"/><text fill="#000000" font-family="sans-serif" font-size="14" lengthAdjust="spacing" textLength="52" x="57.5" y="283.4839">Tortoise</text><line style="stroke:#181818;stroke-width:0.5;" x1="29.5" x2="111.5" y1="293" y2="293"/><line style="stroke:#181818;stroke-width:0.5;" x1="29.5" x2="111.5" y1="301" y2="301"/></g><!--class Bay--><g id="elem_Bay"><rect fill="#F1F1F1" height="48" id="Bay" rx="2.5" ry="2.5" style="stroke:#181818;stroke-width:0.5;" width="56" x="42.5" y="7"/><ellipse cx="57.5" cy="23" fill="#ADD1B2" rx="11" ry="11" style="stroke:#181818;stroke-width:1.0;"/><path d="M56.8438,28.8594 Q54.8594,28.8594 53.6875,27.3906 Q52.5313,25.9063 52.5313,22.8281 Q52.5313,20.2188 53.75,18.4688 Q54.9844,16.7188 57.1094,16.7188 Q57.6094,16.7188 58.1406,16.8594 Q58.5781,17.0469 58.8438,17.0469 Q59.0625,17.0469 59.1563,17 Q59.2656,16.9531 59.7188,16.3594 L60.4844,20.0938 L59.5938,20.3594 Q59.1406,18.9063 58.5313,18.3125 Q57.9375,17.7031 56.9844,17.7031 Q55.7656,17.7031 55.0469,19.1406 Q54.3281,20.5625 54.3281,22.75 Q54.3281,25.1563 54.9375,26.4531 Q55.5625,27.7344 56.9219,27.7344 Q57.875,27.7344 58.5625,27.0469 Q59.25,26.3438 59.5781,24.8438 L60.4844,25.25 Q60.0781,26.9531 59.1094,27.9063 Q58.1563,28.8594 56.8438,28.8594 Z " fill="#000000"/><text fill="#000000" font-family="sans-serif" font-size="14" lengthAdjust="spacing" textLength="24" x="71.5" y="29.4839">Bay</text><line style="stroke:#181818;stroke-width:0.5;" x1="43.5" x2="97.5" y1="39" y2="39"/><line style="stroke:#181818;stroke-width:0.5;" x1="43.5" x2="97.5" y1="47" y2="47"/></g><!--reverse link NestOfTortoise to Tortoise--><g id="link_NestOfTortoise_Tortoise"><path codeLine="1" d="M70.5,194.22 C70.5,216.67 70.5,238.5 70.5,260.91 " fill="none" id="NestOfTortoise-backto-Tortoise" style="stroke:#181818;stroke-width:1.0;"/><polygon fill="none" points="70.5,182.22,66.5,188.22,70.5,194.22,74.5,188.22,70.5,182.22" style="stroke:#181818;stroke-width:1.0;"/><text fill="#000000" font-family="sans-serif" font-size="13" lengthAdjust="spacing" textLength="64" x="71.5" y="227.8979">aggregates</text></g><!--reverse link Bay to NestOfTortoise--><g id="link_Bay_NestOfTortoise"><path codeLine="2" d="M70.5,67.22 C70.5,89.67 70.5,111.5 70.5,133.91 " fill="none" id="Bay-backto-NestOfTortoise" style="stroke:#181818;stroke-width:1.0;"/><polygon fill="none" points="70.5,55.22,66.5,61.22,70.5,67.22,74.5,61.22,70.5,55.22" style="stroke:#181818;stroke-width:1.0;"/><text fill="#000000" font-family="sans-serif" font-size="13" lengthAdjust="spacing" textLength="64" x="71.5" y="100.8979">aggregates</text></g><!--SRC=[yqijBl5F2yalAidFB4vLoDVLLO1ph1GIqzEBKjCJIrABkPmIAy6oVgWQaDK00000]--></g></svg>