<?xml version="1.0" encoding="us-ascii" standalone="no"?><svg xmlns="http://www.w3.org/2000/svg" xmlns:xlink="http://www.w3.org/1999/xlink" contentStyleType="text/css" height="316px" preserveAspectRatio="none" style="width:143px;height:316px;background:#FFFFFF;" version="1.1" viewBox="0 0 143 316" width="143px" zoomAndPan="magnify"><defs/><g><!--class SchoolOfPerch--><g id="elem_SchoolOfPerch"><rect fill="#F1F1F1" height="48" id="SchoolOfPerch" rx="2.5" ry="2.5" style="stroke:#181818;stroke-width:0.5;" width="127" x="7" y="134"/><ellipse cx="22" cy="150" fill="#ADD1B2" rx="11" ry="11" style="stroke:#181818;stroke-width:1.0;"/><path d="M21.3438,155.8594 Q19.3594,155.8594 18.1875,154.3906 Q17.0313,152.9063 17.0313,149.8281 Q17.0313,147.2188 18.25,145.4688 Q19.4844,143.7188 21.6094,143.7188 Q22.1094,143.7188 22.6406,143.8594 Q23.0781,144.0469 23.3438,144.0469 Q23.5625,144.0469 23.6563,144 Q23.7656,143.9531 24.2188,143.3594 L24.9844,147.0938 L24.0938,147.3594 Q23.6406,145.9063 23.0313,145.3125 Q22.4375,144.7031 21.4844,144.7031 Q20.2656,144.7031 19.5469,146.1406 Q18.8281,147.5625 18.8281,149.75 Q18.8281,152.1563 19.4375,153.4531 Q20.0625,154.7344 21.4219,154.7344 Q22.375,154.7344 23.0625,154.0469 Q23.75,153.3438 24.0781,151.8438 L24.9844,152.25 Q24.5781,153.9531 23.6094,154.9063 Q22.6563,155.8594 21.3438,155.8594 Z " fill="#000000"/><text fill="#000000" font-family="sans-serif" font-size="14" lengthAdjust="spacing" textLength="95" x="36" y="156.4839">SchoolOfPerch</text><line style="stroke:#181818;stroke-width:0.5;" x1="8" x2="133" y1="166" y2="166"/><line style="stroke:#181818;stroke-width:0.5;" x1="8" x2="133" y1="174" y2="174"/></g><!--class Perch--><g id="elem_Perch"><rect fill="#F1F1F1" height="48" id="Perch" rx="2.5" ry="2.5" style="stroke:#181818;stroke-width:0.5;" width="69" x="36" y="261"/><ellipse cx="51" cy="277" fill="#ADD1B2" rx="11" ry="11" style="stroke:#181818;stroke-width:1.0;"/><path d="M50.3438,282.8594 Q48.3594,282.8594 47.1875,281.3906 Q46.0313,279.9063 46.0313,276.8281 Q46.0313,274.2188 47.25,272.4688 Q48.4844,270.7188 50.6094,270.7188 Q51.1094,270.7188 51.6406,270.8594 Q52.0781,271.0469 52.3438,271.0469 Q52.5625,271.0469 52.6563,271 Q52.7656,270.9531 53.2188,270.3594 L53.9844,274.0938 L53.0938,274.3594 Q52.6406,272.9063 52.0313,272.3125 Q51.4375,271.7031 50.4844,271.7031 Q49.2656,271.7031 48.5469,273.1406 Q47.8281,274.5625 47.8281,276.75 Q47.8281,279.1563 48.4375,280.4531 Q49.0625,281.7344 50.4219,281.7344 Q51.375,281.7344 52.0625,281.0469 Q52.75,280.3438 53.0781,278.8438 L53.9844,279.25 Q53.5781,280.9531 52.6094,281.9063 Q51.6563,282.8594 50.3438,282.8594 Z " fill="#000000"/><text fill="#000000" font-family="sans-serif" font-size="14" lengthAdjust="spacing" textLength="37" x="65" y="283.4839">Perch</text><line style="stroke:#181818;stroke-width:0.5;" x1="37" x2="104" y1="293" y2="293"/><line style="stroke:#181818;stroke-width:0.5;" x1="37" x2="104" y1="301" y2="301"/></g><!--class Barn--><g id="elem_Barn"><rect fill="#F1F1F1" height="48" id="Barn" rx="2.5" ry="2.5" style="stroke:#181818;stroke-width:0.5;" width="62" x="39.5" y="7"/><ellipse cx="54.5" cy="23" fill="#ADD1B2" rx="11" ry="11" style="stroke:#181818;stroke-width:1.0;"/><path d="M53.8438,28.8594 Q51.8594,28.8594 50.6875,27.3906 Q49.5313,25.9063 49.5313,22.8281 Q49.5313,20.2188 50.75,18.4688 Q51.9844,16.7188 54.1094,16.7188 Q54.6094,16.7188 55.1406,16.8594 Q55.5781,17.0469 55.8438,17.0469 Q56.0625,17.0469 56.1563,17 Q56.2656,16.9531 56.7188,16.3594 L57.4844,20.0938 L56.5938,20.3594 Q56.1406,18.9063 55.5313,18.3125 Q54.9375,17.7031 53.9844,17.7031 Q52.7656,17.7031 52.0469,19.1406 Q51.3281,20.5625 51.3281,22.75 Q51.3281,25.1563 51.9375,26.4531 Q52.5625,27.7344 53.9219,27.7344 Q54.875,27.7344 55.5625,27.0469 Q56.25,26.3438 56.5781,24.8438 L57.4844,25.25 Q57.0781,26.9531 56.1094,27.9063 Q55.1563,28.8594 53.8438,28.8594 Z " fill="#000000"/><text fill="#000000" font-family="sans-serif" font-size="14" lengthAdjust="spacing" textLength="30" x="68.5" y="29.4839">Barn</text><line style="stroke:#181818;stroke-width:0.5;" x1="40.5" x2="100.5" y1="39" y2="39"/><line style="stroke:#181818;stroke-width:0.5;" x1="40.5" x2="100.5" y1="47" y2="47"/></g><!--reverse link SchoolOfPerch to Perch--><g id="link_SchoolOfPerch_Perch"><path codeLine="1" d="M70.5,194.22 C70.5,216.67 70.5,238.5 70.5,260.91 " fill="none" id="SchoolOfPerch-backto-Perch" style="stroke:#181818;stroke-width:1.0;"/><polygon fill="none" points="70.5,182.22,66.5,188.22,70.5,194.22,74.5,188.22,70.5,182.22" style="stroke:#181818;stroke-width:1.0;"/><text fill="#000000" font-family="sans-serif" font-size="13" lengthAdjust="spacing" textLength="64" x="71.5" y="227.8979">aggregates</text></g><!--reverse link Barn to SchoolOfPerch--><g id="link_Barn_SchoolOfPerch"><path codeLine="2" d="M70.5,67.22 C70.5,89.67 70.5,111.5 70.5,133.91 " fill="none" id="Barn-backto-SchoolOfPerch" style="stroke:#181818;stroke-width:1.0;"/><polygon fill="none" points="70.5,55.22,66.5,61.22,70.5,67.22,74.5,61.22,70.5,55.22" style="stroke:#181818;stroke-width:1.0;"/><text fill="#000000" font-family="sans-serif" font-size="13" lengthAdjust="spacing" textLength="64" x="71.5" y="100.8979">aggregates</text></g><!--SRC=[2qxEoC_FyKyBI2rApb38rzLLWB2i51BJqujIqnDBKekvd1AByi1omIYgaTK00000]--></g></svg>