<?xml version="1.0" encoding="us-ascii" standalone="no"?><svg xmlns="http://www.w3.org/2000/svg" xmlns:xlink="http://www.w3.org/1999/xlink" contentStyleType="text/css" height="316px" preserveAspectRatio="none" style="width:143px;height:316px;background:#FFFFFF;" version="1.1" viewBox="0 0 143 316" width="143px" zoomAndPan="magnify"><defs/><g><!--class FlockOfMagpie--><g id="elem_FlockOfMagpie"><rect fill="#F1F1F1" height="48" id="FlockOfMagpie" rx="2.5" ry="2.5" style="stroke:#181818;stroke-width:0.5;" width="127" x="7" y="134"/><ellipse cx="22" cy="150" fill="#ADD1B2" rx="11" ry="11" style="stroke:#181818;stroke-width:1.0;"/><path d="M21.3438,155.8594 Q19.3594,155.8594 18.1875,154.3906 Q17.0313,152.9063 17.0313,149.8281 Q17.0313,147.2188 18.25,145.4688 Q19.4844,143.7188 21.6094,143.7188 Q22.1094,143.7188 22.6406,143.8594 Q23.0781,144.0469 23.3438,144.0469 Q23.5625,144.0469 23.6563,144 Q23.7656,143.9531 24.2188,143.3594 L24.9844,147.0938 L24.0938,147.3594 Q23.6406,145.9063 23.0313,145.3125 Q22.4375,144.7031 21.4844,144.7031 Q20.2656,144.7031 19.5469,146.1406 Q18.8281,147.5625 18.8281,149.75 Q18.8281,152.1563 19.4375,153.4531 Q20.0625,154.7344 21.4219,154.7344 Q22.375,154.7344 23.0625,154.0469 Q23.75,153.3438 24.0781,151.8438 L24.9844,152.25 Q24.5781,153.9531 23.6094,154.9063 Q22.6563,155.8594 21.3438,155.8594 Z " fill="#000000"/><text fill="#000000" font-family="sans-serif" font-size="14" lengthAdjust="spacing" textLength="95" x="36" y="156.4839">FlockOfMagpie</text><line style="stroke:#181818;stroke-width:0.5;" x1="8" x2="133" y1="166" y2="166"/><line style="stroke:#181818;stroke-width:0.5;" x1="8" x2="133" y1="174" y2="174"/></g><!--class Magpie--><g id="elem_Magpie"><rect fill="#F1F1F1" height="48" id="Magpie" rx="2.5" ry="2.5" style="stroke:#181818;stroke-width:0.5;" width="78" x="31.5" y="261"/><ellipse cx="46.5" cy="277" fill="#ADD1B2" rx="11" ry="11" style="stroke:#181818;stroke-width:1.0;"/><path d="M45.8438,282.8594 Q43.8594,282.8594 42.6875,281.3906 Q41.5313,279.9063 41.5313,276.8281 Q41.5313,274.2188 42.75,272.4688 Q43.9844,270.7188 46.1094,270.7188 Q46.6094,270.7188 47.1406,270.8594 Q47.5781,271.0469 47.8438,271.0469 Q48.0625,271.0469 48.1563,271 Q48.2656,270.9531 48.7188,270.3594 L49.4844,274.0938 L48.5938,274.3594 Q48.1406,272.9063 47.5313,272.3125 Q46.9375,271.7031 45.9844,271.7031 Q44.7656,271.7031 44.0469,273.1406 Q43.3281,274.5625 43.3281,276.75 Q43.3281,279.1563 43.9375,280.4531 Q44.5625,281.7344 45.9219,281.7344 Q46.875,281.7344 47.5625,281.0469 Q48.25,280.3438 48.5781,278.8438 L49.4844,279.25 Q49.0781,280.9531 48.1094,281.9063 Q47.1563,282.8594 45.8438,282.8594 Z " fill="#000000"/><text fill="#000000" font-family="sans-serif" font-size="14" lengthAdjust="spacing" textLength="46" x="60.5" y="283.4839">Magpie</text><line style="stroke:#181818;stroke-width:0.5;" x1="32.5" x2="108.5" y1="293" y2="293"/><line style="stroke:#181818;stroke-width:0.5;" x1="32.5" x2="108.5" y1="301" y2="301"/></g><!--class Hatchery--><g id="elem_Hatchery"><rect fill="#F1F1F1" height="48" id="Hatchery" rx="2.5" ry="2.5" style="stroke:#181818;stroke-width:0.5;" width="88" x="26.5" y="7"/><ellipse cx="41.5" cy="23" fill="#ADD1B2" rx="11" ry="11" style="stroke:#181818;stroke-width:1.0;"/><path d="M40.8438,28.8594 Q38.8594,28.8594 37.6875,27.3906 Q36.5313,25.9063 36.5313,22.8281 Q36.5313,20.2188 37.75,18.4688 Q38.9844,16.7188 41.1094,16.7188 Q41.6094,16.7188 42.1406,16.8594 Q42.5781,17.0469 42.8438,17.0469 Q43.0625,17.0469 43.1563,17 Q43.2656,16.9531 43.7188,16.3594 L44.4844,20.0938 L43.5938,20.3594 Q43.1406,18.9063 42.5313,18.3125 Q41.9375,17.7031 40.9844,17.7031 Q39.7656,17.7031 39.0469,19.1406 Q38.3281,20.5625 38.3281,22.75 Q38.3281,25.1563 38.9375,26.4531 Q39.5625,27.7344 40.9219,27.7344 Q41.875,27.7344 42.5625,27.0469 Q43.25,26.3438 43.5781,24.8438 L44.4844,25.25 Q44.0781,26.9531 43.1094,27.9063 Q42.1563,28.8594 40.8438,28.8594 Z " fill="#000000"/><text fill="#000000" font-family="sans-serif" font-size="14" lengthAdjust="spacing" textLength="56" x="55.5" y="29.4839">Hatchery</text><line style="stroke:#181818;stroke-width:0.5;" x1="27.5" x2="113.5" y1="39" y2="39"/><line style="stroke:#181818;stroke-width:0.5;" x1="27.5" x2="113.5" y1="47" y2="47"/></g><!--reverse link FlockOfMagpie to Magpie--><g id="link_FlockOfMagpie_Magpie"><path codeLine="1" d="M70.5,194.22 C70.5,216.67 70.5,238.5 70.5,260.91 " fill="none" id="FlockOfMagpie-backto-Magpie" style="stroke:#181818;stroke-width:1.0;"/><polygon fill="none" points="70.5,182.22,66.5,188.22,70.5,194.22,74.5,188.22,70.5,182.22" style="stroke:#181818;stroke-width:1.0;"/><text fill="#000000" font-family="sans-serif" font-size="13" lengthAdjust="spacing" textLength="64" x="71.5" y="227.8979">aggregates</text></g><!--reverse link Hatchery to FlockOfMagpie--><g id="link_Hatchery_FlockOfMagpie"><path codeLine="2" d="M70.5,67.22 C70.5,89.67 70.5,111.5 70.5,133.91 " fill="none" id="Hatchery-backto-FlockOfMagpie" style="stroke:#181818;stroke-width:1.0;"/><polygon fill="none" points="70.5,55.22,66.5,61.22,70.5,67.22,74.5,61.22,70.5,55.22" style="stroke:#181818;stroke-width:1.0;"/><text fill="#000000" font-family="sans-serif" font-size="13" lengthAdjust="spacing" textLength="64" x="71.5" y="100.8979">aggregates</text></g><!--SRC=[Syl9JyxsJ_DDJ2_8J5N8rzLLW3Aj51BJqujIqnDBKekvF19BaZDIYoh12jnGj22h0m00]--></g></svg>