<?xml version="1.0" encoding="us-ascii" standalone="no"?><svg xmlns="http://www.w3.org/2000/svg" xmlns:xlink="http://www.w3.org/1999/xlink" contentStyleType="text/css" height="316px" preserveAspectRatio="none" style="width:155px;height:316px;background:#FFFFFF;" version="1.1" viewBox="0 0 155 316" width="155px" zoomAndPan="magnify"><defs/><g><!--class HotAndSourSoup--><g id="elem_HotAndSourSoup"><rect fill="#F1F1F1" height="48" id="HotAndSourSoup" rx="2.5" ry="2.5" style="stroke:#181818;stroke-width:0.5;" width="141" x="7" y="7"/><ellipse cx="22" cy="23" fill="#ADD1B2" rx="11" ry="11" style="stroke:#181818;stroke-width:1.0;"/><path d="M21.3438,28.8594 Q19.3594,28.8594 18.1875,27.3906 Q17.0313,25.9063 17.0313,22.8281 Q17.0313,20.2188 18.25,18.4688 Q19.4844,16.7188 21.6094,16.7188 Q22.1094,16.7188 22.6406,16.8594 Q23.0781,17.0469 23.3438,17.0469 Q23.5625,17.0469 23.6563,17 Q23.7656,16.9531 24.2188,16.3594 L24.9844,20.0938 L24.0938,20.3594 Q23.6406,18.9063 23.0313,18.3125 Q22.4375,17.7031 21.4844,17.7031 Q20.2656,17.7031 19.5469,19.1406 Q18.8281,20.5625 18.8281,22.75 Q18.8281,25.1563 19.4375,26.4531 Q20.0625,27.7344 21.4219,27.7344 Q22.375,27.7344 23.0625,27.0469 Q23.75,26.3438 24.0781,24.8438 L24.9844,25.25 Q24.5781,26.9531 23.6094,27.9063 Q22.6563,28.8594 21.3438,28.8594 Z " fill="#000000"/><text fill="#000000" font-family="sans-serif" font-size="14" lengthAdjust="spacing" textLength="109" x="36" y="29.4839">HotAndSourSoup</text><line style="stroke:#181818;stroke-width:0.5;" x1="8" x2="147" y1="39" y2="39"/><line style="stroke:#181818;stroke-width:0.5;" x1="8" x2="147" y1="47" y2="47"/></g><!--class Soup--><g id="elem_Soup"><rect fill="#F1F1F1" height="48" id="Soup" rx="2.5" ry="2.5" style="stroke:#181818;stroke-width:0.5;" width="65" x="45" y="134"/><ellipse cx="60" cy="150" fill="#ADD1B2" rx="11" ry="11" style="stroke:#181818;stroke-width:1.0;"/><path d="M59.3438,155.8594 Q57.3594,155.8594 56.1875,154.3906 Q55.0313,152.9063 55.0313,149.8281 Q55.0313,147.2188 56.25,145.4688 Q57.4844,143.7188 59.6094,143.7188 Q60.1094,143.7188 60.6406,143.8594 Q61.0781,144.0469 61.3438,144.0469 Q61.5625,144.0469 61.6563,144 Q61.7656,143.9531 62.2188,143.3594 L62.9844,147.0938 L62.0938,147.3594 Q61.6406,145.9063 61.0313,145.3125 Q60.4375,144.7031 59.4844,144.7031 Q58.2656,144.7031 57.5469,146.1406 Q56.8281,147.5625 56.8281,149.75 Q56.8281,152.1563 57.4375,153.4531 Q58.0625,154.7344 59.4219,154.7344 Q60.375,154.7344 61.0625,154.0469 Q61.75,153.3438 62.0781,151.8438 L62.9844,152.25 Q62.5781,153.9531 61.6094,154.9063 Q60.6563,155.8594 59.3438,155.8594 Z " fill="#000000"/><text fill="#000000" font-family="sans-serif" font-size="14" lengthAdjust="spacing" textLength="33" x="74" y="156.4839">Soup</text><line style="stroke:#181818;stroke-width:0.5;" x1="46" x2="109" y1="166" y2="166"/><line style="stroke:#181818;stroke-width:0.5;" x1="46" x2="109" y1="174" y2="174"/></g><!--class Dish--><g id="elem_Dish"><rect fill="#F1F1F1" height="48" id="Dish" rx="2.5" ry="2.5" style="stroke:#181818;stroke-width:0.5;" width="60" x="47.5" y="261"/><ellipse cx="62.5" cy="277" fill="#ADD1B2" rx="11" ry="11" style="stroke:#181818;stroke-width:1.0;"/><path d="M61.8438,282.8594 Q59.8594,282.8594 58.6875,281.3906 Q57.5313,279.9063 57.5313,276.8281 Q57.5313,274.2188 58.75,272.4688 Q59.9844,270.7188 62.1094,270.7188 Q62.6094,270.7188 63.1406,270.8594 Q63.5781,271.0469 63.8438,271.0469 Q64.0625,271.0469 64.1563,271 Q64.2656,270.9531 64.7188,270.3594 L65.4844,274.0938 L64.5938,274.3594 Q64.1406,272.9063 63.5313,272.3125 Q62.9375,271.7031 61.9844,271.7031 Q60.7656,271.7031 60.0469,273.1406 Q59.3281,274.5625 59.3281,276.75 Q59.3281,279.1563 59.9375,280.4531 Q60.5625,281.7344 61.9219,281.7344 Q62.875,281.7344 63.5625,281.0469 Q64.25,280.3438 64.5781,278.8438 L65.4844,279.25 Q65.0781,280.9531 64.1094,281.9063 Q63.1563,282.8594 61.8438,282.8594 Z " fill="#000000"/><text fill="#000000" font-family="sans-serif" font-size="14" lengthAdjust="spacing" textLength="28" x="76.5" y="283.4839">Dish</text><line style="stroke:#181818;stroke-width:0.5;" x1="48.5" x2="106.5" y1="293" y2="293"/><line style="stroke:#181818;stroke-width:0.5;" x1="48.5" x2="106.5" y1="301" y2="301"/></g><!--reverse link HotAndSourSoup to Soup--><g id="link_HotAndSourSoup_Soup"><path codeLine="1" d="M77.5,73.22 C77.5,95.67 77.5,111.5 77.5,133.91 " fill="none" id="HotAndSourSoup-backto-Soup" style="stroke:#181818;stroke-width:1.0;"/><polygon fill="none" points="77.5,55.22,71.5,73.22,83.5,73.22,77.5,55.22" style="stroke:#181818;stroke-width:1.0;"/><text fill="#000000" font-family="sans-serif" font-size="13" lengthAdjust="spacing" textLength="42" x="78.5" y="100.8979">inherits</text></g><!--reverse link Soup to Dish--><g id="link_Soup_Dish"><path codeLine="2" d="M77.5,200.22 C77.5,222.67 77.5,238.5 77.5,260.91 " fill="none" id="Soup-backto-Dish" style="stroke:#181818;stroke-width:1.0;"/><polygon fill="none" points="77.5,182.22,71.5,200.22,83.5,200.22,77.5,182.22" style="stroke:#181818;stroke-width:1.0;"/><text fill="#000000" font-family="sans-serif" font-size="13" lengthAdjust="spacing" textLength="42" x="78.5" y="227.8979">inherits</text></g><!--SRC=[yyWlSSnB2SulBGBY0WMR6brT1J3BIY4pBoErABEac0iXuv9Pd84a0m00]--></g></svg>