<?xml version="1.0" encoding="us-ascii" standalone="no"?><svg xmlns="http://www.w3.org/2000/svg" xmlns:xlink="http://www.w3.org/1999/xlink" contentStyleType="text/css" height="189px" preserveAspectRatio="none" style="width:155px;height:189px;background:#FFFFFF;" version="1.1" viewBox="0 0 155 189" width="155px" zoomAndPan="magnify"><defs/><g><!--class Eye--><g id="elem_Eye"><rect fill="#F1F1F1" height="48" id="Eye" rx="2.5" ry="2.5" style="stroke:#181818;stroke-width:0.5;" width="56" x="49.5" y="7"/><ellipse cx="64.5" cy="23" fill="#ADD1B2" rx="11" ry="11" style="stroke:#181818;stroke-width:1.0;"/><path d="M63.8438,28.8594 Q61.8594,28.8594 60.6875,27.3906 Q59.5313,25.9063 59.5313,22.8281 Q59.5313,20.2188 60.75,18.4688 Q61.9844,16.7188 64.1094,16.7188 Q64.6094,16.7188 65.1406,16.8594 Q65.5781,17.0469 65.8438,17.0469 Q66.0625,17.0469 66.1563,17 Q66.2656,16.9531 66.7188,16.3594 L67.4844,20.0938 L66.5938,20.3594 Q66.1406,18.9063 65.5313,18.3125 Q64.9375,17.7031 63.9844,17.7031 Q62.7656,17.7031 62.0469,19.1406 Q61.3281,20.5625 61.3281,22.75 Q61.3281,25.1563 61.9375,26.4531 Q62.5625,27.7344 63.9219,27.7344 Q64.875,27.7344 65.5625,27.0469 Q66.25,26.3438 66.5781,24.8438 L67.4844,25.25 Q67.0781,26.9531 66.1094,27.9063 Q65.1563,28.8594 63.8438,28.8594 Z " fill="#000000"/><text fill="#000000" font-family="sans-serif" font-size="14" lengthAdjust="spacing" textLength="24" x="78.5" y="29.4839">Eye</text><line style="stroke:#181818;stroke-width:0.5;" x1="50.5" x2="104.5" y1="39" y2="39"/><line style="stroke:#181818;stroke-width:0.5;" x1="50.5" x2="104.5" y1="47" y2="47"/></g><!--class TigerSalamander--><g id="elem_TigerSalamander"><rect fill="#F1F1F1" height="48" id="TigerSalamander" rx="2.5" ry="2.5" style="stroke:#181818;stroke-width:0.5;" width="141" x="7" y="134"/><ellipse cx="22" cy="150" fill="#ADD1B2" rx="11" ry="11" style="stroke:#181818;stroke-width:1.0;"/><path d="M21.3438,155.8594 Q19.3594,155.8594 18.1875,154.3906 Q17.0313,152.9063 17.0313,149.8281 Q17.0313,147.2188 18.25,145.4688 Q19.4844,143.7188 21.6094,143.7188 Q22.1094,143.7188 22.6406,143.8594 Q23.0781,144.0469 23.3438,144.0469 Q23.5625,144.0469 23.6563,144 Q23.7656,143.9531 24.2188,143.3594 L24.9844,147.0938 L24.0938,147.3594 Q23.6406,145.9063 23.0313,145.3125 Q22.4375,144.7031 21.4844,144.7031 Q20.2656,144.7031 19.5469,146.1406 Q18.8281,147.5625 18.8281,149.75 Q18.8281,152.1563 19.4375,153.4531 Q20.0625,154.7344 21.4219,154.7344 Q22.375,154.7344 23.0625,154.0469 Q23.75,153.3438 24.0781,151.8438 L24.9844,152.25 Q24.5781,153.9531 23.6094,154.9063 Q22.6563,155.8594 21.3438,155.8594 Z " fill="#000000"/><text fill="#000000" font-family="sans-serif" font-size="14" lengthAdjust="spacing" textLength="109" x="36" y="156.4839">TigerSalamander</text><line style="stroke:#181818;stroke-width:0.5;" x1="8" x2="147" y1="166" y2="166"/><line style="stroke:#181818;stroke-width:0.5;" x1="8" x2="147" y1="174" y2="174"/></g><!--reverse link Eye to TigerSalamander--><g id="link_Eye_TigerSalamander"><path codeLine="1" d="M77.5,67.22 C77.5,89.67 77.5,111.5 77.5,133.91 " fill="none" id="Eye-backto-TigerSalamander" style="stroke:#181818;stroke-width:1.0;"/><polygon fill="#181818" points="77.5,55.22,73.5,61.22,77.5,67.22,81.5,61.22,77.5,55.22" style="stroke:#181818;stroke-width:1.0;"/><text fill="#000000" font-family="sans-serif" font-size="13" lengthAdjust="spacing" textLength="60" x="78.5" y="100.8979">composes</text></g><!--SRC=[SwrCLT3IrLK8oKnFBGfEp4dCJSnBIIrIi598piyjo2zEBGO0]--></g></svg>