<?xml version="1.0" encoding="us-ascii" standalone="no"?><svg xmlns="http://www.w3.org/2000/svg" xmlns:xlink="http://www.w3.org/1999/xlink" contentStyleType="text/css" height="316px" preserveAspectRatio="none" style="width:174px;height:316px;background:#FFFFFF;" version="1.1" viewBox="0 0 174 316" width="174px" zoomAndPan="magnify"><defs/><g><!--class ECGMonitor--><g id="elem_ECGMonitor"><rect fill="#F1F1F1" height="48" id="ECGMonitor" rx="2.5" ry="2.5" style="stroke:#181818;stroke-width:0.5;" width="109" x="32.5" y="134"/><ellipse cx="47.5" cy="150" fill="#ADD1B2" rx="11" ry="11" style="stroke:#181818;stroke-width:1.0;"/><path d="M46.8438,155.8594 Q44.8594,155.8594 43.6875,154.3906 Q42.5313,152.9063 42.5313,149.8281 Q42.5313,147.2188 43.75,145.4688 Q44.9844,143.7188 47.1094,143.7188 Q47.6094,143.7188 48.1406,143.8594 Q48.5781,144.0469 48.8438,144.0469 Q49.0625,144.0469 49.1563,144 Q49.2656,143.9531 49.7188,143.3594 L50.4844,147.0938 L49.5938,147.3594 Q49.1406,145.9063 48.5313,145.3125 Q47.9375,144.7031 46.9844,144.7031 Q45.7656,144.7031 45.0469,146.1406 Q44.3281,147.5625 44.3281,149.75 Q44.3281,152.1563 44.9375,153.4531 Q45.5625,154.7344 46.9219,154.7344 Q47.875,154.7344 48.5625,154.0469 Q49.25,153.3438 49.5781,151.8438 L50.4844,152.25 Q50.0781,153.9531 49.1094,154.9063 Q48.1563,155.8594 46.8438,155.8594 Z " fill="#000000"/><text fill="#000000" font-family="sans-serif" font-size="14" lengthAdjust="spacing" textLength="77" x="61.5" y="156.4839">ECGMonitor</text><line style="stroke:#181818;stroke-width:0.5;" x1="33.5" x2="140.5" y1="166" y2="166"/><line style="stroke:#181818;stroke-width:0.5;" x1="33.5" x2="140.5" y1="174" y2="174"/></g><!--class VitalSignsMonitoring--><g id="elem_VitalSignsMonitoring"><rect fill="#F1F1F1" height="48" id="VitalSignsMonitoring" rx="2.5" ry="2.5" style="stroke:#181818;stroke-width:0.5;" width="160" x="7" y="261"/><ellipse cx="22" cy="277" fill="#ADD1B2" rx="11" ry="11" style="stroke:#181818;stroke-width:1.0;"/><path d="M21.3438,282.8594 Q19.3594,282.8594 18.1875,281.3906 Q17.0313,279.9063 17.0313,276.8281 Q17.0313,274.2188 18.25,272.4688 Q19.4844,270.7188 21.6094,270.7188 Q22.1094,270.7188 22.6406,270.8594 Q23.0781,271.0469 23.3438,271.0469 Q23.5625,271.0469 23.6563,271 Q23.7656,270.9531 24.2188,270.3594 L24.9844,274.0938 L24.0938,274.3594 Q23.6406,272.9063 23.0313,272.3125 Q22.4375,271.7031 21.4844,271.7031 Q20.2656,271.7031 19.5469,273.1406 Q18.8281,274.5625 18.8281,276.75 Q18.8281,279.1563 19.4375,280.4531 Q20.0625,281.7344 21.4219,281.7344 Q22.375,281.7344 23.0625,281.0469 Q23.75,280.3438 24.0781,278.8438 L24.9844,279.25 Q24.5781,280.9531 23.6094,281.9063 Q22.6563,282.8594 21.3438,282.8594 Z " fill="#000000"/><text fill="#000000" font-family="sans-serif" font-size="14" lengthAdjust="spacing" textLength="128" x="36" y="283.4839">VitalSignsMonitoring</text><line style="stroke:#181818;stroke-width:0.5;" x1="8" x2="166" y1="293" y2="293"/><line style="stroke:#181818;stroke-width:0.5;" x1="8" x2="166" y1="301" y2="301"/></g><!--class Electricity--><g id="elem_Electricity"><rect fill="#F1F1F1" height="48" id="Electricity" rx="2.5" ry="2.5" style="stroke:#181818;stroke-width:0.5;" width="92" x="41" y="7"/><ellipse cx="56" cy="23" fill="#ADD1B2" rx="11" ry="11" style="stroke:#181818;stroke-width:1.0;"/><path d="M55.3438,28.8594 Q53.3594,28.8594 52.1875,27.3906 Q51.0313,25.9063 51.0313,22.8281 Q51.0313,20.2188 52.25,18.4688 Q53.4844,16.7188 55.6094,16.7188 Q56.1094,16.7188 56.6406,16.8594 Q57.0781,17.0469 57.3438,17.0469 Q57.5625,17.0469 57.6563,17 Q57.7656,16.9531 58.2188,16.3594 L58.9844,20.0938 L58.0938,20.3594 Q57.6406,18.9063 57.0313,18.3125 Q56.4375,17.7031 55.4844,17.7031 Q54.2656,17.7031 53.5469,19.1406 Q52.8281,20.5625 52.8281,22.75 Q52.8281,25.1563 53.4375,26.4531 Q54.0625,27.7344 55.4219,27.7344 Q56.375,27.7344 57.0625,27.0469 Q57.75,26.3438 58.0781,24.8438 L58.9844,25.25 Q58.5781,26.9531 57.6094,27.9063 Q56.6563,28.8594 55.3438,28.8594 Z " fill="#000000"/><text fill="#000000" font-family="sans-serif" font-size="14" lengthAdjust="spacing" textLength="60" x="70" y="29.4839">Electricity</text><line style="stroke:#181818;stroke-width:0.5;" x1="42" x2="132" y1="39" y2="39"/><line style="stroke:#181818;stroke-width:0.5;" x1="42" x2="132" y1="47" y2="47"/></g><!--link ECGMonitor to VitalSignsMonitoring--><g id="link_ECGMonitor_VitalSignsMonitoring"><path codeLine="1" d="M87,182.22 C87,204.67 87,232.5 87,254.91 " fill="none" id="ECGMonitor-to-VitalSignsMonitoring" style="stroke:#181818;stroke-width:1.0;stroke-dasharray:7.0,7.0;"/><polygon fill="#181818" points="87,260.91,91,251.91,87,255.91,83,251.91,87,260.91" style="stroke:#181818;stroke-width:1.0;"/><text fill="#000000" font-family="sans-serif" font-size="13" lengthAdjust="spacing" textLength="67" x="88" y="227.8979">depends on</text></g><!--link Electricity to ECGMonitor--><g id="link_Electricity_ECGMonitor"><path codeLine="2" d="M87,55.22 C87,77.67 87,105.5 87,127.91 " fill="none" id="Electricity-to-ECGMonitor" style="stroke:#181818;stroke-width:1.0;stroke-dasharray:7.0,7.0;"/><polygon fill="#181818" points="87,133.91,91,124.91,87,128.91,83,124.91,87,133.91" style="stroke:#181818;stroke-width:1.0;"/><text fill="#000000" font-family="sans-serif" font-size="13" lengthAdjust="spacing" textLength="67" x="88" y="100.8979">depends on</text></g><!--SRC=[StLszytFoop9BrBGqxDJ2CiiISm9papFAuQAPkQbArWffAGMfEQb52lavt6vvgGcbnHb9cUML89rk28CG5O70000]--></g></svg>