<?xml version="1.0" encoding="us-ascii" standalone="no"?><svg xmlns="http://www.w3.org/2000/svg" xmlns:xlink="http://www.w3.org/1999/xlink" contentStyleType="text/css" height="316px" preserveAspectRatio="none" style="width:205px;height:316px;background:#FFFFFF;" version="1.1" viewBox="0 0 205 316" width="205px" zoomAndPan="magnify"><defs/><g><!--class RadiationTherapySystem--><g id="elem_RadiationTherapySystem"><rect fill="#F1F1F1" height="48" id="RadiationTherapySystem" rx="2.5" ry="2.5" style="stroke:#181818;stroke-width:0.5;" width="191" x="7" y="134"/><ellipse cx="22" cy="150" fill="#ADD1B2" rx="11" ry="11" style="stroke:#181818;stroke-width:1.0;"/><path d="M21.3438,155.8594 Q19.3594,155.8594 18.1875,154.3906 Q17.0313,152.9063 17.0313,149.8281 Q17.0313,147.2188 18.25,145.4688 Q19.4844,143.7188 21.6094,143.7188 Q22.1094,143.7188 22.6406,143.8594 Q23.0781,144.0469 23.3438,144.0469 Q23.5625,144.0469 23.6563,144 Q23.7656,143.9531 24.2188,143.3594 L24.9844,147.0938 L24.0938,147.3594 Q23.6406,145.9063 23.0313,145.3125 Q22.4375,144.7031 21.4844,144.7031 Q20.2656,144.7031 19.5469,146.1406 Q18.8281,147.5625 18.8281,149.75 Q18.8281,152.1563 19.4375,153.4531 Q20.0625,154.7344 21.4219,154.7344 Q22.375,154.7344 23.0625,154.0469 Q23.75,153.3438 24.0781,151.8438 L24.9844,152.25 Q24.5781,153.9531 23.6094,154.9063 Q22.6563,155.8594 21.3438,155.8594 Z " fill="#000000"/><text fill="#000000" font-family="sans-serif" font-size="14" lengthAdjust="spacing" textLength="159" x="36" y="156.4839">RadiationTherapySystem</text><line style="stroke:#181818;stroke-width:0.5;" x1="8" x2="197" y1="166" y2="166"/><line style="stroke:#181818;stroke-width:0.5;" x1="8" x2="197" y1="174" y2="174"/></g><!--class RadiationTherapy--><g id="elem_RadiationTherapy"><rect fill="#F1F1F1" height="48" id="RadiationTherapy" rx="2.5" ry="2.5" style="stroke:#181818;stroke-width:0.5;" width="145" x="30" y="261"/><ellipse cx="45" cy="277" fill="#ADD1B2" rx="11" ry="11" style="stroke:#181818;stroke-width:1.0;"/><path d="M44.3438,282.8594 Q42.3594,282.8594 41.1875,281.3906 Q40.0313,279.9063 40.0313,276.8281 Q40.0313,274.2188 41.25,272.4688 Q42.4844,270.7188 44.6094,270.7188 Q45.1094,270.7188 45.6406,270.8594 Q46.0781,271.0469 46.3438,271.0469 Q46.5625,271.0469 46.6563,271 Q46.7656,270.9531 47.2188,270.3594 L47.9844,274.0938 L47.0938,274.3594 Q46.6406,272.9063 46.0313,272.3125 Q45.4375,271.7031 44.4844,271.7031 Q43.2656,271.7031 42.5469,273.1406 Q41.8281,274.5625 41.8281,276.75 Q41.8281,279.1563 42.4375,280.4531 Q43.0625,281.7344 44.4219,281.7344 Q45.375,281.7344 46.0625,281.0469 Q46.75,280.3438 47.0781,278.8438 L47.9844,279.25 Q47.5781,280.9531 46.6094,281.9063 Q45.6563,282.8594 44.3438,282.8594 Z " fill="#000000"/><text fill="#000000" font-family="sans-serif" font-size="14" lengthAdjust="spacing" textLength="113" x="59" y="283.4839">RadiationTherapy</text><line style="stroke:#181818;stroke-width:0.5;" x1="31" x2="174" y1="293" y2="293"/><line style="stroke:#181818;stroke-width:0.5;" x1="31" x2="174" y1="301" y2="301"/></g><!--class Electricity--><g id="elem_Electricity"><rect fill="#F1F1F1" height="48" id="Electricity" rx="2.5" ry="2.5" style="stroke:#181818;stroke-width:0.5;" width="92" x="56.5" y="7"/><ellipse cx="71.5" cy="23" fill="#ADD1B2" rx="11" ry="11" style="stroke:#181818;stroke-width:1.0;"/><path d="M70.8438,28.8594 Q68.8594,28.8594 67.6875,27.3906 Q66.5313,25.9063 66.5313,22.8281 Q66.5313,20.2188 67.75,18.4688 Q68.9844,16.7188 71.1094,16.7188 Q71.6094,16.7188 72.1406,16.8594 Q72.5781,17.0469 72.8438,17.0469 Q73.0625,17.0469 73.1563,17 Q73.2656,16.9531 73.7188,16.3594 L74.4844,20.0938 L73.5938,20.3594 Q73.1406,18.9063 72.5313,18.3125 Q71.9375,17.7031 70.9844,17.7031 Q69.7656,17.7031 69.0469,19.1406 Q68.3281,20.5625 68.3281,22.75 Q68.3281,25.1563 68.9375,26.4531 Q69.5625,27.7344 70.9219,27.7344 Q71.875,27.7344 72.5625,27.0469 Q73.25,26.3438 73.5781,24.8438 L74.4844,25.25 Q74.0781,26.9531 73.1094,27.9063 Q72.1563,28.8594 70.8438,28.8594 Z " fill="#000000"/><text fill="#000000" font-family="sans-serif" font-size="14" lengthAdjust="spacing" textLength="60" x="85.5" y="29.4839">Electricity</text><line style="stroke:#181818;stroke-width:0.5;" x1="57.5" x2="147.5" y1="39" y2="39"/><line style="stroke:#181818;stroke-width:0.5;" x1="57.5" x2="147.5" y1="47" y2="47"/></g><!--link RadiationTherapySystem to RadiationTherapy--><g id="link_RadiationTherapySystem_RadiationTherapy"><path codeLine="1" d="M102.5,182.22 C102.5,204.67 102.5,232.5 102.5,254.91 " fill="none" id="RadiationTherapySystem-to-RadiationTherapy" style="stroke:#181818;stroke-width:1.0;stroke-dasharray:7.0,7.0;"/><polygon fill="#181818" points="102.5,260.91,106.5,251.91,102.5,255.91,98.5,251.91,102.5,260.91" style="stroke:#181818;stroke-width:1.0;"/><text fill="#000000" font-family="sans-serif" font-size="13" lengthAdjust="spacing" textLength="67" x="103.5" y="227.8979">depends on</text></g><!--link Electricity to RadiationTherapySystem--><g id="link_Electricity_RadiationTherapySystem"><path codeLine="2" d="M102.5,55.22 C102.5,77.67 102.5,105.5 102.5,127.91 " fill="none" id="Electricity-to-RadiationTherapySystem" style="stroke:#181818;stroke-width:1.0;stroke-dasharray:7.0,7.0;"/><polygon fill="#181818" points="102.5,133.91,106.5,124.91,102.5,128.91,98.5,124.91,102.5,133.91" style="stroke:#181818;stroke-width:1.0;"/><text fill="#000000" font-family="sans-serif" font-size="13" lengthAdjust="spacing" textLength="67" x="103.5" y="100.8979">depends on</text></g><!--SRC=[2qfCoKmioSpF2yb8BKeig0okB2v9pLNGqxDJ24AJKh1II4ajICrBALR8p-DopKbDBYdAJCuigSIg6ceGiXu0]--></g></svg>