<?xml version="1.0" encoding="us-ascii" standalone="no"?><svg xmlns="http://www.w3.org/2000/svg" xmlns:xlink="http://www.w3.org/1999/xlink" contentStyleType="text/css" height="316px" preserveAspectRatio="none" style="width:196px;height:316px;background:#FFFFFF;" version="1.1" viewBox="0 0 196 316" width="196px" zoomAndPan="magnify"><defs/><g><!--class SurgicalLight--><g id="elem_SurgicalLight"><rect fill="#F1F1F1" height="48" id="SurgicalLight" rx="2.5" ry="2.5" style="stroke:#181818;stroke-width:0.5;" width="114" x="41" y="134"/><ellipse cx="56" cy="150" fill="#ADD1B2" rx="11" ry="11" style="stroke:#181818;stroke-width:1.0;"/><path d="M55.3438,155.8594 Q53.3594,155.8594 52.1875,154.3906 Q51.0313,152.9063 51.0313,149.8281 Q51.0313,147.2188 52.25,145.4688 Q53.4844,143.7188 55.6094,143.7188 Q56.1094,143.7188 56.6406,143.8594 Q57.0781,144.0469 57.3438,144.0469 Q57.5625,144.0469 57.6563,144 Q57.7656,143.9531 58.2188,143.3594 L58.9844,147.0938 L58.0938,147.3594 Q57.6406,145.9063 57.0313,145.3125 Q56.4375,144.7031 55.4844,144.7031 Q54.2656,144.7031 53.5469,146.1406 Q52.8281,147.5625 52.8281,149.75 Q52.8281,152.1563 53.4375,153.4531 Q54.0625,154.7344 55.4219,154.7344 Q56.375,154.7344 57.0625,154.0469 Q57.75,153.3438 58.0781,151.8438 L58.9844,152.25 Q58.5781,153.9531 57.6094,154.9063 Q56.6563,155.8594 55.3438,155.8594 Z " fill="#000000"/><text fill="#000000" font-family="sans-serif" font-size="14" lengthAdjust="spacing" textLength="82" x="70" y="156.4839">SurgicalLight</text><line style="stroke:#181818;stroke-width:0.5;" x1="42" x2="154" y1="166" y2="166"/><line style="stroke:#181818;stroke-width:0.5;" x1="42" x2="154" y1="174" y2="174"/></g><!--class OperatingRoomLighting--><g id="elem_OperatingRoomLighting"><rect fill="#F1F1F1" height="48" id="OperatingRoomLighting" rx="2.5" ry="2.5" style="stroke:#181818;stroke-width:0.5;" width="182" x="7" y="261"/><ellipse cx="22" cy="277" fill="#ADD1B2" rx="11" ry="11" style="stroke:#181818;stroke-width:1.0;"/><path d="M21.3438,282.8594 Q19.3594,282.8594 18.1875,281.3906 Q17.0313,279.9063 17.0313,276.8281 Q17.0313,274.2188 18.25,272.4688 Q19.4844,270.7188 21.6094,270.7188 Q22.1094,270.7188 22.6406,270.8594 Q23.0781,271.0469 23.3438,271.0469 Q23.5625,271.0469 23.6563,271 Q23.7656,270.9531 24.2188,270.3594 L24.9844,274.0938 L24.0938,274.3594 Q23.6406,272.9063 23.0313,272.3125 Q22.4375,271.7031 21.4844,271.7031 Q20.2656,271.7031 19.5469,273.1406 Q18.8281,274.5625 18.8281,276.75 Q18.8281,279.1563 19.4375,280.4531 Q20.0625,281.7344 21.4219,281.7344 Q22.375,281.7344 23.0625,281.0469 Q23.75,280.3438 24.0781,278.8438 L24.9844,279.25 Q24.5781,280.9531 23.6094,281.9063 Q22.6563,282.8594 21.3438,282.8594 Z " fill="#000000"/><text fill="#000000" font-family="sans-serif" font-size="14" lengthAdjust="spacing" textLength="150" x="36" y="283.4839">OperatingRoomLighting</text><line style="stroke:#181818;stroke-width:0.5;" x1="8" x2="188" y1="293" y2="293"/><line style="stroke:#181818;stroke-width:0.5;" x1="8" x2="188" y1="301" y2="301"/></g><!--class Electricity--><g id="elem_Electricity"><rect fill="#F1F1F1" height="48" id="Electricity" rx="2.5" ry="2.5" style="stroke:#181818;stroke-width:0.5;" width="92" x="52" y="7"/><ellipse cx="67" cy="23" fill="#ADD1B2" rx="11" ry="11" style="stroke:#181818;stroke-width:1.0;"/><path d="M66.3438,28.8594 Q64.3594,28.8594 63.1875,27.3906 Q62.0313,25.9063 62.0313,22.8281 Q62.0313,20.2188 63.25,18.4688 Q64.4844,16.7188 66.6094,16.7188 Q67.1094,16.7188 67.6406,16.8594 Q68.0781,17.0469 68.3438,17.0469 Q68.5625,17.0469 68.6563,17 Q68.7656,16.9531 69.2188,16.3594 L69.9844,20.0938 L69.0938,20.3594 Q68.6406,18.9063 68.0313,18.3125 Q67.4375,17.7031 66.4844,17.7031 Q65.2656,17.7031 64.5469,19.1406 Q63.8281,20.5625 63.8281,22.75 Q63.8281,25.1563 64.4375,26.4531 Q65.0625,27.7344 66.4219,27.7344 Q67.375,27.7344 68.0625,27.0469 Q68.75,26.3438 69.0781,24.8438 L69.9844,25.25 Q69.5781,26.9531 68.6094,27.9063 Q67.6563,28.8594 66.3438,28.8594 Z " fill="#000000"/><text fill="#000000" font-family="sans-serif" font-size="14" lengthAdjust="spacing" textLength="60" x="81" y="29.4839">Electricity</text><line style="stroke:#181818;stroke-width:0.5;" x1="53" x2="143" y1="39" y2="39"/><line style="stroke:#181818;stroke-width:0.5;" x1="53" x2="143" y1="47" y2="47"/></g><!--link SurgicalLight to OperatingRoomLighting--><g id="link_SurgicalLight_OperatingRoomLighting"><path codeLine="1" d="M98,182.22 C98,204.67 98,232.5 98,254.91 " fill="none" id="SurgicalLight-to-OperatingRoomLighting" style="stroke:#181818;stroke-width:1.0;stroke-dasharray:7.0,7.0;"/><polygon fill="#181818" points="98,260.91,102,251.91,98,255.91,94,251.91,98,260.91" style="stroke:#181818;stroke-width:1.0;"/><text fill="#000000" font-family="sans-serif" font-size="13" lengthAdjust="spacing" textLength="67" x="99" y="227.8979">depends on</text></g><!--link Electricity to SurgicalLight--><g id="link_Electricity_SurgicalLight"><path codeLine="2" d="M98,55.22 C98,77.67 98,105.5 98,127.91 " fill="none" id="Electricity-to-SurgicalLight" style="stroke:#181818;stroke-width:1.0;stroke-dasharray:7.0,7.0;"/><polygon fill="#181818" points="98,133.91,102,124.91,98,128.91,94,124.91,98,133.91" style="stroke:#181818;stroke-width:1.0;"/><text fill="#000000" font-family="sans-serif" font-size="13" lengthAdjust="spacing" textLength="67" x="99" y="100.8979">depends on</text></g><!--SRC=[2oujIizCJipnoKpFA57GqxDJy2z8BKeioSnB3yhFpmKB0zaALWefgGMfUId52lbvNAuvgSabHPd9cIMLO2t1A8OWAmK0]--></g></svg>