<?xml version="1.0" encoding="us-ascii" standalone="no"?><svg xmlns="http://www.w3.org/2000/svg" xmlns:xlink="http://www.w3.org/1999/xlink" contentStyleType="text/css" height="189px" preserveAspectRatio="none" style="width:249px;height:189px;background:#FFFFFF;" version="1.1" viewBox="0 0 249 189" width="249px" zoomAndPan="magnify"><defs/><g><!--class University--><g id="elem_University"><rect fill="#F1F1F1" height="48" id="University" rx="2.5" ry="2.5" style="stroke:#181818;stroke-width:0.5;" width="93" x="78" y="7"/><ellipse cx="93" cy="23" fill="#ADD1B2" rx="11" ry="11" style="stroke:#181818;stroke-width:1.0;"/><path d="M92.3438,28.8594 Q90.3594,28.8594 89.1875,27.3906 Q88.0313,25.9063 88.0313,22.8281 Q88.0313,20.2188 89.25,18.4688 Q90.4844,16.7188 92.6094,16.7188 Q93.1094,16.7188 93.6406,16.8594 Q94.0781,17.0469 94.3438,17.0469 Q94.5625,17.0469 94.6563,17 Q94.7656,16.9531 95.2188,16.3594 L95.9844,20.0938 L95.0938,20.3594 Q94.6406,18.9063 94.0313,18.3125 Q93.4375,17.7031 92.4844,17.7031 Q91.2656,17.7031 90.5469,19.1406 Q89.8281,20.5625 89.8281,22.75 Q89.8281,25.1563 90.4375,26.4531 Q91.0625,27.7344 92.4219,27.7344 Q93.375,27.7344 94.0625,27.0469 Q94.75,26.3438 95.0781,24.8438 L95.9844,25.25 Q95.5781,26.9531 94.6094,27.9063 Q93.6563,28.8594 92.3438,28.8594 Z " fill="#000000"/><text fill="#000000" font-family="sans-serif" font-size="14" lengthAdjust="spacing" textLength="61" x="107" y="29.4839">University</text><line style="stroke:#181818;stroke-width:0.5;" x1="79" x2="170" y1="39" y2="39"/><line style="stroke:#181818;stroke-width:0.5;" x1="79" x2="170" y1="47" y2="47"/></g><!--class UniversityOfErlangenNuremberg--><g id="elem_UniversityOfErlangenNuremberg"><rect fill="#F1F1F1" height="48" id="UniversityOfErlangenNuremberg" rx="2.5" ry="2.5" style="stroke:#181818;stroke-width:0.5;" width="235" x="7" y="134"/><ellipse cx="22" cy="150" fill="#ADD1B2" rx="11" ry="11" style="stroke:#181818;stroke-width:1.0;"/><path d="M21.3438,155.8594 Q19.3594,155.8594 18.1875,154.3906 Q17.0313,152.9063 17.0313,149.8281 Q17.0313,147.2188 18.25,145.4688 Q19.4844,143.7188 21.6094,143.7188 Q22.1094,143.7188 22.6406,143.8594 Q23.0781,144.0469 23.3438,144.0469 Q23.5625,144.0469 23.6563,144 Q23.7656,143.9531 24.2188,143.3594 L24.9844,147.0938 L24.0938,147.3594 Q23.6406,145.9063 23.0313,145.3125 Q22.4375,144.7031 21.4844,144.7031 Q20.2656,144.7031 19.5469,146.1406 Q18.8281,147.5625 18.8281,149.75 Q18.8281,152.1563 19.4375,153.4531 Q20.0625,154.7344 21.4219,154.7344 Q22.375,154.7344 23.0625,154.0469 Q23.75,153.3438 24.0781,151.8438 L24.9844,152.25 Q24.5781,153.9531 23.6094,154.9063 Q22.6563,155.8594 21.3438,155.8594 Z " fill="#000000"/><text fill="#000000" font-family="sans-serif" font-size="14" lengthAdjust="spacing" textLength="203" x="36" y="156.4839">UniversityOfErlangenNuremberg</text><line style="stroke:#181818;stroke-width:0.5;" x1="8" x2="241" y1="166" y2="166"/><line style="stroke:#181818;stroke-width:0.5;" x1="8" x2="241" y1="174" y2="174"/></g><!--reverse link University to UniversityOfErlangenNuremberg--><g id="link_University_UniversityOfErlangenNuremberg"><path codeLine="1" d="M124.5,73.22 C124.5,95.67 124.5,111.5 124.5,133.91 " fill="none" id="University-backto-UniversityOfErlangenNuremberg" style="stroke:#181818;stroke-width:1.0;"/><polygon fill="none" points="124.5,55.22,118.5,73.22,130.5,73.22,124.5,55.22" style="stroke:#181818;stroke-width:1.0;"/><text fill="#000000" font-family="sans-serif" font-size="13" lengthAdjust="spacing" textLength="42" x="125.5" y="100.8979">inherits</text></g><!--SRC=[2ytBB4ijAiuigLImgT7LLGY5y_tJN8jo4lFIK_FyIejISvDIYz8Lh1Goyp9IYp9BYW40]--></g></svg>