<?xml version="1.0" encoding="us-ascii" standalone="no"?><svg xmlns="http://www.w3.org/2000/svg" xmlns:xlink="http://www.w3.org/1999/xlink" contentStyleType="text/css" height="189px" preserveAspectRatio="none" style="width:252px;height:189px;background:#FFFFFF;" version="1.1" viewBox="0 0 252 189" width="252px" zoomAndPan="magnify"><defs/><g><!--class University--><g id="elem_University"><rect fill="#F1F1F1" height="48" id="University" rx="2.5" ry="2.5" style="stroke:#181818;stroke-width:0.5;" width="93" x="79.5" y="7"/><ellipse cx="94.5" cy="23" fill="#ADD1B2" rx="11" ry="11" style="stroke:#181818;stroke-width:1.0;"/><path d="M93.8438,28.8594 Q91.8594,28.8594 90.6875,27.3906 Q89.5313,25.9063 89.5313,22.8281 Q89.5313,20.2188 90.75,18.4688 Q91.9844,16.7188 94.1094,16.7188 Q94.6094,16.7188 95.1406,16.8594 Q95.5781,17.0469 95.8438,17.0469 Q96.0625,17.0469 96.1563,17 Q96.2656,16.9531 96.7188,16.3594 L97.4844,20.0938 L96.5938,20.3594 Q96.1406,18.9063 95.5313,18.3125 Q94.9375,17.7031 93.9844,17.7031 Q92.7656,17.7031 92.0469,19.1406 Q91.3281,20.5625 91.3281,22.75 Q91.3281,25.1563 91.9375,26.4531 Q92.5625,27.7344 93.9219,27.7344 Q94.875,27.7344 95.5625,27.0469 Q96.25,26.3438 96.5781,24.8438 L97.4844,25.25 Q97.0781,26.9531 96.1094,27.9063 Q95.1563,28.8594 93.8438,28.8594 Z " fill="#000000"/><text fill="#000000" font-family="sans-serif" font-size="14" lengthAdjust="spacing" textLength="61" x="108.5" y="29.4839">University</text><line style="stroke:#181818;stroke-width:0.5;" x1="80.5" x2="171.5" y1="39" y2="39"/><line style="stroke:#181818;stroke-width:0.5;" x1="80.5" x2="171.5" y1="47" y2="47"/></g><!--class AristotleUniversityOfThessaloniki--><g id="elem_AristotleUniversityOfThessaloniki"><rect fill="#F1F1F1" height="48" id="AristotleUniversityOfThessaloniki" rx="2.5" ry="2.5" style="stroke:#181818;stroke-width:0.5;" width="238" x="7" y="134"/><ellipse cx="22" cy="150" fill="#ADD1B2" rx="11" ry="11" style="stroke:#181818;stroke-width:1.0;"/><path d="M21.3438,155.8594 Q19.3594,155.8594 18.1875,154.3906 Q17.0313,152.9063 17.0313,149.8281 Q17.0313,147.2188 18.25,145.4688 Q19.4844,143.7188 21.6094,143.7188 Q22.1094,143.7188 22.6406,143.8594 Q23.0781,144.0469 23.3438,144.0469 Q23.5625,144.0469 23.6563,144 Q23.7656,143.9531 24.2188,143.3594 L24.9844,147.0938 L24.0938,147.3594 Q23.6406,145.9063 23.0313,145.3125 Q22.4375,144.7031 21.4844,144.7031 Q20.2656,144.7031 19.5469,146.1406 Q18.8281,147.5625 18.8281,149.75 Q18.8281,152.1563 19.4375,153.4531 Q20.0625,154.7344 21.4219,154.7344 Q22.375,154.7344 23.0625,154.0469 Q23.75,153.3438 24.0781,151.8438 L24.9844,152.25 Q24.5781,153.9531 23.6094,154.9063 Q22.6563,155.8594 21.3438,155.8594 Z " fill="#000000"/><text fill="#000000" font-family="sans-serif" font-size="14" lengthAdjust="spacing" textLength="206" x="36" y="156.4839">AristotleUniversityOfThessaloniki</text><line style="stroke:#181818;stroke-width:0.5;" x1="8" x2="244" y1="166" y2="166"/><line style="stroke:#181818;stroke-width:0.5;" x1="8" x2="244" y1="174" y2="174"/></g><!--reverse link University to AristotleUniversityOfThessaloniki--><g id="link_University_AristotleUniversityOfThessaloniki"><path codeLine="1" d="M126,73.22 C126,95.67 126,111.5 126,133.91 " fill="none" id="University-backto-AristotleUniversityOfThessaloniki" style="stroke:#181818;stroke-width:1.0;"/><polygon fill="none" points="126,55.22,120,73.22,132,73.22,126,55.22" style="stroke:#181818;stroke-width:1.0;"/><text fill="#000000" font-family="sans-serif" font-size="13" lengthAdjust="spacing" textLength="42" x="127" y="100.8979">inherits</text></g><!--SRC=[2ytBB4ijAiuigLImgT7LLN0ioYmkoI_9IGs5I_YdXMIa5XSdvkJdPMPdAbWfPEPbf1PbbXG30000]--></g></svg>