<?xml version="1.0" encoding="us-ascii" standalone="no"?><svg xmlns="http://www.w3.org/2000/svg" xmlns:xlink="http://www.w3.org/1999/xlink" contentStyleType="text/css" height="189px" preserveAspectRatio="none" style="width:212px;height:189px;background:#FFFFFF;" version="1.1" viewBox="0 0 212 189" width="212px" zoomAndPan="magnify"><defs/><g><!--class University--><g id="elem_University"><rect fill="#F1F1F1" height="48" id="University" rx="2.5" ry="2.5" style="stroke:#181818;stroke-width:0.5;" width="93" x="59.5" y="7"/><ellipse cx="74.5" cy="23" fill="#ADD1B2" rx="11" ry="11" style="stroke:#181818;stroke-width:1.0;"/><path d="M73.8438,28.8594 Q71.8594,28.8594 70.6875,27.3906 Q69.5313,25.9063 69.5313,22.8281 Q69.5313,20.2188 70.75,18.4688 Q71.9844,16.7188 74.1094,16.7188 Q74.6094,16.7188 75.1406,16.8594 Q75.5781,17.0469 75.8438,17.0469 Q76.0625,17.0469 76.1563,17 Q76.2656,16.9531 76.7188,16.3594 L77.4844,20.0938 L76.5938,20.3594 Q76.1406,18.9063 75.5313,18.3125 Q74.9375,17.7031 73.9844,17.7031 Q72.7656,17.7031 72.0469,19.1406 Q71.3281,20.5625 71.3281,22.75 Q71.3281,25.1563 71.9375,26.4531 Q72.5625,27.7344 73.9219,27.7344 Q74.875,27.7344 75.5625,27.0469 Q76.25,26.3438 76.5781,24.8438 L77.4844,25.25 Q77.0781,26.9531 76.1094,27.9063 Q75.1563,28.8594 73.8438,28.8594 Z " fill="#000000"/><text fill="#000000" font-family="sans-serif" font-size="14" lengthAdjust="spacing" textLength="61" x="88.5" y="29.4839">University</text><line style="stroke:#181818;stroke-width:0.5;" x1="60.5" x2="151.5" y1="39" y2="39"/><line style="stroke:#181818;stroke-width:0.5;" x1="60.5" x2="151.5" y1="47" y2="47"/></g><!--class UniversityOfJohannesburg--><g id="elem_UniversityOfJohannesburg"><rect fill="#F1F1F1" height="48" id="UniversityOfJohannesburg" rx="2.5" ry="2.5" style="stroke:#181818;stroke-width:0.5;" width="198" x="7" y="134"/><ellipse cx="22" cy="150" fill="#ADD1B2" rx="11" ry="11" style="stroke:#181818;stroke-width:1.0;"/><path d="M21.3438,155.8594 Q19.3594,155.8594 18.1875,154.3906 Q17.0313,152.9063 17.0313,149.8281 Q17.0313,147.2188 18.25,145.4688 Q19.4844,143.7188 21.6094,143.7188 Q22.1094,143.7188 22.6406,143.8594 Q23.0781,144.0469 23.3438,144.0469 Q23.5625,144.0469 23.6563,144 Q23.7656,143.9531 24.2188,143.3594 L24.9844,147.0938 L24.0938,147.3594 Q23.6406,145.9063 23.0313,145.3125 Q22.4375,144.7031 21.4844,144.7031 Q20.2656,144.7031 19.5469,146.1406 Q18.8281,147.5625 18.8281,149.75 Q18.8281,152.1563 19.4375,153.4531 Q20.0625,154.7344 21.4219,154.7344 Q22.375,154.7344 23.0625,154.0469 Q23.75,153.3438 24.0781,151.8438 L24.9844,152.25 Q24.5781,153.9531 23.6094,154.9063 Q22.6563,155.8594 21.3438,155.8594 Z " fill="#000000"/><text fill="#000000" font-family="sans-serif" font-size="14" lengthAdjust="spacing" textLength="166" x="36" y="156.4839">UniversityOfJohannesburg</text><line style="stroke:#181818;stroke-width:0.5;" x1="8" x2="204" y1="166" y2="166"/><line style="stroke:#181818;stroke-width:0.5;" x1="8" x2="204" y1="174" y2="174"/></g><!--reverse link University to UniversityOfJohannesburg--><g id="link_University_UniversityOfJohannesburg"><path codeLine="1" d="M106,73.22 C106,95.67 106,111.5 106,133.91 " fill="none" id="University-backto-UniversityOfJohannesburg" style="stroke:#181818;stroke-width:1.0;"/><polygon fill="none" points="106,55.22,100,73.22,112,73.22,106,55.22" style="stroke:#181818;stroke-width:1.0;"/><text fill="#000000" font-family="sans-serif" font-size="13" lengthAdjust="spacing" textLength="42" x="107" y="100.8979">inherits</text></g><!--SRC=[2ytBB4ijAiuigLImgT7LLGY5y_tJlF8p4lFoKekJIelI5QmKClCoKeioIue1]--></g></svg>