<?xml version="1.0" encoding="us-ascii" standalone="no"?><svg xmlns="http://www.w3.org/2000/svg" xmlns:xlink="http://www.w3.org/1999/xlink" contentStyleType="text/css" height="189px" preserveAspectRatio="none" style="width:141px;height:189px;background:#FFFFFF;" version="1.1" viewBox="0 0 141 189" width="141px" zoomAndPan="magnify"><defs/><g><!--class NoteTaking--><g id="elem_NoteTaking"><rect fill="#F1F1F1" height="48" id="NoteTaking" rx="2.5" ry="2.5" style="stroke:#181818;stroke-width:0.5;" width="104" x="13.5" y="7"/><ellipse cx="28.5" cy="23" fill="#ADD1B2" rx="11" ry="11" style="stroke:#181818;stroke-width:1.0;"/><path d="M27.8438,28.8594 Q25.8594,28.8594 24.6875,27.3906 Q23.5313,25.9063 23.5313,22.8281 Q23.5313,20.2188 24.75,18.4688 Q25.9844,16.7188 28.1094,16.7188 Q28.6094,16.7188 29.1406,16.8594 Q29.5781,17.0469 29.8438,17.0469 Q30.0625,17.0469 30.1563,17 Q30.2656,16.9531 30.7188,16.3594 L31.4844,20.0938 L30.5938,20.3594 Q30.1406,18.9063 29.5313,18.3125 Q28.9375,17.7031 27.9844,17.7031 Q26.7656,17.7031 26.0469,19.1406 Q25.3281,20.5625 25.3281,22.75 Q25.3281,25.1563 25.9375,26.4531 Q26.5625,27.7344 27.9219,27.7344 Q28.875,27.7344 29.5625,27.0469 Q30.25,26.3438 30.5781,24.8438 L31.4844,25.25 Q31.0781,26.9531 30.1094,27.9063 Q29.1563,28.8594 27.8438,28.8594 Z " fill="#000000"/><text fill="#000000" font-family="sans-serif" font-size="14" lengthAdjust="spacing" textLength="72" x="42.5" y="29.4839">NoteTaking</text><line style="stroke:#181818;stroke-width:0.5;" x1="14.5" x2="116.5" y1="39" y2="39"/><line style="stroke:#181818;stroke-width:0.5;" x1="14.5" x2="116.5" y1="47" y2="47"/></g><!--class MindMapTool--><g id="elem_MindMapTool"><rect fill="#F1F1F1" height="48" id="MindMapTool" rx="2.5" ry="2.5" style="stroke:#181818;stroke-width:0.5;" width="117" x="7" y="134"/><ellipse cx="22" cy="150" fill="#ADD1B2" rx="11" ry="11" style="stroke:#181818;stroke-width:1.0;"/><path d="M21.3438,155.8594 Q19.3594,155.8594 18.1875,154.3906 Q17.0313,152.9063 17.0313,149.8281 Q17.0313,147.2188 18.25,145.4688 Q19.4844,143.7188 21.6094,143.7188 Q22.1094,143.7188 22.6406,143.8594 Q23.0781,144.0469 23.3438,144.0469 Q23.5625,144.0469 23.6563,144 Q23.7656,143.9531 24.2188,143.3594 L24.9844,147.0938 L24.0938,147.3594 Q23.6406,145.9063 23.0313,145.3125 Q22.4375,144.7031 21.4844,144.7031 Q20.2656,144.7031 19.5469,146.1406 Q18.8281,147.5625 18.8281,149.75 Q18.8281,152.1563 19.4375,153.4531 Q20.0625,154.7344 21.4219,154.7344 Q22.375,154.7344 23.0625,154.0469 Q23.75,153.3438 24.0781,151.8438 L24.9844,152.25 Q24.5781,153.9531 23.6094,154.9063 Q22.6563,155.8594 21.3438,155.8594 Z " fill="#000000"/><text fill="#000000" font-family="sans-serif" font-size="14" lengthAdjust="spacing" textLength="85" x="36" y="156.4839">MindMapTool</text><line style="stroke:#181818;stroke-width:0.5;" x1="8" x2="123" y1="166" y2="166"/><line style="stroke:#181818;stroke-width:0.5;" x1="8" x2="123" y1="174" y2="174"/></g><!--link NoteTaking to MindMapTool--><g id="link_NoteTaking_MindMapTool"><path codeLine="1" d="M65.5,55.22 C65.5,77.67 65.5,105.5 65.5,127.91 " fill="none" id="NoteTaking-to-MindMapTool" style="stroke:#181818;stroke-width:1.0;stroke-dasharray:7.0,7.0;"/><polygon fill="#181818" points="65.5,133.91,69.5,124.91,65.5,128.91,61.5,124.91,65.5,133.91" style="stroke:#181818;stroke-width:1.0;"/><text fill="#000000" font-family="sans-serif" font-size="13" lengthAdjust="spacing" textLength="67" x="66.5" y="100.8979">depends on</text></g><!--SRC=[yyilIGr9pCxCIrVGqxDJyCtCI_5DB0Z9pyzHi598IIr8pKifLiZF0m00]--></g></svg>