<?xml version="1.0" encoding="us-ascii" standalone="no"?><svg xmlns="http://www.w3.org/2000/svg" xmlns:xlink="http://www.w3.org/1999/xlink" contentStyleType="text/css" height="189px" preserveAspectRatio="none" style="width:228px;height:189px;background:#FFFFFF;" version="1.1" viewBox="0 0 228 189" width="228px" zoomAndPan="magnify"><defs/><g><!--class RiverMountainRescueCenter--><g id="elem_RiverMountainRescueCenter"><rect fill="#F1F1F1" height="48" id="RiverMountainRescueCenter" rx="2.5" ry="2.5" style="stroke:#181818;stroke-width:0.5;" width="214" x="7" y="7"/><ellipse cx="22" cy="23" fill="#ADD1B2" rx="11" ry="11" style="stroke:#181818;stroke-width:1.0;"/><path d="M21.3438,28.8594 Q19.3594,28.8594 18.1875,27.3906 Q17.0313,25.9063 17.0313,22.8281 Q17.0313,20.2188 18.25,18.4688 Q19.4844,16.7188 21.6094,16.7188 Q22.1094,16.7188 22.6406,16.8594 Q23.0781,17.0469 23.3438,17.0469 Q23.5625,17.0469 23.6563,17 Q23.7656,16.9531 24.2188,16.3594 L24.9844,20.0938 L24.0938,20.3594 Q23.6406,18.9063 23.0313,18.3125 Q22.4375,17.7031 21.4844,17.7031 Q20.2656,17.7031 19.5469,19.1406 Q18.8281,20.5625 18.8281,22.75 Q18.8281,25.1563 19.4375,26.4531 Q20.0625,27.7344 21.4219,27.7344 Q22.375,27.7344 23.0625,27.0469 Q23.75,26.3438 24.0781,24.8438 L24.9844,25.25 Q24.5781,26.9531 23.6094,27.9063 Q22.6563,28.8594 21.3438,28.8594 Z " fill="#000000"/><text fill="#000000" font-family="sans-serif" font-size="14" lengthAdjust="spacing" textLength="182" x="36" y="29.4839">RiverMountainRescueCenter</text><line style="stroke:#181818;stroke-width:0.5;" x1="8" x2="220" y1="39" y2="39"/><line style="stroke:#181818;stroke-width:0.5;" x1="8" x2="220" y1="47" y2="47"/></g><!--class QualityTeam--><g id="elem_QualityTeam"><rect fill="#F1F1F1" height="48" id="QualityTeam" rx="2.5" ry="2.5" style="stroke:#181818;stroke-width:0.5;" width="112" x="58" y="134"/><ellipse cx="73" cy="150" fill="#ADD1B2" rx="11" ry="11" style="stroke:#181818;stroke-width:1.0;"/><path d="M72.3438,155.8594 Q70.3594,155.8594 69.1875,154.3906 Q68.0313,152.9063 68.0313,149.8281 Q68.0313,147.2188 69.25,145.4688 Q70.4844,143.7188 72.6094,143.7188 Q73.1094,143.7188 73.6406,143.8594 Q74.0781,144.0469 74.3438,144.0469 Q74.5625,144.0469 74.6563,144 Q74.7656,143.9531 75.2188,143.3594 L75.9844,147.0938 L75.0938,147.3594 Q74.6406,145.9063 74.0313,145.3125 Q73.4375,144.7031 72.4844,144.7031 Q71.2656,144.7031 70.5469,146.1406 Q69.8281,147.5625 69.8281,149.75 Q69.8281,152.1563 70.4375,153.4531 Q71.0625,154.7344 72.4219,154.7344 Q73.375,154.7344 74.0625,154.0469 Q74.75,153.3438 75.0781,151.8438 L75.9844,152.25 Q75.5781,153.9531 74.6094,154.9063 Q73.6563,155.8594 72.3438,155.8594 Z " fill="#000000"/><text fill="#000000" font-family="sans-serif" font-size="14" lengthAdjust="spacing" textLength="80" x="87" y="156.4839">QualityTeam</text><line style="stroke:#181818;stroke-width:0.5;" x1="59" x2="169" y1="166" y2="166"/><line style="stroke:#181818;stroke-width:0.5;" x1="59" x2="169" y1="174" y2="174"/></g><!--reverse link RiverMountainRescueCenter to QualityTeam--><g id="link_RiverMountainRescueCenter_QualityTeam"><path codeLine="1" d="M114,67.22 C114,89.67 114,111.5 114,133.91 " fill="none" id="RiverMountainRescueCenter-backto-QualityTeam" style="stroke:#181818;stroke-width:1.0;"/><polygon fill="none" points="114,55.22,110,61.22,114,67.22,118,61.22,114,55.22" style="stroke:#181818;stroke-width:1.0;"/><text fill="#000000" font-family="sans-serif" font-size="13" lengthAdjust="spacing" textLength="64" x="115" y="100.8979">aggregates</text></g><!--SRC=[2yeiIotopI_DAqdCp0jABKukJNLEpIj9BLB8rzLL22nDpCaigGn9JSnLi598J4ylIarFB4aj1W00]--></g></svg>