<?xml version="1.0" encoding="us-ascii" standalone="no"?><svg xmlns="http://www.w3.org/2000/svg" xmlns:xlink="http://www.w3.org/1999/xlink" contentStyleType="text/css" height="316px" preserveAspectRatio="none" style="width:215px;height:316px;background:#FFFFFF;" version="1.1" viewBox="0 0 215 316" width="215px" zoomAndPan="magnify"><defs/><g><!--class OriAndTheWillOfTheWisps--><g id="elem_OriAndTheWillOfTheWisps"><rect fill="#F1F1F1" height="48" id="OriAndTheWillOfTheWisps" rx="2.5" ry="2.5" style="stroke:#181818;stroke-width:0.5;" width="201" x="7" y="7"/><ellipse cx="22" cy="23" fill="#ADD1B2" rx="11" ry="11" style="stroke:#181818;stroke-width:1.0;"/><path d="M21.3438,28.8594 Q19.3594,28.8594 18.1875,27.3906 Q17.0313,25.9063 17.0313,22.8281 Q17.0313,20.2188 18.25,18.4688 Q19.4844,16.7188 21.6094,16.7188 Q22.1094,16.7188 22.6406,16.8594 Q23.0781,17.0469 23.3438,17.0469 Q23.5625,17.0469 23.6563,17 Q23.7656,16.9531 24.2188,16.3594 L24.9844,20.0938 L24.0938,20.3594 Q23.6406,18.9063 23.0313,18.3125 Q22.4375,17.7031 21.4844,17.7031 Q20.2656,17.7031 19.5469,19.1406 Q18.8281,20.5625 18.8281,22.75 Q18.8281,25.1563 19.4375,26.4531 Q20.0625,27.7344 21.4219,27.7344 Q22.375,27.7344 23.0625,27.0469 Q23.75,26.3438 24.0781,24.8438 L24.9844,25.25 Q24.5781,26.9531 23.6094,27.9063 Q22.6563,28.8594 21.3438,28.8594 Z " fill="#000000"/><text fill="#000000" font-family="sans-serif" font-size="14" lengthAdjust="spacing" textLength="169" x="36" y="29.4839">OriAndTheWillOfTheWisps</text><line style="stroke:#181818;stroke-width:0.5;" x1="8" x2="207" y1="39" y2="39"/><line style="stroke:#181818;stroke-width:0.5;" x1="8" x2="207" y1="47" y2="47"/></g><!--class VideoGame--><g id="elem_VideoGame"><rect fill="#F1F1F1" height="48" id="VideoGame" rx="2.5" ry="2.5" style="stroke:#181818;stroke-width:0.5;" width="106" x="54.5" y="134"/><ellipse cx="69.5" cy="150" fill="#ADD1B2" rx="11" ry="11" style="stroke:#181818;stroke-width:1.0;"/><path d="M68.8438,155.8594 Q66.8594,155.8594 65.6875,154.3906 Q64.5313,152.9063 64.5313,149.8281 Q64.5313,147.2188 65.75,145.4688 Q66.9844,143.7188 69.1094,143.7188 Q69.6094,143.7188 70.1406,143.8594 Q70.5781,144.0469 70.8438,144.0469 Q71.0625,144.0469 71.1563,144 Q71.2656,143.9531 71.7188,143.3594 L72.4844,147.0938 L71.5938,147.3594 Q71.1406,145.9063 70.5313,145.3125 Q69.9375,144.7031 68.9844,144.7031 Q67.7656,144.7031 67.0469,146.1406 Q66.3281,147.5625 66.3281,149.75 Q66.3281,152.1563 66.9375,153.4531 Q67.5625,154.7344 68.9219,154.7344 Q69.875,154.7344 70.5625,154.0469 Q71.25,153.3438 71.5781,151.8438 L72.4844,152.25 Q72.0781,153.9531 71.1094,154.9063 Q70.1563,155.8594 68.8438,155.8594 Z " fill="#000000"/><text fill="#000000" font-family="sans-serif" font-size="14" lengthAdjust="spacing" textLength="74" x="83.5" y="156.4839">VideoGame</text><line style="stroke:#181818;stroke-width:0.5;" x1="55.5" x2="159.5" y1="166" y2="166"/><line style="stroke:#181818;stroke-width:0.5;" x1="55.5" x2="159.5" y1="174" y2="174"/></g><!--class Game--><g id="elem_Game"><rect fill="#F1F1F1" height="48" id="Game" rx="2.5" ry="2.5" style="stroke:#181818;stroke-width:0.5;" width="70" x="72.5" y="261"/><ellipse cx="87.5" cy="277" fill="#ADD1B2" rx="11" ry="11" style="stroke:#181818;stroke-width:1.0;"/><path d="M86.8438,282.8594 Q84.8594,282.8594 83.6875,281.3906 Q82.5313,279.9063 82.5313,276.8281 Q82.5313,274.2188 83.75,272.4688 Q84.9844,270.7188 87.1094,270.7188 Q87.6094,270.7188 88.1406,270.8594 Q88.5781,271.0469 88.8438,271.0469 Q89.0625,271.0469 89.1563,271 Q89.2656,270.9531 89.7188,270.3594 L90.4844,274.0938 L89.5938,274.3594 Q89.1406,272.9063 88.5313,272.3125 Q87.9375,271.7031 86.9844,271.7031 Q85.7656,271.7031 85.0469,273.1406 Q84.3281,274.5625 84.3281,276.75 Q84.3281,279.1563 84.9375,280.4531 Q85.5625,281.7344 86.9219,281.7344 Q87.875,281.7344 88.5625,281.0469 Q89.25,280.3438 89.5781,278.8438 L90.4844,279.25 Q90.0781,280.9531 89.1094,281.9063 Q88.1563,282.8594 86.8438,282.8594 Z " fill="#000000"/><text fill="#000000" font-family="sans-serif" font-size="14" lengthAdjust="spacing" textLength="38" x="101.5" y="283.4839">Game</text><line style="stroke:#181818;stroke-width:0.5;" x1="73.5" x2="141.5" y1="293" y2="293"/><line style="stroke:#181818;stroke-width:0.5;" x1="73.5" x2="141.5" y1="301" y2="301"/></g><!--reverse link OriAndTheWillOfTheWisps to VideoGame--><g id="link_OriAndTheWillOfTheWisps_VideoGame"><path codeLine="1" d="M107.5,73.22 C107.5,95.67 107.5,111.5 107.5,133.91 " fill="none" id="OriAndTheWillOfTheWisps-backto-VideoGame" style="stroke:#181818;stroke-width:1.0;"/><polygon fill="none" points="107.5,55.22,101.5,73.22,113.5,73.22,107.5,55.22" style="stroke:#181818;stroke-width:1.0;"/><text fill="#000000" font-family="sans-serif" font-size="13" lengthAdjust="spacing" textLength="42" x="108.5" y="100.8979">inherits</text></g><!--reverse link VideoGame to Game--><g id="link_VideoGame_Game"><path codeLine="2" d="M107.5,200.22 C107.5,222.67 107.5,238.5 107.5,260.91 " fill="none" id="VideoGame-backto-Game" style="stroke:#181818;stroke-width:1.0;"/><polygon fill="none" points="107.5,182.22,101.5,200.22,113.5,200.22,107.5,182.22" style="stroke:#181818;stroke-width:1.0;"/><text fill="#000000" font-family="sans-serif" font-size="13" lengthAdjust="spacing" textLength="42" x="108.5" y="227.8979">inherits</text></g><!--SRC=[yo_ATCnB2Sb83S_CoV5F0pEA2ueLR6fqTHN2CbDIyzqJSrCLh1Goyp9IYp9BYhaGWc0rQD80]--></g></svg>