<?xml version="1.0" encoding="us-ascii" standalone="no"?><svg xmlns="http://www.w3.org/2000/svg" xmlns:xlink="http://www.w3.org/1999/xlink" contentStyleType="text/css" height="316px" preserveAspectRatio="none" style="width:336px;height:316px;background:#FFFFFF;" version="1.1" viewBox="0 0 336 316" width="336px" zoomAndPan="magnify"><defs/><g><!--class TheLordOfTheRingsTheFellowshipOfTheRing--><g id="elem_TheLordOfTheRingsTheFellowshipOfTheRing"><rect fill="#F1F1F1" height="48" id="TheLordOfTheRingsTheFellowshipOfTheRing" rx="2.5" ry="2.5" style="stroke:#181818;stroke-width:0.5;" width="322" x="7" y="7"/><ellipse cx="22" cy="23" fill="#ADD1B2" rx="11" ry="11" style="stroke:#181818;stroke-width:1.0;"/><path d="M21.3438,28.8594 Q19.3594,28.8594 18.1875,27.3906 Q17.0313,25.9063 17.0313,22.8281 Q17.0313,20.2188 18.25,18.4688 Q19.4844,16.7188 21.6094,16.7188 Q22.1094,16.7188 22.6406,16.8594 Q23.0781,17.0469 23.3438,17.0469 Q23.5625,17.0469 23.6563,17 Q23.7656,16.9531 24.2188,16.3594 L24.9844,20.0938 L24.0938,20.3594 Q23.6406,18.9063 23.0313,18.3125 Q22.4375,17.7031 21.4844,17.7031 Q20.2656,17.7031 19.5469,19.1406 Q18.8281,20.5625 18.8281,22.75 Q18.8281,25.1563 19.4375,26.4531 Q20.0625,27.7344 21.4219,27.7344 Q22.375,27.7344 23.0625,27.0469 Q23.75,26.3438 24.0781,24.8438 L24.9844,25.25 Q24.5781,26.9531 23.6094,27.9063 Q22.6563,28.8594 21.3438,28.8594 Z " fill="#000000"/><text fill="#000000" font-family="sans-serif" font-size="14" lengthAdjust="spacing" textLength="290" x="36" y="29.4839">TheLordOfTheRingsTheFellowshipOfTheRing</text><line style="stroke:#181818;stroke-width:0.5;" x1="8" x2="328" y1="39" y2="39"/><line style="stroke:#181818;stroke-width:0.5;" x1="8" x2="328" y1="47" y2="47"/></g><!--class Film--><g id="elem_Film"><rect fill="#F1F1F1" height="48" id="Film" rx="2.5" ry="2.5" style="stroke:#181818;stroke-width:0.5;" width="58" x="139" y="134"/><ellipse cx="154" cy="150" fill="#ADD1B2" rx="11" ry="11" style="stroke:#181818;stroke-width:1.0;"/><path d="M153.3438,155.8594 Q151.3594,155.8594 150.1875,154.3906 Q149.0313,152.9063 149.0313,149.8281 Q149.0313,147.2188 150.25,145.4688 Q151.4844,143.7188 153.6094,143.7188 Q154.1094,143.7188 154.6406,143.8594 Q155.0781,144.0469 155.3438,144.0469 Q155.5625,144.0469 155.6563,144 Q155.7656,143.9531 156.2188,143.3594 L156.9844,147.0938 L156.0938,147.3594 Q155.6406,145.9063 155.0313,145.3125 Q154.4375,144.7031 153.4844,144.7031 Q152.2656,144.7031 151.5469,146.1406 Q150.8281,147.5625 150.8281,149.75 Q150.8281,152.1563 151.4375,153.4531 Q152.0625,154.7344 153.4219,154.7344 Q154.375,154.7344 155.0625,154.0469 Q155.75,153.3438 156.0781,151.8438 L156.9844,152.25 Q156.5781,153.9531 155.6094,154.9063 Q154.6563,155.8594 153.3438,155.8594 Z " fill="#000000"/><text fill="#000000" font-family="sans-serif" font-size="14" lengthAdjust="spacing" textLength="26" x="168" y="156.4839">Film</text><line style="stroke:#181818;stroke-width:0.5;" x1="140" x2="196" y1="166" y2="166"/><line style="stroke:#181818;stroke-width:0.5;" x1="140" x2="196" y1="174" y2="174"/></g><!--class Entertainment--><g id="elem_Entertainment"><rect fill="#F1F1F1" height="48" id="Entertainment" rx="2.5" ry="2.5" style="stroke:#181818;stroke-width:0.5;" width="120" x="108" y="261"/><ellipse cx="123" cy="277" fill="#ADD1B2" rx="11" ry="11" style="stroke:#181818;stroke-width:1.0;"/><path d="M122.3438,282.8594 Q120.3594,282.8594 119.1875,281.3906 Q118.0313,279.9063 118.0313,276.8281 Q118.0313,274.2188 119.25,272.4688 Q120.4844,270.7188 122.6094,270.7188 Q123.1094,270.7188 123.6406,270.8594 Q124.0781,271.0469 124.3438,271.0469 Q124.5625,271.0469 124.6563,271 Q124.7656,270.9531 125.2188,270.3594 L125.9844,274.0938 L125.0938,274.3594 Q124.6406,272.9063 124.0313,272.3125 Q123.4375,271.7031 122.4844,271.7031 Q121.2656,271.7031 120.5469,273.1406 Q119.8281,274.5625 119.8281,276.75 Q119.8281,279.1563 120.4375,280.4531 Q121.0625,281.7344 122.4219,281.7344 Q123.375,281.7344 124.0625,281.0469 Q124.75,280.3438 125.0781,278.8438 L125.9844,279.25 Q125.5781,280.9531 124.6094,281.9063 Q123.6563,282.8594 122.3438,282.8594 Z " fill="#000000"/><text fill="#000000" font-family="sans-serif" font-size="14" lengthAdjust="spacing" textLength="88" x="137" y="283.4839">Entertainment</text><line style="stroke:#181818;stroke-width:0.5;" x1="109" x2="227" y1="293" y2="293"/><line style="stroke:#181818;stroke-width:0.5;" x1="109" x2="227" y1="301" y2="301"/></g><!--reverse link TheLordOfTheRingsTheFellowshipOfTheRing to Film--><g id="link_TheLordOfTheRingsTheFellowshipOfTheRing_Film"><path codeLine="1" d="M168,73.22 C168,95.67 168,111.5 168,133.91 " fill="none" id="TheLordOfTheRingsTheFellowshipOfTheRing-backto-Film" style="stroke:#181818;stroke-width:1.0;"/><polygon fill="none" points="168,55.22,162,73.22,174,73.22,168,55.22" style="stroke:#181818;stroke-width:1.0;"/><text fill="#000000" font-family="sans-serif" font-size="13" lengthAdjust="spacing" textLength="42" x="169" y="100.8979">inherits</text></g><!--reverse link Film to Entertainment--><g id="link_Film_Entertainment"><path codeLine="2" d="M168,200.22 C168,222.67 168,238.5 168,260.91 " fill="none" id="Film-backto-Entertainment" style="stroke:#181818;stroke-width:1.0;"/><polygon fill="none" points="168,182.22,162,200.22,174,200.22,168,182.22" style="stroke:#181818;stroke-width:1.0;"/><text fill="#000000" font-family="sans-serif" font-size="13" lengthAdjust="spacing" textLength="42" x="169" y="227.8979">inherits</text></g><!--SRC=[2yb8zSalIl5F2yb83ShCIoy6qcwfEJdvvSKPcGLmOGMR6brT1RVCd5m5AuNCl8pKeioIOYum7opZcbUIMbIIc9cNcvfNWgG40000]--></g></svg>