<?xml version="1.0" encoding="us-ascii" standalone="no"?><svg xmlns="http://www.w3.org/2000/svg" xmlns:xlink="http://www.w3.org/1999/xlink" contentStyleType="text/css" height="316px" preserveAspectRatio="none" style="width:273px;height:316px;background:#FFFFFF;" version="1.1" viewBox="0 0 273 316" width="273px" zoomAndPan="magnify"><defs/><g><!--class TheLordOfTheRingsTheTwoTowers--><g id="elem_TheLordOfTheRingsTheTwoTowers"><rect fill="#F1F1F1" height="48" id="TheLordOfTheRingsTheTwoTowers" rx="2.5" ry="2.5" style="stroke:#181818;stroke-width:0.5;" width="259" x="7" y="7"/><ellipse cx="22" cy="23" fill="#ADD1B2" rx="11" ry="11" style="stroke:#181818;stroke-width:1.0;"/><path d="M21.3438,28.8594 Q19.3594,28.8594 18.1875,27.3906 Q17.0313,25.9063 17.0313,22.8281 Q17.0313,20.2188 18.25,18.4688 Q19.4844,16.7188 21.6094,16.7188 Q22.1094,16.7188 22.6406,16.8594 Q23.0781,17.0469 23.3438,17.0469 Q23.5625,17.0469 23.6563,17 Q23.7656,16.9531 24.2188,16.3594 L24.9844,20.0938 L24.0938,20.3594 Q23.6406,18.9063 23.0313,18.3125 Q22.4375,17.7031 21.4844,17.7031 Q20.2656,17.7031 19.5469,19.1406 Q18.8281,20.5625 18.8281,22.75 Q18.8281,25.1563 19.4375,26.4531 Q20.0625,27.7344 21.4219,27.7344 Q22.375,27.7344 23.0625,27.0469 Q23.75,26.3438 24.0781,24.8438 L24.9844,25.25 Q24.5781,26.9531 23.6094,27.9063 Q22.6563,28.8594 21.3438,28.8594 Z " fill="#000000"/><text fill="#000000" font-family="sans-serif" font-size="14" lengthAdjust="spacing" textLength="227" x="36" y="29.4839">TheLordOfTheRingsTheTwoTowers</text><line style="stroke:#181818;stroke-width:0.5;" x1="8" x2="265" y1="39" y2="39"/><line style="stroke:#181818;stroke-width:0.5;" x1="8" x2="265" y1="47" y2="47"/></g><!--class Film--><g id="elem_Film"><rect fill="#F1F1F1" height="48" id="Film" rx="2.5" ry="2.5" style="stroke:#181818;stroke-width:0.5;" width="58" x="107.5" y="134"/><ellipse cx="122.5" cy="150" fill="#ADD1B2" rx="11" ry="11" style="stroke:#181818;stroke-width:1.0;"/><path d="M121.8438,155.8594 Q119.8594,155.8594 118.6875,154.3906 Q117.5313,152.9063 117.5313,149.8281 Q117.5313,147.2188 118.75,145.4688 Q119.9844,143.7188 122.1094,143.7188 Q122.6094,143.7188 123.1406,143.8594 Q123.5781,144.0469 123.8438,144.0469 Q124.0625,144.0469 124.1563,144 Q124.2656,143.9531 124.7188,143.3594 L125.4844,147.0938 L124.5938,147.3594 Q124.1406,145.9063 123.5313,145.3125 Q122.9375,144.7031 121.9844,144.7031 Q120.7656,144.7031 120.0469,146.1406 Q119.3281,147.5625 119.3281,149.75 Q119.3281,152.1563 119.9375,153.4531 Q120.5625,154.7344 121.9219,154.7344 Q122.875,154.7344 123.5625,154.0469 Q124.25,153.3438 124.5781,151.8438 L125.4844,152.25 Q125.0781,153.9531 124.1094,154.9063 Q123.1563,155.8594 121.8438,155.8594 Z " fill="#000000"/><text fill="#000000" font-family="sans-serif" font-size="14" lengthAdjust="spacing" textLength="26" x="136.5" y="156.4839">Film</text><line style="stroke:#181818;stroke-width:0.5;" x1="108.5" x2="164.5" y1="166" y2="166"/><line style="stroke:#181818;stroke-width:0.5;" x1="108.5" x2="164.5" y1="174" y2="174"/></g><!--class Entertainment--><g id="elem_Entertainment"><rect fill="#F1F1F1" height="48" id="Entertainment" rx="2.5" ry="2.5" style="stroke:#181818;stroke-width:0.5;" width="120" x="76.5" y="261"/><ellipse cx="91.5" cy="277" fill="#ADD1B2" rx="11" ry="11" style="stroke:#181818;stroke-width:1.0;"/><path d="M90.8438,282.8594 Q88.8594,282.8594 87.6875,281.3906 Q86.5313,279.9063 86.5313,276.8281 Q86.5313,274.2188 87.75,272.4688 Q88.9844,270.7188 91.1094,270.7188 Q91.6094,270.7188 92.1406,270.8594 Q92.5781,271.0469 92.8438,271.0469 Q93.0625,271.0469 93.1563,271 Q93.2656,270.9531 93.7188,270.3594 L94.4844,274.0938 L93.5938,274.3594 Q93.1406,272.9063 92.5313,272.3125 Q91.9375,271.7031 90.9844,271.7031 Q89.7656,271.7031 89.0469,273.1406 Q88.3281,274.5625 88.3281,276.75 Q88.3281,279.1563 88.9375,280.4531 Q89.5625,281.7344 90.9219,281.7344 Q91.875,281.7344 92.5625,281.0469 Q93.25,280.3438 93.5781,278.8438 L94.4844,279.25 Q94.0781,280.9531 93.1094,281.9063 Q92.1563,282.8594 90.8438,282.8594 Z " fill="#000000"/><text fill="#000000" font-family="sans-serif" font-size="14" lengthAdjust="spacing" textLength="88" x="105.5" y="283.4839">Entertainment</text><line style="stroke:#181818;stroke-width:0.5;" x1="77.5" x2="195.5" y1="293" y2="293"/><line style="stroke:#181818;stroke-width:0.5;" x1="77.5" x2="195.5" y1="301" y2="301"/></g><!--reverse link TheLordOfTheRingsTheTwoTowers to Film--><g id="link_TheLordOfTheRingsTheTwoTowers_Film"><path codeLine="1" d="M136.5,73.22 C136.5,95.67 136.5,111.5 136.5,133.91 " fill="none" id="TheLordOfTheRingsTheTwoTowers-backto-Film" style="stroke:#181818;stroke-width:1.0;"/><polygon fill="none" points="136.5,55.22,130.5,73.22,142.5,73.22,136.5,55.22" style="stroke:#181818;stroke-width:1.0;"/><text fill="#000000" font-family="sans-serif" font-size="13" lengthAdjust="spacing" textLength="42" x="137.5" y="100.8979">inherits</text></g><!--reverse link Film to Entertainment--><g id="link_Film_Entertainment"><path codeLine="2" d="M136.5,200.22 C136.5,222.67 136.5,238.5 136.5,260.91 " fill="none" id="Film-backto-Entertainment" style="stroke:#181818;stroke-width:1.0;"/><polygon fill="none" points="136.5,182.22,130.5,200.22,142.5,200.22,136.5,182.22" style="stroke:#181818;stroke-width:1.0;"/><text fill="#000000" font-family="sans-serif" font-size="13" lengthAdjust="spacing" textLength="42" x="137.5" y="227.8979">inherits</text></g><!--SRC=[2yb8zSalIl5F2yb83ShCIoy6qY7b-I7vvQb5nGesDRgw2cwPERaALWgPUHcfHPabnLnWFbZ6DQyajQWaCJClDpMl14a90000]--></g></svg>