<?xml version="1.0" encoding="us-ascii" standalone="no"?><svg xmlns="http://www.w3.org/2000/svg" xmlns:xlink="http://www.w3.org/1999/xlink" contentStyleType="text/css" height="316px" preserveAspectRatio="none" style="width:156px;height:316px;background:#FFFFFF;" version="1.1" viewBox="0 0 156 316" width="156px" zoomAndPan="magnify"><defs/><g><!--class SuperMarioWorld--><g id="elem_SuperMarioWorld"><rect fill="#F1F1F1" height="48" id="SuperMarioWorld" rx="2.5" ry="2.5" style="stroke:#181818;stroke-width:0.5;" width="142" x="7" y="7"/><ellipse cx="22" cy="23" fill="#ADD1B2" rx="11" ry="11" style="stroke:#181818;stroke-width:1.0;"/><path d="M21.3438,28.8594 Q19.3594,28.8594 18.1875,27.3906 Q17.0313,25.9063 17.0313,22.8281 Q17.0313,20.2188 18.25,18.4688 Q19.4844,16.7188 21.6094,16.7188 Q22.1094,16.7188 22.6406,16.8594 Q23.0781,17.0469 23.3438,17.0469 Q23.5625,17.0469 23.6563,17 Q23.7656,16.9531 24.2188,16.3594 L24.9844,20.0938 L24.0938,20.3594 Q23.6406,18.9063 23.0313,18.3125 Q22.4375,17.7031 21.4844,17.7031 Q20.2656,17.7031 19.5469,19.1406 Q18.8281,20.5625 18.8281,22.75 Q18.8281,25.1563 19.4375,26.4531 Q20.0625,27.7344 21.4219,27.7344 Q22.375,27.7344 23.0625,27.0469 Q23.75,26.3438 24.0781,24.8438 L24.9844,25.25 Q24.5781,26.9531 23.6094,27.9063 Q22.6563,28.8594 21.3438,28.8594 Z " fill="#000000"/><text fill="#000000" font-family="sans-serif" font-size="14" lengthAdjust="spacing" textLength="110" x="36" y="29.4839">SuperMarioWorld</text><line style="stroke:#181818;stroke-width:0.5;" x1="8" x2="148" y1="39" y2="39"/><line style="stroke:#181818;stroke-width:0.5;" x1="8" x2="148" y1="47" y2="47"/></g><!--class VideoGame--><g id="elem_VideoGame"><rect fill="#F1F1F1" height="48" id="VideoGame" rx="2.5" ry="2.5" style="stroke:#181818;stroke-width:0.5;" width="106" x="25" y="134"/><ellipse cx="40" cy="150" fill="#ADD1B2" rx="11" ry="11" style="stroke:#181818;stroke-width:1.0;"/><path d="M39.3438,155.8594 Q37.3594,155.8594 36.1875,154.3906 Q35.0313,152.9063 35.0313,149.8281 Q35.0313,147.2188 36.25,145.4688 Q37.4844,143.7188 39.6094,143.7188 Q40.1094,143.7188 40.6406,143.8594 Q41.0781,144.0469 41.3438,144.0469 Q41.5625,144.0469 41.6563,144 Q41.7656,143.9531 42.2188,143.3594 L42.9844,147.0938 L42.0938,147.3594 Q41.6406,145.9063 41.0313,145.3125 Q40.4375,144.7031 39.4844,144.7031 Q38.2656,144.7031 37.5469,146.1406 Q36.8281,147.5625 36.8281,149.75 Q36.8281,152.1563 37.4375,153.4531 Q38.0625,154.7344 39.4219,154.7344 Q40.375,154.7344 41.0625,154.0469 Q41.75,153.3438 42.0781,151.8438 L42.9844,152.25 Q42.5781,153.9531 41.6094,154.9063 Q40.6563,155.8594 39.3438,155.8594 Z " fill="#000000"/><text fill="#000000" font-family="sans-serif" font-size="14" lengthAdjust="spacing" textLength="74" x="54" y="156.4839">VideoGame</text><line style="stroke:#181818;stroke-width:0.5;" x1="26" x2="130" y1="166" y2="166"/><line style="stroke:#181818;stroke-width:0.5;" x1="26" x2="130" y1="174" y2="174"/></g><!--class Game--><g id="elem_Game"><rect fill="#F1F1F1" height="48" id="Game" rx="2.5" ry="2.5" style="stroke:#181818;stroke-width:0.5;" width="70" x="43" y="261"/><ellipse cx="58" cy="277" fill="#ADD1B2" rx="11" ry="11" style="stroke:#181818;stroke-width:1.0;"/><path d="M57.3438,282.8594 Q55.3594,282.8594 54.1875,281.3906 Q53.0313,279.9063 53.0313,276.8281 Q53.0313,274.2188 54.25,272.4688 Q55.4844,270.7188 57.6094,270.7188 Q58.1094,270.7188 58.6406,270.8594 Q59.0781,271.0469 59.3438,271.0469 Q59.5625,271.0469 59.6563,271 Q59.7656,270.9531 60.2188,270.3594 L60.9844,274.0938 L60.0938,274.3594 Q59.6406,272.9063 59.0313,272.3125 Q58.4375,271.7031 57.4844,271.7031 Q56.2656,271.7031 55.5469,273.1406 Q54.8281,274.5625 54.8281,276.75 Q54.8281,279.1563 55.4375,280.4531 Q56.0625,281.7344 57.4219,281.7344 Q58.375,281.7344 59.0625,281.0469 Q59.75,280.3438 60.0781,278.8438 L60.9844,279.25 Q60.5781,280.9531 59.6094,281.9063 Q58.6563,282.8594 57.3438,282.8594 Z " fill="#000000"/><text fill="#000000" font-family="sans-serif" font-size="14" lengthAdjust="spacing" textLength="38" x="72" y="283.4839">Game</text><line style="stroke:#181818;stroke-width:0.5;" x1="44" x2="112" y1="293" y2="293"/><line style="stroke:#181818;stroke-width:0.5;" x1="44" x2="112" y1="301" y2="301"/></g><!--reverse link SuperMarioWorld to VideoGame--><g id="link_SuperMarioWorld_VideoGame"><path codeLine="1" d="M78,73.22 C78,95.67 78,111.5 78,133.91 " fill="none" id="SuperMarioWorld-backto-VideoGame" style="stroke:#181818;stroke-width:1.0;"/><polygon fill="none" points="78,55.22,72,73.22,84,73.22,78,55.22" style="stroke:#181818;stroke-width:1.0;"/><text fill="#000000" font-family="sans-serif" font-size="13" lengthAdjust="spacing" textLength="42" x="79" y="100.8979">inherits</text></g><!--reverse link VideoGame to Game--><g id="link_VideoGame_Game"><path codeLine="2" d="M78,200.22 C78,222.67 78,238.5 78,260.91 " fill="none" id="VideoGame-backto-Game" style="stroke:#181818;stroke-width:1.0;"/><polygon fill="none" points="78,182.22,72,200.22,84,200.22,78,182.22" style="stroke:#181818;stroke-width:1.0;"/><text fill="#000000" font-family="sans-serif" font-size="13" lengthAdjust="spacing" textLength="42" x="79" y="227.8979">inherits</text></g><!--SRC=[2oujI2toJIpAp0_FByf9KR2fqTLL2CjCISrtJynDLR1IoCpBI2tAB2dcGWY2rQ190m00]--></g></svg>