<?xml version="1.0" encoding="us-ascii" standalone="no"?><svg xmlns="http://www.w3.org/2000/svg" xmlns:xlink="http://www.w3.org/1999/xlink" contentStyleType="text/css" height="316px" preserveAspectRatio="none" style="width:128px;height:316px;background:#FFFFFF;" version="1.1" viewBox="0 0 128 316" width="128px" zoomAndPan="magnify"><defs/><g><!--class OKComputer--><g id="elem_OKComputer"><rect fill="#F1F1F1" height="48" id="OKComputer" rx="2.5" ry="2.5" style="stroke:#181818;stroke-width:0.5;" width="114" x="7" y="7"/><ellipse cx="22" cy="23" fill="#ADD1B2" rx="11" ry="11" style="stroke:#181818;stroke-width:1.0;"/><path d="M21.3438,28.8594 Q19.3594,28.8594 18.1875,27.3906 Q17.0313,25.9063 17.0313,22.8281 Q17.0313,20.2188 18.25,18.4688 Q19.4844,16.7188 21.6094,16.7188 Q22.1094,16.7188 22.6406,16.8594 Q23.0781,17.0469 23.3438,17.0469 Q23.5625,17.0469 23.6563,17 Q23.7656,16.9531 24.2188,16.3594 L24.9844,20.0938 L24.0938,20.3594 Q23.6406,18.9063 23.0313,18.3125 Q22.4375,17.7031 21.4844,17.7031 Q20.2656,17.7031 19.5469,19.1406 Q18.8281,20.5625 18.8281,22.75 Q18.8281,25.1563 19.4375,26.4531 Q20.0625,27.7344 21.4219,27.7344 Q22.375,27.7344 23.0625,27.0469 Q23.75,26.3438 24.0781,24.8438 L24.9844,25.25 Q24.5781,26.9531 23.6094,27.9063 Q22.6563,28.8594 21.3438,28.8594 Z " fill="#000000"/><text fill="#000000" font-family="sans-serif" font-size="14" lengthAdjust="spacing" textLength="82" x="36" y="29.4839">OKComputer</text><line style="stroke:#181818;stroke-width:0.5;" x1="8" x2="120" y1="39" y2="39"/><line style="stroke:#181818;stroke-width:0.5;" x1="8" x2="120" y1="47" y2="47"/></g><!--class Album--><g id="elem_Album"><rect fill="#F1F1F1" height="48" id="Album" rx="2.5" ry="2.5" style="stroke:#181818;stroke-width:0.5;" width="71" x="28.5" y="134"/><ellipse cx="43.5" cy="150" fill="#ADD1B2" rx="11" ry="11" style="stroke:#181818;stroke-width:1.0;"/><path d="M42.8438,155.8594 Q40.8594,155.8594 39.6875,154.3906 Q38.5313,152.9063 38.5313,149.8281 Q38.5313,147.2188 39.75,145.4688 Q40.9844,143.7188 43.1094,143.7188 Q43.6094,143.7188 44.1406,143.8594 Q44.5781,144.0469 44.8438,144.0469 Q45.0625,144.0469 45.1563,144 Q45.2656,143.9531 45.7188,143.3594 L46.4844,147.0938 L45.5938,147.3594 Q45.1406,145.9063 44.5313,145.3125 Q43.9375,144.7031 42.9844,144.7031 Q41.7656,144.7031 41.0469,146.1406 Q40.3281,147.5625 40.3281,149.75 Q40.3281,152.1563 40.9375,153.4531 Q41.5625,154.7344 42.9219,154.7344 Q43.875,154.7344 44.5625,154.0469 Q45.25,153.3438 45.5781,151.8438 L46.4844,152.25 Q46.0781,153.9531 45.1094,154.9063 Q44.1563,155.8594 42.8438,155.8594 Z " fill="#000000"/><text fill="#000000" font-family="sans-serif" font-size="14" lengthAdjust="spacing" textLength="39" x="57.5" y="156.4839">Album</text><line style="stroke:#181818;stroke-width:0.5;" x1="29.5" x2="98.5" y1="166" y2="166"/><line style="stroke:#181818;stroke-width:0.5;" x1="29.5" x2="98.5" y1="174" y2="174"/></g><!--class MusicWork--><g id="elem_MusicWork"><rect fill="#F1F1F1" height="48" id="MusicWork" rx="2.5" ry="2.5" style="stroke:#181818;stroke-width:0.5;" width="101" x="13.5" y="261"/><ellipse cx="28.5" cy="277" fill="#ADD1B2" rx="11" ry="11" style="stroke:#181818;stroke-width:1.0;"/><path d="M27.8438,282.8594 Q25.8594,282.8594 24.6875,281.3906 Q23.5313,279.9063 23.5313,276.8281 Q23.5313,274.2188 24.75,272.4688 Q25.9844,270.7188 28.1094,270.7188 Q28.6094,270.7188 29.1406,270.8594 Q29.5781,271.0469 29.8438,271.0469 Q30.0625,271.0469 30.1563,271 Q30.2656,270.9531 30.7188,270.3594 L31.4844,274.0938 L30.5938,274.3594 Q30.1406,272.9063 29.5313,272.3125 Q28.9375,271.7031 27.9844,271.7031 Q26.7656,271.7031 26.0469,273.1406 Q25.3281,274.5625 25.3281,276.75 Q25.3281,279.1563 25.9375,280.4531 Q26.5625,281.7344 27.9219,281.7344 Q28.875,281.7344 29.5625,281.0469 Q30.25,280.3438 30.5781,278.8438 L31.4844,279.25 Q31.0781,280.9531 30.1094,281.9063 Q29.1563,282.8594 27.8438,282.8594 Z " fill="#000000"/><text fill="#000000" font-family="sans-serif" font-size="14" lengthAdjust="spacing" textLength="69" x="42.5" y="283.4839">MusicWork</text><line style="stroke:#181818;stroke-width:0.5;" x1="14.5" x2="113.5" y1="293" y2="293"/><line style="stroke:#181818;stroke-width:0.5;" x1="14.5" x2="113.5" y1="301" y2="301"/></g><!--reverse link OKComputer to Album--><g id="link_OKComputer_Album"><path codeLine="1" d="M64,73.22 C64,95.67 64,111.5 64,133.91 " fill="none" id="OKComputer-backto-Album" style="stroke:#181818;stroke-width:1.0;"/><polygon fill="none" points="64,55.22,58,73.22,70,73.22,64,55.22" style="stroke:#181818;stroke-width:1.0;"/><text fill="#000000" font-family="sans-serif" font-size="13" lengthAdjust="spacing" textLength="42" x="65" y="100.8979">inherits</text></g><!--reverse link Album to MusicWork--><g id="link_Album_MusicWork"><path codeLine="2" d="M64,200.22 C64,222.67 64,238.5 64,260.91 " fill="none" id="Album-backto-MusicWork" style="stroke:#181818;stroke-width:1.0;"/><polygon fill="none" points="64,182.22,58,200.22,70,200.22,64,182.22" style="stroke:#181818;stroke-width:1.0;"/><text fill="#000000" font-family="sans-serif" font-size="13" lengthAdjust="spacing" textLength="42" x="65" y="227.8979">inherits</text></g><!--SRC=[y_TspiyjA2r9BLAmgT7LLN3CIIhDLR1IoCpBI2tAB2dcWWY0vNnBYpEJm_EBif7a0G00]--></g></svg>