<?xml version="1.0" encoding="us-ascii" standalone="no"?><svg xmlns="http://www.w3.org/2000/svg" xmlns:xlink="http://www.w3.org/1999/xlink" contentStyleType="text/css" height="316px" preserveAspectRatio="none" style="width:176px;height:316px;background:#FFFFFF;" version="1.1" viewBox="0 0 176 316" width="176px" zoomAndPan="magnify"><defs/><g><!--class TheCreationOfAdam--><g id="elem_TheCreationOfAdam"><rect fill="#F1F1F1" height="48" id="TheCreationOfAdam" rx="2.5" ry="2.5" style="stroke:#181818;stroke-width:0.5;" width="162" x="7" y="7"/><ellipse cx="22" cy="23" fill="#ADD1B2" rx="11" ry="11" style="stroke:#181818;stroke-width:1.0;"/><path d="M21.3438,28.8594 Q19.3594,28.8594 18.1875,27.3906 Q17.0313,25.9063 17.0313,22.8281 Q17.0313,20.2188 18.25,18.4688 Q19.4844,16.7188 21.6094,16.7188 Q22.1094,16.7188 22.6406,16.8594 Q23.0781,17.0469 23.3438,17.0469 Q23.5625,17.0469 23.6563,17 Q23.7656,16.9531 24.2188,16.3594 L24.9844,20.0938 L24.0938,20.3594 Q23.6406,18.9063 23.0313,18.3125 Q22.4375,17.7031 21.4844,17.7031 Q20.2656,17.7031 19.5469,19.1406 Q18.8281,20.5625 18.8281,22.75 Q18.8281,25.1563 19.4375,26.4531 Q20.0625,27.7344 21.4219,27.7344 Q22.375,27.7344 23.0625,27.0469 Q23.75,26.3438 24.0781,24.8438 L24.9844,25.25 Q24.5781,26.9531 23.6094,27.9063 Q22.6563,28.8594 21.3438,28.8594 Z " fill="#000000"/><text fill="#000000" font-family="sans-serif" font-size="14" lengthAdjust="spacing" textLength="130" x="36" y="29.4839">TheCreationOfAdam</text><line style="stroke:#181818;stroke-width:0.5;" x1="8" x2="168" y1="39" y2="39"/><line style="stroke:#181818;stroke-width:0.5;" x1="8" x2="168" y1="47" y2="47"/></g><!--class Painting--><g id="elem_Painting"><rect fill="#F1F1F1" height="48" id="Painting" rx="2.5" ry="2.5" style="stroke:#181818;stroke-width:0.5;" width="83" x="46.5" y="134"/><ellipse cx="61.5" cy="150" fill="#ADD1B2" rx="11" ry="11" style="stroke:#181818;stroke-width:1.0;"/><path d="M60.8438,155.8594 Q58.8594,155.8594 57.6875,154.3906 Q56.5313,152.9063 56.5313,149.8281 Q56.5313,147.2188 57.75,145.4688 Q58.9844,143.7188 61.1094,143.7188 Q61.6094,143.7188 62.1406,143.8594 Q62.5781,144.0469 62.8438,144.0469 Q63.0625,144.0469 63.1563,144 Q63.2656,143.9531 63.7188,143.3594 L64.4844,147.0938 L63.5938,147.3594 Q63.1406,145.9063 62.5313,145.3125 Q61.9375,144.7031 60.9844,144.7031 Q59.7656,144.7031 59.0469,146.1406 Q58.3281,147.5625 58.3281,149.75 Q58.3281,152.1563 58.9375,153.4531 Q59.5625,154.7344 60.9219,154.7344 Q61.875,154.7344 62.5625,154.0469 Q63.25,153.3438 63.5781,151.8438 L64.4844,152.25 Q64.0781,153.9531 63.1094,154.9063 Q62.1563,155.8594 60.8438,155.8594 Z " fill="#000000"/><text fill="#000000" font-family="sans-serif" font-size="14" lengthAdjust="spacing" textLength="51" x="75.5" y="156.4839">Painting</text><line style="stroke:#181818;stroke-width:0.5;" x1="47.5" x2="128.5" y1="166" y2="166"/><line style="stroke:#181818;stroke-width:0.5;" x1="47.5" x2="128.5" y1="174" y2="174"/></g><!--class Artwork--><g id="elem_Artwork"><rect fill="#F1F1F1" height="48" id="Artwork" rx="2.5" ry="2.5" style="stroke:#181818;stroke-width:0.5;" width="79" x="48.5" y="261"/><ellipse cx="63.5" cy="277" fill="#ADD1B2" rx="11" ry="11" style="stroke:#181818;stroke-width:1.0;"/><path d="M62.8438,282.8594 Q60.8594,282.8594 59.6875,281.3906 Q58.5313,279.9063 58.5313,276.8281 Q58.5313,274.2188 59.75,272.4688 Q60.9844,270.7188 63.1094,270.7188 Q63.6094,270.7188 64.1406,270.8594 Q64.5781,271.0469 64.8438,271.0469 Q65.0625,271.0469 65.1563,271 Q65.2656,270.9531 65.7188,270.3594 L66.4844,274.0938 L65.5938,274.3594 Q65.1406,272.9063 64.5313,272.3125 Q63.9375,271.7031 62.9844,271.7031 Q61.7656,271.7031 61.0469,273.1406 Q60.3281,274.5625 60.3281,276.75 Q60.3281,279.1563 60.9375,280.4531 Q61.5625,281.7344 62.9219,281.7344 Q63.875,281.7344 64.5625,281.0469 Q65.25,280.3438 65.5781,278.8438 L66.4844,279.25 Q66.0781,280.9531 65.1094,281.9063 Q64.1563,282.8594 62.8438,282.8594 Z " fill="#000000"/><text fill="#000000" font-family="sans-serif" font-size="14" lengthAdjust="spacing" textLength="47" x="77.5" y="283.4839">Artwork</text><line style="stroke:#181818;stroke-width:0.5;" x1="49.5" x2="126.5" y1="293" y2="293"/><line style="stroke:#181818;stroke-width:0.5;" x1="49.5" x2="126.5" y1="301" y2="301"/></g><!--reverse link TheCreationOfAdam to Painting--><g id="link_TheCreationOfAdam_Painting"><path codeLine="1" d="M88,73.22 C88,95.67 88,111.5 88,133.91 " fill="none" id="TheCreationOfAdam-backto-Painting" style="stroke:#181818;stroke-width:1.0;"/><polygon fill="none" points="88,55.22,82,73.22,94,73.22,88,55.22" style="stroke:#181818;stroke-width:1.0;"/><text fill="#000000" font-family="sans-serif" font-size="13" lengthAdjust="spacing" textLength="42" x="89" y="100.8979">inherits</text></g><!--reverse link Painting to Artwork--><g id="link_Painting_Artwork"><path codeLine="2" d="M88,200.22 C88,222.67 88,238.5 88,260.91 " fill="none" id="Painting-backto-Artwork" style="stroke:#181818;stroke-width:1.0;"/><polygon fill="none" points="88,182.22,82,200.22,94,200.22,88,182.22" style="stroke:#181818;stroke-width:1.0;"/><text fill="#000000" font-family="sans-serif" font-size="13" lengthAdjust="spacing" textLength="42" x="89" y="227.8979">inherits</text></g><!--SRC=[2yb8TIvAJIp9pC_pJtDCISnLiAdHrLK8ICpCAydCIrUmKiZCoqWjoYmfveABWLKu5fMKvnTb8oa00000]--></g></svg>