<?xml version="1.0" encoding="us-ascii" standalone="no"?><svg xmlns="http://www.w3.org/2000/svg" xmlns:xlink="http://www.w3.org/1999/xlink" contentStyleType="text/css" height="316px" preserveAspectRatio="none" style="width:207px;height:316px;background:#FFFFFF;" version="1.1" viewBox="0 0 207 316" width="207px" zoomAndPan="magnify"><defs/><g><!--class ThePhantomOfTheOpera--><g id="elem_ThePhantomOfTheOpera"><rect fill="#F1F1F1" height="48" id="ThePhantomOfTheOpera" rx="2.5" ry="2.5" style="stroke:#181818;stroke-width:0.5;" width="193" x="7" y="7"/><ellipse cx="22" cy="23" fill="#ADD1B2" rx="11" ry="11" style="stroke:#181818;stroke-width:1.0;"/><path d="M21.3438,28.8594 Q19.3594,28.8594 18.1875,27.3906 Q17.0313,25.9063 17.0313,22.8281 Q17.0313,20.2188 18.25,18.4688 Q19.4844,16.7188 21.6094,16.7188 Q22.1094,16.7188 22.6406,16.8594 Q23.0781,17.0469 23.3438,17.0469 Q23.5625,17.0469 23.6563,17 Q23.7656,16.9531 24.2188,16.3594 L24.9844,20.0938 L24.0938,20.3594 Q23.6406,18.9063 23.0313,18.3125 Q22.4375,17.7031 21.4844,17.7031 Q20.2656,17.7031 19.5469,19.1406 Q18.8281,20.5625 18.8281,22.75 Q18.8281,25.1563 19.4375,26.4531 Q20.0625,27.7344 21.4219,27.7344 Q22.375,27.7344 23.0625,27.0469 Q23.75,26.3438 24.0781,24.8438 L24.9844,25.25 Q24.5781,26.9531 23.6094,27.9063 Q22.6563,28.8594 21.3438,28.8594 Z " fill="#000000"/><text fill="#000000" font-family="sans-serif" font-size="14" lengthAdjust="spacing" textLength="161" x="36" y="29.4839">ThePhantomOfTheOpera</text><line style="stroke:#181818;stroke-width:0.5;" x1="8" x2="199" y1="39" y2="39"/><line style="stroke:#181818;stroke-width:0.5;" x1="8" x2="199" y1="47" y2="47"/></g><!--class MusicalTheatre--><g id="elem_MusicalTheatre"><rect fill="#F1F1F1" height="48" id="MusicalTheatre" rx="2.5" ry="2.5" style="stroke:#181818;stroke-width:0.5;" width="129" x="39" y="134"/><ellipse cx="54" cy="150" fill="#ADD1B2" rx="11" ry="11" style="stroke:#181818;stroke-width:1.0;"/><path d="M53.3438,155.8594 Q51.3594,155.8594 50.1875,154.3906 Q49.0313,152.9063 49.0313,149.8281 Q49.0313,147.2188 50.25,145.4688 Q51.4844,143.7188 53.6094,143.7188 Q54.1094,143.7188 54.6406,143.8594 Q55.0781,144.0469 55.3438,144.0469 Q55.5625,144.0469 55.6563,144 Q55.7656,143.9531 56.2188,143.3594 L56.9844,147.0938 L56.0938,147.3594 Q55.6406,145.9063 55.0313,145.3125 Q54.4375,144.7031 53.4844,144.7031 Q52.2656,144.7031 51.5469,146.1406 Q50.8281,147.5625 50.8281,149.75 Q50.8281,152.1563 51.4375,153.4531 Q52.0625,154.7344 53.4219,154.7344 Q54.375,154.7344 55.0625,154.0469 Q55.75,153.3438 56.0781,151.8438 L56.9844,152.25 Q56.5781,153.9531 55.6094,154.9063 Q54.6563,155.8594 53.3438,155.8594 Z " fill="#000000"/><text fill="#000000" font-family="sans-serif" font-size="14" lengthAdjust="spacing" textLength="97" x="68" y="156.4839">MusicalTheatre</text><line style="stroke:#181818;stroke-width:0.5;" x1="40" x2="167" y1="166" y2="166"/><line style="stroke:#181818;stroke-width:0.5;" x1="40" x2="167" y1="174" y2="174"/></g><!--class Theatre--><g id="elem_Theatre"><rect fill="#F1F1F1" height="48" id="Theatre" rx="2.5" ry="2.5" style="stroke:#181818;stroke-width:0.5;" width="82" x="62.5" y="261"/><ellipse cx="77.5" cy="277" fill="#ADD1B2" rx="11" ry="11" style="stroke:#181818;stroke-width:1.0;"/><path d="M76.8438,282.8594 Q74.8594,282.8594 73.6875,281.3906 Q72.5313,279.9063 72.5313,276.8281 Q72.5313,274.2188 73.75,272.4688 Q74.9844,270.7188 77.1094,270.7188 Q77.6094,270.7188 78.1406,270.8594 Q78.5781,271.0469 78.8438,271.0469 Q79.0625,271.0469 79.1563,271 Q79.2656,270.9531 79.7188,270.3594 L80.4844,274.0938 L79.5938,274.3594 Q79.1406,272.9063 78.5313,272.3125 Q77.9375,271.7031 76.9844,271.7031 Q75.7656,271.7031 75.0469,273.1406 Q74.3281,274.5625 74.3281,276.75 Q74.3281,279.1563 74.9375,280.4531 Q75.5625,281.7344 76.9219,281.7344 Q77.875,281.7344 78.5625,281.0469 Q79.25,280.3438 79.5781,278.8438 L80.4844,279.25 Q80.0781,280.9531 79.1094,281.9063 Q78.1563,282.8594 76.8438,282.8594 Z " fill="#000000"/><text fill="#000000" font-family="sans-serif" font-size="14" lengthAdjust="spacing" textLength="50" x="91.5" y="283.4839">Theatre</text><line style="stroke:#181818;stroke-width:0.5;" x1="63.5" x2="143.5" y1="293" y2="293"/><line style="stroke:#181818;stroke-width:0.5;" x1="63.5" x2="143.5" y1="301" y2="301"/></g><!--reverse link ThePhantomOfTheOpera to MusicalTheatre--><g id="link_ThePhantomOfTheOpera_MusicalTheatre"><path codeLine="1" d="M103.5,73.22 C103.5,95.67 103.5,111.5 103.5,133.91 " fill="none" id="ThePhantomOfTheOpera-backto-MusicalTheatre" style="stroke:#181818;stroke-width:1.0;"/><polygon fill="none" points="103.5,55.22,97.5,73.22,109.5,73.22,103.5,55.22" style="stroke:#181818;stroke-width:1.0;"/><text fill="#000000" font-family="sans-serif" font-size="13" lengthAdjust="spacing" textLength="42" x="104.5" y="100.8979">inherits</text></g><!--reverse link MusicalTheatre to Theatre--><g id="link_MusicalTheatre_Theatre"><path codeLine="2" d="M103.5,200.22 C103.5,222.67 103.5,238.5 103.5,260.91 " fill="none" id="MusicalTheatre-backto-Theatre" style="stroke:#181818;stroke-width:1.0;"/><polygon fill="none" points="103.5,182.22,97.5,200.22,109.5,200.22,103.5,182.22" style="stroke:#181818;stroke-width:1.0;"/><text fill="#000000" font-family="sans-serif" font-size="13" lengthAdjust="spacing" textLength="42" x="104.5" y="227.8979">inherits</text></g><!--SRC=[2yb83SX8p2l9p_LF2yb8zIz8BKfKiAdHrLNmBItEJ4xC0GecbXIbAbWfPEPbf1PbbXHpeSc0LMCg0m00]--></g></svg>