<?xml version="1.0" encoding="us-ascii" standalone="no"?><svg xmlns="http://www.w3.org/2000/svg" xmlns:xlink="http://www.w3.org/1999/xlink" contentStyleType="text/css" height="316px" preserveAspectRatio="none" style="width:143px;height:316px;background:#FFFFFF;" version="1.1" viewBox="0 0 143 316" width="143px" zoomAndPan="magnify"><defs/><g><!--class WickedMusical--><g id="elem_WickedMusical"><rect fill="#F1F1F1" height="48" id="WickedMusical" rx="2.5" ry="2.5" style="stroke:#181818;stroke-width:0.5;" width="125" x="9" y="7"/><ellipse cx="24" cy="23" fill="#ADD1B2" rx="11" ry="11" style="stroke:#181818;stroke-width:1.0;"/><path d="M23.3438,28.8594 Q21.3594,28.8594 20.1875,27.3906 Q19.0313,25.9063 19.0313,22.8281 Q19.0313,20.2188 20.25,18.4688 Q21.4844,16.7188 23.6094,16.7188 Q24.1094,16.7188 24.6406,16.8594 Q25.0781,17.0469 25.3438,17.0469 Q25.5625,17.0469 25.6563,17 Q25.7656,16.9531 26.2188,16.3594 L26.9844,20.0938 L26.0938,20.3594 Q25.6406,18.9063 25.0313,18.3125 Q24.4375,17.7031 23.4844,17.7031 Q22.2656,17.7031 21.5469,19.1406 Q20.8281,20.5625 20.8281,22.75 Q20.8281,25.1563 21.4375,26.4531 Q22.0625,27.7344 23.4219,27.7344 Q24.375,27.7344 25.0625,27.0469 Q25.75,26.3438 26.0781,24.8438 L26.9844,25.25 Q26.5781,26.9531 25.6094,27.9063 Q24.6563,28.8594 23.3438,28.8594 Z " fill="#000000"/><text fill="#000000" font-family="sans-serif" font-size="14" lengthAdjust="spacing" textLength="93" x="38" y="29.4839">WickedMusical</text><line style="stroke:#181818;stroke-width:0.5;" x1="10" x2="133" y1="39" y2="39"/><line style="stroke:#181818;stroke-width:0.5;" x1="10" x2="133" y1="47" y2="47"/></g><!--class MusicalTheatre--><g id="elem_MusicalTheatre"><rect fill="#F1F1F1" height="48" id="MusicalTheatre" rx="2.5" ry="2.5" style="stroke:#181818;stroke-width:0.5;" width="129" x="7" y="134"/><ellipse cx="22" cy="150" fill="#ADD1B2" rx="11" ry="11" style="stroke:#181818;stroke-width:1.0;"/><path d="M21.3438,155.8594 Q19.3594,155.8594 18.1875,154.3906 Q17.0313,152.9063 17.0313,149.8281 Q17.0313,147.2188 18.25,145.4688 Q19.4844,143.7188 21.6094,143.7188 Q22.1094,143.7188 22.6406,143.8594 Q23.0781,144.0469 23.3438,144.0469 Q23.5625,144.0469 23.6563,144 Q23.7656,143.9531 24.2188,143.3594 L24.9844,147.0938 L24.0938,147.3594 Q23.6406,145.9063 23.0313,145.3125 Q22.4375,144.7031 21.4844,144.7031 Q20.2656,144.7031 19.5469,146.1406 Q18.8281,147.5625 18.8281,149.75 Q18.8281,152.1563 19.4375,153.4531 Q20.0625,154.7344 21.4219,154.7344 Q22.375,154.7344 23.0625,154.0469 Q23.75,153.3438 24.0781,151.8438 L24.9844,152.25 Q24.5781,153.9531 23.6094,154.9063 Q22.6563,155.8594 21.3438,155.8594 Z " fill="#000000"/><text fill="#000000" font-family="sans-serif" font-size="14" lengthAdjust="spacing" textLength="97" x="36" y="156.4839">MusicalTheatre</text><line style="stroke:#181818;stroke-width:0.5;" x1="8" x2="135" y1="166" y2="166"/><line style="stroke:#181818;stroke-width:0.5;" x1="8" x2="135" y1="174" y2="174"/></g><!--class Theatre--><g id="elem_Theatre"><rect fill="#F1F1F1" height="48" id="Theatre" rx="2.5" ry="2.5" style="stroke:#181818;stroke-width:0.5;" width="82" x="30.5" y="261"/><ellipse cx="45.5" cy="277" fill="#ADD1B2" rx="11" ry="11" style="stroke:#181818;stroke-width:1.0;"/><path d="M44.8438,282.8594 Q42.8594,282.8594 41.6875,281.3906 Q40.5313,279.9063 40.5313,276.8281 Q40.5313,274.2188 41.75,272.4688 Q42.9844,270.7188 45.1094,270.7188 Q45.6094,270.7188 46.1406,270.8594 Q46.5781,271.0469 46.8438,271.0469 Q47.0625,271.0469 47.1563,271 Q47.2656,270.9531 47.7188,270.3594 L48.4844,274.0938 L47.5938,274.3594 Q47.1406,272.9063 46.5313,272.3125 Q45.9375,271.7031 44.9844,271.7031 Q43.7656,271.7031 43.0469,273.1406 Q42.3281,274.5625 42.3281,276.75 Q42.3281,279.1563 42.9375,280.4531 Q43.5625,281.7344 44.9219,281.7344 Q45.875,281.7344 46.5625,281.0469 Q47.25,280.3438 47.5781,278.8438 L48.4844,279.25 Q48.0781,280.9531 47.1094,281.9063 Q46.1563,282.8594 44.8438,282.8594 Z " fill="#000000"/><text fill="#000000" font-family="sans-serif" font-size="14" lengthAdjust="spacing" textLength="50" x="59.5" y="283.4839">Theatre</text><line style="stroke:#181818;stroke-width:0.5;" x1="31.5" x2="111.5" y1="293" y2="293"/><line style="stroke:#181818;stroke-width:0.5;" x1="31.5" x2="111.5" y1="301" y2="301"/></g><!--reverse link WickedMusical to MusicalTheatre--><g id="link_WickedMusical_MusicalTheatre"><path codeLine="1" d="M71.5,73.22 C71.5,95.67 71.5,111.5 71.5,133.91 " fill="none" id="WickedMusical-backto-MusicalTheatre" style="stroke:#181818;stroke-width:1.0;"/><polygon fill="none" points="71.5,55.22,65.5,73.22,77.5,73.22,71.5,55.22" style="stroke:#181818;stroke-width:1.0;"/><text fill="#000000" font-family="sans-serif" font-size="13" lengthAdjust="spacing" textLength="42" x="72.5" y="100.8979">inherits</text></g><!--reverse link MusicalTheatre to Theatre--><g id="link_MusicalTheatre_Theatre"><path codeLine="2" d="M71.5,200.22 C71.5,222.67 71.5,238.5 71.5,260.91 " fill="none" id="MusicalTheatre-backto-Theatre" style="stroke:#181818;stroke-width:1.0;"/><polygon fill="none" points="71.5,182.22,65.5,200.22,77.5,200.22,71.5,182.22" style="stroke:#181818;stroke-width:1.0;"/><text fill="#000000" font-family="sans-serif" font-size="13" lengthAdjust="spacing" textLength="42" x="72.5" y="227.8979">inherits</text></g><!--SRC=[2yzCpavDyIqjpanEp56mgT7LLO1oGZ9I4qkAKXMi53BpCbABCakAkT1amAenbG40]--></g></svg>