<?xml version="1.0" encoding="us-ascii" standalone="no"?><svg xmlns="http://www.w3.org/2000/svg" xmlns:xlink="http://www.w3.org/1999/xlink" contentStyleType="text/css" height="189px" preserveAspectRatio="none" style="width:155px;height:189px;background:#FFFFFF;" version="1.1" viewBox="0 0 155 189" width="155px" zoomAndPan="magnify"><defs/><g><!--class OperatingSystem--><g id="elem_OperatingSystem"><rect fill="#F1F1F1" height="48" id="OperatingSystem" rx="2.5" ry="2.5" style="stroke:#181818;stroke-width:0.5;" width="141" x="7" y="7"/><ellipse cx="22" cy="23" fill="#ADD1B2" rx="11" ry="11" style="stroke:#181818;stroke-width:1.0;"/><path d="M21.3438,28.8594 Q19.3594,28.8594 18.1875,27.3906 Q17.0313,25.9063 17.0313,22.8281 Q17.0313,20.2188 18.25,18.4688 Q19.4844,16.7188 21.6094,16.7188 Q22.1094,16.7188 22.6406,16.8594 Q23.0781,17.0469 23.3438,17.0469 Q23.5625,17.0469 23.6563,17 Q23.7656,16.9531 24.2188,16.3594 L24.9844,20.0938 L24.0938,20.3594 Q23.6406,18.9063 23.0313,18.3125 Q22.4375,17.7031 21.4844,17.7031 Q20.2656,17.7031 19.5469,19.1406 Q18.8281,20.5625 18.8281,22.75 Q18.8281,25.1563 19.4375,26.4531 Q20.0625,27.7344 21.4219,27.7344 Q22.375,27.7344 23.0625,27.0469 Q23.75,26.3438 24.0781,24.8438 L24.9844,25.25 Q24.5781,26.9531 23.6094,27.9063 Q22.6563,28.8594 21.3438,28.8594 Z " fill="#000000"/><text fill="#000000" font-family="sans-serif" font-size="14" lengthAdjust="spacing" textLength="109" x="36" y="29.4839">OperatingSystem</text><line style="stroke:#181818;stroke-width:0.5;" x1="8" x2="147" y1="39" y2="39"/><line style="stroke:#181818;stroke-width:0.5;" x1="8" x2="147" y1="47" y2="47"/></g><!--class IDE--><g id="elem_IDE"><rect fill="#F1F1F1" height="48" id="IDE" rx="2.5" ry="2.5" style="stroke:#181818;stroke-width:0.5;" width="54" x="50.5" y="134"/><ellipse cx="65.5" cy="150" fill="#ADD1B2" rx="11" ry="11" style="stroke:#181818;stroke-width:1.0;"/><path d="M64.8438,155.8594 Q62.8594,155.8594 61.6875,154.3906 Q60.5313,152.9063 60.5313,149.8281 Q60.5313,147.2188 61.75,145.4688 Q62.9844,143.7188 65.1094,143.7188 Q65.6094,143.7188 66.1406,143.8594 Q66.5781,144.0469 66.8438,144.0469 Q67.0625,144.0469 67.1563,144 Q67.2656,143.9531 67.7188,143.3594 L68.4844,147.0938 L67.5938,147.3594 Q67.1406,145.9063 66.5313,145.3125 Q65.9375,144.7031 64.9844,144.7031 Q63.7656,144.7031 63.0469,146.1406 Q62.3281,147.5625 62.3281,149.75 Q62.3281,152.1563 62.9375,153.4531 Q63.5625,154.7344 64.9219,154.7344 Q65.875,154.7344 66.5625,154.0469 Q67.25,153.3438 67.5781,151.8438 L68.4844,152.25 Q68.0781,153.9531 67.1094,154.9063 Q66.1563,155.8594 64.8438,155.8594 Z " fill="#000000"/><text fill="#000000" font-family="sans-serif" font-size="14" lengthAdjust="spacing" textLength="22" x="79.5" y="156.4839">IDE</text><line style="stroke:#181818;stroke-width:0.5;" x1="51.5" x2="103.5" y1="166" y2="166"/><line style="stroke:#181818;stroke-width:0.5;" x1="51.5" x2="103.5" y1="174" y2="174"/></g><!--link OperatingSystem to IDE--><g id="link_OperatingSystem_IDE"><path codeLine="1" d="M77.5,55.22 C77.5,77.67 77.5,105.5 77.5,127.91 " fill="none" id="OperatingSystem-to-IDE" style="stroke:#181818;stroke-width:1.0;stroke-dasharray:7.0,7.0;"/><polygon fill="#181818" points="77.5,133.91,81.5,124.91,77.5,128.91,73.5,124.91,77.5,133.91" style="stroke:#181818;stroke-width:1.0;"/><text fill="#000000" font-family="sans-serif" font-size="13" lengthAdjust="spacing" textLength="67" x="78.5" y="100.8979">depends on</text></g><!--SRC=[yoz8BKeioSnB3wuiBadDLT3JirFmT75Li598IIr8pKifLiZF0m00]--></g></svg>