<?xml version="1.0" encoding="us-ascii" standalone="no"?><svg xmlns="http://www.w3.org/2000/svg" xmlns:xlink="http://www.w3.org/1999/xlink" contentStyleType="text/css" height="316px" preserveAspectRatio="none" style="width:193px;height:316px;background:#FFFFFF;" version="1.1" viewBox="0 0 193 316" width="193px" zoomAndPan="magnify"><defs/><g><!--class SatelliteSignal--><g id="elem_SatelliteSignal"><rect fill="#F1F1F1" height="48" id="SatelliteSignal" rx="2.5" ry="2.5" style="stroke:#181818;stroke-width:0.5;" width="121" x="36" y="134"/><ellipse cx="51" cy="150" fill="#ADD1B2" rx="11" ry="11" style="stroke:#181818;stroke-width:1.0;"/><path d="M50.3438,155.8594 Q48.3594,155.8594 47.1875,154.3906 Q46.0313,152.9063 46.0313,149.8281 Q46.0313,147.2188 47.25,145.4688 Q48.4844,143.7188 50.6094,143.7188 Q51.1094,143.7188 51.6406,143.8594 Q52.0781,144.0469 52.3438,144.0469 Q52.5625,144.0469 52.6563,144 Q52.7656,143.9531 53.2188,143.3594 L53.9844,147.0938 L53.0938,147.3594 Q52.6406,145.9063 52.0313,145.3125 Q51.4375,144.7031 50.4844,144.7031 Q49.2656,144.7031 48.5469,146.1406 Q47.8281,147.5625 47.8281,149.75 Q47.8281,152.1563 48.4375,153.4531 Q49.0625,154.7344 50.4219,154.7344 Q51.375,154.7344 52.0625,154.0469 Q52.75,153.3438 53.0781,151.8438 L53.9844,152.25 Q53.5781,153.9531 52.6094,154.9063 Q51.6563,155.8594 50.3438,155.8594 Z " fill="#000000"/><text fill="#000000" font-family="sans-serif" font-size="14" lengthAdjust="spacing" textLength="89" x="65" y="156.4839">SatelliteSignal</text><line style="stroke:#181818;stroke-width:0.5;" x1="37" x2="156" y1="166" y2="166"/><line style="stroke:#181818;stroke-width:0.5;" x1="37" x2="156" y1="174" y2="174"/></g><!--class CommunicationSatellite--><g id="elem_CommunicationSatellite"><rect fill="#F1F1F1" height="48" id="CommunicationSatellite" rx="2.5" ry="2.5" style="stroke:#181818;stroke-width:0.5;" width="179" x="7" y="261"/><ellipse cx="22" cy="277" fill="#ADD1B2" rx="11" ry="11" style="stroke:#181818;stroke-width:1.0;"/><path d="M21.3438,282.8594 Q19.3594,282.8594 18.1875,281.3906 Q17.0313,279.9063 17.0313,276.8281 Q17.0313,274.2188 18.25,272.4688 Q19.4844,270.7188 21.6094,270.7188 Q22.1094,270.7188 22.6406,270.8594 Q23.0781,271.0469 23.3438,271.0469 Q23.5625,271.0469 23.6563,271 Q23.7656,270.9531 24.2188,270.3594 L24.9844,274.0938 L24.0938,274.3594 Q23.6406,272.9063 23.0313,272.3125 Q22.4375,271.7031 21.4844,271.7031 Q20.2656,271.7031 19.5469,273.1406 Q18.8281,274.5625 18.8281,276.75 Q18.8281,279.1563 19.4375,280.4531 Q20.0625,281.7344 21.4219,281.7344 Q22.375,281.7344 23.0625,281.0469 Q23.75,280.3438 24.0781,278.8438 L24.9844,279.25 Q24.5781,280.9531 23.6094,281.9063 Q22.6563,282.8594 21.3438,282.8594 Z " fill="#000000"/><text fill="#000000" font-family="sans-serif" font-size="14" lengthAdjust="spacing" textLength="147" x="36" y="283.4839">CommunicationSatellite</text><line style="stroke:#181818;stroke-width:0.5;" x1="8" x2="185" y1="293" y2="293"/><line style="stroke:#181818;stroke-width:0.5;" x1="8" x2="185" y1="301" y2="301"/></g><!--class DishAntenna--><g id="elem_DishAntenna"><rect fill="#F1F1F1" height="48" id="DishAntenna" rx="2.5" ry="2.5" style="stroke:#181818;stroke-width:0.5;" width="113" x="40" y="7"/><ellipse cx="55" cy="23" fill="#ADD1B2" rx="11" ry="11" style="stroke:#181818;stroke-width:1.0;"/><path d="M54.3438,28.8594 Q52.3594,28.8594 51.1875,27.3906 Q50.0313,25.9063 50.0313,22.8281 Q50.0313,20.2188 51.25,18.4688 Q52.4844,16.7188 54.6094,16.7188 Q55.1094,16.7188 55.6406,16.8594 Q56.0781,17.0469 56.3438,17.0469 Q56.5625,17.0469 56.6563,17 Q56.7656,16.9531 57.2188,16.3594 L57.9844,20.0938 L57.0938,20.3594 Q56.6406,18.9063 56.0313,18.3125 Q55.4375,17.7031 54.4844,17.7031 Q53.2656,17.7031 52.5469,19.1406 Q51.8281,20.5625 51.8281,22.75 Q51.8281,25.1563 52.4375,26.4531 Q53.0625,27.7344 54.4219,27.7344 Q55.375,27.7344 56.0625,27.0469 Q56.75,26.3438 57.0781,24.8438 L57.9844,25.25 Q57.5781,26.9531 56.6094,27.9063 Q55.6563,28.8594 54.3438,28.8594 Z " fill="#000000"/><text fill="#000000" font-family="sans-serif" font-size="14" lengthAdjust="spacing" textLength="81" x="69" y="29.4839">DishAntenna</text><line style="stroke:#181818;stroke-width:0.5;" x1="41" x2="152" y1="39" y2="39"/><line style="stroke:#181818;stroke-width:0.5;" x1="41" x2="152" y1="47" y2="47"/></g><!--link SatelliteSignal to CommunicationSatellite--><g id="link_SatelliteSignal_CommunicationSatellite"><path codeLine="1" d="M96.5,182.22 C96.5,204.67 96.5,232.5 96.5,254.91 " fill="none" id="SatelliteSignal-to-CommunicationSatellite" style="stroke:#181818;stroke-width:1.0;stroke-dasharray:7.0,7.0;"/><polygon fill="#181818" points="96.5,260.91,100.5,251.91,96.5,255.91,92.5,251.91,96.5,260.91" style="stroke:#181818;stroke-width:1.0;"/><text fill="#000000" font-family="sans-serif" font-size="13" lengthAdjust="spacing" textLength="67" x="97.5" y="227.8979">depends on</text></g><!--link DishAntenna to SatelliteSignal--><g id="link_DishAntenna_SatelliteSignal"><path codeLine="2" d="M96.5,55.22 C96.5,77.67 96.5,105.5 96.5,127.91 " fill="none" id="DishAntenna-to-SatelliteSignal" style="stroke:#181818;stroke-width:1.0;stroke-dasharray:7.0,7.0;"/><polygon fill="#181818" points="96.5,133.91,100.5,124.91,96.5,128.91,92.5,124.91,96.5,133.91" style="stroke:#181818;stroke-width:1.0;"/><text fill="#000000" font-family="sans-serif" font-size="13" lengthAdjust="spacing" textLength="67" x="97.5" y="100.8979">depends on</text></g><!--SRC=[2quiISt9oIn93SvCpqlCKT3JirDmpi_DBStBJ4uioSpF2uOfKB1II4ajICrBALR8p-DooIpESCmhIStBImJh2KOp1ran0000]--></g></svg>