<?xml version="1.0" encoding="us-ascii" standalone="no"?><svg xmlns="http://www.w3.org/2000/svg" xmlns:xlink="http://www.w3.org/1999/xlink" contentStyleType="text/css" height="316px" preserveAspectRatio="none" style="width:155px;height:316px;background:#FFFFFF;" version="1.1" viewBox="0 0 155 316" width="155px" zoomAndPan="magnify"><defs/><g><!--class Austria--><g id="elem_Austria"><rect fill="#F1F1F1" height="48" id="Austria" rx="2.5" ry="2.5" style="stroke:#181818;stroke-width:0.5;" width="76" x="39.5" y="7"/><ellipse cx="54.5" cy="23" fill="#ADD1B2" rx="11" ry="11" style="stroke:#181818;stroke-width:1.0;"/><path d="M53.8438,28.8594 Q51.8594,28.8594 50.6875,27.3906 Q49.5313,25.9063 49.5313,22.8281 Q49.5313,20.2188 50.75,18.4688 Q51.9844,16.7188 54.1094,16.7188 Q54.6094,16.7188 55.1406,16.8594 Q55.5781,17.0469 55.8438,17.0469 Q56.0625,17.0469 56.1563,17 Q56.2656,16.9531 56.7188,16.3594 L57.4844,20.0938 L56.5938,20.3594 Q56.1406,18.9063 55.5313,18.3125 Q54.9375,17.7031 53.9844,17.7031 Q52.7656,17.7031 52.0469,19.1406 Q51.3281,20.5625 51.3281,22.75 Q51.3281,25.1563 51.9375,26.4531 Q52.5625,27.7344 53.9219,27.7344 Q54.875,27.7344 55.5625,27.0469 Q56.25,26.3438 56.5781,24.8438 L57.4844,25.25 Q57.0781,26.9531 56.1094,27.9063 Q55.1563,28.8594 53.8438,28.8594 Z " fill="#000000"/><text fill="#000000" font-family="sans-serif" font-size="14" lengthAdjust="spacing" textLength="44" x="68.5" y="29.4839">Austria</text><line style="stroke:#181818;stroke-width:0.5;" x1="40.5" x2="114.5" y1="39" y2="39"/><line style="stroke:#181818;stroke-width:0.5;" x1="40.5" x2="114.5" y1="47" y2="47"/></g><!--class Country--><g id="elem_Country"><rect fill="#F1F1F1" height="48" id="Country" rx="2.5" ry="2.5" style="stroke:#181818;stroke-width:0.5;" width="82" x="36.5" y="134"/><ellipse cx="51.5" cy="150" fill="#ADD1B2" rx="11" ry="11" style="stroke:#181818;stroke-width:1.0;"/><path d="M50.8438,155.8594 Q48.8594,155.8594 47.6875,154.3906 Q46.5313,152.9063 46.5313,149.8281 Q46.5313,147.2188 47.75,145.4688 Q48.9844,143.7188 51.1094,143.7188 Q51.6094,143.7188 52.1406,143.8594 Q52.5781,144.0469 52.8438,144.0469 Q53.0625,144.0469 53.1563,144 Q53.2656,143.9531 53.7188,143.3594 L54.4844,147.0938 L53.5938,147.3594 Q53.1406,145.9063 52.5313,145.3125 Q51.9375,144.7031 50.9844,144.7031 Q49.7656,144.7031 49.0469,146.1406 Q48.3281,147.5625 48.3281,149.75 Q48.3281,152.1563 48.9375,153.4531 Q49.5625,154.7344 50.9219,154.7344 Q51.875,154.7344 52.5625,154.0469 Q53.25,153.3438 53.5781,151.8438 L54.4844,152.25 Q54.0781,153.9531 53.1094,154.9063 Q52.1563,155.8594 50.8438,155.8594 Z " fill="#000000"/><text fill="#000000" font-family="sans-serif" font-size="14" lengthAdjust="spacing" textLength="50" x="65.5" y="156.4839">Country</text><line style="stroke:#181818;stroke-width:0.5;" x1="37.5" x2="117.5" y1="166" y2="166"/><line style="stroke:#181818;stroke-width:0.5;" x1="37.5" x2="117.5" y1="174" y2="174"/></g><!--class GeopoliticalEntity--><g id="elem_GeopoliticalEntity"><rect fill="#F1F1F1" height="48" id="GeopoliticalEntity" rx="2.5" ry="2.5" style="stroke:#181818;stroke-width:0.5;" width="141" x="7" y="261"/><ellipse cx="22" cy="277" fill="#ADD1B2" rx="11" ry="11" style="stroke:#181818;stroke-width:1.0;"/><path d="M21.3438,282.8594 Q19.3594,282.8594 18.1875,281.3906 Q17.0313,279.9063 17.0313,276.8281 Q17.0313,274.2188 18.25,272.4688 Q19.4844,270.7188 21.6094,270.7188 Q22.1094,270.7188 22.6406,270.8594 Q23.0781,271.0469 23.3438,271.0469 Q23.5625,271.0469 23.6563,271 Q23.7656,270.9531 24.2188,270.3594 L24.9844,274.0938 L24.0938,274.3594 Q23.6406,272.9063 23.0313,272.3125 Q22.4375,271.7031 21.4844,271.7031 Q20.2656,271.7031 19.5469,273.1406 Q18.8281,274.5625 18.8281,276.75 Q18.8281,279.1563 19.4375,280.4531 Q20.0625,281.7344 21.4219,281.7344 Q22.375,281.7344 23.0625,281.0469 Q23.75,280.3438 24.0781,278.8438 L24.9844,279.25 Q24.5781,280.9531 23.6094,281.9063 Q22.6563,282.8594 21.3438,282.8594 Z " fill="#000000"/><text fill="#000000" font-family="sans-serif" font-size="14" lengthAdjust="spacing" textLength="109" x="36" y="283.4839">GeopoliticalEntity</text><line style="stroke:#181818;stroke-width:0.5;" x1="8" x2="147" y1="293" y2="293"/><line style="stroke:#181818;stroke-width:0.5;" x1="8" x2="147" y1="301" y2="301"/></g><!--reverse link Austria to Country--><g id="link_Austria_Country"><path codeLine="1" d="M77.5,73.22 C77.5,95.67 77.5,111.5 77.5,133.91 " fill="none" id="Austria-backto-Country" style="stroke:#181818;stroke-width:1.0;"/><polygon fill="none" points="77.5,55.22,71.5,73.22,83.5,73.22,77.5,55.22" style="stroke:#181818;stroke-width:1.0;"/><text fill="#000000" font-family="sans-serif" font-size="13" lengthAdjust="spacing" textLength="42" x="78.5" y="100.8979">inherits</text></g><!--reverse link Country to GeopoliticalEntity--><g id="link_Country_GeopoliticalEntity"><path codeLine="2" d="M77.5,200.22 C77.5,222.67 77.5,238.5 77.5,260.91 " fill="none" id="Country-backto-GeopoliticalEntity" style="stroke:#181818;stroke-width:1.0;"/><polygon fill="none" points="77.5,182.22,71.5,200.22,83.5,200.22,77.5,182.22" style="stroke:#181818;stroke-width:1.0;"/><text fill="#000000" font-family="sans-serif" font-size="13" lengthAdjust="spacing" textLength="42" x="78.5" y="227.8979">inherits</text></g><!--SRC=[SomjBYdAJ5ImgT7LLN3EByqhAQfKi5B8pCj8BSeiAUQ22O7btLFp2_9pCaioanDpNFDACakGbG80]--></g></svg>