<?xml version="1.0" encoding="us-ascii" standalone="no"?><svg xmlns="http://www.w3.org/2000/svg" xmlns:xlink="http://www.w3.org/1999/xlink" contentStyleType="text/css" height="316px" preserveAspectRatio="none" style="width:156px;height:316px;background:#FFFFFF;" version="1.1" viewBox="0 0 156 316" width="156px" zoomAndPan="magnify"><defs/><g><!--class EquatorialGuinea--><g id="elem_EquatorialGuinea"><rect fill="#F1F1F1" height="48" id="EquatorialGuinea" rx="2.5" ry="2.5" style="stroke:#181818;stroke-width:0.5;" width="142" x="7" y="7"/><ellipse cx="22" cy="23" fill="#ADD1B2" rx="11" ry="11" style="stroke:#181818;stroke-width:1.0;"/><path d="M21.3438,28.8594 Q19.3594,28.8594 18.1875,27.3906 Q17.0313,25.9063 17.0313,22.8281 Q17.0313,20.2188 18.25,18.4688 Q19.4844,16.7188 21.6094,16.7188 Q22.1094,16.7188 22.6406,16.8594 Q23.0781,17.0469 23.3438,17.0469 Q23.5625,17.0469 23.6563,17 Q23.7656,16.9531 24.2188,16.3594 L24.9844,20.0938 L24.0938,20.3594 Q23.6406,18.9063 23.0313,18.3125 Q22.4375,17.7031 21.4844,17.7031 Q20.2656,17.7031 19.5469,19.1406 Q18.8281,20.5625 18.8281,22.75 Q18.8281,25.1563 19.4375,26.4531 Q20.0625,27.7344 21.4219,27.7344 Q22.375,27.7344 23.0625,27.0469 Q23.75,26.3438 24.0781,24.8438 L24.9844,25.25 Q24.5781,26.9531 23.6094,27.9063 Q22.6563,28.8594 21.3438,28.8594 Z " fill="#000000"/><text fill="#000000" font-family="sans-serif" font-size="14" lengthAdjust="spacing" textLength="110" x="36" y="29.4839">EquatorialGuinea</text><line style="stroke:#181818;stroke-width:0.5;" x1="8" x2="148" y1="39" y2="39"/><line style="stroke:#181818;stroke-width:0.5;" x1="8" x2="148" y1="47" y2="47"/></g><!--class Country--><g id="elem_Country"><rect fill="#F1F1F1" height="48" id="Country" rx="2.5" ry="2.5" style="stroke:#181818;stroke-width:0.5;" width="82" x="37" y="134"/><ellipse cx="52" cy="150" fill="#ADD1B2" rx="11" ry="11" style="stroke:#181818;stroke-width:1.0;"/><path d="M51.3438,155.8594 Q49.3594,155.8594 48.1875,154.3906 Q47.0313,152.9063 47.0313,149.8281 Q47.0313,147.2188 48.25,145.4688 Q49.4844,143.7188 51.6094,143.7188 Q52.1094,143.7188 52.6406,143.8594 Q53.0781,144.0469 53.3438,144.0469 Q53.5625,144.0469 53.6563,144 Q53.7656,143.9531 54.2188,143.3594 L54.9844,147.0938 L54.0938,147.3594 Q53.6406,145.9063 53.0313,145.3125 Q52.4375,144.7031 51.4844,144.7031 Q50.2656,144.7031 49.5469,146.1406 Q48.8281,147.5625 48.8281,149.75 Q48.8281,152.1563 49.4375,153.4531 Q50.0625,154.7344 51.4219,154.7344 Q52.375,154.7344 53.0625,154.0469 Q53.75,153.3438 54.0781,151.8438 L54.9844,152.25 Q54.5781,153.9531 53.6094,154.9063 Q52.6563,155.8594 51.3438,155.8594 Z " fill="#000000"/><text fill="#000000" font-family="sans-serif" font-size="14" lengthAdjust="spacing" textLength="50" x="66" y="156.4839">Country</text><line style="stroke:#181818;stroke-width:0.5;" x1="38" x2="118" y1="166" y2="166"/><line style="stroke:#181818;stroke-width:0.5;" x1="38" x2="118" y1="174" y2="174"/></g><!--class GeopoliticalEntity--><g id="elem_GeopoliticalEntity"><rect fill="#F1F1F1" height="48" id="GeopoliticalEntity" rx="2.5" ry="2.5" style="stroke:#181818;stroke-width:0.5;" width="141" x="7.5" y="261"/><ellipse cx="22.5" cy="277" fill="#ADD1B2" rx="11" ry="11" style="stroke:#181818;stroke-width:1.0;"/><path d="M21.8438,282.8594 Q19.8594,282.8594 18.6875,281.3906 Q17.5313,279.9063 17.5313,276.8281 Q17.5313,274.2188 18.75,272.4688 Q19.9844,270.7188 22.1094,270.7188 Q22.6094,270.7188 23.1406,270.8594 Q23.5781,271.0469 23.8438,271.0469 Q24.0625,271.0469 24.1563,271 Q24.2656,270.9531 24.7188,270.3594 L25.4844,274.0938 L24.5938,274.3594 Q24.1406,272.9063 23.5313,272.3125 Q22.9375,271.7031 21.9844,271.7031 Q20.7656,271.7031 20.0469,273.1406 Q19.3281,274.5625 19.3281,276.75 Q19.3281,279.1563 19.9375,280.4531 Q20.5625,281.7344 21.9219,281.7344 Q22.875,281.7344 23.5625,281.0469 Q24.25,280.3438 24.5781,278.8438 L25.4844,279.25 Q25.0781,280.9531 24.1094,281.9063 Q23.1563,282.8594 21.8438,282.8594 Z " fill="#000000"/><text fill="#000000" font-family="sans-serif" font-size="14" lengthAdjust="spacing" textLength="109" x="36.5" y="283.4839">GeopoliticalEntity</text><line style="stroke:#181818;stroke-width:0.5;" x1="8.5" x2="147.5" y1="293" y2="293"/><line style="stroke:#181818;stroke-width:0.5;" x1="8.5" x2="147.5" y1="301" y2="301"/></g><!--reverse link EquatorialGuinea to Country--><g id="link_EquatorialGuinea_Country"><path codeLine="1" d="M78,73.22 C78,95.67 78,111.5 78,133.91 " fill="none" id="EquatorialGuinea-backto-Country" style="stroke:#181818;stroke-width:1.0;"/><polygon fill="none" points="78,55.22,72,73.22,84,73.22,78,55.22" style="stroke:#181818;stroke-width:1.0;"/><text fill="#000000" font-family="sans-serif" font-size="13" lengthAdjust="spacing" textLength="42" x="79" y="100.8979">inherits</text></g><!--reverse link Country to GeopoliticalEntity--><g id="link_Country_GeopoliticalEntity"><path codeLine="2" d="M78,200.22 C78,222.67 78,238.5 78,260.91 " fill="none" id="Country-backto-GeopoliticalEntity" style="stroke:#181818;stroke-width:1.0;"/><polygon fill="none" points="78,182.22,72,200.22,84,200.22,78,182.22" style="stroke:#181818;stroke-width:1.0;"/><text fill="#000000" font-family="sans-serif" font-size="13" lengthAdjust="spacing" textLength="42" x="79" y="227.8979">inherits</text></g><!--SRC=[SoqiJIp9ByfCp74lpSnBJLImgT7LLN3EByqhAQfKi5B8pCj8BSeiAUQ22O7btLFp2_9pCaioanDpNFDACakGbG80]--></g></svg>