<?xml version="1.0" encoding="us-ascii" standalone="no"?><svg xmlns="http://www.w3.org/2000/svg" xmlns:xlink="http://www.w3.org/1999/xlink" contentStyleType="text/css" height="316px" preserveAspectRatio="none" style="width:139px;height:316px;background:#FFFFFF;" version="1.1" viewBox="0 0 139 316" width="139px" zoomAndPan="magnify"><defs/><g><!--class DiveTeam--><g id="elem_DiveTeam"><rect fill="#F1F1F1" height="48" id="DiveTeam" rx="2.5" ry="2.5" style="stroke:#181818;stroke-width:0.5;" width="96" x="18.5" y="134"/><ellipse cx="33.5" cy="150" fill="#ADD1B2" rx="11" ry="11" style="stroke:#181818;stroke-width:1.0;"/><path d="M32.8438,155.8594 Q30.8594,155.8594 29.6875,154.3906 Q28.5313,152.9063 28.5313,149.8281 Q28.5313,147.2188 29.75,145.4688 Q30.9844,143.7188 33.1094,143.7188 Q33.6094,143.7188 34.1406,143.8594 Q34.5781,144.0469 34.8438,144.0469 Q35.0625,144.0469 35.1563,144 Q35.2656,143.9531 35.7188,143.3594 L36.4844,147.0938 L35.5938,147.3594 Q35.1406,145.9063 34.5313,145.3125 Q33.9375,144.7031 32.9844,144.7031 Q31.7656,144.7031 31.0469,146.1406 Q30.3281,147.5625 30.3281,149.75 Q30.3281,152.1563 30.9375,153.4531 Q31.5625,154.7344 32.9219,154.7344 Q33.875,154.7344 34.5625,154.0469 Q35.25,153.3438 35.5781,151.8438 L36.4844,152.25 Q36.0781,153.9531 35.1094,154.9063 Q34.1563,155.8594 32.8438,155.8594 Z " fill="#000000"/><text fill="#000000" font-family="sans-serif" font-size="14" lengthAdjust="spacing" textLength="64" x="47.5" y="156.4839">DiveTeam</text><line style="stroke:#181818;stroke-width:0.5;" x1="19.5" x2="113.5" y1="166" y2="166"/><line style="stroke:#181818;stroke-width:0.5;" x1="19.5" x2="113.5" y1="174" y2="174"/></g><!--class MarineStation--><g id="elem_MarineStation"><rect fill="#F1F1F1" height="48" id="MarineStation" rx="2.5" ry="2.5" style="stroke:#181818;stroke-width:0.5;" width="119" x="7" y="261"/><ellipse cx="22" cy="277" fill="#ADD1B2" rx="11" ry="11" style="stroke:#181818;stroke-width:1.0;"/><path d="M21.3438,282.8594 Q19.3594,282.8594 18.1875,281.3906 Q17.0313,279.9063 17.0313,276.8281 Q17.0313,274.2188 18.25,272.4688 Q19.4844,270.7188 21.6094,270.7188 Q22.1094,270.7188 22.6406,270.8594 Q23.0781,271.0469 23.3438,271.0469 Q23.5625,271.0469 23.6563,271 Q23.7656,270.9531 24.2188,270.3594 L24.9844,274.0938 L24.0938,274.3594 Q23.6406,272.9063 23.0313,272.3125 Q22.4375,271.7031 21.4844,271.7031 Q20.2656,271.7031 19.5469,273.1406 Q18.8281,274.5625 18.8281,276.75 Q18.8281,279.1563 19.4375,280.4531 Q20.0625,281.7344 21.4219,281.7344 Q22.375,281.7344 23.0625,281.0469 Q23.75,280.3438 24.0781,278.8438 L24.9844,279.25 Q24.5781,280.9531 23.6094,281.9063 Q22.6563,282.8594 21.3438,282.8594 Z " fill="#000000"/><text fill="#000000" font-family="sans-serif" font-size="14" lengthAdjust="spacing" textLength="87" x="36" y="283.4839">MarineStation</text><line style="stroke:#181818;stroke-width:0.5;" x1="8" x2="125" y1="293" y2="293"/><line style="stroke:#181818;stroke-width:0.5;" x1="8" x2="125" y1="301" y2="301"/></g><!--class RescueDiver--><g id="elem_RescueDiver"><rect fill="#F1F1F1" height="48" id="RescueDiver" rx="2.5" ry="2.5" style="stroke:#181818;stroke-width:0.5;" width="113" x="10" y="7"/><ellipse cx="25" cy="23" fill="#ADD1B2" rx="11" ry="11" style="stroke:#181818;stroke-width:1.0;"/><path d="M24.3438,28.8594 Q22.3594,28.8594 21.1875,27.3906 Q20.0313,25.9063 20.0313,22.8281 Q20.0313,20.2188 21.25,18.4688 Q22.4844,16.7188 24.6094,16.7188 Q25.1094,16.7188 25.6406,16.8594 Q26.0781,17.0469 26.3438,17.0469 Q26.5625,17.0469 26.6563,17 Q26.7656,16.9531 27.2188,16.3594 L27.9844,20.0938 L27.0938,20.3594 Q26.6406,18.9063 26.0313,18.3125 Q25.4375,17.7031 24.4844,17.7031 Q23.2656,17.7031 22.5469,19.1406 Q21.8281,20.5625 21.8281,22.75 Q21.8281,25.1563 22.4375,26.4531 Q23.0625,27.7344 24.4219,27.7344 Q25.375,27.7344 26.0625,27.0469 Q26.75,26.3438 27.0781,24.8438 L27.9844,25.25 Q27.5781,26.9531 26.6094,27.9063 Q25.6563,28.8594 24.3438,28.8594 Z " fill="#000000"/><text fill="#000000" font-family="sans-serif" font-size="14" lengthAdjust="spacing" textLength="81" x="39" y="29.4839">RescueDiver</text><line style="stroke:#181818;stroke-width:0.5;" x1="11" x2="122" y1="39" y2="39"/><line style="stroke:#181818;stroke-width:0.5;" x1="11" x2="122" y1="47" y2="47"/></g><!--reverse link DiveTeam to MarineStation--><g id="link_DiveTeam_MarineStation"><path codeLine="1" d="M66.5,194.22 C66.5,216.67 66.5,238.5 66.5,260.91 " fill="none" id="DiveTeam-backto-MarineStation" style="stroke:#181818;stroke-width:1.0;"/><polygon fill="none" points="66.5,182.22,62.5,188.22,66.5,194.22,70.5,188.22,66.5,182.22" style="stroke:#181818;stroke-width:1.0;"/><text fill="#000000" font-family="sans-serif" font-size="13" lengthAdjust="spacing" textLength="64" x="67.5" y="227.8979">aggregates</text></g><!--reverse link RescueDiver to DiveTeam--><g id="link_RescueDiver_DiveTeam"><path codeLine="2" d="M66.5,67.22 C66.5,89.67 66.5,111.5 66.5,133.91 " fill="none" id="RescueDiver-backto-DiveTeam" style="stroke:#181818;stroke-width:1.0;"/><polygon fill="none" points="66.5,55.22,62.5,61.22,66.5,67.22,70.5,61.22,66.5,55.22" style="stroke:#181818;stroke-width:1.0;"/><text fill="#000000" font-family="sans-serif" font-size="13" lengthAdjust="spacing" textLength="64" x="67.5" y="100.8979">aggregates</text></g><!--SRC=[SyaiImr9JSnLoDVLLV1DBChCImqkIIp9pCzJi598J4ylIarFB4ajvWfABKukJNK1gYu2AtM1wKDM1G00]--></g></svg>