<?xml version="1.0" encoding="us-ascii" standalone="no"?><svg xmlns="http://www.w3.org/2000/svg" xmlns:xlink="http://www.w3.org/1999/xlink" contentStyleType="text/css" height="316px" preserveAspectRatio="none" style="width:140px;height:316px;background:#FFFFFF;" version="1.1" viewBox="0 0 140 316" width="140px" zoomAndPan="magnify"><defs/><g><!--class FieldTeam--><g id="elem_FieldTeam"><rect fill="#F1F1F1" height="48" id="FieldTeam" rx="2.5" ry="2.5" style="stroke:#181818;stroke-width:0.5;" width="99" x="18" y="134"/><ellipse cx="33" cy="150" fill="#ADD1B2" rx="11" ry="11" style="stroke:#181818;stroke-width:1.0;"/><path d="M32.3438,155.8594 Q30.3594,155.8594 29.1875,154.3906 Q28.0313,152.9063 28.0313,149.8281 Q28.0313,147.2188 29.25,145.4688 Q30.4844,143.7188 32.6094,143.7188 Q33.1094,143.7188 33.6406,143.8594 Q34.0781,144.0469 34.3438,144.0469 Q34.5625,144.0469 34.6563,144 Q34.7656,143.9531 35.2188,143.3594 L35.9844,147.0938 L35.0938,147.3594 Q34.6406,145.9063 34.0313,145.3125 Q33.4375,144.7031 32.4844,144.7031 Q31.2656,144.7031 30.5469,146.1406 Q29.8281,147.5625 29.8281,149.75 Q29.8281,152.1563 30.4375,153.4531 Q31.0625,154.7344 32.4219,154.7344 Q33.375,154.7344 34.0625,154.0469 Q34.75,153.3438 35.0781,151.8438 L35.9844,152.25 Q35.5781,153.9531 34.6094,154.9063 Q33.6563,155.8594 32.3438,155.8594 Z " fill="#000000"/><text fill="#000000" font-family="sans-serif" font-size="14" lengthAdjust="spacing" textLength="67" x="47" y="156.4839">FieldTeam</text><line style="stroke:#181818;stroke-width:0.5;" x1="19" x2="116" y1="166" y2="166"/><line style="stroke:#181818;stroke-width:0.5;" x1="19" x2="116" y1="174" y2="174"/></g><!--class DesertAgency--><g id="elem_DesertAgency"><rect fill="#F1F1F1" height="48" id="DesertAgency" rx="2.5" ry="2.5" style="stroke:#181818;stroke-width:0.5;" width="121" x="7" y="261"/><ellipse cx="22" cy="277" fill="#ADD1B2" rx="11" ry="11" style="stroke:#181818;stroke-width:1.0;"/><path d="M21.3438,282.8594 Q19.3594,282.8594 18.1875,281.3906 Q17.0313,279.9063 17.0313,276.8281 Q17.0313,274.2188 18.25,272.4688 Q19.4844,270.7188 21.6094,270.7188 Q22.1094,270.7188 22.6406,270.8594 Q23.0781,271.0469 23.3438,271.0469 Q23.5625,271.0469 23.6563,271 Q23.7656,270.9531 24.2188,270.3594 L24.9844,274.0938 L24.0938,274.3594 Q23.6406,272.9063 23.0313,272.3125 Q22.4375,271.7031 21.4844,271.7031 Q20.2656,271.7031 19.5469,273.1406 Q18.8281,274.5625 18.8281,276.75 Q18.8281,279.1563 19.4375,280.4531 Q20.0625,281.7344 21.4219,281.7344 Q22.375,281.7344 23.0625,281.0469 Q23.75,280.3438 24.0781,278.8438 L24.9844,279.25 Q24.5781,280.9531 23.6094,281.9063 Q22.6563,282.8594 21.3438,282.8594 Z " fill="#000000"/><text fill="#000000" font-family="sans-serif" font-size="14" lengthAdjust="spacing" textLength="89" x="36" y="283.4839">DesertAgency</text><line style="stroke:#181818;stroke-width:0.5;" x1="8" x2="127" y1="293" y2="293"/><line style="stroke:#181818;stroke-width:0.5;" x1="8" x2="127" y1="301" y2="301"/></g><!--class FieldEngineer--><g id="elem_FieldEngineer"><rect fill="#F1F1F1" height="48" id="FieldEngineer" rx="2.5" ry="2.5" style="stroke:#181818;stroke-width:0.5;" width="120" x="7.5" y="7"/><ellipse cx="22.5" cy="23" fill="#ADD1B2" rx="11" ry="11" style="stroke:#181818;stroke-width:1.0;"/><path d="M21.8438,28.8594 Q19.8594,28.8594 18.6875,27.3906 Q17.5313,25.9063 17.5313,22.8281 Q17.5313,20.2188 18.75,18.4688 Q19.9844,16.7188 22.1094,16.7188 Q22.6094,16.7188 23.1406,16.8594 Q23.5781,17.0469 23.8438,17.0469 Q24.0625,17.0469 24.1563,17 Q24.2656,16.9531 24.7188,16.3594 L25.4844,20.0938 L24.5938,20.3594 Q24.1406,18.9063 23.5313,18.3125 Q22.9375,17.7031 21.9844,17.7031 Q20.7656,17.7031 20.0469,19.1406 Q19.3281,20.5625 19.3281,22.75 Q19.3281,25.1563 19.9375,26.4531 Q20.5625,27.7344 21.9219,27.7344 Q22.875,27.7344 23.5625,27.0469 Q24.25,26.3438 24.5781,24.8438 L25.4844,25.25 Q25.0781,26.9531 24.1094,27.9063 Q23.1563,28.8594 21.8438,28.8594 Z " fill="#000000"/><text fill="#000000" font-family="sans-serif" font-size="14" lengthAdjust="spacing" textLength="88" x="36.5" y="29.4839">FieldEngineer</text><line style="stroke:#181818;stroke-width:0.5;" x1="8.5" x2="126.5" y1="39" y2="39"/><line style="stroke:#181818;stroke-width:0.5;" x1="8.5" x2="126.5" y1="47" y2="47"/></g><!--reverse link FieldTeam to DesertAgency--><g id="link_FieldTeam_DesertAgency"><path codeLine="1" d="M67.5,194.22 C67.5,216.67 67.5,238.5 67.5,260.91 " fill="none" id="FieldTeam-backto-DesertAgency" style="stroke:#181818;stroke-width:1.0;"/><polygon fill="none" points="67.5,182.22,63.5,188.22,67.5,194.22,71.5,188.22,67.5,182.22" style="stroke:#181818;stroke-width:1.0;"/><text fill="#000000" font-family="sans-serif" font-size="13" lengthAdjust="spacing" textLength="64" x="68.5" y="227.8979">aggregates</text></g><!--reverse link FieldEngineer to FieldTeam--><g id="link_FieldEngineer_FieldTeam"><path codeLine="2" d="M67.5,67.22 C67.5,89.67 67.5,111.5 67.5,133.91 " fill="none" id="FieldEngineer-backto-FieldTeam" style="stroke:#181818;stroke-width:1.0;"/><polygon fill="none" points="67.5,55.22,63.5,61.22,67.5,67.22,71.5,61.22,67.5,55.22" style="stroke:#181818;stroke-width:1.0;"/><text fill="#000000" font-family="sans-serif" font-size="13" lengthAdjust="spacing" textLength="64" x="68.5" y="100.8979">aggregates</text></g><!--SRC=[SyjCpKa9IKtCLSZNrLLmIIrEBIfnJ4_DIwvKi598J4ylIarFB4ajvd83gNFDIy_CIqqj0gjrW-j4LWW0]--></g></svg>