<?xml version="1.0" encoding="us-ascii" standalone="no"?><svg xmlns="http://www.w3.org/2000/svg" xmlns:xlink="http://www.w3.org/1999/xlink" contentStyleType="text/css" height="316px" preserveAspectRatio="none" style="width:223px;height:316px;background:#FFFFFF;" version="1.1" viewBox="0 0 223 316" width="223px" zoomAndPan="magnify"><defs/><g><!--class TrainingTeam--><g id="elem_TrainingTeam"><rect fill="#F1F1F1" height="48" id="TrainingTeam" rx="2.5" ry="2.5" style="stroke:#181818;stroke-width:0.5;" width="120" x="51.5" y="134"/><ellipse cx="66.5" cy="150" fill="#ADD1B2" rx="11" ry="11" style="stroke:#181818;stroke-width:1.0;"/><path d="M65.8438,155.8594 Q63.8594,155.8594 62.6875,154.3906 Q61.5313,152.9063 61.5313,149.8281 Q61.5313,147.2188 62.75,145.4688 Q63.9844,143.7188 66.1094,143.7188 Q66.6094,143.7188 67.1406,143.8594 Q67.5781,144.0469 67.8438,144.0469 Q68.0625,144.0469 68.1563,144 Q68.2656,143.9531 68.7188,143.3594 L69.4844,147.0938 L68.5938,147.3594 Q68.1406,145.9063 67.5313,145.3125 Q66.9375,144.7031 65.9844,144.7031 Q64.7656,144.7031 64.0469,146.1406 Q63.3281,147.5625 63.3281,149.75 Q63.3281,152.1563 63.9375,153.4531 Q64.5625,154.7344 65.9219,154.7344 Q66.875,154.7344 67.5625,154.0469 Q68.25,153.3438 68.5781,151.8438 L69.4844,152.25 Q69.0781,153.9531 68.1094,154.9063 Q67.1563,155.8594 65.8438,155.8594 Z " fill="#000000"/><text fill="#000000" font-family="sans-serif" font-size="14" lengthAdjust="spacing" textLength="88" x="80.5" y="156.4839">TrainingTeam</text><line style="stroke:#181818;stroke-width:0.5;" x1="52.5" x2="170.5" y1="166" y2="166"/><line style="stroke:#181818;stroke-width:0.5;" x1="52.5" x2="170.5" y1="174" y2="174"/></g><!--class HumanitarianMusicAcademy--><g id="elem_HumanitarianMusicAcademy"><rect fill="#F1F1F1" height="48" id="HumanitarianMusicAcademy" rx="2.5" ry="2.5" style="stroke:#181818;stroke-width:0.5;" width="209" x="7" y="261"/><ellipse cx="22" cy="277" fill="#ADD1B2" rx="11" ry="11" style="stroke:#181818;stroke-width:1.0;"/><path d="M21.3438,282.8594 Q19.3594,282.8594 18.1875,281.3906 Q17.0313,279.9063 17.0313,276.8281 Q17.0313,274.2188 18.25,272.4688 Q19.4844,270.7188 21.6094,270.7188 Q22.1094,270.7188 22.6406,270.8594 Q23.0781,271.0469 23.3438,271.0469 Q23.5625,271.0469 23.6563,271 Q23.7656,270.9531 24.2188,270.3594 L24.9844,274.0938 L24.0938,274.3594 Q23.6406,272.9063 23.0313,272.3125 Q22.4375,271.7031 21.4844,271.7031 Q20.2656,271.7031 19.5469,273.1406 Q18.8281,274.5625 18.8281,276.75 Q18.8281,279.1563 19.4375,280.4531 Q20.0625,281.7344 21.4219,281.7344 Q22.375,281.7344 23.0625,281.0469 Q23.75,280.3438 24.0781,278.8438 L24.9844,279.25 Q24.5781,280.9531 23.6094,281.9063 Q22.6563,282.8594 21.3438,282.8594 Z " fill="#000000"/><text fill="#000000" font-family="sans-serif" font-size="14" lengthAdjust="spacing" textLength="177" x="36" y="283.4839">HumanitarianMusicAcademy</text><line style="stroke:#181818;stroke-width:0.5;" x1="8" x2="215" y1="293" y2="293"/><line style="stroke:#181818;stroke-width:0.5;" x1="8" x2="215" y1="301" y2="301"/></g><!--class Professor--><g id="elem_Professor"><rect fill="#F1F1F1" height="48" id="Professor" rx="2.5" ry="2.5" style="stroke:#181818;stroke-width:0.5;" width="93" x="65" y="7"/><ellipse cx="80" cy="23" fill="#ADD1B2" rx="11" ry="11" style="stroke:#181818;stroke-width:1.0;"/><path d="M79.3438,28.8594 Q77.3594,28.8594 76.1875,27.3906 Q75.0313,25.9063 75.0313,22.8281 Q75.0313,20.2188 76.25,18.4688 Q77.4844,16.7188 79.6094,16.7188 Q80.1094,16.7188 80.6406,16.8594 Q81.0781,17.0469 81.3438,17.0469 Q81.5625,17.0469 81.6563,17 Q81.7656,16.9531 82.2188,16.3594 L82.9844,20.0938 L82.0938,20.3594 Q81.6406,18.9063 81.0313,18.3125 Q80.4375,17.7031 79.4844,17.7031 Q78.2656,17.7031 77.5469,19.1406 Q76.8281,20.5625 76.8281,22.75 Q76.8281,25.1563 77.4375,26.4531 Q78.0625,27.7344 79.4219,27.7344 Q80.375,27.7344 81.0625,27.0469 Q81.75,26.3438 82.0781,24.8438 L82.9844,25.25 Q82.5781,26.9531 81.6094,27.9063 Q80.6563,28.8594 79.3438,28.8594 Z " fill="#000000"/><text fill="#000000" font-family="sans-serif" font-size="14" lengthAdjust="spacing" textLength="61" x="94" y="29.4839">Professor</text><line style="stroke:#181818;stroke-width:0.5;" x1="66" x2="157" y1="39" y2="39"/><line style="stroke:#181818;stroke-width:0.5;" x1="66" x2="157" y1="47" y2="47"/></g><!--reverse link TrainingTeam to HumanitarianMusicAcademy--><g id="link_TrainingTeam_HumanitarianMusicAcademy"><path codeLine="1" d="M111.5,194.22 C111.5,216.67 111.5,238.5 111.5,260.91 " fill="none" id="TrainingTeam-backto-HumanitarianMusicAcademy" style="stroke:#181818;stroke-width:1.0;"/><polygon fill="none" points="111.5,182.22,107.5,188.22,111.5,194.22,115.5,188.22,111.5,182.22" style="stroke:#181818;stroke-width:1.0;"/><text fill="#000000" font-family="sans-serif" font-size="13" lengthAdjust="spacing" textLength="64" x="112.5" y="227.8979">aggregates</text></g><!--reverse link Professor to TrainingTeam--><g id="link_Professor_TrainingTeam"><path codeLine="2" d="M111.5,67.22 C111.5,89.67 111.5,111.5 111.5,133.91 " fill="none" id="Professor-backto-TrainingTeam" style="stroke:#181818;stroke-width:1.0;"/><polygon fill="none" points="111.5,55.22,107.5,61.22,111.5,67.22,115.5,61.22,111.5,55.22" style="stroke:#181818;stroke-width:1.0;"/><text fill="#000000" font-family="sans-serif" font-size="13" lengthAdjust="spacing" textLength="64" x="112.5" y="100.8979">aggregates</text></g><!--SRC=[2obApCpBp4iFIKtCLSZNrLNmACrDpCiiIIpAJCppBItEJ7PCJan9pQrKi598J4ylIarFB4ajvWeeoazBBIxEBmBh2K4s15aT0000]--></g></svg>