<?xml version="1.0" encoding="us-ascii" standalone="no"?><svg xmlns="http://www.w3.org/2000/svg" xmlns:xlink="http://www.w3.org/1999/xlink" contentStyleType="text/css" height="316px" preserveAspectRatio="none" style="width:247px;height:316px;background:#FFFFFF;" version="1.1" viewBox="0 0 247 316" width="247px" zoomAndPan="magnify"><defs/><g><!--class LegalAidTeam--><g id="elem_LegalAidTeam"><rect fill="#F1F1F1" height="48" id="LegalAidTeam" rx="2.5" ry="2.5" style="stroke:#181818;stroke-width:0.5;" width="123" x="62" y="134"/><ellipse cx="77" cy="150" fill="#ADD1B2" rx="11" ry="11" style="stroke:#181818;stroke-width:1.0;"/><path d="M76.3438,155.8594 Q74.3594,155.8594 73.1875,154.3906 Q72.0313,152.9063 72.0313,149.8281 Q72.0313,147.2188 73.25,145.4688 Q74.4844,143.7188 76.6094,143.7188 Q77.1094,143.7188 77.6406,143.8594 Q78.0781,144.0469 78.3438,144.0469 Q78.5625,144.0469 78.6563,144 Q78.7656,143.9531 79.2188,143.3594 L79.9844,147.0938 L79.0938,147.3594 Q78.6406,145.9063 78.0313,145.3125 Q77.4375,144.7031 76.4844,144.7031 Q75.2656,144.7031 74.5469,146.1406 Q73.8281,147.5625 73.8281,149.75 Q73.8281,152.1563 74.4375,153.4531 Q75.0625,154.7344 76.4219,154.7344 Q77.375,154.7344 78.0625,154.0469 Q78.75,153.3438 79.0781,151.8438 L79.9844,152.25 Q79.5781,153.9531 78.6094,154.9063 Q77.6563,155.8594 76.3438,155.8594 Z " fill="#000000"/><text fill="#000000" font-family="sans-serif" font-size="14" lengthAdjust="spacing" textLength="91" x="91" y="156.4839">LegalAidTeam</text><line style="stroke:#181818;stroke-width:0.5;" x1="63" x2="184" y1="166" y2="166"/><line style="stroke:#181818;stroke-width:0.5;" x1="63" x2="184" y1="174" y2="174"/></g><!--class ResearchConstructionCompany--><g id="elem_ResearchConstructionCompany"><rect fill="#F1F1F1" height="48" id="ResearchConstructionCompany" rx="2.5" ry="2.5" style="stroke:#181818;stroke-width:0.5;" width="233" x="7" y="261"/><ellipse cx="22" cy="277" fill="#ADD1B2" rx="11" ry="11" style="stroke:#181818;stroke-width:1.0;"/><path d="M21.3438,282.8594 Q19.3594,282.8594 18.1875,281.3906 Q17.0313,279.9063 17.0313,276.8281 Q17.0313,274.2188 18.25,272.4688 Q19.4844,270.7188 21.6094,270.7188 Q22.1094,270.7188 22.6406,270.8594 Q23.0781,271.0469 23.3438,271.0469 Q23.5625,271.0469 23.6563,271 Q23.7656,270.9531 24.2188,270.3594 L24.9844,274.0938 L24.0938,274.3594 Q23.6406,272.9063 23.0313,272.3125 Q22.4375,271.7031 21.4844,271.7031 Q20.2656,271.7031 19.5469,273.1406 Q18.8281,274.5625 18.8281,276.75 Q18.8281,279.1563 19.4375,280.4531 Q20.0625,281.7344 21.4219,281.7344 Q22.375,281.7344 23.0625,281.0469 Q23.75,280.3438 24.0781,278.8438 L24.9844,279.25 Q24.5781,280.9531 23.6094,281.9063 Q22.6563,282.8594 21.3438,282.8594 Z " fill="#000000"/><text fill="#000000" font-family="sans-serif" font-size="14" lengthAdjust="spacing" textLength="201" x="36" y="283.4839">ResearchConstructionCompany</text><line style="stroke:#181818;stroke-width:0.5;" x1="8" x2="239" y1="293" y2="293"/><line style="stroke:#181818;stroke-width:0.5;" x1="8" x2="239" y1="301" y2="301"/></g><!--class PeerReviewer--><g id="elem_PeerReviewer"><rect fill="#F1F1F1" height="48" id="PeerReviewer" rx="2.5" ry="2.5" style="stroke:#181818;stroke-width:0.5;" width="120" x="63.5" y="7"/><ellipse cx="78.5" cy="23" fill="#ADD1B2" rx="11" ry="11" style="stroke:#181818;stroke-width:1.0;"/><path d="M77.8438,28.8594 Q75.8594,28.8594 74.6875,27.3906 Q73.5313,25.9063 73.5313,22.8281 Q73.5313,20.2188 74.75,18.4688 Q75.9844,16.7188 78.1094,16.7188 Q78.6094,16.7188 79.1406,16.8594 Q79.5781,17.0469 79.8438,17.0469 Q80.0625,17.0469 80.1563,17 Q80.2656,16.9531 80.7188,16.3594 L81.4844,20.0938 L80.5938,20.3594 Q80.1406,18.9063 79.5313,18.3125 Q78.9375,17.7031 77.9844,17.7031 Q76.7656,17.7031 76.0469,19.1406 Q75.3281,20.5625 75.3281,22.75 Q75.3281,25.1563 75.9375,26.4531 Q76.5625,27.7344 77.9219,27.7344 Q78.875,27.7344 79.5625,27.0469 Q80.25,26.3438 80.5781,24.8438 L81.4844,25.25 Q81.0781,26.9531 80.1094,27.9063 Q79.1563,28.8594 77.8438,28.8594 Z " fill="#000000"/><text fill="#000000" font-family="sans-serif" font-size="14" lengthAdjust="spacing" textLength="88" x="92.5" y="29.4839">PeerReviewer</text><line style="stroke:#181818;stroke-width:0.5;" x1="64.5" x2="182.5" y1="39" y2="39"/><line style="stroke:#181818;stroke-width:0.5;" x1="64.5" x2="182.5" y1="47" y2="47"/></g><!--reverse link LegalAidTeam to ResearchConstructionCompany--><g id="link_LegalAidTeam_ResearchConstructionCompany"><path codeLine="1" d="M123.5,194.22 C123.5,216.67 123.5,238.5 123.5,260.91 " fill="none" id="LegalAidTeam-backto-ResearchConstructionCompany" style="stroke:#181818;stroke-width:1.0;"/><polygon fill="none" points="123.5,182.22,119.5,188.22,123.5,194.22,127.5,188.22,123.5,182.22" style="stroke:#181818;stroke-width:1.0;"/><text fill="#000000" font-family="sans-serif" font-size="13" lengthAdjust="spacing" textLength="64" x="124.5" y="227.8979">aggregates</text></g><!--reverse link PeerReviewer to LegalAidTeam--><g id="link_PeerReviewer_LegalAidTeam"><path codeLine="2" d="M123.5,67.22 C123.5,89.67 123.5,111.5 123.5,133.91 " fill="none" id="PeerReviewer-backto-LegalAidTeam" style="stroke:#181818;stroke-width:1.0;"/><polygon fill="none" points="123.5,55.22,119.5,61.22,123.5,67.22,127.5,61.22,123.5,55.22" style="stroke:#181818;stroke-width:1.0;"/><text fill="#000000" font-family="sans-serif" font-size="13" lengthAdjust="spacing" textLength="64" x="124.5" y="100.8979">aggregates</text></g><!--SRC=[yqbDJynnp4m9IKtCLSZNrLK8IYrEJInApd3EpoikAIfDBidCptFEpor8pAjKi598J4yl0keeIItc2aXDBGfABSjCBKyj0klqGJOAMIa0]--></g></svg>