<?xml version="1.0" encoding="us-ascii" standalone="no"?><svg xmlns="http://www.w3.org/2000/svg" xmlns:xlink="http://www.w3.org/1999/xlink" contentStyleType="text/css" height="316px" preserveAspectRatio="none" style="width:232px;height:316px;background:#FFFFFF;" version="1.1" viewBox="0 0 232 316" width="232px" zoomAndPan="magnify"><defs/><g><!--class PatrolTeam--><g id="elem_PatrolTeam"><rect fill="#F1F1F1" height="48" id="PatrolTeam" rx="2.5" ry="2.5" style="stroke:#181818;stroke-width:0.5;" width="105" x="63.5" y="134"/><ellipse cx="78.5" cy="150" fill="#ADD1B2" rx="11" ry="11" style="stroke:#181818;stroke-width:1.0;"/><path d="M77.8438,155.8594 Q75.8594,155.8594 74.6875,154.3906 Q73.5313,152.9063 73.5313,149.8281 Q73.5313,147.2188 74.75,145.4688 Q75.9844,143.7188 78.1094,143.7188 Q78.6094,143.7188 79.1406,143.8594 Q79.5781,144.0469 79.8438,144.0469 Q80.0625,144.0469 80.1563,144 Q80.2656,143.9531 80.7188,143.3594 L81.4844,147.0938 L80.5938,147.3594 Q80.1406,145.9063 79.5313,145.3125 Q78.9375,144.7031 77.9844,144.7031 Q76.7656,144.7031 76.0469,146.1406 Q75.3281,147.5625 75.3281,149.75 Q75.3281,152.1563 75.9375,153.4531 Q76.5625,154.7344 77.9219,154.7344 Q78.875,154.7344 79.5625,154.0469 Q80.25,153.3438 80.5781,151.8438 L81.4844,152.25 Q81.0781,153.9531 80.1094,154.9063 Q79.1563,155.8594 77.8438,155.8594 Z " fill="#000000"/><text fill="#000000" font-family="sans-serif" font-size="14" lengthAdjust="spacing" textLength="73" x="92.5" y="156.4839">PatrolTeam</text><line style="stroke:#181818;stroke-width:0.5;" x1="64.5" x2="167.5" y1="166" y2="166"/><line style="stroke:#181818;stroke-width:0.5;" x1="64.5" x2="167.5" y1="174" y2="174"/></g><!--class ClinicalChamberOfCommerce--><g id="elem_ClinicalChamberOfCommerce"><rect fill="#F1F1F1" height="48" id="ClinicalChamberOfCommerce" rx="2.5" ry="2.5" style="stroke:#181818;stroke-width:0.5;" width="218" x="7" y="261"/><ellipse cx="22" cy="277" fill="#ADD1B2" rx="11" ry="11" style="stroke:#181818;stroke-width:1.0;"/><path d="M21.3438,282.8594 Q19.3594,282.8594 18.1875,281.3906 Q17.0313,279.9063 17.0313,276.8281 Q17.0313,274.2188 18.25,272.4688 Q19.4844,270.7188 21.6094,270.7188 Q22.1094,270.7188 22.6406,270.8594 Q23.0781,271.0469 23.3438,271.0469 Q23.5625,271.0469 23.6563,271 Q23.7656,270.9531 24.2188,270.3594 L24.9844,274.0938 L24.0938,274.3594 Q23.6406,272.9063 23.0313,272.3125 Q22.4375,271.7031 21.4844,271.7031 Q20.2656,271.7031 19.5469,273.1406 Q18.8281,274.5625 18.8281,276.75 Q18.8281,279.1563 19.4375,280.4531 Q20.0625,281.7344 21.4219,281.7344 Q22.375,281.7344 23.0625,281.0469 Q23.75,280.3438 24.0781,278.8438 L24.9844,279.25 Q24.5781,280.9531 23.6094,281.9063 Q22.6563,282.8594 21.3438,282.8594 Z " fill="#000000"/><text fill="#000000" font-family="sans-serif" font-size="14" lengthAdjust="spacing" textLength="186" x="36" y="283.4839">ClinicalChamberOfCommerce</text><line style="stroke:#181818;stroke-width:0.5;" x1="8" x2="224" y1="293" y2="293"/><line style="stroke:#181818;stroke-width:0.5;" x1="8" x2="224" y1="301" y2="301"/></g><!--class PoliceOfficer--><g id="elem_PoliceOfficer"><rect fill="#F1F1F1" height="48" id="PoliceOfficer" rx="2.5" ry="2.5" style="stroke:#181818;stroke-width:0.5;" width="112" x="60" y="7"/><ellipse cx="75" cy="23" fill="#ADD1B2" rx="11" ry="11" style="stroke:#181818;stroke-width:1.0;"/><path d="M74.3438,28.8594 Q72.3594,28.8594 71.1875,27.3906 Q70.0313,25.9063 70.0313,22.8281 Q70.0313,20.2188 71.25,18.4688 Q72.4844,16.7188 74.6094,16.7188 Q75.1094,16.7188 75.6406,16.8594 Q76.0781,17.0469 76.3438,17.0469 Q76.5625,17.0469 76.6563,17 Q76.7656,16.9531 77.2188,16.3594 L77.9844,20.0938 L77.0938,20.3594 Q76.6406,18.9063 76.0313,18.3125 Q75.4375,17.7031 74.4844,17.7031 Q73.2656,17.7031 72.5469,19.1406 Q71.8281,20.5625 71.8281,22.75 Q71.8281,25.1563 72.4375,26.4531 Q73.0625,27.7344 74.4219,27.7344 Q75.375,27.7344 76.0625,27.0469 Q76.75,26.3438 77.0781,24.8438 L77.9844,25.25 Q77.5781,26.9531 76.6094,27.9063 Q75.6563,28.8594 74.3438,28.8594 Z " fill="#000000"/><text fill="#000000" font-family="sans-serif" font-size="14" lengthAdjust="spacing" textLength="80" x="89" y="29.4839">PoliceOfficer</text><line style="stroke:#181818;stroke-width:0.5;" x1="61" x2="171" y1="39" y2="39"/><line style="stroke:#181818;stroke-width:0.5;" x1="61" x2="171" y1="47" y2="47"/></g><!--reverse link PatrolTeam to ClinicalChamberOfCommerce--><g id="link_PatrolTeam_ClinicalChamberOfCommerce"><path codeLine="1" d="M116,194.22 C116,216.67 116,238.5 116,260.91 " fill="none" id="PatrolTeam-backto-ClinicalChamberOfCommerce" style="stroke:#181818;stroke-width:1.0;"/><polygon fill="none" points="116,182.22,112,188.22,116,194.22,120,188.22,116,182.22" style="stroke:#181818;stroke-width:1.0;"/><text fill="#000000" font-family="sans-serif" font-size="13" lengthAdjust="spacing" textLength="64" x="117" y="227.8979">aggregates</text></g><!--reverse link PoliceOfficer to PatrolTeam--><g id="link_PoliceOfficer_PatrolTeam"><path codeLine="2" d="M116,67.22 C116,89.67 116,111.5 116,133.91 " fill="none" id="PoliceOfficer-backto-PatrolTeam" style="stroke:#181818;stroke-width:1.0;"/><polygon fill="none" points="116,55.22,112,61.22,116,67.22,120,61.22,116,55.22" style="stroke:#181818;stroke-width:1.0;"/><text fill="#000000" font-family="sans-serif" font-size="13" lengthAdjust="spacing" textLength="64" x="117" y="100.8979">aggregates</text></g><!--SRC=[2qWiAShF2KbDp5N8rzLLSCx9pCjCJinnpaZCJKejyazppi_DJIrAJbMmKaXCJozAJKyiIItc2iZFoKnEzKzB0v95O8q127EGLG80]--></g></svg>