<?xml version="1.0" encoding="us-ascii" standalone="no"?><svg xmlns="http://www.w3.org/2000/svg" xmlns:xlink="http://www.w3.org/1999/xlink" contentStyleType="text/css" height="316px" preserveAspectRatio="none" style="width:222px;height:316px;background:#FFFFFF;" version="1.1" viewBox="0 0 222 316" width="222px" zoomAndPan="magnify"><defs/><g><!--class OutreachTeam--><g id="elem_OutreachTeam"><rect fill="#F1F1F1" height="48" id="OutreachTeam" rx="2.5" ry="2.5" style="stroke:#181818;stroke-width:0.5;" width="127" x="47.5" y="134"/><ellipse cx="62.5" cy="150" fill="#ADD1B2" rx="11" ry="11" style="stroke:#181818;stroke-width:1.0;"/><path d="M61.8438,155.8594 Q59.8594,155.8594 58.6875,154.3906 Q57.5313,152.9063 57.5313,149.8281 Q57.5313,147.2188 58.75,145.4688 Q59.9844,143.7188 62.1094,143.7188 Q62.6094,143.7188 63.1406,143.8594 Q63.5781,144.0469 63.8438,144.0469 Q64.0625,144.0469 64.1563,144 Q64.2656,143.9531 64.7188,143.3594 L65.4844,147.0938 L64.5938,147.3594 Q64.1406,145.9063 63.5313,145.3125 Q62.9375,144.7031 61.9844,144.7031 Q60.7656,144.7031 60.0469,146.1406 Q59.3281,147.5625 59.3281,149.75 Q59.3281,152.1563 59.9375,153.4531 Q60.5625,154.7344 61.9219,154.7344 Q62.875,154.7344 63.5625,154.0469 Q64.25,153.3438 64.5781,151.8438 L65.4844,152.25 Q65.0781,153.9531 64.1094,154.9063 Q63.1563,155.8594 61.8438,155.8594 Z " fill="#000000"/><text fill="#000000" font-family="sans-serif" font-size="14" lengthAdjust="spacing" textLength="95" x="76.5" y="156.4839">OutreachTeam</text><line style="stroke:#181818;stroke-width:0.5;" x1="48.5" x2="173.5" y1="166" y2="166"/><line style="stroke:#181818;stroke-width:0.5;" x1="48.5" x2="173.5" y1="174" y2="174"/></g><!--class HumanitarianHospitalCenter--><g id="elem_HumanitarianHospitalCenter"><rect fill="#F1F1F1" height="48" id="HumanitarianHospitalCenter" rx="2.5" ry="2.5" style="stroke:#181818;stroke-width:0.5;" width="208" x="7" y="261"/><ellipse cx="22" cy="277" fill="#ADD1B2" rx="11" ry="11" style="stroke:#181818;stroke-width:1.0;"/><path d="M21.3438,282.8594 Q19.3594,282.8594 18.1875,281.3906 Q17.0313,279.9063 17.0313,276.8281 Q17.0313,274.2188 18.25,272.4688 Q19.4844,270.7188 21.6094,270.7188 Q22.1094,270.7188 22.6406,270.8594 Q23.0781,271.0469 23.3438,271.0469 Q23.5625,271.0469 23.6563,271 Q23.7656,270.9531 24.2188,270.3594 L24.9844,274.0938 L24.0938,274.3594 Q23.6406,272.9063 23.0313,272.3125 Q22.4375,271.7031 21.4844,271.7031 Q20.2656,271.7031 19.5469,273.1406 Q18.8281,274.5625 18.8281,276.75 Q18.8281,279.1563 19.4375,280.4531 Q20.0625,281.7344 21.4219,281.7344 Q22.375,281.7344 23.0625,281.0469 Q23.75,280.3438 24.0781,278.8438 L24.9844,279.25 Q24.5781,280.9531 23.6094,281.9063 Q22.6563,282.8594 21.3438,282.8594 Z " fill="#000000"/><text fill="#000000" font-family="sans-serif" font-size="14" lengthAdjust="spacing" textLength="176" x="36" y="283.4839">HumanitarianHospitalCenter</text><line style="stroke:#181818;stroke-width:0.5;" x1="8" x2="214" y1="293" y2="293"/><line style="stroke:#181818;stroke-width:0.5;" x1="8" x2="214" y1="301" y2="301"/></g><!--class Volunteer--><g id="elem_Volunteer"><rect fill="#F1F1F1" height="48" id="Volunteer" rx="2.5" ry="2.5" style="stroke:#181818;stroke-width:0.5;" width="93" x="64.5" y="7"/><ellipse cx="79.5" cy="23" fill="#ADD1B2" rx="11" ry="11" style="stroke:#181818;stroke-width:1.0;"/><path d="M78.8438,28.8594 Q76.8594,28.8594 75.6875,27.3906 Q74.5313,25.9063 74.5313,22.8281 Q74.5313,20.2188 75.75,18.4688 Q76.9844,16.7188 79.1094,16.7188 Q79.6094,16.7188 80.1406,16.8594 Q80.5781,17.0469 80.8438,17.0469 Q81.0625,17.0469 81.1563,17 Q81.2656,16.9531 81.7188,16.3594 L82.4844,20.0938 L81.5938,20.3594 Q81.1406,18.9063 80.5313,18.3125 Q79.9375,17.7031 78.9844,17.7031 Q77.7656,17.7031 77.0469,19.1406 Q76.3281,20.5625 76.3281,22.75 Q76.3281,25.1563 76.9375,26.4531 Q77.5625,27.7344 78.9219,27.7344 Q79.875,27.7344 80.5625,27.0469 Q81.25,26.3438 81.5781,24.8438 L82.4844,25.25 Q82.0781,26.9531 81.1094,27.9063 Q80.1563,28.8594 78.8438,28.8594 Z " fill="#000000"/><text fill="#000000" font-family="sans-serif" font-size="14" lengthAdjust="spacing" textLength="61" x="93.5" y="29.4839">Volunteer</text><line style="stroke:#181818;stroke-width:0.5;" x1="65.5" x2="156.5" y1="39" y2="39"/><line style="stroke:#181818;stroke-width:0.5;" x1="65.5" x2="156.5" y1="47" y2="47"/></g><!--reverse link OutreachTeam to HumanitarianHospitalCenter--><g id="link_OutreachTeam_HumanitarianHospitalCenter"><path codeLine="1" d="M111,194.22 C111,216.67 111,238.5 111,260.91 " fill="none" id="OutreachTeam-backto-HumanitarianHospitalCenter" style="stroke:#181818;stroke-width:1.0;"/><polygon fill="none" points="111,182.22,107,188.22,111,194.22,115,188.22,111,182.22" style="stroke:#181818;stroke-width:1.0;"/><text fill="#000000" font-family="sans-serif" font-size="13" lengthAdjust="spacing" textLength="64" x="112" y="227.8979">aggregates</text></g><!--reverse link Volunteer to OutreachTeam--><g id="link_Volunteer_OutreachTeam"><path codeLine="2" d="M111,67.22 C111,89.67 111,111.5 111,133.91 " fill="none" id="Volunteer-backto-OutreachTeam" style="stroke:#181818;stroke-width:1.0;"/><polygon fill="none" points="111,55.22,107,61.22,111,67.22,115,61.22,111,55.22" style="stroke:#181818;stroke-width:1.0;"/><text fill="#000000" font-family="sans-serif" font-size="13" lengthAdjust="spacing" textLength="64" x="112" y="100.8979">aggregates</text></g><!--SRC=[yoyjAKfDJCu8IKtCLSZNrLNmACrDpCiiIIpAJCppo2yk039pd5FpIbAB5AmK4jFJYrBJ4qjIYxd2ydDAWQ90OP0kVsHZaDK10000]--></g></svg>