<?xml version="1.0" encoding="us-ascii" standalone="no"?><svg xmlns="http://www.w3.org/2000/svg" xmlns:xlink="http://www.w3.org/1999/xlink" contentStyleType="text/css" height="316px" preserveAspectRatio="none" style="width:147px;height:316px;background:#FFFFFF;" version="1.1" viewBox="0 0 147 316" width="147px" zoomAndPan="magnify"><defs/><g><!--class ExpertGroup--><g id="elem_ExpertGroup"><rect fill="#F1F1F1" height="48" id="ExpertGroup" rx="2.5" ry="2.5" style="stroke:#181818;stroke-width:0.5;" width="112" x="17.5" y="134"/><ellipse cx="32.5" cy="150" fill="#ADD1B2" rx="11" ry="11" style="stroke:#181818;stroke-width:1.0;"/><path d="M31.8438,155.8594 Q29.8594,155.8594 28.6875,154.3906 Q27.5313,152.9063 27.5313,149.8281 Q27.5313,147.2188 28.75,145.4688 Q29.9844,143.7188 32.1094,143.7188 Q32.6094,143.7188 33.1406,143.8594 Q33.5781,144.0469 33.8438,144.0469 Q34.0625,144.0469 34.1563,144 Q34.2656,143.9531 34.7188,143.3594 L35.4844,147.0938 L34.5938,147.3594 Q34.1406,145.9063 33.5313,145.3125 Q32.9375,144.7031 31.9844,144.7031 Q30.7656,144.7031 30.0469,146.1406 Q29.3281,147.5625 29.3281,149.75 Q29.3281,152.1563 29.9375,153.4531 Q30.5625,154.7344 31.9219,154.7344 Q32.875,154.7344 33.5625,154.0469 Q34.25,153.3438 34.5781,151.8438 L35.4844,152.25 Q35.0781,153.9531 34.1094,154.9063 Q33.1563,155.8594 31.8438,155.8594 Z " fill="#000000"/><text fill="#000000" font-family="sans-serif" font-size="14" lengthAdjust="spacing" textLength="80" x="46.5" y="156.4839">ExpertGroup</text><line style="stroke:#181818;stroke-width:0.5;" x1="18.5" x2="128.5" y1="166" y2="166"/><line style="stroke:#181818;stroke-width:0.5;" x1="18.5" x2="128.5" y1="174" y2="174"/></g><!--class ExpeditionTeam--><g id="elem_ExpeditionTeam"><rect fill="#F1F1F1" height="48" id="ExpeditionTeam" rx="2.5" ry="2.5" style="stroke:#181818;stroke-width:0.5;" width="133" x="7" y="261"/><ellipse cx="22" cy="277" fill="#ADD1B2" rx="11" ry="11" style="stroke:#181818;stroke-width:1.0;"/><path d="M21.3438,282.8594 Q19.3594,282.8594 18.1875,281.3906 Q17.0313,279.9063 17.0313,276.8281 Q17.0313,274.2188 18.25,272.4688 Q19.4844,270.7188 21.6094,270.7188 Q22.1094,270.7188 22.6406,270.8594 Q23.0781,271.0469 23.3438,271.0469 Q23.5625,271.0469 23.6563,271 Q23.7656,270.9531 24.2188,270.3594 L24.9844,274.0938 L24.0938,274.3594 Q23.6406,272.9063 23.0313,272.3125 Q22.4375,271.7031 21.4844,271.7031 Q20.2656,271.7031 19.5469,273.1406 Q18.8281,274.5625 18.8281,276.75 Q18.8281,279.1563 19.4375,280.4531 Q20.0625,281.7344 21.4219,281.7344 Q22.375,281.7344 23.0625,281.0469 Q23.75,280.3438 24.0781,278.8438 L24.9844,279.25 Q24.5781,280.9531 23.6094,281.9063 Q22.6563,282.8594 21.3438,282.8594 Z " fill="#000000"/><text fill="#000000" font-family="sans-serif" font-size="14" lengthAdjust="spacing" textLength="101" x="36" y="283.4839">ExpeditionTeam</text><line style="stroke:#181818;stroke-width:0.5;" x1="8" x2="139" y1="293" y2="293"/><line style="stroke:#181818;stroke-width:0.5;" x1="8" x2="139" y1="301" y2="301"/></g><!--class Advisor--><g id="elem_Advisor"><rect fill="#F1F1F1" height="48" id="Advisor" rx="2.5" ry="2.5" style="stroke:#181818;stroke-width:0.5;" width="79" x="34" y="7"/><ellipse cx="49" cy="23" fill="#ADD1B2" rx="11" ry="11" style="stroke:#181818;stroke-width:1.0;"/><path d="M48.3438,28.8594 Q46.3594,28.8594 45.1875,27.3906 Q44.0313,25.9063 44.0313,22.8281 Q44.0313,20.2188 45.25,18.4688 Q46.4844,16.7188 48.6094,16.7188 Q49.1094,16.7188 49.6406,16.8594 Q50.0781,17.0469 50.3438,17.0469 Q50.5625,17.0469 50.6563,17 Q50.7656,16.9531 51.2188,16.3594 L51.9844,20.0938 L51.0938,20.3594 Q50.6406,18.9063 50.0313,18.3125 Q49.4375,17.7031 48.4844,17.7031 Q47.2656,17.7031 46.5469,19.1406 Q45.8281,20.5625 45.8281,22.75 Q45.8281,25.1563 46.4375,26.4531 Q47.0625,27.7344 48.4219,27.7344 Q49.375,27.7344 50.0625,27.0469 Q50.75,26.3438 51.0781,24.8438 L51.9844,25.25 Q51.5781,26.9531 50.6094,27.9063 Q49.6563,28.8594 48.3438,28.8594 Z " fill="#000000"/><text fill="#000000" font-family="sans-serif" font-size="14" lengthAdjust="spacing" textLength="47" x="63" y="29.4839">Advisor</text><line style="stroke:#181818;stroke-width:0.5;" x1="35" x2="112" y1="39" y2="39"/><line style="stroke:#181818;stroke-width:0.5;" x1="35" x2="112" y1="47" y2="47"/></g><!--reverse link ExpertGroup to ExpeditionTeam--><g id="link_ExpertGroup_ExpeditionTeam"><path codeLine="1" d="M73.5,194.22 C73.5,216.67 73.5,238.5 73.5,260.91 " fill="none" id="ExpertGroup-backto-ExpeditionTeam" style="stroke:#181818;stroke-width:1.0;"/><polygon fill="none" points="73.5,182.22,69.5,188.22,73.5,194.22,77.5,188.22,73.5,182.22" style="stroke:#181818;stroke-width:1.0;"/><text fill="#000000" font-family="sans-serif" font-size="13" lengthAdjust="spacing" textLength="64" x="74.5" y="227.8979">aggregates</text></g><!--reverse link Advisor to ExpertGroup--><g id="link_Advisor_ExpertGroup"><path codeLine="2" d="M73.5,67.22 C73.5,89.67 73.5,111.5 73.5,133.91 " fill="none" id="Advisor-backto-ExpertGroup" style="stroke:#181818;stroke-width:1.0;"/><polygon fill="none" points="73.5,55.22,69.5,61.22,73.5,67.22,77.5,61.22,73.5,55.22" style="stroke:#181818;stroke-width:1.0;"/><text fill="#000000" font-family="sans-serif" font-size="13" lengthAdjust="spacing" textLength="64" x="74.5" y="100.8979">aggregates</text></g><!--SRC=[SwqeI2qgSI_ABorGoDVLLN05ybCoIpBpyq9I4tCLh1GIqzEBKjCJIrABkHnJoZAByulWwc3wa1K10000]--></g></svg>