<?xml version="1.0" encoding="us-ascii" standalone="no"?><svg xmlns="http://www.w3.org/2000/svg" xmlns:xlink="http://www.w3.org/1999/xlink" contentStyleType="text/css" height="316px" preserveAspectRatio="none" style="width:252px;height:316px;background:#FFFFFF;" version="1.1" viewBox="0 0 252 316" width="252px" zoomAndPan="magnify"><defs/><g><!--class AristotleUniversityOfThessaloniki--><g id="elem_AristotleUniversityOfThessaloniki"><rect fill="#F1F1F1" height="48" id="AristotleUniversityOfThessaloniki" rx="2.5" ry="2.5" style="stroke:#181818;stroke-width:0.5;" width="238" x="7" y="7"/><ellipse cx="22" cy="23" fill="#ADD1B2" rx="11" ry="11" style="stroke:#181818;stroke-width:1.0;"/><path d="M21.3438,28.8594 Q19.3594,28.8594 18.1875,27.3906 Q17.0313,25.9063 17.0313,22.8281 Q17.0313,20.2188 18.25,18.4688 Q19.4844,16.7188 21.6094,16.7188 Q22.1094,16.7188 22.6406,16.8594 Q23.0781,17.0469 23.3438,17.0469 Q23.5625,17.0469 23.6563,17 Q23.7656,16.9531 24.2188,16.3594 L24.9844,20.0938 L24.0938,20.3594 Q23.6406,18.9063 23.0313,18.3125 Q22.4375,17.7031 21.4844,17.7031 Q20.2656,17.7031 19.5469,19.1406 Q18.8281,20.5625 18.8281,22.75 Q18.8281,25.1563 19.4375,26.4531 Q20.0625,27.7344 21.4219,27.7344 Q22.375,27.7344 23.0625,27.0469 Q23.75,26.3438 24.0781,24.8438 L24.9844,25.25 Q24.5781,26.9531 23.6094,27.9063 Q22.6563,28.8594 21.3438,28.8594 Z " fill="#000000"/><text fill="#000000" font-family="sans-serif" font-size="14" lengthAdjust="spacing" textLength="206" x="36" y="29.4839">AristotleUniversityOfThessaloniki</text><line style="stroke:#181818;stroke-width:0.5;" x1="8" x2="244" y1="39" y2="39"/><line style="stroke:#181818;stroke-width:0.5;" x1="8" x2="244" y1="47" y2="47"/></g><!--class University--><g id="elem_University"><rect fill="#F1F1F1" height="48" id="University" rx="2.5" ry="2.5" style="stroke:#181818;stroke-width:0.5;" width="93" x="79.5" y="134"/><ellipse cx="94.5" cy="150" fill="#ADD1B2" rx="11" ry="11" style="stroke:#181818;stroke-width:1.0;"/><path d="M93.8438,155.8594 Q91.8594,155.8594 90.6875,154.3906 Q89.5313,152.9063 89.5313,149.8281 Q89.5313,147.2188 90.75,145.4688 Q91.9844,143.7188 94.1094,143.7188 Q94.6094,143.7188 95.1406,143.8594 Q95.5781,144.0469 95.8438,144.0469 Q96.0625,144.0469 96.1563,144 Q96.2656,143.9531 96.7188,143.3594 L97.4844,147.0938 L96.5938,147.3594 Q96.1406,145.9063 95.5313,145.3125 Q94.9375,144.7031 93.9844,144.7031 Q92.7656,144.7031 92.0469,146.1406 Q91.3281,147.5625 91.3281,149.75 Q91.3281,152.1563 91.9375,153.4531 Q92.5625,154.7344 93.9219,154.7344 Q94.875,154.7344 95.5625,154.0469 Q96.25,153.3438 96.5781,151.8438 L97.4844,152.25 Q97.0781,153.9531 96.1094,154.9063 Q95.1563,155.8594 93.8438,155.8594 Z " fill="#000000"/><text fill="#000000" font-family="sans-serif" font-size="14" lengthAdjust="spacing" textLength="61" x="108.5" y="156.4839">University</text><line style="stroke:#181818;stroke-width:0.5;" x1="80.5" x2="171.5" y1="166" y2="166"/><line style="stroke:#181818;stroke-width:0.5;" x1="80.5" x2="171.5" y1="174" y2="174"/></g><!--class EducationalInstitution--><g id="elem_EducationalInstitution"><rect fill="#F1F1F1" height="48" id="EducationalInstitution" rx="2.5" ry="2.5" style="stroke:#181818;stroke-width:0.5;" width="166" x="43" y="261"/><ellipse cx="58" cy="277" fill="#ADD1B2" rx="11" ry="11" style="stroke:#181818;stroke-width:1.0;"/><path d="M57.3438,282.8594 Q55.3594,282.8594 54.1875,281.3906 Q53.0313,279.9063 53.0313,276.8281 Q53.0313,274.2188 54.25,272.4688 Q55.4844,270.7188 57.6094,270.7188 Q58.1094,270.7188 58.6406,270.8594 Q59.0781,271.0469 59.3438,271.0469 Q59.5625,271.0469 59.6563,271 Q59.7656,270.9531 60.2188,270.3594 L60.9844,274.0938 L60.0938,274.3594 Q59.6406,272.9063 59.0313,272.3125 Q58.4375,271.7031 57.4844,271.7031 Q56.2656,271.7031 55.5469,273.1406 Q54.8281,274.5625 54.8281,276.75 Q54.8281,279.1563 55.4375,280.4531 Q56.0625,281.7344 57.4219,281.7344 Q58.375,281.7344 59.0625,281.0469 Q59.75,280.3438 60.0781,278.8438 L60.9844,279.25 Q60.5781,280.9531 59.6094,281.9063 Q58.6563,282.8594 57.3438,282.8594 Z " fill="#000000"/><text fill="#000000" font-family="sans-serif" font-size="14" lengthAdjust="spacing" textLength="134" x="72" y="283.4839">EducationalInstitution</text><line style="stroke:#181818;stroke-width:0.5;" x1="44" x2="208" y1="293" y2="293"/><line style="stroke:#181818;stroke-width:0.5;" x1="44" x2="208" y1="301" y2="301"/></g><!--reverse link AristotleUniversityOfThessaloniki to University--><g id="link_AristotleUniversityOfThessaloniki_University"><path codeLine="1" d="M126,73.22 C126,95.67 126,111.5 126,133.91 " fill="none" id="AristotleUniversityOfThessaloniki-backto-University" style="stroke:#181818;stroke-width:1.0;"/><polygon fill="none" points="126,55.22,120,73.22,132,73.22,126,55.22" style="stroke:#181818;stroke-width:1.0;"/><text fill="#000000" font-family="sans-serif" font-size="13" lengthAdjust="spacing" textLength="42" x="127" y="100.8979">inherits</text></g><!--reverse link University to EducationalInstitution--><g id="link_University_EducationalInstitution"><path codeLine="2" d="M126,200.22 C126,222.67 126,238.5 126,260.91 " fill="none" id="University-backto-EducationalInstitution" style="stroke:#181818;stroke-width:1.0;"/><polygon fill="none" points="126,182.22,120,200.22,132,200.22,126,182.22" style="stroke:#181818;stroke-width:1.0;"/><text fill="#000000" font-family="sans-serif" font-size="13" lengthAdjust="spacing" textLength="42" x="127" y="227.8979">inherits</text></g><!--SRC=[SopAB2x9Byb93StBB4ijAiuigVHF2yb8BIvEpCdFoypELB2fqTLLGCWgM2bavcMa5cMM57CXYO9LkQQK9YUMPERd9UPuvXMNP9QKWZX8EW00]--></g></svg>