<?xml version="1.0" encoding="us-ascii" standalone="no"?><svg xmlns="http://www.w3.org/2000/svg" xmlns:xlink="http://www.w3.org/1999/xlink" contentStyleType="text/css" height="316px" preserveAspectRatio="none" style="width:263px;height:316px;background:#FFFFFF;" version="1.1" viewBox="0 0 263 316" width="263px" zoomAndPan="magnify"><defs/><g><!--class LomonosovMoscowStateUniversity--><g id="elem_LomonosovMoscowStateUniversity"><rect fill="#F1F1F1" height="48" id="LomonosovMoscowStateUniversity" rx="2.5" ry="2.5" style="stroke:#181818;stroke-width:0.5;" width="249" x="7" y="7"/><ellipse cx="22" cy="23" fill="#ADD1B2" rx="11" ry="11" style="stroke:#181818;stroke-width:1.0;"/><path d="M21.3438,28.8594 Q19.3594,28.8594 18.1875,27.3906 Q17.0313,25.9063 17.0313,22.8281 Q17.0313,20.2188 18.25,18.4688 Q19.4844,16.7188 21.6094,16.7188 Q22.1094,16.7188 22.6406,16.8594 Q23.0781,17.0469 23.3438,17.0469 Q23.5625,17.0469 23.6563,17 Q23.7656,16.9531 24.2188,16.3594 L24.9844,20.0938 L24.0938,20.3594 Q23.6406,18.9063 23.0313,18.3125 Q22.4375,17.7031 21.4844,17.7031 Q20.2656,17.7031 19.5469,19.1406 Q18.8281,20.5625 18.8281,22.75 Q18.8281,25.1563 19.4375,26.4531 Q20.0625,27.7344 21.4219,27.7344 Q22.375,27.7344 23.0625,27.0469 Q23.75,26.3438 24.0781,24.8438 L24.9844,25.25 Q24.5781,26.9531 23.6094,27.9063 Q22.6563,28.8594 21.3438,28.8594 Z " fill="#000000"/><text fill="#000000" font-family="sans-serif" font-size="14" lengthAdjust="spacing" textLength="217" x="36" y="29.4839">LomonosovMoscowStateUniversity</text><line style="stroke:#181818;stroke-width:0.5;" x1="8" x2="255" y1="39" y2="39"/><line style="stroke:#181818;stroke-width:0.5;" x1="8" x2="255" y1="47" y2="47"/></g><!--class University--><g id="elem_University"><rect fill="#F1F1F1" height="48" id="University" rx="2.5" ry="2.5" style="stroke:#181818;stroke-width:0.5;" width="93" x="85" y="134"/><ellipse cx="100" cy="150" fill="#ADD1B2" rx="11" ry="11" style="stroke:#181818;stroke-width:1.0;"/><path d="M99.3438,155.8594 Q97.3594,155.8594 96.1875,154.3906 Q95.0313,152.9063 95.0313,149.8281 Q95.0313,147.2188 96.25,145.4688 Q97.4844,143.7188 99.6094,143.7188 Q100.1094,143.7188 100.6406,143.8594 Q101.0781,144.0469 101.3438,144.0469 Q101.5625,144.0469 101.6563,144 Q101.7656,143.9531 102.2188,143.3594 L102.9844,147.0938 L102.0938,147.3594 Q101.6406,145.9063 101.0313,145.3125 Q100.4375,144.7031 99.4844,144.7031 Q98.2656,144.7031 97.5469,146.1406 Q96.8281,147.5625 96.8281,149.75 Q96.8281,152.1563 97.4375,153.4531 Q98.0625,154.7344 99.4219,154.7344 Q100.375,154.7344 101.0625,154.0469 Q101.75,153.3438 102.0781,151.8438 L102.9844,152.25 Q102.5781,153.9531 101.6094,154.9063 Q100.6563,155.8594 99.3438,155.8594 Z " fill="#000000"/><text fill="#000000" font-family="sans-serif" font-size="14" lengthAdjust="spacing" textLength="61" x="114" y="156.4839">University</text><line style="stroke:#181818;stroke-width:0.5;" x1="86" x2="177" y1="166" y2="166"/><line style="stroke:#181818;stroke-width:0.5;" x1="86" x2="177" y1="174" y2="174"/></g><!--class EducationalInstitution--><g id="elem_EducationalInstitution"><rect fill="#F1F1F1" height="48" id="EducationalInstitution" rx="2.5" ry="2.5" style="stroke:#181818;stroke-width:0.5;" width="166" x="48.5" y="261"/><ellipse cx="63.5" cy="277" fill="#ADD1B2" rx="11" ry="11" style="stroke:#181818;stroke-width:1.0;"/><path d="M62.8438,282.8594 Q60.8594,282.8594 59.6875,281.3906 Q58.5313,279.9063 58.5313,276.8281 Q58.5313,274.2188 59.75,272.4688 Q60.9844,270.7188 63.1094,270.7188 Q63.6094,270.7188 64.1406,270.8594 Q64.5781,271.0469 64.8438,271.0469 Q65.0625,271.0469 65.1563,271 Q65.2656,270.9531 65.7188,270.3594 L66.4844,274.0938 L65.5938,274.3594 Q65.1406,272.9063 64.5313,272.3125 Q63.9375,271.7031 62.9844,271.7031 Q61.7656,271.7031 61.0469,273.1406 Q60.3281,274.5625 60.3281,276.75 Q60.3281,279.1563 60.9375,280.4531 Q61.5625,281.7344 62.9219,281.7344 Q63.875,281.7344 64.5625,281.0469 Q65.25,280.3438 65.5781,278.8438 L66.4844,279.25 Q66.0781,280.9531 65.1094,281.9063 Q64.1563,282.8594 62.8438,282.8594 Z " fill="#000000"/><text fill="#000000" font-family="sans-serif" font-size="14" lengthAdjust="spacing" textLength="134" x="77.5" y="283.4839">EducationalInstitution</text><line style="stroke:#181818;stroke-width:0.5;" x1="49.5" x2="213.5" y1="293" y2="293"/><line style="stroke:#181818;stroke-width:0.5;" x1="49.5" x2="213.5" y1="301" y2="301"/></g><!--reverse link LomonosovMoscowStateUniversity to University--><g id="link_LomonosovMoscowStateUniversity_University"><path codeLine="1" d="M131.5,73.22 C131.5,95.67 131.5,111.5 131.5,133.91 " fill="none" id="LomonosovMoscowStateUniversity-backto-University" style="stroke:#181818;stroke-width:1.0;"/><polygon fill="none" points="131.5,55.22,125.5,73.22,137.5,73.22,131.5,55.22" style="stroke:#181818;stroke-width:1.0;"/><text fill="#000000" font-family="sans-serif" font-size="13" lengthAdjust="spacing" textLength="42" x="132.5" y="100.8979">inherits</text></g><!--reverse link University to EducationalInstitution--><g id="link_University_EducationalInstitution"><path codeLine="2" d="M131.5,200.22 C131.5,222.67 131.5,238.5 131.5,260.91 " fill="none" id="University-backto-EducationalInstitution" style="stroke:#181818;stroke-width:1.0;"/><polygon fill="none" points="131.5,182.22,125.5,200.22,137.5,200.22,131.5,182.22" style="stroke:#181818;stroke-width:1.0;"/><text fill="#000000" font-family="sans-serif" font-size="13" lengthAdjust="spacing" textLength="42" x="132.5" y="227.8979">inherits</text></g><!--SRC=[yydFpS_BByulyyqlJiul3ov9B4aDpSiiIoqgpYofLB2fqTLLGE9RAMJcPQGMPPOKSw6hSaqfJKuioSpFIypnp2ikoImf1N6GT000]--></g></svg>