<?xml version="1.0" encoding="us-ascii" standalone="no"?><svg xmlns="http://www.w3.org/2000/svg" xmlns:xlink="http://www.w3.org/1999/xlink" contentStyleType="text/css" height="316px" preserveAspectRatio="none" style="width:245px;height:316px;background:#FFFFFF;" version="1.1" viewBox="0 0 245 316" width="245px" zoomAndPan="magnify"><defs/><g><!--class HongKongPolytechnicUniversity--><g id="elem_HongKongPolytechnicUniversity"><rect fill="#F1F1F1" height="48" id="HongKongPolytechnicUniversity" rx="2.5" ry="2.5" style="stroke:#181818;stroke-width:0.5;" width="231" x="7" y="7"/><ellipse cx="22" cy="23" fill="#ADD1B2" rx="11" ry="11" style="stroke:#181818;stroke-width:1.0;"/><path d="M21.3438,28.8594 Q19.3594,28.8594 18.1875,27.3906 Q17.0313,25.9063 17.0313,22.8281 Q17.0313,20.2188 18.25,18.4688 Q19.4844,16.7188 21.6094,16.7188 Q22.1094,16.7188 22.6406,16.8594 Q23.0781,17.0469 23.3438,17.0469 Q23.5625,17.0469 23.6563,17 Q23.7656,16.9531 24.2188,16.3594 L24.9844,20.0938 L24.0938,20.3594 Q23.6406,18.9063 23.0313,18.3125 Q22.4375,17.7031 21.4844,17.7031 Q20.2656,17.7031 19.5469,19.1406 Q18.8281,20.5625 18.8281,22.75 Q18.8281,25.1563 19.4375,26.4531 Q20.0625,27.7344 21.4219,27.7344 Q22.375,27.7344 23.0625,27.0469 Q23.75,26.3438 24.0781,24.8438 L24.9844,25.25 Q24.5781,26.9531 23.6094,27.9063 Q22.6563,28.8594 21.3438,28.8594 Z " fill="#000000"/><text fill="#000000" font-family="sans-serif" font-size="14" lengthAdjust="spacing" textLength="199" x="36" y="29.4839">HongKongPolytechnicUniversity</text><line style="stroke:#181818;stroke-width:0.5;" x1="8" x2="237" y1="39" y2="39"/><line style="stroke:#181818;stroke-width:0.5;" x1="8" x2="237" y1="47" y2="47"/></g><!--class University--><g id="elem_University"><rect fill="#F1F1F1" height="48" id="University" rx="2.5" ry="2.5" style="stroke:#181818;stroke-width:0.5;" width="93" x="76" y="134"/><ellipse cx="91" cy="150" fill="#ADD1B2" rx="11" ry="11" style="stroke:#181818;stroke-width:1.0;"/><path d="M90.3438,155.8594 Q88.3594,155.8594 87.1875,154.3906 Q86.0313,152.9063 86.0313,149.8281 Q86.0313,147.2188 87.25,145.4688 Q88.4844,143.7188 90.6094,143.7188 Q91.1094,143.7188 91.6406,143.8594 Q92.0781,144.0469 92.3438,144.0469 Q92.5625,144.0469 92.6563,144 Q92.7656,143.9531 93.2188,143.3594 L93.9844,147.0938 L93.0938,147.3594 Q92.6406,145.9063 92.0313,145.3125 Q91.4375,144.7031 90.4844,144.7031 Q89.2656,144.7031 88.5469,146.1406 Q87.8281,147.5625 87.8281,149.75 Q87.8281,152.1563 88.4375,153.4531 Q89.0625,154.7344 90.4219,154.7344 Q91.375,154.7344 92.0625,154.0469 Q92.75,153.3438 93.0781,151.8438 L93.9844,152.25 Q93.5781,153.9531 92.6094,154.9063 Q91.6563,155.8594 90.3438,155.8594 Z " fill="#000000"/><text fill="#000000" font-family="sans-serif" font-size="14" lengthAdjust="spacing" textLength="61" x="105" y="156.4839">University</text><line style="stroke:#181818;stroke-width:0.5;" x1="77" x2="168" y1="166" y2="166"/><line style="stroke:#181818;stroke-width:0.5;" x1="77" x2="168" y1="174" y2="174"/></g><!--class EducationalInstitution--><g id="elem_EducationalInstitution"><rect fill="#F1F1F1" height="48" id="EducationalInstitution" rx="2.5" ry="2.5" style="stroke:#181818;stroke-width:0.5;" width="166" x="39.5" y="261"/><ellipse cx="54.5" cy="277" fill="#ADD1B2" rx="11" ry="11" style="stroke:#181818;stroke-width:1.0;"/><path d="M53.8438,282.8594 Q51.8594,282.8594 50.6875,281.3906 Q49.5313,279.9063 49.5313,276.8281 Q49.5313,274.2188 50.75,272.4688 Q51.9844,270.7188 54.1094,270.7188 Q54.6094,270.7188 55.1406,270.8594 Q55.5781,271.0469 55.8438,271.0469 Q56.0625,271.0469 56.1563,271 Q56.2656,270.9531 56.7188,270.3594 L57.4844,274.0938 L56.5938,274.3594 Q56.1406,272.9063 55.5313,272.3125 Q54.9375,271.7031 53.9844,271.7031 Q52.7656,271.7031 52.0469,273.1406 Q51.3281,274.5625 51.3281,276.75 Q51.3281,279.1563 51.9375,280.4531 Q52.5625,281.7344 53.9219,281.7344 Q54.875,281.7344 55.5625,281.0469 Q56.25,280.3438 56.5781,278.8438 L57.4844,279.25 Q57.0781,280.9531 56.1094,281.9063 Q55.1563,282.8594 53.8438,282.8594 Z " fill="#000000"/><text fill="#000000" font-family="sans-serif" font-size="14" lengthAdjust="spacing" textLength="134" x="68.5" y="283.4839">EducationalInstitution</text><line style="stroke:#181818;stroke-width:0.5;" x1="40.5" x2="204.5" y1="293" y2="293"/><line style="stroke:#181818;stroke-width:0.5;" x1="40.5" x2="204.5" y1="301" y2="301"/></g><!--reverse link HongKongPolytechnicUniversity to University--><g id="link_HongKongPolytechnicUniversity_University"><path codeLine="1" d="M122.5,73.22 C122.5,95.67 122.5,111.5 122.5,133.91 " fill="none" id="HongKongPolytechnicUniversity-backto-University" style="stroke:#181818;stroke-width:1.0;"/><polygon fill="none" points="122.5,55.22,116.5,73.22,128.5,73.22,122.5,55.22" style="stroke:#181818;stroke-width:1.0;"/><text fill="#000000" font-family="sans-serif" font-size="13" lengthAdjust="spacing" textLength="42" x="123.5" y="100.8979">inherits</text></g><!--reverse link University to EducationalInstitution--><g id="link_University_EducationalInstitution"><path codeLine="2" d="M122.5,200.22 C122.5,222.67 122.5,238.5 122.5,260.91 " fill="none" id="University-backto-EducationalInstitution" style="stroke:#181818;stroke-width:1.0;"/><polygon fill="none" points="122.5,182.22,116.5,200.22,128.5,200.22,122.5,182.22" style="stroke:#181818;stroke-width:1.0;"/><text fill="#000000" font-family="sans-serif" font-size="13" lengthAdjust="spacing" textLength="42" x="123.5" y="227.8979">inherits</text></g><!--SRC=[yyZFI_S6ue3ydCgIrEIClCpaqBpCijIYuioIIWMR6brT1II-bK9cNaPgKMP9CHUwAjUKqkJ4aipylCGSpxpYaioIKX07IGS0]--></g></svg>