<?xml version="1.0" encoding="us-ascii" standalone="no"?><svg xmlns="http://www.w3.org/2000/svg" xmlns:xlink="http://www.w3.org/1999/xlink" contentStyleType="text/css" height="316px" preserveAspectRatio="none" style="width:225px;height:316px;background:#FFFFFF;" version="1.1" viewBox="0 0 225 316" width="225px" zoomAndPan="magnify"><defs/><g><!--class ShanghaiJiaoTongUniversity--><g id="elem_ShanghaiJiaoTongUniversity"><rect fill="#F1F1F1" height="48" id="ShanghaiJiaoTongUniversity" rx="2.5" ry="2.5" style="stroke:#181818;stroke-width:0.5;" width="211" x="7" y="7"/><ellipse cx="22" cy="23" fill="#ADD1B2" rx="11" ry="11" style="stroke:#181818;stroke-width:1.0;"/><path d="M21.3438,28.8594 Q19.3594,28.8594 18.1875,27.3906 Q17.0313,25.9063 17.0313,22.8281 Q17.0313,20.2188 18.25,18.4688 Q19.4844,16.7188 21.6094,16.7188 Q22.1094,16.7188 22.6406,16.8594 Q23.0781,17.0469 23.3438,17.0469 Q23.5625,17.0469 23.6563,17 Q23.7656,16.9531 24.2188,16.3594 L24.9844,20.0938 L24.0938,20.3594 Q23.6406,18.9063 23.0313,18.3125 Q22.4375,17.7031 21.4844,17.7031 Q20.2656,17.7031 19.5469,19.1406 Q18.8281,20.5625 18.8281,22.75 Q18.8281,25.1563 19.4375,26.4531 Q20.0625,27.7344 21.4219,27.7344 Q22.375,27.7344 23.0625,27.0469 Q23.75,26.3438 24.0781,24.8438 L24.9844,25.25 Q24.5781,26.9531 23.6094,27.9063 Q22.6563,28.8594 21.3438,28.8594 Z " fill="#000000"/><text fill="#000000" font-family="sans-serif" font-size="14" lengthAdjust="spacing" textLength="179" x="36" y="29.4839">ShanghaiJiaoTongUniversity</text><line style="stroke:#181818;stroke-width:0.5;" x1="8" x2="217" y1="39" y2="39"/><line style="stroke:#181818;stroke-width:0.5;" x1="8" x2="217" y1="47" y2="47"/></g><!--class University--><g id="elem_University"><rect fill="#F1F1F1" height="48" id="University" rx="2.5" ry="2.5" style="stroke:#181818;stroke-width:0.5;" width="93" x="66" y="134"/><ellipse cx="81" cy="150" fill="#ADD1B2" rx="11" ry="11" style="stroke:#181818;stroke-width:1.0;"/><path d="M80.3438,155.8594 Q78.3594,155.8594 77.1875,154.3906 Q76.0313,152.9063 76.0313,149.8281 Q76.0313,147.2188 77.25,145.4688 Q78.4844,143.7188 80.6094,143.7188 Q81.1094,143.7188 81.6406,143.8594 Q82.0781,144.0469 82.3438,144.0469 Q82.5625,144.0469 82.6563,144 Q82.7656,143.9531 83.2188,143.3594 L83.9844,147.0938 L83.0938,147.3594 Q82.6406,145.9063 82.0313,145.3125 Q81.4375,144.7031 80.4844,144.7031 Q79.2656,144.7031 78.5469,146.1406 Q77.8281,147.5625 77.8281,149.75 Q77.8281,152.1563 78.4375,153.4531 Q79.0625,154.7344 80.4219,154.7344 Q81.375,154.7344 82.0625,154.0469 Q82.75,153.3438 83.0781,151.8438 L83.9844,152.25 Q83.5781,153.9531 82.6094,154.9063 Q81.6563,155.8594 80.3438,155.8594 Z " fill="#000000"/><text fill="#000000" font-family="sans-serif" font-size="14" lengthAdjust="spacing" textLength="61" x="95" y="156.4839">University</text><line style="stroke:#181818;stroke-width:0.5;" x1="67" x2="158" y1="166" y2="166"/><line style="stroke:#181818;stroke-width:0.5;" x1="67" x2="158" y1="174" y2="174"/></g><!--class EducationalInstitution--><g id="elem_EducationalInstitution"><rect fill="#F1F1F1" height="48" id="EducationalInstitution" rx="2.5" ry="2.5" style="stroke:#181818;stroke-width:0.5;" width="166" x="29.5" y="261"/><ellipse cx="44.5" cy="277" fill="#ADD1B2" rx="11" ry="11" style="stroke:#181818;stroke-width:1.0;"/><path d="M43.8438,282.8594 Q41.8594,282.8594 40.6875,281.3906 Q39.5313,279.9063 39.5313,276.8281 Q39.5313,274.2188 40.75,272.4688 Q41.9844,270.7188 44.1094,270.7188 Q44.6094,270.7188 45.1406,270.8594 Q45.5781,271.0469 45.8438,271.0469 Q46.0625,271.0469 46.1563,271 Q46.2656,270.9531 46.7188,270.3594 L47.4844,274.0938 L46.5938,274.3594 Q46.1406,272.9063 45.5313,272.3125 Q44.9375,271.7031 43.9844,271.7031 Q42.7656,271.7031 42.0469,273.1406 Q41.3281,274.5625 41.3281,276.75 Q41.3281,279.1563 41.9375,280.4531 Q42.5625,281.7344 43.9219,281.7344 Q44.875,281.7344 45.5625,281.0469 Q46.25,280.3438 46.5781,278.8438 L47.4844,279.25 Q47.0781,280.9531 46.1094,281.9063 Q45.1563,282.8594 43.8438,282.8594 Z " fill="#000000"/><text fill="#000000" font-family="sans-serif" font-size="14" lengthAdjust="spacing" textLength="134" x="58.5" y="283.4839">EducationalInstitution</text><line style="stroke:#181818;stroke-width:0.5;" x1="30.5" x2="194.5" y1="293" y2="293"/><line style="stroke:#181818;stroke-width:0.5;" x1="30.5" x2="194.5" y1="301" y2="301"/></g><!--reverse link ShanghaiJiaoTongUniversity to University--><g id="link_ShanghaiJiaoTongUniversity_University"><path codeLine="1" d="M112.5,73.22 C112.5,95.67 112.5,111.5 112.5,133.91 " fill="none" id="ShanghaiJiaoTongUniversity-backto-University" style="stroke:#181818;stroke-width:1.0;"/><polygon fill="none" points="112.5,55.22,106.5,73.22,118.5,73.22,112.5,55.22" style="stroke:#181818;stroke-width:1.0;"/><text fill="#000000" font-family="sans-serif" font-size="13" lengthAdjust="spacing" textLength="42" x="113.5" y="100.8979">inherits</text></g><!--reverse link University to EducationalInstitution--><g id="link_University_EducationalInstitution"><path codeLine="2" d="M112.5,200.22 C112.5,222.67 112.5,238.5 112.5,260.91 " fill="none" id="University-backto-EducationalInstitution" style="stroke:#181818;stroke-width:1.0;"/><polygon fill="none" points="112.5,182.22,106.5,200.22,118.5,200.22,112.5,182.22" style="stroke:#181818;stroke-width:1.0;"/><text fill="#000000" font-family="sans-serif" font-size="13" lengthAdjust="spacing" textLength="42" x="113.5" y="227.8979">inherits</text></g><!--SRC=[2yv8p4lFICpqoapC3ydFIm_DoonBBIhEBAbKiAdHrLL0ubifPEPbf1PbbXHpeQjoJIbDJYp9pCzBpF7CAox9B2a5SP1q0000]--></g></svg>