<?xml version="1.0" encoding="us-ascii" standalone="no"?><svg xmlns="http://www.w3.org/2000/svg" xmlns:xlink="http://www.w3.org/1999/xlink" contentStyleType="text/css" height="316px" preserveAspectRatio="none" style="width:114px;height:316px;background:#FFFFFF;" version="1.1" viewBox="0 0 114 316" width="114px" zoomAndPan="magnify"><defs/><g><!--class Cream--><g id="elem_Cream"><rect fill="#F1F1F1" height="48" id="Cream" rx="2.5" ry="2.5" style="stroke:#181818;stroke-width:0.5;" width="74" x="8.5" y="134"/><ellipse cx="23.5" cy="150" fill="#ADD1B2" rx="11" ry="11" style="stroke:#181818;stroke-width:1.0;"/><path d="M22.8438,155.8594 Q20.8594,155.8594 19.6875,154.3906 Q18.5313,152.9063 18.5313,149.8281 Q18.5313,147.2188 19.75,145.4688 Q20.9844,143.7188 23.1094,143.7188 Q23.6094,143.7188 24.1406,143.8594 Q24.5781,144.0469 24.8438,144.0469 Q25.0625,144.0469 25.1563,144 Q25.2656,143.9531 25.7188,143.3594 L26.4844,147.0938 L25.5938,147.3594 Q25.1406,145.9063 24.5313,145.3125 Q23.9375,144.7031 22.9844,144.7031 Q21.7656,144.7031 21.0469,146.1406 Q20.3281,147.5625 20.3281,149.75 Q20.3281,152.1563 20.9375,153.4531 Q21.5625,154.7344 22.9219,154.7344 Q23.875,154.7344 24.5625,154.0469 Q25.25,153.3438 25.5781,151.8438 L26.4844,152.25 Q26.0781,153.9531 25.1094,154.9063 Q24.1563,155.8594 22.8438,155.8594 Z " fill="#000000"/><text fill="#000000" font-family="sans-serif" font-size="14" lengthAdjust="spacing" textLength="42" x="37.5" y="156.4839">Cream</text><line style="stroke:#181818;stroke-width:0.5;" x1="9.5" x2="81.5" y1="166" y2="166"/><line style="stroke:#181818;stroke-width:0.5;" x1="9.5" x2="81.5" y1="174" y2="174"/></g><!--class Milk--><g id="elem_Milk"><rect fill="#F1F1F1" height="48" id="Milk" rx="2.5" ry="2.5" style="stroke:#181818;stroke-width:0.5;" width="56" x="17.5" y="261"/><ellipse cx="32.5" cy="277" fill="#ADD1B2" rx="11" ry="11" style="stroke:#181818;stroke-width:1.0;"/><path d="M31.8438,282.8594 Q29.8594,282.8594 28.6875,281.3906 Q27.5313,279.9063 27.5313,276.8281 Q27.5313,274.2188 28.75,272.4688 Q29.9844,270.7188 32.1094,270.7188 Q32.6094,270.7188 33.1406,270.8594 Q33.5781,271.0469 33.8438,271.0469 Q34.0625,271.0469 34.1563,271 Q34.2656,270.9531 34.7188,270.3594 L35.4844,274.0938 L34.5938,274.3594 Q34.1406,272.9063 33.5313,272.3125 Q32.9375,271.7031 31.9844,271.7031 Q30.7656,271.7031 30.0469,273.1406 Q29.3281,274.5625 29.3281,276.75 Q29.3281,279.1563 29.9375,280.4531 Q30.5625,281.7344 31.9219,281.7344 Q32.875,281.7344 33.5625,281.0469 Q34.25,280.3438 34.5781,278.8438 L35.4844,279.25 Q35.0781,280.9531 34.1094,281.9063 Q33.1563,282.8594 31.8438,282.8594 Z " fill="#000000"/><text fill="#000000" font-family="sans-serif" font-size="14" lengthAdjust="spacing" textLength="24" x="46.5" y="283.4839">Milk</text><line style="stroke:#181818;stroke-width:0.5;" x1="18.5" x2="72.5" y1="293" y2="293"/><line style="stroke:#181818;stroke-width:0.5;" x1="18.5" x2="72.5" y1="301" y2="301"/></g><!--class Quiche--><g id="elem_Quiche"><rect fill="#F1F1F1" height="48" id="Quiche" rx="2.5" ry="2.5" style="stroke:#181818;stroke-width:0.5;" width="77" x="7" y="7"/><ellipse cx="22" cy="23" fill="#ADD1B2" rx="11" ry="11" style="stroke:#181818;stroke-width:1.0;"/><path d="M21.3438,28.8594 Q19.3594,28.8594 18.1875,27.3906 Q17.0313,25.9063 17.0313,22.8281 Q17.0313,20.2188 18.25,18.4688 Q19.4844,16.7188 21.6094,16.7188 Q22.1094,16.7188 22.6406,16.8594 Q23.0781,17.0469 23.3438,17.0469 Q23.5625,17.0469 23.6563,17 Q23.7656,16.9531 24.2188,16.3594 L24.9844,20.0938 L24.0938,20.3594 Q23.6406,18.9063 23.0313,18.3125 Q22.4375,17.7031 21.4844,17.7031 Q20.2656,17.7031 19.5469,19.1406 Q18.8281,20.5625 18.8281,22.75 Q18.8281,25.1563 19.4375,26.4531 Q20.0625,27.7344 21.4219,27.7344 Q22.375,27.7344 23.0625,27.0469 Q23.75,26.3438 24.0781,24.8438 L24.9844,25.25 Q24.5781,26.9531 23.6094,27.9063 Q22.6563,28.8594 21.3438,28.8594 Z " fill="#000000"/><text fill="#000000" font-family="sans-serif" font-size="14" lengthAdjust="spacing" textLength="45" x="36" y="29.4839">Quiche</text><line style="stroke:#181818;stroke-width:0.5;" x1="8" x2="83" y1="39" y2="39"/><line style="stroke:#181818;stroke-width:0.5;" x1="8" x2="83" y1="47" y2="47"/></g><!--reverse link Cream to Milk--><g id="link_Cream_Milk"><path codeLine="1" d="M45.5,194.22 C45.5,216.67 45.5,238.5 45.5,260.91 " fill="none" id="Cream-backto-Milk" style="stroke:#181818;stroke-width:1.0;"/><polygon fill="#181818" points="45.5,182.22,41.5,188.22,45.5,194.22,49.5,188.22,45.5,182.22" style="stroke:#181818;stroke-width:1.0;"/><text fill="#000000" font-family="sans-serif" font-size="13" lengthAdjust="spacing" textLength="60" x="46.5" y="227.8979">composes</text></g><!--reverse link Quiche to Cream--><g id="link_Quiche_Cream"><path codeLine="2" d="M45.5,67.22 C45.5,89.67 45.5,111.5 45.5,133.91 " fill="none" id="Quiche-backto-Cream" style="stroke:#181818;stroke-width:1.0;"/><polygon fill="#181818" points="45.5,55.22,41.5,61.22,45.5,67.22,49.5,61.22,45.5,55.22" style="stroke:#181818;stroke-width:1.0;"/><text fill="#000000" font-family="sans-serif" font-size="13" lengthAdjust="spacing" textLength="60" x="46.5" y="100.8979">composes</text></g><!--SRC=[SovAJSnLqDBLLV3DpCbMi598piyjo2zEBUOABCrCpaW5Ipc35I7a0000]--></g></svg>