<?xml version="1.0" encoding="us-ascii" standalone="no"?><svg xmlns="http://www.w3.org/2000/svg" xmlns:xlink="http://www.w3.org/1999/xlink" contentStyleType="text/css" height="316px" preserveAspectRatio="none" style="width:103px;height:316px;background:#FFFFFF;" version="1.1" viewBox="0 0 103 316" width="103px" zoomAndPan="magnify"><defs/><g><!--class Animal--><g id="elem_Animal"><rect fill="#F1F1F1" height="48" id="Animal" rx="2.5" ry="2.5" style="stroke:#181818;stroke-width:0.5;" width="74" x="14.5" y="7"/><ellipse cx="29.5" cy="23" fill="#ADD1B2" rx="11" ry="11" style="stroke:#181818;stroke-width:1.0;"/><path d="M28.8438,28.8594 Q26.8594,28.8594 25.6875,27.3906 Q24.5313,25.9063 24.5313,22.8281 Q24.5313,20.2188 25.75,18.4688 Q26.9844,16.7188 29.1094,16.7188 Q29.6094,16.7188 30.1406,16.8594 Q30.5781,17.0469 30.8438,17.0469 Q31.0625,17.0469 31.1563,17 Q31.2656,16.9531 31.7188,16.3594 L32.4844,20.0938 L31.5938,20.3594 Q31.1406,18.9063 30.5313,18.3125 Q29.9375,17.7031 28.9844,17.7031 Q27.7656,17.7031 27.0469,19.1406 Q26.3281,20.5625 26.3281,22.75 Q26.3281,25.1563 26.9375,26.4531 Q27.5625,27.7344 28.9219,27.7344 Q29.875,27.7344 30.5625,27.0469 Q31.25,26.3438 31.5781,24.8438 L32.4844,25.25 Q32.0781,26.9531 31.1094,27.9063 Q30.1563,28.8594 28.8438,28.8594 Z " fill="#000000"/><text fill="#000000" font-family="sans-serif" font-size="14" lengthAdjust="spacing" textLength="42" x="43.5" y="29.4839">Animal</text><line style="stroke:#181818;stroke-width:0.5;" x1="15.5" x2="87.5" y1="39" y2="39"/><line style="stroke:#181818;stroke-width:0.5;" x1="15.5" x2="87.5" y1="47" y2="47"/></g><!--class Fish--><g id="elem_Fish"><rect fill="#F1F1F1" height="48" id="Fish" rx="2.5" ry="2.5" style="stroke:#181818;stroke-width:0.5;" width="59" x="22" y="134"/><ellipse cx="37" cy="150" fill="#ADD1B2" rx="11" ry="11" style="stroke:#181818;stroke-width:1.0;"/><path d="M36.3438,155.8594 Q34.3594,155.8594 33.1875,154.3906 Q32.0313,152.9063 32.0313,149.8281 Q32.0313,147.2188 33.25,145.4688 Q34.4844,143.7188 36.6094,143.7188 Q37.1094,143.7188 37.6406,143.8594 Q38.0781,144.0469 38.3438,144.0469 Q38.5625,144.0469 38.6563,144 Q38.7656,143.9531 39.2188,143.3594 L39.9844,147.0938 L39.0938,147.3594 Q38.6406,145.9063 38.0313,145.3125 Q37.4375,144.7031 36.4844,144.7031 Q35.2656,144.7031 34.5469,146.1406 Q33.8281,147.5625 33.8281,149.75 Q33.8281,152.1563 34.4375,153.4531 Q35.0625,154.7344 36.4219,154.7344 Q37.375,154.7344 38.0625,154.0469 Q38.75,153.3438 39.0781,151.8438 L39.9844,152.25 Q39.5781,153.9531 38.6094,154.9063 Q37.6563,155.8594 36.3438,155.8594 Z " fill="#000000"/><text fill="#000000" font-family="sans-serif" font-size="14" lengthAdjust="spacing" textLength="27" x="51" y="156.4839">Fish</text><line style="stroke:#181818;stroke-width:0.5;" x1="23" x2="80" y1="166" y2="166"/><line style="stroke:#181818;stroke-width:0.5;" x1="23" x2="80" y1="174" y2="174"/></g><!--class Mackerel--><g id="elem_Mackerel"><rect fill="#F1F1F1" height="48" id="Mackerel" rx="2.5" ry="2.5" style="stroke:#181818;stroke-width:0.5;" width="89" x="7" y="261"/><ellipse cx="22" cy="277" fill="#ADD1B2" rx="11" ry="11" style="stroke:#181818;stroke-width:1.0;"/><path d="M21.3438,282.8594 Q19.3594,282.8594 18.1875,281.3906 Q17.0313,279.9063 17.0313,276.8281 Q17.0313,274.2188 18.25,272.4688 Q19.4844,270.7188 21.6094,270.7188 Q22.1094,270.7188 22.6406,270.8594 Q23.0781,271.0469 23.3438,271.0469 Q23.5625,271.0469 23.6563,271 Q23.7656,270.9531 24.2188,270.3594 L24.9844,274.0938 L24.0938,274.3594 Q23.6406,272.9063 23.0313,272.3125 Q22.4375,271.7031 21.4844,271.7031 Q20.2656,271.7031 19.5469,273.1406 Q18.8281,274.5625 18.8281,276.75 Q18.8281,279.1563 19.4375,280.4531 Q20.0625,281.7344 21.4219,281.7344 Q22.375,281.7344 23.0625,281.0469 Q23.75,280.3438 24.0781,278.8438 L24.9844,279.25 Q24.5781,280.9531 23.6094,281.9063 Q22.6563,282.8594 21.3438,282.8594 Z " fill="#000000"/><text fill="#000000" font-family="sans-serif" font-size="14" lengthAdjust="spacing" textLength="57" x="36" y="283.4839">Mackerel</text><line style="stroke:#181818;stroke-width:0.5;" x1="8" x2="95" y1="293" y2="293"/><line style="stroke:#181818;stroke-width:0.5;" x1="8" x2="95" y1="301" y2="301"/></g><!--reverse link Animal to Fish--><g id="link_Animal_Fish"><path codeLine="1" d="M51.5,73.22 C51.5,95.67 51.5,111.5 51.5,133.91 " fill="none" id="Animal-backto-Fish" style="stroke:#181818;stroke-width:1.0;"/><polygon fill="none" points="51.5,55.22,45.5,73.22,57.5,73.22,51.5,55.22" style="stroke:#181818;stroke-width:1.0;"/><text fill="#000000" font-family="sans-serif" font-size="13" lengthAdjust="spacing" textLength="42" x="52.5" y="100.8979">inherits</text></g><!--reverse link Fish to Mackerel--><g id="link_Fish_Mackerel"><path codeLine="2" d="M51.5,200.22 C51.5,222.67 51.5,238.5 51.5,260.91 " fill="none" id="Fish-backto-Mackerel" style="stroke:#181818;stroke-width:1.0;"/><polygon fill="none" points="51.5,182.22,45.5,200.22,57.5,200.22,51.5,182.22" style="stroke:#181818;stroke-width:1.0;"/><text fill="#000000" font-family="sans-serif" font-size="13" lengthAdjust="spacing" textLength="42" x="52.5" y="227.8979">inherits</text></g><!--SRC=[SypBp4tCKR2fqTLLSCiipb2mKiZCoqWjoYmfvWBpmJA-YSdPgKMfEKYo0000]--></g></svg>