<?xml version="1.0" encoding="us-ascii" standalone="no"?><svg xmlns="http://www.w3.org/2000/svg" xmlns:xlink="http://www.w3.org/1999/xlink" contentStyleType="text/css" height="316px" preserveAspectRatio="none" style="width:277px;height:316px;background:#FFFFFF;" version="1.1" viewBox="0 0 277 316" width="277px" zoomAndPan="magnify"><defs/><g><!--class EducationalInstitution--><g id="elem_EducationalInstitution"><rect fill="#F1F1F1" height="48" id="EducationalInstitution" rx="2.5" ry="2.5" style="stroke:#181818;stroke-width:0.5;" width="166" x="55.5" y="7"/><ellipse cx="70.5" cy="23" fill="#ADD1B2" rx="11" ry="11" style="stroke:#181818;stroke-width:1.0;"/><path d="M69.8438,28.8594 Q67.8594,28.8594 66.6875,27.3906 Q65.5313,25.9063 65.5313,22.8281 Q65.5313,20.2188 66.75,18.4688 Q67.9844,16.7188 70.1094,16.7188 Q70.6094,16.7188 71.1406,16.8594 Q71.5781,17.0469 71.8438,17.0469 Q72.0625,17.0469 72.1563,17 Q72.2656,16.9531 72.7188,16.3594 L73.4844,20.0938 L72.5938,20.3594 Q72.1406,18.9063 71.5313,18.3125 Q70.9375,17.7031 69.9844,17.7031 Q68.7656,17.7031 68.0469,19.1406 Q67.3281,20.5625 67.3281,22.75 Q67.3281,25.1563 67.9375,26.4531 Q68.5625,27.7344 69.9219,27.7344 Q70.875,27.7344 71.5625,27.0469 Q72.25,26.3438 72.5781,24.8438 L73.4844,25.25 Q73.0781,26.9531 72.1094,27.9063 Q71.1563,28.8594 69.8438,28.8594 Z " fill="#000000"/><text fill="#000000" font-family="sans-serif" font-size="14" lengthAdjust="spacing" textLength="134" x="84.5" y="29.4839">EducationalInstitution</text><line style="stroke:#181818;stroke-width:0.5;" x1="56.5" x2="220.5" y1="39" y2="39"/><line style="stroke:#181818;stroke-width:0.5;" x1="56.5" x2="220.5" y1="47" y2="47"/></g><!--class University--><g id="elem_University"><rect fill="#F1F1F1" height="48" id="University" rx="2.5" ry="2.5" style="stroke:#181818;stroke-width:0.5;" width="93" x="92" y="134"/><ellipse cx="107" cy="150" fill="#ADD1B2" rx="11" ry="11" style="stroke:#181818;stroke-width:1.0;"/><path d="M106.3438,155.8594 Q104.3594,155.8594 103.1875,154.3906 Q102.0313,152.9063 102.0313,149.8281 Q102.0313,147.2188 103.25,145.4688 Q104.4844,143.7188 106.6094,143.7188 Q107.1094,143.7188 107.6406,143.8594 Q108.0781,144.0469 108.3438,144.0469 Q108.5625,144.0469 108.6563,144 Q108.7656,143.9531 109.2188,143.3594 L109.9844,147.0938 L109.0938,147.3594 Q108.6406,145.9063 108.0313,145.3125 Q107.4375,144.7031 106.4844,144.7031 Q105.2656,144.7031 104.5469,146.1406 Q103.8281,147.5625 103.8281,149.75 Q103.8281,152.1563 104.4375,153.4531 Q105.0625,154.7344 106.4219,154.7344 Q107.375,154.7344 108.0625,154.0469 Q108.75,153.3438 109.0781,151.8438 L109.9844,152.25 Q109.5781,153.9531 108.6094,154.9063 Q107.6563,155.8594 106.3438,155.8594 Z " fill="#000000"/><text fill="#000000" font-family="sans-serif" font-size="14" lengthAdjust="spacing" textLength="61" x="121" y="156.4839">University</text><line style="stroke:#181818;stroke-width:0.5;" x1="93" x2="184" y1="166" y2="166"/><line style="stroke:#181818;stroke-width:0.5;" x1="93" x2="184" y1="174" y2="174"/></g><!--class TechnionIsraelInstituteOfTechnology--><g id="elem_TechnionIsraelInstituteOfTechnology"><rect fill="#F1F1F1" height="48" id="TechnionIsraelInstituteOfTechnology" rx="2.5" ry="2.5" style="stroke:#181818;stroke-width:0.5;" width="263" x="7" y="261"/><ellipse cx="22" cy="277" fill="#ADD1B2" rx="11" ry="11" style="stroke:#181818;stroke-width:1.0;"/><path d="M21.3438,282.8594 Q19.3594,282.8594 18.1875,281.3906 Q17.0313,279.9063 17.0313,276.8281 Q17.0313,274.2188 18.25,272.4688 Q19.4844,270.7188 21.6094,270.7188 Q22.1094,270.7188 22.6406,270.8594 Q23.0781,271.0469 23.3438,271.0469 Q23.5625,271.0469 23.6563,271 Q23.7656,270.9531 24.2188,270.3594 L24.9844,274.0938 L24.0938,274.3594 Q23.6406,272.9063 23.0313,272.3125 Q22.4375,271.7031 21.4844,271.7031 Q20.2656,271.7031 19.5469,273.1406 Q18.8281,274.5625 18.8281,276.75 Q18.8281,279.1563 19.4375,280.4531 Q20.0625,281.7344 21.4219,281.7344 Q22.375,281.7344 23.0625,281.0469 Q23.75,280.3438 24.0781,278.8438 L24.9844,279.25 Q24.5781,280.9531 23.6094,281.9063 Q22.6563,282.8594 21.3438,282.8594 Z " fill="#000000"/><text fill="#000000" font-family="sans-serif" font-size="14" lengthAdjust="spacing" textLength="231" x="36" y="283.4839">TechnionIsraelInstituteOfTechnology</text><line style="stroke:#181818;stroke-width:0.5;" x1="8" x2="269" y1="293" y2="293"/><line style="stroke:#181818;stroke-width:0.5;" x1="8" x2="269" y1="301" y2="301"/></g><!--reverse link EducationalInstitution to University--><g id="link_EducationalInstitution_University"><path codeLine="1" d="M138.5,73.22 C138.5,95.67 138.5,111.5 138.5,133.91 " fill="none" id="EducationalInstitution-backto-University" style="stroke:#181818;stroke-width:1.0;"/><polygon fill="none" points="138.5,55.22,132.5,73.22,144.5,73.22,138.5,55.22" style="stroke:#181818;stroke-width:1.0;"/><text fill="#000000" font-family="sans-serif" font-size="13" lengthAdjust="spacing" textLength="42" x="139.5" y="100.8979">inherits</text></g><!--reverse link University to TechnionIsraelInstituteOfTechnology--><g id="link_University_TechnionIsraelInstituteOfTechnology"><path codeLine="2" d="M138.5,200.22 C138.5,222.67 138.5,238.5 138.5,260.91 " fill="none" id="University-backto-TechnionIsraelInstituteOfTechnology" style="stroke:#181818;stroke-width:1.0;"/><polygon fill="none" points="138.5,182.22,132.5,200.22,144.5,200.22,138.5,182.22" style="stroke:#181818;stroke-width:1.0;"/><text fill="#000000" font-family="sans-serif" font-size="13" lengthAdjust="spacing" textLength="42" x="139.5" y="227.8979">inherits</text></g><!--SRC=[SqqfJKuioSpFIypnp2ikoImf1N4KR6fqTHL2ypBBKekACqig5QmKClCoKeioIugva4J1ga9IapFoW7eyYuiIK-66fFgdWINoS_BJaRK30000]--></g></svg>