<?xml version="1.0" encoding="us-ascii" standalone="no"?><svg xmlns="http://www.w3.org/2000/svg" xmlns:xlink="http://www.w3.org/1999/xlink" contentStyleType="text/css" height="316px" preserveAspectRatio="none" style="width:295px;height:316px;background:#FFFFFF;" version="1.1" viewBox="0 0 295 316" width="295px" zoomAndPan="magnify"><defs/><g><!--class EducationalInstitution--><g id="elem_EducationalInstitution"><rect fill="#F1F1F1" height="48" id="EducationalInstitution" rx="2.5" ry="2.5" style="stroke:#181818;stroke-width:0.5;" width="166" x="64.5" y="7"/><ellipse cx="79.5" cy="23" fill="#ADD1B2" rx="11" ry="11" style="stroke:#181818;stroke-width:1.0;"/><path d="M78.8438,28.8594 Q76.8594,28.8594 75.6875,27.3906 Q74.5313,25.9063 74.5313,22.8281 Q74.5313,20.2188 75.75,18.4688 Q76.9844,16.7188 79.1094,16.7188 Q79.6094,16.7188 80.1406,16.8594 Q80.5781,17.0469 80.8438,17.0469 Q81.0625,17.0469 81.1563,17 Q81.2656,16.9531 81.7188,16.3594 L82.4844,20.0938 L81.5938,20.3594 Q81.1406,18.9063 80.5313,18.3125 Q79.9375,17.7031 78.9844,17.7031 Q77.7656,17.7031 77.0469,19.1406 Q76.3281,20.5625 76.3281,22.75 Q76.3281,25.1563 76.9375,26.4531 Q77.5625,27.7344 78.9219,27.7344 Q79.875,27.7344 80.5625,27.0469 Q81.25,26.3438 81.5781,24.8438 L82.4844,25.25 Q82.0781,26.9531 81.1094,27.9063 Q80.1563,28.8594 78.8438,28.8594 Z " fill="#000000"/><text fill="#000000" font-family="sans-serif" font-size="14" lengthAdjust="spacing" textLength="134" x="93.5" y="29.4839">EducationalInstitution</text><line style="stroke:#181818;stroke-width:0.5;" x1="65.5" x2="229.5" y1="39" y2="39"/><line style="stroke:#181818;stroke-width:0.5;" x1="65.5" x2="229.5" y1="47" y2="47"/></g><!--class University--><g id="elem_University"><rect fill="#F1F1F1" height="48" id="University" rx="2.5" ry="2.5" style="stroke:#181818;stroke-width:0.5;" width="93" x="101" y="134"/><ellipse cx="116" cy="150" fill="#ADD1B2" rx="11" ry="11" style="stroke:#181818;stroke-width:1.0;"/><path d="M115.3438,155.8594 Q113.3594,155.8594 112.1875,154.3906 Q111.0313,152.9063 111.0313,149.8281 Q111.0313,147.2188 112.25,145.4688 Q113.4844,143.7188 115.6094,143.7188 Q116.1094,143.7188 116.6406,143.8594 Q117.0781,144.0469 117.3438,144.0469 Q117.5625,144.0469 117.6563,144 Q117.7656,143.9531 118.2188,143.3594 L118.9844,147.0938 L118.0938,147.3594 Q117.6406,145.9063 117.0313,145.3125 Q116.4375,144.7031 115.4844,144.7031 Q114.2656,144.7031 113.5469,146.1406 Q112.8281,147.5625 112.8281,149.75 Q112.8281,152.1563 113.4375,153.4531 Q114.0625,154.7344 115.4219,154.7344 Q116.375,154.7344 117.0625,154.0469 Q117.75,153.3438 118.0781,151.8438 L118.9844,152.25 Q118.5781,153.9531 117.6094,154.9063 Q116.6563,155.8594 115.3438,155.8594 Z " fill="#000000"/><text fill="#000000" font-family="sans-serif" font-size="14" lengthAdjust="spacing" textLength="61" x="130" y="156.4839">University</text><line style="stroke:#181818;stroke-width:0.5;" x1="102" x2="193" y1="166" y2="166"/><line style="stroke:#181818;stroke-width:0.5;" x1="102" x2="193" y1="174" y2="174"/></g><!--class NationalAutonomousUniversityOfMexico--><g id="elem_NationalAutonomousUniversityOfMexico"><rect fill="#F1F1F1" height="48" id="NationalAutonomousUniversityOfMexico" rx="2.5" ry="2.5" style="stroke:#181818;stroke-width:0.5;" width="281" x="7" y="261"/><ellipse cx="22" cy="277" fill="#ADD1B2" rx="11" ry="11" style="stroke:#181818;stroke-width:1.0;"/><path d="M21.3438,282.8594 Q19.3594,282.8594 18.1875,281.3906 Q17.0313,279.9063 17.0313,276.8281 Q17.0313,274.2188 18.25,272.4688 Q19.4844,270.7188 21.6094,270.7188 Q22.1094,270.7188 22.6406,270.8594 Q23.0781,271.0469 23.3438,271.0469 Q23.5625,271.0469 23.6563,271 Q23.7656,270.9531 24.2188,270.3594 L24.9844,274.0938 L24.0938,274.3594 Q23.6406,272.9063 23.0313,272.3125 Q22.4375,271.7031 21.4844,271.7031 Q20.2656,271.7031 19.5469,273.1406 Q18.8281,274.5625 18.8281,276.75 Q18.8281,279.1563 19.4375,280.4531 Q20.0625,281.7344 21.4219,281.7344 Q22.375,281.7344 23.0625,281.0469 Q23.75,280.3438 24.0781,278.8438 L24.9844,279.25 Q24.5781,280.9531 23.6094,281.9063 Q22.6563,282.8594 21.3438,282.8594 Z " fill="#000000"/><text fill="#000000" font-family="sans-serif" font-size="14" lengthAdjust="spacing" textLength="249" x="36" y="283.4839">NationalAutonomousUniversityOfMexico</text><line style="stroke:#181818;stroke-width:0.5;" x1="8" x2="287" y1="293" y2="293"/><line style="stroke:#181818;stroke-width:0.5;" x1="8" x2="287" y1="301" y2="301"/></g><!--reverse link EducationalInstitution to University--><g id="link_EducationalInstitution_University"><path codeLine="1" d="M147.5,73.22 C147.5,95.67 147.5,111.5 147.5,133.91 " fill="none" id="EducationalInstitution-backto-University" style="stroke:#181818;stroke-width:1.0;"/><polygon fill="none" points="147.5,55.22,141.5,73.22,153.5,73.22,147.5,55.22" style="stroke:#181818;stroke-width:1.0;"/><text fill="#000000" font-family="sans-serif" font-size="13" lengthAdjust="spacing" textLength="42" x="148.5" y="100.8979">inherits</text></g><!--reverse link University to NationalAutonomousUniversityOfMexico--><g id="link_University_NationalAutonomousUniversityOfMexico"><path codeLine="2" d="M147.5,200.22 C147.5,222.67 147.5,238.5 147.5,260.91 " fill="none" id="University-backto-NationalAutonomousUniversityOfMexico" style="stroke:#181818;stroke-width:1.0;"/><polygon fill="none" points="147.5,182.22,141.5,200.22,153.5,200.22,147.5,182.22" style="stroke:#181818;stroke-width:1.0;"/><text fill="#000000" font-family="sans-serif" font-size="13" lengthAdjust="spacing" textLength="42" x="148.5" y="227.8979">inherits</text></g><!--SRC=[SqqfJKuioSpFIypnp2ikoImf1N4KR6fqTHL2ypBBKekACqig5QmKClCoKeioIugva4J1gloWsXrBI_BpydFpIuiHAlpJV5ChCfFpaVG30000]--></g></svg>