<?xml version="1.0" encoding="us-ascii" standalone="no"?><svg xmlns="http://www.w3.org/2000/svg" xmlns:xlink="http://www.w3.org/1999/xlink" contentStyleType="text/css" height="316px" preserveAspectRatio="none" style="width:262px;height:316px;background:#FFFFFF;" version="1.1" viewBox="0 0 262 316" width="262px" zoomAndPan="magnify"><defs/><g><!--class EducationalInstitution--><g id="elem_EducationalInstitution"><rect fill="#F1F1F1" height="48" id="EducationalInstitution" rx="2.5" ry="2.5" style="stroke:#181818;stroke-width:0.5;" width="166" x="48" y="7"/><ellipse cx="63" cy="23" fill="#ADD1B2" rx="11" ry="11" style="stroke:#181818;stroke-width:1.0;"/><path d="M62.3438,28.8594 Q60.3594,28.8594 59.1875,27.3906 Q58.0313,25.9063 58.0313,22.8281 Q58.0313,20.2188 59.25,18.4688 Q60.4844,16.7188 62.6094,16.7188 Q63.1094,16.7188 63.6406,16.8594 Q64.0781,17.0469 64.3438,17.0469 Q64.5625,17.0469 64.6563,17 Q64.7656,16.9531 65.2188,16.3594 L65.9844,20.0938 L65.0938,20.3594 Q64.6406,18.9063 64.0313,18.3125 Q63.4375,17.7031 62.4844,17.7031 Q61.2656,17.7031 60.5469,19.1406 Q59.8281,20.5625 59.8281,22.75 Q59.8281,25.1563 60.4375,26.4531 Q61.0625,27.7344 62.4219,27.7344 Q63.375,27.7344 64.0625,27.0469 Q64.75,26.3438 65.0781,24.8438 L65.9844,25.25 Q65.5781,26.9531 64.6094,27.9063 Q63.6563,28.8594 62.3438,28.8594 Z " fill="#000000"/><text fill="#000000" font-family="sans-serif" font-size="14" lengthAdjust="spacing" textLength="134" x="77" y="29.4839">EducationalInstitution</text><line style="stroke:#181818;stroke-width:0.5;" x1="49" x2="213" y1="39" y2="39"/><line style="stroke:#181818;stroke-width:0.5;" x1="49" x2="213" y1="47" y2="47"/></g><!--class University--><g id="elem_University"><rect fill="#F1F1F1" height="48" id="University" rx="2.5" ry="2.5" style="stroke:#181818;stroke-width:0.5;" width="93" x="84.5" y="134"/><ellipse cx="99.5" cy="150" fill="#ADD1B2" rx="11" ry="11" style="stroke:#181818;stroke-width:1.0;"/><path d="M98.8438,155.8594 Q96.8594,155.8594 95.6875,154.3906 Q94.5313,152.9063 94.5313,149.8281 Q94.5313,147.2188 95.75,145.4688 Q96.9844,143.7188 99.1094,143.7188 Q99.6094,143.7188 100.1406,143.8594 Q100.5781,144.0469 100.8438,144.0469 Q101.0625,144.0469 101.1563,144 Q101.2656,143.9531 101.7188,143.3594 L102.4844,147.0938 L101.5938,147.3594 Q101.1406,145.9063 100.5313,145.3125 Q99.9375,144.7031 98.9844,144.7031 Q97.7656,144.7031 97.0469,146.1406 Q96.3281,147.5625 96.3281,149.75 Q96.3281,152.1563 96.9375,153.4531 Q97.5625,154.7344 98.9219,154.7344 Q99.875,154.7344 100.5625,154.0469 Q101.25,153.3438 101.5781,151.8438 L102.4844,152.25 Q102.0781,153.9531 101.1094,154.9063 Q100.1563,155.8594 98.8438,155.8594 Z " fill="#000000"/><text fill="#000000" font-family="sans-serif" font-size="14" lengthAdjust="spacing" textLength="61" x="113.5" y="156.4839">University</text><line style="stroke:#181818;stroke-width:0.5;" x1="85.5" x2="176.5" y1="166" y2="166"/><line style="stroke:#181818;stroke-width:0.5;" x1="85.5" x2="176.5" y1="174" y2="174"/></g><!--class PontificalCatholicUniversityOfChile--><g id="elem_PontificalCatholicUniversityOfChile"><rect fill="#F1F1F1" height="48" id="PontificalCatholicUniversityOfChile" rx="2.5" ry="2.5" style="stroke:#181818;stroke-width:0.5;" width="248" x="7" y="261"/><ellipse cx="22" cy="277" fill="#ADD1B2" rx="11" ry="11" style="stroke:#181818;stroke-width:1.0;"/><path d="M21.3438,282.8594 Q19.3594,282.8594 18.1875,281.3906 Q17.0313,279.9063 17.0313,276.8281 Q17.0313,274.2188 18.25,272.4688 Q19.4844,270.7188 21.6094,270.7188 Q22.1094,270.7188 22.6406,270.8594 Q23.0781,271.0469 23.3438,271.0469 Q23.5625,271.0469 23.6563,271 Q23.7656,270.9531 24.2188,270.3594 L24.9844,274.0938 L24.0938,274.3594 Q23.6406,272.9063 23.0313,272.3125 Q22.4375,271.7031 21.4844,271.7031 Q20.2656,271.7031 19.5469,273.1406 Q18.8281,274.5625 18.8281,276.75 Q18.8281,279.1563 19.4375,280.4531 Q20.0625,281.7344 21.4219,281.7344 Q22.375,281.7344 23.0625,281.0469 Q23.75,280.3438 24.0781,278.8438 L24.9844,279.25 Q24.5781,280.9531 23.6094,281.9063 Q22.6563,282.8594 21.3438,282.8594 Z " fill="#000000"/><text fill="#000000" font-family="sans-serif" font-size="14" lengthAdjust="spacing" textLength="216" x="36" y="283.4839">PontificalCatholicUniversityOfChile</text><line style="stroke:#181818;stroke-width:0.5;" x1="8" x2="254" y1="293" y2="293"/><line style="stroke:#181818;stroke-width:0.5;" x1="8" x2="254" y1="301" y2="301"/></g><!--reverse link EducationalInstitution to University--><g id="link_EducationalInstitution_University"><path codeLine="1" d="M131,73.22 C131,95.67 131,111.5 131,133.91 " fill="none" id="EducationalInstitution-backto-University" style="stroke:#181818;stroke-width:1.0;"/><polygon fill="none" points="131,55.22,125,73.22,137,73.22,131,55.22" style="stroke:#181818;stroke-width:1.0;"/><text fill="#000000" font-family="sans-serif" font-size="13" lengthAdjust="spacing" textLength="42" x="132" y="100.8979">inherits</text></g><!--reverse link University to PontificalCatholicUniversityOfChile--><g id="link_University_PontificalCatholicUniversityOfChile"><path codeLine="2" d="M131,200.22 C131,222.67 131,238.5 131,260.91 " fill="none" id="University-backto-PontificalCatholicUniversityOfChile" style="stroke:#181818;stroke-width:1.0;"/><polygon fill="none" points="131,182.22,125,200.22,137,200.22,131,182.22" style="stroke:#181818;stroke-width:1.0;"/><text fill="#000000" font-family="sans-serif" font-size="13" lengthAdjust="spacing" textLength="42" x="132" y="227.8979">inherits</text></g><!--SRC=[SqqfJKuioSpFIypnp2ikoImf1N4KR6fqTHL2ypBBKekACqig5QmKClCoKeioIugva4J1gWBoyqeoqpAJ4tES4qioydCoan4g_DESCp9pKf6q0m00]--></g></svg>