<?xml version="1.0" encoding="us-ascii" standalone="no"?><svg xmlns="http://www.w3.org/2000/svg" xmlns:xlink="http://www.w3.org/1999/xlink" contentStyleType="text/css" height="316px" preserveAspectRatio="none" style="width:229px;height:316px;background:#FFFFFF;" version="1.1" viewBox="0 0 229 316" width="229px" zoomAndPan="magnify"><defs/><g><!--class EducationalInstitution--><g id="elem_EducationalInstitution"><rect fill="#F1F1F1" height="48" id="EducationalInstitution" rx="2.5" ry="2.5" style="stroke:#181818;stroke-width:0.5;" width="166" x="31.5" y="7"/><ellipse cx="46.5" cy="23" fill="#ADD1B2" rx="11" ry="11" style="stroke:#181818;stroke-width:1.0;"/><path d="M45.8438,28.8594 Q43.8594,28.8594 42.6875,27.3906 Q41.5313,25.9063 41.5313,22.8281 Q41.5313,20.2188 42.75,18.4688 Q43.9844,16.7188 46.1094,16.7188 Q46.6094,16.7188 47.1406,16.8594 Q47.5781,17.0469 47.8438,17.0469 Q48.0625,17.0469 48.1563,17 Q48.2656,16.9531 48.7188,16.3594 L49.4844,20.0938 L48.5938,20.3594 Q48.1406,18.9063 47.5313,18.3125 Q46.9375,17.7031 45.9844,17.7031 Q44.7656,17.7031 44.0469,19.1406 Q43.3281,20.5625 43.3281,22.75 Q43.3281,25.1563 43.9375,26.4531 Q44.5625,27.7344 45.9219,27.7344 Q46.875,27.7344 47.5625,27.0469 Q48.25,26.3438 48.5781,24.8438 L49.4844,25.25 Q49.0781,26.9531 48.1094,27.9063 Q47.1563,28.8594 45.8438,28.8594 Z " fill="#000000"/><text fill="#000000" font-family="sans-serif" font-size="14" lengthAdjust="spacing" textLength="134" x="60.5" y="29.4839">EducationalInstitution</text><line style="stroke:#181818;stroke-width:0.5;" x1="32.5" x2="196.5" y1="39" y2="39"/><line style="stroke:#181818;stroke-width:0.5;" x1="32.5" x2="196.5" y1="47" y2="47"/></g><!--class University--><g id="elem_University"><rect fill="#F1F1F1" height="48" id="University" rx="2.5" ry="2.5" style="stroke:#181818;stroke-width:0.5;" width="93" x="68" y="134"/><ellipse cx="83" cy="150" fill="#ADD1B2" rx="11" ry="11" style="stroke:#181818;stroke-width:1.0;"/><path d="M82.3438,155.8594 Q80.3594,155.8594 79.1875,154.3906 Q78.0313,152.9063 78.0313,149.8281 Q78.0313,147.2188 79.25,145.4688 Q80.4844,143.7188 82.6094,143.7188 Q83.1094,143.7188 83.6406,143.8594 Q84.0781,144.0469 84.3438,144.0469 Q84.5625,144.0469 84.6563,144 Q84.7656,143.9531 85.2188,143.3594 L85.9844,147.0938 L85.0938,147.3594 Q84.6406,145.9063 84.0313,145.3125 Q83.4375,144.7031 82.4844,144.7031 Q81.2656,144.7031 80.5469,146.1406 Q79.8281,147.5625 79.8281,149.75 Q79.8281,152.1563 80.4375,153.4531 Q81.0625,154.7344 82.4219,154.7344 Q83.375,154.7344 84.0625,154.0469 Q84.75,153.3438 85.0781,151.8438 L85.9844,152.25 Q85.5781,153.9531 84.6094,154.9063 Q83.6563,155.8594 82.3438,155.8594 Z " fill="#000000"/><text fill="#000000" font-family="sans-serif" font-size="14" lengthAdjust="spacing" textLength="61" x="97" y="156.4839">University</text><line style="stroke:#181818;stroke-width:0.5;" x1="69" x2="160" y1="166" y2="166"/><line style="stroke:#181818;stroke-width:0.5;" x1="69" x2="160" y1="174" y2="174"/></g><!--class UniversityOfColoradoBoulder--><g id="elem_UniversityOfColoradoBoulder"><rect fill="#F1F1F1" height="48" id="UniversityOfColoradoBoulder" rx="2.5" ry="2.5" style="stroke:#181818;stroke-width:0.5;" width="215" x="7" y="261"/><ellipse cx="22" cy="277" fill="#ADD1B2" rx="11" ry="11" style="stroke:#181818;stroke-width:1.0;"/><path d="M21.3438,282.8594 Q19.3594,282.8594 18.1875,281.3906 Q17.0313,279.9063 17.0313,276.8281 Q17.0313,274.2188 18.25,272.4688 Q19.4844,270.7188 21.6094,270.7188 Q22.1094,270.7188 22.6406,270.8594 Q23.0781,271.0469 23.3438,271.0469 Q23.5625,271.0469 23.6563,271 Q23.7656,270.9531 24.2188,270.3594 L24.9844,274.0938 L24.0938,274.3594 Q23.6406,272.9063 23.0313,272.3125 Q22.4375,271.7031 21.4844,271.7031 Q20.2656,271.7031 19.5469,273.1406 Q18.8281,274.5625 18.8281,276.75 Q18.8281,279.1563 19.4375,280.4531 Q20.0625,281.7344 21.4219,281.7344 Q22.375,281.7344 23.0625,281.0469 Q23.75,280.3438 24.0781,278.8438 L24.9844,279.25 Q24.5781,280.9531 23.6094,281.9063 Q22.6563,282.8594 21.3438,282.8594 Z " fill="#000000"/><text fill="#000000" font-family="sans-serif" font-size="14" lengthAdjust="spacing" textLength="183" x="36" y="283.4839">UniversityOfColoradoBoulder</text><line style="stroke:#181818;stroke-width:0.5;" x1="8" x2="221" y1="293" y2="293"/><line style="stroke:#181818;stroke-width:0.5;" x1="8" x2="221" y1="301" y2="301"/></g><!--reverse link EducationalInstitution to University--><g id="link_EducationalInstitution_University"><path codeLine="1" d="M114.5,73.22 C114.5,95.67 114.5,111.5 114.5,133.91 " fill="none" id="EducationalInstitution-backto-University" style="stroke:#181818;stroke-width:1.0;"/><polygon fill="none" points="114.5,55.22,108.5,73.22,120.5,73.22,114.5,55.22" style="stroke:#181818;stroke-width:1.0;"/><text fill="#000000" font-family="sans-serif" font-size="13" lengthAdjust="spacing" textLength="42" x="115.5" y="100.8979">inherits</text></g><!--reverse link University to UniversityOfColoradoBoulder--><g id="link_University_UniversityOfColoradoBoulder"><path codeLine="2" d="M114.5,200.22 C114.5,222.67 114.5,238.5 114.5,260.91 " fill="none" id="University-backto-UniversityOfColoradoBoulder" style="stroke:#181818;stroke-width:1.0;"/><polygon fill="none" points="114.5,182.22,108.5,200.22,120.5,200.22,114.5,182.22" style="stroke:#181818;stroke-width:1.0;"/><text fill="#000000" font-family="sans-serif" font-size="13" lengthAdjust="spacing" textLength="42" x="115.5" y="227.8979">inherits</text></g><!--SRC=[SqqfJKuioSpFIypnp2ikoImf1N4KR6fqTHL2ypBBKekACqig5QmKClCoKeioIugva4JHLFcdEUVdv1SbfkGxvPVcfAGM8Ma30000]--></g></svg>