<?xml version="1.0" encoding="us-ascii" standalone="no"?><svg xmlns="http://www.w3.org/2000/svg" xmlns:xlink="http://www.w3.org/1999/xlink" contentStyleType="text/css" height="316px" preserveAspectRatio="none" style="width:337px;height:316px;background:#FFFFFF;" version="1.1" viewBox="0 0 337 316" width="337px" zoomAndPan="magnify"><defs/><g><!--class EducationalInstitution--><g id="elem_EducationalInstitution"><rect fill="#F1F1F1" height="48" id="EducationalInstitution" rx="2.5" ry="2.5" style="stroke:#181818;stroke-width:0.5;" width="166" x="85.5" y="7"/><ellipse cx="100.5" cy="23" fill="#ADD1B2" rx="11" ry="11" style="stroke:#181818;stroke-width:1.0;"/><path d="M99.8438,28.8594 Q97.8594,28.8594 96.6875,27.3906 Q95.5313,25.9063 95.5313,22.8281 Q95.5313,20.2188 96.75,18.4688 Q97.9844,16.7188 100.1094,16.7188 Q100.6094,16.7188 101.1406,16.8594 Q101.5781,17.0469 101.8438,17.0469 Q102.0625,17.0469 102.1563,17 Q102.2656,16.9531 102.7188,16.3594 L103.4844,20.0938 L102.5938,20.3594 Q102.1406,18.9063 101.5313,18.3125 Q100.9375,17.7031 99.9844,17.7031 Q98.7656,17.7031 98.0469,19.1406 Q97.3281,20.5625 97.3281,22.75 Q97.3281,25.1563 97.9375,26.4531 Q98.5625,27.7344 99.9219,27.7344 Q100.875,27.7344 101.5625,27.0469 Q102.25,26.3438 102.5781,24.8438 L103.4844,25.25 Q103.0781,26.9531 102.1094,27.9063 Q101.1563,28.8594 99.8438,28.8594 Z " fill="#000000"/><text fill="#000000" font-family="sans-serif" font-size="14" lengthAdjust="spacing" textLength="134" x="114.5" y="29.4839">EducationalInstitution</text><line style="stroke:#181818;stroke-width:0.5;" x1="86.5" x2="250.5" y1="39" y2="39"/><line style="stroke:#181818;stroke-width:0.5;" x1="86.5" x2="250.5" y1="47" y2="47"/></g><!--class University--><g id="elem_University"><rect fill="#F1F1F1" height="48" id="University" rx="2.5" ry="2.5" style="stroke:#181818;stroke-width:0.5;" width="93" x="122" y="134"/><ellipse cx="137" cy="150" fill="#ADD1B2" rx="11" ry="11" style="stroke:#181818;stroke-width:1.0;"/><path d="M136.3438,155.8594 Q134.3594,155.8594 133.1875,154.3906 Q132.0313,152.9063 132.0313,149.8281 Q132.0313,147.2188 133.25,145.4688 Q134.4844,143.7188 136.6094,143.7188 Q137.1094,143.7188 137.6406,143.8594 Q138.0781,144.0469 138.3438,144.0469 Q138.5625,144.0469 138.6563,144 Q138.7656,143.9531 139.2188,143.3594 L139.9844,147.0938 L139.0938,147.3594 Q138.6406,145.9063 138.0313,145.3125 Q137.4375,144.7031 136.4844,144.7031 Q135.2656,144.7031 134.5469,146.1406 Q133.8281,147.5625 133.8281,149.75 Q133.8281,152.1563 134.4375,153.4531 Q135.0625,154.7344 136.4219,154.7344 Q137.375,154.7344 138.0625,154.0469 Q138.75,153.3438 139.0781,151.8438 L139.9844,152.25 Q139.5781,153.9531 138.6094,154.9063 Q137.6563,155.8594 136.3438,155.8594 Z " fill="#000000"/><text fill="#000000" font-family="sans-serif" font-size="14" lengthAdjust="spacing" textLength="61" x="151" y="156.4839">University</text><line style="stroke:#181818;stroke-width:0.5;" x1="123" x2="214" y1="166" y2="166"/><line style="stroke:#181818;stroke-width:0.5;" x1="123" x2="214" y1="174" y2="174"/></g><!--class NorwegianUniversityOfScienceAndTechnology--><g id="elem_NorwegianUniversityOfScienceAndTechnology"><rect fill="#F1F1F1" height="48" id="NorwegianUniversityOfScienceAndTechnology" rx="2.5" ry="2.5" style="stroke:#181818;stroke-width:0.5;" width="323" x="7" y="261"/><ellipse cx="22" cy="277" fill="#ADD1B2" rx="11" ry="11" style="stroke:#181818;stroke-width:1.0;"/><path d="M21.3438,282.8594 Q19.3594,282.8594 18.1875,281.3906 Q17.0313,279.9063 17.0313,276.8281 Q17.0313,274.2188 18.25,272.4688 Q19.4844,270.7188 21.6094,270.7188 Q22.1094,270.7188 22.6406,270.8594 Q23.0781,271.0469 23.3438,271.0469 Q23.5625,271.0469 23.6563,271 Q23.7656,270.9531 24.2188,270.3594 L24.9844,274.0938 L24.0938,274.3594 Q23.6406,272.9063 23.0313,272.3125 Q22.4375,271.7031 21.4844,271.7031 Q20.2656,271.7031 19.5469,273.1406 Q18.8281,274.5625 18.8281,276.75 Q18.8281,279.1563 19.4375,280.4531 Q20.0625,281.7344 21.4219,281.7344 Q22.375,281.7344 23.0625,281.0469 Q23.75,280.3438 24.0781,278.8438 L24.9844,279.25 Q24.5781,280.9531 23.6094,281.9063 Q22.6563,282.8594 21.3438,282.8594 Z " fill="#000000"/><text fill="#000000" font-family="sans-serif" font-size="14" lengthAdjust="spacing" textLength="291" x="36" y="283.4839">NorwegianUniversityOfScienceAndTechnology</text><line style="stroke:#181818;stroke-width:0.5;" x1="8" x2="329" y1="293" y2="293"/><line style="stroke:#181818;stroke-width:0.5;" x1="8" x2="329" y1="301" y2="301"/></g><!--reverse link EducationalInstitution to University--><g id="link_EducationalInstitution_University"><path codeLine="1" d="M168.5,73.22 C168.5,95.67 168.5,111.5 168.5,133.91 " fill="none" id="EducationalInstitution-backto-University" style="stroke:#181818;stroke-width:1.0;"/><polygon fill="none" points="168.5,55.22,162.5,73.22,174.5,73.22,168.5,55.22" style="stroke:#181818;stroke-width:1.0;"/><text fill="#000000" font-family="sans-serif" font-size="13" lengthAdjust="spacing" textLength="42" x="169.5" y="100.8979">inherits</text></g><!--reverse link University to NorwegianUniversityOfScienceAndTechnology--><g id="link_University_NorwegianUniversityOfScienceAndTechnology"><path codeLine="2" d="M168.5,200.22 C168.5,222.67 168.5,238.5 168.5,260.91 " fill="none" id="University-backto-NorwegianUniversityOfScienceAndTechnology" style="stroke:#181818;stroke-width:1.0;"/><polygon fill="none" points="168.5,182.22,162.5,200.22,174.5,200.22,168.5,182.22" style="stroke:#181818;stroke-width:1.0;"/><text fill="#000000" font-family="sans-serif" font-size="13" lengthAdjust="spacing" textLength="42" x="169.5" y="227.8979">inherits</text></g><!--SRC=[SqqfJKuioSpFIypnp2ikoImf1N4KR6fqTHL2ypBBKekACqig5QmKClCoKeioIugva4J1glpoYyfJqpCJyn0I_cd1oPcfUScfZdaf8Qd96NdvEVdfo8O00000]--></g></svg>