<?xml version="1.0" encoding="us-ascii" standalone="no"?><svg xmlns="http://www.w3.org/2000/svg" xmlns:xlink="http://www.w3.org/1999/xlink" contentStyleType="text/css" height="316px" preserveAspectRatio="none" style="width:349px;height:316px;background:#FFFFFF;" version="1.1" viewBox="0 0 349 316" width="349px" zoomAndPan="magnify"><defs/><g><!--class EducationalInstitution--><g id="elem_EducationalInstitution"><rect fill="#F1F1F1" height="48" id="EducationalInstitution" rx="2.5" ry="2.5" style="stroke:#181818;stroke-width:0.5;" width="166" x="91.5" y="7"/><ellipse cx="106.5" cy="23" fill="#ADD1B2" rx="11" ry="11" style="stroke:#181818;stroke-width:1.0;"/><path d="M105.8438,28.8594 Q103.8594,28.8594 102.6875,27.3906 Q101.5313,25.9063 101.5313,22.8281 Q101.5313,20.2188 102.75,18.4688 Q103.9844,16.7188 106.1094,16.7188 Q106.6094,16.7188 107.1406,16.8594 Q107.5781,17.0469 107.8438,17.0469 Q108.0625,17.0469 108.1563,17 Q108.2656,16.9531 108.7188,16.3594 L109.4844,20.0938 L108.5938,20.3594 Q108.1406,18.9063 107.5313,18.3125 Q106.9375,17.7031 105.9844,17.7031 Q104.7656,17.7031 104.0469,19.1406 Q103.3281,20.5625 103.3281,22.75 Q103.3281,25.1563 103.9375,26.4531 Q104.5625,27.7344 105.9219,27.7344 Q106.875,27.7344 107.5625,27.0469 Q108.25,26.3438 108.5781,24.8438 L109.4844,25.25 Q109.0781,26.9531 108.1094,27.9063 Q107.1563,28.8594 105.8438,28.8594 Z " fill="#000000"/><text fill="#000000" font-family="sans-serif" font-size="14" lengthAdjust="spacing" textLength="134" x="120.5" y="29.4839">EducationalInstitution</text><line style="stroke:#181818;stroke-width:0.5;" x1="92.5" x2="256.5" y1="39" y2="39"/><line style="stroke:#181818;stroke-width:0.5;" x1="92.5" x2="256.5" y1="47" y2="47"/></g><!--class University--><g id="elem_University"><rect fill="#F1F1F1" height="48" id="University" rx="2.5" ry="2.5" style="stroke:#181818;stroke-width:0.5;" width="93" x="128" y="134"/><ellipse cx="143" cy="150" fill="#ADD1B2" rx="11" ry="11" style="stroke:#181818;stroke-width:1.0;"/><path d="M142.3438,155.8594 Q140.3594,155.8594 139.1875,154.3906 Q138.0313,152.9063 138.0313,149.8281 Q138.0313,147.2188 139.25,145.4688 Q140.4844,143.7188 142.6094,143.7188 Q143.1094,143.7188 143.6406,143.8594 Q144.0781,144.0469 144.3438,144.0469 Q144.5625,144.0469 144.6563,144 Q144.7656,143.9531 145.2188,143.3594 L145.9844,147.0938 L145.0938,147.3594 Q144.6406,145.9063 144.0313,145.3125 Q143.4375,144.7031 142.4844,144.7031 Q141.2656,144.7031 140.5469,146.1406 Q139.8281,147.5625 139.8281,149.75 Q139.8281,152.1563 140.4375,153.4531 Q141.0625,154.7344 142.4219,154.7344 Q143.375,154.7344 144.0625,154.0469 Q144.75,153.3438 145.0781,151.8438 L145.9844,152.25 Q145.5781,153.9531 144.6094,154.9063 Q143.6563,155.8594 142.3438,155.8594 Z " fill="#000000"/><text fill="#000000" font-family="sans-serif" font-size="14" lengthAdjust="spacing" textLength="61" x="157" y="156.4839">University</text><line style="stroke:#181818;stroke-width:0.5;" x1="129" x2="220" y1="166" y2="166"/><line style="stroke:#181818;stroke-width:0.5;" x1="129" x2="220" y1="174" y2="174"/></g><!--class BudapestUniversityOfTechnologyAndEconomics--><g id="elem_BudapestUniversityOfTechnologyAndEconomics"><rect fill="#F1F1F1" height="48" id="BudapestUniversityOfTechnologyAndEconomics" rx="2.5" ry="2.5" style="stroke:#181818;stroke-width:0.5;" width="335" x="7" y="261"/><ellipse cx="22" cy="277" fill="#ADD1B2" rx="11" ry="11" style="stroke:#181818;stroke-width:1.0;"/><path d="M21.3438,282.8594 Q19.3594,282.8594 18.1875,281.3906 Q17.0313,279.9063 17.0313,276.8281 Q17.0313,274.2188 18.25,272.4688 Q19.4844,270.7188 21.6094,270.7188 Q22.1094,270.7188 22.6406,270.8594 Q23.0781,271.0469 23.3438,271.0469 Q23.5625,271.0469 23.6563,271 Q23.7656,270.9531 24.2188,270.3594 L24.9844,274.0938 L24.0938,274.3594 Q23.6406,272.9063 23.0313,272.3125 Q22.4375,271.7031 21.4844,271.7031 Q20.2656,271.7031 19.5469,273.1406 Q18.8281,274.5625 18.8281,276.75 Q18.8281,279.1563 19.4375,280.4531 Q20.0625,281.7344 21.4219,281.7344 Q22.375,281.7344 23.0625,281.0469 Q23.75,280.3438 24.0781,278.8438 L24.9844,279.25 Q24.5781,280.9531 23.6094,281.9063 Q22.6563,282.8594 21.3438,282.8594 Z " fill="#000000"/><text fill="#000000" font-family="sans-serif" font-size="14" lengthAdjust="spacing" textLength="303" x="36" y="283.4839">BudapestUniversityOfTechnologyAndEconomics</text><line style="stroke:#181818;stroke-width:0.5;" x1="8" x2="341" y1="293" y2="293"/><line style="stroke:#181818;stroke-width:0.5;" x1="8" x2="341" y1="301" y2="301"/></g><!--reverse link EducationalInstitution to University--><g id="link_EducationalInstitution_University"><path codeLine="1" d="M174.5,73.22 C174.5,95.67 174.5,111.5 174.5,133.91 " fill="none" id="EducationalInstitution-backto-University" style="stroke:#181818;stroke-width:1.0;"/><polygon fill="none" points="174.5,55.22,168.5,73.22,180.5,73.22,174.5,55.22" style="stroke:#181818;stroke-width:1.0;"/><text fill="#000000" font-family="sans-serif" font-size="13" lengthAdjust="spacing" textLength="42" x="175.5" y="100.8979">inherits</text></g><!--reverse link University to BudapestUniversityOfTechnologyAndEconomics--><g id="link_University_BudapestUniversityOfTechnologyAndEconomics"><path codeLine="2" d="M174.5,200.22 C174.5,222.67 174.5,238.5 174.5,260.91 " fill="none" id="University-backto-BudapestUniversityOfTechnologyAndEconomics" style="stroke:#181818;stroke-width:1.0;"/><polygon fill="none" points="174.5,182.22,168.5,200.22,180.5,200.22,174.5,182.22" style="stroke:#181818;stroke-width:1.0;"/><text fill="#000000" font-family="sans-serif" font-size="13" lengthAdjust="spacing" textLength="42" x="175.5" y="227.8979">inherits</text></g><!--SRC=[SqqfJKuioSpFIypnp2ikoImf1N4KR6fqTHL2ypBBKekACqig5QmKClCoKeioIugva4J1gfnAKn8BKejB4EB-QI6foHbv-JdvwPMEUIckoVbv-RcPoSL8fW00]--></g></svg>