<?xml version="1.0" encoding="us-ascii" standalone="no"?><svg xmlns="http://www.w3.org/2000/svg" xmlns:xlink="http://www.w3.org/1999/xlink" contentStyleType="text/css" height="316px" preserveAspectRatio="none" style="width:218px;height:316px;background:#FFFFFF;" version="1.1" viewBox="0 0 218 316" width="218px" zoomAndPan="magnify"><defs/><g><!--class EducationalInstitution--><g id="elem_EducationalInstitution"><rect fill="#F1F1F1" height="48" id="EducationalInstitution" rx="2.5" ry="2.5" style="stroke:#181818;stroke-width:0.5;" width="166" x="26" y="7"/><ellipse cx="41" cy="23" fill="#ADD1B2" rx="11" ry="11" style="stroke:#181818;stroke-width:1.0;"/><path d="M40.3438,28.8594 Q38.3594,28.8594 37.1875,27.3906 Q36.0313,25.9063 36.0313,22.8281 Q36.0313,20.2188 37.25,18.4688 Q38.4844,16.7188 40.6094,16.7188 Q41.1094,16.7188 41.6406,16.8594 Q42.0781,17.0469 42.3438,17.0469 Q42.5625,17.0469 42.6563,17 Q42.7656,16.9531 43.2188,16.3594 L43.9844,20.0938 L43.0938,20.3594 Q42.6406,18.9063 42.0313,18.3125 Q41.4375,17.7031 40.4844,17.7031 Q39.2656,17.7031 38.5469,19.1406 Q37.8281,20.5625 37.8281,22.75 Q37.8281,25.1563 38.4375,26.4531 Q39.0625,27.7344 40.4219,27.7344 Q41.375,27.7344 42.0625,27.0469 Q42.75,26.3438 43.0781,24.8438 L43.9844,25.25 Q43.5781,26.9531 42.6094,27.9063 Q41.6563,28.8594 40.3438,28.8594 Z " fill="#000000"/><text fill="#000000" font-family="sans-serif" font-size="14" lengthAdjust="spacing" textLength="134" x="55" y="29.4839">EducationalInstitution</text><line style="stroke:#181818;stroke-width:0.5;" x1="27" x2="191" y1="39" y2="39"/><line style="stroke:#181818;stroke-width:0.5;" x1="27" x2="191" y1="47" y2="47"/></g><!--class University--><g id="elem_University"><rect fill="#F1F1F1" height="48" id="University" rx="2.5" ry="2.5" style="stroke:#181818;stroke-width:0.5;" width="93" x="62.5" y="134"/><ellipse cx="77.5" cy="150" fill="#ADD1B2" rx="11" ry="11" style="stroke:#181818;stroke-width:1.0;"/><path d="M76.8438,155.8594 Q74.8594,155.8594 73.6875,154.3906 Q72.5313,152.9063 72.5313,149.8281 Q72.5313,147.2188 73.75,145.4688 Q74.9844,143.7188 77.1094,143.7188 Q77.6094,143.7188 78.1406,143.8594 Q78.5781,144.0469 78.8438,144.0469 Q79.0625,144.0469 79.1563,144 Q79.2656,143.9531 79.7188,143.3594 L80.4844,147.0938 L79.5938,147.3594 Q79.1406,145.9063 78.5313,145.3125 Q77.9375,144.7031 76.9844,144.7031 Q75.7656,144.7031 75.0469,146.1406 Q74.3281,147.5625 74.3281,149.75 Q74.3281,152.1563 74.9375,153.4531 Q75.5625,154.7344 76.9219,154.7344 Q77.875,154.7344 78.5625,154.0469 Q79.25,153.3438 79.5781,151.8438 L80.4844,152.25 Q80.0781,153.9531 79.1094,154.9063 Q78.1563,155.8594 76.8438,155.8594 Z " fill="#000000"/><text fill="#000000" font-family="sans-serif" font-size="14" lengthAdjust="spacing" textLength="61" x="91.5" y="156.4839">University</text><line style="stroke:#181818;stroke-width:0.5;" x1="63.5" x2="154.5" y1="166" y2="166"/><line style="stroke:#181818;stroke-width:0.5;" x1="63.5" x2="154.5" y1="174" y2="174"/></g><!--class StateUniversityOfCampinas--><g id="elem_StateUniversityOfCampinas"><rect fill="#F1F1F1" height="48" id="StateUniversityOfCampinas" rx="2.5" ry="2.5" style="stroke:#181818;stroke-width:0.5;" width="204" x="7" y="261"/><ellipse cx="22" cy="277" fill="#ADD1B2" rx="11" ry="11" style="stroke:#181818;stroke-width:1.0;"/><path d="M21.3438,282.8594 Q19.3594,282.8594 18.1875,281.3906 Q17.0313,279.9063 17.0313,276.8281 Q17.0313,274.2188 18.25,272.4688 Q19.4844,270.7188 21.6094,270.7188 Q22.1094,270.7188 22.6406,270.8594 Q23.0781,271.0469 23.3438,271.0469 Q23.5625,271.0469 23.6563,271 Q23.7656,270.9531 24.2188,270.3594 L24.9844,274.0938 L24.0938,274.3594 Q23.6406,272.9063 23.0313,272.3125 Q22.4375,271.7031 21.4844,271.7031 Q20.2656,271.7031 19.5469,273.1406 Q18.8281,274.5625 18.8281,276.75 Q18.8281,279.1563 19.4375,280.4531 Q20.0625,281.7344 21.4219,281.7344 Q22.375,281.7344 23.0625,281.0469 Q23.75,280.3438 24.0781,278.8438 L24.9844,279.25 Q24.5781,280.9531 23.6094,281.9063 Q22.6563,282.8594 21.3438,282.8594 Z " fill="#000000"/><text fill="#000000" font-family="sans-serif" font-size="14" lengthAdjust="spacing" textLength="172" x="36" y="283.4839">StateUniversityOfCampinas</text><line style="stroke:#181818;stroke-width:0.5;" x1="8" x2="210" y1="293" y2="293"/><line style="stroke:#181818;stroke-width:0.5;" x1="8" x2="210" y1="301" y2="301"/></g><!--reverse link EducationalInstitution to University--><g id="link_EducationalInstitution_University"><path codeLine="1" d="M109,73.22 C109,95.67 109,111.5 109,133.91 " fill="none" id="EducationalInstitution-backto-University" style="stroke:#181818;stroke-width:1.0;"/><polygon fill="none" points="109,55.22,103,73.22,115,73.22,109,55.22" style="stroke:#181818;stroke-width:1.0;"/><text fill="#000000" font-family="sans-serif" font-size="13" lengthAdjust="spacing" textLength="42" x="110" y="100.8979">inherits</text></g><!--reverse link University to StateUniversityOfCampinas--><g id="link_University_StateUniversityOfCampinas"><path codeLine="2" d="M109,200.22 C109,222.67 109,238.5 109,260.91 " fill="none" id="University-backto-StateUniversityOfCampinas" style="stroke:#181818;stroke-width:1.0;"/><polygon fill="none" points="109,182.22,103,200.22,115,200.22,109,182.22" style="stroke:#181818;stroke-width:1.0;"/><text fill="#000000" font-family="sans-serif" font-size="13" lengthAdjust="spacing" textLength="42" x="110" y="227.8979">inherits</text></g><!--SRC=[SqqfJKuioSpFIypnp2ikoImf1N4KR6fqTHL2ypBBKekACqig5QmKClCoKeioIugva4J1ge9B4ajI4OB-QSw9kGMPUOd5I9e0]--></g></svg>