<?xml version="1.0" encoding="us-ascii" standalone="no"?><svg xmlns="http://www.w3.org/2000/svg" xmlns:xlink="http://www.w3.org/1999/xlink" contentStyleType="text/css" height="316px" preserveAspectRatio="none" style="width:251px;height:316px;background:#FFFFFF;" version="1.1" viewBox="0 0 251 316" width="251px" zoomAndPan="magnify"><defs/><g><!--class EducationalInstitution--><g id="elem_EducationalInstitution"><rect fill="#F1F1F1" height="48" id="EducationalInstitution" rx="2.5" ry="2.5" style="stroke:#181818;stroke-width:0.5;" width="166" x="42.5" y="7"/><ellipse cx="57.5" cy="23" fill="#ADD1B2" rx="11" ry="11" style="stroke:#181818;stroke-width:1.0;"/><path d="M56.8438,28.8594 Q54.8594,28.8594 53.6875,27.3906 Q52.5313,25.9063 52.5313,22.8281 Q52.5313,20.2188 53.75,18.4688 Q54.9844,16.7188 57.1094,16.7188 Q57.6094,16.7188 58.1406,16.8594 Q58.5781,17.0469 58.8438,17.0469 Q59.0625,17.0469 59.1563,17 Q59.2656,16.9531 59.7188,16.3594 L60.4844,20.0938 L59.5938,20.3594 Q59.1406,18.9063 58.5313,18.3125 Q57.9375,17.7031 56.9844,17.7031 Q55.7656,17.7031 55.0469,19.1406 Q54.3281,20.5625 54.3281,22.75 Q54.3281,25.1563 54.9375,26.4531 Q55.5625,27.7344 56.9219,27.7344 Q57.875,27.7344 58.5625,27.0469 Q59.25,26.3438 59.5781,24.8438 L60.4844,25.25 Q60.0781,26.9531 59.1094,27.9063 Q58.1563,28.8594 56.8438,28.8594 Z " fill="#000000"/><text fill="#000000" font-family="sans-serif" font-size="14" lengthAdjust="spacing" textLength="134" x="71.5" y="29.4839">EducationalInstitution</text><line style="stroke:#181818;stroke-width:0.5;" x1="43.5" x2="207.5" y1="39" y2="39"/><line style="stroke:#181818;stroke-width:0.5;" x1="43.5" x2="207.5" y1="47" y2="47"/></g><!--class University--><g id="elem_University"><rect fill="#F1F1F1" height="48" id="University" rx="2.5" ry="2.5" style="stroke:#181818;stroke-width:0.5;" width="93" x="79" y="134"/><ellipse cx="94" cy="150" fill="#ADD1B2" rx="11" ry="11" style="stroke:#181818;stroke-width:1.0;"/><path d="M93.3438,155.8594 Q91.3594,155.8594 90.1875,154.3906 Q89.0313,152.9063 89.0313,149.8281 Q89.0313,147.2188 90.25,145.4688 Q91.4844,143.7188 93.6094,143.7188 Q94.1094,143.7188 94.6406,143.8594 Q95.0781,144.0469 95.3438,144.0469 Q95.5625,144.0469 95.6563,144 Q95.7656,143.9531 96.2188,143.3594 L96.9844,147.0938 L96.0938,147.3594 Q95.6406,145.9063 95.0313,145.3125 Q94.4375,144.7031 93.4844,144.7031 Q92.2656,144.7031 91.5469,146.1406 Q90.8281,147.5625 90.8281,149.75 Q90.8281,152.1563 91.4375,153.4531 Q92.0625,154.7344 93.4219,154.7344 Q94.375,154.7344 95.0625,154.0469 Q95.75,153.3438 96.0781,151.8438 L96.9844,152.25 Q96.5781,153.9531 95.6094,154.9063 Q94.6563,155.8594 93.3438,155.8594 Z " fill="#000000"/><text fill="#000000" font-family="sans-serif" font-size="14" lengthAdjust="spacing" textLength="61" x="108" y="156.4839">University</text><line style="stroke:#181818;stroke-width:0.5;" x1="80" x2="171" y1="166" y2="166"/><line style="stroke:#181818;stroke-width:0.5;" x1="80" x2="171" y1="174" y2="174"/></g><!--class NanyangTechnologicalUniversity--><g id="elem_NanyangTechnologicalUniversity"><rect fill="#F1F1F1" height="48" id="NanyangTechnologicalUniversity" rx="2.5" ry="2.5" style="stroke:#181818;stroke-width:0.5;" width="237" x="7" y="261"/><ellipse cx="22" cy="277" fill="#ADD1B2" rx="11" ry="11" style="stroke:#181818;stroke-width:1.0;"/><path d="M21.3438,282.8594 Q19.3594,282.8594 18.1875,281.3906 Q17.0313,279.9063 17.0313,276.8281 Q17.0313,274.2188 18.25,272.4688 Q19.4844,270.7188 21.6094,270.7188 Q22.1094,270.7188 22.6406,270.8594 Q23.0781,271.0469 23.3438,271.0469 Q23.5625,271.0469 23.6563,271 Q23.7656,270.9531 24.2188,270.3594 L24.9844,274.0938 L24.0938,274.3594 Q23.6406,272.9063 23.0313,272.3125 Q22.4375,271.7031 21.4844,271.7031 Q20.2656,271.7031 19.5469,273.1406 Q18.8281,274.5625 18.8281,276.75 Q18.8281,279.1563 19.4375,280.4531 Q20.0625,281.7344 21.4219,281.7344 Q22.375,281.7344 23.0625,281.0469 Q23.75,280.3438 24.0781,278.8438 L24.9844,279.25 Q24.5781,280.9531 23.6094,281.9063 Q22.6563,282.8594 21.3438,282.8594 Z " fill="#000000"/><text fill="#000000" font-family="sans-serif" font-size="14" lengthAdjust="spacing" textLength="205" x="36" y="283.4839">NanyangTechnologicalUniversity</text><line style="stroke:#181818;stroke-width:0.5;" x1="8" x2="243" y1="293" y2="293"/><line style="stroke:#181818;stroke-width:0.5;" x1="8" x2="243" y1="301" y2="301"/></g><!--reverse link EducationalInstitution to University--><g id="link_EducationalInstitution_University"><path codeLine="1" d="M125.5,73.22 C125.5,95.67 125.5,111.5 125.5,133.91 " fill="none" id="EducationalInstitution-backto-University" style="stroke:#181818;stroke-width:1.0;"/><polygon fill="none" points="125.5,55.22,119.5,73.22,131.5,73.22,125.5,55.22" style="stroke:#181818;stroke-width:1.0;"/><text fill="#000000" font-family="sans-serif" font-size="13" lengthAdjust="spacing" textLength="42" x="126.5" y="100.8979">inherits</text></g><!--reverse link University to NanyangTechnologicalUniversity--><g id="link_University_NanyangTechnologicalUniversity"><path codeLine="2" d="M125.5,200.22 C125.5,222.67 125.5,238.5 125.5,260.91 " fill="none" id="University-backto-NanyangTechnologicalUniversity" style="stroke:#181818;stroke-width:1.0;"/><polygon fill="none" points="125.5,182.22,119.5,200.22,131.5,200.22,125.5,182.22" style="stroke:#181818;stroke-width:1.0;"/><text fill="#000000" font-family="sans-serif" font-size="13" lengthAdjust="spacing" textLength="42" x="126.5" y="227.8979">inherits</text></g><!--SRC=[SqqfJKuioSpFIypnp2ikoImf1N4KR6fqTHL2ypBBKekACqig5QmKClCoKeioIugva4J1glmIyoeJyz93KfCpyl9pyjCpanDpiEe40000]--></g></svg>