<?xml version="1.0" encoding="us-ascii" standalone="no"?><svg xmlns="http://www.w3.org/2000/svg" xmlns:xlink="http://www.w3.org/1999/xlink" contentStyleType="text/css" height="316px" preserveAspectRatio="none" style="width:172px;height:316px;background:#FFFFFF;" version="1.1" viewBox="0 0 172 316" width="172px" zoomAndPan="magnify"><defs/><g><!--class EbookReader--><g id="elem_EbookReader"><rect fill="#F1F1F1" height="48" id="EbookReader" rx="2.5" ry="2.5" style="stroke:#181818;stroke-width:0.5;" width="119" x="26.5" y="134"/><ellipse cx="41.5" cy="150" fill="#ADD1B2" rx="11" ry="11" style="stroke:#181818;stroke-width:1.0;"/><path d="M40.8438,155.8594 Q38.8594,155.8594 37.6875,154.3906 Q36.5313,152.9063 36.5313,149.8281 Q36.5313,147.2188 37.75,145.4688 Q38.9844,143.7188 41.1094,143.7188 Q41.6094,143.7188 42.1406,143.8594 Q42.5781,144.0469 42.8438,144.0469 Q43.0625,144.0469 43.1563,144 Q43.2656,143.9531 43.7188,143.3594 L44.4844,147.0938 L43.5938,147.3594 Q43.1406,145.9063 42.5313,145.3125 Q41.9375,144.7031 40.9844,144.7031 Q39.7656,144.7031 39.0469,146.1406 Q38.3281,147.5625 38.3281,149.75 Q38.3281,152.1563 38.9375,153.4531 Q39.5625,154.7344 40.9219,154.7344 Q41.875,154.7344 42.5625,154.0469 Q43.25,153.3438 43.5781,151.8438 L44.4844,152.25 Q44.0781,153.9531 43.1094,154.9063 Q42.1563,155.8594 40.8438,155.8594 Z " fill="#000000"/><text fill="#000000" font-family="sans-serif" font-size="14" lengthAdjust="spacing" textLength="87" x="55.5" y="156.4839">EbookReader</text><line style="stroke:#181818;stroke-width:0.5;" x1="27.5" x2="144.5" y1="166" y2="166"/><line style="stroke:#181818;stroke-width:0.5;" x1="27.5" x2="144.5" y1="174" y2="174"/></g><!--class OperatingSystem--><g id="elem_OperatingSystem"><rect fill="#F1F1F1" height="48" id="OperatingSystem" rx="2.5" ry="2.5" style="stroke:#181818;stroke-width:0.5;" width="141" x="15.5" y="261"/><ellipse cx="30.5" cy="277" fill="#ADD1B2" rx="11" ry="11" style="stroke:#181818;stroke-width:1.0;"/><path d="M29.8438,282.8594 Q27.8594,282.8594 26.6875,281.3906 Q25.5313,279.9063 25.5313,276.8281 Q25.5313,274.2188 26.75,272.4688 Q27.9844,270.7188 30.1094,270.7188 Q30.6094,270.7188 31.1406,270.8594 Q31.5781,271.0469 31.8438,271.0469 Q32.0625,271.0469 32.1563,271 Q32.2656,270.9531 32.7188,270.3594 L33.4844,274.0938 L32.5938,274.3594 Q32.1406,272.9063 31.5313,272.3125 Q30.9375,271.7031 29.9844,271.7031 Q28.7656,271.7031 28.0469,273.1406 Q27.3281,274.5625 27.3281,276.75 Q27.3281,279.1563 27.9375,280.4531 Q28.5625,281.7344 29.9219,281.7344 Q30.875,281.7344 31.5625,281.0469 Q32.25,280.3438 32.5781,278.8438 L33.4844,279.25 Q33.0781,280.9531 32.1094,281.9063 Q31.1563,282.8594 29.8438,282.8594 Z " fill="#000000"/><text fill="#000000" font-family="sans-serif" font-size="14" lengthAdjust="spacing" textLength="109" x="44.5" y="283.4839">OperatingSystem</text><line style="stroke:#181818;stroke-width:0.5;" x1="16.5" x2="155.5" y1="293" y2="293"/><line style="stroke:#181818;stroke-width:0.5;" x1="16.5" x2="155.5" y1="301" y2="301"/></g><!--class LibraryManagement--><g id="elem_LibraryManagement"><rect fill="#F1F1F1" height="48" id="LibraryManagement" rx="2.5" ry="2.5" style="stroke:#181818;stroke-width:0.5;" width="158" x="7" y="7"/><ellipse cx="22" cy="23" fill="#ADD1B2" rx="11" ry="11" style="stroke:#181818;stroke-width:1.0;"/><path d="M21.3438,28.8594 Q19.3594,28.8594 18.1875,27.3906 Q17.0313,25.9063 17.0313,22.8281 Q17.0313,20.2188 18.25,18.4688 Q19.4844,16.7188 21.6094,16.7188 Q22.1094,16.7188 22.6406,16.8594 Q23.0781,17.0469 23.3438,17.0469 Q23.5625,17.0469 23.6563,17 Q23.7656,16.9531 24.2188,16.3594 L24.9844,20.0938 L24.0938,20.3594 Q23.6406,18.9063 23.0313,18.3125 Q22.4375,17.7031 21.4844,17.7031 Q20.2656,17.7031 19.5469,19.1406 Q18.8281,20.5625 18.8281,22.75 Q18.8281,25.1563 19.4375,26.4531 Q20.0625,27.7344 21.4219,27.7344 Q22.375,27.7344 23.0625,27.0469 Q23.75,26.3438 24.0781,24.8438 L24.9844,25.25 Q24.5781,26.9531 23.6094,27.9063 Q22.6563,28.8594 21.3438,28.8594 Z " fill="#000000"/><text fill="#000000" font-family="sans-serif" font-size="14" lengthAdjust="spacing" textLength="126" x="36" y="29.4839">LibraryManagement</text><line style="stroke:#181818;stroke-width:0.5;" x1="8" x2="164" y1="39" y2="39"/><line style="stroke:#181818;stroke-width:0.5;" x1="8" x2="164" y1="47" y2="47"/></g><!--link EbookReader to OperatingSystem--><g id="link_EbookReader_OperatingSystem"><path codeLine="1" d="M86,182.22 C86,204.67 86,232.5 86,254.91 " fill="none" id="EbookReader-to-OperatingSystem" style="stroke:#181818;stroke-width:1.0;stroke-dasharray:7.0,7.0;"/><polygon fill="#181818" points="86,260.91,90,251.91,86,255.91,82,251.91,86,260.91" style="stroke:#181818;stroke-width:1.0;"/><text fill="#000000" font-family="sans-serif" font-size="13" lengthAdjust="spacing" textLength="67" x="87" y="227.8979">depends on</text></g><!--link LibraryManagement to EbookReader--><g id="link_LibraryManagement_EbookReader"><path codeLine="2" d="M86,55.22 C86,77.67 86,105.5 86,127.91 " fill="none" id="LibraryManagement-to-EbookReader" style="stroke:#181818;stroke-width:1.0;stroke-dasharray:7.0,7.0;"/><polygon fill="#181818" points="86,133.91,90,124.91,86,128.91,82,124.91,86,133.91" style="stroke:#181818;stroke-width:1.0;"/><text fill="#000000" font-family="sans-serif" font-size="13" lengthAdjust="spacing" textLength="67" x="87" y="100.8979">depends on</text></g><!--SRC=[SqtApyyEIarCIIrIqDEpK_0lI2rABCdCIm-kB2v9pLMmKaX9BKZDIobMoC_ZyibCAaeiglHDp4jCJyrDpIi1Qt55CW9PEG00]--></g></svg>