<?xml version="1.0" encoding="us-ascii" standalone="no"?><svg xmlns="http://www.w3.org/2000/svg" xmlns:xlink="http://www.w3.org/1999/xlink" contentStyleType="text/css" height="316px" preserveAspectRatio="none" style="width:184px;height:316px;background:#FFFFFF;" version="1.1" viewBox="0 0 184 316" width="184px" zoomAndPan="magnify"><defs/><g><!--class IDE--><g id="elem_IDE"><rect fill="#F1F1F1" height="48" id="IDE" rx="2.5" ry="2.5" style="stroke:#181818;stroke-width:0.5;" width="54" x="65" y="134"/><ellipse cx="80" cy="150" fill="#ADD1B2" rx="11" ry="11" style="stroke:#181818;stroke-width:1.0;"/><path d="M79.3438,155.8594 Q77.3594,155.8594 76.1875,154.3906 Q75.0313,152.9063 75.0313,149.8281 Q75.0313,147.2188 76.25,145.4688 Q77.4844,143.7188 79.6094,143.7188 Q80.1094,143.7188 80.6406,143.8594 Q81.0781,144.0469 81.3438,144.0469 Q81.5625,144.0469 81.6563,144 Q81.7656,143.9531 82.2188,143.3594 L82.9844,147.0938 L82.0938,147.3594 Q81.6406,145.9063 81.0313,145.3125 Q80.4375,144.7031 79.4844,144.7031 Q78.2656,144.7031 77.5469,146.1406 Q76.8281,147.5625 76.8281,149.75 Q76.8281,152.1563 77.4375,153.4531 Q78.0625,154.7344 79.4219,154.7344 Q80.375,154.7344 81.0625,154.0469 Q81.75,153.3438 82.0781,151.8438 L82.9844,152.25 Q82.5781,153.9531 81.6094,154.9063 Q80.6563,155.8594 79.3438,155.8594 Z " fill="#000000"/><text fill="#000000" font-family="sans-serif" font-size="14" lengthAdjust="spacing" textLength="22" x="94" y="156.4839">IDE</text><line style="stroke:#181818;stroke-width:0.5;" x1="66" x2="118" y1="166" y2="166"/><line style="stroke:#181818;stroke-width:0.5;" x1="66" x2="118" y1="174" y2="174"/></g><!--class OperatingSystem--><g id="elem_OperatingSystem"><rect fill="#F1F1F1" height="48" id="OperatingSystem" rx="2.5" ry="2.5" style="stroke:#181818;stroke-width:0.5;" width="141" x="21.5" y="261"/><ellipse cx="36.5" cy="277" fill="#ADD1B2" rx="11" ry="11" style="stroke:#181818;stroke-width:1.0;"/><path d="M35.8438,282.8594 Q33.8594,282.8594 32.6875,281.3906 Q31.5313,279.9063 31.5313,276.8281 Q31.5313,274.2188 32.75,272.4688 Q33.9844,270.7188 36.1094,270.7188 Q36.6094,270.7188 37.1406,270.8594 Q37.5781,271.0469 37.8438,271.0469 Q38.0625,271.0469 38.1563,271 Q38.2656,270.9531 38.7188,270.3594 L39.4844,274.0938 L38.5938,274.3594 Q38.1406,272.9063 37.5313,272.3125 Q36.9375,271.7031 35.9844,271.7031 Q34.7656,271.7031 34.0469,273.1406 Q33.3281,274.5625 33.3281,276.75 Q33.3281,279.1563 33.9375,280.4531 Q34.5625,281.7344 35.9219,281.7344 Q36.875,281.7344 37.5625,281.0469 Q38.25,280.3438 38.5781,278.8438 L39.4844,279.25 Q39.0781,280.9531 38.1094,281.9063 Q37.1563,282.8594 35.8438,282.8594 Z " fill="#000000"/><text fill="#000000" font-family="sans-serif" font-size="14" lengthAdjust="spacing" textLength="109" x="50.5" y="283.4839">OperatingSystem</text><line style="stroke:#181818;stroke-width:0.5;" x1="22.5" x2="161.5" y1="293" y2="293"/><line style="stroke:#181818;stroke-width:0.5;" x1="22.5" x2="161.5" y1="301" y2="301"/></g><!--class SoftwareDevelopment--><g id="elem_SoftwareDevelopment"><rect fill="#F1F1F1" height="48" id="SoftwareDevelopment" rx="2.5" ry="2.5" style="stroke:#181818;stroke-width:0.5;" width="170" x="7" y="7"/><ellipse cx="22" cy="23" fill="#ADD1B2" rx="11" ry="11" style="stroke:#181818;stroke-width:1.0;"/><path d="M21.3438,28.8594 Q19.3594,28.8594 18.1875,27.3906 Q17.0313,25.9063 17.0313,22.8281 Q17.0313,20.2188 18.25,18.4688 Q19.4844,16.7188 21.6094,16.7188 Q22.1094,16.7188 22.6406,16.8594 Q23.0781,17.0469 23.3438,17.0469 Q23.5625,17.0469 23.6563,17 Q23.7656,16.9531 24.2188,16.3594 L24.9844,20.0938 L24.0938,20.3594 Q23.6406,18.9063 23.0313,18.3125 Q22.4375,17.7031 21.4844,17.7031 Q20.2656,17.7031 19.5469,19.1406 Q18.8281,20.5625 18.8281,22.75 Q18.8281,25.1563 19.4375,26.4531 Q20.0625,27.7344 21.4219,27.7344 Q22.375,27.7344 23.0625,27.0469 Q23.75,26.3438 24.0781,24.8438 L24.9844,25.25 Q24.5781,26.9531 23.6094,27.9063 Q22.6563,28.8594 21.3438,28.8594 Z " fill="#000000"/><text fill="#000000" font-family="sans-serif" font-size="14" lengthAdjust="spacing" textLength="138" x="36" y="29.4839">SoftwareDevelopment</text><line style="stroke:#181818;stroke-width:0.5;" x1="8" x2="176" y1="39" y2="39"/><line style="stroke:#181818;stroke-width:0.5;" x1="8" x2="176" y1="47" y2="47"/></g><!--link IDE to OperatingSystem--><g id="link_IDE_OperatingSystem"><path codeLine="1" d="M92,182.22 C92,204.67 92,232.5 92,254.91 " fill="none" id="IDE-to-OperatingSystem" style="stroke:#181818;stroke-width:1.0;stroke-dasharray:7.0,7.0;"/><polygon fill="#181818" points="92,260.91,96,251.91,92,255.91,88,251.91,92,260.91" style="stroke:#181818;stroke-width:1.0;"/><text fill="#000000" font-family="sans-serif" font-size="13" lengthAdjust="spacing" textLength="67" x="93" y="227.8979">depends on</text></g><!--link SoftwareDevelopment to IDE--><g id="link_SoftwareDevelopment_IDE"><path codeLine="2" d="M92,55.22 C92,77.67 92,105.5 92,127.91 " fill="none" id="SoftwareDevelopment-to-IDE" style="stroke:#181818;stroke-width:1.0;stroke-dasharray:7.0,7.0;"/><polygon fill="#181818" points="92,133.91,96,124.91,92,128.91,88,124.91,92,133.91" style="stroke:#181818;stroke-width:1.0;"/><text fill="#000000" font-family="sans-serif" font-size="13" lengthAdjust="spacing" textLength="67" x="93" y="100.8979">depends on</text></g><!--SRC=[ytHnLT3JirFmBqWjIYp9p4iFhYmkISrLi598IIr8pKifLiZFumhEJoifJonATKajIyt9ByXDpIi1Q_84QaPM2000]--></g></svg>