<?xml version="1.0" encoding="us-ascii" standalone="no"?><svg xmlns="http://www.w3.org/2000/svg" xmlns:xlink="http://www.w3.org/1999/xlink" contentStyleType="text/css" height="316px" preserveAspectRatio="none" style="width:182px;height:316px;background:#FFFFFF;" version="1.1" viewBox="0 0 182 316" width="182px" zoomAndPan="magnify"><defs/><g><!--class StorageBin--><g id="elem_StorageBin"><rect fill="#F1F1F1" height="48" id="StorageBin" rx="2.5" ry="2.5" style="stroke:#181818;stroke-width:0.5;" width="102" x="40" y="134"/><ellipse cx="55" cy="150" fill="#ADD1B2" rx="11" ry="11" style="stroke:#181818;stroke-width:1.0;"/><path d="M54.3438,155.8594 Q52.3594,155.8594 51.1875,154.3906 Q50.0313,152.9063 50.0313,149.8281 Q50.0313,147.2188 51.25,145.4688 Q52.4844,143.7188 54.6094,143.7188 Q55.1094,143.7188 55.6406,143.8594 Q56.0781,144.0469 56.3438,144.0469 Q56.5625,144.0469 56.6563,144 Q56.7656,143.9531 57.2188,143.3594 L57.9844,147.0938 L57.0938,147.3594 Q56.6406,145.9063 56.0313,145.3125 Q55.4375,144.7031 54.4844,144.7031 Q53.2656,144.7031 52.5469,146.1406 Q51.8281,147.5625 51.8281,149.75 Q51.8281,152.1563 52.4375,153.4531 Q53.0625,154.7344 54.4219,154.7344 Q55.375,154.7344 56.0625,154.0469 Q56.75,153.3438 57.0781,151.8438 L57.9844,152.25 Q57.5781,153.9531 56.6094,154.9063 Q55.6563,155.8594 54.3438,155.8594 Z " fill="#000000"/><text fill="#000000" font-family="sans-serif" font-size="14" lengthAdjust="spacing" textLength="70" x="69" y="156.4839">StorageBin</text><line style="stroke:#181818;stroke-width:0.5;" x1="41" x2="141" y1="166" y2="166"/><line style="stroke:#181818;stroke-width:0.5;" x1="41" x2="141" y1="174" y2="174"/></g><!--class EducationWarehouse--><g id="elem_EducationWarehouse"><rect fill="#F1F1F1" height="48" id="EducationWarehouse" rx="2.5" ry="2.5" style="stroke:#181818;stroke-width:0.5;" width="168" x="7" y="261"/><ellipse cx="22" cy="277" fill="#ADD1B2" rx="11" ry="11" style="stroke:#181818;stroke-width:1.0;"/><path d="M21.3438,282.8594 Q19.3594,282.8594 18.1875,281.3906 Q17.0313,279.9063 17.0313,276.8281 Q17.0313,274.2188 18.25,272.4688 Q19.4844,270.7188 21.6094,270.7188 Q22.1094,270.7188 22.6406,270.8594 Q23.0781,271.0469 23.3438,271.0469 Q23.5625,271.0469 23.6563,271 Q23.7656,270.9531 24.2188,270.3594 L24.9844,274.0938 L24.0938,274.3594 Q23.6406,272.9063 23.0313,272.3125 Q22.4375,271.7031 21.4844,271.7031 Q20.2656,271.7031 19.5469,273.1406 Q18.8281,274.5625 18.8281,276.75 Q18.8281,279.1563 19.4375,280.4531 Q20.0625,281.7344 21.4219,281.7344 Q22.375,281.7344 23.0625,281.0469 Q23.75,280.3438 24.0781,278.8438 L24.9844,279.25 Q24.5781,280.9531 23.6094,281.9063 Q22.6563,282.8594 21.3438,282.8594 Z " fill="#000000"/><text fill="#000000" font-family="sans-serif" font-size="14" lengthAdjust="spacing" textLength="136" x="36" y="283.4839">EducationWarehouse</text><line style="stroke:#181818;stroke-width:0.5;" x1="8" x2="174" y1="293" y2="293"/><line style="stroke:#181818;stroke-width:0.5;" x1="8" x2="174" y1="301" y2="301"/></g><!--class Blanket--><g id="elem_Blanket"><rect fill="#F1F1F1" height="48" id="Blanket" rx="2.5" ry="2.5" style="stroke:#181818;stroke-width:0.5;" width="79" x="51.5" y="7"/><ellipse cx="66.5" cy="23" fill="#ADD1B2" rx="11" ry="11" style="stroke:#181818;stroke-width:1.0;"/><path d="M65.8438,28.8594 Q63.8594,28.8594 62.6875,27.3906 Q61.5313,25.9063 61.5313,22.8281 Q61.5313,20.2188 62.75,18.4688 Q63.9844,16.7188 66.1094,16.7188 Q66.6094,16.7188 67.1406,16.8594 Q67.5781,17.0469 67.8438,17.0469 Q68.0625,17.0469 68.1563,17 Q68.2656,16.9531 68.7188,16.3594 L69.4844,20.0938 L68.5938,20.3594 Q68.1406,18.9063 67.5313,18.3125 Q66.9375,17.7031 65.9844,17.7031 Q64.7656,17.7031 64.0469,19.1406 Q63.3281,20.5625 63.3281,22.75 Q63.3281,25.1563 63.9375,26.4531 Q64.5625,27.7344 65.9219,27.7344 Q66.875,27.7344 67.5625,27.0469 Q68.25,26.3438 68.5781,24.8438 L69.4844,25.25 Q69.0781,26.9531 68.1094,27.9063 Q67.1563,28.8594 65.8438,28.8594 Z " fill="#000000"/><text fill="#000000" font-family="sans-serif" font-size="14" lengthAdjust="spacing" textLength="47" x="80.5" y="29.4839">Blanket</text><line style="stroke:#181818;stroke-width:0.5;" x1="52.5" x2="129.5" y1="39" y2="39"/><line style="stroke:#181818;stroke-width:0.5;" x1="52.5" x2="129.5" y1="47" y2="47"/></g><!--reverse link StorageBin to EducationWarehouse--><g id="link_StorageBin_EducationWarehouse"><path codeLine="1" d="M91,194.22 C91,216.67 91,238.5 91,260.91 " fill="none" id="StorageBin-backto-EducationWarehouse" style="stroke:#181818;stroke-width:1.0;"/><polygon fill="none" points="91,182.22,87,188.22,91,194.22,95,188.22,91,182.22" style="stroke:#181818;stroke-width:1.0;"/><text fill="#000000" font-family="sans-serif" font-size="13" lengthAdjust="spacing" textLength="64" x="92" y="227.8979">aggregates</text></g><!--reverse link Blanket to StorageBin--><g id="link_Blanket_StorageBin"><path codeLine="2" d="M91,67.22 C91,89.67 91,111.5 91,133.91 " fill="none" id="Blanket-backto-StorageBin" style="stroke:#181818;stroke-width:1.0;"/><polygon fill="none" points="91,55.22,87,61.22,91,67.22,95,61.22,91,55.22" style="stroke:#181818;stroke-width:1.0;"/><text fill="#000000" font-family="sans-serif" font-size="13" lengthAdjust="spacing" textLength="64" x="92" y="100.8979">aggregates</text></g><!--SRC=[2ox9BqfCJtNAp5F8rzLLS4qfJKuioSpF2qyiIit8BorELR1II4nFBqfDJon9BUPooadCoquj0QiDHcX5LWC0]--></g></svg>