<?xml version="1.0" encoding="us-ascii" standalone="no"?><svg xmlns="http://www.w3.org/2000/svg" xmlns:xlink="http://www.w3.org/1999/xlink" contentStyleType="text/css" height="316px" preserveAspectRatio="none" style="width:161px;height:316px;background:#FFFFFF;" version="1.1" viewBox="0 0 161 316" width="161px" zoomAndPan="magnify"><defs/><g><!--class ColonyOfRaccoon--><g id="elem_ColonyOfRaccoon"><rect fill="#F1F1F1" height="48" id="ColonyOfRaccoon" rx="2.5" ry="2.5" style="stroke:#181818;stroke-width:0.5;" width="147" x="7" y="134"/><ellipse cx="22" cy="150" fill="#ADD1B2" rx="11" ry="11" style="stroke:#181818;stroke-width:1.0;"/><path d="M21.3438,155.8594 Q19.3594,155.8594 18.1875,154.3906 Q17.0313,152.9063 17.0313,149.8281 Q17.0313,147.2188 18.25,145.4688 Q19.4844,143.7188 21.6094,143.7188 Q22.1094,143.7188 22.6406,143.8594 Q23.0781,144.0469 23.3438,144.0469 Q23.5625,144.0469 23.6563,144 Q23.7656,143.9531 24.2188,143.3594 L24.9844,147.0938 L24.0938,147.3594 Q23.6406,145.9063 23.0313,145.3125 Q22.4375,144.7031 21.4844,144.7031 Q20.2656,144.7031 19.5469,146.1406 Q18.8281,147.5625 18.8281,149.75 Q18.8281,152.1563 19.4375,153.4531 Q20.0625,154.7344 21.4219,154.7344 Q22.375,154.7344 23.0625,154.0469 Q23.75,153.3438 24.0781,151.8438 L24.9844,152.25 Q24.5781,153.9531 23.6094,154.9063 Q22.6563,155.8594 21.3438,155.8594 Z " fill="#000000"/><text fill="#000000" font-family="sans-serif" font-size="14" lengthAdjust="spacing" textLength="115" x="36" y="156.4839">ColonyOfRaccoon</text><line style="stroke:#181818;stroke-width:0.5;" x1="8" x2="153" y1="166" y2="166"/><line style="stroke:#181818;stroke-width:0.5;" x1="8" x2="153" y1="174" y2="174"/></g><!--class Canyon--><g id="elem_Canyon"><rect fill="#F1F1F1" height="48" id="Canyon" rx="2.5" ry="2.5" style="stroke:#181818;stroke-width:0.5;" width="81" x="40" y="261"/><ellipse cx="55" cy="277" fill="#ADD1B2" rx="11" ry="11" style="stroke:#181818;stroke-width:1.0;"/><path d="M54.3438,282.8594 Q52.3594,282.8594 51.1875,281.3906 Q50.0313,279.9063 50.0313,276.8281 Q50.0313,274.2188 51.25,272.4688 Q52.4844,270.7188 54.6094,270.7188 Q55.1094,270.7188 55.6406,270.8594 Q56.0781,271.0469 56.3438,271.0469 Q56.5625,271.0469 56.6563,271 Q56.7656,270.9531 57.2188,270.3594 L57.9844,274.0938 L57.0938,274.3594 Q56.6406,272.9063 56.0313,272.3125 Q55.4375,271.7031 54.4844,271.7031 Q53.2656,271.7031 52.5469,273.1406 Q51.8281,274.5625 51.8281,276.75 Q51.8281,279.1563 52.4375,280.4531 Q53.0625,281.7344 54.4219,281.7344 Q55.375,281.7344 56.0625,281.0469 Q56.75,280.3438 57.0781,278.8438 L57.9844,279.25 Q57.5781,280.9531 56.6094,281.9063 Q55.6563,282.8594 54.3438,282.8594 Z " fill="#000000"/><text fill="#000000" font-family="sans-serif" font-size="14" lengthAdjust="spacing" textLength="49" x="69" y="283.4839">Canyon</text><line style="stroke:#181818;stroke-width:0.5;" x1="41" x2="120" y1="293" y2="293"/><line style="stroke:#181818;stroke-width:0.5;" x1="41" x2="120" y1="301" y2="301"/></g><!--class Raccoon--><g id="elem_Raccoon"><rect fill="#F1F1F1" height="48" id="Raccoon" rx="2.5" ry="2.5" style="stroke:#181818;stroke-width:0.5;" width="88" x="36.5" y="7"/><ellipse cx="51.5" cy="23" fill="#ADD1B2" rx="11" ry="11" style="stroke:#181818;stroke-width:1.0;"/><path d="M50.8438,28.8594 Q48.8594,28.8594 47.6875,27.3906 Q46.5313,25.9063 46.5313,22.8281 Q46.5313,20.2188 47.75,18.4688 Q48.9844,16.7188 51.1094,16.7188 Q51.6094,16.7188 52.1406,16.8594 Q52.5781,17.0469 52.8438,17.0469 Q53.0625,17.0469 53.1563,17 Q53.2656,16.9531 53.7188,16.3594 L54.4844,20.0938 L53.5938,20.3594 Q53.1406,18.9063 52.5313,18.3125 Q51.9375,17.7031 50.9844,17.7031 Q49.7656,17.7031 49.0469,19.1406 Q48.3281,20.5625 48.3281,22.75 Q48.3281,25.1563 48.9375,26.4531 Q49.5625,27.7344 50.9219,27.7344 Q51.875,27.7344 52.5625,27.0469 Q53.25,26.3438 53.5781,24.8438 L54.4844,25.25 Q54.0781,26.9531 53.1094,27.9063 Q52.1563,28.8594 50.8438,28.8594 Z " fill="#000000"/><text fill="#000000" font-family="sans-serif" font-size="14" lengthAdjust="spacing" textLength="56" x="65.5" y="29.4839">Raccoon</text><line style="stroke:#181818;stroke-width:0.5;" x1="37.5" x2="123.5" y1="39" y2="39"/><line style="stroke:#181818;stroke-width:0.5;" x1="37.5" x2="123.5" y1="47" y2="47"/></g><!--reverse link ColonyOfRaccoon to Canyon--><g id="link_ColonyOfRaccoon_Canyon"><path codeLine="1" d="M80.5,194.22 C80.5,216.67 80.5,238.5 80.5,260.91 " fill="none" id="ColonyOfRaccoon-backto-Canyon" style="stroke:#181818;stroke-width:1.0;"/><polygon fill="none" points="80.5,182.22,76.5,188.22,80.5,194.22,84.5,188.22,80.5,182.22" style="stroke:#181818;stroke-width:1.0;"/><text fill="#000000" font-family="sans-serif" font-size="13" lengthAdjust="spacing" textLength="64" x="81.5" y="227.8979">aggregates</text></g><!--reverse link Raccoon to ColonyOfRaccoon--><g id="link_Raccoon_ColonyOfRaccoon"><path codeLine="2" d="M80.5,67.22 C80.5,89.67 80.5,111.5 80.5,133.91 " fill="none" id="Raccoon-backto-ColonyOfRaccoon" style="stroke:#181818;stroke-width:1.0;"/><polygon fill="none" points="80.5,55.22,76.5,61.22,80.5,67.22,84.5,61.22,80.5,55.22" style="stroke:#181818;stroke-width:1.0;"/><text fill="#000000" font-family="sans-serif" font-size="13" lengthAdjust="spacing" textLength="64" x="81.5" y="100.8979">aggregates</text></g><!--SRC=[SyxFoS-hz4yBIanEpi_FKyZNrLLmJioh13Aj51BJqujIqnDBKekvKEJHz20h1000]--></g></svg>