<?xml version="1.0" encoding="us-ascii" standalone="no"?><svg xmlns="http://www.w3.org/2000/svg" xmlns:xlink="http://www.w3.org/1999/xlink" contentStyleType="text/css" height="316px" preserveAspectRatio="none" style="width:136px;height:316px;background:#FFFFFF;" version="1.1" viewBox="0 0 136 316" width="136px" zoomAndPan="magnify"><defs/><g><!--class NestOfTurtle--><g id="elem_NestOfTurtle"><rect fill="#F1F1F1" height="48" id="NestOfTurtle" rx="2.5" ry="2.5" style="stroke:#181818;stroke-width:0.5;" width="112" x="7" y="134"/><ellipse cx="22" cy="150" fill="#ADD1B2" rx="11" ry="11" style="stroke:#181818;stroke-width:1.0;"/><path d="M21.3438,155.8594 Q19.3594,155.8594 18.1875,154.3906 Q17.0313,152.9063 17.0313,149.8281 Q17.0313,147.2188 18.25,145.4688 Q19.4844,143.7188 21.6094,143.7188 Q22.1094,143.7188 22.6406,143.8594 Q23.0781,144.0469 23.3438,144.0469 Q23.5625,144.0469 23.6563,144 Q23.7656,143.9531 24.2188,143.3594 L24.9844,147.0938 L24.0938,147.3594 Q23.6406,145.9063 23.0313,145.3125 Q22.4375,144.7031 21.4844,144.7031 Q20.2656,144.7031 19.5469,146.1406 Q18.8281,147.5625 18.8281,149.75 Q18.8281,152.1563 19.4375,153.4531 Q20.0625,154.7344 21.4219,154.7344 Q22.375,154.7344 23.0625,154.0469 Q23.75,153.3438 24.0781,151.8438 L24.9844,152.25 Q24.5781,153.9531 23.6094,154.9063 Q22.6563,155.8594 21.3438,155.8594 Z " fill="#000000"/><text fill="#000000" font-family="sans-serif" font-size="14" lengthAdjust="spacing" textLength="80" x="36" y="156.4839">NestOfTurtle</text><line style="stroke:#181818;stroke-width:0.5;" x1="8" x2="118" y1="166" y2="166"/><line style="stroke:#181818;stroke-width:0.5;" x1="8" x2="118" y1="174" y2="174"/></g><!--class Plateau--><g id="elem_Plateau"><rect fill="#F1F1F1" height="48" id="Plateau" rx="2.5" ry="2.5" style="stroke:#181818;stroke-width:0.5;" width="80" x="23" y="261"/><ellipse cx="38" cy="277" fill="#ADD1B2" rx="11" ry="11" style="stroke:#181818;stroke-width:1.0;"/><path d="M37.3438,282.8594 Q35.3594,282.8594 34.1875,281.3906 Q33.0313,279.9063 33.0313,276.8281 Q33.0313,274.2188 34.25,272.4688 Q35.4844,270.7188 37.6094,270.7188 Q38.1094,270.7188 38.6406,270.8594 Q39.0781,271.0469 39.3438,271.0469 Q39.5625,271.0469 39.6563,271 Q39.7656,270.9531 40.2188,270.3594 L40.9844,274.0938 L40.0938,274.3594 Q39.6406,272.9063 39.0313,272.3125 Q38.4375,271.7031 37.4844,271.7031 Q36.2656,271.7031 35.5469,273.1406 Q34.8281,274.5625 34.8281,276.75 Q34.8281,279.1563 35.4375,280.4531 Q36.0625,281.7344 37.4219,281.7344 Q38.375,281.7344 39.0625,281.0469 Q39.75,280.3438 40.0781,278.8438 L40.9844,279.25 Q40.5781,280.9531 39.6094,281.9063 Q38.6563,282.8594 37.3438,282.8594 Z " fill="#000000"/><text fill="#000000" font-family="sans-serif" font-size="14" lengthAdjust="spacing" textLength="48" x="52" y="283.4839">Plateau</text><line style="stroke:#181818;stroke-width:0.5;" x1="24" x2="102" y1="293" y2="293"/><line style="stroke:#181818;stroke-width:0.5;" x1="24" x2="102" y1="301" y2="301"/></g><!--class Turtle--><g id="elem_Turtle"><rect fill="#F1F1F1" height="48" id="Turtle" rx="2.5" ry="2.5" style="stroke:#181818;stroke-width:0.5;" width="69" x="28.5" y="7"/><ellipse cx="43.5" cy="23" fill="#ADD1B2" rx="11" ry="11" style="stroke:#181818;stroke-width:1.0;"/><path d="M42.8438,28.8594 Q40.8594,28.8594 39.6875,27.3906 Q38.5313,25.9063 38.5313,22.8281 Q38.5313,20.2188 39.75,18.4688 Q40.9844,16.7188 43.1094,16.7188 Q43.6094,16.7188 44.1406,16.8594 Q44.5781,17.0469 44.8438,17.0469 Q45.0625,17.0469 45.1563,17 Q45.2656,16.9531 45.7188,16.3594 L46.4844,20.0938 L45.5938,20.3594 Q45.1406,18.9063 44.5313,18.3125 Q43.9375,17.7031 42.9844,17.7031 Q41.7656,17.7031 41.0469,19.1406 Q40.3281,20.5625 40.3281,22.75 Q40.3281,25.1563 40.9375,26.4531 Q41.5625,27.7344 42.9219,27.7344 Q43.875,27.7344 44.5625,27.0469 Q45.25,26.3438 45.5781,24.8438 L46.4844,25.25 Q46.0781,26.9531 45.1094,27.9063 Q44.1563,28.8594 42.8438,28.8594 Z " fill="#000000"/><text fill="#000000" font-family="sans-serif" font-size="14" lengthAdjust="spacing" textLength="37" x="57.5" y="29.4839">Turtle</text><line style="stroke:#181818;stroke-width:0.5;" x1="29.5" x2="96.5" y1="39" y2="39"/><line style="stroke:#181818;stroke-width:0.5;" x1="29.5" x2="96.5" y1="47" y2="47"/></g><!--reverse link NestOfTurtle to Plateau--><g id="link_NestOfTurtle_Plateau"><path codeLine="1" d="M63,194.22 C63,216.67 63,238.5 63,260.91 " fill="none" id="NestOfTurtle-backto-Plateau" style="stroke:#181818;stroke-width:1.0;"/><polygon fill="none" points="63,182.22,59,188.22,63,194.22,67,188.22,63,182.22" style="stroke:#181818;stroke-width:1.0;"/><text fill="#000000" font-family="sans-serif" font-size="13" lengthAdjust="spacing" textLength="64" x="64" y="227.8979">aggregates</text></g><!--reverse link Turtle to NestOfTurtle--><g id="link_Turtle_NestOfTurtle"><path codeLine="2" d="M63,67.22 C63,89.67 63,111.5 63,133.91 " fill="none" id="Turtle-backto-NestOfTurtle" style="stroke:#181818;stroke-width:1.0;"/><polygon fill="none" points="63,55.22,59,61.22,63,67.22,67,61.22,63,55.22" style="stroke:#181818;stroke-width:1.0;"/><text fill="#000000" font-family="sans-serif" font-size="13" lengthAdjust="spacing" textLength="64" x="64" y="100.8979">aggregates</text></g><!--SRC=[yqijBl5F2oajAib9LSZNrLK8o4aiIKqiLR1II4nFBqfD1_AAkP3a_P0r82i20000]--></g></svg>