<?xml version="1.0" encoding="us-ascii" standalone="no"?><svg xmlns="http://www.w3.org/2000/svg" xmlns:xlink="http://www.w3.org/1999/xlink" contentStyleType="text/css" height="316px" preserveAspectRatio="none" style="width:139px;height:316px;background:#FFFFFF;" version="1.1" viewBox="0 0 139 316" width="139px" zoomAndPan="magnify"><defs/><g><!--class HerdOfSheep--><g id="elem_HerdOfSheep"><rect fill="#F1F1F1" height="48" id="HerdOfSheep" rx="2.5" ry="2.5" style="stroke:#181818;stroke-width:0.5;" width="118" x="7" y="134"/><ellipse cx="22" cy="150" fill="#ADD1B2" rx="11" ry="11" style="stroke:#181818;stroke-width:1.0;"/><path d="M21.3438,155.8594 Q19.3594,155.8594 18.1875,154.3906 Q17.0313,152.9063 17.0313,149.8281 Q17.0313,147.2188 18.25,145.4688 Q19.4844,143.7188 21.6094,143.7188 Q22.1094,143.7188 22.6406,143.8594 Q23.0781,144.0469 23.3438,144.0469 Q23.5625,144.0469 23.6563,144 Q23.7656,143.9531 24.2188,143.3594 L24.9844,147.0938 L24.0938,147.3594 Q23.6406,145.9063 23.0313,145.3125 Q22.4375,144.7031 21.4844,144.7031 Q20.2656,144.7031 19.5469,146.1406 Q18.8281,147.5625 18.8281,149.75 Q18.8281,152.1563 19.4375,153.4531 Q20.0625,154.7344 21.4219,154.7344 Q22.375,154.7344 23.0625,154.0469 Q23.75,153.3438 24.0781,151.8438 L24.9844,152.25 Q24.5781,153.9531 23.6094,154.9063 Q22.6563,155.8594 21.3438,155.8594 Z " fill="#000000"/><text fill="#000000" font-family="sans-serif" font-size="14" lengthAdjust="spacing" textLength="86" x="36" y="156.4839">HerdOfSheep</text><line style="stroke:#181818;stroke-width:0.5;" x1="8" x2="124" y1="166" y2="166"/><line style="stroke:#181818;stroke-width:0.5;" x1="8" x2="124" y1="174" y2="174"/></g><!--class Meadow--><g id="elem_Meadow"><rect fill="#F1F1F1" height="48" id="Meadow" rx="2.5" ry="2.5" style="stroke:#181818;stroke-width:0.5;" width="84" x="24" y="261"/><ellipse cx="39" cy="277" fill="#ADD1B2" rx="11" ry="11" style="stroke:#181818;stroke-width:1.0;"/><path d="M38.3438,282.8594 Q36.3594,282.8594 35.1875,281.3906 Q34.0313,279.9063 34.0313,276.8281 Q34.0313,274.2188 35.25,272.4688 Q36.4844,270.7188 38.6094,270.7188 Q39.1094,270.7188 39.6406,270.8594 Q40.0781,271.0469 40.3438,271.0469 Q40.5625,271.0469 40.6563,271 Q40.7656,270.9531 41.2188,270.3594 L41.9844,274.0938 L41.0938,274.3594 Q40.6406,272.9063 40.0313,272.3125 Q39.4375,271.7031 38.4844,271.7031 Q37.2656,271.7031 36.5469,273.1406 Q35.8281,274.5625 35.8281,276.75 Q35.8281,279.1563 36.4375,280.4531 Q37.0625,281.7344 38.4219,281.7344 Q39.375,281.7344 40.0625,281.0469 Q40.75,280.3438 41.0781,278.8438 L41.9844,279.25 Q41.5781,280.9531 40.6094,281.9063 Q39.6563,282.8594 38.3438,282.8594 Z " fill="#000000"/><text fill="#000000" font-family="sans-serif" font-size="14" lengthAdjust="spacing" textLength="52" x="53" y="283.4839">Meadow</text><line style="stroke:#181818;stroke-width:0.5;" x1="25" x2="107" y1="293" y2="293"/><line style="stroke:#181818;stroke-width:0.5;" x1="25" x2="107" y1="301" y2="301"/></g><!--class Sheep--><g id="elem_Sheep"><rect fill="#F1F1F1" height="48" id="Sheep" rx="2.5" ry="2.5" style="stroke:#181818;stroke-width:0.5;" width="73" x="29.5" y="7"/><ellipse cx="44.5" cy="23" fill="#ADD1B2" rx="11" ry="11" style="stroke:#181818;stroke-width:1.0;"/><path d="M43.8438,28.8594 Q41.8594,28.8594 40.6875,27.3906 Q39.5313,25.9063 39.5313,22.8281 Q39.5313,20.2188 40.75,18.4688 Q41.9844,16.7188 44.1094,16.7188 Q44.6094,16.7188 45.1406,16.8594 Q45.5781,17.0469 45.8438,17.0469 Q46.0625,17.0469 46.1563,17 Q46.2656,16.9531 46.7188,16.3594 L47.4844,20.0938 L46.5938,20.3594 Q46.1406,18.9063 45.5313,18.3125 Q44.9375,17.7031 43.9844,17.7031 Q42.7656,17.7031 42.0469,19.1406 Q41.3281,20.5625 41.3281,22.75 Q41.3281,25.1563 41.9375,26.4531 Q42.5625,27.7344 43.9219,27.7344 Q44.875,27.7344 45.5625,27.0469 Q46.25,26.3438 46.5781,24.8438 L47.4844,25.25 Q47.0781,26.9531 46.1094,27.9063 Q45.1563,28.8594 43.8438,28.8594 Z " fill="#000000"/><text fill="#000000" font-family="sans-serif" font-size="14" lengthAdjust="spacing" textLength="41" x="58.5" y="29.4839">Sheep</text><line style="stroke:#181818;stroke-width:0.5;" x1="30.5" x2="101.5" y1="39" y2="39"/><line style="stroke:#181818;stroke-width:0.5;" x1="30.5" x2="101.5" y1="47" y2="47"/></g><!--reverse link HerdOfSheep to Meadow--><g id="link_HerdOfSheep_Meadow"><path codeLine="1" d="M66,194.22 C66,216.67 66,238.5 66,260.91 " fill="none" id="HerdOfSheep-backto-Meadow" style="stroke:#181818;stroke-width:1.0;"/><polygon fill="none" points="66,182.22,62,188.22,66,194.22,70,188.22,66,182.22" style="stroke:#181818;stroke-width:1.0;"/><text fill="#000000" font-family="sans-serif" font-size="13" lengthAdjust="spacing" textLength="64" x="67" y="227.8979">aggregates</text></g><!--reverse link Sheep to HerdOfSheep--><g id="link_Sheep_HerdOfSheep"><path codeLine="2" d="M66,67.22 C66,89.67 66,111.5 66,133.91 " fill="none" id="Sheep-backto-HerdOfSheep" style="stroke:#181818;stroke-width:1.0;"/><polygon fill="none" points="66,55.22,62,61.22,66,67.22,70,61.22,66,55.22" style="stroke:#181818;stroke-width:1.0;"/><text fill="#000000" font-family="sans-serif" font-size="13" lengthAdjust="spacing" textLength="64" x="67" y="100.8979">aggregates</text></g><!--SRC=[yqWjIl5F2yv8JIrGoDVLLV1DJKp9BrUmKaXCJozAJKyiIItcGiXw8Ab6LW80]--></g></svg>