<?xml version="1.0" encoding="us-ascii" standalone="no"?><svg xmlns="http://www.w3.org/2000/svg" xmlns:xlink="http://www.w3.org/1999/xlink" contentStyleType="text/css" height="316px" preserveAspectRatio="none" style="width:148px;height:316px;background:#FFFFFF;" version="1.1" viewBox="0 0 148 316" width="148px" zoomAndPan="magnify"><defs/><g><!--class SchoolOfCatfish--><g id="elem_SchoolOfCatfish"><rect fill="#F1F1F1" height="48" id="SchoolOfCatfish" rx="2.5" ry="2.5" style="stroke:#181818;stroke-width:0.5;" width="134" x="7" y="134"/><ellipse cx="22" cy="150" fill="#ADD1B2" rx="11" ry="11" style="stroke:#181818;stroke-width:1.0;"/><path d="M21.3438,155.8594 Q19.3594,155.8594 18.1875,154.3906 Q17.0313,152.9063 17.0313,149.8281 Q17.0313,147.2188 18.25,145.4688 Q19.4844,143.7188 21.6094,143.7188 Q22.1094,143.7188 22.6406,143.8594 Q23.0781,144.0469 23.3438,144.0469 Q23.5625,144.0469 23.6563,144 Q23.7656,143.9531 24.2188,143.3594 L24.9844,147.0938 L24.0938,147.3594 Q23.6406,145.9063 23.0313,145.3125 Q22.4375,144.7031 21.4844,144.7031 Q20.2656,144.7031 19.5469,146.1406 Q18.8281,147.5625 18.8281,149.75 Q18.8281,152.1563 19.4375,153.4531 Q20.0625,154.7344 21.4219,154.7344 Q22.375,154.7344 23.0625,154.0469 Q23.75,153.3438 24.0781,151.8438 L24.9844,152.25 Q24.5781,153.9531 23.6094,154.9063 Q22.6563,155.8594 21.3438,155.8594 Z " fill="#000000"/><text fill="#000000" font-family="sans-serif" font-size="14" lengthAdjust="spacing" textLength="102" x="36" y="156.4839">SchoolOfCatfish</text><line style="stroke:#181818;stroke-width:0.5;" x1="8" x2="140" y1="166" y2="166"/><line style="stroke:#181818;stroke-width:0.5;" x1="8" x2="140" y1="174" y2="174"/></g><!--class Barn--><g id="elem_Barn"><rect fill="#F1F1F1" height="48" id="Barn" rx="2.5" ry="2.5" style="stroke:#181818;stroke-width:0.5;" width="62" x="43" y="261"/><ellipse cx="58" cy="277" fill="#ADD1B2" rx="11" ry="11" style="stroke:#181818;stroke-width:1.0;"/><path d="M57.3438,282.8594 Q55.3594,282.8594 54.1875,281.3906 Q53.0313,279.9063 53.0313,276.8281 Q53.0313,274.2188 54.25,272.4688 Q55.4844,270.7188 57.6094,270.7188 Q58.1094,270.7188 58.6406,270.8594 Q59.0781,271.0469 59.3438,271.0469 Q59.5625,271.0469 59.6563,271 Q59.7656,270.9531 60.2188,270.3594 L60.9844,274.0938 L60.0938,274.3594 Q59.6406,272.9063 59.0313,272.3125 Q58.4375,271.7031 57.4844,271.7031 Q56.2656,271.7031 55.5469,273.1406 Q54.8281,274.5625 54.8281,276.75 Q54.8281,279.1563 55.4375,280.4531 Q56.0625,281.7344 57.4219,281.7344 Q58.375,281.7344 59.0625,281.0469 Q59.75,280.3438 60.0781,278.8438 L60.9844,279.25 Q60.5781,280.9531 59.6094,281.9063 Q58.6563,282.8594 57.3438,282.8594 Z " fill="#000000"/><text fill="#000000" font-family="sans-serif" font-size="14" lengthAdjust="spacing" textLength="30" x="72" y="283.4839">Barn</text><line style="stroke:#181818;stroke-width:0.5;" x1="44" x2="104" y1="293" y2="293"/><line style="stroke:#181818;stroke-width:0.5;" x1="44" x2="104" y1="301" y2="301"/></g><!--class Catfish--><g id="elem_Catfish"><rect fill="#F1F1F1" height="48" id="Catfish" rx="2.5" ry="2.5" style="stroke:#181818;stroke-width:0.5;" width="76" x="36" y="7"/><ellipse cx="51" cy="23" fill="#ADD1B2" rx="11" ry="11" style="stroke:#181818;stroke-width:1.0;"/><path d="M50.3438,28.8594 Q48.3594,28.8594 47.1875,27.3906 Q46.0313,25.9063 46.0313,22.8281 Q46.0313,20.2188 47.25,18.4688 Q48.4844,16.7188 50.6094,16.7188 Q51.1094,16.7188 51.6406,16.8594 Q52.0781,17.0469 52.3438,17.0469 Q52.5625,17.0469 52.6563,17 Q52.7656,16.9531 53.2188,16.3594 L53.9844,20.0938 L53.0938,20.3594 Q52.6406,18.9063 52.0313,18.3125 Q51.4375,17.7031 50.4844,17.7031 Q49.2656,17.7031 48.5469,19.1406 Q47.8281,20.5625 47.8281,22.75 Q47.8281,25.1563 48.4375,26.4531 Q49.0625,27.7344 50.4219,27.7344 Q51.375,27.7344 52.0625,27.0469 Q52.75,26.3438 53.0781,24.8438 L53.9844,25.25 Q53.5781,26.9531 52.6094,27.9063 Q51.6563,28.8594 50.3438,28.8594 Z " fill="#000000"/><text fill="#000000" font-family="sans-serif" font-size="14" lengthAdjust="spacing" textLength="44" x="65" y="29.4839">Catfish</text><line style="stroke:#181818;stroke-width:0.5;" x1="37" x2="111" y1="39" y2="39"/><line style="stroke:#181818;stroke-width:0.5;" x1="37" x2="111" y1="47" y2="47"/></g><!--reverse link SchoolOfCatfish to Barn--><g id="link_SchoolOfCatfish_Barn"><path codeLine="1" d="M74,194.22 C74,216.67 74,238.5 74,260.91 " fill="none" id="SchoolOfCatfish-backto-Barn" style="stroke:#181818;stroke-width:1.0;"/><polygon fill="none" points="74,182.22,70,188.22,74,194.22,78,188.22,74,182.22" style="stroke:#181818;stroke-width:1.0;"/><text fill="#000000" font-family="sans-serif" font-size="13" lengthAdjust="spacing" textLength="64" x="75" y="227.8979">aggregates</text></g><!--reverse link Catfish to SchoolOfCatfish--><g id="link_Catfish_SchoolOfCatfish"><path codeLine="2" d="M74,67.22 C74,89.67 74,111.5 74,133.91 " fill="none" id="Catfish-backto-SchoolOfCatfish" style="stroke:#181818;stroke-width:1.0;"/><polygon fill="none" points="74,55.22,70,61.22,74,67.22,78,61.22,74,55.22" style="stroke:#181818;stroke-width:1.0;"/><text fill="#000000" font-family="sans-serif" font-size="13" lengthAdjust="spacing" textLength="64" x="75" y="100.8979">aggregates</text></g><!--SRC=[2qxEoC_FyKzpJYn9oopEKCZNrLLmIYpAKx1II4nFBqfDJon9BUP2bWr6qu6i4000]--></g></svg>