<?xml version="1.0" encoding="us-ascii" standalone="no"?><svg xmlns="http://www.w3.org/2000/svg" xmlns:xlink="http://www.w3.org/1999/xlink" contentStyleType="text/css" height="316px" preserveAspectRatio="none" style="width:167px;height:316px;background:#FFFFFF;" version="1.1" viewBox="0 0 167 316" width="167px" zoomAndPan="magnify"><defs/><g><!--class TroopOfOrangutan--><g id="elem_TroopOfOrangutan"><rect fill="#F1F1F1" height="48" id="TroopOfOrangutan" rx="2.5" ry="2.5" style="stroke:#181818;stroke-width:0.5;" width="153" x="7" y="134"/><ellipse cx="22" cy="150" fill="#ADD1B2" rx="11" ry="11" style="stroke:#181818;stroke-width:1.0;"/><path d="M21.3438,155.8594 Q19.3594,155.8594 18.1875,154.3906 Q17.0313,152.9063 17.0313,149.8281 Q17.0313,147.2188 18.25,145.4688 Q19.4844,143.7188 21.6094,143.7188 Q22.1094,143.7188 22.6406,143.8594 Q23.0781,144.0469 23.3438,144.0469 Q23.5625,144.0469 23.6563,144 Q23.7656,143.9531 24.2188,143.3594 L24.9844,147.0938 L24.0938,147.3594 Q23.6406,145.9063 23.0313,145.3125 Q22.4375,144.7031 21.4844,144.7031 Q20.2656,144.7031 19.5469,146.1406 Q18.8281,147.5625 18.8281,149.75 Q18.8281,152.1563 19.4375,153.4531 Q20.0625,154.7344 21.4219,154.7344 Q22.375,154.7344 23.0625,154.0469 Q23.75,153.3438 24.0781,151.8438 L24.9844,152.25 Q24.5781,153.9531 23.6094,154.9063 Q22.6563,155.8594 21.3438,155.8594 Z " fill="#000000"/><text fill="#000000" font-family="sans-serif" font-size="14" lengthAdjust="spacing" textLength="121" x="36" y="156.4839">TroopOfOrangutan</text><line style="stroke:#181818;stroke-width:0.5;" x1="8" x2="159" y1="166" y2="166"/><line style="stroke:#181818;stroke-width:0.5;" x1="8" x2="159" y1="174" y2="174"/></g><!--class Inlet--><g id="elem_Inlet"><rect fill="#F1F1F1" height="48" id="Inlet" rx="2.5" ry="2.5" style="stroke:#181818;stroke-width:0.5;" width="58" x="54.5" y="261"/><ellipse cx="69.5" cy="277" fill="#ADD1B2" rx="11" ry="11" style="stroke:#181818;stroke-width:1.0;"/><path d="M68.8438,282.8594 Q66.8594,282.8594 65.6875,281.3906 Q64.5313,279.9063 64.5313,276.8281 Q64.5313,274.2188 65.75,272.4688 Q66.9844,270.7188 69.1094,270.7188 Q69.6094,270.7188 70.1406,270.8594 Q70.5781,271.0469 70.8438,271.0469 Q71.0625,271.0469 71.1563,271 Q71.2656,270.9531 71.7188,270.3594 L72.4844,274.0938 L71.5938,274.3594 Q71.1406,272.9063 70.5313,272.3125 Q69.9375,271.7031 68.9844,271.7031 Q67.7656,271.7031 67.0469,273.1406 Q66.3281,274.5625 66.3281,276.75 Q66.3281,279.1563 66.9375,280.4531 Q67.5625,281.7344 68.9219,281.7344 Q69.875,281.7344 70.5625,281.0469 Q71.25,280.3438 71.5781,278.8438 L72.4844,279.25 Q72.0781,280.9531 71.1094,281.9063 Q70.1563,282.8594 68.8438,282.8594 Z " fill="#000000"/><text fill="#000000" font-family="sans-serif" font-size="14" lengthAdjust="spacing" textLength="26" x="83.5" y="283.4839">Inlet</text><line style="stroke:#181818;stroke-width:0.5;" x1="55.5" x2="111.5" y1="293" y2="293"/><line style="stroke:#181818;stroke-width:0.5;" x1="55.5" x2="111.5" y1="301" y2="301"/></g><!--class Orangutan--><g id="elem_Orangutan"><rect fill="#F1F1F1" height="48" id="Orangutan" rx="2.5" ry="2.5" style="stroke:#181818;stroke-width:0.5;" width="100" x="33.5" y="7"/><ellipse cx="48.5" cy="23" fill="#ADD1B2" rx="11" ry="11" style="stroke:#181818;stroke-width:1.0;"/><path d="M47.8438,28.8594 Q45.8594,28.8594 44.6875,27.3906 Q43.5313,25.9063 43.5313,22.8281 Q43.5313,20.2188 44.75,18.4688 Q45.9844,16.7188 48.1094,16.7188 Q48.6094,16.7188 49.1406,16.8594 Q49.5781,17.0469 49.8438,17.0469 Q50.0625,17.0469 50.1563,17 Q50.2656,16.9531 50.7188,16.3594 L51.4844,20.0938 L50.5938,20.3594 Q50.1406,18.9063 49.5313,18.3125 Q48.9375,17.7031 47.9844,17.7031 Q46.7656,17.7031 46.0469,19.1406 Q45.3281,20.5625 45.3281,22.75 Q45.3281,25.1563 45.9375,26.4531 Q46.5625,27.7344 47.9219,27.7344 Q48.875,27.7344 49.5625,27.0469 Q50.25,26.3438 50.5781,24.8438 L51.4844,25.25 Q51.0781,26.9531 50.1094,27.9063 Q49.1563,28.8594 47.8438,28.8594 Z " fill="#000000"/><text fill="#000000" font-family="sans-serif" font-size="14" lengthAdjust="spacing" textLength="68" x="62.5" y="29.4839">Orangutan</text><line style="stroke:#181818;stroke-width:0.5;" x1="34.5" x2="132.5" y1="39" y2="39"/><line style="stroke:#181818;stroke-width:0.5;" x1="34.5" x2="132.5" y1="47" y2="47"/></g><!--reverse link TroopOfOrangutan to Inlet--><g id="link_TroopOfOrangutan_Inlet"><path codeLine="1" d="M83.5,194.22 C83.5,216.67 83.5,238.5 83.5,260.91 " fill="none" id="TroopOfOrangutan-backto-Inlet" style="stroke:#181818;stroke-width:1.0;"/><polygon fill="none" points="83.5,182.22,79.5,188.22,83.5,194.22,87.5,188.22,83.5,182.22" style="stroke:#181818;stroke-width:1.0;"/><text fill="#000000" font-family="sans-serif" font-size="13" lengthAdjust="spacing" textLength="64" x="84.5" y="227.8979">aggregates</text></g><!--reverse link Orangutan to TroopOfOrangutan--><g id="link_Orangutan_TroopOfOrangutan"><path codeLine="2" d="M83.5,67.22 C83.5,89.67 83.5,111.5 83.5,133.91 " fill="none" id="Orangutan-backto-TroopOfOrangutan" style="stroke:#181818;stroke-width:1.0;"/><polygon fill="none" points="83.5,55.22,79.5,61.22,83.5,67.22,87.5,61.22,83.5,55.22" style="stroke:#181818;stroke-width:1.0;"/><text fill="#000000" font-family="sans-serif" font-size="13" lengthAdjust="spacing" textLength="64" x="84.5" y="100.8979">aggregates</text></g><!--SRC=[2odApo_mJ_ClIinBBor9p5F8rzLLyCpBIIrHi598J4ylIarFB4ajva9L48Ak2raj0000]--></g></svg>