<?xml version="1.0" encoding="us-ascii" standalone="no"?><svg xmlns="http://www.w3.org/2000/svg" xmlns:xlink="http://www.w3.org/1999/xlink" contentStyleType="text/css" height="316px" preserveAspectRatio="none" style="width:172px;height:316px;background:#FFFFFF;" version="1.1" viewBox="0 0 172 316" width="172px" zoomAndPan="magnify"><defs/><g><!--class BuildingPowerFeed--><g id="elem_BuildingPowerFeed"><rect fill="#F1F1F1" height="48" id="BuildingPowerFeed" rx="2.5" ry="2.5" style="stroke:#181818;stroke-width:0.5;" width="154" x="9" y="134"/><ellipse cx="24" cy="150" fill="#ADD1B2" rx="11" ry="11" style="stroke:#181818;stroke-width:1.0;"/><path d="M23.3438,155.8594 Q21.3594,155.8594 20.1875,154.3906 Q19.0313,152.9063 19.0313,149.8281 Q19.0313,147.2188 20.25,145.4688 Q21.4844,143.7188 23.6094,143.7188 Q24.1094,143.7188 24.6406,143.8594 Q25.0781,144.0469 25.3438,144.0469 Q25.5625,144.0469 25.6563,144 Q25.7656,143.9531 26.2188,143.3594 L26.9844,147.0938 L26.0938,147.3594 Q25.6406,145.9063 25.0313,145.3125 Q24.4375,144.7031 23.4844,144.7031 Q22.2656,144.7031 21.5469,146.1406 Q20.8281,147.5625 20.8281,149.75 Q20.8281,152.1563 21.4375,153.4531 Q22.0625,154.7344 23.4219,154.7344 Q24.375,154.7344 25.0625,154.0469 Q25.75,153.3438 26.0781,151.8438 L26.9844,152.25 Q26.5781,153.9531 25.6094,154.9063 Q24.6563,155.8594 23.3438,155.8594 Z " fill="#000000"/><text fill="#000000" font-family="sans-serif" font-size="14" lengthAdjust="spacing" textLength="122" x="38" y="156.4839">BuildingPowerFeed</text><line style="stroke:#181818;stroke-width:0.5;" x1="10" x2="162" y1="166" y2="166"/><line style="stroke:#181818;stroke-width:0.5;" x1="10" x2="162" y1="174" y2="174"/></g><!--class CircuitBreakerPanel--><g id="elem_CircuitBreakerPanel"><rect fill="#F1F1F1" height="48" id="CircuitBreakerPanel" rx="2.5" ry="2.5" style="stroke:#181818;stroke-width:0.5;" width="158" x="7" y="261"/><ellipse cx="22" cy="277" fill="#ADD1B2" rx="11" ry="11" style="stroke:#181818;stroke-width:1.0;"/><path d="M21.3438,282.8594 Q19.3594,282.8594 18.1875,281.3906 Q17.0313,279.9063 17.0313,276.8281 Q17.0313,274.2188 18.25,272.4688 Q19.4844,270.7188 21.6094,270.7188 Q22.1094,270.7188 22.6406,270.8594 Q23.0781,271.0469 23.3438,271.0469 Q23.5625,271.0469 23.6563,271 Q23.7656,270.9531 24.2188,270.3594 L24.9844,274.0938 L24.0938,274.3594 Q23.6406,272.9063 23.0313,272.3125 Q22.4375,271.7031 21.4844,271.7031 Q20.2656,271.7031 19.5469,273.1406 Q18.8281,274.5625 18.8281,276.75 Q18.8281,279.1563 19.4375,280.4531 Q20.0625,281.7344 21.4219,281.7344 Q22.375,281.7344 23.0625,281.0469 Q23.75,280.3438 24.0781,278.8438 L24.9844,279.25 Q24.5781,280.9531 23.6094,281.9063 Q22.6563,282.8594 21.3438,282.8594 Z " fill="#000000"/><text fill="#000000" font-family="sans-serif" font-size="14" lengthAdjust="spacing" textLength="126" x="36" y="283.4839">CircuitBreakerPanel</text><line style="stroke:#181818;stroke-width:0.5;" x1="8" x2="164" y1="293" y2="293"/><line style="stroke:#181818;stroke-width:0.5;" x1="8" x2="164" y1="301" y2="301"/></g><!--class Elevator--><g id="elem_Elevator"><rect fill="#F1F1F1" height="48" id="Elevator" rx="2.5" ry="2.5" style="stroke:#181818;stroke-width:0.5;" width="84" x="44" y="7"/><ellipse cx="59" cy="23" fill="#ADD1B2" rx="11" ry="11" style="stroke:#181818;stroke-width:1.0;"/><path d="M58.3438,28.8594 Q56.3594,28.8594 55.1875,27.3906 Q54.0313,25.9063 54.0313,22.8281 Q54.0313,20.2188 55.25,18.4688 Q56.4844,16.7188 58.6094,16.7188 Q59.1094,16.7188 59.6406,16.8594 Q60.0781,17.0469 60.3438,17.0469 Q60.5625,17.0469 60.6563,17 Q60.7656,16.9531 61.2188,16.3594 L61.9844,20.0938 L61.0938,20.3594 Q60.6406,18.9063 60.0313,18.3125 Q59.4375,17.7031 58.4844,17.7031 Q57.2656,17.7031 56.5469,19.1406 Q55.8281,20.5625 55.8281,22.75 Q55.8281,25.1563 56.4375,26.4531 Q57.0625,27.7344 58.4219,27.7344 Q59.375,27.7344 60.0625,27.0469 Q60.75,26.3438 61.0781,24.8438 L61.9844,25.25 Q61.5781,26.9531 60.6094,27.9063 Q59.6563,28.8594 58.3438,28.8594 Z " fill="#000000"/><text fill="#000000" font-family="sans-serif" font-size="14" lengthAdjust="spacing" textLength="52" x="73" y="29.4839">Elevator</text><line style="stroke:#181818;stroke-width:0.5;" x1="45" x2="127" y1="39" y2="39"/><line style="stroke:#181818;stroke-width:0.5;" x1="45" x2="127" y1="47" y2="47"/></g><!--link BuildingPowerFeed to CircuitBreakerPanel--><g id="link_BuildingPowerFeed_CircuitBreakerPanel"><path codeLine="1" d="M86,182.22 C86,204.67 86,232.5 86,254.91 " fill="none" id="BuildingPowerFeed-to-CircuitBreakerPanel" style="stroke:#181818;stroke-width:1.0;stroke-dasharray:7.0,7.0;"/><polygon fill="#181818" points="86,260.91,90,251.91,86,255.91,82,251.91,86,260.91" style="stroke:#181818;stroke-width:1.0;"/><text fill="#000000" font-family="sans-serif" font-size="13" lengthAdjust="spacing" textLength="67" x="87" y="227.8979">depends on</text></g><!--link Elevator to BuildingPowerFeed--><g id="link_Elevator_BuildingPowerFeed"><path codeLine="2" d="M86,55.22 C86,77.67 86,105.5 86,127.91 " fill="none" id="Elevator-to-BuildingPowerFeed" style="stroke:#181818;stroke-width:1.0;stroke-dasharray:7.0,7.0;"/><polygon fill="#181818" points="86,133.91,90,124.91,86,128.91,82,124.91,86,133.91" style="stroke:#181818;stroke-width:1.0;"/><text fill="#000000" font-family="sans-serif" font-size="13" lengthAdjust="spacing" textLength="67" x="87" y="100.8979">depends on</text></g><!--SRC=[SohDp4d9p4iFo2zFBN9BJKrHqDEpKt3EB4ekpInnAafDp4uj2aZCIyrHi598IIr8pKifLiZFutBDIIrBBCal0gjsmZ03MIq0]--></g></svg>