<?xml version="1.0" encoding="us-ascii" standalone="no"?><svg xmlns="http://www.w3.org/2000/svg" xmlns:xlink="http://www.w3.org/1999/xlink" contentStyleType="text/css" height="316px" preserveAspectRatio="none" style="width:165px;height:316px;background:#FFFFFF;" version="1.1" viewBox="0 0 165 316" width="165px" zoomAndPan="magnify"><defs/><g><!--class UtilityTransformer--><g id="elem_UtilityTransformer"><rect fill="#F1F1F1" height="48" id="UtilityTransformer" rx="2.5" ry="2.5" style="stroke:#181818;stroke-width:0.5;" width="143" x="11" y="134"/><ellipse cx="26" cy="150" fill="#ADD1B2" rx="11" ry="11" style="stroke:#181818;stroke-width:1.0;"/><path d="M25.3438,155.8594 Q23.3594,155.8594 22.1875,154.3906 Q21.0313,152.9063 21.0313,149.8281 Q21.0313,147.2188 22.25,145.4688 Q23.4844,143.7188 25.6094,143.7188 Q26.1094,143.7188 26.6406,143.8594 Q27.0781,144.0469 27.3438,144.0469 Q27.5625,144.0469 27.6563,144 Q27.7656,143.9531 28.2188,143.3594 L28.9844,147.0938 L28.0938,147.3594 Q27.6406,145.9063 27.0313,145.3125 Q26.4375,144.7031 25.4844,144.7031 Q24.2656,144.7031 23.5469,146.1406 Q22.8281,147.5625 22.8281,149.75 Q22.8281,152.1563 23.4375,153.4531 Q24.0625,154.7344 25.4219,154.7344 Q26.375,154.7344 27.0625,154.0469 Q27.75,153.3438 28.0781,151.8438 L28.9844,152.25 Q28.5781,153.9531 27.6094,154.9063 Q26.6563,155.8594 25.3438,155.8594 Z " fill="#000000"/><text fill="#000000" font-family="sans-serif" font-size="14" lengthAdjust="spacing" textLength="111" x="40" y="156.4839">UtilityTransformer</text><line style="stroke:#181818;stroke-width:0.5;" x1="12" x2="153" y1="166" y2="166"/><line style="stroke:#181818;stroke-width:0.5;" x1="12" x2="153" y1="174" y2="174"/></g><!--class DistributionLine--><g id="elem_DistributionLine"><rect fill="#F1F1F1" height="48" id="DistributionLine" rx="2.5" ry="2.5" style="stroke:#181818;stroke-width:0.5;" width="130" x="17.5" y="261"/><ellipse cx="32.5" cy="277" fill="#ADD1B2" rx="11" ry="11" style="stroke:#181818;stroke-width:1.0;"/><path d="M31.8438,282.8594 Q29.8594,282.8594 28.6875,281.3906 Q27.5313,279.9063 27.5313,276.8281 Q27.5313,274.2188 28.75,272.4688 Q29.9844,270.7188 32.1094,270.7188 Q32.6094,270.7188 33.1406,270.8594 Q33.5781,271.0469 33.8438,271.0469 Q34.0625,271.0469 34.1563,271 Q34.2656,270.9531 34.7188,270.3594 L35.4844,274.0938 L34.5938,274.3594 Q34.1406,272.9063 33.5313,272.3125 Q32.9375,271.7031 31.9844,271.7031 Q30.7656,271.7031 30.0469,273.1406 Q29.3281,274.5625 29.3281,276.75 Q29.3281,279.1563 29.9375,280.4531 Q30.5625,281.7344 31.9219,281.7344 Q32.875,281.7344 33.5625,281.0469 Q34.25,280.3438 34.5781,278.8438 L35.4844,279.25 Q35.0781,280.9531 34.1094,281.9063 Q33.1563,282.8594 31.8438,282.8594 Z " fill="#000000"/><text fill="#000000" font-family="sans-serif" font-size="14" lengthAdjust="spacing" textLength="98" x="46.5" y="283.4839">DistributionLine</text><line style="stroke:#181818;stroke-width:0.5;" x1="18.5" x2="146.5" y1="293" y2="293"/><line style="stroke:#181818;stroke-width:0.5;" x1="18.5" x2="146.5" y1="301" y2="301"/></g><!--class TractionSubstation--><g id="elem_TractionSubstation"><rect fill="#F1F1F1" height="48" id="TractionSubstation" rx="2.5" ry="2.5" style="stroke:#181818;stroke-width:0.5;" width="151" x="7" y="7"/><ellipse cx="22" cy="23" fill="#ADD1B2" rx="11" ry="11" style="stroke:#181818;stroke-width:1.0;"/><path d="M21.3438,28.8594 Q19.3594,28.8594 18.1875,27.3906 Q17.0313,25.9063 17.0313,22.8281 Q17.0313,20.2188 18.25,18.4688 Q19.4844,16.7188 21.6094,16.7188 Q22.1094,16.7188 22.6406,16.8594 Q23.0781,17.0469 23.3438,17.0469 Q23.5625,17.0469 23.6563,17 Q23.7656,16.9531 24.2188,16.3594 L24.9844,20.0938 L24.0938,20.3594 Q23.6406,18.9063 23.0313,18.3125 Q22.4375,17.7031 21.4844,17.7031 Q20.2656,17.7031 19.5469,19.1406 Q18.8281,20.5625 18.8281,22.75 Q18.8281,25.1563 19.4375,26.4531 Q20.0625,27.7344 21.4219,27.7344 Q22.375,27.7344 23.0625,27.0469 Q23.75,26.3438 24.0781,24.8438 L24.9844,25.25 Q24.5781,26.9531 23.6094,27.9063 Q22.6563,28.8594 21.3438,28.8594 Z " fill="#000000"/><text fill="#000000" font-family="sans-serif" font-size="14" lengthAdjust="spacing" textLength="119" x="36" y="29.4839">TractionSubstation</text><line style="stroke:#181818;stroke-width:0.5;" x1="8" x2="157" y1="39" y2="39"/><line style="stroke:#181818;stroke-width:0.5;" x1="8" x2="157" y1="47" y2="47"/></g><!--link UtilityTransformer to DistributionLine--><g id="link_UtilityTransformer_DistributionLine"><path codeLine="1" d="M82.5,182.22 C82.5,204.67 82.5,232.5 82.5,254.91 " fill="none" id="UtilityTransformer-to-DistributionLine" style="stroke:#181818;stroke-width:1.0;stroke-dasharray:7.0,7.0;"/><polygon fill="#181818" points="82.5,260.91,86.5,251.91,82.5,255.91,78.5,251.91,82.5,260.91" style="stroke:#181818;stroke-width:1.0;"/><text fill="#000000" font-family="sans-serif" font-size="13" lengthAdjust="spacing" textLength="67" x="83.5" y="227.8979">depends on</text></g><!--link TractionSubstation to UtilityTransformer--><g id="link_TractionSubstation_UtilityTransformer"><path codeLine="2" d="M82.5,55.22 C82.5,77.67 82.5,105.5 82.5,127.91 " fill="none" id="TractionSubstation-to-UtilityTransformer" style="stroke:#181818;stroke-width:1.0;stroke-dasharray:7.0,7.0;"/><polygon fill="#181818" points="82.5,133.91,86.5,124.91,82.5,128.91,78.5,124.91,82.5,133.91" style="stroke:#181818;stroke-width:1.0;"/><text fill="#000000" font-family="sans-serif" font-size="13" lengthAdjust="spacing" textLength="67" x="83.5" y="100.8979">depends on</text></g><!--SRC=[2ot9pCaigGmfIimhJiiloaqjKj3JirDmoImkASfCAYt9pC_poSnBLR1II4ajICrBALR8p-C2gau6oGIN9XMN989OO4sXc6OXQmC0]--></g></svg>