<?xml version="1.0" encoding="us-ascii" standalone="no"?><svg xmlns="http://www.w3.org/2000/svg" xmlns:xlink="http://www.w3.org/1999/xlink" contentStyleType="text/css" height="316px" preserveAspectRatio="none" style="width:168px;height:316px;background:#FFFFFF;" version="1.1" viewBox="0 0 168 316" width="168px" zoomAndPan="magnify"><defs/><g><!--class MemberCompany--><g id="elem_MemberCompany"><rect fill="#F1F1F1" height="48" id="MemberCompany" rx="2.5" ry="2.5" style="stroke:#181818;stroke-width:0.5;" width="143" x="12.5" y="134"/><ellipse cx="27.5" cy="150" fill="#ADD1B2" rx="11" ry="11" style="stroke:#181818;stroke-width:1.0;"/><path d="M26.8438,155.8594 Q24.8594,155.8594 23.6875,154.3906 Q22.5313,152.9063 22.5313,149.8281 Q22.5313,147.2188 23.75,145.4688 Q24.9844,143.7188 27.1094,143.7188 Q27.6094,143.7188 28.1406,143.8594 Q28.5781,144.0469 28.8438,144.0469 Q29.0625,144.0469 29.1563,144 Q29.2656,143.9531 29.7188,143.3594 L30.4844,147.0938 L29.5938,147.3594 Q29.1406,145.9063 28.5313,145.3125 Q27.9375,144.7031 26.9844,144.7031 Q25.7656,144.7031 25.0469,146.1406 Q24.3281,147.5625 24.3281,149.75 Q24.3281,152.1563 24.9375,153.4531 Q25.5625,154.7344 26.9219,154.7344 Q27.875,154.7344 28.5625,154.0469 Q29.25,153.3438 29.5781,151.8438 L30.4844,152.25 Q30.0781,153.9531 29.1094,154.9063 Q28.1563,155.8594 26.8438,155.8594 Z " fill="#000000"/><text fill="#000000" font-family="sans-serif" font-size="14" lengthAdjust="spacing" textLength="111" x="41.5" y="156.4839">MemberCompany</text><line style="stroke:#181818;stroke-width:0.5;" x1="13.5" x2="154.5" y1="166" y2="166"/><line style="stroke:#181818;stroke-width:0.5;" x1="13.5" x2="154.5" y1="174" y2="174"/></g><!--class IndustryAssociation--><g id="elem_IndustryAssociation"><rect fill="#F1F1F1" height="48" id="IndustryAssociation" rx="2.5" ry="2.5" style="stroke:#181818;stroke-width:0.5;" width="154" x="7" y="261"/><ellipse cx="22" cy="277" fill="#ADD1B2" rx="11" ry="11" style="stroke:#181818;stroke-width:1.0;"/><path d="M21.3438,282.8594 Q19.3594,282.8594 18.1875,281.3906 Q17.0313,279.9063 17.0313,276.8281 Q17.0313,274.2188 18.25,272.4688 Q19.4844,270.7188 21.6094,270.7188 Q22.1094,270.7188 22.6406,270.8594 Q23.0781,271.0469 23.3438,271.0469 Q23.5625,271.0469 23.6563,271 Q23.7656,270.9531 24.2188,270.3594 L24.9844,274.0938 L24.0938,274.3594 Q23.6406,272.9063 23.0313,272.3125 Q22.4375,271.7031 21.4844,271.7031 Q20.2656,271.7031 19.5469,273.1406 Q18.8281,274.5625 18.8281,276.75 Q18.8281,279.1563 19.4375,280.4531 Q20.0625,281.7344 21.4219,281.7344 Q22.375,281.7344 23.0625,281.0469 Q23.75,280.3438 24.0781,278.8438 L24.9844,279.25 Q24.5781,280.9531 23.6094,281.9063 Q22.6563,282.8594 21.3438,282.8594 Z " fill="#000000"/><text fill="#000000" font-family="sans-serif" font-size="14" lengthAdjust="spacing" textLength="122" x="36" y="283.4839">IndustryAssociation</text><line style="stroke:#181818;stroke-width:0.5;" x1="8" x2="160" y1="293" y2="293"/><line style="stroke:#181818;stroke-width:0.5;" x1="8" x2="160" y1="301" y2="301"/></g><!--class Liaison--><g id="elem_Liaison"><rect fill="#F1F1F1" height="48" id="Liaison" rx="2.5" ry="2.5" style="stroke:#181818;stroke-width:0.5;" width="77" x="45.5" y="7"/><ellipse cx="60.5" cy="23" fill="#ADD1B2" rx="11" ry="11" style="stroke:#181818;stroke-width:1.0;"/><path d="M59.8438,28.8594 Q57.8594,28.8594 56.6875,27.3906 Q55.5313,25.9063 55.5313,22.8281 Q55.5313,20.2188 56.75,18.4688 Q57.9844,16.7188 60.1094,16.7188 Q60.6094,16.7188 61.1406,16.8594 Q61.5781,17.0469 61.8438,17.0469 Q62.0625,17.0469 62.1563,17 Q62.2656,16.9531 62.7188,16.3594 L63.4844,20.0938 L62.5938,20.3594 Q62.1406,18.9063 61.5313,18.3125 Q60.9375,17.7031 59.9844,17.7031 Q58.7656,17.7031 58.0469,19.1406 Q57.3281,20.5625 57.3281,22.75 Q57.3281,25.1563 57.9375,26.4531 Q58.5625,27.7344 59.9219,27.7344 Q60.875,27.7344 61.5625,27.0469 Q62.25,26.3438 62.5781,24.8438 L63.4844,25.25 Q63.0781,26.9531 62.1094,27.9063 Q61.1563,28.8594 59.8438,28.8594 Z " fill="#000000"/><text fill="#000000" font-family="sans-serif" font-size="14" lengthAdjust="spacing" textLength="45" x="74.5" y="29.4839">Liaison</text><line style="stroke:#181818;stroke-width:0.5;" x1="46.5" x2="121.5" y1="39" y2="39"/><line style="stroke:#181818;stroke-width:0.5;" x1="46.5" x2="121.5" y1="47" y2="47"/></g><!--reverse link MemberCompany to IndustryAssociation--><g id="link_MemberCompany_IndustryAssociation"><path codeLine="1" d="M84,194.22 C84,216.67 84,238.5 84,260.91 " fill="none" id="MemberCompany-backto-IndustryAssociation" style="stroke:#181818;stroke-width:1.0;"/><polygon fill="none" points="84,182.22,80,188.22,84,194.22,88,188.22,84,182.22" style="stroke:#181818;stroke-width:1.0;"/><text fill="#000000" font-family="sans-serif" font-size="13" lengthAdjust="spacing" textLength="64" x="85" y="227.8979">aggregates</text></g><!--reverse link Liaison to MemberCompany--><g id="link_Liaison_MemberCompany"><path codeLine="2" d="M84,67.22 C84,89.67 84,111.5 84,133.91 " fill="none" id="Liaison-backto-MemberCompany" style="stroke:#181818;stroke-width:1.0;"/><polygon fill="none" points="84,55.22,80,61.22,84,67.22,88,61.22,84,55.22" style="stroke:#181818;stroke-width:1.0;"/><text fill="#000000" font-family="sans-serif" font-size="13" lengthAdjust="spacing" textLength="64" x="85" y="100.8979">aggregates</text></g><!--SRC=[yqtDJKejSixFBKZCgrJ8rzLLyCnBAIqkAQfqB2xEJyvCBCdCprEmKaXCJozAJKyiIItcyibCp2m62e8K-w9eHrO60000]--></g></svg>