<?xml version="1.0" encoding="us-ascii" standalone="no"?><svg xmlns="http://www.w3.org/2000/svg" xmlns:xlink="http://www.w3.org/1999/xlink" contentStyleType="text/css" height="189px" preserveAspectRatio="none" style="width:139px;height:189px;background:#FFFFFF;" version="1.1" viewBox="0 0 139 189" width="139px" zoomAndPan="magnify"><defs/><g><!--class Harbor--><g id="elem_Harbor"><rect fill="#F1F1F1" height="48" id="Harbor" rx="2.5" ry="2.5" style="stroke:#181818;stroke-width:0.5;" width="75" x="28.5" y="7"/><ellipse cx="43.5" cy="23" fill="#ADD1B2" rx="11" ry="11" style="stroke:#181818;stroke-width:1.0;"/><path d="M42.8438,28.8594 Q40.8594,28.8594 39.6875,27.3906 Q38.5313,25.9063 38.5313,22.8281 Q38.5313,20.2188 39.75,18.4688 Q40.9844,16.7188 43.1094,16.7188 Q43.6094,16.7188 44.1406,16.8594 Q44.5781,17.0469 44.8438,17.0469 Q45.0625,17.0469 45.1563,17 Q45.2656,16.9531 45.7188,16.3594 L46.4844,20.0938 L45.5938,20.3594 Q45.1406,18.9063 44.5313,18.3125 Q43.9375,17.7031 42.9844,17.7031 Q41.7656,17.7031 41.0469,19.1406 Q40.3281,20.5625 40.3281,22.75 Q40.3281,25.1563 40.9375,26.4531 Q41.5625,27.7344 42.9219,27.7344 Q43.875,27.7344 44.5625,27.0469 Q45.25,26.3438 45.5781,24.8438 L46.4844,25.25 Q46.0781,26.9531 45.1094,27.9063 Q44.1563,28.8594 42.8438,28.8594 Z " fill="#000000"/><text fill="#000000" font-family="sans-serif" font-size="14" lengthAdjust="spacing" textLength="43" x="57.5" y="29.4839">Harbor</text><line style="stroke:#181818;stroke-width:0.5;" x1="29.5" x2="102.5" y1="39" y2="39"/><line style="stroke:#181818;stroke-width:0.5;" x1="29.5" x2="102.5" y1="47" y2="47"/></g><!--class PackOfHyena--><g id="elem_PackOfHyena"><rect fill="#F1F1F1" height="48" id="PackOfHyena" rx="2.5" ry="2.5" style="stroke:#181818;stroke-width:0.5;" width="118" x="7" y="134"/><ellipse cx="22" cy="150" fill="#ADD1B2" rx="11" ry="11" style="stroke:#181818;stroke-width:1.0;"/><path d="M21.3438,155.8594 Q19.3594,155.8594 18.1875,154.3906 Q17.0313,152.9063 17.0313,149.8281 Q17.0313,147.2188 18.25,145.4688 Q19.4844,143.7188 21.6094,143.7188 Q22.1094,143.7188 22.6406,143.8594 Q23.0781,144.0469 23.3438,144.0469 Q23.5625,144.0469 23.6563,144 Q23.7656,143.9531 24.2188,143.3594 L24.9844,147.0938 L24.0938,147.3594 Q23.6406,145.9063 23.0313,145.3125 Q22.4375,144.7031 21.4844,144.7031 Q20.2656,144.7031 19.5469,146.1406 Q18.8281,147.5625 18.8281,149.75 Q18.8281,152.1563 19.4375,153.4531 Q20.0625,154.7344 21.4219,154.7344 Q22.375,154.7344 23.0625,154.0469 Q23.75,153.3438 24.0781,151.8438 L24.9844,152.25 Q24.5781,153.9531 23.6094,154.9063 Q22.6563,155.8594 21.3438,155.8594 Z " fill="#000000"/><text fill="#000000" font-family="sans-serif" font-size="14" lengthAdjust="spacing" textLength="86" x="36" y="156.4839">PackOfHyena</text><line style="stroke:#181818;stroke-width:0.5;" x1="8" x2="124" y1="166" y2="166"/><line style="stroke:#181818;stroke-width:0.5;" x1="8" x2="124" y1="174" y2="174"/></g><!--reverse link Harbor to PackOfHyena--><g id="link_Harbor_PackOfHyena"><path codeLine="1" d="M66,67.22 C66,89.67 66,111.5 66,133.91 " fill="none" id="Harbor-backto-PackOfHyena" style="stroke:#181818;stroke-width:1.0;"/><polygon fill="none" points="66,55.22,62,61.22,66,67.22,70,61.22,66,55.22" style="stroke:#181818;stroke-width:1.0;"/><text fill="#000000" font-family="sans-serif" font-size="13" lengthAdjust="spacing" textLength="64" x="67" y="100.8979">aggregates</text></g><!--SRC=[yqWiIielKiZNrLK8I4pEza_pg4pDIrImKaXCJozAJKyiIIq60000]--></g></svg>