<?xml version="1.0" encoding="us-ascii" standalone="no"?><svg xmlns="http://www.w3.org/2000/svg" xmlns:xlink="http://www.w3.org/1999/xlink" contentStyleType="text/css" height="316px" preserveAspectRatio="none" style="width:162px;height:316px;background:#FFFFFF;" version="1.1" viewBox="0 0 162 316" width="162px" zoomAndPan="magnify"><defs/><g><!--class Sport--><g id="elem_Sport"><rect fill="#F1F1F1" height="48" id="Sport" rx="2.5" ry="2.5" style="stroke:#181818;stroke-width:0.5;" width="66" x="48" y="7"/><ellipse cx="63" cy="23" fill="#ADD1B2" rx="11" ry="11" style="stroke:#181818;stroke-width:1.0;"/><path d="M62.3438,28.8594 Q60.3594,28.8594 59.1875,27.3906 Q58.0313,25.9063 58.0313,22.8281 Q58.0313,20.2188 59.25,18.4688 Q60.4844,16.7188 62.6094,16.7188 Q63.1094,16.7188 63.6406,16.8594 Q64.0781,17.0469 64.3438,17.0469 Q64.5625,17.0469 64.6563,17 Q64.7656,16.9531 65.2188,16.3594 L65.9844,20.0938 L65.0938,20.3594 Q64.6406,18.9063 64.0313,18.3125 Q63.4375,17.7031 62.4844,17.7031 Q61.2656,17.7031 60.5469,19.1406 Q59.8281,20.5625 59.8281,22.75 Q59.8281,25.1563 60.4375,26.4531 Q61.0625,27.7344 62.4219,27.7344 Q63.375,27.7344 64.0625,27.0469 Q64.75,26.3438 65.0781,24.8438 L65.9844,25.25 Q65.5781,26.9531 64.6094,27.9063 Q63.6563,28.8594 62.3438,28.8594 Z " fill="#000000"/><text fill="#000000" font-family="sans-serif" font-size="14" lengthAdjust="spacing" textLength="34" x="77" y="29.4839">Sport</text><line style="stroke:#181818;stroke-width:0.5;" x1="49" x2="113" y1="39" y2="39"/><line style="stroke:#181818;stroke-width:0.5;" x1="49" x2="113" y1="47" y2="47"/></g><!--class IndividualSport--><g id="elem_IndividualSport"><rect fill="#F1F1F1" height="48" id="IndividualSport" rx="2.5" ry="2.5" style="stroke:#181818;stroke-width:0.5;" width="125" x="18.5" y="134"/><ellipse cx="33.5" cy="150" fill="#ADD1B2" rx="11" ry="11" style="stroke:#181818;stroke-width:1.0;"/><path d="M32.8438,155.8594 Q30.8594,155.8594 29.6875,154.3906 Q28.5313,152.9063 28.5313,149.8281 Q28.5313,147.2188 29.75,145.4688 Q30.9844,143.7188 33.1094,143.7188 Q33.6094,143.7188 34.1406,143.8594 Q34.5781,144.0469 34.8438,144.0469 Q35.0625,144.0469 35.1563,144 Q35.2656,143.9531 35.7188,143.3594 L36.4844,147.0938 L35.5938,147.3594 Q35.1406,145.9063 34.5313,145.3125 Q33.9375,144.7031 32.9844,144.7031 Q31.7656,144.7031 31.0469,146.1406 Q30.3281,147.5625 30.3281,149.75 Q30.3281,152.1563 30.9375,153.4531 Q31.5625,154.7344 32.9219,154.7344 Q33.875,154.7344 34.5625,154.0469 Q35.25,153.3438 35.5781,151.8438 L36.4844,152.25 Q36.0781,153.9531 35.1094,154.9063 Q34.1563,155.8594 32.8438,155.8594 Z " fill="#000000"/><text fill="#000000" font-family="sans-serif" font-size="14" lengthAdjust="spacing" textLength="93" x="47.5" y="156.4839">IndividualSport</text><line style="stroke:#181818;stroke-width:0.5;" x1="19.5" x2="142.5" y1="166" y2="166"/><line style="stroke:#181818;stroke-width:0.5;" x1="19.5" x2="142.5" y1="174" y2="174"/></g><!--class ModernPentathlon--><g id="elem_ModernPentathlon"><rect fill="#F1F1F1" height="48" id="ModernPentathlon" rx="2.5" ry="2.5" style="stroke:#181818;stroke-width:0.5;" width="148" x="7" y="261"/><ellipse cx="22" cy="277" fill="#ADD1B2" rx="11" ry="11" style="stroke:#181818;stroke-width:1.0;"/><path d="M21.3438,282.8594 Q19.3594,282.8594 18.1875,281.3906 Q17.0313,279.9063 17.0313,276.8281 Q17.0313,274.2188 18.25,272.4688 Q19.4844,270.7188 21.6094,270.7188 Q22.1094,270.7188 22.6406,270.8594 Q23.0781,271.0469 23.3438,271.0469 Q23.5625,271.0469 23.6563,271 Q23.7656,270.9531 24.2188,270.3594 L24.9844,274.0938 L24.0938,274.3594 Q23.6406,272.9063 23.0313,272.3125 Q22.4375,271.7031 21.4844,271.7031 Q20.2656,271.7031 19.5469,273.1406 Q18.8281,274.5625 18.8281,276.75 Q18.8281,279.1563 19.4375,280.4531 Q20.0625,281.7344 21.4219,281.7344 Q22.375,281.7344 23.0625,281.0469 Q23.75,280.3438 24.0781,278.8438 L24.9844,279.25 Q24.5781,280.9531 23.6094,281.9063 Q22.6563,282.8594 21.3438,282.8594 Z " fill="#000000"/><text fill="#000000" font-family="sans-serif" font-size="14" lengthAdjust="spacing" textLength="116" x="36" y="283.4839">ModernPentathlon</text><line style="stroke:#181818;stroke-width:0.5;" x1="8" x2="154" y1="293" y2="293"/><line style="stroke:#181818;stroke-width:0.5;" x1="8" x2="154" y1="301" y2="301"/></g><!--reverse link Sport to IndividualSport--><g id="link_Sport_IndividualSport"><path codeLine="1" d="M81,73.22 C81,95.67 81,111.5 81,133.91 " fill="none" id="Sport-backto-IndividualSport" style="stroke:#181818;stroke-width:1.0;"/><polygon fill="none" points="81,55.22,75,73.22,87,73.22,81,55.22" style="stroke:#181818;stroke-width:1.0;"/><text fill="#000000" font-family="sans-serif" font-size="13" lengthAdjust="spacing" textLength="42" x="82" y="100.8979">inherits</text></g><!--reverse link IndividualSport to ModernPentathlon--><g id="link_IndividualSport_ModernPentathlon"><path codeLine="2" d="M81,200.22 C81,222.67 81,238.5 81,260.91 " fill="none" id="IndividualSport-backto-ModernPentathlon" style="stroke:#181818;stroke-width:1.0;"/><polygon fill="none" points="81,182.22,75,200.22,87,200.22,81,182.22" style="stroke:#181818;stroke-width:1.0;"/><text fill="#000000" font-family="sans-serif" font-size="13" lengthAdjust="spacing" textLength="42" x="82" y="227.8979">inherits</text></g><!--SRC=[2ox8BofHiAdHrLNmp4l9BCjCAKtC2GOBMYbavcMa5cMM57EXIu7L- -Qdf1Rb1QJcbIIMPEJavo5f0000]--></g></svg>