<?xml version="1.0" encoding="us-ascii" standalone="no"?><svg xmlns="http://www.w3.org/2000/svg" xmlns:xlink="http://www.w3.org/1999/xlink" contentStyleType="text/css" height="316px" preserveAspectRatio="none" style="width:182px;height:316px;background:#FFFFFF;" version="1.1" viewBox="0 0 182 316" width="182px" zoomAndPan="magnify"><defs/><g><!--class Sport--><g id="elem_Sport"><rect fill="#F1F1F1" height="48" id="Sport" rx="2.5" ry="2.5" style="stroke:#181818;stroke-width:0.5;" width="66" x="58" y="7"/><ellipse cx="73" cy="23" fill="#ADD1B2" rx="11" ry="11" style="stroke:#181818;stroke-width:1.0;"/><path d="M72.3438,28.8594 Q70.3594,28.8594 69.1875,27.3906 Q68.0313,25.9063 68.0313,22.8281 Q68.0313,20.2188 69.25,18.4688 Q70.4844,16.7188 72.6094,16.7188 Q73.1094,16.7188 73.6406,16.8594 Q74.0781,17.0469 74.3438,17.0469 Q74.5625,17.0469 74.6563,17 Q74.7656,16.9531 75.2188,16.3594 L75.9844,20.0938 L75.0938,20.3594 Q74.6406,18.9063 74.0313,18.3125 Q73.4375,17.7031 72.4844,17.7031 Q71.2656,17.7031 70.5469,19.1406 Q69.8281,20.5625 69.8281,22.75 Q69.8281,25.1563 70.4375,26.4531 Q71.0625,27.7344 72.4219,27.7344 Q73.375,27.7344 74.0625,27.0469 Q74.75,26.3438 75.0781,24.8438 L75.9844,25.25 Q75.5781,26.9531 74.6094,27.9063 Q73.6563,28.8594 72.3438,28.8594 Z " fill="#000000"/><text fill="#000000" font-family="sans-serif" font-size="14" lengthAdjust="spacing" textLength="34" x="87" y="29.4839">Sport</text><line style="stroke:#181818;stroke-width:0.5;" x1="59" x2="123" y1="39" y2="39"/><line style="stroke:#181818;stroke-width:0.5;" x1="59" x2="123" y1="47" y2="47"/></g><!--class Basketball--><g id="elem_Basketball"><rect fill="#F1F1F1" height="48" id="Basketball" rx="2.5" ry="2.5" style="stroke:#181818;stroke-width:0.5;" width="97" x="42.5" y="134"/><ellipse cx="57.5" cy="150" fill="#ADD1B2" rx="11" ry="11" style="stroke:#181818;stroke-width:1.0;"/><path d="M56.8438,155.8594 Q54.8594,155.8594 53.6875,154.3906 Q52.5313,152.9063 52.5313,149.8281 Q52.5313,147.2188 53.75,145.4688 Q54.9844,143.7188 57.1094,143.7188 Q57.6094,143.7188 58.1406,143.8594 Q58.5781,144.0469 58.8438,144.0469 Q59.0625,144.0469 59.1563,144 Q59.2656,143.9531 59.7188,143.3594 L60.4844,147.0938 L59.5938,147.3594 Q59.1406,145.9063 58.5313,145.3125 Q57.9375,144.7031 56.9844,144.7031 Q55.7656,144.7031 55.0469,146.1406 Q54.3281,147.5625 54.3281,149.75 Q54.3281,152.1563 54.9375,153.4531 Q55.5625,154.7344 56.9219,154.7344 Q57.875,154.7344 58.5625,154.0469 Q59.25,153.3438 59.5781,151.8438 L60.4844,152.25 Q60.0781,153.9531 59.1094,154.9063 Q58.1563,155.8594 56.8438,155.8594 Z " fill="#000000"/><text fill="#000000" font-family="sans-serif" font-size="14" lengthAdjust="spacing" textLength="65" x="71.5" y="156.4839">Basketball</text><line style="stroke:#181818;stroke-width:0.5;" x1="43.5" x2="138.5" y1="166" y2="166"/><line style="stroke:#181818;stroke-width:0.5;" x1="43.5" x2="138.5" y1="174" y2="174"/></g><!--class WheelchairBasketball--><g id="elem_WheelchairBasketball"><rect fill="#F1F1F1" height="48" id="WheelchairBasketball" rx="2.5" ry="2.5" style="stroke:#181818;stroke-width:0.5;" width="168" x="7" y="261"/><ellipse cx="22" cy="277" fill="#ADD1B2" rx="11" ry="11" style="stroke:#181818;stroke-width:1.0;"/><path d="M21.3438,282.8594 Q19.3594,282.8594 18.1875,281.3906 Q17.0313,279.9063 17.0313,276.8281 Q17.0313,274.2188 18.25,272.4688 Q19.4844,270.7188 21.6094,270.7188 Q22.1094,270.7188 22.6406,270.8594 Q23.0781,271.0469 23.3438,271.0469 Q23.5625,271.0469 23.6563,271 Q23.7656,270.9531 24.2188,270.3594 L24.9844,274.0938 L24.0938,274.3594 Q23.6406,272.9063 23.0313,272.3125 Q22.4375,271.7031 21.4844,271.7031 Q20.2656,271.7031 19.5469,273.1406 Q18.8281,274.5625 18.8281,276.75 Q18.8281,279.1563 19.4375,280.4531 Q20.0625,281.7344 21.4219,281.7344 Q22.375,281.7344 23.0625,281.0469 Q23.75,280.3438 24.0781,278.8438 L24.9844,279.25 Q24.5781,280.9531 23.6094,281.9063 Q22.6563,282.8594 21.3438,282.8594 Z " fill="#000000"/><text fill="#000000" font-family="sans-serif" font-size="14" lengthAdjust="spacing" textLength="136" x="36" y="283.4839">WheelchairBasketball</text><line style="stroke:#181818;stroke-width:0.5;" x1="8" x2="174" y1="293" y2="293"/><line style="stroke:#181818;stroke-width:0.5;" x1="8" x2="174" y1="301" y2="301"/></g><!--reverse link Sport to Basketball--><g id="link_Sport_Basketball"><path codeLine="1" d="M91,73.22 C91,95.67 91,111.5 91,133.91 " fill="none" id="Sport-backto-Basketball" style="stroke:#181818;stroke-width:1.0;"/><polygon fill="none" points="91,55.22,85,73.22,97,73.22,91,55.22" style="stroke:#181818;stroke-width:1.0;"/><text fill="#000000" font-family="sans-serif" font-size="13" lengthAdjust="spacing" textLength="42" x="92" y="100.8979">inherits</text></g><!--reverse link Basketball to WheelchairBasketball--><g id="link_Basketball_WheelchairBasketball"><path codeLine="2" d="M91,200.22 C91,222.67 91,238.5 91,260.91 " fill="none" id="Basketball-backto-WheelchairBasketball" style="stroke:#181818;stroke-width:1.0;"/><polygon fill="none" points="91,182.22,85,200.22,97,200.22,91,182.22" style="stroke:#181818;stroke-width:1.0;"/><text fill="#000000" font-family="sans-serif" font-size="13" lengthAdjust="spacing" textLength="42" x="92" y="227.8979">inherits</text></g><!--SRC=[2ox8BofHiAdHrLLmIYpEJYr9Iip9KR1IoCpBI2tAB2dcGX85gmhFI4tDISv8p2p2gXu0]--></g></svg>