<?xml version="1.0" encoding="us-ascii" standalone="no"?><svg xmlns="http://www.w3.org/2000/svg" xmlns:xlink="http://www.w3.org/1999/xlink" contentStyleType="text/css" height="316px" preserveAspectRatio="none" style="width:189px;height:316px;background:#FFFFFF;" version="1.1" viewBox="0 0 189 316" width="189px" zoomAndPan="magnify"><defs/><g><!--class Sport--><g id="elem_Sport"><rect fill="#F1F1F1" height="48" id="Sport" rx="2.5" ry="2.5" style="stroke:#181818;stroke-width:0.5;" width="66" x="61.5" y="7"/><ellipse cx="76.5" cy="23" fill="#ADD1B2" rx="11" ry="11" style="stroke:#181818;stroke-width:1.0;"/><path d="M75.8438,28.8594 Q73.8594,28.8594 72.6875,27.3906 Q71.5313,25.9063 71.5313,22.8281 Q71.5313,20.2188 72.75,18.4688 Q73.9844,16.7188 76.1094,16.7188 Q76.6094,16.7188 77.1406,16.8594 Q77.5781,17.0469 77.8438,17.0469 Q78.0625,17.0469 78.1563,17 Q78.2656,16.9531 78.7188,16.3594 L79.4844,20.0938 L78.5938,20.3594 Q78.1406,18.9063 77.5313,18.3125 Q76.9375,17.7031 75.9844,17.7031 Q74.7656,17.7031 74.0469,19.1406 Q73.3281,20.5625 73.3281,22.75 Q73.3281,25.1563 73.9375,26.4531 Q74.5625,27.7344 75.9219,27.7344 Q76.875,27.7344 77.5625,27.0469 Q78.25,26.3438 78.5781,24.8438 L79.4844,25.25 Q79.0781,26.9531 78.1094,27.9063 Q77.1563,28.8594 75.8438,28.8594 Z " fill="#000000"/><text fill="#000000" font-family="sans-serif" font-size="14" lengthAdjust="spacing" textLength="34" x="90.5" y="29.4839">Sport</text><line style="stroke:#181818;stroke-width:0.5;" x1="62.5" x2="126.5" y1="39" y2="39"/><line style="stroke:#181818;stroke-width:0.5;" x1="62.5" x2="126.5" y1="47" y2="47"/></g><!--class Wrestling--><g id="elem_Wrestling"><rect fill="#F1F1F1" height="48" id="Wrestling" rx="2.5" ry="2.5" style="stroke:#181818;stroke-width:0.5;" width="91" x="49" y="134"/><ellipse cx="64" cy="150" fill="#ADD1B2" rx="11" ry="11" style="stroke:#181818;stroke-width:1.0;"/><path d="M63.3438,155.8594 Q61.3594,155.8594 60.1875,154.3906 Q59.0313,152.9063 59.0313,149.8281 Q59.0313,147.2188 60.25,145.4688 Q61.4844,143.7188 63.6094,143.7188 Q64.1094,143.7188 64.6406,143.8594 Q65.0781,144.0469 65.3438,144.0469 Q65.5625,144.0469 65.6563,144 Q65.7656,143.9531 66.2188,143.3594 L66.9844,147.0938 L66.0938,147.3594 Q65.6406,145.9063 65.0313,145.3125 Q64.4375,144.7031 63.4844,144.7031 Q62.2656,144.7031 61.5469,146.1406 Q60.8281,147.5625 60.8281,149.75 Q60.8281,152.1563 61.4375,153.4531 Q62.0625,154.7344 63.4219,154.7344 Q64.375,154.7344 65.0625,154.0469 Q65.75,153.3438 66.0781,151.8438 L66.9844,152.25 Q66.5781,153.9531 65.6094,154.9063 Q64.6563,155.8594 63.3438,155.8594 Z " fill="#000000"/><text fill="#000000" font-family="sans-serif" font-size="14" lengthAdjust="spacing" textLength="59" x="78" y="156.4839">Wrestling</text><line style="stroke:#181818;stroke-width:0.5;" x1="50" x2="139" y1="166" y2="166"/><line style="stroke:#181818;stroke-width:0.5;" x1="50" x2="139" y1="174" y2="174"/></g><!--class GrecoRomanWrestling--><g id="elem_GrecoRomanWrestling"><rect fill="#F1F1F1" height="48" id="GrecoRomanWrestling" rx="2.5" ry="2.5" style="stroke:#181818;stroke-width:0.5;" width="175" x="7" y="261"/><ellipse cx="22" cy="277" fill="#ADD1B2" rx="11" ry="11" style="stroke:#181818;stroke-width:1.0;"/><path d="M21.3438,282.8594 Q19.3594,282.8594 18.1875,281.3906 Q17.0313,279.9063 17.0313,276.8281 Q17.0313,274.2188 18.25,272.4688 Q19.4844,270.7188 21.6094,270.7188 Q22.1094,270.7188 22.6406,270.8594 Q23.0781,271.0469 23.3438,271.0469 Q23.5625,271.0469 23.6563,271 Q23.7656,270.9531 24.2188,270.3594 L24.9844,274.0938 L24.0938,274.3594 Q23.6406,272.9063 23.0313,272.3125 Q22.4375,271.7031 21.4844,271.7031 Q20.2656,271.7031 19.5469,273.1406 Q18.8281,274.5625 18.8281,276.75 Q18.8281,279.1563 19.4375,280.4531 Q20.0625,281.7344 21.4219,281.7344 Q22.375,281.7344 23.0625,281.0469 Q23.75,280.3438 24.0781,278.8438 L24.9844,279.25 Q24.5781,280.9531 23.6094,281.9063 Q22.6563,282.8594 21.3438,282.8594 Z " fill="#000000"/><text fill="#000000" font-family="sans-serif" font-size="14" lengthAdjust="spacing" textLength="143" x="36" y="283.4839">GrecoRomanWrestling</text><line style="stroke:#181818;stroke-width:0.5;" x1="8" x2="181" y1="293" y2="293"/><line style="stroke:#181818;stroke-width:0.5;" x1="8" x2="181" y1="301" y2="301"/></g><!--reverse link Sport to Wrestling--><g id="link_Sport_Wrestling"><path codeLine="1" d="M94.5,73.22 C94.5,95.67 94.5,111.5 94.5,133.91 " fill="none" id="Sport-backto-Wrestling" style="stroke:#181818;stroke-width:1.0;"/><polygon fill="none" points="94.5,55.22,88.5,73.22,100.5,73.22,94.5,55.22" style="stroke:#181818;stroke-width:1.0;"/><text fill="#000000" font-family="sans-serif" font-size="13" lengthAdjust="spacing" textLength="42" x="95.5" y="100.8979">inherits</text></g><!--reverse link Wrestling to GrecoRomanWrestling--><g id="link_Wrestling_GrecoRomanWrestling"><path codeLine="2" d="M94.5,200.22 C94.5,222.67 94.5,238.5 94.5,260.91 " fill="none" id="Wrestling-backto-GrecoRomanWrestling" style="stroke:#181818;stroke-width:1.0;"/><polygon fill="none" points="94.5,182.22,88.5,200.22,100.5,200.22,94.5,182.22" style="stroke:#181818;stroke-width:1.0;"/><text fill="#000000" font-family="sans-serif" font-size="13" lengthAdjust="spacing" textLength="42" x="95.5" y="227.8979">inherits</text></g><!--SRC=[2ox8BofHiAdHrLK8BqejBid9p4jNi5B8pCj8BSeiAUP228BLk1Ub9kS7vUScvc5J3G00]--></g></svg>