<?xml version="1.0" encoding="us-ascii" standalone="no"?><svg xmlns="http://www.w3.org/2000/svg" xmlns:xlink="http://www.w3.org/1999/xlink" contentStyleType="text/css" height="316px" preserveAspectRatio="none" style="width:144px;height:316px;background:#FFFFFF;" version="1.1" viewBox="0 0 144 316" width="144px" zoomAndPan="magnify"><defs/><g><!--class GroupOfOyster--><g id="elem_GroupOfOyster"><rect fill="#F1F1F1" height="48" id="GroupOfOyster" rx="2.5" ry="2.5" style="stroke:#181818;stroke-width:0.5;" width="129" x="7" y="134"/><ellipse cx="22" cy="150" fill="#ADD1B2" rx="11" ry="11" style="stroke:#181818;stroke-width:1.0;"/><path d="M21.3438,155.8594 Q19.3594,155.8594 18.1875,154.3906 Q17.0313,152.9063 17.0313,149.8281 Q17.0313,147.2188 18.25,145.4688 Q19.4844,143.7188 21.6094,143.7188 Q22.1094,143.7188 22.6406,143.8594 Q23.0781,144.0469 23.3438,144.0469 Q23.5625,144.0469 23.6563,144 Q23.7656,143.9531 24.2188,143.3594 L24.9844,147.0938 L24.0938,147.3594 Q23.6406,145.9063 23.0313,145.3125 Q22.4375,144.7031 21.4844,144.7031 Q20.2656,144.7031 19.5469,146.1406 Q18.8281,147.5625 18.8281,149.75 Q18.8281,152.1563 19.4375,153.4531 Q20.0625,154.7344 21.4219,154.7344 Q22.375,154.7344 23.0625,154.0469 Q23.75,153.3438 24.0781,151.8438 L24.9844,152.25 Q24.5781,153.9531 23.6094,154.9063 Q22.6563,155.8594 21.3438,155.8594 Z " fill="#000000"/><text fill="#000000" font-family="sans-serif" font-size="14" lengthAdjust="spacing" textLength="97" x="36" y="156.4839">GroupOfOyster</text><line style="stroke:#181818;stroke-width:0.5;" x1="8" x2="135" y1="166" y2="166"/><line style="stroke:#181818;stroke-width:0.5;" x1="8" x2="135" y1="174" y2="174"/></g><!--class Estuary--><g id="elem_Estuary"><rect fill="#F1F1F1" height="48" id="Estuary" rx="2.5" ry="2.5" style="stroke:#181818;stroke-width:0.5;" width="80" x="31.5" y="261"/><ellipse cx="46.5" cy="277" fill="#ADD1B2" rx="11" ry="11" style="stroke:#181818;stroke-width:1.0;"/><path d="M45.8438,282.8594 Q43.8594,282.8594 42.6875,281.3906 Q41.5313,279.9063 41.5313,276.8281 Q41.5313,274.2188 42.75,272.4688 Q43.9844,270.7188 46.1094,270.7188 Q46.6094,270.7188 47.1406,270.8594 Q47.5781,271.0469 47.8438,271.0469 Q48.0625,271.0469 48.1563,271 Q48.2656,270.9531 48.7188,270.3594 L49.4844,274.0938 L48.5938,274.3594 Q48.1406,272.9063 47.5313,272.3125 Q46.9375,271.7031 45.9844,271.7031 Q44.7656,271.7031 44.0469,273.1406 Q43.3281,274.5625 43.3281,276.75 Q43.3281,279.1563 43.9375,280.4531 Q44.5625,281.7344 45.9219,281.7344 Q46.875,281.7344 47.5625,281.0469 Q48.25,280.3438 48.5781,278.8438 L49.4844,279.25 Q49.0781,280.9531 48.1094,281.9063 Q47.1563,282.8594 45.8438,282.8594 Z " fill="#000000"/><text fill="#000000" font-family="sans-serif" font-size="14" lengthAdjust="spacing" textLength="48" x="60.5" y="283.4839">Estuary</text><line style="stroke:#181818;stroke-width:0.5;" x1="32.5" x2="110.5" y1="293" y2="293"/><line style="stroke:#181818;stroke-width:0.5;" x1="32.5" x2="110.5" y1="301" y2="301"/></g><!--class Oyster--><g id="elem_Oyster"><rect fill="#F1F1F1" height="48" id="Oyster" rx="2.5" ry="2.5" style="stroke:#181818;stroke-width:0.5;" width="74" x="34.5" y="7"/><ellipse cx="49.5" cy="23" fill="#ADD1B2" rx="11" ry="11" style="stroke:#181818;stroke-width:1.0;"/><path d="M48.8438,28.8594 Q46.8594,28.8594 45.6875,27.3906 Q44.5313,25.9063 44.5313,22.8281 Q44.5313,20.2188 45.75,18.4688 Q46.9844,16.7188 49.1094,16.7188 Q49.6094,16.7188 50.1406,16.8594 Q50.5781,17.0469 50.8438,17.0469 Q51.0625,17.0469 51.1563,17 Q51.2656,16.9531 51.7188,16.3594 L52.4844,20.0938 L51.5938,20.3594 Q51.1406,18.9063 50.5313,18.3125 Q49.9375,17.7031 48.9844,17.7031 Q47.7656,17.7031 47.0469,19.1406 Q46.3281,20.5625 46.3281,22.75 Q46.3281,25.1563 46.9375,26.4531 Q47.5625,27.7344 48.9219,27.7344 Q49.875,27.7344 50.5625,27.0469 Q51.25,26.3438 51.5781,24.8438 L52.4844,25.25 Q52.0781,26.9531 51.1094,27.9063 Q50.1563,28.8594 48.8438,28.8594 Z " fill="#000000"/><text fill="#000000" font-family="sans-serif" font-size="14" lengthAdjust="spacing" textLength="42" x="63.5" y="29.4839">Oyster</text><line style="stroke:#181818;stroke-width:0.5;" x1="35.5" x2="107.5" y1="39" y2="39"/><line style="stroke:#181818;stroke-width:0.5;" x1="35.5" x2="107.5" y1="47" y2="47"/></g><!--reverse link GroupOfOyster to Estuary--><g id="link_GroupOfOyster_Estuary"><path codeLine="1" d="M71.5,194.22 C71.5,216.67 71.5,238.5 71.5,260.91 " fill="none" id="GroupOfOyster-backto-Estuary" style="stroke:#181818;stroke-width:1.0;"/><polygon fill="none" points="71.5,182.22,67.5,188.22,71.5,194.22,75.5,188.22,71.5,182.22" style="stroke:#181818;stroke-width:1.0;"/><text fill="#000000" font-family="sans-serif" font-size="13" lengthAdjust="spacing" textLength="64" x="72.5" y="227.8979">aggregates</text></g><!--reverse link Oyster to GroupOfOyster--><g id="link_Oyster_GroupOfOyster"><path codeLine="2" d="M71.5,67.22 C71.5,89.67 71.5,111.5 71.5,133.91 " fill="none" id="Oyster-backto-GroupOfOyster" style="stroke:#181818;stroke-width:1.0;"/><polygon fill="none" points="71.5,55.22,67.5,61.22,71.5,67.22,75.5,61.22,71.5,55.22" style="stroke:#181818;stroke-width:1.0;"/><text fill="#000000" font-family="sans-serif" font-size="13" lengthAdjust="spacing" textLength="64" x="72.5" y="100.8979">aggregates</text></g><!--SRC=[So_ABotmJ_ElB2v9BLB8rzLLS2qkAKqigbImKaXCJozAJKyiIItcGf9tHz61h0e0]--></g></svg>