<?xml version="1.0" encoding="us-ascii" standalone="no"?><svg xmlns="http://www.w3.org/2000/svg" xmlns:xlink="http://www.w3.org/1999/xlink" contentStyleType="text/css" height="316px" preserveAspectRatio="none" style="width:135px;height:316px;background:#FFFFFF;" version="1.1" viewBox="0 0 135 316" width="135px" zoomAndPan="magnify"><defs/><g><!--class FlockOfTern--><g id="elem_FlockOfTern"><rect fill="#F1F1F1" height="48" id="FlockOfTern" rx="2.5" ry="2.5" style="stroke:#181818;stroke-width:0.5;" width="111" x="7" y="134"/><ellipse cx="22" cy="150" fill="#ADD1B2" rx="11" ry="11" style="stroke:#181818;stroke-width:1.0;"/><path d="M21.3438,155.8594 Q19.3594,155.8594 18.1875,154.3906 Q17.0313,152.9063 17.0313,149.8281 Q17.0313,147.2188 18.25,145.4688 Q19.4844,143.7188 21.6094,143.7188 Q22.1094,143.7188 22.6406,143.8594 Q23.0781,144.0469 23.3438,144.0469 Q23.5625,144.0469 23.6563,144 Q23.7656,143.9531 24.2188,143.3594 L24.9844,147.0938 L24.0938,147.3594 Q23.6406,145.9063 23.0313,145.3125 Q22.4375,144.7031 21.4844,144.7031 Q20.2656,144.7031 19.5469,146.1406 Q18.8281,147.5625 18.8281,149.75 Q18.8281,152.1563 19.4375,153.4531 Q20.0625,154.7344 21.4219,154.7344 Q22.375,154.7344 23.0625,154.0469 Q23.75,153.3438 24.0781,151.8438 L24.9844,152.25 Q24.5781,153.9531 23.6094,154.9063 Q22.6563,155.8594 21.3438,155.8594 Z " fill="#000000"/><text fill="#000000" font-family="sans-serif" font-size="14" lengthAdjust="spacing" textLength="79" x="36" y="156.4839">FlockOfTern</text><line style="stroke:#181818;stroke-width:0.5;" x1="8" x2="117" y1="166" y2="166"/><line style="stroke:#181818;stroke-width:0.5;" x1="8" x2="117" y1="174" y2="174"/></g><!--class Lake--><g id="elem_Lake"><rect fill="#F1F1F1" height="48" id="Lake" rx="2.5" ry="2.5" style="stroke:#181818;stroke-width:0.5;" width="63" x="31" y="261"/><ellipse cx="46" cy="277" fill="#ADD1B2" rx="11" ry="11" style="stroke:#181818;stroke-width:1.0;"/><path d="M45.3438,282.8594 Q43.3594,282.8594 42.1875,281.3906 Q41.0313,279.9063 41.0313,276.8281 Q41.0313,274.2188 42.25,272.4688 Q43.4844,270.7188 45.6094,270.7188 Q46.1094,270.7188 46.6406,270.8594 Q47.0781,271.0469 47.3438,271.0469 Q47.5625,271.0469 47.6563,271 Q47.7656,270.9531 48.2188,270.3594 L48.9844,274.0938 L48.0938,274.3594 Q47.6406,272.9063 47.0313,272.3125 Q46.4375,271.7031 45.4844,271.7031 Q44.2656,271.7031 43.5469,273.1406 Q42.8281,274.5625 42.8281,276.75 Q42.8281,279.1563 43.4375,280.4531 Q44.0625,281.7344 45.4219,281.7344 Q46.375,281.7344 47.0625,281.0469 Q47.75,280.3438 48.0781,278.8438 L48.9844,279.25 Q48.5781,280.9531 47.6094,281.9063 Q46.6563,282.8594 45.3438,282.8594 Z " fill="#000000"/><text fill="#000000" font-family="sans-serif" font-size="14" lengthAdjust="spacing" textLength="31" x="60" y="283.4839">Lake</text><line style="stroke:#181818;stroke-width:0.5;" x1="32" x2="93" y1="293" y2="293"/><line style="stroke:#181818;stroke-width:0.5;" x1="32" x2="93" y1="301" y2="301"/></g><!--class Tern--><g id="elem_Tern"><rect fill="#F1F1F1" height="48" id="Tern" rx="2.5" ry="2.5" style="stroke:#181818;stroke-width:0.5;" width="62" x="31.5" y="7"/><ellipse cx="46.5" cy="23" fill="#ADD1B2" rx="11" ry="11" style="stroke:#181818;stroke-width:1.0;"/><path d="M45.8438,28.8594 Q43.8594,28.8594 42.6875,27.3906 Q41.5313,25.9063 41.5313,22.8281 Q41.5313,20.2188 42.75,18.4688 Q43.9844,16.7188 46.1094,16.7188 Q46.6094,16.7188 47.1406,16.8594 Q47.5781,17.0469 47.8438,17.0469 Q48.0625,17.0469 48.1563,17 Q48.2656,16.9531 48.7188,16.3594 L49.4844,20.0938 L48.5938,20.3594 Q48.1406,18.9063 47.5313,18.3125 Q46.9375,17.7031 45.9844,17.7031 Q44.7656,17.7031 44.0469,19.1406 Q43.3281,20.5625 43.3281,22.75 Q43.3281,25.1563 43.9375,26.4531 Q44.5625,27.7344 45.9219,27.7344 Q46.875,27.7344 47.5625,27.0469 Q48.25,26.3438 48.5781,24.8438 L49.4844,25.25 Q49.0781,26.9531 48.1094,27.9063 Q47.1563,28.8594 45.8438,28.8594 Z " fill="#000000"/><text fill="#000000" font-family="sans-serif" font-size="14" lengthAdjust="spacing" textLength="30" x="60.5" y="29.4839">Tern</text><line style="stroke:#181818;stroke-width:0.5;" x1="32.5" x2="92.5" y1="39" y2="39"/><line style="stroke:#181818;stroke-width:0.5;" x1="32.5" x2="92.5" y1="47" y2="47"/></g><!--reverse link FlockOfTern to Lake--><g id="link_FlockOfTern_Lake"><path codeLine="1" d="M62.5,194.22 C62.5,216.67 62.5,238.5 62.5,260.91 " fill="none" id="FlockOfTern-backto-Lake" style="stroke:#181818;stroke-width:1.0;"/><polygon fill="none" points="62.5,182.22,58.5,188.22,62.5,194.22,66.5,188.22,62.5,182.22" style="stroke:#181818;stroke-width:1.0;"/><text fill="#000000" font-family="sans-serif" font-size="13" lengthAdjust="spacing" textLength="64" x="63.5" y="227.8979">aggregates</text></g><!--reverse link Tern to FlockOfTern--><g id="link_Tern_FlockOfTern"><path codeLine="2" d="M62.5,67.22 C62.5,89.67 62.5,111.5 62.5,133.91 " fill="none" id="Tern-backto-FlockOfTern" style="stroke:#181818;stroke-width:1.0;"/><polygon fill="none" points="62.5,55.22,58.5,61.22,62.5,67.22,66.5,61.22,62.5,55.22" style="stroke:#181818;stroke-width:1.0;"/><text fill="#000000" font-family="sans-serif" font-size="13" lengthAdjust="spacing" textLength="64" x="63.5" y="100.8979">aggregates</text></g><!--SRC=[Syl9JyxsJmj9BSfJoDVLLV19p4vLi598J4ylIarFB4ajve9BkI4fHLO10000]--></g></svg>