<?xml version="1.0" encoding="us-ascii" standalone="no"?><svg xmlns="http://www.w3.org/2000/svg" xmlns:xlink="http://www.w3.org/1999/xlink" contentStyleType="text/css" height="316px" preserveAspectRatio="none" style="width:136px;height:316px;background:#FFFFFF;" version="1.1" viewBox="0 0 136 316" width="136px" zoomAndPan="magnify"><defs/><g><!--class ColonyOfRat--><g id="elem_ColonyOfRat"><rect fill="#F1F1F1" height="48" id="ColonyOfRat" rx="2.5" ry="2.5" style="stroke:#181818;stroke-width:0.5;" width="113" x="7" y="134"/><ellipse cx="22" cy="150" fill="#ADD1B2" rx="11" ry="11" style="stroke:#181818;stroke-width:1.0;"/><path d="M21.3438,155.8594 Q19.3594,155.8594 18.1875,154.3906 Q17.0313,152.9063 17.0313,149.8281 Q17.0313,147.2188 18.25,145.4688 Q19.4844,143.7188 21.6094,143.7188 Q22.1094,143.7188 22.6406,143.8594 Q23.0781,144.0469 23.3438,144.0469 Q23.5625,144.0469 23.6563,144 Q23.7656,143.9531 24.2188,143.3594 L24.9844,147.0938 L24.0938,147.3594 Q23.6406,145.9063 23.0313,145.3125 Q22.4375,144.7031 21.4844,144.7031 Q20.2656,144.7031 19.5469,146.1406 Q18.8281,147.5625 18.8281,149.75 Q18.8281,152.1563 19.4375,153.4531 Q20.0625,154.7344 21.4219,154.7344 Q22.375,154.7344 23.0625,154.0469 Q23.75,153.3438 24.0781,151.8438 L24.9844,152.25 Q24.5781,153.9531 23.6094,154.9063 Q22.6563,155.8594 21.3438,155.8594 Z " fill="#000000"/><text fill="#000000" font-family="sans-serif" font-size="14" lengthAdjust="spacing" textLength="81" x="36" y="156.4839">ColonyOfRat</text><line style="stroke:#181818;stroke-width:0.5;" x1="8" x2="119" y1="166" y2="166"/><line style="stroke:#181818;stroke-width:0.5;" x1="8" x2="119" y1="174" y2="174"/></g><!--class Canyon--><g id="elem_Canyon"><rect fill="#F1F1F1" height="48" id="Canyon" rx="2.5" ry="2.5" style="stroke:#181818;stroke-width:0.5;" width="81" x="23" y="261"/><ellipse cx="38" cy="277" fill="#ADD1B2" rx="11" ry="11" style="stroke:#181818;stroke-width:1.0;"/><path d="M37.3438,282.8594 Q35.3594,282.8594 34.1875,281.3906 Q33.0313,279.9063 33.0313,276.8281 Q33.0313,274.2188 34.25,272.4688 Q35.4844,270.7188 37.6094,270.7188 Q38.1094,270.7188 38.6406,270.8594 Q39.0781,271.0469 39.3438,271.0469 Q39.5625,271.0469 39.6563,271 Q39.7656,270.9531 40.2188,270.3594 L40.9844,274.0938 L40.0938,274.3594 Q39.6406,272.9063 39.0313,272.3125 Q38.4375,271.7031 37.4844,271.7031 Q36.2656,271.7031 35.5469,273.1406 Q34.8281,274.5625 34.8281,276.75 Q34.8281,279.1563 35.4375,280.4531 Q36.0625,281.7344 37.4219,281.7344 Q38.375,281.7344 39.0625,281.0469 Q39.75,280.3438 40.0781,278.8438 L40.9844,279.25 Q40.5781,280.9531 39.6094,281.9063 Q38.6563,282.8594 37.3438,282.8594 Z " fill="#000000"/><text fill="#000000" font-family="sans-serif" font-size="14" lengthAdjust="spacing" textLength="49" x="52" y="283.4839">Canyon</text><line style="stroke:#181818;stroke-width:0.5;" x1="24" x2="103" y1="293" y2="293"/><line style="stroke:#181818;stroke-width:0.5;" x1="24" x2="103" y1="301" y2="301"/></g><!--class Rat--><g id="elem_Rat"><rect fill="#F1F1F1" height="48" id="Rat" rx="2.5" ry="2.5" style="stroke:#181818;stroke-width:0.5;" width="54" x="36.5" y="7"/><ellipse cx="51.5" cy="23" fill="#ADD1B2" rx="11" ry="11" style="stroke:#181818;stroke-width:1.0;"/><path d="M50.8438,28.8594 Q48.8594,28.8594 47.6875,27.3906 Q46.5313,25.9063 46.5313,22.8281 Q46.5313,20.2188 47.75,18.4688 Q48.9844,16.7188 51.1094,16.7188 Q51.6094,16.7188 52.1406,16.8594 Q52.5781,17.0469 52.8438,17.0469 Q53.0625,17.0469 53.1563,17 Q53.2656,16.9531 53.7188,16.3594 L54.4844,20.0938 L53.5938,20.3594 Q53.1406,18.9063 52.5313,18.3125 Q51.9375,17.7031 50.9844,17.7031 Q49.7656,17.7031 49.0469,19.1406 Q48.3281,20.5625 48.3281,22.75 Q48.3281,25.1563 48.9375,26.4531 Q49.5625,27.7344 50.9219,27.7344 Q51.875,27.7344 52.5625,27.0469 Q53.25,26.3438 53.5781,24.8438 L54.4844,25.25 Q54.0781,26.9531 53.1094,27.9063 Q52.1563,28.8594 50.8438,28.8594 Z " fill="#000000"/><text fill="#000000" font-family="sans-serif" font-size="14" lengthAdjust="spacing" textLength="22" x="65.5" y="29.4839">Rat</text><line style="stroke:#181818;stroke-width:0.5;" x1="37.5" x2="89.5" y1="39" y2="39"/><line style="stroke:#181818;stroke-width:0.5;" x1="37.5" x2="89.5" y1="47" y2="47"/></g><!--reverse link ColonyOfRat to Canyon--><g id="link_ColonyOfRat_Canyon"><path codeLine="1" d="M63.5,194.22 C63.5,216.67 63.5,238.5 63.5,260.91 " fill="none" id="ColonyOfRat-backto-Canyon" style="stroke:#181818;stroke-width:1.0;"/><polygon fill="none" points="63.5,182.22,59.5,188.22,63.5,194.22,67.5,188.22,63.5,182.22" style="stroke:#181818;stroke-width:1.0;"/><text fill="#000000" font-family="sans-serif" font-size="13" lengthAdjust="spacing" textLength="64" x="64.5" y="227.8979">aggregates</text></g><!--reverse link Rat to ColonyOfRat--><g id="link_Rat_ColonyOfRat"><path codeLine="2" d="M63.5,67.22 C63.5,89.67 63.5,111.5 63.5,133.91 " fill="none" id="Rat-backto-ColonyOfRat" style="stroke:#181818;stroke-width:1.0;"/><polygon fill="none" points="63.5,55.22,59.5,61.22,63.5,67.22,67.5,61.22,63.5,55.22" style="stroke:#181818;stroke-width:1.0;"/><text fill="#000000" font-family="sans-serif" font-size="13" lengthAdjust="spacing" textLength="64" x="64.5" y="100.8979">aggregates</text></g><!--SRC=[SyxFoS-hz4yBIYnHoDVLLN1EpAlCprEmKaXCJozAJKyiIItcWiiXgKLM0000]--></g></svg>