<?xml version="1.0" encoding="us-ascii" standalone="no"?><svg xmlns="http://www.w3.org/2000/svg" xmlns:xlink="http://www.w3.org/1999/xlink" contentStyleType="text/css" height="316px" preserveAspectRatio="none" style="width:134px;height:316px;background:#FFFFFF;" version="1.1" viewBox="0 0 134 316" width="134px" zoomAndPan="magnify"><defs/><g><!--class HerdOfGoat--><g id="elem_HerdOfGoat"><rect fill="#F1F1F1" height="48" id="HerdOfGoat" rx="2.5" ry="2.5" style="stroke:#181818;stroke-width:0.5;" width="108" x="7" y="134"/><ellipse cx="22" cy="150" fill="#ADD1B2" rx="11" ry="11" style="stroke:#181818;stroke-width:1.0;"/><path d="M21.3438,155.8594 Q19.3594,155.8594 18.1875,154.3906 Q17.0313,152.9063 17.0313,149.8281 Q17.0313,147.2188 18.25,145.4688 Q19.4844,143.7188 21.6094,143.7188 Q22.1094,143.7188 22.6406,143.8594 Q23.0781,144.0469 23.3438,144.0469 Q23.5625,144.0469 23.6563,144 Q23.7656,143.9531 24.2188,143.3594 L24.9844,147.0938 L24.0938,147.3594 Q23.6406,145.9063 23.0313,145.3125 Q22.4375,144.7031 21.4844,144.7031 Q20.2656,144.7031 19.5469,146.1406 Q18.8281,147.5625 18.8281,149.75 Q18.8281,152.1563 19.4375,153.4531 Q20.0625,154.7344 21.4219,154.7344 Q22.375,154.7344 23.0625,154.0469 Q23.75,153.3438 24.0781,151.8438 L24.9844,152.25 Q24.5781,153.9531 23.6094,154.9063 Q22.6563,155.8594 21.3438,155.8594 Z " fill="#000000"/><text fill="#000000" font-family="sans-serif" font-size="14" lengthAdjust="spacing" textLength="76" x="36" y="156.4839">HerdOfGoat</text><line style="stroke:#181818;stroke-width:0.5;" x1="8" x2="114" y1="166" y2="166"/><line style="stroke:#181818;stroke-width:0.5;" x1="8" x2="114" y1="174" y2="174"/></g><!--class Meadow--><g id="elem_Meadow"><rect fill="#F1F1F1" height="48" id="Meadow" rx="2.5" ry="2.5" style="stroke:#181818;stroke-width:0.5;" width="84" x="19" y="261"/><ellipse cx="34" cy="277" fill="#ADD1B2" rx="11" ry="11" style="stroke:#181818;stroke-width:1.0;"/><path d="M33.3438,282.8594 Q31.3594,282.8594 30.1875,281.3906 Q29.0313,279.9063 29.0313,276.8281 Q29.0313,274.2188 30.25,272.4688 Q31.4844,270.7188 33.6094,270.7188 Q34.1094,270.7188 34.6406,270.8594 Q35.0781,271.0469 35.3438,271.0469 Q35.5625,271.0469 35.6563,271 Q35.7656,270.9531 36.2188,270.3594 L36.9844,274.0938 L36.0938,274.3594 Q35.6406,272.9063 35.0313,272.3125 Q34.4375,271.7031 33.4844,271.7031 Q32.2656,271.7031 31.5469,273.1406 Q30.8281,274.5625 30.8281,276.75 Q30.8281,279.1563 31.4375,280.4531 Q32.0625,281.7344 33.4219,281.7344 Q34.375,281.7344 35.0625,281.0469 Q35.75,280.3438 36.0781,278.8438 L36.9844,279.25 Q36.5781,280.9531 35.6094,281.9063 Q34.6563,282.8594 33.3438,282.8594 Z " fill="#000000"/><text fill="#000000" font-family="sans-serif" font-size="14" lengthAdjust="spacing" textLength="52" x="48" y="283.4839">Meadow</text><line style="stroke:#181818;stroke-width:0.5;" x1="20" x2="102" y1="293" y2="293"/><line style="stroke:#181818;stroke-width:0.5;" x1="20" x2="102" y1="301" y2="301"/></g><!--class Goat--><g id="elem_Goat"><rect fill="#F1F1F1" height="48" id="Goat" rx="2.5" ry="2.5" style="stroke:#181818;stroke-width:0.5;" width="63" x="29.5" y="7"/><ellipse cx="44.5" cy="23" fill="#ADD1B2" rx="11" ry="11" style="stroke:#181818;stroke-width:1.0;"/><path d="M43.8438,28.8594 Q41.8594,28.8594 40.6875,27.3906 Q39.5313,25.9063 39.5313,22.8281 Q39.5313,20.2188 40.75,18.4688 Q41.9844,16.7188 44.1094,16.7188 Q44.6094,16.7188 45.1406,16.8594 Q45.5781,17.0469 45.8438,17.0469 Q46.0625,17.0469 46.1563,17 Q46.2656,16.9531 46.7188,16.3594 L47.4844,20.0938 L46.5938,20.3594 Q46.1406,18.9063 45.5313,18.3125 Q44.9375,17.7031 43.9844,17.7031 Q42.7656,17.7031 42.0469,19.1406 Q41.3281,20.5625 41.3281,22.75 Q41.3281,25.1563 41.9375,26.4531 Q42.5625,27.7344 43.9219,27.7344 Q44.875,27.7344 45.5625,27.0469 Q46.25,26.3438 46.5781,24.8438 L47.4844,25.25 Q47.0781,26.9531 46.1094,27.9063 Q45.1563,28.8594 43.8438,28.8594 Z " fill="#000000"/><text fill="#000000" font-family="sans-serif" font-size="14" lengthAdjust="spacing" textLength="31" x="58.5" y="29.4839">Goat</text><line style="stroke:#181818;stroke-width:0.5;" x1="30.5" x2="91.5" y1="39" y2="39"/><line style="stroke:#181818;stroke-width:0.5;" x1="30.5" x2="91.5" y1="47" y2="47"/></g><!--reverse link HerdOfGoat to Meadow--><g id="link_HerdOfGoat_Meadow"><path codeLine="1" d="M61,194.22 C61,216.67 61,238.5 61,260.91 " fill="none" id="HerdOfGoat-backto-Meadow" style="stroke:#181818;stroke-width:1.0;"/><polygon fill="none" points="61,182.22,57,188.22,61,194.22,65,188.22,61,182.22" style="stroke:#181818;stroke-width:1.0;"/><text fill="#000000" font-family="sans-serif" font-size="13" lengthAdjust="spacing" textLength="64" x="62" y="227.8979">aggregates</text></g><!--reverse link Goat to HerdOfGoat--><g id="link_Goat_HerdOfGoat"><path codeLine="2" d="M61,67.22 C61,89.67 61,111.5 61,133.91 " fill="none" id="Goat-backto-HerdOfGoat" style="stroke:#181818;stroke-width:1.0;"/><polygon fill="none" points="61,55.22,57,61.22,61,67.22,65,61.22,61,55.22" style="stroke:#181818;stroke-width:1.0;"/><text fill="#000000" font-family="sans-serif" font-size="13" lengthAdjust="spacing" textLength="64" x="62" y="100.8979">aggregates</text></g><!--SRC=[yqWjIl5FSyzFB578rzLLy4rDJCalLx1II4nFBqfDJon9BUQ2IteWr28h0000]--></g></svg>