<?xml version="1.0" encoding="us-ascii" standalone="no"?><svg xmlns="http://www.w3.org/2000/svg" xmlns:xlink="http://www.w3.org/1999/xlink" contentStyleType="text/css" height="316px" preserveAspectRatio="none" style="width:137px;height:316px;background:#FFFFFF;" version="1.1" viewBox="0 0 137 316" width="137px" zoomAndPan="magnify"><defs/><g><!--class SwarmOfBee--><g id="elem_SwarmOfBee"><rect fill="#F1F1F1" height="48" id="SwarmOfBee" rx="2.5" ry="2.5" style="stroke:#181818;stroke-width:0.5;" width="114" x="7" y="134"/><ellipse cx="22" cy="150" fill="#ADD1B2" rx="11" ry="11" style="stroke:#181818;stroke-width:1.0;"/><path d="M21.3438,155.8594 Q19.3594,155.8594 18.1875,154.3906 Q17.0313,152.9063 17.0313,149.8281 Q17.0313,147.2188 18.25,145.4688 Q19.4844,143.7188 21.6094,143.7188 Q22.1094,143.7188 22.6406,143.8594 Q23.0781,144.0469 23.3438,144.0469 Q23.5625,144.0469 23.6563,144 Q23.7656,143.9531 24.2188,143.3594 L24.9844,147.0938 L24.0938,147.3594 Q23.6406,145.9063 23.0313,145.3125 Q22.4375,144.7031 21.4844,144.7031 Q20.2656,144.7031 19.5469,146.1406 Q18.8281,147.5625 18.8281,149.75 Q18.8281,152.1563 19.4375,153.4531 Q20.0625,154.7344 21.4219,154.7344 Q22.375,154.7344 23.0625,154.0469 Q23.75,153.3438 24.0781,151.8438 L24.9844,152.25 Q24.5781,153.9531 23.6094,154.9063 Q22.6563,155.8594 21.3438,155.8594 Z " fill="#000000"/><text fill="#000000" font-family="sans-serif" font-size="14" lengthAdjust="spacing" textLength="82" x="36" y="156.4839">SwarmOfBee</text><line style="stroke:#181818;stroke-width:0.5;" x1="8" x2="120" y1="166" y2="166"/><line style="stroke:#181818;stroke-width:0.5;" x1="8" x2="120" y1="174" y2="174"/></g><!--class Lagoon--><g id="elem_Lagoon"><rect fill="#F1F1F1" height="48" id="Lagoon" rx="2.5" ry="2.5" style="stroke:#181818;stroke-width:0.5;" width="80" x="24" y="261"/><ellipse cx="39" cy="277" fill="#ADD1B2" rx="11" ry="11" style="stroke:#181818;stroke-width:1.0;"/><path d="M38.3438,282.8594 Q36.3594,282.8594 35.1875,281.3906 Q34.0313,279.9063 34.0313,276.8281 Q34.0313,274.2188 35.25,272.4688 Q36.4844,270.7188 38.6094,270.7188 Q39.1094,270.7188 39.6406,270.8594 Q40.0781,271.0469 40.3438,271.0469 Q40.5625,271.0469 40.6563,271 Q40.7656,270.9531 41.2188,270.3594 L41.9844,274.0938 L41.0938,274.3594 Q40.6406,272.9063 40.0313,272.3125 Q39.4375,271.7031 38.4844,271.7031 Q37.2656,271.7031 36.5469,273.1406 Q35.8281,274.5625 35.8281,276.75 Q35.8281,279.1563 36.4375,280.4531 Q37.0625,281.7344 38.4219,281.7344 Q39.375,281.7344 40.0625,281.0469 Q40.75,280.3438 41.0781,278.8438 L41.9844,279.25 Q41.5781,280.9531 40.6094,281.9063 Q39.6563,282.8594 38.3438,282.8594 Z " fill="#000000"/><text fill="#000000" font-family="sans-serif" font-size="14" lengthAdjust="spacing" textLength="48" x="53" y="283.4839">Lagoon</text><line style="stroke:#181818;stroke-width:0.5;" x1="25" x2="103" y1="293" y2="293"/><line style="stroke:#181818;stroke-width:0.5;" x1="25" x2="103" y1="301" y2="301"/></g><!--class Bee--><g id="elem_Bee"><rect fill="#F1F1F1" height="48" id="Bee" rx="2.5" ry="2.5" style="stroke:#181818;stroke-width:0.5;" width="57" x="35.5" y="7"/><ellipse cx="50.5" cy="23" fill="#ADD1B2" rx="11" ry="11" style="stroke:#181818;stroke-width:1.0;"/><path d="M49.8438,28.8594 Q47.8594,28.8594 46.6875,27.3906 Q45.5313,25.9063 45.5313,22.8281 Q45.5313,20.2188 46.75,18.4688 Q47.9844,16.7188 50.1094,16.7188 Q50.6094,16.7188 51.1406,16.8594 Q51.5781,17.0469 51.8438,17.0469 Q52.0625,17.0469 52.1563,17 Q52.2656,16.9531 52.7188,16.3594 L53.4844,20.0938 L52.5938,20.3594 Q52.1406,18.9063 51.5313,18.3125 Q50.9375,17.7031 49.9844,17.7031 Q48.7656,17.7031 48.0469,19.1406 Q47.3281,20.5625 47.3281,22.75 Q47.3281,25.1563 47.9375,26.4531 Q48.5625,27.7344 49.9219,27.7344 Q50.875,27.7344 51.5625,27.0469 Q52.25,26.3438 52.5781,24.8438 L53.4844,25.25 Q53.0781,26.9531 52.1094,27.9063 Q51.1563,28.8594 49.8438,28.8594 Z " fill="#000000"/><text fill="#000000" font-family="sans-serif" font-size="14" lengthAdjust="spacing" textLength="25" x="64.5" y="29.4839">Bee</text><line style="stroke:#181818;stroke-width:0.5;" x1="36.5" x2="91.5" y1="39" y2="39"/><line style="stroke:#181818;stroke-width:0.5;" x1="36.5" x2="91.5" y1="47" y2="47"/></g><!--reverse link SwarmOfBee to Lagoon--><g id="link_SwarmOfBee_Lagoon"><path codeLine="1" d="M64,194.22 C64,216.67 64,238.5 64,260.91 " fill="none" id="SwarmOfBee-backto-Lagoon" style="stroke:#181818;stroke-width:1.0;"/><polygon fill="none" points="64,182.22,60,188.22,64,194.22,68,188.22,64,182.22" style="stroke:#181818;stroke-width:1.0;"/><text fill="#000000" font-family="sans-serif" font-size="13" lengthAdjust="spacing" textLength="64" x="65" y="227.8979">aggregates</text></g><!--reverse link Bee to SwarmOfBee--><g id="link_Bee_SwarmOfBee"><path codeLine="2" d="M64,67.22 C64,89.67 64,111.5 64,133.91 " fill="none" id="Bee-backto-SwarmOfBee" style="stroke:#181818;stroke-width:1.0;"/><polygon fill="none" points="64,55.22,60,61.22,64,67.22,68,61.22,64,55.22" style="stroke:#181818;stroke-width:1.0;"/><text fill="#000000" font-family="sans-serif" font-size="13" lengthAdjust="spacing" textLength="64" x="65" y="100.8979">aggregates</text></g><!--SRC=[2ovFBChrJtDAJLN8rzLLy4bCpy_FKx1II4nFBqfDJon9BUQ2oGKZb2BB0m00]--></g></svg>