<?xml version="1.0" encoding="us-ascii" standalone="no"?><svg xmlns="http://www.w3.org/2000/svg" xmlns:xlink="http://www.w3.org/1999/xlink" contentStyleType="text/css" height="316px" preserveAspectRatio="none" style="width:132px;height:316px;background:#FFFFFF;" version="1.1" viewBox="0 0 132 316" width="132px" zoomAndPan="magnify"><defs/><g><!--class Chocolate--><g id="elem_Chocolate"><rect fill="#F1F1F1" height="48" id="Chocolate" rx="2.5" ry="2.5" style="stroke:#181818;stroke-width:0.5;" width="96" x="15.5" y="134"/><ellipse cx="30.5" cy="150" fill="#ADD1B2" rx="11" ry="11" style="stroke:#181818;stroke-width:1.0;"/><path d="M29.8438,155.8594 Q27.8594,155.8594 26.6875,154.3906 Q25.5313,152.9063 25.5313,149.8281 Q25.5313,147.2188 26.75,145.4688 Q27.9844,143.7188 30.1094,143.7188 Q30.6094,143.7188 31.1406,143.8594 Q31.5781,144.0469 31.8438,144.0469 Q32.0625,144.0469 32.1563,144 Q32.2656,143.9531 32.7188,143.3594 L33.4844,147.0938 L32.5938,147.3594 Q32.1406,145.9063 31.5313,145.3125 Q30.9375,144.7031 29.9844,144.7031 Q28.7656,144.7031 28.0469,146.1406 Q27.3281,147.5625 27.3281,149.75 Q27.3281,152.1563 27.9375,153.4531 Q28.5625,154.7344 29.9219,154.7344 Q30.875,154.7344 31.5625,154.0469 Q32.25,153.3438 32.5781,151.8438 L33.4844,152.25 Q33.0781,153.9531 32.1094,154.9063 Q31.1563,155.8594 29.8438,155.8594 Z " fill="#000000"/><text fill="#000000" font-family="sans-serif" font-size="14" lengthAdjust="spacing" textLength="64" x="44.5" y="156.4839">Chocolate</text><line style="stroke:#181818;stroke-width:0.5;" x1="16.5" x2="110.5" y1="166" y2="166"/><line style="stroke:#181818;stroke-width:0.5;" x1="16.5" x2="110.5" y1="174" y2="174"/></g><!--class Brownie--><g id="elem_Brownie"><rect fill="#F1F1F1" height="48" id="Brownie" rx="2.5" ry="2.5" style="stroke:#181818;stroke-width:0.5;" width="82" x="22.5" y="261"/><ellipse cx="37.5" cy="277" fill="#ADD1B2" rx="11" ry="11" style="stroke:#181818;stroke-width:1.0;"/><path d="M36.8438,282.8594 Q34.8594,282.8594 33.6875,281.3906 Q32.5313,279.9063 32.5313,276.8281 Q32.5313,274.2188 33.75,272.4688 Q34.9844,270.7188 37.1094,270.7188 Q37.6094,270.7188 38.1406,270.8594 Q38.5781,271.0469 38.8438,271.0469 Q39.0625,271.0469 39.1563,271 Q39.2656,270.9531 39.7188,270.3594 L40.4844,274.0938 L39.5938,274.3594 Q39.1406,272.9063 38.5313,272.3125 Q37.9375,271.7031 36.9844,271.7031 Q35.7656,271.7031 35.0469,273.1406 Q34.3281,274.5625 34.3281,276.75 Q34.3281,279.1563 34.9375,280.4531 Q35.5625,281.7344 36.9219,281.7344 Q37.875,281.7344 38.5625,281.0469 Q39.25,280.3438 39.5781,278.8438 L40.4844,279.25 Q40.0781,280.9531 39.1094,281.9063 Q38.1563,282.8594 36.8438,282.8594 Z " fill="#000000"/><text fill="#000000" font-family="sans-serif" font-size="14" lengthAdjust="spacing" textLength="50" x="51.5" y="283.4839">Brownie</text><line style="stroke:#181818;stroke-width:0.5;" x1="23.5" x2="103.5" y1="293" y2="293"/><line style="stroke:#181818;stroke-width:0.5;" x1="23.5" x2="103.5" y1="301" y2="301"/></g><!--class CocoaBeans--><g id="elem_CocoaBeans"><rect fill="#F1F1F1" height="48" id="CocoaBeans" rx="2.5" ry="2.5" style="stroke:#181818;stroke-width:0.5;" width="113" x="7" y="7"/><ellipse cx="22" cy="23" fill="#ADD1B2" rx="11" ry="11" style="stroke:#181818;stroke-width:1.0;"/><path d="M21.3438,28.8594 Q19.3594,28.8594 18.1875,27.3906 Q17.0313,25.9063 17.0313,22.8281 Q17.0313,20.2188 18.25,18.4688 Q19.4844,16.7188 21.6094,16.7188 Q22.1094,16.7188 22.6406,16.8594 Q23.0781,17.0469 23.3438,17.0469 Q23.5625,17.0469 23.6563,17 Q23.7656,16.9531 24.2188,16.3594 L24.9844,20.0938 L24.0938,20.3594 Q23.6406,18.9063 23.0313,18.3125 Q22.4375,17.7031 21.4844,17.7031 Q20.2656,17.7031 19.5469,19.1406 Q18.8281,20.5625 18.8281,22.75 Q18.8281,25.1563 19.4375,26.4531 Q20.0625,27.7344 21.4219,27.7344 Q22.375,27.7344 23.0625,27.0469 Q23.75,26.3438 24.0781,24.8438 L24.9844,25.25 Q24.5781,26.9531 23.6094,27.9063 Q22.6563,28.8594 21.3438,28.8594 Z " fill="#000000"/><text fill="#000000" font-family="sans-serif" font-size="14" lengthAdjust="spacing" textLength="81" x="36" y="29.4839">CocoaBeans</text><line style="stroke:#181818;stroke-width:0.5;" x1="8" x2="119" y1="39" y2="39"/><line style="stroke:#181818;stroke-width:0.5;" x1="8" x2="119" y1="47" y2="47"/></g><!--reverse link Chocolate to Brownie--><g id="link_Chocolate_Brownie"><path codeLine="1" d="M63.5,194.22 C63.5,216.67 63.5,238.5 63.5,260.91 " fill="none" id="Chocolate-backto-Brownie" style="stroke:#181818;stroke-width:1.0;"/><polygon fill="#181818" points="63.5,182.22,59.5,188.22,63.5,194.22,67.5,188.22,63.5,182.22" style="stroke:#181818;stroke-width:1.0;"/><text fill="#000000" font-family="sans-serif" font-size="13" lengthAdjust="spacing" textLength="60" x="64.5" y="227.8979">composes</text></g><!--reverse link CocoaBeans to Chocolate--><g id="link_CocoaBeans_Chocolate"><path codeLine="2" d="M63.5,67.22 C63.5,89.67 63.5,111.5 63.5,133.91 " fill="none" id="CocoaBeans-backto-Chocolate" style="stroke:#181818;stroke-width:1.0;"/><polygon fill="#181818" points="63.5,55.22,59.5,61.22,63.5,67.22,67.5,61.22,63.5,55.22" style="stroke:#181818;stroke-width:1.0;"/><text fill="#000000" font-family="sans-serif" font-size="13" lengthAdjust="spacing" textLength="60" x="64.5" y="100.8979">composes</text></g><!--SRC=[Syx8JyxFIIn9LT3IrLLmAielpyjCLR1IICxFBSWlJYtcSWRA9pgb9kOLWrKumzKZr000]--></g></svg>