<?xml version="1.0" encoding="us-ascii" standalone="no"?><svg xmlns="http://www.w3.org/2000/svg" xmlns:xlink="http://www.w3.org/1999/xlink" contentStyleType="text/css" height="316px" preserveAspectRatio="none" style="width:129px;height:316px;background:#FFFFFF;" version="1.1" viewBox="0 0 129 316" width="129px" zoomAndPan="magnify"><defs/><g><!--class Pancakes--><g id="elem_Pancakes"><rect fill="#F1F1F1" height="48" id="Pancakes" rx="2.5" ry="2.5" style="stroke:#181818;stroke-width:0.5;" width="94" x="13.5" y="134"/><ellipse cx="28.5" cy="150" fill="#ADD1B2" rx="11" ry="11" style="stroke:#181818;stroke-width:1.0;"/><path d="M27.8438,155.8594 Q25.8594,155.8594 24.6875,154.3906 Q23.5313,152.9063 23.5313,149.8281 Q23.5313,147.2188 24.75,145.4688 Q25.9844,143.7188 28.1094,143.7188 Q28.6094,143.7188 29.1406,143.8594 Q29.5781,144.0469 29.8438,144.0469 Q30.0625,144.0469 30.1563,144 Q30.2656,143.9531 30.7188,143.3594 L31.4844,147.0938 L30.5938,147.3594 Q30.1406,145.9063 29.5313,145.3125 Q28.9375,144.7031 27.9844,144.7031 Q26.7656,144.7031 26.0469,146.1406 Q25.3281,147.5625 25.3281,149.75 Q25.3281,152.1563 25.9375,153.4531 Q26.5625,154.7344 27.9219,154.7344 Q28.875,154.7344 29.5625,154.0469 Q30.25,153.3438 30.5781,151.8438 L31.4844,152.25 Q31.0781,153.9531 30.1094,154.9063 Q29.1563,155.8594 27.8438,155.8594 Z " fill="#000000"/><text fill="#000000" font-family="sans-serif" font-size="14" lengthAdjust="spacing" textLength="62" x="42.5" y="156.4839">Pancakes</text><line style="stroke:#181818;stroke-width:0.5;" x1="14.5" x2="106.5" y1="166" y2="166"/><line style="stroke:#181818;stroke-width:0.5;" x1="14.5" x2="106.5" y1="174" y2="174"/></g><!--class PekingDuck--><g id="elem_PekingDuck"><rect fill="#F1F1F1" height="48" id="PekingDuck" rx="2.5" ry="2.5" style="stroke:#181818;stroke-width:0.5;" width="107" x="7" y="261"/><ellipse cx="22" cy="277" fill="#ADD1B2" rx="11" ry="11" style="stroke:#181818;stroke-width:1.0;"/><path d="M21.3438,282.8594 Q19.3594,282.8594 18.1875,281.3906 Q17.0313,279.9063 17.0313,276.8281 Q17.0313,274.2188 18.25,272.4688 Q19.4844,270.7188 21.6094,270.7188 Q22.1094,270.7188 22.6406,270.8594 Q23.0781,271.0469 23.3438,271.0469 Q23.5625,271.0469 23.6563,271 Q23.7656,270.9531 24.2188,270.3594 L24.9844,274.0938 L24.0938,274.3594 Q23.6406,272.9063 23.0313,272.3125 Q22.4375,271.7031 21.4844,271.7031 Q20.2656,271.7031 19.5469,273.1406 Q18.8281,274.5625 18.8281,276.75 Q18.8281,279.1563 19.4375,280.4531 Q20.0625,281.7344 21.4219,281.7344 Q22.375,281.7344 23.0625,281.0469 Q23.75,280.3438 24.0781,278.8438 L24.9844,279.25 Q24.5781,280.9531 23.6094,281.9063 Q22.6563,282.8594 21.3438,282.8594 Z " fill="#000000"/><text fill="#000000" font-family="sans-serif" font-size="14" lengthAdjust="spacing" textLength="75" x="36" y="283.4839">PekingDuck</text><line style="stroke:#181818;stroke-width:0.5;" x1="8" x2="113" y1="293" y2="293"/><line style="stroke:#181818;stroke-width:0.5;" x1="8" x2="113" y1="301" y2="301"/></g><!--class Flour--><g id="elem_Flour"><rect fill="#F1F1F1" height="48" id="Flour" rx="2.5" ry="2.5" style="stroke:#181818;stroke-width:0.5;" width="65" x="28" y="7"/><ellipse cx="43" cy="23" fill="#ADD1B2" rx="11" ry="11" style="stroke:#181818;stroke-width:1.0;"/><path d="M42.3438,28.8594 Q40.3594,28.8594 39.1875,27.3906 Q38.0313,25.9063 38.0313,22.8281 Q38.0313,20.2188 39.25,18.4688 Q40.4844,16.7188 42.6094,16.7188 Q43.1094,16.7188 43.6406,16.8594 Q44.0781,17.0469 44.3438,17.0469 Q44.5625,17.0469 44.6563,17 Q44.7656,16.9531 45.2188,16.3594 L45.9844,20.0938 L45.0938,20.3594 Q44.6406,18.9063 44.0313,18.3125 Q43.4375,17.7031 42.4844,17.7031 Q41.2656,17.7031 40.5469,19.1406 Q39.8281,20.5625 39.8281,22.75 Q39.8281,25.1563 40.4375,26.4531 Q41.0625,27.7344 42.4219,27.7344 Q43.375,27.7344 44.0625,27.0469 Q44.75,26.3438 45.0781,24.8438 L45.9844,25.25 Q45.5781,26.9531 44.6094,27.9063 Q43.6563,28.8594 42.3438,28.8594 Z " fill="#000000"/><text fill="#000000" font-family="sans-serif" font-size="14" lengthAdjust="spacing" textLength="33" x="57" y="29.4839">Flour</text><line style="stroke:#181818;stroke-width:0.5;" x1="29" x2="92" y1="39" y2="39"/><line style="stroke:#181818;stroke-width:0.5;" x1="29" x2="92" y1="47" y2="47"/></g><!--reverse link Pancakes to PekingDuck--><g id="link_Pancakes_PekingDuck"><path codeLine="1" d="M60.5,194.22 C60.5,216.67 60.5,238.5 60.5,260.91 " fill="none" id="Pancakes-backto-PekingDuck" style="stroke:#181818;stroke-width:1.0;"/><polygon fill="#181818" points="60.5,182.22,56.5,188.22,60.5,194.22,64.5,188.22,60.5,182.22" style="stroke:#181818;stroke-width:1.0;"/><text fill="#000000" font-family="sans-serif" font-size="13" lengthAdjust="spacing" textLength="60" x="61.5" y="227.8979">composes</text></g><!--reverse link Flour to Pancakes--><g id="link_Flour_Pancakes"><path codeLine="2" d="M60.5,67.22 C60.5,89.67 60.5,111.5 60.5,133.91 " fill="none" id="Flour-backto-Pancakes" style="stroke:#181818;stroke-width:1.0;"/><polygon fill="#181818" points="60.5,55.22,56.5,61.22,60.5,67.22,64.5,61.22,60.5,55.22" style="stroke:#181818;stroke-width:1.0;"/><text fill="#000000" font-family="sans-serif" font-size="13" lengthAdjust="spacing" textLength="60" x="61.5" y="100.8979">composes</text></g><!--SRC=[2qZCIqxCJYrMqDBLLGX8pSxCItSfJSvMi598piyjo2zEBUPooyalBOB8mnGZP040]--></g></svg>