<?xml version="1.0" encoding="us-ascii" standalone="no"?><svg xmlns="http://www.w3.org/2000/svg" xmlns:xlink="http://www.w3.org/1999/xlink" contentStyleType="text/css" height="316px" preserveAspectRatio="none" style="width:151px;height:316px;background:#FFFFFF;" version="1.1" viewBox="0 0 151 316" width="151px" zoomAndPan="magnify"><defs/><g><!--class MichaelJordan--><g id="elem_MichaelJordan"><rect fill="#F1F1F1" height="48" id="MichaelJordan" rx="2.5" ry="2.5" style="stroke:#181818;stroke-width:0.5;" width="123" x="14" y="7"/><ellipse cx="29" cy="23" fill="#ADD1B2" rx="11" ry="11" style="stroke:#181818;stroke-width:1.0;"/><path d="M28.3438,28.8594 Q26.3594,28.8594 25.1875,27.3906 Q24.0313,25.9063 24.0313,22.8281 Q24.0313,20.2188 25.25,18.4688 Q26.4844,16.7188 28.6094,16.7188 Q29.1094,16.7188 29.6406,16.8594 Q30.0781,17.0469 30.3438,17.0469 Q30.5625,17.0469 30.6563,17 Q30.7656,16.9531 31.2188,16.3594 L31.9844,20.0938 L31.0938,20.3594 Q30.6406,18.9063 30.0313,18.3125 Q29.4375,17.7031 28.4844,17.7031 Q27.2656,17.7031 26.5469,19.1406 Q25.8281,20.5625 25.8281,22.75 Q25.8281,25.1563 26.4375,26.4531 Q27.0625,27.7344 28.4219,27.7344 Q29.375,27.7344 30.0625,27.0469 Q30.75,26.3438 31.0781,24.8438 L31.9844,25.25 Q31.5781,26.9531 30.6094,27.9063 Q29.6563,28.8594 28.3438,28.8594 Z " fill="#000000"/><text fill="#000000" font-family="sans-serif" font-size="14" lengthAdjust="spacing" textLength="91" x="43" y="29.4839">MichaelJordan</text><line style="stroke:#181818;stroke-width:0.5;" x1="15" x2="136" y1="39" y2="39"/><line style="stroke:#181818;stroke-width:0.5;" x1="15" x2="136" y1="47" y2="47"/></g><!--class BasketballPlayer--><g id="elem_BasketballPlayer"><rect fill="#F1F1F1" height="48" id="BasketballPlayer" rx="2.5" ry="2.5" style="stroke:#181818;stroke-width:0.5;" width="137" x="7" y="134"/><ellipse cx="22" cy="150" fill="#ADD1B2" rx="11" ry="11" style="stroke:#181818;stroke-width:1.0;"/><path d="M21.3438,155.8594 Q19.3594,155.8594 18.1875,154.3906 Q17.0313,152.9063 17.0313,149.8281 Q17.0313,147.2188 18.25,145.4688 Q19.4844,143.7188 21.6094,143.7188 Q22.1094,143.7188 22.6406,143.8594 Q23.0781,144.0469 23.3438,144.0469 Q23.5625,144.0469 23.6563,144 Q23.7656,143.9531 24.2188,143.3594 L24.9844,147.0938 L24.0938,147.3594 Q23.6406,145.9063 23.0313,145.3125 Q22.4375,144.7031 21.4844,144.7031 Q20.2656,144.7031 19.5469,146.1406 Q18.8281,147.5625 18.8281,149.75 Q18.8281,152.1563 19.4375,153.4531 Q20.0625,154.7344 21.4219,154.7344 Q22.375,154.7344 23.0625,154.0469 Q23.75,153.3438 24.0781,151.8438 L24.9844,152.25 Q24.5781,153.9531 23.6094,154.9063 Q22.6563,155.8594 21.3438,155.8594 Z " fill="#000000"/><text fill="#000000" font-family="sans-serif" font-size="14" lengthAdjust="spacing" textLength="105" x="36" y="156.4839">BasketballPlayer</text><line style="stroke:#181818;stroke-width:0.5;" x1="8" x2="143" y1="166" y2="166"/><line style="stroke:#181818;stroke-width:0.5;" x1="8" x2="143" y1="174" y2="174"/></g><!--class Athlete--><g id="elem_Athlete"><rect fill="#F1F1F1" height="48" id="Athlete" rx="2.5" ry="2.5" style="stroke:#181818;stroke-width:0.5;" width="76" x="37.5" y="261"/><ellipse cx="52.5" cy="277" fill="#ADD1B2" rx="11" ry="11" style="stroke:#181818;stroke-width:1.0;"/><path d="M51.8438,282.8594 Q49.8594,282.8594 48.6875,281.3906 Q47.5313,279.9063 47.5313,276.8281 Q47.5313,274.2188 48.75,272.4688 Q49.9844,270.7188 52.1094,270.7188 Q52.6094,270.7188 53.1406,270.8594 Q53.5781,271.0469 53.8438,271.0469 Q54.0625,271.0469 54.1563,271 Q54.2656,270.9531 54.7188,270.3594 L55.4844,274.0938 L54.5938,274.3594 Q54.1406,272.9063 53.5313,272.3125 Q52.9375,271.7031 51.9844,271.7031 Q50.7656,271.7031 50.0469,273.1406 Q49.3281,274.5625 49.3281,276.75 Q49.3281,279.1563 49.9375,280.4531 Q50.5625,281.7344 51.9219,281.7344 Q52.875,281.7344 53.5625,281.0469 Q54.25,280.3438 54.5781,278.8438 L55.4844,279.25 Q55.0781,280.9531 54.1094,281.9063 Q53.1563,282.8594 51.8438,282.8594 Z " fill="#000000"/><text fill="#000000" font-family="sans-serif" font-size="14" lengthAdjust="spacing" textLength="44" x="66.5" y="283.4839">Athlete</text><line style="stroke:#181818;stroke-width:0.5;" x1="38.5" x2="112.5" y1="293" y2="293"/><line style="stroke:#181818;stroke-width:0.5;" x1="38.5" x2="112.5" y1="301" y2="301"/></g><!--reverse link MichaelJordan to BasketballPlayer--><g id="link_MichaelJordan_BasketballPlayer"><path codeLine="1" d="M75.5,73.22 C75.5,95.67 75.5,111.5 75.5,133.91 " fill="none" id="MichaelJordan-backto-BasketballPlayer" style="stroke:#181818;stroke-width:1.0;"/><polygon fill="none" points="75.5,55.22,69.5,73.22,81.5,73.22,75.5,55.22" style="stroke:#181818;stroke-width:1.0;"/><text fill="#000000" font-family="sans-serif" font-size="13" lengthAdjust="spacing" textLength="42" x="76.5" y="100.8979">inherits</text></g><!--reverse link BasketballPlayer to Athlete--><g id="link_BasketballPlayer_Athlete"><path codeLine="2" d="M75.5,200.22 C75.5,222.67 75.5,238.5 75.5,260.91 " fill="none" id="BasketballPlayer-backto-Athlete" style="stroke:#181818;stroke-width:1.0;"/><polygon fill="none" points="75.5,182.22,69.5,200.22,81.5,200.22,75.5,182.22" style="stroke:#181818;stroke-width:1.0;"/><text fill="#000000" font-family="sans-serif" font-size="13" lengthAdjust="spacing" textLength="42" x="76.5" y="227.8979">inherits</text></g><!--SRC=[yyrCpaXCpV7ABqf9p5EmgT7LLN1ABCvEBKbApCa9o4ciJ2rIi5B8pCj8BSeiAUR2a0FhS2p9o4ajIKLI2000]--></g></svg>