<?xml version="1.0" encoding="us-ascii" standalone="no"?><svg xmlns="http://www.w3.org/2000/svg" xmlns:xlink="http://www.w3.org/1999/xlink" contentStyleType="text/css" height="316px" preserveAspectRatio="none" style="width:151px;height:316px;background:#FFFFFF;" version="1.1" viewBox="0 0 151 316" width="151px" zoomAndPan="magnify"><defs/><g><!--class LabTeam--><g id="elem_LabTeam"><rect fill="#F1F1F1" height="48" id="LabTeam" rx="2.5" ry="2.5" style="stroke:#181818;stroke-width:0.5;" width="92" x="29.5" y="134"/><ellipse cx="44.5" cy="150" fill="#ADD1B2" rx="11" ry="11" style="stroke:#181818;stroke-width:1.0;"/><path d="M43.8438,155.8594 Q41.8594,155.8594 40.6875,154.3906 Q39.5313,152.9063 39.5313,149.8281 Q39.5313,147.2188 40.75,145.4688 Q41.9844,143.7188 44.1094,143.7188 Q44.6094,143.7188 45.1406,143.8594 Q45.5781,144.0469 45.8438,144.0469 Q46.0625,144.0469 46.1563,144 Q46.2656,143.9531 46.7188,143.3594 L47.4844,147.0938 L46.5938,147.3594 Q46.1406,145.9063 45.5313,145.3125 Q44.9375,144.7031 43.9844,144.7031 Q42.7656,144.7031 42.0469,146.1406 Q41.3281,147.5625 41.3281,149.75 Q41.3281,152.1563 41.9375,153.4531 Q42.5625,154.7344 43.9219,154.7344 Q44.875,154.7344 45.5625,154.0469 Q46.25,153.3438 46.5781,151.8438 L47.4844,152.25 Q47.0781,153.9531 46.1094,154.9063 Q45.1563,155.8594 43.8438,155.8594 Z " fill="#000000"/><text fill="#000000" font-family="sans-serif" font-size="14" lengthAdjust="spacing" textLength="60" x="58.5" y="156.4839">LabTeam</text><line style="stroke:#181818;stroke-width:0.5;" x1="30.5" x2="120.5" y1="166" y2="166"/><line style="stroke:#181818;stroke-width:0.5;" x1="30.5" x2="120.5" y1="174" y2="174"/></g><!--class UniversityStation--><g id="elem_UniversityStation"><rect fill="#F1F1F1" height="48" id="UniversityStation" rx="2.5" ry="2.5" style="stroke:#181818;stroke-width:0.5;" width="137" x="7" y="261"/><ellipse cx="22" cy="277" fill="#ADD1B2" rx="11" ry="11" style="stroke:#181818;stroke-width:1.0;"/><path d="M21.3438,282.8594 Q19.3594,282.8594 18.1875,281.3906 Q17.0313,279.9063 17.0313,276.8281 Q17.0313,274.2188 18.25,272.4688 Q19.4844,270.7188 21.6094,270.7188 Q22.1094,270.7188 22.6406,270.8594 Q23.0781,271.0469 23.3438,271.0469 Q23.5625,271.0469 23.6563,271 Q23.7656,270.9531 24.2188,270.3594 L24.9844,274.0938 L24.0938,274.3594 Q23.6406,272.9063 23.0313,272.3125 Q22.4375,271.7031 21.4844,271.7031 Q20.2656,271.7031 19.5469,273.1406 Q18.8281,274.5625 18.8281,276.75 Q18.8281,279.1563 19.4375,280.4531 Q20.0625,281.7344 21.4219,281.7344 Q22.375,281.7344 23.0625,281.0469 Q23.75,280.3438 24.0781,278.8438 L24.9844,279.25 Q24.5781,280.9531 23.6094,281.9063 Q22.6563,282.8594 21.3438,282.8594 Z " fill="#000000"/><text fill="#000000" font-family="sans-serif" font-size="14" lengthAdjust="spacing" textLength="105" x="36" y="283.4839">UniversityStation</text><line style="stroke:#181818;stroke-width:0.5;" x1="8" x2="143" y1="293" y2="293"/><line style="stroke:#181818;stroke-width:0.5;" x1="8" x2="143" y1="301" y2="301"/></g><!--class LabTechnician--><g id="elem_LabTechnician"><rect fill="#F1F1F1" height="48" id="LabTechnician" rx="2.5" ry="2.5" style="stroke:#181818;stroke-width:0.5;" width="125" x="13" y="7"/><ellipse cx="28" cy="23" fill="#ADD1B2" rx="11" ry="11" style="stroke:#181818;stroke-width:1.0;"/><path d="M27.3438,28.8594 Q25.3594,28.8594 24.1875,27.3906 Q23.0313,25.9063 23.0313,22.8281 Q23.0313,20.2188 24.25,18.4688 Q25.4844,16.7188 27.6094,16.7188 Q28.1094,16.7188 28.6406,16.8594 Q29.0781,17.0469 29.3438,17.0469 Q29.5625,17.0469 29.6563,17 Q29.7656,16.9531 30.2188,16.3594 L30.9844,20.0938 L30.0938,20.3594 Q29.6406,18.9063 29.0313,18.3125 Q28.4375,17.7031 27.4844,17.7031 Q26.2656,17.7031 25.5469,19.1406 Q24.8281,20.5625 24.8281,22.75 Q24.8281,25.1563 25.4375,26.4531 Q26.0625,27.7344 27.4219,27.7344 Q28.375,27.7344 29.0625,27.0469 Q29.75,26.3438 30.0781,24.8438 L30.9844,25.25 Q30.5781,26.9531 29.6094,27.9063 Q28.6563,28.8594 27.3438,28.8594 Z " fill="#000000"/><text fill="#000000" font-family="sans-serif" font-size="14" lengthAdjust="spacing" textLength="93" x="42" y="29.4839">LabTechnician</text><line style="stroke:#181818;stroke-width:0.5;" x1="14" x2="137" y1="39" y2="39"/><line style="stroke:#181818;stroke-width:0.5;" x1="14" x2="137" y1="47" y2="47"/></g><!--reverse link LabTeam to UniversityStation--><g id="link_LabTeam_UniversityStation"><path codeLine="1" d="M75.5,194.22 C75.5,216.67 75.5,238.5 75.5,260.91 " fill="none" id="LabTeam-backto-UniversityStation" style="stroke:#181818;stroke-width:1.0;"/><polygon fill="none" points="75.5,182.22,71.5,188.22,75.5,194.22,79.5,188.22,75.5,182.22" style="stroke:#181818;stroke-width:1.0;"/><text fill="#000000" font-family="sans-serif" font-size="13" lengthAdjust="spacing" textLength="64" x="76.5" y="227.8979">aggregates</text></g><!--reverse link LabTechnician to LabTeam--><g id="link_LabTechnician_LabTeam"><path codeLine="2" d="M75.5,67.22 C75.5,89.67 75.5,111.5 75.5,133.91 " fill="none" id="LabTechnician-backto-LabTeam" style="stroke:#181818;stroke-width:1.0;"/><polygon fill="none" points="75.5,55.22,71.5,61.22,75.5,67.22,79.5,61.22,75.5,55.22" style="stroke:#181818;stroke-width:1.0;"/><text fill="#000000" font-family="sans-serif" font-size="13" lengthAdjust="spacing" textLength="64" x="76.5" y="100.8979">aggregates</text></g><!--SRC=[yqbC2abDp5N8rzLL2CtBB4ijAiuigGmkIIp9pCzJi598J4ylIarFB4ajvl81AKtEoCjCpapC0slmWMf6LWO0]--></g></svg>