<?xml version="1.0" encoding="us-ascii" standalone="no"?><svg xmlns="http://www.w3.org/2000/svg" xmlns:xlink="http://www.w3.org/1999/xlink" contentStyleType="text/css" height="316px" preserveAspectRatio="none" style="width:186px;height:316px;background:#FFFFFF;" version="1.1" viewBox="0 0 186 316" width="186px" zoomAndPan="magnify"><defs/><g><!--class WorkCrew--><g id="elem_WorkCrew"><rect fill="#F1F1F1" height="48" id="WorkCrew" rx="2.5" ry="2.5" style="stroke:#181818;stroke-width:0.5;" width="97" x="44.5" y="134"/><ellipse cx="59.5" cy="150" fill="#ADD1B2" rx="11" ry="11" style="stroke:#181818;stroke-width:1.0;"/><path d="M58.8438,155.8594 Q56.8594,155.8594 55.6875,154.3906 Q54.5313,152.9063 54.5313,149.8281 Q54.5313,147.2188 55.75,145.4688 Q56.9844,143.7188 59.1094,143.7188 Q59.6094,143.7188 60.1406,143.8594 Q60.5781,144.0469 60.8438,144.0469 Q61.0625,144.0469 61.1563,144 Q61.2656,143.9531 61.7188,143.3594 L62.4844,147.0938 L61.5938,147.3594 Q61.1406,145.9063 60.5313,145.3125 Q59.9375,144.7031 58.9844,144.7031 Q57.7656,144.7031 57.0469,146.1406 Q56.3281,147.5625 56.3281,149.75 Q56.3281,152.1563 56.9375,153.4531 Q57.5625,154.7344 58.9219,154.7344 Q59.875,154.7344 60.5625,154.0469 Q61.25,153.3438 61.5781,151.8438 L62.4844,152.25 Q62.0781,153.9531 61.1094,154.9063 Q60.1563,155.8594 58.8438,155.8594 Z " fill="#000000"/><text fill="#000000" font-family="sans-serif" font-size="14" lengthAdjust="spacing" textLength="65" x="73.5" y="156.4839">WorkCrew</text><line style="stroke:#181818;stroke-width:0.5;" x1="45.5" x2="140.5" y1="166" y2="166"/><line style="stroke:#181818;stroke-width:0.5;" x1="45.5" x2="140.5" y1="174" y2="174"/></g><!--class ConstructionCompany--><g id="elem_ConstructionCompany"><rect fill="#F1F1F1" height="48" id="ConstructionCompany" rx="2.5" ry="2.5" style="stroke:#181818;stroke-width:0.5;" width="172" x="7" y="261"/><ellipse cx="22" cy="277" fill="#ADD1B2" rx="11" ry="11" style="stroke:#181818;stroke-width:1.0;"/><path d="M21.3438,282.8594 Q19.3594,282.8594 18.1875,281.3906 Q17.0313,279.9063 17.0313,276.8281 Q17.0313,274.2188 18.25,272.4688 Q19.4844,270.7188 21.6094,270.7188 Q22.1094,270.7188 22.6406,270.8594 Q23.0781,271.0469 23.3438,271.0469 Q23.5625,271.0469 23.6563,271 Q23.7656,270.9531 24.2188,270.3594 L24.9844,274.0938 L24.0938,274.3594 Q23.6406,272.9063 23.0313,272.3125 Q22.4375,271.7031 21.4844,271.7031 Q20.2656,271.7031 19.5469,273.1406 Q18.8281,274.5625 18.8281,276.75 Q18.8281,279.1563 19.4375,280.4531 Q20.0625,281.7344 21.4219,281.7344 Q22.375,281.7344 23.0625,281.0469 Q23.75,280.3438 24.0781,278.8438 L24.9844,279.25 Q24.5781,280.9531 23.6094,281.9063 Q22.6563,282.8594 21.3438,282.8594 Z " fill="#000000"/><text fill="#000000" font-family="sans-serif" font-size="14" lengthAdjust="spacing" textLength="140" x="36" y="283.4839">ConstructionCompany</text><line style="stroke:#181818;stroke-width:0.5;" x1="8" x2="178" y1="293" y2="293"/><line style="stroke:#181818;stroke-width:0.5;" x1="8" x2="178" y1="301" y2="301"/></g><!--class Welder--><g id="elem_Welder"><rect fill="#F1F1F1" height="48" id="Welder" rx="2.5" ry="2.5" style="stroke:#181818;stroke-width:0.5;" width="77" x="54.5" y="7"/><ellipse cx="69.5" cy="23" fill="#ADD1B2" rx="11" ry="11" style="stroke:#181818;stroke-width:1.0;"/><path d="M68.8438,28.8594 Q66.8594,28.8594 65.6875,27.3906 Q64.5313,25.9063 64.5313,22.8281 Q64.5313,20.2188 65.75,18.4688 Q66.9844,16.7188 69.1094,16.7188 Q69.6094,16.7188 70.1406,16.8594 Q70.5781,17.0469 70.8438,17.0469 Q71.0625,17.0469 71.1563,17 Q71.2656,16.9531 71.7188,16.3594 L72.4844,20.0938 L71.5938,20.3594 Q71.1406,18.9063 70.5313,18.3125 Q69.9375,17.7031 68.9844,17.7031 Q67.7656,17.7031 67.0469,19.1406 Q66.3281,20.5625 66.3281,22.75 Q66.3281,25.1563 66.9375,26.4531 Q67.5625,27.7344 68.9219,27.7344 Q69.875,27.7344 70.5625,27.0469 Q71.25,26.3438 71.5781,24.8438 L72.4844,25.25 Q72.0781,26.9531 71.1094,27.9063 Q70.1563,28.8594 68.8438,28.8594 Z " fill="#000000"/><text fill="#000000" font-family="sans-serif" font-size="14" lengthAdjust="spacing" textLength="45" x="83.5" y="29.4839">Welder</text><line style="stroke:#181818;stroke-width:0.5;" x1="55.5" x2="130.5" y1="39" y2="39"/><line style="stroke:#181818;stroke-width:0.5;" x1="55.5" x2="130.5" y1="47" y2="47"/></g><!--reverse link WorkCrew to ConstructionCompany--><g id="link_WorkCrew_ConstructionCompany"><path codeLine="1" d="M93,194.22 C93,216.67 93,238.5 93,260.91 " fill="none" id="WorkCrew-backto-ConstructionCompany" style="stroke:#181818;stroke-width:1.0;"/><polygon fill="none" points="93,182.22,89,188.22,93,194.22,97,188.22,93,182.22" style="stroke:#181818;stroke-width:1.0;"/><text fill="#000000" font-family="sans-serif" font-size="13" lengthAdjust="spacing" textLength="64" x="94" y="227.8979">aggregates</text></g><!--reverse link Welder to WorkCrew--><g id="link_Welder_WorkCrew"><path codeLine="2" d="M93,67.22 C93,89.67 93,111.5 93,133.91 " fill="none" id="Welder-backto-WorkCrew" style="stroke:#181818;stroke-width:1.0;"/><polygon fill="none" points="93,55.22,89,61.22,93,67.22,97,61.22,93,55.22" style="stroke:#181818;stroke-width:1.0;"/><text fill="#000000" font-family="sans-serif" font-size="13" lengthAdjust="spacing" textLength="64" x="94" y="100.8979">aggregates</text></g><!--SRC=[2yylodOkIYrNoDVLLN3EpoikAIfDBidCptFEpor8pAjKi598J4ylIarFB4ajvWfFpKb9BGAh3OTfH5O00000]--></g></svg>