<?xml version="1.0" encoding="us-ascii" standalone="no"?><svg xmlns="http://www.w3.org/2000/svg" xmlns:xlink="http://www.w3.org/1999/xlink" contentStyleType="text/css" height="316px" preserveAspectRatio="none" style="width:147px;height:316px;background:#FFFFFF;" version="1.1" viewBox="0 0 147 316" width="147px" zoomAndPan="magnify"><defs/><g><!--class ResearchGroup--><g id="elem_ResearchGroup"><rect fill="#F1F1F1" height="48" id="ResearchGroup" rx="2.5" ry="2.5" style="stroke:#181818;stroke-width:0.5;" width="133" x="7" y="134"/><ellipse cx="22" cy="150" fill="#ADD1B2" rx="11" ry="11" style="stroke:#181818;stroke-width:1.0;"/><path d="M21.3438,155.8594 Q19.3594,155.8594 18.1875,154.3906 Q17.0313,152.9063 17.0313,149.8281 Q17.0313,147.2188 18.25,145.4688 Q19.4844,143.7188 21.6094,143.7188 Q22.1094,143.7188 22.6406,143.8594 Q23.0781,144.0469 23.3438,144.0469 Q23.5625,144.0469 23.6563,144 Q23.7656,143.9531 24.2188,143.3594 L24.9844,147.0938 L24.0938,147.3594 Q23.6406,145.9063 23.0313,145.3125 Q22.4375,144.7031 21.4844,144.7031 Q20.2656,144.7031 19.5469,146.1406 Q18.8281,147.5625 18.8281,149.75 Q18.8281,152.1563 19.4375,153.4531 Q20.0625,154.7344 21.4219,154.7344 Q22.375,154.7344 23.0625,154.0469 Q23.75,153.3438 24.0781,151.8438 L24.9844,152.25 Q24.5781,153.9531 23.6094,154.9063 Q22.6563,155.8594 21.3438,155.8594 Z " fill="#000000"/><text fill="#000000" font-family="sans-serif" font-size="14" lengthAdjust="spacing" textLength="101" x="36" y="156.4839">ResearchGroup</text><line style="stroke:#181818;stroke-width:0.5;" x1="8" x2="139" y1="166" y2="166"/><line style="stroke:#181818;stroke-width:0.5;" x1="8" x2="139" y1="174" y2="174"/></g><!--class University--><g id="elem_University"><rect fill="#F1F1F1" height="48" id="University" rx="2.5" ry="2.5" style="stroke:#181818;stroke-width:0.5;" width="93" x="27" y="261"/><ellipse cx="42" cy="277" fill="#ADD1B2" rx="11" ry="11" style="stroke:#181818;stroke-width:1.0;"/><path d="M41.3438,282.8594 Q39.3594,282.8594 38.1875,281.3906 Q37.0313,279.9063 37.0313,276.8281 Q37.0313,274.2188 38.25,272.4688 Q39.4844,270.7188 41.6094,270.7188 Q42.1094,270.7188 42.6406,270.8594 Q43.0781,271.0469 43.3438,271.0469 Q43.5625,271.0469 43.6563,271 Q43.7656,270.9531 44.2188,270.3594 L44.9844,274.0938 L44.0938,274.3594 Q43.6406,272.9063 43.0313,272.3125 Q42.4375,271.7031 41.4844,271.7031 Q40.2656,271.7031 39.5469,273.1406 Q38.8281,274.5625 38.8281,276.75 Q38.8281,279.1563 39.4375,280.4531 Q40.0625,281.7344 41.4219,281.7344 Q42.375,281.7344 43.0625,281.0469 Q43.75,280.3438 44.0781,278.8438 L44.9844,279.25 Q44.5781,280.9531 43.6094,281.9063 Q42.6563,282.8594 41.3438,282.8594 Z " fill="#000000"/><text fill="#000000" font-family="sans-serif" font-size="14" lengthAdjust="spacing" textLength="61" x="56" y="283.4839">University</text><line style="stroke:#181818;stroke-width:0.5;" x1="28" x2="119" y1="293" y2="293"/><line style="stroke:#181818;stroke-width:0.5;" x1="28" x2="119" y1="301" y2="301"/></g><!--class PhDStudent--><g id="elem_PhDStudent"><rect fill="#F1F1F1" height="48" id="PhDStudent" rx="2.5" ry="2.5" style="stroke:#181818;stroke-width:0.5;" width="108" x="19.5" y="7"/><ellipse cx="34.5" cy="23" fill="#ADD1B2" rx="11" ry="11" style="stroke:#181818;stroke-width:1.0;"/><path d="M33.8438,28.8594 Q31.8594,28.8594 30.6875,27.3906 Q29.5313,25.9063 29.5313,22.8281 Q29.5313,20.2188 30.75,18.4688 Q31.9844,16.7188 34.1094,16.7188 Q34.6094,16.7188 35.1406,16.8594 Q35.5781,17.0469 35.8438,17.0469 Q36.0625,17.0469 36.1563,17 Q36.2656,16.9531 36.7188,16.3594 L37.4844,20.0938 L36.5938,20.3594 Q36.1406,18.9063 35.5313,18.3125 Q34.9375,17.7031 33.9844,17.7031 Q32.7656,17.7031 32.0469,19.1406 Q31.3281,20.5625 31.3281,22.75 Q31.3281,25.1563 31.9375,26.4531 Q32.5625,27.7344 33.9219,27.7344 Q34.875,27.7344 35.5625,27.0469 Q36.25,26.3438 36.5781,24.8438 L37.4844,25.25 Q37.0781,26.9531 36.1094,27.9063 Q35.1563,28.8594 33.8438,28.8594 Z " fill="#000000"/><text fill="#000000" font-family="sans-serif" font-size="14" lengthAdjust="spacing" textLength="76" x="48.5" y="29.4839">PhDStudent</text><line style="stroke:#181818;stroke-width:0.5;" x1="20.5" x2="126.5" y1="39" y2="39"/><line style="stroke:#181818;stroke-width:0.5;" x1="20.5" x2="126.5" y1="47" y2="47"/></g><!--reverse link ResearchGroup to University--><g id="link_ResearchGroup_University"><path codeLine="1" d="M73.5,194.22 C73.5,216.67 73.5,238.5 73.5,260.91 " fill="none" id="ResearchGroup-backto-University" style="stroke:#181818;stroke-width:1.0;"/><polygon fill="none" points="73.5,182.22,69.5,188.22,73.5,194.22,77.5,188.22,73.5,182.22" style="stroke:#181818;stroke-width:1.0;"/><text fill="#000000" font-family="sans-serif" font-size="13" lengthAdjust="spacing" textLength="64" x="74.5" y="227.8979">aggregates</text></g><!--reverse link PhDStudent to ResearchGroup--><g id="link_PhDStudent_ResearchGroup"><path codeLine="2" d="M73.5,67.22 C73.5,89.67 73.5,111.5 73.5,133.91 " fill="none" id="PhDStudent-backto-ResearchGroup" style="stroke:#181818;stroke-width:1.0;"/><polygon fill="none" points="73.5,55.22,69.5,61.22,73.5,67.22,77.5,61.22,73.5,55.22" style="stroke:#181818;stroke-width:1.0;"/><text fill="#000000" font-family="sans-serif" font-size="13" lengthAdjust="spacing" textLength="64" x="74.5" y="100.8979">aggregates</text></g><!--SRC=[2qejJaqiIivmByelBL38rzLL2CtBB4ijAiuigLImKaXCJozAJKyiIItc2iXm2IufJKdDAm4h2qBHYAmI0000]--></g></svg>