<?xml version="1.0" encoding="us-ascii" standalone="no"?><svg xmlns="http://www.w3.org/2000/svg" xmlns:xlink="http://www.w3.org/1999/xlink" contentStyleType="text/css" height="316px" preserveAspectRatio="none" style="width:187px;height:316px;background:#FFFFFF;" version="1.1" viewBox="0 0 187 316" width="187px" zoomAndPan="magnify"><defs/><g><!--class ComplianceCommittee--><g id="elem_ComplianceCommittee"><rect fill="#F1F1F1" height="48" id="ComplianceCommittee" rx="2.5" ry="2.5" style="stroke:#181818;stroke-width:0.5;" width="173" x="7" y="134"/><ellipse cx="22" cy="150" fill="#ADD1B2" rx="11" ry="11" style="stroke:#181818;stroke-width:1.0;"/><path d="M21.3438,155.8594 Q19.3594,155.8594 18.1875,154.3906 Q17.0313,152.9063 17.0313,149.8281 Q17.0313,147.2188 18.25,145.4688 Q19.4844,143.7188 21.6094,143.7188 Q22.1094,143.7188 22.6406,143.8594 Q23.0781,144.0469 23.3438,144.0469 Q23.5625,144.0469 23.6563,144 Q23.7656,143.9531 24.2188,143.3594 L24.9844,147.0938 L24.0938,147.3594 Q23.6406,145.9063 23.0313,145.3125 Q22.4375,144.7031 21.4844,144.7031 Q20.2656,144.7031 19.5469,146.1406 Q18.8281,147.5625 18.8281,149.75 Q18.8281,152.1563 19.4375,153.4531 Q20.0625,154.7344 21.4219,154.7344 Q22.375,154.7344 23.0625,154.0469 Q23.75,153.3438 24.0781,151.8438 L24.9844,152.25 Q24.5781,153.9531 23.6094,154.9063 Q22.6563,155.8594 21.3438,155.8594 Z " fill="#000000"/><text fill="#000000" font-family="sans-serif" font-size="14" lengthAdjust="spacing" textLength="141" x="36" y="156.4839">ComplianceCommittee</text><line style="stroke:#181818;stroke-width:0.5;" x1="8" x2="179" y1="166" y2="166"/><line style="stroke:#181818;stroke-width:0.5;" x1="8" x2="179" y1="174" y2="174"/></g><!--class CulturalArtMuseum--><g id="elem_CulturalArtMuseum"><rect fill="#F1F1F1" height="48" id="CulturalArtMuseum" rx="2.5" ry="2.5" style="stroke:#181818;stroke-width:0.5;" width="152" x="17.5" y="261"/><ellipse cx="32.5" cy="277" fill="#ADD1B2" rx="11" ry="11" style="stroke:#181818;stroke-width:1.0;"/><path d="M31.8438,282.8594 Q29.8594,282.8594 28.6875,281.3906 Q27.5313,279.9063 27.5313,276.8281 Q27.5313,274.2188 28.75,272.4688 Q29.9844,270.7188 32.1094,270.7188 Q32.6094,270.7188 33.1406,270.8594 Q33.5781,271.0469 33.8438,271.0469 Q34.0625,271.0469 34.1563,271 Q34.2656,270.9531 34.7188,270.3594 L35.4844,274.0938 L34.5938,274.3594 Q34.1406,272.9063 33.5313,272.3125 Q32.9375,271.7031 31.9844,271.7031 Q30.7656,271.7031 30.0469,273.1406 Q29.3281,274.5625 29.3281,276.75 Q29.3281,279.1563 29.9375,280.4531 Q30.5625,281.7344 31.9219,281.7344 Q32.875,281.7344 33.5625,281.0469 Q34.25,280.3438 34.5781,278.8438 L35.4844,279.25 Q35.0781,280.9531 34.1094,281.9063 Q33.1563,282.8594 31.8438,282.8594 Z " fill="#000000"/><text fill="#000000" font-family="sans-serif" font-size="14" lengthAdjust="spacing" textLength="120" x="46.5" y="283.4839">CulturalArtMuseum</text><line style="stroke:#181818;stroke-width:0.5;" x1="18.5" x2="168.5" y1="293" y2="293"/><line style="stroke:#181818;stroke-width:0.5;" x1="18.5" x2="168.5" y1="301" y2="301"/></g><!--class Lecturer--><g id="elem_Lecturer"><rect fill="#F1F1F1" height="48" id="Lecturer" rx="2.5" ry="2.5" style="stroke:#181818;stroke-width:0.5;" width="85" x="51" y="7"/><ellipse cx="66" cy="23" fill="#ADD1B2" rx="11" ry="11" style="stroke:#181818;stroke-width:1.0;"/><path d="M65.3438,28.8594 Q63.3594,28.8594 62.1875,27.3906 Q61.0313,25.9063 61.0313,22.8281 Q61.0313,20.2188 62.25,18.4688 Q63.4844,16.7188 65.6094,16.7188 Q66.1094,16.7188 66.6406,16.8594 Q67.0781,17.0469 67.3438,17.0469 Q67.5625,17.0469 67.6563,17 Q67.7656,16.9531 68.2188,16.3594 L68.9844,20.0938 L68.0938,20.3594 Q67.6406,18.9063 67.0313,18.3125 Q66.4375,17.7031 65.4844,17.7031 Q64.2656,17.7031 63.5469,19.1406 Q62.8281,20.5625 62.8281,22.75 Q62.8281,25.1563 63.4375,26.4531 Q64.0625,27.7344 65.4219,27.7344 Q66.375,27.7344 67.0625,27.0469 Q67.75,26.3438 68.0781,24.8438 L68.9844,25.25 Q68.5781,26.9531 67.6094,27.9063 Q66.6563,28.8594 65.3438,28.8594 Z " fill="#000000"/><text fill="#000000" font-family="sans-serif" font-size="14" lengthAdjust="spacing" textLength="53" x="80" y="29.4839">Lecturer</text><line style="stroke:#181818;stroke-width:0.5;" x1="52" x2="135" y1="39" y2="39"/><line style="stroke:#181818;stroke-width:0.5;" x1="52" x2="135" y1="47" y2="47"/></g><!--reverse link ComplianceCommittee to CulturalArtMuseum--><g id="link_ComplianceCommittee_CulturalArtMuseum"><path codeLine="1" d="M93.5,194.22 C93.5,216.67 93.5,238.5 93.5,260.91 " fill="none" id="ComplianceCommittee-backto-CulturalArtMuseum" style="stroke:#181818;stroke-width:1.0;"/><polygon fill="none" points="93.5,182.22,89.5,188.22,93.5,194.22,97.5,188.22,93.5,182.22" style="stroke:#181818;stroke-width:1.0;"/><text fill="#000000" font-family="sans-serif" font-size="13" lengthAdjust="spacing" textLength="64" x="94.5" y="227.8979">aggregates</text></g><!--reverse link Lecturer to ComplianceCommittee--><g id="link_Lecturer_ComplianceCommittee"><path codeLine="2" d="M93.5,67.22 C93.5,89.67 93.5,111.5 93.5,133.91 " fill="none" id="Lecturer-backto-ComplianceCommittee" style="stroke:#181818;stroke-width:1.0;"/><polygon fill="none" points="93.5,55.22,89.5,61.22,93.5,67.22,97.5,61.22,93.5,55.22" style="stroke:#181818;stroke-width:1.0;"/><text fill="#000000" font-family="sans-serif" font-size="13" lengthAdjust="spacing" textLength="64" x="94.5" y="100.8979">aggregates</text></g><!--SRC=[SyxFBSZ9JCnBJdNEpytDB2b9JLN8rzLLS2xDAIajIinnB2hnBIrEBSrLi598J4ylIarFB4ajvl99JGPAfnP1r68n0rar0000]--></g></svg>