<?xml version="1.0" encoding="us-ascii" standalone="no"?><svg xmlns="http://www.w3.org/2000/svg" xmlns:xlink="http://www.w3.org/1999/xlink" contentStyleType="text/css" height="316px" preserveAspectRatio="none" style="width:226px;height:316px;background:#FFFFFF;" version="1.1" viewBox="0 0 226 316" width="226px" zoomAndPan="magnify"><defs/><g><!--class NursingBoard--><g id="elem_NursingBoard"><rect fill="#F1F1F1" height="48" id="NursingBoard" rx="2.5" ry="2.5" style="stroke:#181818;stroke-width:0.5;" width="118" x="54" y="134"/><ellipse cx="69" cy="150" fill="#ADD1B2" rx="11" ry="11" style="stroke:#181818;stroke-width:1.0;"/><path d="M68.3438,155.8594 Q66.3594,155.8594 65.1875,154.3906 Q64.0313,152.9063 64.0313,149.8281 Q64.0313,147.2188 65.25,145.4688 Q66.4844,143.7188 68.6094,143.7188 Q69.1094,143.7188 69.6406,143.8594 Q70.0781,144.0469 70.3438,144.0469 Q70.5625,144.0469 70.6563,144 Q70.7656,143.9531 71.2188,143.3594 L71.9844,147.0938 L71.0938,147.3594 Q70.6406,145.9063 70.0313,145.3125 Q69.4375,144.7031 68.4844,144.7031 Q67.2656,144.7031 66.5469,146.1406 Q65.8281,147.5625 65.8281,149.75 Q65.8281,152.1563 66.4375,153.4531 Q67.0625,154.7344 68.4219,154.7344 Q69.375,154.7344 70.0625,154.0469 Q70.75,153.3438 71.0781,151.8438 L71.9844,152.25 Q71.5781,153.9531 70.6094,154.9063 Q69.6563,155.8594 68.3438,155.8594 Z " fill="#000000"/><text fill="#000000" font-family="sans-serif" font-size="14" lengthAdjust="spacing" textLength="86" x="83" y="156.4839">NursingBoard</text><line style="stroke:#181818;stroke-width:0.5;" x1="55" x2="171" y1="166" y2="166"/><line style="stroke:#181818;stroke-width:0.5;" x1="55" x2="171" y1="174" y2="174"/></g><!--class CommunityTheaterCompany--><g id="elem_CommunityTheaterCompany"><rect fill="#F1F1F1" height="48" id="CommunityTheaterCompany" rx="2.5" ry="2.5" style="stroke:#181818;stroke-width:0.5;" width="212" x="7" y="261"/><ellipse cx="22" cy="277" fill="#ADD1B2" rx="11" ry="11" style="stroke:#181818;stroke-width:1.0;"/><path d="M21.3438,282.8594 Q19.3594,282.8594 18.1875,281.3906 Q17.0313,279.9063 17.0313,276.8281 Q17.0313,274.2188 18.25,272.4688 Q19.4844,270.7188 21.6094,270.7188 Q22.1094,270.7188 22.6406,270.8594 Q23.0781,271.0469 23.3438,271.0469 Q23.5625,271.0469 23.6563,271 Q23.7656,270.9531 24.2188,270.3594 L24.9844,274.0938 L24.0938,274.3594 Q23.6406,272.9063 23.0313,272.3125 Q22.4375,271.7031 21.4844,271.7031 Q20.2656,271.7031 19.5469,273.1406 Q18.8281,274.5625 18.8281,276.75 Q18.8281,279.1563 19.4375,280.4531 Q20.0625,281.7344 21.4219,281.7344 Q22.375,281.7344 23.0625,281.0469 Q23.75,280.3438 24.0781,278.8438 L24.9844,279.25 Q24.5781,280.9531 23.6094,281.9063 Q22.6563,282.8594 21.3438,282.8594 Z " fill="#000000"/><text fill="#000000" font-family="sans-serif" font-size="14" lengthAdjust="spacing" textLength="180" x="36" y="283.4839">CommunityTheaterCompany</text><line style="stroke:#181818;stroke-width:0.5;" x1="8" x2="218" y1="293" y2="293"/><line style="stroke:#181818;stroke-width:0.5;" x1="8" x2="218" y1="301" y2="301"/></g><!--class Physiotherapist--><g id="elem_Physiotherapist"><rect fill="#F1F1F1" height="48" id="Physiotherapist" rx="2.5" ry="2.5" style="stroke:#181818;stroke-width:0.5;" width="129" x="48.5" y="7"/><ellipse cx="63.5" cy="23" fill="#ADD1B2" rx="11" ry="11" style="stroke:#181818;stroke-width:1.0;"/><path d="M62.8438,28.8594 Q60.8594,28.8594 59.6875,27.3906 Q58.5313,25.9063 58.5313,22.8281 Q58.5313,20.2188 59.75,18.4688 Q60.9844,16.7188 63.1094,16.7188 Q63.6094,16.7188 64.1406,16.8594 Q64.5781,17.0469 64.8438,17.0469 Q65.0625,17.0469 65.1563,17 Q65.2656,16.9531 65.7188,16.3594 L66.4844,20.0938 L65.5938,20.3594 Q65.1406,18.9063 64.5313,18.3125 Q63.9375,17.7031 62.9844,17.7031 Q61.7656,17.7031 61.0469,19.1406 Q60.3281,20.5625 60.3281,22.75 Q60.3281,25.1563 60.9375,26.4531 Q61.5625,27.7344 62.9219,27.7344 Q63.875,27.7344 64.5625,27.0469 Q65.25,26.3438 65.5781,24.8438 L66.4844,25.25 Q66.0781,26.9531 65.1094,27.9063 Q64.1563,28.8594 62.8438,28.8594 Z " fill="#000000"/><text fill="#000000" font-family="sans-serif" font-size="14" lengthAdjust="spacing" textLength="97" x="77.5" y="29.4839">Physiotherapist</text><line style="stroke:#181818;stroke-width:0.5;" x1="49.5" x2="176.5" y1="39" y2="39"/><line style="stroke:#181818;stroke-width:0.5;" x1="49.5" x2="176.5" y1="47" y2="47"/></g><!--reverse link NursingBoard to CommunityTheaterCompany--><g id="link_NursingBoard_CommunityTheaterCompany"><path codeLine="1" d="M113,194.22 C113,216.67 113,238.5 113,260.91 " fill="none" id="NursingBoard-backto-CommunityTheaterCompany" style="stroke:#181818;stroke-width:1.0;"/><polygon fill="none" points="113,182.22,109,188.22,113,194.22,117,188.22,113,182.22" style="stroke:#181818;stroke-width:1.0;"/><text fill="#000000" font-family="sans-serif" font-size="13" lengthAdjust="spacing" textLength="64" x="114" y="227.8979">aggregates</text></g><!--reverse link Physiotherapist to NursingBoard--><g id="link_Physiotherapist_NursingBoard"><path codeLine="2" d="M113,67.22 C113,89.67 113,111.5 113,133.91 " fill="none" id="Physiotherapist-backto-NursingBoard" style="stroke:#181818;stroke-width:1.0;"/><polygon fill="none" points="113,55.22,109,61.22,113,67.22,117,61.22,113,55.22" style="stroke:#181818;stroke-width:1.0;"/><text fill="#000000" font-family="sans-serif" font-size="13" lengthAdjust="spacing" textLength="64" x="114" y="100.8979">aggregates</text></g><!--SRC=[yoijAixCItVAJonAKSZNrLLmpi_DBStBBAaCoKXDB4aj0l8B4lCg5QmK4jFJYrBJWMB5N04PbSMP-IKPgKM91Pd59M2DViWc8Qi60000]--></g></svg>