<?xml version="1.0" encoding="us-ascii" standalone="no"?><svg xmlns="http://www.w3.org/2000/svg" xmlns:xlink="http://www.w3.org/1999/xlink" contentStyleType="text/css" height="316px" preserveAspectRatio="none" style="width:165px;height:316px;background:#FFFFFF;" version="1.1" viewBox="0 0 165 316" width="165px" zoomAndPan="magnify"><defs/><g><!--class AuditTeam--><g id="elem_AuditTeam"><rect fill="#F1F1F1" height="48" id="AuditTeam" rx="2.5" ry="2.5" style="stroke:#181818;stroke-width:0.5;" width="100" x="32.5" y="134"/><ellipse cx="47.5" cy="150" fill="#ADD1B2" rx="11" ry="11" style="stroke:#181818;stroke-width:1.0;"/><path d="M46.8438,155.8594 Q44.8594,155.8594 43.6875,154.3906 Q42.5313,152.9063 42.5313,149.8281 Q42.5313,147.2188 43.75,145.4688 Q44.9844,143.7188 47.1094,143.7188 Q47.6094,143.7188 48.1406,143.8594 Q48.5781,144.0469 48.8438,144.0469 Q49.0625,144.0469 49.1563,144 Q49.2656,143.9531 49.7188,143.3594 L50.4844,147.0938 L49.5938,147.3594 Q49.1406,145.9063 48.5313,145.3125 Q47.9375,144.7031 46.9844,144.7031 Q45.7656,144.7031 45.0469,146.1406 Q44.3281,147.5625 44.3281,149.75 Q44.3281,152.1563 44.9375,153.4531 Q45.5625,154.7344 46.9219,154.7344 Q47.875,154.7344 48.5625,154.0469 Q49.25,153.3438 49.5781,151.8438 L50.4844,152.25 Q50.0781,153.9531 49.1094,154.9063 Q48.1563,155.8594 46.8438,155.8594 Z " fill="#000000"/><text fill="#000000" font-family="sans-serif" font-size="14" lengthAdjust="spacing" textLength="68" x="61.5" y="156.4839">AuditTeam</text><line style="stroke:#181818;stroke-width:0.5;" x1="33.5" x2="131.5" y1="166" y2="166"/><line style="stroke:#181818;stroke-width:0.5;" x1="33.5" x2="131.5" y1="174" y2="174"/></g><!--class CulturalSportsClub--><g id="elem_CulturalSportsClub"><rect fill="#F1F1F1" height="48" id="CulturalSportsClub" rx="2.5" ry="2.5" style="stroke:#181818;stroke-width:0.5;" width="151" x="7" y="261"/><ellipse cx="22" cy="277" fill="#ADD1B2" rx="11" ry="11" style="stroke:#181818;stroke-width:1.0;"/><path d="M21.3438,282.8594 Q19.3594,282.8594 18.1875,281.3906 Q17.0313,279.9063 17.0313,276.8281 Q17.0313,274.2188 18.25,272.4688 Q19.4844,270.7188 21.6094,270.7188 Q22.1094,270.7188 22.6406,270.8594 Q23.0781,271.0469 23.3438,271.0469 Q23.5625,271.0469 23.6563,271 Q23.7656,270.9531 24.2188,270.3594 L24.9844,274.0938 L24.0938,274.3594 Q23.6406,272.9063 23.0313,272.3125 Q22.4375,271.7031 21.4844,271.7031 Q20.2656,271.7031 19.5469,273.1406 Q18.8281,274.5625 18.8281,276.75 Q18.8281,279.1563 19.4375,280.4531 Q20.0625,281.7344 21.4219,281.7344 Q22.375,281.7344 23.0625,281.0469 Q23.75,280.3438 24.0781,278.8438 L24.9844,279.25 Q24.5781,280.9531 23.6094,281.9063 Q22.6563,282.8594 21.3438,282.8594 Z " fill="#000000"/><text fill="#000000" font-family="sans-serif" font-size="14" lengthAdjust="spacing" textLength="119" x="36" y="283.4839">CulturalSportsClub</text><line style="stroke:#181818;stroke-width:0.5;" x1="8" x2="157" y1="293" y2="293"/><line style="stroke:#181818;stroke-width:0.5;" x1="8" x2="157" y1="301" y2="301"/></g><!--class QualityAuditor--><g id="elem_QualityAuditor"><rect fill="#F1F1F1" height="48" id="QualityAuditor" rx="2.5" ry="2.5" style="stroke:#181818;stroke-width:0.5;" width="121" x="22" y="7"/><ellipse cx="37" cy="23" fill="#ADD1B2" rx="11" ry="11" style="stroke:#181818;stroke-width:1.0;"/><path d="M36.3438,28.8594 Q34.3594,28.8594 33.1875,27.3906 Q32.0313,25.9063 32.0313,22.8281 Q32.0313,20.2188 33.25,18.4688 Q34.4844,16.7188 36.6094,16.7188 Q37.1094,16.7188 37.6406,16.8594 Q38.0781,17.0469 38.3438,17.0469 Q38.5625,17.0469 38.6563,17 Q38.7656,16.9531 39.2188,16.3594 L39.9844,20.0938 L39.0938,20.3594 Q38.6406,18.9063 38.0313,18.3125 Q37.4375,17.7031 36.4844,17.7031 Q35.2656,17.7031 34.5469,19.1406 Q33.8281,20.5625 33.8281,22.75 Q33.8281,25.1563 34.4375,26.4531 Q35.0625,27.7344 36.4219,27.7344 Q37.375,27.7344 38.0625,27.0469 Q38.75,26.3438 39.0781,24.8438 L39.9844,25.25 Q39.5781,26.9531 38.6094,27.9063 Q37.6563,28.8594 36.3438,28.8594 Z " fill="#000000"/><text fill="#000000" font-family="sans-serif" font-size="14" lengthAdjust="spacing" textLength="89" x="51" y="29.4839">QualityAuditor</text><line style="stroke:#181818;stroke-width:0.5;" x1="23" x2="142" y1="39" y2="39"/><line style="stroke:#181818;stroke-width:0.5;" x1="23" x2="142" y1="47" y2="47"/></g><!--reverse link AuditTeam to CulturalSportsClub--><g id="link_AuditTeam_CulturalSportsClub"><path codeLine="1" d="M82.5,194.22 C82.5,216.67 82.5,238.5 82.5,260.91 " fill="none" id="AuditTeam-backto-CulturalSportsClub" style="stroke:#181818;stroke-width:1.0;"/><polygon fill="none" points="82.5,182.22,78.5,188.22,82.5,194.22,86.5,188.22,82.5,182.22" style="stroke:#181818;stroke-width:1.0;"/><text fill="#000000" font-family="sans-serif" font-size="13" lengthAdjust="spacing" textLength="64" x="83.5" y="227.8979">aggregates</text></g><!--reverse link QualityAuditor to AuditTeam--><g id="link_QualityAuditor_AuditTeam"><path codeLine="2" d="M82.5,67.22 C82.5,89.67 82.5,111.5 82.5,133.91 " fill="none" id="QualityAuditor-backto-AuditTeam" style="stroke:#181818;stroke-width:1.0;"/><polygon fill="none" points="82.5,55.22,78.5,61.22,82.5,67.22,86.5,61.22,82.5,55.22" style="stroke:#181818;stroke-width:1.0;"/><text fill="#000000" font-family="sans-serif" font-size="13" lengthAdjust="spacing" textLength="64" x="83.5" y="100.8979">aggregates</text></g><!--SRC=[SonDoIm9IKtCLSZNrLLmBiqfAIrAp0ako2ygANREAKrIi598J4ylIarFB4ajvWeiJSp9BAbq16dABm9hSOGRWAmI0000]--></g></svg>