<?xml version="1.0" encoding="us-ascii" standalone="no"?><svg xmlns="http://www.w3.org/2000/svg" xmlns:xlink="http://www.w3.org/1999/xlink" contentStyleType="text/css" height="316px" preserveAspectRatio="none" style="width:211px;height:316px;background:#FFFFFF;" version="1.1" viewBox="0 0 211 316" width="211px" zoomAndPan="magnify"><defs/><g><!--class WildlifeCareTeam--><g id="elem_WildlifeCareTeam"><rect fill="#F1F1F1" height="48" id="WildlifeCareTeam" rx="2.5" ry="2.5" style="stroke:#181818;stroke-width:0.5;" width="144" x="33.5" y="134"/><ellipse cx="48.5" cy="150" fill="#ADD1B2" rx="11" ry="11" style="stroke:#181818;stroke-width:1.0;"/><path d="M47.8438,155.8594 Q45.8594,155.8594 44.6875,154.3906 Q43.5313,152.9063 43.5313,149.8281 Q43.5313,147.2188 44.75,145.4688 Q45.9844,143.7188 48.1094,143.7188 Q48.6094,143.7188 49.1406,143.8594 Q49.5781,144.0469 49.8438,144.0469 Q50.0625,144.0469 50.1563,144 Q50.2656,143.9531 50.7188,143.3594 L51.4844,147.0938 L50.5938,147.3594 Q50.1406,145.9063 49.5313,145.3125 Q48.9375,144.7031 47.9844,144.7031 Q46.7656,144.7031 46.0469,146.1406 Q45.3281,147.5625 45.3281,149.75 Q45.3281,152.1563 45.9375,153.4531 Q46.5625,154.7344 47.9219,154.7344 Q48.875,154.7344 49.5625,154.0469 Q50.25,153.3438 50.5781,151.8438 L51.4844,152.25 Q51.0781,153.9531 50.1094,154.9063 Q49.1563,155.8594 47.8438,155.8594 Z " fill="#000000"/><text fill="#000000" font-family="sans-serif" font-size="14" lengthAdjust="spacing" textLength="112" x="62.5" y="156.4839">WildlifeCareTeam</text><line style="stroke:#181818;stroke-width:0.5;" x1="34.5" x2="176.5" y1="166" y2="166"/><line style="stroke:#181818;stroke-width:0.5;" x1="34.5" x2="176.5" y1="174" y2="174"/></g><!--class AgriculturalMusicAcademy--><g id="elem_AgriculturalMusicAcademy"><rect fill="#F1F1F1" height="48" id="AgriculturalMusicAcademy" rx="2.5" ry="2.5" style="stroke:#181818;stroke-width:0.5;" width="197" x="7" y="261"/><ellipse cx="22" cy="277" fill="#ADD1B2" rx="11" ry="11" style="stroke:#181818;stroke-width:1.0;"/><path d="M21.3438,282.8594 Q19.3594,282.8594 18.1875,281.3906 Q17.0313,279.9063 17.0313,276.8281 Q17.0313,274.2188 18.25,272.4688 Q19.4844,270.7188 21.6094,270.7188 Q22.1094,270.7188 22.6406,270.8594 Q23.0781,271.0469 23.3438,271.0469 Q23.5625,271.0469 23.6563,271 Q23.7656,270.9531 24.2188,270.3594 L24.9844,274.0938 L24.0938,274.3594 Q23.6406,272.9063 23.0313,272.3125 Q22.4375,271.7031 21.4844,271.7031 Q20.2656,271.7031 19.5469,273.1406 Q18.8281,274.5625 18.8281,276.75 Q18.8281,279.1563 19.4375,280.4531 Q20.0625,281.7344 21.4219,281.7344 Q22.375,281.7344 23.0625,281.0469 Q23.75,280.3438 24.0781,278.8438 L24.9844,279.25 Q24.5781,280.9531 23.6094,281.9063 Q22.6563,282.8594 21.3438,282.8594 Z " fill="#000000"/><text fill="#000000" font-family="sans-serif" font-size="14" lengthAdjust="spacing" textLength="165" x="36" y="283.4839">AgriculturalMusicAcademy</text><line style="stroke:#181818;stroke-width:0.5;" x1="8" x2="203" y1="293" y2="293"/><line style="stroke:#181818;stroke-width:0.5;" x1="8" x2="203" y1="301" y2="301"/></g><!--class Drafter--><g id="elem_Drafter"><rect fill="#F1F1F1" height="48" id="Drafter" rx="2.5" ry="2.5" style="stroke:#181818;stroke-width:0.5;" width="76" x="67.5" y="7"/><ellipse cx="82.5" cy="23" fill="#ADD1B2" rx="11" ry="11" style="stroke:#181818;stroke-width:1.0;"/><path d="M81.8438,28.8594 Q79.8594,28.8594 78.6875,27.3906 Q77.5313,25.9063 77.5313,22.8281 Q77.5313,20.2188 78.75,18.4688 Q79.9844,16.7188 82.1094,16.7188 Q82.6094,16.7188 83.1406,16.8594 Q83.5781,17.0469 83.8438,17.0469 Q84.0625,17.0469 84.1563,17 Q84.2656,16.9531 84.7188,16.3594 L85.4844,20.0938 L84.5938,20.3594 Q84.1406,18.9063 83.5313,18.3125 Q82.9375,17.7031 81.9844,17.7031 Q80.7656,17.7031 80.0469,19.1406 Q79.3281,20.5625 79.3281,22.75 Q79.3281,25.1563 79.9375,26.4531 Q80.5625,27.7344 81.9219,27.7344 Q82.875,27.7344 83.5625,27.0469 Q84.25,26.3438 84.5781,24.8438 L85.4844,25.25 Q85.0781,26.9531 84.1094,27.9063 Q83.1563,28.8594 81.8438,28.8594 Z " fill="#000000"/><text fill="#000000" font-family="sans-serif" font-size="14" lengthAdjust="spacing" textLength="44" x="96.5" y="29.4839">Drafter</text><line style="stroke:#181818;stroke-width:0.5;" x1="68.5" x2="142.5" y1="39" y2="39"/><line style="stroke:#181818;stroke-width:0.5;" x1="68.5" x2="142.5" y1="47" y2="47"/></g><!--reverse link WildlifeCareTeam to AgriculturalMusicAcademy--><g id="link_WildlifeCareTeam_AgriculturalMusicAcademy"><path codeLine="1" d="M105.5,194.22 C105.5,216.67 105.5,238.5 105.5,260.91 " fill="none" id="WildlifeCareTeam-backto-AgriculturalMusicAcademy" style="stroke:#181818;stroke-width:1.0;"/><polygon fill="none" points="105.5,182.22,101.5,188.22,105.5,194.22,109.5,188.22,105.5,182.22" style="stroke:#181818;stroke-width:1.0;"/><text fill="#000000" font-family="sans-serif" font-size="13" lengthAdjust="spacing" textLength="64" x="106.5" y="227.8979">aggregates</text></g><!--reverse link Drafter to WildlifeCareTeam--><g id="link_Drafter_WildlifeCareTeam"><path codeLine="2" d="M105.5,67.22 C105.5,89.67 105.5,111.5 105.5,133.91 " fill="none" id="Drafter-backto-WildlifeCareTeam" style="stroke:#181818;stroke-width:1.0;"/><polygon fill="none" points="105.5,55.22,101.5,61.22,105.5,67.22,109.5,61.22,105.5,55.22" style="stroke:#181818;stroke-width:1.0;"/><text fill="#000000" font-family="sans-serif" font-size="13" lengthAdjust="spacing" textLength="64" x="106.5" y="100.8979">aggregates</text></g><!--SRC=[2y_CISd9J4jrJYnA3KbDp5N8rzLLS4mloamkpIafBKhCyIqjpansJ4vCISsjLB1II4nFBqfDJon9BUPoAKfCAqaj0ki8HpS6MIK0]--></g></svg>