<?xml version="1.0" encoding="us-ascii" standalone="no"?><svg xmlns="http://www.w3.org/2000/svg" xmlns:xlink="http://www.w3.org/1999/xlink" contentStyleType="text/css" height="316px" preserveAspectRatio="none" style="width:202px;height:316px;background:#FFFFFF;" version="1.1" viewBox="0 0 202 316" width="202px" zoomAndPan="magnify"><defs/><g><!--class ResearchTeam--><g id="elem_ResearchTeam"><rect fill="#F1F1F1" height="48" id="ResearchTeam" rx="2.5" ry="2.5" style="stroke:#181818;stroke-width:0.5;" width="129" x="36.5" y="134"/><ellipse cx="51.5" cy="150" fill="#ADD1B2" rx="11" ry="11" style="stroke:#181818;stroke-width:1.0;"/><path d="M50.8438,155.8594 Q48.8594,155.8594 47.6875,154.3906 Q46.5313,152.9063 46.5313,149.8281 Q46.5313,147.2188 47.75,145.4688 Q48.9844,143.7188 51.1094,143.7188 Q51.6094,143.7188 52.1406,143.8594 Q52.5781,144.0469 52.8438,144.0469 Q53.0625,144.0469 53.1563,144 Q53.2656,143.9531 53.7188,143.3594 L54.4844,147.0938 L53.5938,147.3594 Q53.1406,145.9063 52.5313,145.3125 Q51.9375,144.7031 50.9844,144.7031 Q49.7656,144.7031 49.0469,146.1406 Q48.3281,147.5625 48.3281,149.75 Q48.3281,152.1563 48.9375,153.4531 Q49.5625,154.7344 50.9219,154.7344 Q51.875,154.7344 52.5625,154.0469 Q53.25,153.3438 53.5781,151.8438 L54.4844,152.25 Q54.0781,153.9531 53.1094,154.9063 Q52.1563,155.8594 50.8438,155.8594 Z " fill="#000000"/><text fill="#000000" font-family="sans-serif" font-size="14" lengthAdjust="spacing" textLength="97" x="65.5" y="156.4839">ResearchTeam</text><line style="stroke:#181818;stroke-width:0.5;" x1="37.5" x2="164.5" y1="166" y2="166"/><line style="stroke:#181818;stroke-width:0.5;" x1="37.5" x2="164.5" y1="174" y2="174"/></g><!--class MountainLogisticsCenter--><g id="elem_MountainLogisticsCenter"><rect fill="#F1F1F1" height="48" id="MountainLogisticsCenter" rx="2.5" ry="2.5" style="stroke:#181818;stroke-width:0.5;" width="188" x="7" y="261"/><ellipse cx="22" cy="277" fill="#ADD1B2" rx="11" ry="11" style="stroke:#181818;stroke-width:1.0;"/><path d="M21.3438,282.8594 Q19.3594,282.8594 18.1875,281.3906 Q17.0313,279.9063 17.0313,276.8281 Q17.0313,274.2188 18.25,272.4688 Q19.4844,270.7188 21.6094,270.7188 Q22.1094,270.7188 22.6406,270.8594 Q23.0781,271.0469 23.3438,271.0469 Q23.5625,271.0469 23.6563,271 Q23.7656,270.9531 24.2188,270.3594 L24.9844,274.0938 L24.0938,274.3594 Q23.6406,272.9063 23.0313,272.3125 Q22.4375,271.7031 21.4844,271.7031 Q20.2656,271.7031 19.5469,273.1406 Q18.8281,274.5625 18.8281,276.75 Q18.8281,279.1563 19.4375,280.4531 Q20.0625,281.7344 21.4219,281.7344 Q22.375,281.7344 23.0625,281.0469 Q23.75,280.3438 24.0781,278.8438 L24.9844,279.25 Q24.5781,280.9531 23.6094,281.9063 Q22.6563,282.8594 21.3438,282.8594 Z " fill="#000000"/><text fill="#000000" font-family="sans-serif" font-size="14" lengthAdjust="spacing" textLength="156" x="36" y="283.4839">MountainLogisticsCenter</text><line style="stroke:#181818;stroke-width:0.5;" x1="8" x2="194" y1="293" y2="293"/><line style="stroke:#181818;stroke-width:0.5;" x1="8" x2="194" y1="301" y2="301"/></g><!--class ResearchFellow--><g id="elem_ResearchFellow"><rect fill="#F1F1F1" height="48" id="ResearchFellow" rx="2.5" ry="2.5" style="stroke:#181818;stroke-width:0.5;" width="133" x="34.5" y="7"/><ellipse cx="49.5" cy="23" fill="#ADD1B2" rx="11" ry="11" style="stroke:#181818;stroke-width:1.0;"/><path d="M48.8438,28.8594 Q46.8594,28.8594 45.6875,27.3906 Q44.5313,25.9063 44.5313,22.8281 Q44.5313,20.2188 45.75,18.4688 Q46.9844,16.7188 49.1094,16.7188 Q49.6094,16.7188 50.1406,16.8594 Q50.5781,17.0469 50.8438,17.0469 Q51.0625,17.0469 51.1563,17 Q51.2656,16.9531 51.7188,16.3594 L52.4844,20.0938 L51.5938,20.3594 Q51.1406,18.9063 50.5313,18.3125 Q49.9375,17.7031 48.9844,17.7031 Q47.7656,17.7031 47.0469,19.1406 Q46.3281,20.5625 46.3281,22.75 Q46.3281,25.1563 46.9375,26.4531 Q47.5625,27.7344 48.9219,27.7344 Q49.875,27.7344 50.5625,27.0469 Q51.25,26.3438 51.5781,24.8438 L52.4844,25.25 Q52.0781,26.9531 51.1094,27.9063 Q50.1563,28.8594 48.8438,28.8594 Z " fill="#000000"/><text fill="#000000" font-family="sans-serif" font-size="14" lengthAdjust="spacing" textLength="101" x="63.5" y="29.4839">ResearchFellow</text><line style="stroke:#181818;stroke-width:0.5;" x1="35.5" x2="166.5" y1="39" y2="39"/><line style="stroke:#181818;stroke-width:0.5;" x1="35.5" x2="166.5" y1="47" y2="47"/></g><!--reverse link ResearchTeam to MountainLogisticsCenter--><g id="link_ResearchTeam_MountainLogisticsCenter"><path codeLine="1" d="M101,194.22 C101,216.67 101,238.5 101,260.91 " fill="none" id="ResearchTeam-backto-MountainLogisticsCenter" style="stroke:#181818;stroke-width:1.0;"/><polygon fill="none" points="101,182.22,97,188.22,101,194.22,105,188.22,101,182.22" style="stroke:#181818;stroke-width:1.0;"/><text fill="#000000" font-family="sans-serif" font-size="13" lengthAdjust="spacing" textLength="64" x="102" y="227.8979">aggregates</text></g><!--reverse link ResearchFellow to ResearchTeam--><g id="link_ResearchFellow_ResearchTeam"><path codeLine="2" d="M101,67.22 C101,89.67 101,111.5 101,133.91 " fill="none" id="ResearchFellow-backto-ResearchTeam" style="stroke:#181818;stroke-width:1.0;"/><polygon fill="none" points="101,55.22,97,61.22,101,67.22,105,61.22,101,55.22" style="stroke:#181818;stroke-width:1.0;"/><text fill="#000000" font-family="sans-serif" font-size="13" lengthAdjust="spacing" textLength="64" x="102" y="100.8979">aggregates</text></g><!--SRC=[2qejJaqiIiu8IKtCLSZNrLNmpI_DAqdCpFF9JyyiBibCBdPEpIj9BLAmKaXCJozAJKyiIItc2eBgSalDoSal1-iBGZO8MJ40]--></g></svg>