<?xml version="1.0" encoding="us-ascii" standalone="no"?><svg xmlns="http://www.w3.org/2000/svg" xmlns:xlink="http://www.w3.org/1999/xlink" contentStyleType="text/css" height="316px" preserveAspectRatio="none" style="width:213px;height:316px;background:#FFFFFF;" version="1.1" viewBox="0 0 213 316" width="213px" zoomAndPan="magnify"><defs/><g><!--class QualityTeam--><g id="elem_QualityTeam"><rect fill="#F1F1F1" height="48" id="QualityTeam" rx="2.5" ry="2.5" style="stroke:#181818;stroke-width:0.5;" width="112" x="50.5" y="134"/><ellipse cx="65.5" cy="150" fill="#ADD1B2" rx="11" ry="11" style="stroke:#181818;stroke-width:1.0;"/><path d="M64.8438,155.8594 Q62.8594,155.8594 61.6875,154.3906 Q60.5313,152.9063 60.5313,149.8281 Q60.5313,147.2188 61.75,145.4688 Q62.9844,143.7188 65.1094,143.7188 Q65.6094,143.7188 66.1406,143.8594 Q66.5781,144.0469 66.8438,144.0469 Q67.0625,144.0469 67.1563,144 Q67.2656,143.9531 67.7188,143.3594 L68.4844,147.0938 L67.5938,147.3594 Q67.1406,145.9063 66.5313,145.3125 Q65.9375,144.7031 64.9844,144.7031 Q63.7656,144.7031 63.0469,146.1406 Q62.3281,147.5625 62.3281,149.75 Q62.3281,152.1563 62.9375,153.4531 Q63.5625,154.7344 64.9219,154.7344 Q65.875,154.7344 66.5625,154.0469 Q67.25,153.3438 67.5781,151.8438 L68.4844,152.25 Q68.0781,153.9531 67.1094,154.9063 Q66.1563,155.8594 64.8438,155.8594 Z " fill="#000000"/><text fill="#000000" font-family="sans-serif" font-size="14" lengthAdjust="spacing" textLength="80" x="79.5" y="156.4839">QualityTeam</text><line style="stroke:#181818;stroke-width:0.5;" x1="51.5" x2="161.5" y1="166" y2="166"/><line style="stroke:#181818;stroke-width:0.5;" x1="51.5" x2="161.5" y1="174" y2="174"/></g><!--class HealthcareFireDepartment--><g id="elem_HealthcareFireDepartment"><rect fill="#F1F1F1" height="48" id="HealthcareFireDepartment" rx="2.5" ry="2.5" style="stroke:#181818;stroke-width:0.5;" width="199" x="7" y="261"/><ellipse cx="22" cy="277" fill="#ADD1B2" rx="11" ry="11" style="stroke:#181818;stroke-width:1.0;"/><path d="M21.3438,282.8594 Q19.3594,282.8594 18.1875,281.3906 Q17.0313,279.9063 17.0313,276.8281 Q17.0313,274.2188 18.25,272.4688 Q19.4844,270.7188 21.6094,270.7188 Q22.1094,270.7188 22.6406,270.8594 Q23.0781,271.0469 23.3438,271.0469 Q23.5625,271.0469 23.6563,271 Q23.7656,270.9531 24.2188,270.3594 L24.9844,274.0938 L24.0938,274.3594 Q23.6406,272.9063 23.0313,272.3125 Q22.4375,271.7031 21.4844,271.7031 Q20.2656,271.7031 19.5469,273.1406 Q18.8281,274.5625 18.8281,276.75 Q18.8281,279.1563 19.4375,280.4531 Q20.0625,281.7344 21.4219,281.7344 Q22.375,281.7344 23.0625,281.0469 Q23.75,280.3438 24.0781,278.8438 L24.9844,279.25 Q24.5781,280.9531 23.6094,281.9063 Q22.6563,282.8594 21.3438,282.8594 Z " fill="#000000"/><text fill="#000000" font-family="sans-serif" font-size="14" lengthAdjust="spacing" textLength="167" x="36" y="283.4839">HealthcareFireDepartment</text><line style="stroke:#181818;stroke-width:0.5;" x1="8" x2="205" y1="293" y2="293"/><line style="stroke:#181818;stroke-width:0.5;" x1="8" x2="205" y1="301" y2="301"/></g><!--class Drafter--><g id="elem_Drafter"><rect fill="#F1F1F1" height="48" id="Drafter" rx="2.5" ry="2.5" style="stroke:#181818;stroke-width:0.5;" width="76" x="68.5" y="7"/><ellipse cx="83.5" cy="23" fill="#ADD1B2" rx="11" ry="11" style="stroke:#181818;stroke-width:1.0;"/><path d="M82.8438,28.8594 Q80.8594,28.8594 79.6875,27.3906 Q78.5313,25.9063 78.5313,22.8281 Q78.5313,20.2188 79.75,18.4688 Q80.9844,16.7188 83.1094,16.7188 Q83.6094,16.7188 84.1406,16.8594 Q84.5781,17.0469 84.8438,17.0469 Q85.0625,17.0469 85.1563,17 Q85.2656,16.9531 85.7188,16.3594 L86.4844,20.0938 L85.5938,20.3594 Q85.1406,18.9063 84.5313,18.3125 Q83.9375,17.7031 82.9844,17.7031 Q81.7656,17.7031 81.0469,19.1406 Q80.3281,20.5625 80.3281,22.75 Q80.3281,25.1563 80.9375,26.4531 Q81.5625,27.7344 82.9219,27.7344 Q83.875,27.7344 84.5625,27.0469 Q85.25,26.3438 85.5781,24.8438 L86.4844,25.25 Q86.0781,26.9531 85.1094,27.9063 Q84.1563,28.8594 82.8438,28.8594 Z " fill="#000000"/><text fill="#000000" font-family="sans-serif" font-size="14" lengthAdjust="spacing" textLength="44" x="97.5" y="29.4839">Drafter</text><line style="stroke:#181818;stroke-width:0.5;" x1="69.5" x2="143.5" y1="39" y2="39"/><line style="stroke:#181818;stroke-width:0.5;" x1="69.5" x2="143.5" y1="47" y2="47"/></g><!--reverse link QualityTeam to HealthcareFireDepartment--><g id="link_QualityTeam_HealthcareFireDepartment"><path codeLine="1" d="M106.5,194.22 C106.5,216.67 106.5,238.5 106.5,260.91 " fill="none" id="QualityTeam-backto-HealthcareFireDepartment" style="stroke:#181818;stroke-width:1.0;"/><polygon fill="none" points="106.5,182.22,102.5,188.22,106.5,194.22,110.5,188.22,106.5,182.22" style="stroke:#181818;stroke-width:1.0;"/><text fill="#000000" font-family="sans-serif" font-size="13" lengthAdjust="spacing" textLength="64" x="107.5" y="227.8979">aggregates</text></g><!--reverse link Drafter to QualityTeam--><g id="link_Drafter_QualityTeam"><path codeLine="2" d="M106.5,67.22 C106.5,89.67 106.5,111.5 106.5,133.91 " fill="none" id="Drafter-backto-QualityTeam" style="stroke:#181818;stroke-width:1.0;"/><polygon fill="none" points="106.5,55.22,102.5,61.22,106.5,67.22,110.5,61.22,106.5,55.22" style="stroke:#181818;stroke-width:1.0;"/><text fill="#000000" font-family="sans-serif" font-size="13" lengthAdjust="spacing" textLength="64" x="107.5" y="100.8979">aggregates</text></g><!--SRC=[2onDpCaigGn9JSnLoDVLLV18JSmfoKXEB4froonATKajI2mgoKtDAr6mKaXCJozAJKyiIItcSYbAJ2j9BGBh24Go0LaH0000]--></g></svg>