<?xml version="1.0" encoding="us-ascii" standalone="no"?><svg xmlns="http://www.w3.org/2000/svg" xmlns:xlink="http://www.w3.org/1999/xlink" contentStyleType="text/css" height="316px" preserveAspectRatio="none" style="width:186px;height:316px;background:#FFFFFF;" version="1.1" viewBox="0 0 186 316" width="186px" zoomAndPan="magnify"><defs/><g><!--class AuditTeam--><g id="elem_AuditTeam"><rect fill="#F1F1F1" height="48" id="AuditTeam" rx="2.5" ry="2.5" style="stroke:#181818;stroke-width:0.5;" width="100" x="43" y="134"/><ellipse cx="58" cy="150" fill="#ADD1B2" rx="11" ry="11" style="stroke:#181818;stroke-width:1.0;"/><path d="M57.3438,155.8594 Q55.3594,155.8594 54.1875,154.3906 Q53.0313,152.9063 53.0313,149.8281 Q53.0313,147.2188 54.25,145.4688 Q55.4844,143.7188 57.6094,143.7188 Q58.1094,143.7188 58.6406,143.8594 Q59.0781,144.0469 59.3438,144.0469 Q59.5625,144.0469 59.6563,144 Q59.7656,143.9531 60.2188,143.3594 L60.9844,147.0938 L60.0938,147.3594 Q59.6406,145.9063 59.0313,145.3125 Q58.4375,144.7031 57.4844,144.7031 Q56.2656,144.7031 55.5469,146.1406 Q54.8281,147.5625 54.8281,149.75 Q54.8281,152.1563 55.4375,153.4531 Q56.0625,154.7344 57.4219,154.7344 Q58.375,154.7344 59.0625,154.0469 Q59.75,153.3438 60.0781,151.8438 L60.9844,152.25 Q60.5781,153.9531 59.6094,154.9063 Q58.6563,155.8594 57.3438,155.8594 Z " fill="#000000"/><text fill="#000000" font-family="sans-serif" font-size="14" lengthAdjust="spacing" textLength="68" x="72" y="156.4839">AuditTeam</text><line style="stroke:#181818;stroke-width:0.5;" x1="44" x2="142" y1="166" y2="166"/><line style="stroke:#181818;stroke-width:0.5;" x1="44" x2="142" y1="174" y2="174"/></g><!--class DesertLogisticsCenter--><g id="elem_DesertLogisticsCenter"><rect fill="#F1F1F1" height="48" id="DesertLogisticsCenter" rx="2.5" ry="2.5" style="stroke:#181818;stroke-width:0.5;" width="172" x="7" y="261"/><ellipse cx="22" cy="277" fill="#ADD1B2" rx="11" ry="11" style="stroke:#181818;stroke-width:1.0;"/><path d="M21.3438,282.8594 Q19.3594,282.8594 18.1875,281.3906 Q17.0313,279.9063 17.0313,276.8281 Q17.0313,274.2188 18.25,272.4688 Q19.4844,270.7188 21.6094,270.7188 Q22.1094,270.7188 22.6406,270.8594 Q23.0781,271.0469 23.3438,271.0469 Q23.5625,271.0469 23.6563,271 Q23.7656,270.9531 24.2188,270.3594 L24.9844,274.0938 L24.0938,274.3594 Q23.6406,272.9063 23.0313,272.3125 Q22.4375,271.7031 21.4844,271.7031 Q20.2656,271.7031 19.5469,273.1406 Q18.8281,274.5625 18.8281,276.75 Q18.8281,279.1563 19.4375,280.4531 Q20.0625,281.7344 21.4219,281.7344 Q22.375,281.7344 23.0625,281.0469 Q23.75,280.3438 24.0781,278.8438 L24.9844,279.25 Q24.5781,280.9531 23.6094,281.9063 Q22.6563,282.8594 21.3438,282.8594 Z " fill="#000000"/><text fill="#000000" font-family="sans-serif" font-size="14" lengthAdjust="spacing" textLength="140" x="36" y="283.4839">DesertLogisticsCenter</text><line style="stroke:#181818;stroke-width:0.5;" x1="8" x2="178" y1="293" y2="293"/><line style="stroke:#181818;stroke-width:0.5;" x1="8" x2="178" y1="301" y2="301"/></g><!--class QualityAuditor--><g id="elem_QualityAuditor"><rect fill="#F1F1F1" height="48" id="QualityAuditor" rx="2.5" ry="2.5" style="stroke:#181818;stroke-width:0.5;" width="121" x="32.5" y="7"/><ellipse cx="47.5" cy="23" fill="#ADD1B2" rx="11" ry="11" style="stroke:#181818;stroke-width:1.0;"/><path d="M46.8438,28.8594 Q44.8594,28.8594 43.6875,27.3906 Q42.5313,25.9063 42.5313,22.8281 Q42.5313,20.2188 43.75,18.4688 Q44.9844,16.7188 47.1094,16.7188 Q47.6094,16.7188 48.1406,16.8594 Q48.5781,17.0469 48.8438,17.0469 Q49.0625,17.0469 49.1563,17 Q49.2656,16.9531 49.7188,16.3594 L50.4844,20.0938 L49.5938,20.3594 Q49.1406,18.9063 48.5313,18.3125 Q47.9375,17.7031 46.9844,17.7031 Q45.7656,17.7031 45.0469,19.1406 Q44.3281,20.5625 44.3281,22.75 Q44.3281,25.1563 44.9375,26.4531 Q45.5625,27.7344 46.9219,27.7344 Q47.875,27.7344 48.5625,27.0469 Q49.25,26.3438 49.5781,24.8438 L50.4844,25.25 Q50.0781,26.9531 49.1094,27.9063 Q48.1563,28.8594 46.8438,28.8594 Z " fill="#000000"/><text fill="#000000" font-family="sans-serif" font-size="14" lengthAdjust="spacing" textLength="89" x="61.5" y="29.4839">QualityAuditor</text><line style="stroke:#181818;stroke-width:0.5;" x1="33.5" x2="152.5" y1="39" y2="39"/><line style="stroke:#181818;stroke-width:0.5;" x1="33.5" x2="152.5" y1="47" y2="47"/></g><!--reverse link AuditTeam to DesertLogisticsCenter--><g id="link_AuditTeam_DesertLogisticsCenter"><path codeLine="1" d="M93,194.22 C93,216.67 93,238.5 93,260.91 " fill="none" id="AuditTeam-backto-DesertLogisticsCenter" style="stroke:#181818;stroke-width:1.0;"/><polygon fill="none" points="93,182.22,89,188.22,93,194.22,97,188.22,93,182.22" style="stroke:#181818;stroke-width:1.0;"/><text fill="#000000" font-family="sans-serif" font-size="13" lengthAdjust="spacing" textLength="64" x="94" y="227.8979">aggregates</text></g><!--reverse link QualityAuditor to AuditTeam--><g id="link_QualityAuditor_AuditTeam"><path codeLine="2" d="M93,67.22 C93,89.67 93,111.5 93,133.91 " fill="none" id="QualityAuditor-backto-AuditTeam" style="stroke:#181818;stroke-width:1.0;"/><polygon fill="none" points="93,55.22,89,61.22,93,67.22,97,61.22,93,55.22" style="stroke:#181818;stroke-width:1.0;"/><text fill="#000000" font-family="sans-serif" font-size="13" lengthAdjust="spacing" textLength="64" x="94" y="100.8979">aggregates</text></g><!--SRC=[SonDoIm9IKtCLSZNrLLmIIrEBIhnoK_FB2x9J2vsJiqhIIrIi598J4ylIarFB4ajvWeiJSp9BAbq1EdBBmBhSeIRWQmI0000]--></g></svg>