<?xml version="1.0" encoding="us-ascii" standalone="no"?><svg xmlns="http://www.w3.org/2000/svg" xmlns:xlink="http://www.w3.org/1999/xlink" contentStyleType="text/css" height="316px" preserveAspectRatio="none" style="width:214px;height:316px;background:#FFFFFF;" version="1.1" viewBox="0 0 214 316" width="214px" zoomAndPan="magnify"><defs/><g><!--class QualityTeam--><g id="elem_QualityTeam"><rect fill="#F1F1F1" height="48" id="QualityTeam" rx="2.5" ry="2.5" style="stroke:#181818;stroke-width:0.5;" width="112" x="51" y="134"/><ellipse cx="66" cy="150" fill="#ADD1B2" rx="11" ry="11" style="stroke:#181818;stroke-width:1.0;"/><path d="M65.3438,155.8594 Q63.3594,155.8594 62.1875,154.3906 Q61.0313,152.9063 61.0313,149.8281 Q61.0313,147.2188 62.25,145.4688 Q63.4844,143.7188 65.6094,143.7188 Q66.1094,143.7188 66.6406,143.8594 Q67.0781,144.0469 67.3438,144.0469 Q67.5625,144.0469 67.6563,144 Q67.7656,143.9531 68.2188,143.3594 L68.9844,147.0938 L68.0938,147.3594 Q67.6406,145.9063 67.0313,145.3125 Q66.4375,144.7031 65.4844,144.7031 Q64.2656,144.7031 63.5469,146.1406 Q62.8281,147.5625 62.8281,149.75 Q62.8281,152.1563 63.4375,153.4531 Q64.0625,154.7344 65.4219,154.7344 Q66.375,154.7344 67.0625,154.0469 Q67.75,153.3438 68.0781,151.8438 L68.9844,152.25 Q68.5781,153.9531 67.6094,154.9063 Q66.6563,155.8594 65.3438,155.8594 Z " fill="#000000"/><text fill="#000000" font-family="sans-serif" font-size="14" lengthAdjust="spacing" textLength="80" x="80" y="156.4839">QualityTeam</text><line style="stroke:#181818;stroke-width:0.5;" x1="52" x2="162" y1="166" y2="166"/><line style="stroke:#181818;stroke-width:0.5;" x1="52" x2="162" y1="174" y2="174"/></g><!--class MountainTheaterCompany--><g id="elem_MountainTheaterCompany"><rect fill="#F1F1F1" height="48" id="MountainTheaterCompany" rx="2.5" ry="2.5" style="stroke:#181818;stroke-width:0.5;" width="200" x="7" y="261"/><ellipse cx="22" cy="277" fill="#ADD1B2" rx="11" ry="11" style="stroke:#181818;stroke-width:1.0;"/><path d="M21.3438,282.8594 Q19.3594,282.8594 18.1875,281.3906 Q17.0313,279.9063 17.0313,276.8281 Q17.0313,274.2188 18.25,272.4688 Q19.4844,270.7188 21.6094,270.7188 Q22.1094,270.7188 22.6406,270.8594 Q23.0781,271.0469 23.3438,271.0469 Q23.5625,271.0469 23.6563,271 Q23.7656,270.9531 24.2188,270.3594 L24.9844,274.0938 L24.0938,274.3594 Q23.6406,272.9063 23.0313,272.3125 Q22.4375,271.7031 21.4844,271.7031 Q20.2656,271.7031 19.5469,273.1406 Q18.8281,274.5625 18.8281,276.75 Q18.8281,279.1563 19.4375,280.4531 Q20.0625,281.7344 21.4219,281.7344 Q22.375,281.7344 23.0625,281.0469 Q23.75,280.3438 24.0781,278.8438 L24.9844,279.25 Q24.5781,280.9531 23.6094,281.9063 Q22.6563,282.8594 21.3438,282.8594 Z " fill="#000000"/><text fill="#000000" font-family="sans-serif" font-size="14" lengthAdjust="spacing" textLength="168" x="36" y="283.4839">MountainTheaterCompany</text><line style="stroke:#181818;stroke-width:0.5;" x1="8" x2="206" y1="293" y2="293"/><line style="stroke:#181818;stroke-width:0.5;" x1="8" x2="206" y1="301" y2="301"/></g><!--class Drafter--><g id="elem_Drafter"><rect fill="#F1F1F1" height="48" id="Drafter" rx="2.5" ry="2.5" style="stroke:#181818;stroke-width:0.5;" width="76" x="69" y="7"/><ellipse cx="84" cy="23" fill="#ADD1B2" rx="11" ry="11" style="stroke:#181818;stroke-width:1.0;"/><path d="M83.3438,28.8594 Q81.3594,28.8594 80.1875,27.3906 Q79.0313,25.9063 79.0313,22.8281 Q79.0313,20.2188 80.25,18.4688 Q81.4844,16.7188 83.6094,16.7188 Q84.1094,16.7188 84.6406,16.8594 Q85.0781,17.0469 85.3438,17.0469 Q85.5625,17.0469 85.6563,17 Q85.7656,16.9531 86.2188,16.3594 L86.9844,20.0938 L86.0938,20.3594 Q85.6406,18.9063 85.0313,18.3125 Q84.4375,17.7031 83.4844,17.7031 Q82.2656,17.7031 81.5469,19.1406 Q80.8281,20.5625 80.8281,22.75 Q80.8281,25.1563 81.4375,26.4531 Q82.0625,27.7344 83.4219,27.7344 Q84.375,27.7344 85.0625,27.0469 Q85.75,26.3438 86.0781,24.8438 L86.9844,25.25 Q86.5781,26.9531 85.6094,27.9063 Q84.6563,28.8594 83.3438,28.8594 Z " fill="#000000"/><text fill="#000000" font-family="sans-serif" font-size="14" lengthAdjust="spacing" textLength="44" x="98" y="29.4839">Drafter</text><line style="stroke:#181818;stroke-width:0.5;" x1="70" x2="144" y1="39" y2="39"/><line style="stroke:#181818;stroke-width:0.5;" x1="70" x2="144" y1="47" y2="47"/></g><!--reverse link QualityTeam to MountainTheaterCompany--><g id="link_QualityTeam_MountainTheaterCompany"><path codeLine="1" d="M107,194.22 C107,216.67 107,238.5 107,260.91 " fill="none" id="QualityTeam-backto-MountainTheaterCompany" style="stroke:#181818;stroke-width:1.0;"/><polygon fill="none" points="107,182.22,103,188.22,107,194.22,111,188.22,107,182.22" style="stroke:#181818;stroke-width:1.0;"/><text fill="#000000" font-family="sans-serif" font-size="13" lengthAdjust="spacing" textLength="64" x="108" y="227.8979">aggregates</text></g><!--reverse link Drafter to QualityTeam--><g id="link_Drafter_QualityTeam"><path codeLine="2" d="M107,67.22 C107,89.67 107,111.5 107,133.91 " fill="none" id="Drafter-backto-QualityTeam" style="stroke:#181818;stroke-width:1.0;"/><polygon fill="none" points="107,55.22,103,61.22,107,67.22,111,61.22,107,55.22" style="stroke:#181818;stroke-width:1.0;"/><text fill="#000000" font-family="sans-serif" font-size="13" lengthAdjust="spacing" textLength="64" x="108" y="100.8979">aggregates</text></g><!--SRC=[2onDpCaigGn9JSnLoDVLLV3DByqhISpC2yb8JIn9BNBEpor8pAjKi598J4ylIaq7YXLpkHGbfW7bmEe3aVGZAm80]--></g></svg>