<?xml version="1.0" encoding="us-ascii" standalone="no"?><svg xmlns="http://www.w3.org/2000/svg" xmlns:xlink="http://www.w3.org/1999/xlink" contentStyleType="text/css" height="316px" preserveAspectRatio="none" style="width:181px;height:316px;background:#FFFFFF;" version="1.1" viewBox="0 0 181 316" width="181px" zoomAndPan="magnify"><defs/><g><!--class DispatchTeam--><g id="elem_DispatchTeam"><rect fill="#F1F1F1" height="48" id="DispatchTeam" rx="2.5" ry="2.5" style="stroke:#181818;stroke-width:0.5;" width="123" x="29" y="134"/><ellipse cx="44" cy="150" fill="#ADD1B2" rx="11" ry="11" style="stroke:#181818;stroke-width:1.0;"/><path d="M43.3438,155.8594 Q41.3594,155.8594 40.1875,154.3906 Q39.0313,152.9063 39.0313,149.8281 Q39.0313,147.2188 40.25,145.4688 Q41.4844,143.7188 43.6094,143.7188 Q44.1094,143.7188 44.6406,143.8594 Q45.0781,144.0469 45.3438,144.0469 Q45.5625,144.0469 45.6563,144 Q45.7656,143.9531 46.2188,143.3594 L46.9844,147.0938 L46.0938,147.3594 Q45.6406,145.9063 45.0313,145.3125 Q44.4375,144.7031 43.4844,144.7031 Q42.2656,144.7031 41.5469,146.1406 Q40.8281,147.5625 40.8281,149.75 Q40.8281,152.1563 41.4375,153.4531 Q42.0625,154.7344 43.4219,154.7344 Q44.375,154.7344 45.0625,154.0469 Q45.75,153.3438 46.0781,151.8438 L46.9844,152.25 Q46.5781,153.9531 45.6094,154.9063 Q44.6563,155.8594 43.3438,155.8594 Z " fill="#000000"/><text fill="#000000" font-family="sans-serif" font-size="14" lengthAdjust="spacing" textLength="91" x="58" y="156.4839">DispatchTeam</text><line style="stroke:#181818;stroke-width:0.5;" x1="30" x2="151" y1="166" y2="166"/><line style="stroke:#181818;stroke-width:0.5;" x1="30" x2="151" y1="174" y2="174"/></g><!--class IslandAirportAuthority--><g id="elem_IslandAirportAuthority"><rect fill="#F1F1F1" height="48" id="IslandAirportAuthority" rx="2.5" ry="2.5" style="stroke:#181818;stroke-width:0.5;" width="167" x="7" y="261"/><ellipse cx="22" cy="277" fill="#ADD1B2" rx="11" ry="11" style="stroke:#181818;stroke-width:1.0;"/><path d="M21.3438,282.8594 Q19.3594,282.8594 18.1875,281.3906 Q17.0313,279.9063 17.0313,276.8281 Q17.0313,274.2188 18.25,272.4688 Q19.4844,270.7188 21.6094,270.7188 Q22.1094,270.7188 22.6406,270.8594 Q23.0781,271.0469 23.3438,271.0469 Q23.5625,271.0469 23.6563,271 Q23.7656,270.9531 24.2188,270.3594 L24.9844,274.0938 L24.0938,274.3594 Q23.6406,272.9063 23.0313,272.3125 Q22.4375,271.7031 21.4844,271.7031 Q20.2656,271.7031 19.5469,273.1406 Q18.8281,274.5625 18.8281,276.75 Q18.8281,279.1563 19.4375,280.4531 Q20.0625,281.7344 21.4219,281.7344 Q22.375,281.7344 23.0625,281.0469 Q23.75,280.3438 24.0781,278.8438 L24.9844,279.25 Q24.5781,280.9531 23.6094,281.9063 Q22.6563,282.8594 21.3438,282.8594 Z " fill="#000000"/><text fill="#000000" font-family="sans-serif" font-size="14" lengthAdjust="spacing" textLength="135" x="36" y="283.4839">IslandAirportAuthority</text><line style="stroke:#181818;stroke-width:0.5;" x1="8" x2="173" y1="293" y2="293"/><line style="stroke:#181818;stroke-width:0.5;" x1="8" x2="173" y1="301" y2="301"/></g><!--class AirTrafficController--><g id="elem_AirTrafficController"><rect fill="#F1F1F1" height="48" id="AirTrafficController" rx="2.5" ry="2.5" style="stroke:#181818;stroke-width:0.5;" width="151" x="15" y="7"/><ellipse cx="30" cy="23" fill="#ADD1B2" rx="11" ry="11" style="stroke:#181818;stroke-width:1.0;"/><path d="M29.3438,28.8594 Q27.3594,28.8594 26.1875,27.3906 Q25.0313,25.9063 25.0313,22.8281 Q25.0313,20.2188 26.25,18.4688 Q27.4844,16.7188 29.6094,16.7188 Q30.1094,16.7188 30.6406,16.8594 Q31.0781,17.0469 31.3438,17.0469 Q31.5625,17.0469 31.6563,17 Q31.7656,16.9531 32.2188,16.3594 L32.9844,20.0938 L32.0938,20.3594 Q31.6406,18.9063 31.0313,18.3125 Q30.4375,17.7031 29.4844,17.7031 Q28.2656,17.7031 27.5469,19.1406 Q26.8281,20.5625 26.8281,22.75 Q26.8281,25.1563 27.4375,26.4531 Q28.0625,27.7344 29.4219,27.7344 Q30.375,27.7344 31.0625,27.0469 Q31.75,26.3438 32.0781,24.8438 L32.9844,25.25 Q32.5781,26.9531 31.6094,27.9063 Q30.6563,28.8594 29.3438,28.8594 Z " fill="#000000"/><text fill="#000000" font-family="sans-serif" font-size="14" lengthAdjust="spacing" textLength="119" x="44" y="29.4839">AirTrafficController</text><line style="stroke:#181818;stroke-width:0.5;" x1="16" x2="165" y1="39" y2="39"/><line style="stroke:#181818;stroke-width:0.5;" x1="16" x2="165" y1="47" y2="47"/></g><!--reverse link DispatchTeam to IslandAirportAuthority--><g id="link_DispatchTeam_IslandAirportAuthority"><path codeLine="1" d="M90.5,194.22 C90.5,216.67 90.5,238.5 90.5,260.91 " fill="none" id="DispatchTeam-backto-IslandAirportAuthority" style="stroke:#181818;stroke-width:1.0;"/><polygon fill="none" points="90.5,182.22,86.5,188.22,90.5,194.22,94.5,188.22,90.5,182.22" style="stroke:#181818;stroke-width:1.0;"/><text fill="#000000" font-family="sans-serif" font-size="13" lengthAdjust="spacing" textLength="64" x="91.5" y="227.8979">aggregates</text></g><!--reverse link AirTrafficController to DispatchTeam--><g id="link_AirTrafficController_DispatchTeam"><path codeLine="2" d="M90.5,67.22 C90.5,89.67 90.5,111.5 90.5,133.91 " fill="none" id="AirTrafficController-backto-DispatchTeam" style="stroke:#181818;stroke-width:1.0;"/><polygon fill="none" points="90.5,55.22,86.5,61.22,90.5,67.22,94.5,61.22,90.5,55.22" style="stroke:#181818;stroke-width:1.0;"/><text fill="#000000" font-family="sans-serif" font-size="13" lengthAdjust="spacing" textLength="64" x="91.5" y="100.8979">aggregates</text></g><!--SRC=[SyaiBaWiISu8IKtCLSZNrLNmBCv9p4jnp2mgo2ygSImjoSWloYofLB1II4nFBqfDJon9BUO2oeOK9QQbPIOxv-UL5ENdvAGMWJMx89k6h0K0]--></g></svg>