<?xml version="1.0" encoding="us-ascii" standalone="no"?><svg xmlns="http://www.w3.org/2000/svg" xmlns:xlink="http://www.w3.org/1999/xlink" contentStyleType="text/css" height="316px" preserveAspectRatio="none" style="width:150px;height:316px;background:#FFFFFF;" version="1.1" viewBox="0 0 150 316" width="150px" zoomAndPan="magnify"><defs/><g><!--class CareTeam--><g id="elem_CareTeam"><rect fill="#F1F1F1" height="48" id="CareTeam" rx="2.5" ry="2.5" style="stroke:#181818;stroke-width:0.5;" width="99" x="25.5" y="134"/><ellipse cx="40.5" cy="150" fill="#ADD1B2" rx="11" ry="11" style="stroke:#181818;stroke-width:1.0;"/><path d="M39.8438,155.8594 Q37.8594,155.8594 36.6875,154.3906 Q35.5313,152.9063 35.5313,149.8281 Q35.5313,147.2188 36.75,145.4688 Q37.9844,143.7188 40.1094,143.7188 Q40.6094,143.7188 41.1406,143.8594 Q41.5781,144.0469 41.8438,144.0469 Q42.0625,144.0469 42.1563,144 Q42.2656,143.9531 42.7188,143.3594 L43.4844,147.0938 L42.5938,147.3594 Q42.1406,145.9063 41.5313,145.3125 Q40.9375,144.7031 39.9844,144.7031 Q38.7656,144.7031 38.0469,146.1406 Q37.3281,147.5625 37.3281,149.75 Q37.3281,152.1563 37.9375,153.4531 Q38.5625,154.7344 39.9219,154.7344 Q40.875,154.7344 41.5625,154.0469 Q42.25,153.3438 42.5781,151.8438 L43.4844,152.25 Q43.0781,153.9531 42.1094,154.9063 Q41.1563,155.8594 39.8438,155.8594 Z " fill="#000000"/><text fill="#000000" font-family="sans-serif" font-size="14" lengthAdjust="spacing" textLength="67" x="54.5" y="156.4839">CareTeam</text><line style="stroke:#181818;stroke-width:0.5;" x1="26.5" x2="123.5" y1="166" y2="166"/><line style="stroke:#181818;stroke-width:0.5;" x1="26.5" x2="123.5" y1="174" y2="174"/></g><!--class AquariumStation--><g id="elem_AquariumStation"><rect fill="#F1F1F1" height="48" id="AquariumStation" rx="2.5" ry="2.5" style="stroke:#181818;stroke-width:0.5;" width="136" x="7" y="261"/><ellipse cx="22" cy="277" fill="#ADD1B2" rx="11" ry="11" style="stroke:#181818;stroke-width:1.0;"/><path d="M21.3438,282.8594 Q19.3594,282.8594 18.1875,281.3906 Q17.0313,279.9063 17.0313,276.8281 Q17.0313,274.2188 18.25,272.4688 Q19.4844,270.7188 21.6094,270.7188 Q22.1094,270.7188 22.6406,270.8594 Q23.0781,271.0469 23.3438,271.0469 Q23.5625,271.0469 23.6563,271 Q23.7656,270.9531 24.2188,270.3594 L24.9844,274.0938 L24.0938,274.3594 Q23.6406,272.9063 23.0313,272.3125 Q22.4375,271.7031 21.4844,271.7031 Q20.2656,271.7031 19.5469,273.1406 Q18.8281,274.5625 18.8281,276.75 Q18.8281,279.1563 19.4375,280.4531 Q20.0625,281.7344 21.4219,281.7344 Q22.375,281.7344 23.0625,281.0469 Q23.75,280.3438 24.0781,278.8438 L24.9844,279.25 Q24.5781,280.9531 23.6094,281.9063 Q22.6563,282.8594 21.3438,282.8594 Z " fill="#000000"/><text fill="#000000" font-family="sans-serif" font-size="14" lengthAdjust="spacing" textLength="104" x="36" y="283.4839">AquariumStation</text><line style="stroke:#181818;stroke-width:0.5;" x1="8" x2="142" y1="293" y2="293"/><line style="stroke:#181818;stroke-width:0.5;" x1="8" x2="142" y1="301" y2="301"/></g><!--class LabTechnician--><g id="elem_LabTechnician"><rect fill="#F1F1F1" height="48" id="LabTechnician" rx="2.5" ry="2.5" style="stroke:#181818;stroke-width:0.5;" width="125" x="12.5" y="7"/><ellipse cx="27.5" cy="23" fill="#ADD1B2" rx="11" ry="11" style="stroke:#181818;stroke-width:1.0;"/><path d="M26.8438,28.8594 Q24.8594,28.8594 23.6875,27.3906 Q22.5313,25.9063 22.5313,22.8281 Q22.5313,20.2188 23.75,18.4688 Q24.9844,16.7188 27.1094,16.7188 Q27.6094,16.7188 28.1406,16.8594 Q28.5781,17.0469 28.8438,17.0469 Q29.0625,17.0469 29.1563,17 Q29.2656,16.9531 29.7188,16.3594 L30.4844,20.0938 L29.5938,20.3594 Q29.1406,18.9063 28.5313,18.3125 Q27.9375,17.7031 26.9844,17.7031 Q25.7656,17.7031 25.0469,19.1406 Q24.3281,20.5625 24.3281,22.75 Q24.3281,25.1563 24.9375,26.4531 Q25.5625,27.7344 26.9219,27.7344 Q27.875,27.7344 28.5625,27.0469 Q29.25,26.3438 29.5781,24.8438 L30.4844,25.25 Q30.0781,26.9531 29.1094,27.9063 Q28.1563,28.8594 26.8438,28.8594 Z " fill="#000000"/><text fill="#000000" font-family="sans-serif" font-size="14" lengthAdjust="spacing" textLength="93" x="41.5" y="29.4839">LabTechnician</text><line style="stroke:#181818;stroke-width:0.5;" x1="13.5" x2="136.5" y1="39" y2="39"/><line style="stroke:#181818;stroke-width:0.5;" x1="13.5" x2="136.5" y1="47" y2="47"/></g><!--reverse link CareTeam to AquariumStation--><g id="link_CareTeam_AquariumStation"><path codeLine="1" d="M75,194.22 C75,216.67 75,238.5 75,260.91 " fill="none" id="CareTeam-backto-AquariumStation" style="stroke:#181818;stroke-width:1.0;"/><polygon fill="none" points="75,182.22,71,188.22,75,194.22,79,188.22,75,182.22" style="stroke:#181818;stroke-width:1.0;"/><text fill="#000000" font-family="sans-serif" font-size="13" lengthAdjust="spacing" textLength="64" x="76" y="227.8979">aggregates</text></g><!--reverse link LabTechnician to CareTeam--><g id="link_LabTechnician_CareTeam"><path codeLine="2" d="M75,67.22 C75,89.67 75,111.5 75,133.91 " fill="none" id="LabTechnician-backto-CareTeam" style="stroke:#181818;stroke-width:1.0;"/><polygon fill="none" points="75,55.22,71,61.22,75,67.22,79,61.22,75,55.22" style="stroke:#181818;stroke-width:1.0;"/><text fill="#000000" font-family="sans-serif" font-size="13" lengthAdjust="spacing" textLength="64" x="76" y="100.8979">aggregates</text></g><!--SRC=[SquiIWr9JSnLoDVLLN0iB4qioYpD3Iv9BCdCprEmKaXCJozAJKyiIItcyabC2abDpiZBJCvCp0ChTuRfHLO70000]--></g></svg>