<?xml version="1.0" encoding="us-ascii" standalone="no"?><svg xmlns="http://www.w3.org/2000/svg" xmlns:xlink="http://www.w3.org/1999/xlink" contentStyleType="text/css" height="316px" preserveAspectRatio="none" style="width:154px;height:316px;background:#FFFFFF;" version="1.1" viewBox="0 0 154 316" width="154px" zoomAndPan="magnify"><defs/><g><!--class GrantTeam--><g id="elem_GrantTeam"><rect fill="#F1F1F1" height="48" id="GrantTeam" rx="2.5" ry="2.5" style="stroke:#181818;stroke-width:0.5;" width="104" x="25" y="134"/><ellipse cx="40" cy="150" fill="#ADD1B2" rx="11" ry="11" style="stroke:#181818;stroke-width:1.0;"/><path d="M39.3438,155.8594 Q37.3594,155.8594 36.1875,154.3906 Q35.0313,152.9063 35.0313,149.8281 Q35.0313,147.2188 36.25,145.4688 Q37.4844,143.7188 39.6094,143.7188 Q40.1094,143.7188 40.6406,143.8594 Q41.0781,144.0469 41.3438,144.0469 Q41.5625,144.0469 41.6563,144 Q41.7656,143.9531 42.2188,143.3594 L42.9844,147.0938 L42.0938,147.3594 Q41.6406,145.9063 41.0313,145.3125 Q40.4375,144.7031 39.4844,144.7031 Q38.2656,144.7031 37.5469,146.1406 Q36.8281,147.5625 36.8281,149.75 Q36.8281,152.1563 37.4375,153.4531 Q38.0625,154.7344 39.4219,154.7344 Q40.375,154.7344 41.0625,154.0469 Q41.75,153.3438 42.0781,151.8438 L42.9844,152.25 Q42.5781,153.9531 41.6094,154.9063 Q40.6563,155.8594 39.3438,155.8594 Z " fill="#000000"/><text fill="#000000" font-family="sans-serif" font-size="14" lengthAdjust="spacing" textLength="72" x="54" y="156.4839">GrantTeam</text><line style="stroke:#181818;stroke-width:0.5;" x1="26" x2="128" y1="166" y2="166"/><line style="stroke:#181818;stroke-width:0.5;" x1="26" x2="128" y1="174" y2="174"/></g><!--class ResearchAgency--><g id="elem_ResearchAgency"><rect fill="#F1F1F1" height="48" id="ResearchAgency" rx="2.5" ry="2.5" style="stroke:#181818;stroke-width:0.5;" width="140" x="7" y="261"/><ellipse cx="22" cy="277" fill="#ADD1B2" rx="11" ry="11" style="stroke:#181818;stroke-width:1.0;"/><path d="M21.3438,282.8594 Q19.3594,282.8594 18.1875,281.3906 Q17.0313,279.9063 17.0313,276.8281 Q17.0313,274.2188 18.25,272.4688 Q19.4844,270.7188 21.6094,270.7188 Q22.1094,270.7188 22.6406,270.8594 Q23.0781,271.0469 23.3438,271.0469 Q23.5625,271.0469 23.6563,271 Q23.7656,270.9531 24.2188,270.3594 L24.9844,274.0938 L24.0938,274.3594 Q23.6406,272.9063 23.0313,272.3125 Q22.4375,271.7031 21.4844,271.7031 Q20.2656,271.7031 19.5469,273.1406 Q18.8281,274.5625 18.8281,276.75 Q18.8281,279.1563 19.4375,280.4531 Q20.0625,281.7344 21.4219,281.7344 Q22.375,281.7344 23.0625,281.0469 Q23.75,280.3438 24.0781,278.8438 L24.9844,279.25 Q24.5781,280.9531 23.6094,281.9063 Q22.6563,282.8594 21.3438,282.8594 Z " fill="#000000"/><text fill="#000000" font-family="sans-serif" font-size="14" lengthAdjust="spacing" textLength="108" x="36" y="283.4839">ResearchAgency</text><line style="stroke:#181818;stroke-width:0.5;" x1="8" x2="146" y1="293" y2="293"/><line style="stroke:#181818;stroke-width:0.5;" x1="8" x2="146" y1="301" y2="301"/></g><!--class Accountant--><g id="elem_Accountant"><rect fill="#F1F1F1" height="48" id="Accountant" rx="2.5" ry="2.5" style="stroke:#181818;stroke-width:0.5;" width="103" x="25.5" y="7"/><ellipse cx="40.5" cy="23" fill="#ADD1B2" rx="11" ry="11" style="stroke:#181818;stroke-width:1.0;"/><path d="M39.8438,28.8594 Q37.8594,28.8594 36.6875,27.3906 Q35.5313,25.9063 35.5313,22.8281 Q35.5313,20.2188 36.75,18.4688 Q37.9844,16.7188 40.1094,16.7188 Q40.6094,16.7188 41.1406,16.8594 Q41.5781,17.0469 41.8438,17.0469 Q42.0625,17.0469 42.1563,17 Q42.2656,16.9531 42.7188,16.3594 L43.4844,20.0938 L42.5938,20.3594 Q42.1406,18.9063 41.5313,18.3125 Q40.9375,17.7031 39.9844,17.7031 Q38.7656,17.7031 38.0469,19.1406 Q37.3281,20.5625 37.3281,22.75 Q37.3281,25.1563 37.9375,26.4531 Q38.5625,27.7344 39.9219,27.7344 Q40.875,27.7344 41.5625,27.0469 Q42.25,26.3438 42.5781,24.8438 L43.4844,25.25 Q43.0781,26.9531 42.1094,27.9063 Q41.1563,28.8594 39.8438,28.8594 Z " fill="#000000"/><text fill="#000000" font-family="sans-serif" font-size="14" lengthAdjust="spacing" textLength="71" x="54.5" y="29.4839">Accountant</text><line style="stroke:#181818;stroke-width:0.5;" x1="26.5" x2="127.5" y1="39" y2="39"/><line style="stroke:#181818;stroke-width:0.5;" x1="26.5" x2="127.5" y1="47" y2="47"/></g><!--reverse link GrantTeam to ResearchAgency--><g id="link_GrantTeam_ResearchAgency"><path codeLine="1" d="M77,194.22 C77,216.67 77,238.5 77,260.91 " fill="none" id="GrantTeam-backto-ResearchAgency" style="stroke:#181818;stroke-width:1.0;"/><polygon fill="none" points="77,182.22,73,188.22,77,194.22,81,188.22,77,182.22" style="stroke:#181818;stroke-width:1.0;"/><text fill="#000000" font-family="sans-serif" font-size="13" lengthAdjust="spacing" textLength="64" x="78" y="227.8979">aggregates</text></g><!--reverse link Accountant to GrantTeam--><g id="link_Accountant_GrantTeam"><path codeLine="2" d="M77,67.22 C77,89.67 77,111.5 77,133.91 " fill="none" id="Accountant-backto-GrantTeam" style="stroke:#181818;stroke-width:1.0;"/><polygon fill="none" points="77,55.22,73,61.22,77,67.22,81,61.22,77,55.22" style="stroke:#181818;stroke-width:1.0;"/><text fill="#000000" font-family="sans-serif" font-size="13" lengthAdjust="spacing" textLength="64" x="78" y="100.8979">aggregates</text></g><!--SRC=[SozAp2i9IKtCLSZNrLK8IYrEJInApd1CJyrBhbImKaXCJozAJKyiIItcSanEpY_DAm4g1ojrXsj4LWK0]--></g></svg>