<?xml version="1.0" encoding="us-ascii" standalone="no"?><svg xmlns="http://www.w3.org/2000/svg" xmlns:xlink="http://www.w3.org/1999/xlink" contentStyleType="text/css" height="316px" preserveAspectRatio="none" style="width:137px;height:316px;background:#FFFFFF;" version="1.1" viewBox="0 0 137 316" width="137px" zoomAndPan="magnify"><defs/><g><!--class EditingTeam--><g id="elem_EditingTeam"><rect fill="#F1F1F1" height="48" id="EditingTeam" rx="2.5" ry="2.5" style="stroke:#181818;stroke-width:0.5;" width="111" x="8.5" y="134"/><ellipse cx="23.5" cy="150" fill="#ADD1B2" rx="11" ry="11" style="stroke:#181818;stroke-width:1.0;"/><path d="M22.8438,155.8594 Q20.8594,155.8594 19.6875,154.3906 Q18.5313,152.9063 18.5313,149.8281 Q18.5313,147.2188 19.75,145.4688 Q20.9844,143.7188 23.1094,143.7188 Q23.6094,143.7188 24.1406,143.8594 Q24.5781,144.0469 24.8438,144.0469 Q25.0625,144.0469 25.1563,144 Q25.2656,143.9531 25.7188,143.3594 L26.4844,147.0938 L25.5938,147.3594 Q25.1406,145.9063 24.5313,145.3125 Q23.9375,144.7031 22.9844,144.7031 Q21.7656,144.7031 21.0469,146.1406 Q20.3281,147.5625 20.3281,149.75 Q20.3281,152.1563 20.9375,153.4531 Q21.5625,154.7344 22.9219,154.7344 Q23.875,154.7344 24.5625,154.0469 Q25.25,153.3438 25.5781,151.8438 L26.4844,152.25 Q26.0781,153.9531 25.1094,154.9063 Q24.1563,155.8594 22.8438,155.8594 Z " fill="#000000"/><text fill="#000000" font-family="sans-serif" font-size="14" lengthAdjust="spacing" textLength="79" x="37.5" y="156.4839">EditingTeam</text><line style="stroke:#181818;stroke-width:0.5;" x1="9.5" x2="118.5" y1="166" y2="166"/><line style="stroke:#181818;stroke-width:0.5;" x1="9.5" x2="118.5" y1="174" y2="174"/></g><!--class FilmAuthority--><g id="elem_FilmAuthority"><rect fill="#F1F1F1" height="48" id="FilmAuthority" rx="2.5" ry="2.5" style="stroke:#181818;stroke-width:0.5;" width="114" x="7" y="261"/><ellipse cx="22" cy="277" fill="#ADD1B2" rx="11" ry="11" style="stroke:#181818;stroke-width:1.0;"/><path d="M21.3438,282.8594 Q19.3594,282.8594 18.1875,281.3906 Q17.0313,279.9063 17.0313,276.8281 Q17.0313,274.2188 18.25,272.4688 Q19.4844,270.7188 21.6094,270.7188 Q22.1094,270.7188 22.6406,270.8594 Q23.0781,271.0469 23.3438,271.0469 Q23.5625,271.0469 23.6563,271 Q23.7656,270.9531 24.2188,270.3594 L24.9844,274.0938 L24.0938,274.3594 Q23.6406,272.9063 23.0313,272.3125 Q22.4375,271.7031 21.4844,271.7031 Q20.2656,271.7031 19.5469,273.1406 Q18.8281,274.5625 18.8281,276.75 Q18.8281,279.1563 19.4375,280.4531 Q20.0625,281.7344 21.4219,281.7344 Q22.375,281.7344 23.0625,281.0469 Q23.75,280.3438 24.0781,278.8438 L24.9844,279.25 Q24.5781,280.9531 23.6094,281.9063 Q22.6563,282.8594 21.3438,282.8594 Z " fill="#000000"/><text fill="#000000" font-family="sans-serif" font-size="14" lengthAdjust="spacing" textLength="82" x="36" y="283.4839">FilmAuthority</text><line style="stroke:#181818;stroke-width:0.5;" x1="8" x2="120" y1="293" y2="293"/><line style="stroke:#181818;stroke-width:0.5;" x1="8" x2="120" y1="301" y2="301"/></g><!--class Editor--><g id="elem_Editor"><rect fill="#F1F1F1" height="48" id="Editor" rx="2.5" ry="2.5" style="stroke:#181818;stroke-width:0.5;" width="69" x="29.5" y="7"/><ellipse cx="44.5" cy="23" fill="#ADD1B2" rx="11" ry="11" style="stroke:#181818;stroke-width:1.0;"/><path d="M43.8438,28.8594 Q41.8594,28.8594 40.6875,27.3906 Q39.5313,25.9063 39.5313,22.8281 Q39.5313,20.2188 40.75,18.4688 Q41.9844,16.7188 44.1094,16.7188 Q44.6094,16.7188 45.1406,16.8594 Q45.5781,17.0469 45.8438,17.0469 Q46.0625,17.0469 46.1563,17 Q46.2656,16.9531 46.7188,16.3594 L47.4844,20.0938 L46.5938,20.3594 Q46.1406,18.9063 45.5313,18.3125 Q44.9375,17.7031 43.9844,17.7031 Q42.7656,17.7031 42.0469,19.1406 Q41.3281,20.5625 41.3281,22.75 Q41.3281,25.1563 41.9375,26.4531 Q42.5625,27.7344 43.9219,27.7344 Q44.875,27.7344 45.5625,27.0469 Q46.25,26.3438 46.5781,24.8438 L47.4844,25.25 Q47.0781,26.9531 46.1094,27.9063 Q45.1563,28.8594 43.8438,28.8594 Z " fill="#000000"/><text fill="#000000" font-family="sans-serif" font-size="14" lengthAdjust="spacing" textLength="37" x="58.5" y="29.4839">Editor</text><line style="stroke:#181818;stroke-width:0.5;" x1="30.5" x2="97.5" y1="39" y2="39"/><line style="stroke:#181818;stroke-width:0.5;" x1="30.5" x2="97.5" y1="47" y2="47"/></g><!--reverse link EditingTeam to FilmAuthority--><g id="link_EditingTeam_FilmAuthority"><path codeLine="1" d="M64,194.22 C64,216.67 64,238.5 64,260.91 " fill="none" id="EditingTeam-backto-FilmAuthority" style="stroke:#181818;stroke-width:1.0;"/><polygon fill="none" points="64,182.22,60,188.22,64,194.22,68,188.22,64,182.22" style="stroke:#181818;stroke-width:1.0;"/><text fill="#000000" font-family="sans-serif" font-size="13" lengthAdjust="spacing" textLength="64" x="65" y="227.8979">aggregates</text></g><!--reverse link Editor to EditingTeam--><g id="link_Editor_EditingTeam"><path codeLine="2" d="M64,67.22 C64,89.67 64,111.5 64,133.91 " fill="none" id="Editor-backto-EditingTeam" style="stroke:#181818;stroke-width:1.0;"/><polygon fill="none" points="64,55.22,60,61.22,64,67.22,68,61.22,64,55.22" style="stroke:#181818;stroke-width:1.0;"/><text fill="#000000" font-family="sans-serif" font-size="13" lengthAdjust="spacing" textLength="64" x="65" y="100.8979">aggregates</text></g><!--SRC=[Sqt9BCdCImz9JSnLoDVLLN3BpCbrB2t9o2_ABAbKi598J4ylIarFB4ajvd85Aiql0gjoHTA5h0O0]--></g></svg>