<?xml version="1.0" encoding="us-ascii" standalone="no"?><svg xmlns="http://www.w3.org/2000/svg" xmlns:xlink="http://www.w3.org/1999/xlink" contentStyleType="text/css" height="316px" preserveAspectRatio="none" style="width:99px;height:316px;background:#FFFFFF;" version="1.1" viewBox="0 0 99 316" width="99px" zoomAndPan="magnify"><defs/><g><!--class Plant--><g id="elem_Plant"><rect fill="#F1F1F1" height="48" id="Plant" rx="2.5" ry="2.5" style="stroke:#181818;stroke-width:0.5;" width="64" x="16.5" y="7"/><ellipse cx="31.5" cy="23" fill="#ADD1B2" rx="11" ry="11" style="stroke:#181818;stroke-width:1.0;"/><path d="M30.8438,28.8594 Q28.8594,28.8594 27.6875,27.3906 Q26.5313,25.9063 26.5313,22.8281 Q26.5313,20.2188 27.75,18.4688 Q28.9844,16.7188 31.1094,16.7188 Q31.6094,16.7188 32.1406,16.8594 Q32.5781,17.0469 32.8438,17.0469 Q33.0625,17.0469 33.1563,17 Q33.2656,16.9531 33.7188,16.3594 L34.4844,20.0938 L33.5938,20.3594 Q33.1406,18.9063 32.5313,18.3125 Q31.9375,17.7031 30.9844,17.7031 Q29.7656,17.7031 29.0469,19.1406 Q28.3281,20.5625 28.3281,22.75 Q28.3281,25.1563 28.9375,26.4531 Q29.5625,27.7344 30.9219,27.7344 Q31.875,27.7344 32.5625,27.0469 Q33.25,26.3438 33.5781,24.8438 L34.4844,25.25 Q34.0781,26.9531 33.1094,27.9063 Q32.1563,28.8594 30.8438,28.8594 Z " fill="#000000"/><text fill="#000000" font-family="sans-serif" font-size="14" lengthAdjust="spacing" textLength="32" x="45.5" y="29.4839">Plant</text><line style="stroke:#181818;stroke-width:0.5;" x1="17.5" x2="79.5" y1="39" y2="39"/><line style="stroke:#181818;stroke-width:0.5;" x1="17.5" x2="79.5" y1="47" y2="47"/></g><!--class Shrub--><g id="elem_Shrub"><rect fill="#F1F1F1" height="48" id="Shrub" rx="2.5" ry="2.5" style="stroke:#181818;stroke-width:0.5;" width="70" x="13.5" y="134"/><ellipse cx="28.5" cy="150" fill="#ADD1B2" rx="11" ry="11" style="stroke:#181818;stroke-width:1.0;"/><path d="M27.8438,155.8594 Q25.8594,155.8594 24.6875,154.3906 Q23.5313,152.9063 23.5313,149.8281 Q23.5313,147.2188 24.75,145.4688 Q25.9844,143.7188 28.1094,143.7188 Q28.6094,143.7188 29.1406,143.8594 Q29.5781,144.0469 29.8438,144.0469 Q30.0625,144.0469 30.1563,144 Q30.2656,143.9531 30.7188,143.3594 L31.4844,147.0938 L30.5938,147.3594 Q30.1406,145.9063 29.5313,145.3125 Q28.9375,144.7031 27.9844,144.7031 Q26.7656,144.7031 26.0469,146.1406 Q25.3281,147.5625 25.3281,149.75 Q25.3281,152.1563 25.9375,153.4531 Q26.5625,154.7344 27.9219,154.7344 Q28.875,154.7344 29.5625,154.0469 Q30.25,153.3438 30.5781,151.8438 L31.4844,152.25 Q31.0781,153.9531 30.1094,154.9063 Q29.1563,155.8594 27.8438,155.8594 Z " fill="#000000"/><text fill="#000000" font-family="sans-serif" font-size="14" lengthAdjust="spacing" textLength="38" x="42.5" y="156.4839">Shrub</text><line style="stroke:#181818;stroke-width:0.5;" x1="14.5" x2="82.5" y1="166" y2="166"/><line style="stroke:#181818;stroke-width:0.5;" x1="14.5" x2="82.5" y1="174" y2="174"/></g><!--class Weigela--><g id="elem_Weigela"><rect fill="#F1F1F1" height="48" id="Weigela" rx="2.5" ry="2.5" style="stroke:#181818;stroke-width:0.5;" width="83" x="7" y="261"/><ellipse cx="22" cy="277" fill="#ADD1B2" rx="11" ry="11" style="stroke:#181818;stroke-width:1.0;"/><path d="M21.3438,282.8594 Q19.3594,282.8594 18.1875,281.3906 Q17.0313,279.9063 17.0313,276.8281 Q17.0313,274.2188 18.25,272.4688 Q19.4844,270.7188 21.6094,270.7188 Q22.1094,270.7188 22.6406,270.8594 Q23.0781,271.0469 23.3438,271.0469 Q23.5625,271.0469 23.6563,271 Q23.7656,270.9531 24.2188,270.3594 L24.9844,274.0938 L24.0938,274.3594 Q23.6406,272.9063 23.0313,272.3125 Q22.4375,271.7031 21.4844,271.7031 Q20.2656,271.7031 19.5469,273.1406 Q18.8281,274.5625 18.8281,276.75 Q18.8281,279.1563 19.4375,280.4531 Q20.0625,281.7344 21.4219,281.7344 Q22.375,281.7344 23.0625,281.0469 Q23.75,280.3438 24.0781,278.8438 L24.9844,279.25 Q24.5781,280.9531 23.6094,281.9063 Q22.6563,282.8594 21.3438,282.8594 Z " fill="#000000"/><text fill="#000000" font-family="sans-serif" font-size="14" lengthAdjust="spacing" textLength="51" x="36" y="283.4839">Weigela</text><line style="stroke:#181818;stroke-width:0.5;" x1="8" x2="89" y1="293" y2="293"/><line style="stroke:#181818;stroke-width:0.5;" x1="8" x2="89" y1="301" y2="301"/></g><!--reverse link Plant to Shrub--><g id="link_Plant_Shrub"><path codeLine="1" d="M48.5,73.22 C48.5,95.67 48.5,111.5 48.5,133.91 " fill="none" id="Plant-backto-Shrub" style="stroke:#181818;stroke-width:1.0;"/><polygon fill="none" points="48.5,55.22,42.5,73.22,54.5,73.22,48.5,55.22" style="stroke:#181818;stroke-width:1.0;"/><text fill="#000000" font-family="sans-serif" font-size="13" lengthAdjust="spacing" textLength="42" x="49.5" y="100.8979">inherits</text></g><!--reverse link Shrub to Weigela--><g id="link_Shrub_Weigela"><path codeLine="2" d="M48.5,200.22 C48.5,222.67 48.5,238.5 48.5,260.91 " fill="none" id="Shrub-backto-Weigela" style="stroke:#181818;stroke-width:1.0;"/><polygon fill="none" points="48.5,182.22,42.5,200.22,54.5,200.22,48.5,182.22" style="stroke:#181818;stroke-width:1.0;"/><text fill="#000000" font-family="sans-serif" font-size="13" lengthAdjust="spacing" textLength="42" x="49.5" y="227.8979">inherits</text></g><!--SRC=[2yX9p2jHiAdHrLK8pYWgJLAmKiZCoqWjoYmfve88WEN2KpFJKtCIaMG1]--></g></svg>