<?xml version="1.0" encoding="us-ascii" standalone="no"?><svg xmlns="http://www.w3.org/2000/svg" xmlns:xlink="http://www.w3.org/1999/xlink" contentStyleType="text/css" height="316px" preserveAspectRatio="none" style="width:137px;height:316px;background:#FFFFFF;" version="1.1" viewBox="0 0 137 316" width="137px" zoomAndPan="magnify"><defs/><g><!--class Scientist--><g id="elem_Scientist"><rect fill="#F1F1F1" height="48" id="Scientist" rx="2.5" ry="2.5" style="stroke:#181818;stroke-width:0.5;" width="85" x="26" y="7"/><ellipse cx="41" cy="23" fill="#ADD1B2" rx="11" ry="11" style="stroke:#181818;stroke-width:1.0;"/><path d="M40.3438,28.8594 Q38.3594,28.8594 37.1875,27.3906 Q36.0313,25.9063 36.0313,22.8281 Q36.0313,20.2188 37.25,18.4688 Q38.4844,16.7188 40.6094,16.7188 Q41.1094,16.7188 41.6406,16.8594 Q42.0781,17.0469 42.3438,17.0469 Q42.5625,17.0469 42.6563,17 Q42.7656,16.9531 43.2188,16.3594 L43.9844,20.0938 L43.0938,20.3594 Q42.6406,18.9063 42.0313,18.3125 Q41.4375,17.7031 40.4844,17.7031 Q39.2656,17.7031 38.5469,19.1406 Q37.8281,20.5625 37.8281,22.75 Q37.8281,25.1563 38.4375,26.4531 Q39.0625,27.7344 40.4219,27.7344 Q41.375,27.7344 42.0625,27.0469 Q42.75,26.3438 43.0781,24.8438 L43.9844,25.25 Q43.5781,26.9531 42.6094,27.9063 Q41.6563,28.8594 40.3438,28.8594 Z " fill="#000000"/><text fill="#000000" font-family="sans-serif" font-size="14" lengthAdjust="spacing" textLength="53" x="55" y="29.4839">Scientist</text><line style="stroke:#181818;stroke-width:0.5;" x1="27" x2="110" y1="39" y2="39"/><line style="stroke:#181818;stroke-width:0.5;" x1="27" x2="110" y1="47" y2="47"/></g><!--class Mathematician--><g id="elem_Mathematician"><rect fill="#F1F1F1" height="48" id="Mathematician" rx="2.5" ry="2.5" style="stroke:#181818;stroke-width:0.5;" width="123" x="7" y="134"/><ellipse cx="22" cy="150" fill="#ADD1B2" rx="11" ry="11" style="stroke:#181818;stroke-width:1.0;"/><path d="M21.3438,155.8594 Q19.3594,155.8594 18.1875,154.3906 Q17.0313,152.9063 17.0313,149.8281 Q17.0313,147.2188 18.25,145.4688 Q19.4844,143.7188 21.6094,143.7188 Q22.1094,143.7188 22.6406,143.8594 Q23.0781,144.0469 23.3438,144.0469 Q23.5625,144.0469 23.6563,144 Q23.7656,143.9531 24.2188,143.3594 L24.9844,147.0938 L24.0938,147.3594 Q23.6406,145.9063 23.0313,145.3125 Q22.4375,144.7031 21.4844,144.7031 Q20.2656,144.7031 19.5469,146.1406 Q18.8281,147.5625 18.8281,149.75 Q18.8281,152.1563 19.4375,153.4531 Q20.0625,154.7344 21.4219,154.7344 Q22.375,154.7344 23.0625,154.0469 Q23.75,153.3438 24.0781,151.8438 L24.9844,152.25 Q24.5781,153.9531 23.6094,154.9063 Q22.6563,155.8594 21.3438,155.8594 Z " fill="#000000"/><text fill="#000000" font-family="sans-serif" font-size="14" lengthAdjust="spacing" textLength="91" x="36" y="156.4839">Mathematician</text><line style="stroke:#181818;stroke-width:0.5;" x1="8" x2="129" y1="166" y2="166"/><line style="stroke:#181818;stroke-width:0.5;" x1="8" x2="129" y1="174" y2="174"/></g><!--class CarlGauss--><g id="elem_CarlGauss"><rect fill="#F1F1F1" height="48" id="CarlGauss" rx="2.5" ry="2.5" style="stroke:#181818;stroke-width:0.5;" width="99" x="19" y="261"/><ellipse cx="34" cy="277" fill="#ADD1B2" rx="11" ry="11" style="stroke:#181818;stroke-width:1.0;"/><path d="M33.3438,282.8594 Q31.3594,282.8594 30.1875,281.3906 Q29.0313,279.9063 29.0313,276.8281 Q29.0313,274.2188 30.25,272.4688 Q31.4844,270.7188 33.6094,270.7188 Q34.1094,270.7188 34.6406,270.8594 Q35.0781,271.0469 35.3438,271.0469 Q35.5625,271.0469 35.6563,271 Q35.7656,270.9531 36.2188,270.3594 L36.9844,274.0938 L36.0938,274.3594 Q35.6406,272.9063 35.0313,272.3125 Q34.4375,271.7031 33.4844,271.7031 Q32.2656,271.7031 31.5469,273.1406 Q30.8281,274.5625 30.8281,276.75 Q30.8281,279.1563 31.4375,280.4531 Q32.0625,281.7344 33.4219,281.7344 Q34.375,281.7344 35.0625,281.0469 Q35.75,280.3438 36.0781,278.8438 L36.9844,279.25 Q36.5781,280.9531 35.6094,281.9063 Q34.6563,282.8594 33.3438,282.8594 Z " fill="#000000"/><text fill="#000000" font-family="sans-serif" font-size="14" lengthAdjust="spacing" textLength="67" x="48" y="283.4839">CarlGauss</text><line style="stroke:#181818;stroke-width:0.5;" x1="20" x2="117" y1="293" y2="293"/><line style="stroke:#181818;stroke-width:0.5;" x1="20" x2="117" y1="301" y2="301"/></g><!--reverse link Scientist to Mathematician--><g id="link_Scientist_Mathematician"><path codeLine="1" d="M68.5,73.22 C68.5,95.67 68.5,111.5 68.5,133.91 " fill="none" id="Scientist-backto-Mathematician" style="stroke:#181818;stroke-width:1.0;"/><polygon fill="none" points="68.5,55.22,62.5,73.22,74.5,73.22,68.5,55.22" style="stroke:#181818;stroke-width:1.0;"/><text fill="#000000" font-family="sans-serif" font-size="13" lengthAdjust="spacing" textLength="42" x="69.5" y="100.8979">inherits</text></g><!--reverse link Mathematician to CarlGauss--><g id="link_Mathematician_CarlGauss"><path codeLine="2" d="M68.5,200.22 C68.5,222.67 68.5,238.5 68.5,260.91 " fill="none" id="Mathematician-backto-CarlGauss" style="stroke:#181818;stroke-width:1.0;"/><polygon fill="none" points="68.5,182.22,62.5,200.22,74.5,200.22,68.5,182.22" style="stroke:#181818;stroke-width:1.0;"/><text fill="#000000" font-family="sans-serif" font-size="13" lengthAdjust="spacing" textLength="42" x="69.5" y="227.8979">inherits</text></g><!--SRC=[2qxEJCqhoImkKR2fqTLLy4qioKZDJIp9JCvCp5EmKiZCoqWjoYmfvaAL0AjrJYpASKyiBIv6KWS0]--></g></svg>