<?xml version="1.0" encoding="us-ascii" standalone="no"?><svg xmlns="http://www.w3.org/2000/svg" xmlns:xlink="http://www.w3.org/1999/xlink" contentStyleType="text/css" height="316px" preserveAspectRatio="none" style="width:181px;height:316px;background:#FFFFFF;" version="1.1" viewBox="0 0 181 316" width="181px" zoomAndPan="magnify"><defs/><g><!--class Musician--><g id="elem_Musician"><rect fill="#F1F1F1" height="48" id="Musician" rx="2.5" ry="2.5" style="stroke:#181818;stroke-width:0.5;" width="87" x="47" y="7"/><ellipse cx="62" cy="23" fill="#ADD1B2" rx="11" ry="11" style="stroke:#181818;stroke-width:1.0;"/><path d="M61.3438,28.8594 Q59.3594,28.8594 58.1875,27.3906 Q57.0313,25.9063 57.0313,22.8281 Q57.0313,20.2188 58.25,18.4688 Q59.4844,16.7188 61.6094,16.7188 Q62.1094,16.7188 62.6406,16.8594 Q63.0781,17.0469 63.3438,17.0469 Q63.5625,17.0469 63.6563,17 Q63.7656,16.9531 64.2188,16.3594 L64.9844,20.0938 L64.0938,20.3594 Q63.6406,18.9063 63.0313,18.3125 Q62.4375,17.7031 61.4844,17.7031 Q60.2656,17.7031 59.5469,19.1406 Q58.8281,20.5625 58.8281,22.75 Q58.8281,25.1563 59.4375,26.4531 Q60.0625,27.7344 61.4219,27.7344 Q62.375,27.7344 63.0625,27.0469 Q63.75,26.3438 64.0781,24.8438 L64.9844,25.25 Q64.5781,26.9531 63.6094,27.9063 Q62.6563,28.8594 61.3438,28.8594 Z " fill="#000000"/><text fill="#000000" font-family="sans-serif" font-size="14" lengthAdjust="spacing" textLength="55" x="76" y="29.4839">Musician</text><line style="stroke:#181818;stroke-width:0.5;" x1="48" x2="133" y1="39" y2="39"/><line style="stroke:#181818;stroke-width:0.5;" x1="48" x2="133" y1="47" y2="47"/></g><!--class Composer--><g id="elem_Composer"><rect fill="#F1F1F1" height="48" id="Composer" rx="2.5" ry="2.5" style="stroke:#181818;stroke-width:0.5;" width="97" x="42" y="134"/><ellipse cx="57" cy="150" fill="#ADD1B2" rx="11" ry="11" style="stroke:#181818;stroke-width:1.0;"/><path d="M56.3438,155.8594 Q54.3594,155.8594 53.1875,154.3906 Q52.0313,152.9063 52.0313,149.8281 Q52.0313,147.2188 53.25,145.4688 Q54.4844,143.7188 56.6094,143.7188 Q57.1094,143.7188 57.6406,143.8594 Q58.0781,144.0469 58.3438,144.0469 Q58.5625,144.0469 58.6563,144 Q58.7656,143.9531 59.2188,143.3594 L59.9844,147.0938 L59.0938,147.3594 Q58.6406,145.9063 58.0313,145.3125 Q57.4375,144.7031 56.4844,144.7031 Q55.2656,144.7031 54.5469,146.1406 Q53.8281,147.5625 53.8281,149.75 Q53.8281,152.1563 54.4375,153.4531 Q55.0625,154.7344 56.4219,154.7344 Q57.375,154.7344 58.0625,154.0469 Q58.75,153.3438 59.0781,151.8438 L59.9844,152.25 Q59.5781,153.9531 58.6094,154.9063 Q57.6563,155.8594 56.3438,155.8594 Z " fill="#000000"/><text fill="#000000" font-family="sans-serif" font-size="14" lengthAdjust="spacing" textLength="65" x="71" y="156.4839">Composer</text><line style="stroke:#181818;stroke-width:0.5;" x1="43" x2="138" y1="166" y2="166"/><line style="stroke:#181818;stroke-width:0.5;" x1="43" x2="138" y1="174" y2="174"/></g><!--class LudwigvanBeethoven--><g id="elem_LudwigvanBeethoven"><rect fill="#F1F1F1" height="48" id="LudwigvanBeethoven" rx="2.5" ry="2.5" style="stroke:#181818;stroke-width:0.5;" width="167" x="7" y="261"/><ellipse cx="22" cy="277" fill="#ADD1B2" rx="11" ry="11" style="stroke:#181818;stroke-width:1.0;"/><path d="M21.3438,282.8594 Q19.3594,282.8594 18.1875,281.3906 Q17.0313,279.9063 17.0313,276.8281 Q17.0313,274.2188 18.25,272.4688 Q19.4844,270.7188 21.6094,270.7188 Q22.1094,270.7188 22.6406,270.8594 Q23.0781,271.0469 23.3438,271.0469 Q23.5625,271.0469 23.6563,271 Q23.7656,270.9531 24.2188,270.3594 L24.9844,274.0938 L24.0938,274.3594 Q23.6406,272.9063 23.0313,272.3125 Q22.4375,271.7031 21.4844,271.7031 Q20.2656,271.7031 19.5469,273.1406 Q18.8281,274.5625 18.8281,276.75 Q18.8281,279.1563 19.4375,280.4531 Q20.0625,281.7344 21.4219,281.7344 Q22.375,281.7344 23.0625,281.0469 Q23.75,280.3438 24.0781,278.8438 L24.9844,279.25 Q24.5781,280.9531 23.6094,281.9063 Q22.6563,282.8594 21.3438,282.8594 Z " fill="#000000"/><text fill="#000000" font-family="sans-serif" font-size="14" lengthAdjust="spacing" textLength="135" x="36" y="283.4839">LudwigvanBeethoven</text><line style="stroke:#181818;stroke-width:0.5;" x1="8" x2="173" y1="293" y2="293"/><line style="stroke:#181818;stroke-width:0.5;" x1="8" x2="173" y1="301" y2="301"/></g><!--reverse link Musician to Composer--><g id="link_Musician_Composer"><path codeLine="1" d="M90.5,73.22 C90.5,95.67 90.5,111.5 90.5,133.91 " fill="none" id="Musician-backto-Composer" style="stroke:#181818;stroke-width:1.0;"/><polygon fill="none" points="90.5,55.22,84.5,73.22,96.5,73.22,90.5,55.22" style="stroke:#181818;stroke-width:1.0;"/><text fill="#000000" font-family="sans-serif" font-size="13" lengthAdjust="spacing" textLength="42" x="91.5" y="100.8979">inherits</text></g><!--reverse link Composer to LudwigvanBeethoven--><g id="link_Composer_LudwigvanBeethoven"><path codeLine="2" d="M90.5,200.22 C90.5,222.67 90.5,238.5 90.5,260.91 " fill="none" id="Composer-backto-LudwigvanBeethoven" style="stroke:#181818;stroke-width:1.0;"/><polygon fill="none" points="90.5,182.22,84.5,200.22,96.5,200.22,90.5,182.22" style="stroke:#181818;stroke-width:1.0;"/><text fill="#000000" font-family="sans-serif" font-size="13" lengthAdjust="spacing" textLength="42" x="91.5" y="227.8979">inherits</text></g><!--SRC=[yoqjpapEJCnJiAdHrLLmpiyjo2zEBLAmKiZCoqWjoYmfveABWLNubAQKPwQN9UOvfQQMPEINfUOXgGK0]--></g></svg>