<?xml version="1.0" encoding="us-ascii" standalone="no"?><svg xmlns="http://www.w3.org/2000/svg" xmlns:xlink="http://www.w3.org/1999/xlink" contentStyleType="text/css" height="316px" preserveAspectRatio="none" style="width:148px;height:316px;background:#FFFFFF;" version="1.1" viewBox="0 0 148 316" width="148px" zoomAndPan="magnify"><defs/><g><!--class Dressage--><g id="elem_Dressage"><rect fill="#F1F1F1" height="48" id="Dressage" rx="2.5" ry="2.5" style="stroke:#181818;stroke-width:0.5;" width="93" x="27.5" y="7"/><ellipse cx="42.5" cy="23" fill="#ADD1B2" rx="11" ry="11" style="stroke:#181818;stroke-width:1.0;"/><path d="M41.8438,28.8594 Q39.8594,28.8594 38.6875,27.3906 Q37.5313,25.9063 37.5313,22.8281 Q37.5313,20.2188 38.75,18.4688 Q39.9844,16.7188 42.1094,16.7188 Q42.6094,16.7188 43.1406,16.8594 Q43.5781,17.0469 43.8438,17.0469 Q44.0625,17.0469 44.1563,17 Q44.2656,16.9531 44.7188,16.3594 L45.4844,20.0938 L44.5938,20.3594 Q44.1406,18.9063 43.5313,18.3125 Q42.9375,17.7031 41.9844,17.7031 Q40.7656,17.7031 40.0469,19.1406 Q39.3281,20.5625 39.3281,22.75 Q39.3281,25.1563 39.9375,26.4531 Q40.5625,27.7344 41.9219,27.7344 Q42.875,27.7344 43.5625,27.0469 Q44.25,26.3438 44.5781,24.8438 L45.4844,25.25 Q45.0781,26.9531 44.1094,27.9063 Q43.1563,28.8594 41.8438,28.8594 Z " fill="#000000"/><text fill="#000000" font-family="sans-serif" font-size="14" lengthAdjust="spacing" textLength="61" x="56.5" y="29.4839">Dressage</text><line style="stroke:#181818;stroke-width:0.5;" x1="28.5" x2="119.5" y1="39" y2="39"/><line style="stroke:#181818;stroke-width:0.5;" x1="28.5" x2="119.5" y1="47" y2="47"/></g><!--class EquestrianSport--><g id="elem_EquestrianSport"><rect fill="#F1F1F1" height="48" id="EquestrianSport" rx="2.5" ry="2.5" style="stroke:#181818;stroke-width:0.5;" width="134" x="7" y="134"/><ellipse cx="22" cy="150" fill="#ADD1B2" rx="11" ry="11" style="stroke:#181818;stroke-width:1.0;"/><path d="M21.3438,155.8594 Q19.3594,155.8594 18.1875,154.3906 Q17.0313,152.9063 17.0313,149.8281 Q17.0313,147.2188 18.25,145.4688 Q19.4844,143.7188 21.6094,143.7188 Q22.1094,143.7188 22.6406,143.8594 Q23.0781,144.0469 23.3438,144.0469 Q23.5625,144.0469 23.6563,144 Q23.7656,143.9531 24.2188,143.3594 L24.9844,147.0938 L24.0938,147.3594 Q23.6406,145.9063 23.0313,145.3125 Q22.4375,144.7031 21.4844,144.7031 Q20.2656,144.7031 19.5469,146.1406 Q18.8281,147.5625 18.8281,149.75 Q18.8281,152.1563 19.4375,153.4531 Q20.0625,154.7344 21.4219,154.7344 Q22.375,154.7344 23.0625,154.0469 Q23.75,153.3438 24.0781,151.8438 L24.9844,152.25 Q24.5781,153.9531 23.6094,154.9063 Q22.6563,155.8594 21.3438,155.8594 Z " fill="#000000"/><text fill="#000000" font-family="sans-serif" font-size="14" lengthAdjust="spacing" textLength="102" x="36" y="156.4839">EquestrianSport</text><line style="stroke:#181818;stroke-width:0.5;" x1="8" x2="140" y1="166" y2="166"/><line style="stroke:#181818;stroke-width:0.5;" x1="8" x2="140" y1="174" y2="174"/></g><!--class Sport--><g id="elem_Sport"><rect fill="#F1F1F1" height="48" id="Sport" rx="2.5" ry="2.5" style="stroke:#181818;stroke-width:0.5;" width="66" x="41" y="261"/><ellipse cx="56" cy="277" fill="#ADD1B2" rx="11" ry="11" style="stroke:#181818;stroke-width:1.0;"/><path d="M55.3438,282.8594 Q53.3594,282.8594 52.1875,281.3906 Q51.0313,279.9063 51.0313,276.8281 Q51.0313,274.2188 52.25,272.4688 Q53.4844,270.7188 55.6094,270.7188 Q56.1094,270.7188 56.6406,270.8594 Q57.0781,271.0469 57.3438,271.0469 Q57.5625,271.0469 57.6563,271 Q57.7656,270.9531 58.2188,270.3594 L58.9844,274.0938 L58.0938,274.3594 Q57.6406,272.9063 57.0313,272.3125 Q56.4375,271.7031 55.4844,271.7031 Q54.2656,271.7031 53.5469,273.1406 Q52.8281,274.5625 52.8281,276.75 Q52.8281,279.1563 53.4375,280.4531 Q54.0625,281.7344 55.4219,281.7344 Q56.375,281.7344 57.0625,281.0469 Q57.75,280.3438 58.0781,278.8438 L58.9844,279.25 Q58.5781,280.9531 57.6094,281.9063 Q56.6563,282.8594 55.3438,282.8594 Z " fill="#000000"/><text fill="#000000" font-family="sans-serif" font-size="14" lengthAdjust="spacing" textLength="34" x="70" y="283.4839">Sport</text><line style="stroke:#181818;stroke-width:0.5;" x1="42" x2="106" y1="293" y2="293"/><line style="stroke:#181818;stroke-width:0.5;" x1="42" x2="106" y1="301" y2="301"/></g><!--reverse link Dressage to EquestrianSport--><g id="link_Dressage_EquestrianSport"><path codeLine="1" d="M74,73.22 C74,95.67 74,111.5 74,133.91 " fill="none" id="Dressage-backto-EquestrianSport" style="stroke:#181818;stroke-width:1.0;"/><polygon fill="none" points="74,55.22,68,73.22,80,73.22,74,55.22" style="stroke:#181818;stroke-width:1.0;"/><text fill="#000000" font-family="sans-serif" font-size="13" lengthAdjust="spacing" textLength="42" x="75" y="100.8979">inherits</text></g><!--reverse link EquestrianSport to Sport--><g id="link_EquestrianSport_Sport"><path codeLine="2" d="M74,200.22 C74,222.67 74,238.5 74,260.91 " fill="none" id="EquestrianSport-backto-Sport" style="stroke:#181818;stroke-width:1.0;"/><polygon fill="none" points="74,182.22,68,200.22,80,200.22,74,182.22" style="stroke:#181818;stroke-width:1.0;"/><text fill="#000000" font-family="sans-serif" font-size="13" lengthAdjust="spacing" textLength="42" x="75" y="227.8979">inherits</text></g><!--SRC=[SobABIvEJ4zLiAdHrLLmBInDBIufoapC2ox8BofHi5B8pCj8BSeiAUP2bmAhHrS50000]--></g></svg>