<?xml version="1.0" encoding="us-ascii" standalone="no"?><svg xmlns="http://www.w3.org/2000/svg" xmlns:xlink="http://www.w3.org/1999/xlink" contentStyleType="text/css" height="316px" preserveAspectRatio="none" style="width:144px;height:316px;background:#FFFFFF;" version="1.1" viewBox="0 0 144 316" width="144px" zoomAndPan="magnify"><defs/><g><!--class UltimateFrisbee--><g id="elem_UltimateFrisbee"><rect fill="#F1F1F1" height="48" id="UltimateFrisbee" rx="2.5" ry="2.5" style="stroke:#181818;stroke-width:0.5;" width="130" x="7" y="7"/><ellipse cx="22" cy="23" fill="#ADD1B2" rx="11" ry="11" style="stroke:#181818;stroke-width:1.0;"/><path d="M21.3438,28.8594 Q19.3594,28.8594 18.1875,27.3906 Q17.0313,25.9063 17.0313,22.8281 Q17.0313,20.2188 18.25,18.4688 Q19.4844,16.7188 21.6094,16.7188 Q22.1094,16.7188 22.6406,16.8594 Q23.0781,17.0469 23.3438,17.0469 Q23.5625,17.0469 23.6563,17 Q23.7656,16.9531 24.2188,16.3594 L24.9844,20.0938 L24.0938,20.3594 Q23.6406,18.9063 23.0313,18.3125 Q22.4375,17.7031 21.4844,17.7031 Q20.2656,17.7031 19.5469,19.1406 Q18.8281,20.5625 18.8281,22.75 Q18.8281,25.1563 19.4375,26.4531 Q20.0625,27.7344 21.4219,27.7344 Q22.375,27.7344 23.0625,27.0469 Q23.75,26.3438 24.0781,24.8438 L24.9844,25.25 Q24.5781,26.9531 23.6094,27.9063 Q22.6563,28.8594 21.3438,28.8594 Z " fill="#000000"/><text fill="#000000" font-family="sans-serif" font-size="14" lengthAdjust="spacing" textLength="98" x="36" y="29.4839">UltimateFrisbee</text><line style="stroke:#181818;stroke-width:0.5;" x1="8" x2="136" y1="39" y2="39"/><line style="stroke:#181818;stroke-width:0.5;" x1="8" x2="136" y1="47" y2="47"/></g><!--class TeamSport--><g id="elem_TeamSport"><rect fill="#F1F1F1" height="48" id="TeamSport" rx="2.5" ry="2.5" style="stroke:#181818;stroke-width:0.5;" width="102" x="21" y="134"/><ellipse cx="36" cy="150" fill="#ADD1B2" rx="11" ry="11" style="stroke:#181818;stroke-width:1.0;"/><path d="M35.3438,155.8594 Q33.3594,155.8594 32.1875,154.3906 Q31.0313,152.9063 31.0313,149.8281 Q31.0313,147.2188 32.25,145.4688 Q33.4844,143.7188 35.6094,143.7188 Q36.1094,143.7188 36.6406,143.8594 Q37.0781,144.0469 37.3438,144.0469 Q37.5625,144.0469 37.6563,144 Q37.7656,143.9531 38.2188,143.3594 L38.9844,147.0938 L38.0938,147.3594 Q37.6406,145.9063 37.0313,145.3125 Q36.4375,144.7031 35.4844,144.7031 Q34.2656,144.7031 33.5469,146.1406 Q32.8281,147.5625 32.8281,149.75 Q32.8281,152.1563 33.4375,153.4531 Q34.0625,154.7344 35.4219,154.7344 Q36.375,154.7344 37.0625,154.0469 Q37.75,153.3438 38.0781,151.8438 L38.9844,152.25 Q38.5781,153.9531 37.6094,154.9063 Q36.6563,155.8594 35.3438,155.8594 Z " fill="#000000"/><text fill="#000000" font-family="sans-serif" font-size="14" lengthAdjust="spacing" textLength="70" x="50" y="156.4839">TeamSport</text><line style="stroke:#181818;stroke-width:0.5;" x1="22" x2="122" y1="166" y2="166"/><line style="stroke:#181818;stroke-width:0.5;" x1="22" x2="122" y1="174" y2="174"/></g><!--class Sport--><g id="elem_Sport"><rect fill="#F1F1F1" height="48" id="Sport" rx="2.5" ry="2.5" style="stroke:#181818;stroke-width:0.5;" width="66" x="39" y="261"/><ellipse cx="54" cy="277" fill="#ADD1B2" rx="11" ry="11" style="stroke:#181818;stroke-width:1.0;"/><path d="M53.3438,282.8594 Q51.3594,282.8594 50.1875,281.3906 Q49.0313,279.9063 49.0313,276.8281 Q49.0313,274.2188 50.25,272.4688 Q51.4844,270.7188 53.6094,270.7188 Q54.1094,270.7188 54.6406,270.8594 Q55.0781,271.0469 55.3438,271.0469 Q55.5625,271.0469 55.6563,271 Q55.7656,270.9531 56.2188,270.3594 L56.9844,274.0938 L56.0938,274.3594 Q55.6406,272.9063 55.0313,272.3125 Q54.4375,271.7031 53.4844,271.7031 Q52.2656,271.7031 51.5469,273.1406 Q50.8281,274.5625 50.8281,276.75 Q50.8281,279.1563 51.4375,280.4531 Q52.0625,281.7344 53.4219,281.7344 Q54.375,281.7344 55.0625,281.0469 Q55.75,280.3438 56.0781,278.8438 L56.9844,279.25 Q56.5781,280.9531 55.6094,281.9063 Q54.6563,282.8594 53.3438,282.8594 Z " fill="#000000"/><text fill="#000000" font-family="sans-serif" font-size="14" lengthAdjust="spacing" textLength="34" x="68" y="283.4839">Sport</text><line style="stroke:#181818;stroke-width:0.5;" x1="40" x2="104" y1="293" y2="293"/><line style="stroke:#181818;stroke-width:0.5;" x1="40" x2="104" y1="301" y2="301"/></g><!--reverse link UltimateFrisbee to TeamSport--><g id="link_UltimateFrisbee_TeamSport"><path codeLine="1" d="M72,73.22 C72,95.67 72,111.5 72,133.91 " fill="none" id="UltimateFrisbee-backto-TeamSport" style="stroke:#181818;stroke-width:1.0;"/><polygon fill="none" points="72,55.22,66,73.22,78,73.22,72,55.22" style="stroke:#181818;stroke-width:1.0;"/><text fill="#000000" font-family="sans-serif" font-size="13" lengthAdjust="spacing" textLength="42" x="73" y="100.8979">inherits</text></g><!--reverse link TeamSport to Sport--><g id="link_TeamSport_Sport"><path codeLine="2" d="M72,200.22 C72,222.67 72,238.5 72,260.91 " fill="none" id="TeamSport-backto-Sport" style="stroke:#181818;stroke-width:1.0;"/><polygon fill="none" points="72,182.22,66,200.22,78,200.22,72,182.22" style="stroke:#181818;stroke-width:1.0;"/><text fill="#000000" font-family="sans-serif" font-size="13" lengthAdjust="spacing" textLength="42" x="73" y="227.8979">inherits</text></g><!--SRC=[2yqfoSnDB4brAyeiJafDLR2fqTLL24bDp0qko2ygKR1IoCpBI2tAB2dcGWY2rQ3B0m00]--></g></svg>