<?xml version="1.0" encoding="us-ascii" standalone="no"?><svg xmlns="http://www.w3.org/2000/svg" xmlns:xlink="http://www.w3.org/1999/xlink" contentStyleType="text/css" height="316px" preserveAspectRatio="none" style="width:102px;height:316px;background:#FFFFFF;" version="1.1" viewBox="0 0 102 316" width="102px" zoomAndPan="magnify"><defs/><g><!--class Triathlon--><g id="elem_Triathlon"><rect fill="#F1F1F1" height="48" id="Triathlon" rx="2.5" ry="2.5" style="stroke:#181818;stroke-width:0.5;" width="88" x="7" y="7"/><ellipse cx="22" cy="23" fill="#ADD1B2" rx="11" ry="11" style="stroke:#181818;stroke-width:1.0;"/><path d="M21.3438,28.8594 Q19.3594,28.8594 18.1875,27.3906 Q17.0313,25.9063 17.0313,22.8281 Q17.0313,20.2188 18.25,18.4688 Q19.4844,16.7188 21.6094,16.7188 Q22.1094,16.7188 22.6406,16.8594 Q23.0781,17.0469 23.3438,17.0469 Q23.5625,17.0469 23.6563,17 Q23.7656,16.9531 24.2188,16.3594 L24.9844,20.0938 L24.0938,20.3594 Q23.6406,18.9063 23.0313,18.3125 Q22.4375,17.7031 21.4844,17.7031 Q20.2656,17.7031 19.5469,19.1406 Q18.8281,20.5625 18.8281,22.75 Q18.8281,25.1563 19.4375,26.4531 Q20.0625,27.7344 21.4219,27.7344 Q22.375,27.7344 23.0625,27.0469 Q23.75,26.3438 24.0781,24.8438 L24.9844,25.25 Q24.5781,26.9531 23.6094,27.9063 Q22.6563,28.8594 21.3438,28.8594 Z " fill="#000000"/><text fill="#000000" font-family="sans-serif" font-size="14" lengthAdjust="spacing" textLength="56" x="36" y="29.4839">Triathlon</text><line style="stroke:#181818;stroke-width:0.5;" x1="8" x2="94" y1="39" y2="39"/><line style="stroke:#181818;stroke-width:0.5;" x1="8" x2="94" y1="47" y2="47"/></g><!--class Sport--><g id="elem_Sport"><rect fill="#F1F1F1" height="48" id="Sport" rx="2.5" ry="2.5" style="stroke:#181818;stroke-width:0.5;" width="66" x="18" y="134"/><ellipse cx="33" cy="150" fill="#ADD1B2" rx="11" ry="11" style="stroke:#181818;stroke-width:1.0;"/><path d="M32.3438,155.8594 Q30.3594,155.8594 29.1875,154.3906 Q28.0313,152.9063 28.0313,149.8281 Q28.0313,147.2188 29.25,145.4688 Q30.4844,143.7188 32.6094,143.7188 Q33.1094,143.7188 33.6406,143.8594 Q34.0781,144.0469 34.3438,144.0469 Q34.5625,144.0469 34.6563,144 Q34.7656,143.9531 35.2188,143.3594 L35.9844,147.0938 L35.0938,147.3594 Q34.6406,145.9063 34.0313,145.3125 Q33.4375,144.7031 32.4844,144.7031 Q31.2656,144.7031 30.5469,146.1406 Q29.8281,147.5625 29.8281,149.75 Q29.8281,152.1563 30.4375,153.4531 Q31.0625,154.7344 32.4219,154.7344 Q33.375,154.7344 34.0625,154.0469 Q34.75,153.3438 35.0781,151.8438 L35.9844,152.25 Q35.5781,153.9531 34.6094,154.9063 Q33.6563,155.8594 32.3438,155.8594 Z " fill="#000000"/><text fill="#000000" font-family="sans-serif" font-size="14" lengthAdjust="spacing" textLength="34" x="47" y="156.4839">Sport</text><line style="stroke:#181818;stroke-width:0.5;" x1="19" x2="83" y1="166" y2="166"/><line style="stroke:#181818;stroke-width:0.5;" x1="19" x2="83" y1="174" y2="174"/></g><!--class Activity--><g id="elem_Activity"><rect fill="#F1F1F1" height="48" id="Activity" rx="2.5" ry="2.5" style="stroke:#181818;stroke-width:0.5;" width="76" x="13" y="261"/><ellipse cx="28" cy="277" fill="#ADD1B2" rx="11" ry="11" style="stroke:#181818;stroke-width:1.0;"/><path d="M27.3438,282.8594 Q25.3594,282.8594 24.1875,281.3906 Q23.0313,279.9063 23.0313,276.8281 Q23.0313,274.2188 24.25,272.4688 Q25.4844,270.7188 27.6094,270.7188 Q28.1094,270.7188 28.6406,270.8594 Q29.0781,271.0469 29.3438,271.0469 Q29.5625,271.0469 29.6563,271 Q29.7656,270.9531 30.2188,270.3594 L30.9844,274.0938 L30.0938,274.3594 Q29.6406,272.9063 29.0313,272.3125 Q28.4375,271.7031 27.4844,271.7031 Q26.2656,271.7031 25.5469,273.1406 Q24.8281,274.5625 24.8281,276.75 Q24.8281,279.1563 25.4375,280.4531 Q26.0625,281.7344 27.4219,281.7344 Q28.375,281.7344 29.0625,281.0469 Q29.75,280.3438 30.0781,278.8438 L30.9844,279.25 Q30.5781,280.9531 29.6094,281.9063 Q28.6563,282.8594 27.3438,282.8594 Z " fill="#000000"/><text fill="#000000" font-family="sans-serif" font-size="14" lengthAdjust="spacing" textLength="44" x="42" y="283.4839">Activity</text><line style="stroke:#181818;stroke-width:0.5;" x1="14" x2="88" y1="293" y2="293"/><line style="stroke:#181818;stroke-width:0.5;" x1="14" x2="88" y1="301" y2="301"/></g><!--reverse link Triathlon to Sport--><g id="link_Triathlon_Sport"><path codeLine="1" d="M51,73.22 C51,95.67 51,111.5 51,133.91 " fill="none" id="Triathlon-backto-Sport" style="stroke:#181818;stroke-width:1.0;"/><polygon fill="none" points="51,55.22,45,73.22,57,73.22,51,55.22" style="stroke:#181818;stroke-width:1.0;"/><text fill="#000000" font-family="sans-serif" font-size="13" lengthAdjust="spacing" textLength="42" x="52" y="100.8979">inherits</text></g><!--reverse link Sport to Activity--><g id="link_Sport_Activity"><path codeLine="2" d="M51,200.22 C51,222.67 51,238.5 51,260.91 " fill="none" id="Sport-backto-Activity" style="stroke:#181818;stroke-width:1.0;"/><polygon fill="none" points="51,182.22,45,200.22,57,200.22,51,182.22" style="stroke:#181818;stroke-width:1.0;"/><text fill="#000000" font-family="sans-serif" font-size="13" lengthAdjust="spacing" textLength="42" x="52" y="227.8979">inherits</text></g><!--SRC=[2odAJ2p9oCdFKx2fqTLL22x8BofHi5B8pCj8BSeiAUQ2283b79DBCiioIogHf040]--></g></svg>