<?xml version="1.0" encoding="us-ascii" standalone="no"?><svg xmlns="http://www.w3.org/2000/svg" xmlns:xlink="http://www.w3.org/1999/xlink" contentStyleType="text/css" height="189px" preserveAspectRatio="none" style="width:149px;height:189px;background:#FFFFFF;" version="1.1" viewBox="0 0 149 189" width="149px" zoomAndPan="magnify"><defs/><g><!--class DeviceCharging--><g id="elem_DeviceCharging"><rect fill="#F1F1F1" height="48" id="DeviceCharging" rx="2.5" ry="2.5" style="stroke:#181818;stroke-width:0.5;" width="133" x="7" y="7"/><ellipse cx="22" cy="23" fill="#ADD1B2" rx="11" ry="11" style="stroke:#181818;stroke-width:1.0;"/><path d="M21.3438,28.8594 Q19.3594,28.8594 18.1875,27.3906 Q17.0313,25.9063 17.0313,22.8281 Q17.0313,20.2188 18.25,18.4688 Q19.4844,16.7188 21.6094,16.7188 Q22.1094,16.7188 22.6406,16.8594 Q23.0781,17.0469 23.3438,17.0469 Q23.5625,17.0469 23.6563,17 Q23.7656,16.9531 24.2188,16.3594 L24.9844,20.0938 L24.0938,20.3594 Q23.6406,18.9063 23.0313,18.3125 Q22.4375,17.7031 21.4844,17.7031 Q20.2656,17.7031 19.5469,19.1406 Q18.8281,20.5625 18.8281,22.75 Q18.8281,25.1563 19.4375,26.4531 Q20.0625,27.7344 21.4219,27.7344 Q22.375,27.7344 23.0625,27.0469 Q23.75,26.3438 24.0781,24.8438 L24.9844,25.25 Q24.5781,26.9531 23.6094,27.9063 Q22.6563,28.8594 21.3438,28.8594 Z " fill="#000000"/><text fill="#000000" font-family="sans-serif" font-size="14" lengthAdjust="spacing" textLength="101" x="36" y="29.4839">DeviceCharging</text><line style="stroke:#181818;stroke-width:0.5;" x1="8" x2="139" y1="39" y2="39"/><line style="stroke:#181818;stroke-width:0.5;" x1="8" x2="139" y1="47" y2="47"/></g><!--class LaptopCharger--><g id="elem_LaptopCharger"><rect fill="#F1F1F1" height="48" id="LaptopCharger" rx="2.5" ry="2.5" style="stroke:#181818;stroke-width:0.5;" width="128" x="9.5" y="134"/><ellipse cx="24.5" cy="150" fill="#ADD1B2" rx="11" ry="11" style="stroke:#181818;stroke-width:1.0;"/><path d="M23.8438,155.8594 Q21.8594,155.8594 20.6875,154.3906 Q19.5313,152.9063 19.5313,149.8281 Q19.5313,147.2188 20.75,145.4688 Q21.9844,143.7188 24.1094,143.7188 Q24.6094,143.7188 25.1406,143.8594 Q25.5781,144.0469 25.8438,144.0469 Q26.0625,144.0469 26.1563,144 Q26.2656,143.9531 26.7188,143.3594 L27.4844,147.0938 L26.5938,147.3594 Q26.1406,145.9063 25.5313,145.3125 Q24.9375,144.7031 23.9844,144.7031 Q22.7656,144.7031 22.0469,146.1406 Q21.3281,147.5625 21.3281,149.75 Q21.3281,152.1563 21.9375,153.4531 Q22.5625,154.7344 23.9219,154.7344 Q24.875,154.7344 25.5625,154.0469 Q26.25,153.3438 26.5781,151.8438 L27.4844,152.25 Q27.0781,153.9531 26.1094,154.9063 Q25.1563,155.8594 23.8438,155.8594 Z " fill="#000000"/><text fill="#000000" font-family="sans-serif" font-size="14" lengthAdjust="spacing" textLength="96" x="38.5" y="156.4839">LaptopCharger</text><line style="stroke:#181818;stroke-width:0.5;" x1="10.5" x2="136.5" y1="166" y2="166"/><line style="stroke:#181818;stroke-width:0.5;" x1="10.5" x2="136.5" y1="174" y2="174"/></g><!--link DeviceCharging to LaptopCharger--><g id="link_DeviceCharging_LaptopCharger"><path codeLine="1" d="M73.5,55.22 C73.5,77.67 73.5,105.5 73.5,127.91 " fill="none" id="DeviceCharging-to-LaptopCharger" style="stroke:#181818;stroke-width:1.0;stroke-dasharray:7.0,7.0;"/><polygon fill="#181818" points="73.5,133.91,77.5,124.91,73.5,128.91,69.5,124.91,73.5,133.91" style="stroke:#181818;stroke-width:1.0;"/><text fill="#000000" font-family="sans-serif" font-size="13" lengthAdjust="spacing" textLength="67" x="74.5" y="100.8979">depends on</text></g><!--SRC=[SqajoqnETSv8B4hFp4jNqDEpK_19B2Z9Bm0BfHOfM2caf1QavgKKA-Jd0G00]--></g></svg>