<?xml version="1.0" encoding="us-ascii" standalone="no"?><svg xmlns="http://www.w3.org/2000/svg" xmlns:xlink="http://www.w3.org/1999/xlink" contentStyleType="text/css" height="316px" preserveAspectRatio="none" style="width:170px;height:316px;background:#FFFFFF;" version="1.1" viewBox="0 0 170 316" width="170px" zoomAndPan="magnify"><defs/><g><!--class GeographicFeature--><g id="elem_GeographicFeature"><rect fill="#F1F1F1" height="48" id="GeographicFeature" rx="2.5" ry="2.5" style="stroke:#181818;stroke-width:0.5;" width="156" x="7" y="7"/><ellipse cx="22" cy="23" fill="#ADD1B2" rx="11" ry="11" style="stroke:#181818;stroke-width:1.0;"/><path d="M21.3438,28.8594 Q19.3594,28.8594 18.1875,27.3906 Q17.0313,25.9063 17.0313,22.8281 Q17.0313,20.2188 18.25,18.4688 Q19.4844,16.7188 21.6094,16.7188 Q22.1094,16.7188 22.6406,16.8594 Q23.0781,17.0469 23.3438,17.0469 Q23.5625,17.0469 23.6563,17 Q23.7656,16.9531 24.2188,16.3594 L24.9844,20.0938 L24.0938,20.3594 Q23.6406,18.9063 23.0313,18.3125 Q22.4375,17.7031 21.4844,17.7031 Q20.2656,17.7031 19.5469,19.1406 Q18.8281,20.5625 18.8281,22.75 Q18.8281,25.1563 19.4375,26.4531 Q20.0625,27.7344 21.4219,27.7344 Q22.375,27.7344 23.0625,27.0469 Q23.75,26.3438 24.0781,24.8438 L24.9844,25.25 Q24.5781,26.9531 23.6094,27.9063 Q22.6563,28.8594 21.3438,28.8594 Z " fill="#000000"/><text fill="#000000" font-family="sans-serif" font-size="14" lengthAdjust="spacing" textLength="124" x="36" y="29.4839">GeographicFeature</text><line style="stroke:#181818;stroke-width:0.5;" x1="8" x2="162" y1="39" y2="39"/><line style="stroke:#181818;stroke-width:0.5;" x1="8" x2="162" y1="47" y2="47"/></g><!--class Volcano--><g id="elem_Volcano"><rect fill="#F1F1F1" height="48" id="Volcano" rx="2.5" ry="2.5" style="stroke:#181818;stroke-width:0.5;" width="83" x="43.5" y="134"/><ellipse cx="58.5" cy="150" fill="#ADD1B2" rx="11" ry="11" style="stroke:#181818;stroke-width:1.0;"/><path d="M57.8438,155.8594 Q55.8594,155.8594 54.6875,154.3906 Q53.5313,152.9063 53.5313,149.8281 Q53.5313,147.2188 54.75,145.4688 Q55.9844,143.7188 58.1094,143.7188 Q58.6094,143.7188 59.1406,143.8594 Q59.5781,144.0469 59.8438,144.0469 Q60.0625,144.0469 60.1563,144 Q60.2656,143.9531 60.7188,143.3594 L61.4844,147.0938 L60.5938,147.3594 Q60.1406,145.9063 59.5313,145.3125 Q58.9375,144.7031 57.9844,144.7031 Q56.7656,144.7031 56.0469,146.1406 Q55.3281,147.5625 55.3281,149.75 Q55.3281,152.1563 55.9375,153.4531 Q56.5625,154.7344 57.9219,154.7344 Q58.875,154.7344 59.5625,154.0469 Q60.25,153.3438 60.5781,151.8438 L61.4844,152.25 Q61.0781,153.9531 60.1094,154.9063 Q59.1563,155.8594 57.8438,155.8594 Z " fill="#000000"/><text fill="#000000" font-family="sans-serif" font-size="14" lengthAdjust="spacing" textLength="51" x="72.5" y="156.4839">Volcano</text><line style="stroke:#181818;stroke-width:0.5;" x1="44.5" x2="125.5" y1="166" y2="166"/><line style="stroke:#181818;stroke-width:0.5;" x1="44.5" x2="125.5" y1="174" y2="174"/></g><!--class Vesuvius--><g id="elem_Vesuvius"><rect fill="#F1F1F1" height="48" id="Vesuvius" rx="2.5" ry="2.5" style="stroke:#181818;stroke-width:0.5;" width="89" x="40.5" y="261"/><ellipse cx="55.5" cy="277" fill="#ADD1B2" rx="11" ry="11" style="stroke:#181818;stroke-width:1.0;"/><path d="M54.8438,282.8594 Q52.8594,282.8594 51.6875,281.3906 Q50.5313,279.9063 50.5313,276.8281 Q50.5313,274.2188 51.75,272.4688 Q52.9844,270.7188 55.1094,270.7188 Q55.6094,270.7188 56.1406,270.8594 Q56.5781,271.0469 56.8438,271.0469 Q57.0625,271.0469 57.1563,271 Q57.2656,270.9531 57.7188,270.3594 L58.4844,274.0938 L57.5938,274.3594 Q57.1406,272.9063 56.5313,272.3125 Q55.9375,271.7031 54.9844,271.7031 Q53.7656,271.7031 53.0469,273.1406 Q52.3281,274.5625 52.3281,276.75 Q52.3281,279.1563 52.9375,280.4531 Q53.5625,281.7344 54.9219,281.7344 Q55.875,281.7344 56.5625,281.0469 Q57.25,280.3438 57.5781,278.8438 L58.4844,279.25 Q58.0781,280.9531 57.1094,281.9063 Q56.1563,282.8594 54.8438,282.8594 Z " fill="#000000"/><text fill="#000000" font-family="sans-serif" font-size="14" lengthAdjust="spacing" textLength="57" x="69.5" y="283.4839">Vesuvius</text><line style="stroke:#181818;stroke-width:0.5;" x1="41.5" x2="128.5" y1="293" y2="293"/><line style="stroke:#181818;stroke-width:0.5;" x1="41.5" x2="128.5" y1="301" y2="301"/></g><!--reverse link GeographicFeature to Volcano--><g id="link_GeographicFeature_Volcano"><path codeLine="1" d="M85,73.22 C85,95.67 85,111.5 85,133.91 " fill="none" id="GeographicFeature-backto-Volcano" style="stroke:#181818;stroke-width:1.0;"/><polygon fill="none" points="85,55.22,79,73.22,91,73.22,85,55.22" style="stroke:#181818;stroke-width:1.0;"/><text fill="#000000" font-family="sans-serif" font-size="13" lengthAdjust="spacing" textLength="42" x="86" y="100.8979">inherits</text></g><!--reverse link Volcano to Vesuvius--><g id="link_Volcano_Vesuvius"><path codeLine="2" d="M85,200.22 C85,222.67 85,238.5 85,260.91 " fill="none" id="Volcano-backto-Vesuvius" style="stroke:#181818;stroke-width:1.0;"/><polygon fill="none" points="85,182.22,79,200.22,91,200.22,85,182.22" style="stroke:#181818;stroke-width:1.0;"/><text fill="#000000" font-family="sans-serif" font-size="13" lengthAdjust="spacing" textLength="42" x="86" y="227.8979">inherits</text></g><!--SRC=[Sq_DJozABCZ8J7PBJImfBKfLiAdHrLK8oyz9JipBLx1IoCpBI2tAB2dcWWb1v5EBIyioIukH5000]--></g></svg>