<?xml version="1.0" encoding="us-ascii" standalone="no"?><svg xmlns="http://www.w3.org/2000/svg" xmlns:xlink="http://www.w3.org/1999/xlink" contentStyleType="text/css" height="316px" preserveAspectRatio="none" style="width:170px;height:316px;background:#FFFFFF;" version="1.1" viewBox="0 0 170 316" width="170px" zoomAndPan="magnify"><defs/><g><!--class GeographicFeature--><g id="elem_GeographicFeature"><rect fill="#F1F1F1" height="48" id="GeographicFeature" rx="2.5" ry="2.5" style="stroke:#181818;stroke-width:0.5;" width="156" x="7" y="7"/><ellipse cx="22" cy="23" fill="#ADD1B2" rx="11" ry="11" style="stroke:#181818;stroke-width:1.0;"/><path d="M21.3438,28.8594 Q19.3594,28.8594 18.1875,27.3906 Q17.0313,25.9063 17.0313,22.8281 Q17.0313,20.2188 18.25,18.4688 Q19.4844,16.7188 21.6094,16.7188 Q22.1094,16.7188 22.6406,16.8594 Q23.0781,17.0469 23.3438,17.0469 Q23.5625,17.0469 23.6563,17 Q23.7656,16.9531 24.2188,16.3594 L24.9844,20.0938 L24.0938,20.3594 Q23.6406,18.9063 23.0313,18.3125 Q22.4375,17.7031 21.4844,17.7031 Q20.2656,17.7031 19.5469,19.1406 Q18.8281,20.5625 18.8281,22.75 Q18.8281,25.1563 19.4375,26.4531 Q20.0625,27.7344 21.4219,27.7344 Q22.375,27.7344 23.0625,27.0469 Q23.75,26.3438 24.0781,24.8438 L24.9844,25.25 Q24.5781,26.9531 23.6094,27.9063 Q22.6563,28.8594 21.3438,28.8594 Z " fill="#000000"/><text fill="#000000" font-family="sans-serif" font-size="14" lengthAdjust="spacing" textLength="124" x="36" y="29.4839">GeographicFeature</text><line style="stroke:#181818;stroke-width:0.5;" x1="8" x2="162" y1="39" y2="39"/><line style="stroke:#181818;stroke-width:0.5;" x1="8" x2="162" y1="47" y2="47"/></g><!--class Lake--><g id="elem_Lake"><rect fill="#F1F1F1" height="48" id="Lake" rx="2.5" ry="2.5" style="stroke:#181818;stroke-width:0.5;" width="63" x="53.5" y="134"/><ellipse cx="68.5" cy="150" fill="#ADD1B2" rx="11" ry="11" style="stroke:#181818;stroke-width:1.0;"/><path d="M67.8438,155.8594 Q65.8594,155.8594 64.6875,154.3906 Q63.5313,152.9063 63.5313,149.8281 Q63.5313,147.2188 64.75,145.4688 Q65.9844,143.7188 68.1094,143.7188 Q68.6094,143.7188 69.1406,143.8594 Q69.5781,144.0469 69.8438,144.0469 Q70.0625,144.0469 70.1563,144 Q70.2656,143.9531 70.7188,143.3594 L71.4844,147.0938 L70.5938,147.3594 Q70.1406,145.9063 69.5313,145.3125 Q68.9375,144.7031 67.9844,144.7031 Q66.7656,144.7031 66.0469,146.1406 Q65.3281,147.5625 65.3281,149.75 Q65.3281,152.1563 65.9375,153.4531 Q66.5625,154.7344 67.9219,154.7344 Q68.875,154.7344 69.5625,154.0469 Q70.25,153.3438 70.5781,151.8438 L71.4844,152.25 Q71.0781,153.9531 70.1094,154.9063 Q69.1563,155.8594 67.8438,155.8594 Z " fill="#000000"/><text fill="#000000" font-family="sans-serif" font-size="14" lengthAdjust="spacing" textLength="31" x="82.5" y="156.4839">Lake</text><line style="stroke:#181818;stroke-width:0.5;" x1="54.5" x2="115.5" y1="166" y2="166"/><line style="stroke:#181818;stroke-width:0.5;" x1="54.5" x2="115.5" y1="174" y2="174"/></g><!--class LakeErie--><g id="elem_LakeErie"><rect fill="#F1F1F1" height="48" id="LakeErie" rx="2.5" ry="2.5" style="stroke:#181818;stroke-width:0.5;" width="88" x="41" y="261"/><ellipse cx="56" cy="277" fill="#ADD1B2" rx="11" ry="11" style="stroke:#181818;stroke-width:1.0;"/><path d="M55.3438,282.8594 Q53.3594,282.8594 52.1875,281.3906 Q51.0313,279.9063 51.0313,276.8281 Q51.0313,274.2188 52.25,272.4688 Q53.4844,270.7188 55.6094,270.7188 Q56.1094,270.7188 56.6406,270.8594 Q57.0781,271.0469 57.3438,271.0469 Q57.5625,271.0469 57.6563,271 Q57.7656,270.9531 58.2188,270.3594 L58.9844,274.0938 L58.0938,274.3594 Q57.6406,272.9063 57.0313,272.3125 Q56.4375,271.7031 55.4844,271.7031 Q54.2656,271.7031 53.5469,273.1406 Q52.8281,274.5625 52.8281,276.75 Q52.8281,279.1563 53.4375,280.4531 Q54.0625,281.7344 55.4219,281.7344 Q56.375,281.7344 57.0625,281.0469 Q57.75,280.3438 58.0781,278.8438 L58.9844,279.25 Q58.5781,280.9531 57.6094,281.9063 Q56.6563,282.8594 55.3438,282.8594 Z " fill="#000000"/><text fill="#000000" font-family="sans-serif" font-size="14" lengthAdjust="spacing" textLength="56" x="70" y="283.4839">LakeErie</text><line style="stroke:#181818;stroke-width:0.5;" x1="42" x2="128" y1="293" y2="293"/><line style="stroke:#181818;stroke-width:0.5;" x1="42" x2="128" y1="301" y2="301"/></g><!--reverse link GeographicFeature to Lake--><g id="link_GeographicFeature_Lake"><path codeLine="1" d="M85,73.22 C85,95.67 85,111.5 85,133.91 " fill="none" id="GeographicFeature-backto-Lake" style="stroke:#181818;stroke-width:1.0;"/><polygon fill="none" points="85,55.22,79,73.22,91,73.22,85,55.22" style="stroke:#181818;stroke-width:1.0;"/><text fill="#000000" font-family="sans-serif" font-size="13" lengthAdjust="spacing" textLength="42" x="86" y="100.8979">inherits</text></g><!--reverse link Lake to LakeErie--><g id="link_Lake_LakeErie"><path codeLine="2" d="M85,200.22 C85,222.67 85,238.5 85,260.91 " fill="none" id="Lake-backto-LakeErie" style="stroke:#181818;stroke-width:1.0;"/><polygon fill="none" points="85,182.22,79,200.22,91,200.22,85,182.22" style="stroke:#181818;stroke-width:1.0;"/><text fill="#000000" font-family="sans-serif" font-size="13" lengthAdjust="spacing" textLength="42" x="86" y="227.8979">inherits</text></g><!--SRC=[Sq_DJozABCZ8J7PBJImfBKfLiAdHrLNmISnELR1IoCpBI2tAB2dc0lFXCgv5cSYo0000]--></g></svg>