<?xml version="1.0" encoding="us-ascii" standalone="no"?><svg xmlns="http://www.w3.org/2000/svg" xmlns:xlink="http://www.w3.org/1999/xlink" contentStyleType="text/css" height="316px" preserveAspectRatio="none" style="width:170px;height:316px;background:#FFFFFF;" version="1.1" viewBox="0 0 170 316" width="170px" zoomAndPan="magnify"><defs/><g><!--class GeographicFeature--><g id="elem_GeographicFeature"><rect fill="#F1F1F1" height="48" id="GeographicFeature" rx="2.5" ry="2.5" style="stroke:#181818;stroke-width:0.5;" width="156" x="7" y="7"/><ellipse cx="22" cy="23" fill="#ADD1B2" rx="11" ry="11" style="stroke:#181818;stroke-width:1.0;"/><path d="M21.3438,28.8594 Q19.3594,28.8594 18.1875,27.3906 Q17.0313,25.9063 17.0313,22.8281 Q17.0313,20.2188 18.25,18.4688 Q19.4844,16.7188 21.6094,16.7188 Q22.1094,16.7188 22.6406,16.8594 Q23.0781,17.0469 23.3438,17.0469 Q23.5625,17.0469 23.6563,17 Q23.7656,16.9531 24.2188,16.3594 L24.9844,20.0938 L24.0938,20.3594 Q23.6406,18.9063 23.0313,18.3125 Q22.4375,17.7031 21.4844,17.7031 Q20.2656,17.7031 19.5469,19.1406 Q18.8281,20.5625 18.8281,22.75 Q18.8281,25.1563 19.4375,26.4531 Q20.0625,27.7344 21.4219,27.7344 Q22.375,27.7344 23.0625,27.0469 Q23.75,26.3438 24.0781,24.8438 L24.9844,25.25 Q24.5781,26.9531 23.6094,27.9063 Q22.6563,28.8594 21.3438,28.8594 Z " fill="#000000"/><text fill="#000000" font-family="sans-serif" font-size="14" lengthAdjust="spacing" textLength="124" x="36" y="29.4839">GeographicFeature</text><line style="stroke:#181818;stroke-width:0.5;" x1="8" x2="162" y1="39" y2="39"/><line style="stroke:#181818;stroke-width:0.5;" x1="8" x2="162" y1="47" y2="47"/></g><!--class Desert--><g id="elem_Desert"><rect fill="#F1F1F1" height="48" id="Desert" rx="2.5" ry="2.5" style="stroke:#181818;stroke-width:0.5;" width="74" x="48" y="134"/><ellipse cx="63" cy="150" fill="#ADD1B2" rx="11" ry="11" style="stroke:#181818;stroke-width:1.0;"/><path d="M62.3438,155.8594 Q60.3594,155.8594 59.1875,154.3906 Q58.0313,152.9063 58.0313,149.8281 Q58.0313,147.2188 59.25,145.4688 Q60.4844,143.7188 62.6094,143.7188 Q63.1094,143.7188 63.6406,143.8594 Q64.0781,144.0469 64.3438,144.0469 Q64.5625,144.0469 64.6563,144 Q64.7656,143.9531 65.2188,143.3594 L65.9844,147.0938 L65.0938,147.3594 Q64.6406,145.9063 64.0313,145.3125 Q63.4375,144.7031 62.4844,144.7031 Q61.2656,144.7031 60.5469,146.1406 Q59.8281,147.5625 59.8281,149.75 Q59.8281,152.1563 60.4375,153.4531 Q61.0625,154.7344 62.4219,154.7344 Q63.375,154.7344 64.0625,154.0469 Q64.75,153.3438 65.0781,151.8438 L65.9844,152.25 Q65.5781,153.9531 64.6094,154.9063 Q63.6563,155.8594 62.3438,155.8594 Z " fill="#000000"/><text fill="#000000" font-family="sans-serif" font-size="14" lengthAdjust="spacing" textLength="42" x="77" y="156.4839">Desert</text><line style="stroke:#181818;stroke-width:0.5;" x1="49" x2="121" y1="166" y2="166"/><line style="stroke:#181818;stroke-width:0.5;" x1="49" x2="121" y1="174" y2="174"/></g><!--class MojaveDesert--><g id="elem_MojaveDesert"><rect fill="#F1F1F1" height="48" id="MojaveDesert" rx="2.5" ry="2.5" style="stroke:#181818;stroke-width:0.5;" width="119" x="25.5" y="261"/><ellipse cx="40.5" cy="277" fill="#ADD1B2" rx="11" ry="11" style="stroke:#181818;stroke-width:1.0;"/><path d="M39.8438,282.8594 Q37.8594,282.8594 36.6875,281.3906 Q35.5313,279.9063 35.5313,276.8281 Q35.5313,274.2188 36.75,272.4688 Q37.9844,270.7188 40.1094,270.7188 Q40.6094,270.7188 41.1406,270.8594 Q41.5781,271.0469 41.8438,271.0469 Q42.0625,271.0469 42.1563,271 Q42.2656,270.9531 42.7188,270.3594 L43.4844,274.0938 L42.5938,274.3594 Q42.1406,272.9063 41.5313,272.3125 Q40.9375,271.7031 39.9844,271.7031 Q38.7656,271.7031 38.0469,273.1406 Q37.3281,274.5625 37.3281,276.75 Q37.3281,279.1563 37.9375,280.4531 Q38.5625,281.7344 39.9219,281.7344 Q40.875,281.7344 41.5625,281.0469 Q42.25,280.3438 42.5781,278.8438 L43.4844,279.25 Q43.0781,280.9531 42.1094,281.9063 Q41.1563,282.8594 39.8438,282.8594 Z " fill="#000000"/><text fill="#000000" font-family="sans-serif" font-size="14" lengthAdjust="spacing" textLength="87" x="54.5" y="283.4839">MojaveDesert</text><line style="stroke:#181818;stroke-width:0.5;" x1="26.5" x2="143.5" y1="293" y2="293"/><line style="stroke:#181818;stroke-width:0.5;" x1="26.5" x2="143.5" y1="301" y2="301"/></g><!--reverse link GeographicFeature to Desert--><g id="link_GeographicFeature_Desert"><path codeLine="1" d="M85,73.22 C85,95.67 85,111.5 85,133.91 " fill="none" id="GeographicFeature-backto-Desert" style="stroke:#181818;stroke-width:1.0;"/><polygon fill="none" points="85,55.22,79,73.22,91,73.22,85,55.22" style="stroke:#181818;stroke-width:1.0;"/><text fill="#000000" font-family="sans-serif" font-size="13" lengthAdjust="spacing" textLength="42" x="86" y="100.8979">inherits</text></g><!--reverse link Desert to MojaveDesert--><g id="link_Desert_MojaveDesert"><path codeLine="2" d="M85,200.22 C85,222.67 85,238.5 85,260.91 " fill="none" id="Desert-backto-MojaveDesert" style="stroke:#181818;stroke-width:1.0;"/><polygon fill="none" points="85,182.22,79,200.22,91,200.22,85,182.22" style="stroke:#181818;stroke-width:1.0;"/><text fill="#000000" font-family="sans-serif" font-size="13" lengthAdjust="spacing" textLength="42" x="86" y="227.8979">inherits</text></g><!--SRC=[Sq_DJozABCZ8J7PBJImfBKfLiAdHrLLmIIrEBIfHi5B8pCj8BSeiAUQ2Ye1bVVEp4ijICTG00000]--></g></svg>