<?xml version="1.0" encoding="us-ascii" standalone="no"?><svg xmlns="http://www.w3.org/2000/svg" xmlns:xlink="http://www.w3.org/1999/xlink" contentStyleType="text/css" height="189px" preserveAspectRatio="none" style="width:301px;height:189px;background:#FFFFFF;" version="1.1" viewBox="0 0 301 189" width="301px" zoomAndPan="magnify"><defs/><g><!--class VideoGame--><g id="elem_VideoGame"><rect fill="#F1F1F1" height="48" id="VideoGame" rx="2.5" ry="2.5" style="stroke:#181818;stroke-width:0.5;" width="106" x="97.5" y="7"/><ellipse cx="112.5" cy="23" fill="#ADD1B2" rx="11" ry="11" style="stroke:#181818;stroke-width:1.0;"/><path d="M111.8438,28.8594 Q109.8594,28.8594 108.6875,27.3906 Q107.5313,25.9063 107.5313,22.8281 Q107.5313,20.2188 108.75,18.4688 Q109.9844,16.7188 112.1094,16.7188 Q112.6094,16.7188 113.1406,16.8594 Q113.5781,17.0469 113.8438,17.0469 Q114.0625,17.0469 114.1563,17 Q114.2656,16.9531 114.7188,16.3594 L115.4844,20.0938 L114.5938,20.3594 Q114.1406,18.9063 113.5313,18.3125 Q112.9375,17.7031 111.9844,17.7031 Q110.7656,17.7031 110.0469,19.1406 Q109.3281,20.5625 109.3281,22.75 Q109.3281,25.1563 109.9375,26.4531 Q110.5625,27.7344 111.9219,27.7344 Q112.875,27.7344 113.5625,27.0469 Q114.25,26.3438 114.5781,24.8438 L115.4844,25.25 Q115.0781,26.9531 114.1094,27.9063 Q113.1563,28.8594 111.8438,28.8594 Z " fill="#000000"/><text fill="#000000" font-family="sans-serif" font-size="14" lengthAdjust="spacing" textLength="74" x="126.5" y="29.4839">VideoGame</text><line style="stroke:#181818;stroke-width:0.5;" x1="98.5" x2="202.5" y1="39" y2="39"/><line style="stroke:#181818;stroke-width:0.5;" x1="98.5" x2="202.5" y1="47" y2="47"/></g><!--class TheLegendOfZeldaTearsOfTheKingdom--><g id="elem_TheLegendOfZeldaTearsOfTheKingdom"><rect fill="#F1F1F1" height="48" id="TheLegendOfZeldaTearsOfTheKingdom" rx="2.5" ry="2.5" style="stroke:#181818;stroke-width:0.5;" width="287" x="7" y="134"/><ellipse cx="22" cy="150" fill="#ADD1B2" rx="11" ry="11" style="stroke:#181818;stroke-width:1.0;"/><path d="M21.3438,155.8594 Q19.3594,155.8594 18.1875,154.3906 Q17.0313,152.9063 17.0313,149.8281 Q17.0313,147.2188 18.25,145.4688 Q19.4844,143.7188 21.6094,143.7188 Q22.1094,143.7188 22.6406,143.8594 Q23.0781,144.0469 23.3438,144.0469 Q23.5625,144.0469 23.6563,144 Q23.7656,143.9531 24.2188,143.3594 L24.9844,147.0938 L24.0938,147.3594 Q23.6406,145.9063 23.0313,145.3125 Q22.4375,144.7031 21.4844,144.7031 Q20.2656,144.7031 19.5469,146.1406 Q18.8281,147.5625 18.8281,149.75 Q18.8281,152.1563 19.4375,153.4531 Q20.0625,154.7344 21.4219,154.7344 Q22.375,154.7344 23.0625,154.0469 Q23.75,153.3438 24.0781,151.8438 L24.9844,152.25 Q24.5781,153.9531 23.6094,154.9063 Q22.6563,155.8594 21.3438,155.8594 Z " fill="#000000"/><text fill="#000000" font-family="sans-serif" font-size="14" lengthAdjust="spacing" textLength="255" x="36" y="156.4839">TheLegendOfZeldaTearsOfTheKingdom</text><line style="stroke:#181818;stroke-width:0.5;" x1="8" x2="293" y1="166" y2="166"/><line style="stroke:#181818;stroke-width:0.5;" x1="8" x2="293" y1="174" y2="174"/></g><!--reverse link VideoGame to TheLegendOfZeldaTearsOfTheKingdom--><g id="link_VideoGame_TheLegendOfZeldaTearsOfTheKingdom"><path codeLine="1" d="M150.5,73.22 C150.5,95.67 150.5,111.5 150.5,133.91 " fill="none" id="VideoGame-backto-TheLegendOfZeldaTearsOfTheKingdom" style="stroke:#181818;stroke-width:1.0;"/><polygon fill="none" points="150.5,55.22,144.5,73.22,156.5,73.22,150.5,55.22" style="stroke:#181818;stroke-width:1.0;"/><text fill="#000000" font-family="sans-serif" font-size="13" lengthAdjust="spacing" textLength="42" x="151.5" y="100.8979">inherits</text></g><!--SRC=[2yjCISrtJynDLR2fqTLL2Cb8zKbDJyrByK-BIir9IGn9JImgzay32djdvgMdvESgM2bavcMa5cMM50C0]--></g></svg>