<?xml version="1.0" encoding="us-ascii" standalone="no"?><svg xmlns="http://www.w3.org/2000/svg" xmlns:xlink="http://www.w3.org/1999/xlink" contentStyleType="text/css" height="316px" preserveAspectRatio="none" style="width:170px;height:316px;background:#FFFFFF;" version="1.1" viewBox="0 0 170 316" width="170px" zoomAndPan="magnify"><defs/><g><!--class RedSea--><g id="elem_RedSea"><rect fill="#F1F1F1" height="48" id="RedSea" rx="2.5" ry="2.5" style="stroke:#181818;stroke-width:0.5;" width="83" x="43.5" y="7"/><ellipse cx="58.5" cy="23" fill="#ADD1B2" rx="11" ry="11" style="stroke:#181818;stroke-width:1.0;"/><path d="M57.8438,28.8594 Q55.8594,28.8594 54.6875,27.3906 Q53.5313,25.9063 53.5313,22.8281 Q53.5313,20.2188 54.75,18.4688 Q55.9844,16.7188 58.1094,16.7188 Q58.6094,16.7188 59.1406,16.8594 Q59.5781,17.0469 59.8438,17.0469 Q60.0625,17.0469 60.1563,17 Q60.2656,16.9531 60.7188,16.3594 L61.4844,20.0938 L60.5938,20.3594 Q60.1406,18.9063 59.5313,18.3125 Q58.9375,17.7031 57.9844,17.7031 Q56.7656,17.7031 56.0469,19.1406 Q55.3281,20.5625 55.3281,22.75 Q55.3281,25.1563 55.9375,26.4531 Q56.5625,27.7344 57.9219,27.7344 Q58.875,27.7344 59.5625,27.0469 Q60.25,26.3438 60.5781,24.8438 L61.4844,25.25 Q61.0781,26.9531 60.1094,27.9063 Q59.1563,28.8594 57.8438,28.8594 Z " fill="#000000"/><text fill="#000000" font-family="sans-serif" font-size="14" lengthAdjust="spacing" textLength="51" x="72.5" y="29.4839">RedSea</text><line style="stroke:#181818;stroke-width:0.5;" x1="44.5" x2="125.5" y1="39" y2="39"/><line style="stroke:#181818;stroke-width:0.5;" x1="44.5" x2="125.5" y1="47" y2="47"/></g><!--class Sea--><g id="elem_Sea"><rect fill="#F1F1F1" height="48" id="Sea" rx="2.5" ry="2.5" style="stroke:#181818;stroke-width:0.5;" width="57" x="56.5" y="134"/><ellipse cx="71.5" cy="150" fill="#ADD1B2" rx="11" ry="11" style="stroke:#181818;stroke-width:1.0;"/><path d="M70.8438,155.8594 Q68.8594,155.8594 67.6875,154.3906 Q66.5313,152.9063 66.5313,149.8281 Q66.5313,147.2188 67.75,145.4688 Q68.9844,143.7188 71.1094,143.7188 Q71.6094,143.7188 72.1406,143.8594 Q72.5781,144.0469 72.8438,144.0469 Q73.0625,144.0469 73.1563,144 Q73.2656,143.9531 73.7188,143.3594 L74.4844,147.0938 L73.5938,147.3594 Q73.1406,145.9063 72.5313,145.3125 Q71.9375,144.7031 70.9844,144.7031 Q69.7656,144.7031 69.0469,146.1406 Q68.3281,147.5625 68.3281,149.75 Q68.3281,152.1563 68.9375,153.4531 Q69.5625,154.7344 70.9219,154.7344 Q71.875,154.7344 72.5625,154.0469 Q73.25,153.3438 73.5781,151.8438 L74.4844,152.25 Q74.0781,153.9531 73.1094,154.9063 Q72.1563,155.8594 70.8438,155.8594 Z " fill="#000000"/><text fill="#000000" font-family="sans-serif" font-size="14" lengthAdjust="spacing" textLength="25" x="85.5" y="156.4839">Sea</text><line style="stroke:#181818;stroke-width:0.5;" x1="57.5" x2="112.5" y1="166" y2="166"/><line style="stroke:#181818;stroke-width:0.5;" x1="57.5" x2="112.5" y1="174" y2="174"/></g><!--class GeographicFeature--><g id="elem_GeographicFeature"><rect fill="#F1F1F1" height="48" id="GeographicFeature" rx="2.5" ry="2.5" style="stroke:#181818;stroke-width:0.5;" width="156" x="7" y="261"/><ellipse cx="22" cy="277" fill="#ADD1B2" rx="11" ry="11" style="stroke:#181818;stroke-width:1.0;"/><path d="M21.3438,282.8594 Q19.3594,282.8594 18.1875,281.3906 Q17.0313,279.9063 17.0313,276.8281 Q17.0313,274.2188 18.25,272.4688 Q19.4844,270.7188 21.6094,270.7188 Q22.1094,270.7188 22.6406,270.8594 Q23.0781,271.0469 23.3438,271.0469 Q23.5625,271.0469 23.6563,271 Q23.7656,270.9531 24.2188,270.3594 L24.9844,274.0938 L24.0938,274.3594 Q23.6406,272.9063 23.0313,272.3125 Q22.4375,271.7031 21.4844,271.7031 Q20.2656,271.7031 19.5469,273.1406 Q18.8281,274.5625 18.8281,276.75 Q18.8281,279.1563 19.4375,280.4531 Q20.0625,281.7344 21.4219,281.7344 Q22.375,281.7344 23.0625,281.0469 Q23.75,280.3438 24.0781,278.8438 L24.9844,279.25 Q24.5781,280.9531 23.6094,281.9063 Q22.6563,282.8594 21.3438,282.8594 Z " fill="#000000"/><text fill="#000000" font-family="sans-serif" font-size="14" lengthAdjust="spacing" textLength="124" x="36" y="283.4839">GeographicFeature</text><line style="stroke:#181818;stroke-width:0.5;" x1="8" x2="162" y1="293" y2="293"/><line style="stroke:#181818;stroke-width:0.5;" x1="8" x2="162" y1="301" y2="301"/></g><!--reverse link RedSea to Sea--><g id="link_RedSea_Sea"><path codeLine="1" d="M85,73.22 C85,95.67 85,111.5 85,133.91 " fill="none" id="RedSea-backto-Sea" style="stroke:#181818;stroke-width:1.0;"/><polygon fill="none" points="85,55.22,79,73.22,91,73.22,85,55.22" style="stroke:#181818;stroke-width:1.0;"/><text fill="#000000" font-family="sans-serif" font-size="13" lengthAdjust="spacing" textLength="42" x="86" y="100.8979">inherits</text></g><!--reverse link Sea to GeographicFeature--><g id="link_Sea_GeographicFeature"><path codeLine="2" d="M85,200.22 C85,222.67 85,238.5 85,260.91 " fill="none" id="Sea-backto-GeographicFeature" style="stroke:#181818;stroke-width:1.0;"/><polygon fill="none" points="85,182.22,79,200.22,91,200.22,85,182.22" style="stroke:#181818;stroke-width:1.0;"/><text fill="#000000" font-family="sans-serif" font-size="13" lengthAdjust="spacing" textLength="42" x="86" y="227.8979">inherits</text></g><!--SRC=[2qfD2KvDLB2fqTLL036i53BpCbABCakAkU3YxgdvwKM91HcPoMwfYIMbHQb8gW00]--></g></svg>