<?xml version="1.0" encoding="us-ascii" standalone="no"?><svg xmlns="http://www.w3.org/2000/svg" xmlns:xlink="http://www.w3.org/1999/xlink" contentStyleType="text/css" height="189px" preserveAspectRatio="none" style="width:140px;height:189px;background:#FFFFFF;" version="1.1" viewBox="0 0 140 189" width="140px" zoomAndPan="magnify"><defs/><g><!--class SheetCutting--><g id="elem_SheetCutting"><rect fill="#F1F1F1" height="48" id="SheetCutting" rx="2.5" ry="2.5" style="stroke:#181818;stroke-width:0.5;" width="114" x="7" y="7"/><ellipse cx="22" cy="23" fill="#ADD1B2" rx="11" ry="11" style="stroke:#181818;stroke-width:1.0;"/><path d="M21.3438,28.8594 Q19.3594,28.8594 18.1875,27.3906 Q17.0313,25.9063 17.0313,22.8281 Q17.0313,20.2188 18.25,18.4688 Q19.4844,16.7188 21.6094,16.7188 Q22.1094,16.7188 22.6406,16.8594 Q23.0781,17.0469 23.3438,17.0469 Q23.5625,17.0469 23.6563,17 Q23.7656,16.9531 24.2188,16.3594 L24.9844,20.0938 L24.0938,20.3594 Q23.6406,18.9063 23.0313,18.3125 Q22.4375,17.7031 21.4844,17.7031 Q20.2656,17.7031 19.5469,19.1406 Q18.8281,20.5625 18.8281,22.75 Q18.8281,25.1563 19.4375,26.4531 Q20.0625,27.7344 21.4219,27.7344 Q22.375,27.7344 23.0625,27.0469 Q23.75,26.3438 24.0781,24.8438 L24.9844,25.25 Q24.5781,26.9531 23.6094,27.9063 Q22.6563,28.8594 21.3438,28.8594 Z " fill="#000000"/><text fill="#000000" font-family="sans-serif" font-size="14" lengthAdjust="spacing" textLength="82" x="36" y="29.4839">SheetCutting</text><line style="stroke:#181818;stroke-width:0.5;" x1="8" x2="120" y1="39" y2="39"/><line style="stroke:#181818;stroke-width:0.5;" x1="8" x2="120" y1="47" y2="47"/></g><!--class LaserCutter--><g id="elem_LaserCutter"><rect fill="#F1F1F1" height="48" id="LaserCutter" rx="2.5" ry="2.5" style="stroke:#181818;stroke-width:0.5;" width="107" x="10.5" y="134"/><ellipse cx="25.5" cy="150" fill="#ADD1B2" rx="11" ry="11" style="stroke:#181818;stroke-width:1.0;"/><path d="M24.8438,155.8594 Q22.8594,155.8594 21.6875,154.3906 Q20.5313,152.9063 20.5313,149.8281 Q20.5313,147.2188 21.75,145.4688 Q22.9844,143.7188 25.1094,143.7188 Q25.6094,143.7188 26.1406,143.8594 Q26.5781,144.0469 26.8438,144.0469 Q27.0625,144.0469 27.1563,144 Q27.2656,143.9531 27.7188,143.3594 L28.4844,147.0938 L27.5938,147.3594 Q27.1406,145.9063 26.5313,145.3125 Q25.9375,144.7031 24.9844,144.7031 Q23.7656,144.7031 23.0469,146.1406 Q22.3281,147.5625 22.3281,149.75 Q22.3281,152.1563 22.9375,153.4531 Q23.5625,154.7344 24.9219,154.7344 Q25.875,154.7344 26.5625,154.0469 Q27.25,153.3438 27.5781,151.8438 L28.4844,152.25 Q28.0781,153.9531 27.1094,154.9063 Q26.1563,155.8594 24.8438,155.8594 Z " fill="#000000"/><text fill="#000000" font-family="sans-serif" font-size="14" lengthAdjust="spacing" textLength="75" x="39.5" y="156.4839">LaserCutter</text><line style="stroke:#181818;stroke-width:0.5;" x1="11.5" x2="116.5" y1="166" y2="166"/><line style="stroke:#181818;stroke-width:0.5;" x1="11.5" x2="116.5" y1="174" y2="174"/></g><!--link SheetCutting to LaserCutter--><g id="link_SheetCutting_LaserCutter"><path codeLine="1" d="M64,55.22 C64,77.67 64,105.5 64,127.91 " fill="none" id="SheetCutting-to-LaserCutter" style="stroke:#181818;stroke-width:1.0;stroke-dasharray:7.0,7.0;"/><polygon fill="#181818" points="64,133.91,68,124.91,64,128.91,60,124.91,64,133.91" style="stroke:#181818;stroke-width:1.0;"/><text fill="#000000" font-family="sans-serif" font-size="13" lengthAdjust="spacing" textLength="67" x="65" y="100.8979">depends on</text></g><!--SRC=[2yv8JIrnBYqfoSnBLz3JirFmIInEBG89f1OfM2caf1QavgKKA-Jd0G00]--></g></svg>