<?xml version="1.0" encoding="us-ascii" standalone="no"?><svg xmlns="http://www.w3.org/2000/svg" xmlns:xlink="http://www.w3.org/1999/xlink" contentStyleType="text/css" height="316px" preserveAspectRatio="none" style="width:139px;height:316px;background:#FFFFFF;" version="1.1" viewBox="0 0 139 316" width="139px" zoomAndPan="magnify"><defs/><g><!--class SlowCooker--><g id="elem_SlowCooker"><rect fill="#F1F1F1" height="48" id="SlowCooker" rx="2.5" ry="2.5" style="stroke:#181818;stroke-width:0.5;" width="107" x="10" y="134"/><ellipse cx="25" cy="150" fill="#ADD1B2" rx="11" ry="11" style="stroke:#181818;stroke-width:1.0;"/><path d="M24.3438,155.8594 Q22.3594,155.8594 21.1875,154.3906 Q20.0313,152.9063 20.0313,149.8281 Q20.0313,147.2188 21.25,145.4688 Q22.4844,143.7188 24.6094,143.7188 Q25.1094,143.7188 25.6406,143.8594 Q26.0781,144.0469 26.3438,144.0469 Q26.5625,144.0469 26.6563,144 Q26.7656,143.9531 27.2188,143.3594 L27.9844,147.0938 L27.0938,147.3594 Q26.6406,145.9063 26.0313,145.3125 Q25.4375,144.7031 24.4844,144.7031 Q23.2656,144.7031 22.5469,146.1406 Q21.8281,147.5625 21.8281,149.75 Q21.8281,152.1563 22.4375,153.4531 Q23.0625,154.7344 24.4219,154.7344 Q25.375,154.7344 26.0625,154.0469 Q26.75,153.3438 27.0781,151.8438 L27.9844,152.25 Q27.5781,153.9531 26.6094,154.9063 Q25.6563,155.8594 24.3438,155.8594 Z " fill="#000000"/><text fill="#000000" font-family="sans-serif" font-size="14" lengthAdjust="spacing" textLength="75" x="39" y="156.4839">SlowCooker</text><line style="stroke:#181818;stroke-width:0.5;" x1="11" x2="116" y1="166" y2="166"/><line style="stroke:#181818;stroke-width:0.5;" x1="11" x2="116" y1="174" y2="174"/></g><!--class SlowCooking--><g id="elem_SlowCooking"><rect fill="#F1F1F1" height="48" id="SlowCooking" rx="2.5" ry="2.5" style="stroke:#181818;stroke-width:0.5;" width="113" x="7" y="261"/><ellipse cx="22" cy="277" fill="#ADD1B2" rx="11" ry="11" style="stroke:#181818;stroke-width:1.0;"/><path d="M21.3438,282.8594 Q19.3594,282.8594 18.1875,281.3906 Q17.0313,279.9063 17.0313,276.8281 Q17.0313,274.2188 18.25,272.4688 Q19.4844,270.7188 21.6094,270.7188 Q22.1094,270.7188 22.6406,270.8594 Q23.0781,271.0469 23.3438,271.0469 Q23.5625,271.0469 23.6563,271 Q23.7656,270.9531 24.2188,270.3594 L24.9844,274.0938 L24.0938,274.3594 Q23.6406,272.9063 23.0313,272.3125 Q22.4375,271.7031 21.4844,271.7031 Q20.2656,271.7031 19.5469,273.1406 Q18.8281,274.5625 18.8281,276.75 Q18.8281,279.1563 19.4375,280.4531 Q20.0625,281.7344 21.4219,281.7344 Q22.375,281.7344 23.0625,281.0469 Q23.75,280.3438 24.0781,278.8438 L24.9844,279.25 Q24.5781,280.9531 23.6094,281.9063 Q22.6563,282.8594 21.3438,282.8594 Z " fill="#000000"/><text fill="#000000" font-family="sans-serif" font-size="14" lengthAdjust="spacing" textLength="81" x="36" y="283.4839">SlowCooking</text><line style="stroke:#181818;stroke-width:0.5;" x1="8" x2="119" y1="293" y2="293"/><line style="stroke:#181818;stroke-width:0.5;" x1="8" x2="119" y1="301" y2="301"/></g><!--class Electricity--><g id="elem_Electricity"><rect fill="#F1F1F1" height="48" id="Electricity" rx="2.5" ry="2.5" style="stroke:#181818;stroke-width:0.5;" width="92" x="17.5" y="7"/><ellipse cx="32.5" cy="23" fill="#ADD1B2" rx="11" ry="11" style="stroke:#181818;stroke-width:1.0;"/><path d="M31.8438,28.8594 Q29.8594,28.8594 28.6875,27.3906 Q27.5313,25.9063 27.5313,22.8281 Q27.5313,20.2188 28.75,18.4688 Q29.9844,16.7188 32.1094,16.7188 Q32.6094,16.7188 33.1406,16.8594 Q33.5781,17.0469 33.8438,17.0469 Q34.0625,17.0469 34.1563,17 Q34.2656,16.9531 34.7188,16.3594 L35.4844,20.0938 L34.5938,20.3594 Q34.1406,18.9063 33.5313,18.3125 Q32.9375,17.7031 31.9844,17.7031 Q30.7656,17.7031 30.0469,19.1406 Q29.3281,20.5625 29.3281,22.75 Q29.3281,25.1563 29.9375,26.4531 Q30.5625,27.7344 31.9219,27.7344 Q32.875,27.7344 33.5625,27.0469 Q34.25,26.3438 34.5781,24.8438 L35.4844,25.25 Q35.0781,26.9531 34.1094,27.9063 Q33.1563,28.8594 31.8438,28.8594 Z " fill="#000000"/><text fill="#000000" font-family="sans-serif" font-size="14" lengthAdjust="spacing" textLength="60" x="46.5" y="29.4839">Electricity</text><line style="stroke:#181818;stroke-width:0.5;" x1="18.5" x2="108.5" y1="39" y2="39"/><line style="stroke:#181818;stroke-width:0.5;" x1="18.5" x2="108.5" y1="47" y2="47"/></g><!--link SlowCooker to SlowCooking--><g id="link_SlowCooker_SlowCooking"><path codeLine="1" d="M63.5,182.22 C63.5,204.67 63.5,232.5 63.5,254.91 " fill="none" id="SlowCooker-to-SlowCooking" style="stroke:#181818;stroke-width:1.0;stroke-dasharray:7.0,7.0;"/><polygon fill="#181818" points="63.5,260.91,67.5,251.91,63.5,255.91,59.5,251.91,63.5,260.91" style="stroke:#181818;stroke-width:1.0;"/><text fill="#000000" font-family="sans-serif" font-size="13" lengthAdjust="spacing" textLength="67" x="64.5" y="227.8979">depends on</text></g><!--link Electricity to SlowCooker--><g id="link_Electricity_SlowCooker"><path codeLine="2" d="M63.5,55.22 C63.5,77.67 63.5,105.5 63.5,127.91 " fill="none" id="Electricity-to-SlowCooker" style="stroke:#181818;stroke-width:1.0;stroke-dasharray:7.0,7.0;"/><polygon fill="#181818" points="63.5,133.91,67.5,124.91,63.5,128.91,59.5,124.91,63.5,133.91" style="stroke:#181818;stroke-width:1.0;"/><text fill="#000000" font-family="sans-serif" font-size="13" lengthAdjust="spacing" textLength="67" x="64.5" y="100.8979">depends on</text></g><!--SRC=[2yx9BtVEpyzEBLBGqxDJ28PoC_FI5QmKKb8BKlDIYXNoyxXSSrAJIueoapDBAb4K0lKXgmC0]--></g></svg>