<?xml version="1.0" encoding="us-ascii" standalone="no"?><svg xmlns="http://www.w3.org/2000/svg" xmlns:xlink="http://www.w3.org/1999/xlink" contentStyleType="text/css" height="316px" preserveAspectRatio="none" style="width:142px;height:316px;background:#FFFFFF;" version="1.1" viewBox="0 0 142 316" width="142px" zoomAndPan="magnify"><defs/><g><!--class SmokeAlarm--><g id="elem_SmokeAlarm"><rect fill="#F1F1F1" height="48" id="SmokeAlarm" rx="2.5" ry="2.5" style="stroke:#181818;stroke-width:0.5;" width="111" x="11" y="134"/><ellipse cx="26" cy="150" fill="#ADD1B2" rx="11" ry="11" style="stroke:#181818;stroke-width:1.0;"/><path d="M25.3438,155.8594 Q23.3594,155.8594 22.1875,154.3906 Q21.0313,152.9063 21.0313,149.8281 Q21.0313,147.2188 22.25,145.4688 Q23.4844,143.7188 25.6094,143.7188 Q26.1094,143.7188 26.6406,143.8594 Q27.0781,144.0469 27.3438,144.0469 Q27.5625,144.0469 27.6563,144 Q27.7656,143.9531 28.2188,143.3594 L28.9844,147.0938 L28.0938,147.3594 Q27.6406,145.9063 27.0313,145.3125 Q26.4375,144.7031 25.4844,144.7031 Q24.2656,144.7031 23.5469,146.1406 Q22.8281,147.5625 22.8281,149.75 Q22.8281,152.1563 23.4375,153.4531 Q24.0625,154.7344 25.4219,154.7344 Q26.375,154.7344 27.0625,154.0469 Q27.75,153.3438 28.0781,151.8438 L28.9844,152.25 Q28.5781,153.9531 27.6094,154.9063 Q26.6563,155.8594 25.3438,155.8594 Z " fill="#000000"/><text fill="#000000" font-family="sans-serif" font-size="14" lengthAdjust="spacing" textLength="79" x="40" y="156.4839">SmokeAlarm</text><line style="stroke:#181818;stroke-width:0.5;" x1="12" x2="121" y1="166" y2="166"/><line style="stroke:#181818;stroke-width:0.5;" x1="12" x2="121" y1="174" y2="174"/></g><!--class HomeSecurity--><g id="elem_HomeSecurity"><rect fill="#F1F1F1" height="48" id="HomeSecurity" rx="2.5" ry="2.5" style="stroke:#181818;stroke-width:0.5;" width="119" x="7" y="261"/><ellipse cx="22" cy="277" fill="#ADD1B2" rx="11" ry="11" style="stroke:#181818;stroke-width:1.0;"/><path d="M21.3438,282.8594 Q19.3594,282.8594 18.1875,281.3906 Q17.0313,279.9063 17.0313,276.8281 Q17.0313,274.2188 18.25,272.4688 Q19.4844,270.7188 21.6094,270.7188 Q22.1094,270.7188 22.6406,270.8594 Q23.0781,271.0469 23.3438,271.0469 Q23.5625,271.0469 23.6563,271 Q23.7656,270.9531 24.2188,270.3594 L24.9844,274.0938 L24.0938,274.3594 Q23.6406,272.9063 23.0313,272.3125 Q22.4375,271.7031 21.4844,271.7031 Q20.2656,271.7031 19.5469,273.1406 Q18.8281,274.5625 18.8281,276.75 Q18.8281,279.1563 19.4375,280.4531 Q20.0625,281.7344 21.4219,281.7344 Q22.375,281.7344 23.0625,281.0469 Q23.75,280.3438 24.0781,278.8438 L24.9844,279.25 Q24.5781,280.9531 23.6094,281.9063 Q22.6563,282.8594 21.3438,282.8594 Z " fill="#000000"/><text fill="#000000" font-family="sans-serif" font-size="14" lengthAdjust="spacing" textLength="87" x="36" y="283.4839">HomeSecurity</text><line style="stroke:#181818;stroke-width:0.5;" x1="8" x2="125" y1="293" y2="293"/><line style="stroke:#181818;stroke-width:0.5;" x1="8" x2="125" y1="301" y2="301"/></g><!--class Electricity--><g id="elem_Electricity"><rect fill="#F1F1F1" height="48" id="Electricity" rx="2.5" ry="2.5" style="stroke:#181818;stroke-width:0.5;" width="92" x="20.5" y="7"/><ellipse cx="35.5" cy="23" fill="#ADD1B2" rx="11" ry="11" style="stroke:#181818;stroke-width:1.0;"/><path d="M34.8438,28.8594 Q32.8594,28.8594 31.6875,27.3906 Q30.5313,25.9063 30.5313,22.8281 Q30.5313,20.2188 31.75,18.4688 Q32.9844,16.7188 35.1094,16.7188 Q35.6094,16.7188 36.1406,16.8594 Q36.5781,17.0469 36.8438,17.0469 Q37.0625,17.0469 37.1563,17 Q37.2656,16.9531 37.7188,16.3594 L38.4844,20.0938 L37.5938,20.3594 Q37.1406,18.9063 36.5313,18.3125 Q35.9375,17.7031 34.9844,17.7031 Q33.7656,17.7031 33.0469,19.1406 Q32.3281,20.5625 32.3281,22.75 Q32.3281,25.1563 32.9375,26.4531 Q33.5625,27.7344 34.9219,27.7344 Q35.875,27.7344 36.5625,27.0469 Q37.25,26.3438 37.5781,24.8438 L38.4844,25.25 Q38.0781,26.9531 37.1094,27.9063 Q36.1563,28.8594 34.8438,28.8594 Z " fill="#000000"/><text fill="#000000" font-family="sans-serif" font-size="14" lengthAdjust="spacing" textLength="60" x="49.5" y="29.4839">Electricity</text><line style="stroke:#181818;stroke-width:0.5;" x1="21.5" x2="111.5" y1="39" y2="39"/><line style="stroke:#181818;stroke-width:0.5;" x1="21.5" x2="111.5" y1="47" y2="47"/></g><!--link SmokeAlarm to HomeSecurity--><g id="link_SmokeAlarm_HomeSecurity"><path codeLine="1" d="M66.5,182.22 C66.5,204.67 66.5,232.5 66.5,254.91 " fill="none" id="SmokeAlarm-to-HomeSecurity" style="stroke:#181818;stroke-width:1.0;stroke-dasharray:7.0,7.0;"/><polygon fill="#181818" points="66.5,260.91,70.5,251.91,66.5,255.91,62.5,251.91,66.5,260.91" style="stroke:#181818;stroke-width:1.0;"/><text fill="#000000" font-family="sans-serif" font-size="13" lengthAdjust="spacing" textLength="67" x="67.5" y="227.8979">depends on</text></g><!--link Electricity to SmokeAlarm--><g id="link_Electricity_SmokeAlarm"><path codeLine="2" d="M66.5,55.22 C66.5,77.67 66.5,105.5 66.5,127.91 " fill="none" id="Electricity-to-SmokeAlarm" style="stroke:#181818;stroke-width:1.0;stroke-dasharray:7.0,7.0;"/><polygon fill="#181818" points="66.5,133.91,70.5,124.91,66.5,128.91,62.5,124.91,66.5,133.91" style="stroke:#181818;stroke-width:1.0;"/><text fill="#000000" font-family="sans-serif" font-size="13" lengthAdjust="spacing" textLength="67" x="67.5" y="100.8979">depends on</text></g><!--SRC=[2yxDpqvrp4aiobNGqxDJyCZFJGrEJIujoYofLB1II4ajICrBALR8p-DopKbDBYdAJ0P9W5G68pGYgmC0]--></g></svg>