<?xml version="1.0" encoding="us-ascii" standalone="no"?><svg xmlns="http://www.w3.org/2000/svg" xmlns:xlink="http://www.w3.org/1999/xlink" contentStyleType="text/css" height="316px" preserveAspectRatio="none" style="width:148px;height:316px;background:#FFFFFF;" version="1.1" viewBox="0 0 148 316" width="148px" zoomAndPan="magnify"><defs/><g><!--class Dehumidifier--><g id="elem_Dehumidifier"><rect fill="#F1F1F1" height="48" id="Dehumidifier" rx="2.5" ry="2.5" style="stroke:#181818;stroke-width:0.5;" width="111" x="16.5" y="134"/><ellipse cx="31.5" cy="150" fill="#ADD1B2" rx="11" ry="11" style="stroke:#181818;stroke-width:1.0;"/><path d="M30.8438,155.8594 Q28.8594,155.8594 27.6875,154.3906 Q26.5313,152.9063 26.5313,149.8281 Q26.5313,147.2188 27.75,145.4688 Q28.9844,143.7188 31.1094,143.7188 Q31.6094,143.7188 32.1406,143.8594 Q32.5781,144.0469 32.8438,144.0469 Q33.0625,144.0469 33.1563,144 Q33.2656,143.9531 33.7188,143.3594 L34.4844,147.0938 L33.5938,147.3594 Q33.1406,145.9063 32.5313,145.3125 Q31.9375,144.7031 30.9844,144.7031 Q29.7656,144.7031 29.0469,146.1406 Q28.3281,147.5625 28.3281,149.75 Q28.3281,152.1563 28.9375,153.4531 Q29.5625,154.7344 30.9219,154.7344 Q31.875,154.7344 32.5625,154.0469 Q33.25,153.3438 33.5781,151.8438 L34.4844,152.25 Q34.0781,153.9531 33.1094,154.9063 Q32.1563,155.8594 30.8438,155.8594 Z " fill="#000000"/><text fill="#000000" font-family="sans-serif" font-size="14" lengthAdjust="spacing" textLength="79" x="45.5" y="156.4839">Dehumidifier</text><line style="stroke:#181818;stroke-width:0.5;" x1="17.5" x2="126.5" y1="166" y2="166"/><line style="stroke:#181818;stroke-width:0.5;" x1="17.5" x2="126.5" y1="174" y2="174"/></g><!--class MoldPrevention--><g id="elem_MoldPrevention"><rect fill="#F1F1F1" height="48" id="MoldPrevention" rx="2.5" ry="2.5" style="stroke:#181818;stroke-width:0.5;" width="130" x="7" y="261"/><ellipse cx="22" cy="277" fill="#ADD1B2" rx="11" ry="11" style="stroke:#181818;stroke-width:1.0;"/><path d="M21.3438,282.8594 Q19.3594,282.8594 18.1875,281.3906 Q17.0313,279.9063 17.0313,276.8281 Q17.0313,274.2188 18.25,272.4688 Q19.4844,270.7188 21.6094,270.7188 Q22.1094,270.7188 22.6406,270.8594 Q23.0781,271.0469 23.3438,271.0469 Q23.5625,271.0469 23.6563,271 Q23.7656,270.9531 24.2188,270.3594 L24.9844,274.0938 L24.0938,274.3594 Q23.6406,272.9063 23.0313,272.3125 Q22.4375,271.7031 21.4844,271.7031 Q20.2656,271.7031 19.5469,273.1406 Q18.8281,274.5625 18.8281,276.75 Q18.8281,279.1563 19.4375,280.4531 Q20.0625,281.7344 21.4219,281.7344 Q22.375,281.7344 23.0625,281.0469 Q23.75,280.3438 24.0781,278.8438 L24.9844,279.25 Q24.5781,280.9531 23.6094,281.9063 Q22.6563,282.8594 21.3438,282.8594 Z " fill="#000000"/><text fill="#000000" font-family="sans-serif" font-size="14" lengthAdjust="spacing" textLength="98" x="36" y="283.4839">MoldPrevention</text><line style="stroke:#181818;stroke-width:0.5;" x1="8" x2="136" y1="293" y2="293"/><line style="stroke:#181818;stroke-width:0.5;" x1="8" x2="136" y1="301" y2="301"/></g><!--class Electricity--><g id="elem_Electricity"><rect fill="#F1F1F1" height="48" id="Electricity" rx="2.5" ry="2.5" style="stroke:#181818;stroke-width:0.5;" width="92" x="26" y="7"/><ellipse cx="41" cy="23" fill="#ADD1B2" rx="11" ry="11" style="stroke:#181818;stroke-width:1.0;"/><path d="M40.3438,28.8594 Q38.3594,28.8594 37.1875,27.3906 Q36.0313,25.9063 36.0313,22.8281 Q36.0313,20.2188 37.25,18.4688 Q38.4844,16.7188 40.6094,16.7188 Q41.1094,16.7188 41.6406,16.8594 Q42.0781,17.0469 42.3438,17.0469 Q42.5625,17.0469 42.6563,17 Q42.7656,16.9531 43.2188,16.3594 L43.9844,20.0938 L43.0938,20.3594 Q42.6406,18.9063 42.0313,18.3125 Q41.4375,17.7031 40.4844,17.7031 Q39.2656,17.7031 38.5469,19.1406 Q37.8281,20.5625 37.8281,22.75 Q37.8281,25.1563 38.4375,26.4531 Q39.0625,27.7344 40.4219,27.7344 Q41.375,27.7344 42.0625,27.0469 Q42.75,26.3438 43.0781,24.8438 L43.9844,25.25 Q43.5781,26.9531 42.6094,27.9063 Q41.6563,28.8594 40.3438,28.8594 Z " fill="#000000"/><text fill="#000000" font-family="sans-serif" font-size="14" lengthAdjust="spacing" textLength="60" x="55" y="29.4839">Electricity</text><line style="stroke:#181818;stroke-width:0.5;" x1="27" x2="117" y1="39" y2="39"/><line style="stroke:#181818;stroke-width:0.5;" x1="27" x2="117" y1="47" y2="47"/></g><!--link Dehumidifier to MoldPrevention--><g id="link_Dehumidifier_MoldPrevention"><path codeLine="1" d="M72,182.22 C72,204.67 72,232.5 72,254.91 " fill="none" id="Dehumidifier-to-MoldPrevention" style="stroke:#181818;stroke-width:1.0;stroke-dasharray:7.0,7.0;"/><polygon fill="#181818" points="72,260.91,76,251.91,72,255.91,68,251.91,72,260.91" style="stroke:#181818;stroke-width:1.0;"/><text fill="#000000" font-family="sans-serif" font-size="13" lengthAdjust="spacing" textLength="67" x="73" y="227.8979">depends on</text></g><!--link Electricity to Dehumidifier--><g id="link_Electricity_Dehumidifier"><path codeLine="2" d="M72,55.22 C72,77.67 72,105.5 72,127.91 " fill="none" id="Electricity-to-Dehumidifier" style="stroke:#181818;stroke-width:1.0;stroke-dasharray:7.0,7.0;"/><polygon fill="#181818" points="72,133.91,76,124.91,72,128.91,68,124.91,72,133.91" style="stroke:#181818;stroke-width:1.0;"/><text fill="#000000" font-family="sans-serif" font-size="13" lengthAdjust="spacing" textLength="67" x="73" y="100.8979">depends on</text></g><!--SRC=[SqdDACtDJCbCoqmjKj3JirFmpSz92IXABKlDAydCprEmKaX9BKZDIobMoC_ZSir9JIufoapEBAa4gtL1reoi4W00]--></g></svg>