<?xml version="1.0" encoding="us-ascii" standalone="no"?><svg xmlns="http://www.w3.org/2000/svg" xmlns:xlink="http://www.w3.org/1999/xlink" contentStyleType="text/css" height="316px" preserveAspectRatio="none" style="width:152px;height:316px;background:#FFFFFF;" version="1.1" viewBox="0 0 152 316" width="152px" zoomAndPan="magnify"><defs/><g><!--class Magma--><g id="elem_Magma"><rect fill="#F1F1F1" height="48" id="Magma" rx="2.5" ry="2.5" style="stroke:#181818;stroke-width:0.5;" width="78" x="37" y="134"/><ellipse cx="52" cy="150" fill="#ADD1B2" rx="11" ry="11" style="stroke:#181818;stroke-width:1.0;"/><path d="M51.3438,155.8594 Q49.3594,155.8594 48.1875,154.3906 Q47.0313,152.9063 47.0313,149.8281 Q47.0313,147.2188 48.25,145.4688 Q49.4844,143.7188 51.6094,143.7188 Q52.1094,143.7188 52.6406,143.8594 Q53.0781,144.0469 53.3438,144.0469 Q53.5625,144.0469 53.6563,144 Q53.7656,143.9531 54.2188,143.3594 L54.9844,147.0938 L54.0938,147.3594 Q53.6406,145.9063 53.0313,145.3125 Q52.4375,144.7031 51.4844,144.7031 Q50.2656,144.7031 49.5469,146.1406 Q48.8281,147.5625 48.8281,149.75 Q48.8281,152.1563 49.4375,153.4531 Q50.0625,154.7344 51.4219,154.7344 Q52.375,154.7344 53.0625,154.0469 Q53.75,153.3438 54.0781,151.8438 L54.9844,152.25 Q54.5781,153.9531 53.6094,154.9063 Q52.6563,155.8594 51.3438,155.8594 Z " fill="#000000"/><text fill="#000000" font-family="sans-serif" font-size="14" lengthAdjust="spacing" textLength="46" x="66" y="156.4839">Magma</text><line style="stroke:#181818;stroke-width:0.5;" x1="38" x2="114" y1="166" y2="166"/><line style="stroke:#181818;stroke-width:0.5;" x1="38" x2="114" y1="174" y2="174"/></g><!--class EarthHeat--><g id="elem_EarthHeat"><rect fill="#F1F1F1" height="48" id="EarthHeat" rx="2.5" ry="2.5" style="stroke:#181818;stroke-width:0.5;" width="95" x="28.5" y="261"/><ellipse cx="43.5" cy="277" fill="#ADD1B2" rx="11" ry="11" style="stroke:#181818;stroke-width:1.0;"/><path d="M42.8438,282.8594 Q40.8594,282.8594 39.6875,281.3906 Q38.5313,279.9063 38.5313,276.8281 Q38.5313,274.2188 39.75,272.4688 Q40.9844,270.7188 43.1094,270.7188 Q43.6094,270.7188 44.1406,270.8594 Q44.5781,271.0469 44.8438,271.0469 Q45.0625,271.0469 45.1563,271 Q45.2656,270.9531 45.7188,270.3594 L46.4844,274.0938 L45.5938,274.3594 Q45.1406,272.9063 44.5313,272.3125 Q43.9375,271.7031 42.9844,271.7031 Q41.7656,271.7031 41.0469,273.1406 Q40.3281,274.5625 40.3281,276.75 Q40.3281,279.1563 40.9375,280.4531 Q41.5625,281.7344 42.9219,281.7344 Q43.875,281.7344 44.5625,281.0469 Q45.25,280.3438 45.5781,278.8438 L46.4844,279.25 Q46.0781,280.9531 45.1094,281.9063 Q44.1563,282.8594 42.8438,282.8594 Z " fill="#000000"/><text fill="#000000" font-family="sans-serif" font-size="14" lengthAdjust="spacing" textLength="63" x="57.5" y="283.4839">EarthHeat</text><line style="stroke:#181818;stroke-width:0.5;" x1="29.5" x2="122.5" y1="293" y2="293"/><line style="stroke:#181818;stroke-width:0.5;" x1="29.5" x2="122.5" y1="301" y2="301"/></g><!--class VolcanicEruption--><g id="elem_VolcanicEruption"><rect fill="#F1F1F1" height="48" id="VolcanicEruption" rx="2.5" ry="2.5" style="stroke:#181818;stroke-width:0.5;" width="138" x="7" y="7"/><ellipse cx="22" cy="23" fill="#ADD1B2" rx="11" ry="11" style="stroke:#181818;stroke-width:1.0;"/><path d="M21.3438,28.8594 Q19.3594,28.8594 18.1875,27.3906 Q17.0313,25.9063 17.0313,22.8281 Q17.0313,20.2188 18.25,18.4688 Q19.4844,16.7188 21.6094,16.7188 Q22.1094,16.7188 22.6406,16.8594 Q23.0781,17.0469 23.3438,17.0469 Q23.5625,17.0469 23.6563,17 Q23.7656,16.9531 24.2188,16.3594 L24.9844,20.0938 L24.0938,20.3594 Q23.6406,18.9063 23.0313,18.3125 Q22.4375,17.7031 21.4844,17.7031 Q20.2656,17.7031 19.5469,19.1406 Q18.8281,20.5625 18.8281,22.75 Q18.8281,25.1563 19.4375,26.4531 Q20.0625,27.7344 21.4219,27.7344 Q22.375,27.7344 23.0625,27.0469 Q23.75,26.3438 24.0781,24.8438 L24.9844,25.25 Q24.5781,26.9531 23.6094,27.9063 Q22.6563,28.8594 21.3438,28.8594 Z " fill="#000000"/><text fill="#000000" font-family="sans-serif" font-size="14" lengthAdjust="spacing" textLength="106" x="36" y="29.4839">VolcanicEruption</text><line style="stroke:#181818;stroke-width:0.5;" x1="8" x2="144" y1="39" y2="39"/><line style="stroke:#181818;stroke-width:0.5;" x1="8" x2="144" y1="47" y2="47"/></g><!--link Magma to EarthHeat--><g id="link_Magma_EarthHeat"><path codeLine="1" d="M76,182.22 C76,204.67 76,232.5 76,254.91 " fill="none" id="Magma-to-EarthHeat" style="stroke:#181818;stroke-width:1.0;stroke-dasharray:7.0,7.0;"/><polygon fill="#181818" points="76,260.91,80,251.91,76,255.91,72,251.91,76,260.91" style="stroke:#181818;stroke-width:1.0;"/><text fill="#000000" font-family="sans-serif" font-size="13" lengthAdjust="spacing" textLength="67" x="77" y="227.8979">depends on</text></g><!--link VolcanicEruption to Magma--><g id="link_VolcanicEruption_Magma"><path codeLine="2" d="M76,55.22 C76,77.67 76,105.5 76,127.91 " fill="none" id="VolcanicEruption-to-Magma" style="stroke:#181818;stroke-width:1.0;stroke-dasharray:7.0,7.0;"/><polygon fill="#181818" points="76,133.91,80,124.91,76,128.91,72,124.91,76,133.91" style="stroke:#181818;stroke-width:1.0;"/><text fill="#000000" font-family="sans-serif" font-size="13" lengthAdjust="spacing" textLength="67" x="77" y="100.8979">depends on</text></g><!--SRC=[yqrCpqrKqDEpKt1DB2h9y4XDB56mKaX9BKZDIobMoC_Z2ilFIKxCoqnsBIejACdCpmEhzGNhGbO70000]--></g></svg>