<?xml version="1.0" encoding="us-ascii" standalone="no"?><svg xmlns="http://www.w3.org/2000/svg" xmlns:xlink="http://www.w3.org/1999/xlink" contentStyleType="text/css" height="316px" preserveAspectRatio="none" style="width:146px;height:316px;background:#FFFFFF;" version="1.1" viewBox="0 0 146 316" width="146px" zoomAndPan="magnify"><defs/><g><!--class SeafloorQuake--><g id="elem_SeafloorQuake"><rect fill="#F1F1F1" height="48" id="SeafloorQuake" rx="2.5" ry="2.5" style="stroke:#181818;stroke-width:0.5;" width="127" x="7" y="134"/><ellipse cx="22" cy="150" fill="#ADD1B2" rx="11" ry="11" style="stroke:#181818;stroke-width:1.0;"/><path d="M21.3438,155.8594 Q19.3594,155.8594 18.1875,154.3906 Q17.0313,152.9063 17.0313,149.8281 Q17.0313,147.2188 18.25,145.4688 Q19.4844,143.7188 21.6094,143.7188 Q22.1094,143.7188 22.6406,143.8594 Q23.0781,144.0469 23.3438,144.0469 Q23.5625,144.0469 23.6563,144 Q23.7656,143.9531 24.2188,143.3594 L24.9844,147.0938 L24.0938,147.3594 Q23.6406,145.9063 23.0313,145.3125 Q22.4375,144.7031 21.4844,144.7031 Q20.2656,144.7031 19.5469,146.1406 Q18.8281,147.5625 18.8281,149.75 Q18.8281,152.1563 19.4375,153.4531 Q20.0625,154.7344 21.4219,154.7344 Q22.375,154.7344 23.0625,154.0469 Q23.75,153.3438 24.0781,151.8438 L24.9844,152.25 Q24.5781,153.9531 23.6094,154.9063 Q22.6563,155.8594 21.3438,155.8594 Z " fill="#000000"/><text fill="#000000" font-family="sans-serif" font-size="14" lengthAdjust="spacing" textLength="95" x="36" y="156.4839">SeafloorQuake</text><line style="stroke:#181818;stroke-width:0.5;" x1="8" x2="133" y1="166" y2="166"/><line style="stroke:#181818;stroke-width:0.5;" x1="8" x2="133" y1="174" y2="174"/></g><!--class TectonicPlate--><g id="elem_TectonicPlate"><rect fill="#F1F1F1" height="48" id="TectonicPlate" rx="2.5" ry="2.5" style="stroke:#181818;stroke-width:0.5;" width="118" x="11.5" y="261"/><ellipse cx="26.5" cy="277" fill="#ADD1B2" rx="11" ry="11" style="stroke:#181818;stroke-width:1.0;"/><path d="M25.8438,282.8594 Q23.8594,282.8594 22.6875,281.3906 Q21.5313,279.9063 21.5313,276.8281 Q21.5313,274.2188 22.75,272.4688 Q23.9844,270.7188 26.1094,270.7188 Q26.6094,270.7188 27.1406,270.8594 Q27.5781,271.0469 27.8438,271.0469 Q28.0625,271.0469 28.1563,271 Q28.2656,270.9531 28.7188,270.3594 L29.4844,274.0938 L28.5938,274.3594 Q28.1406,272.9063 27.5313,272.3125 Q26.9375,271.7031 25.9844,271.7031 Q24.7656,271.7031 24.0469,273.1406 Q23.3281,274.5625 23.3281,276.75 Q23.3281,279.1563 23.9375,280.4531 Q24.5625,281.7344 25.9219,281.7344 Q26.875,281.7344 27.5625,281.0469 Q28.25,280.3438 28.5781,278.8438 L29.4844,279.25 Q29.0781,280.9531 28.1094,281.9063 Q27.1563,282.8594 25.8438,282.8594 Z " fill="#000000"/><text fill="#000000" font-family="sans-serif" font-size="14" lengthAdjust="spacing" textLength="86" x="40.5" y="283.4839">TectonicPlate</text><line style="stroke:#181818;stroke-width:0.5;" x1="12.5" x2="128.5" y1="293" y2="293"/><line style="stroke:#181818;stroke-width:0.5;" x1="12.5" x2="128.5" y1="301" y2="301"/></g><!--class Aftershock--><g id="elem_Aftershock"><rect fill="#F1F1F1" height="48" id="Aftershock" rx="2.5" ry="2.5" style="stroke:#181818;stroke-width:0.5;" width="99" x="21" y="7"/><ellipse cx="36" cy="23" fill="#ADD1B2" rx="11" ry="11" style="stroke:#181818;stroke-width:1.0;"/><path d="M35.3438,28.8594 Q33.3594,28.8594 32.1875,27.3906 Q31.0313,25.9063 31.0313,22.8281 Q31.0313,20.2188 32.25,18.4688 Q33.4844,16.7188 35.6094,16.7188 Q36.1094,16.7188 36.6406,16.8594 Q37.0781,17.0469 37.3438,17.0469 Q37.5625,17.0469 37.6563,17 Q37.7656,16.9531 38.2188,16.3594 L38.9844,20.0938 L38.0938,20.3594 Q37.6406,18.9063 37.0313,18.3125 Q36.4375,17.7031 35.4844,17.7031 Q34.2656,17.7031 33.5469,19.1406 Q32.8281,20.5625 32.8281,22.75 Q32.8281,25.1563 33.4375,26.4531 Q34.0625,27.7344 35.4219,27.7344 Q36.375,27.7344 37.0625,27.0469 Q37.75,26.3438 38.0781,24.8438 L38.9844,25.25 Q38.5781,26.9531 37.6094,27.9063 Q36.6563,28.8594 35.3438,28.8594 Z " fill="#000000"/><text fill="#000000" font-family="sans-serif" font-size="14" lengthAdjust="spacing" textLength="67" x="50" y="29.4839">Aftershock</text><line style="stroke:#181818;stroke-width:0.5;" x1="22" x2="119" y1="39" y2="39"/><line style="stroke:#181818;stroke-width:0.5;" x1="22" x2="119" y1="47" y2="47"/></g><!--link SeafloorQuake to TectonicPlate--><g id="link_SeafloorQuake_TectonicPlate"><path codeLine="1" d="M70.5,182.22 C70.5,204.67 70.5,232.5 70.5,254.91 " fill="none" id="SeafloorQuake-to-TectonicPlate" style="stroke:#181818;stroke-width:1.0;stroke-dasharray:7.0,7.0;"/><polygon fill="#181818" points="70.5,260.91,74.5,251.91,70.5,255.91,66.5,251.91,70.5,260.91" style="stroke:#181818;stroke-width:1.0;"/><text fill="#000000" font-family="sans-serif" font-size="13" lengthAdjust="spacing" textLength="67" x="71.5" y="227.8979">depends on</text></g><!--link Aftershock to SeafloorQuake--><g id="link_Aftershock_SeafloorQuake"><path codeLine="2" d="M70.5,55.22 C70.5,77.67 70.5,105.5 70.5,127.91 " fill="none" id="Aftershock-to-SeafloorQuake" style="stroke:#181818;stroke-width:1.0;stroke-dasharray:7.0,7.0;"/><polygon fill="#181818" points="70.5,133.91,74.5,124.91,70.5,128.91,66.5,124.91,70.5,133.91" style="stroke:#181818;stroke-width:1.0;"/><text fill="#000000" font-family="sans-serif" font-size="13" lengthAdjust="spacing" textLength="67" x="71.5" y="100.8979">depends on</text></g><!--SRC=[2qvDJCl9poyAB4tCJbNGqxDJ24bDBidFoqmEo4aiILMmKaX9BKZDIobMoC_ZSamhIIqgpiXFpWQh34RHYwmI0000]--></g></svg>