<?xml version="1.0" encoding="us-ascii" standalone="no"?><svg xmlns="http://www.w3.org/2000/svg" xmlns:xlink="http://www.w3.org/1999/xlink" contentStyleType="text/css" height="316px" preserveAspectRatio="none" style="width:116px;height:316px;background:#FFFFFF;" version="1.1" viewBox="0 0 116 316" width="116px" zoomAndPan="magnify"><defs/><g><!--class Tooth--><g id="elem_Tooth"><rect fill="#F1F1F1" height="48" id="Tooth" rx="2.5" ry="2.5" style="stroke:#181818;stroke-width:0.5;" width="69" x="13" y="134"/><ellipse cx="28" cy="150" fill="#ADD1B2" rx="11" ry="11" style="stroke:#181818;stroke-width:1.0;"/><path d="M27.3438,155.8594 Q25.3594,155.8594 24.1875,154.3906 Q23.0313,152.9063 23.0313,149.8281 Q23.0313,147.2188 24.25,145.4688 Q25.4844,143.7188 27.6094,143.7188 Q28.1094,143.7188 28.6406,143.8594 Q29.0781,144.0469 29.3438,144.0469 Q29.5625,144.0469 29.6563,144 Q29.7656,143.9531 30.2188,143.3594 L30.9844,147.0938 L30.0938,147.3594 Q29.6406,145.9063 29.0313,145.3125 Q28.4375,144.7031 27.4844,144.7031 Q26.2656,144.7031 25.5469,146.1406 Q24.8281,147.5625 24.8281,149.75 Q24.8281,152.1563 25.4375,153.4531 Q26.0625,154.7344 27.4219,154.7344 Q28.375,154.7344 29.0625,154.0469 Q29.75,153.3438 30.0781,151.8438 L30.9844,152.25 Q30.5781,153.9531 29.6094,154.9063 Q28.6563,155.8594 27.3438,155.8594 Z " fill="#000000"/><text fill="#000000" font-family="sans-serif" font-size="14" lengthAdjust="spacing" textLength="37" x="42" y="156.4839">Tooth</text><line style="stroke:#181818;stroke-width:0.5;" x1="14" x2="81" y1="166" y2="166"/><line style="stroke:#181818;stroke-width:0.5;" x1="14" x2="81" y1="174" y2="174"/></g><!--class Squirrel--><g id="elem_Squirrel"><rect fill="#F1F1F1" height="48" id="Squirrel" rx="2.5" ry="2.5" style="stroke:#181818;stroke-width:0.5;" width="81" x="7" y="261"/><ellipse cx="22" cy="277" fill="#ADD1B2" rx="11" ry="11" style="stroke:#181818;stroke-width:1.0;"/><path d="M21.3438,282.8594 Q19.3594,282.8594 18.1875,281.3906 Q17.0313,279.9063 17.0313,276.8281 Q17.0313,274.2188 18.25,272.4688 Q19.4844,270.7188 21.6094,270.7188 Q22.1094,270.7188 22.6406,270.8594 Q23.0781,271.0469 23.3438,271.0469 Q23.5625,271.0469 23.6563,271 Q23.7656,270.9531 24.2188,270.3594 L24.9844,274.0938 L24.0938,274.3594 Q23.6406,272.9063 23.0313,272.3125 Q22.4375,271.7031 21.4844,271.7031 Q20.2656,271.7031 19.5469,273.1406 Q18.8281,274.5625 18.8281,276.75 Q18.8281,279.1563 19.4375,280.4531 Q20.0625,281.7344 21.4219,281.7344 Q22.375,281.7344 23.0625,281.0469 Q23.75,280.3438 24.0781,278.8438 L24.9844,279.25 Q24.5781,280.9531 23.6094,281.9063 Q22.6563,282.8594 21.3438,282.8594 Z " fill="#000000"/><text fill="#000000" font-family="sans-serif" font-size="14" lengthAdjust="spacing" textLength="49" x="36" y="283.4839">Squirrel</text><line style="stroke:#181818;stroke-width:0.5;" x1="8" x2="87" y1="293" y2="293"/><line style="stroke:#181818;stroke-width:0.5;" x1="8" x2="87" y1="301" y2="301"/></g><!--class Root--><g id="elem_Root"><rect fill="#F1F1F1" height="48" id="Root" rx="2.5" ry="2.5" style="stroke:#181818;stroke-width:0.5;" width="62" x="16.5" y="7"/><ellipse cx="31.5" cy="23" fill="#ADD1B2" rx="11" ry="11" style="stroke:#181818;stroke-width:1.0;"/><path d="M30.8438,28.8594 Q28.8594,28.8594 27.6875,27.3906 Q26.5313,25.9063 26.5313,22.8281 Q26.5313,20.2188 27.75,18.4688 Q28.9844,16.7188 31.1094,16.7188 Q31.6094,16.7188 32.1406,16.8594 Q32.5781,17.0469 32.8438,17.0469 Q33.0625,17.0469 33.1563,17 Q33.2656,16.9531 33.7188,16.3594 L34.4844,20.0938 L33.5938,20.3594 Q33.1406,18.9063 32.5313,18.3125 Q31.9375,17.7031 30.9844,17.7031 Q29.7656,17.7031 29.0469,19.1406 Q28.3281,20.5625 28.3281,22.75 Q28.3281,25.1563 28.9375,26.4531 Q29.5625,27.7344 30.9219,27.7344 Q31.875,27.7344 32.5625,27.0469 Q33.25,26.3438 33.5781,24.8438 L34.4844,25.25 Q34.0781,26.9531 33.1094,27.9063 Q32.1563,28.8594 30.8438,28.8594 Z " fill="#000000"/><text fill="#000000" font-family="sans-serif" font-size="14" lengthAdjust="spacing" textLength="30" x="45.5" y="29.4839">Root</text><line style="stroke:#181818;stroke-width:0.5;" x1="17.5" x2="77.5" y1="39" y2="39"/><line style="stroke:#181818;stroke-width:0.5;" x1="17.5" x2="77.5" y1="47" y2="47"/></g><!--reverse link Tooth to Squirrel--><g id="link_Tooth_Squirrel"><path codeLine="1" d="M47.5,194.22 C47.5,216.67 47.5,238.5 47.5,260.91 " fill="none" id="Tooth-backto-Squirrel" style="stroke:#181818;stroke-width:1.0;"/><polygon fill="#181818" points="47.5,182.22,43.5,188.22,47.5,194.22,51.5,188.22,47.5,182.22" style="stroke:#181818;stroke-width:1.0;"/><text fill="#000000" font-family="sans-serif" font-size="13" lengthAdjust="spacing" textLength="60" x="48.5" y="227.8979">composes</text></g><!--reverse link Root to Tooth--><g id="link_Root_Tooth"><path codeLine="2" d="M47.5,67.22 C47.5,89.67 47.5,111.5 47.5,133.91 " fill="none" id="Root-backto-Tooth" style="stroke:#181818;stroke-width:1.0;"/><polygon fill="#181818" points="47.5,55.22,43.5,61.22,47.5,67.22,51.5,61.22,47.5,55.22" style="stroke:#181818;stroke-width:1.0;"/><text fill="#000000" font-family="sans-serif" font-size="13" lengthAdjust="spacing" textLength="60" x="48.5" y="100.8979">composes</text></g><!--SRC=[2ydFBybGqDBLLGWkBCqiAahDKR1IICxFBSWlJYtc2WBAWYL3mCeGCW00]--></g></svg>