<?xml version="1.0" encoding="us-ascii" standalone="no"?><svg xmlns="http://www.w3.org/2000/svg" xmlns:xlink="http://www.w3.org/1999/xlink" contentStyleType="text/css" height="316px" preserveAspectRatio="none" style="width:122px;height:316px;background:#FFFFFF;" version="1.1" viewBox="0 0 122 316" width="122px" zoomAndPan="magnify"><defs/><g><!--class Gill--><g id="elem_Gill"><rect fill="#F1F1F1" height="48" id="Gill" rx="2.5" ry="2.5" style="stroke:#181818;stroke-width:0.5;" width="52" x="27" y="134"/><ellipse cx="42" cy="150" fill="#ADD1B2" rx="11" ry="11" style="stroke:#181818;stroke-width:1.0;"/><path d="M41.3438,155.8594 Q39.3594,155.8594 38.1875,154.3906 Q37.0313,152.9063 37.0313,149.8281 Q37.0313,147.2188 38.25,145.4688 Q39.4844,143.7188 41.6094,143.7188 Q42.1094,143.7188 42.6406,143.8594 Q43.0781,144.0469 43.3438,144.0469 Q43.5625,144.0469 43.6563,144 Q43.7656,143.9531 44.2188,143.3594 L44.9844,147.0938 L44.0938,147.3594 Q43.6406,145.9063 43.0313,145.3125 Q42.4375,144.7031 41.4844,144.7031 Q40.2656,144.7031 39.5469,146.1406 Q38.8281,147.5625 38.8281,149.75 Q38.8281,152.1563 39.4375,153.4531 Q40.0625,154.7344 41.4219,154.7344 Q42.375,154.7344 43.0625,154.0469 Q43.75,153.3438 44.0781,151.8438 L44.9844,152.25 Q44.5781,153.9531 43.6094,154.9063 Q42.6563,155.8594 41.3438,155.8594 Z " fill="#000000"/><text fill="#000000" font-family="sans-serif" font-size="14" lengthAdjust="spacing" textLength="20" x="56" y="156.4839">Gill</text><line style="stroke:#181818;stroke-width:0.5;" x1="28" x2="78" y1="166" y2="166"/><line style="stroke:#181818;stroke-width:0.5;" x1="28" x2="78" y1="174" y2="174"/></g><!--class MahiMahi--><g id="elem_MahiMahi"><rect fill="#F1F1F1" height="48" id="MahiMahi" rx="2.5" ry="2.5" style="stroke:#181818;stroke-width:0.5;" width="92" x="7" y="261"/><ellipse cx="22" cy="277" fill="#ADD1B2" rx="11" ry="11" style="stroke:#181818;stroke-width:1.0;"/><path d="M21.3438,282.8594 Q19.3594,282.8594 18.1875,281.3906 Q17.0313,279.9063 17.0313,276.8281 Q17.0313,274.2188 18.25,272.4688 Q19.4844,270.7188 21.6094,270.7188 Q22.1094,270.7188 22.6406,270.8594 Q23.0781,271.0469 23.3438,271.0469 Q23.5625,271.0469 23.6563,271 Q23.7656,270.9531 24.2188,270.3594 L24.9844,274.0938 L24.0938,274.3594 Q23.6406,272.9063 23.0313,272.3125 Q22.4375,271.7031 21.4844,271.7031 Q20.2656,271.7031 19.5469,273.1406 Q18.8281,274.5625 18.8281,276.75 Q18.8281,279.1563 19.4375,280.4531 Q20.0625,281.7344 21.4219,281.7344 Q22.375,281.7344 23.0625,281.0469 Q23.75,280.3438 24.0781,278.8438 L24.9844,279.25 Q24.5781,280.9531 23.6094,281.9063 Q22.6563,282.8594 21.3438,282.8594 Z " fill="#000000"/><text fill="#000000" font-family="sans-serif" font-size="14" lengthAdjust="spacing" textLength="60" x="36" y="283.4839">MahiMahi</text><line style="stroke:#181818;stroke-width:0.5;" x1="8" x2="98" y1="293" y2="293"/><line style="stroke:#181818;stroke-width:0.5;" x1="8" x2="98" y1="301" y2="301"/></g><!--class Filament--><g id="elem_Filament"><rect fill="#F1F1F1" height="48" id="Filament" rx="2.5" ry="2.5" style="stroke:#181818;stroke-width:0.5;" width="86" x="10" y="7"/><ellipse cx="25" cy="23" fill="#ADD1B2" rx="11" ry="11" style="stroke:#181818;stroke-width:1.0;"/><path d="M24.3438,28.8594 Q22.3594,28.8594 21.1875,27.3906 Q20.0313,25.9063 20.0313,22.8281 Q20.0313,20.2188 21.25,18.4688 Q22.4844,16.7188 24.6094,16.7188 Q25.1094,16.7188 25.6406,16.8594 Q26.0781,17.0469 26.3438,17.0469 Q26.5625,17.0469 26.6563,17 Q26.7656,16.9531 27.2188,16.3594 L27.9844,20.0938 L27.0938,20.3594 Q26.6406,18.9063 26.0313,18.3125 Q25.4375,17.7031 24.4844,17.7031 Q23.2656,17.7031 22.5469,19.1406 Q21.8281,20.5625 21.8281,22.75 Q21.8281,25.1563 22.4375,26.4531 Q23.0625,27.7344 24.4219,27.7344 Q25.375,27.7344 26.0625,27.0469 Q26.75,26.3438 27.0781,24.8438 L27.9844,25.25 Q27.5781,26.9531 26.6094,27.9063 Q25.6563,28.8594 24.3438,28.8594 Z " fill="#000000"/><text fill="#000000" font-family="sans-serif" font-size="14" lengthAdjust="spacing" textLength="54" x="39" y="29.4839">Filament</text><line style="stroke:#181818;stroke-width:0.5;" x1="11" x2="95" y1="39" y2="39"/><line style="stroke:#181818;stroke-width:0.5;" x1="11" x2="95" y1="47" y2="47"/></g><!--reverse link Gill to MahiMahi--><g id="link_Gill_MahiMahi"><path codeLine="1" d="M53,194.22 C53,216.67 53,238.5 53,260.91 " fill="none" id="Gill-backto-MahiMahi" style="stroke:#181818;stroke-width:1.0;"/><polygon fill="#181818" points="53,182.22,49,188.22,53,194.22,57,188.22,53,182.22" style="stroke:#181818;stroke-width:1.0;"/><text fill="#000000" font-family="sans-serif" font-size="13" lengthAdjust="spacing" textLength="60" x="54" y="227.8979">composes</text></g><!--reverse link Filament to Gill--><g id="link_Filament_Gill"><path codeLine="2" d="M53,67.22 C53,89.67 53,111.5 53,133.91 " fill="none" id="Filament-backto-Gill" style="stroke:#181818;stroke-width:1.0;"/><polygon fill="#181818" points="53,55.22,49,61.22,53,67.22,57,61.22,53,55.22" style="stroke:#181818;stroke-width:1.0;"/><text fill="#000000" font-family="sans-serif" font-size="13" lengthAdjust="spacing" textLength="60" x="54" y="100.8979">composes</text></g><!--SRC=[Sy_CoL7GqjLLy4tCo0HX1Ik5vFpSWlpYr68kjyoSnDpKl1Am0dUGIeGa0000]--></g></svg>