<?xml version="1.0" encoding="us-ascii" standalone="no"?><svg xmlns="http://www.w3.org/2000/svg" xmlns:xlink="http://www.w3.org/1999/xlink" contentStyleType="text/css" height="316px" preserveAspectRatio="none" style="width:119px;height:316px;background:#FFFFFF;" version="1.1" viewBox="0 0 119 316" width="119px" zoomAndPan="magnify"><defs/><g><!--class Hoof--><g id="elem_Hoof"><rect fill="#F1F1F1" height="48" id="Hoof" rx="2.5" ry="2.5" style="stroke:#181818;stroke-width:0.5;" width="61" x="19.5" y="134"/><ellipse cx="34.5" cy="150" fill="#ADD1B2" rx="11" ry="11" style="stroke:#181818;stroke-width:1.0;"/><path d="M33.8438,155.8594 Q31.8594,155.8594 30.6875,154.3906 Q29.5313,152.9063 29.5313,149.8281 Q29.5313,147.2188 30.75,145.4688 Q31.9844,143.7188 34.1094,143.7188 Q34.6094,143.7188 35.1406,143.8594 Q35.5781,144.0469 35.8438,144.0469 Q36.0625,144.0469 36.1563,144 Q36.2656,143.9531 36.7188,143.3594 L37.4844,147.0938 L36.5938,147.3594 Q36.1406,145.9063 35.5313,145.3125 Q34.9375,144.7031 33.9844,144.7031 Q32.7656,144.7031 32.0469,146.1406 Q31.3281,147.5625 31.3281,149.75 Q31.3281,152.1563 31.9375,153.4531 Q32.5625,154.7344 33.9219,154.7344 Q34.875,154.7344 35.5625,154.0469 Q36.25,153.3438 36.5781,151.8438 L37.4844,152.25 Q37.0781,153.9531 36.1094,154.9063 Q35.1563,155.8594 33.8438,155.8594 Z " fill="#000000"/><text fill="#000000" font-family="sans-serif" font-size="14" lengthAdjust="spacing" textLength="29" x="48.5" y="156.4839">Hoof</text><line style="stroke:#181818;stroke-width:0.5;" x1="20.5" x2="79.5" y1="166" y2="166"/><line style="stroke:#181818;stroke-width:0.5;" x1="20.5" x2="79.5" y1="174" y2="174"/></g><!--class Warthog--><g id="elem_Warthog"><rect fill="#F1F1F1" height="48" id="Warthog" rx="2.5" ry="2.5" style="stroke:#181818;stroke-width:0.5;" width="86" x="7" y="261"/><ellipse cx="22" cy="277" fill="#ADD1B2" rx="11" ry="11" style="stroke:#181818;stroke-width:1.0;"/><path d="M21.3438,282.8594 Q19.3594,282.8594 18.1875,281.3906 Q17.0313,279.9063 17.0313,276.8281 Q17.0313,274.2188 18.25,272.4688 Q19.4844,270.7188 21.6094,270.7188 Q22.1094,270.7188 22.6406,270.8594 Q23.0781,271.0469 23.3438,271.0469 Q23.5625,271.0469 23.6563,271 Q23.7656,270.9531 24.2188,270.3594 L24.9844,274.0938 L24.0938,274.3594 Q23.6406,272.9063 23.0313,272.3125 Q22.4375,271.7031 21.4844,271.7031 Q20.2656,271.7031 19.5469,273.1406 Q18.8281,274.5625 18.8281,276.75 Q18.8281,279.1563 19.4375,280.4531 Q20.0625,281.7344 21.4219,281.7344 Q22.375,281.7344 23.0625,281.0469 Q23.75,280.3438 24.0781,278.8438 L24.9844,279.25 Q24.5781,280.9531 23.6094,281.9063 Q22.6563,282.8594 21.3438,282.8594 Z " fill="#000000"/><text fill="#000000" font-family="sans-serif" font-size="14" lengthAdjust="spacing" textLength="54" x="36" y="283.4839">Warthog</text><line style="stroke:#181818;stroke-width:0.5;" x1="8" x2="92" y1="293" y2="293"/><line style="stroke:#181818;stroke-width:0.5;" x1="8" x2="92" y1="301" y2="301"/></g><!--class Sole--><g id="elem_Sole"><rect fill="#F1F1F1" height="48" id="Sole" rx="2.5" ry="2.5" style="stroke:#181818;stroke-width:0.5;" width="60" x="20" y="7"/><ellipse cx="35" cy="23" fill="#ADD1B2" rx="11" ry="11" style="stroke:#181818;stroke-width:1.0;"/><path d="M34.3438,28.8594 Q32.3594,28.8594 31.1875,27.3906 Q30.0313,25.9063 30.0313,22.8281 Q30.0313,20.2188 31.25,18.4688 Q32.4844,16.7188 34.6094,16.7188 Q35.1094,16.7188 35.6406,16.8594 Q36.0781,17.0469 36.3438,17.0469 Q36.5625,17.0469 36.6563,17 Q36.7656,16.9531 37.2188,16.3594 L37.9844,20.0938 L37.0938,20.3594 Q36.6406,18.9063 36.0313,18.3125 Q35.4375,17.7031 34.4844,17.7031 Q33.2656,17.7031 32.5469,19.1406 Q31.8281,20.5625 31.8281,22.75 Q31.8281,25.1563 32.4375,26.4531 Q33.0625,27.7344 34.4219,27.7344 Q35.375,27.7344 36.0625,27.0469 Q36.75,26.3438 37.0781,24.8438 L37.9844,25.25 Q37.5781,26.9531 36.6094,27.9063 Q35.6563,28.8594 34.3438,28.8594 Z " fill="#000000"/><text fill="#000000" font-family="sans-serif" font-size="14" lengthAdjust="spacing" textLength="28" x="49" y="29.4839">Sole</text><line style="stroke:#181818;stroke-width:0.5;" x1="21" x2="79" y1="39" y2="39"/><line style="stroke:#181818;stroke-width:0.5;" x1="21" x2="79" y1="47" y2="47"/></g><!--reverse link Hoof to Warthog--><g id="link_Hoof_Warthog"><path codeLine="1" d="M50,194.22 C50,216.67 50,238.5 50,260.91 " fill="none" id="Hoof-backto-Warthog" style="stroke:#181818;stroke-width:1.0;"/><polygon fill="#181818" points="50,182.22,46,188.22,50,194.22,54,188.22,50,182.22" style="stroke:#181818;stroke-width:1.0;"/><text fill="#000000" font-family="sans-serif" font-size="13" lengthAdjust="spacing" textLength="60" x="51" y="227.8979">composes</text></g><!--reverse link Sole to Hoof--><g id="link_Sole_Hoof"><path codeLine="2" d="M50,67.22 C50,89.67 50,111.5 50,133.91 " fill="none" id="Sole-backto-Hoof" style="stroke:#181818;stroke-width:1.0;"/><polygon fill="#181818" points="50,55.22,46,61.22,50,67.22,54,61.22,50,55.22" style="stroke:#181818;stroke-width:1.0;"/><text fill="#000000" font-family="sans-serif" font-size="13" lengthAdjust="spacing" textLength="60" x="51" y="100.8979">composes</text></g><!--SRC=[yyZFJrFGqjLL24yiAid8JrUmKaZEpot8BqujvWhEpqa5otc0524a0000]--></g></svg>