<?xml version="1.0" encoding="us-ascii" standalone="no"?><svg xmlns="http://www.w3.org/2000/svg" xmlns:xlink="http://www.w3.org/1999/xlink" contentStyleType="text/css" height="316px" preserveAspectRatio="none" style="width:118px;height:316px;background:#FFFFFF;" version="1.1" viewBox="0 0 118 316" width="118px" zoomAndPan="magnify"><defs/><g><!--class Tooth--><g id="elem_Tooth"><rect fill="#F1F1F1" height="48" id="Tooth" rx="2.5" ry="2.5" style="stroke:#181818;stroke-width:0.5;" width="69" x="15" y="134"/><ellipse cx="30" cy="150" fill="#ADD1B2" rx="11" ry="11" style="stroke:#181818;stroke-width:1.0;"/><path d="M29.3438,155.8594 Q27.3594,155.8594 26.1875,154.3906 Q25.0313,152.9063 25.0313,149.8281 Q25.0313,147.2188 26.25,145.4688 Q27.4844,143.7188 29.6094,143.7188 Q30.1094,143.7188 30.6406,143.8594 Q31.0781,144.0469 31.3438,144.0469 Q31.5625,144.0469 31.6563,144 Q31.7656,143.9531 32.2188,143.3594 L32.9844,147.0938 L32.0938,147.3594 Q31.6406,145.9063 31.0313,145.3125 Q30.4375,144.7031 29.4844,144.7031 Q28.2656,144.7031 27.5469,146.1406 Q26.8281,147.5625 26.8281,149.75 Q26.8281,152.1563 27.4375,153.4531 Q28.0625,154.7344 29.4219,154.7344 Q30.375,154.7344 31.0625,154.0469 Q31.75,153.3438 32.0781,151.8438 L32.9844,152.25 Q32.5781,153.9531 31.6094,154.9063 Q30.6563,155.8594 29.3438,155.8594 Z " fill="#000000"/><text fill="#000000" font-family="sans-serif" font-size="14" lengthAdjust="spacing" textLength="37" x="44" y="156.4839">Tooth</text><line style="stroke:#181818;stroke-width:0.5;" x1="16" x2="83" y1="166" y2="166"/><line style="stroke:#181818;stroke-width:0.5;" x1="16" x2="83" y1="174" y2="174"/></g><!--class Leopard--><g id="elem_Leopard"><rect fill="#F1F1F1" height="48" id="Leopard" rx="2.5" ry="2.5" style="stroke:#181818;stroke-width:0.5;" width="85" x="7" y="261"/><ellipse cx="22" cy="277" fill="#ADD1B2" rx="11" ry="11" style="stroke:#181818;stroke-width:1.0;"/><path d="M21.3438,282.8594 Q19.3594,282.8594 18.1875,281.3906 Q17.0313,279.9063 17.0313,276.8281 Q17.0313,274.2188 18.25,272.4688 Q19.4844,270.7188 21.6094,270.7188 Q22.1094,270.7188 22.6406,270.8594 Q23.0781,271.0469 23.3438,271.0469 Q23.5625,271.0469 23.6563,271 Q23.7656,270.9531 24.2188,270.3594 L24.9844,274.0938 L24.0938,274.3594 Q23.6406,272.9063 23.0313,272.3125 Q22.4375,271.7031 21.4844,271.7031 Q20.2656,271.7031 19.5469,273.1406 Q18.8281,274.5625 18.8281,276.75 Q18.8281,279.1563 19.4375,280.4531 Q20.0625,281.7344 21.4219,281.7344 Q22.375,281.7344 23.0625,281.0469 Q23.75,280.3438 24.0781,278.8438 L24.9844,279.25 Q24.5781,280.9531 23.6094,281.9063 Q22.6563,282.8594 21.3438,282.8594 Z " fill="#000000"/><text fill="#000000" font-family="sans-serif" font-size="14" lengthAdjust="spacing" textLength="53" x="36" y="283.4839">Leopard</text><line style="stroke:#181818;stroke-width:0.5;" x1="8" x2="91" y1="293" y2="293"/><line style="stroke:#181818;stroke-width:0.5;" x1="8" x2="91" y1="301" y2="301"/></g><!--class Root--><g id="elem_Root"><rect fill="#F1F1F1" height="48" id="Root" rx="2.5" ry="2.5" style="stroke:#181818;stroke-width:0.5;" width="62" x="18.5" y="7"/><ellipse cx="33.5" cy="23" fill="#ADD1B2" rx="11" ry="11" style="stroke:#181818;stroke-width:1.0;"/><path d="M32.8438,28.8594 Q30.8594,28.8594 29.6875,27.3906 Q28.5313,25.9063 28.5313,22.8281 Q28.5313,20.2188 29.75,18.4688 Q30.9844,16.7188 33.1094,16.7188 Q33.6094,16.7188 34.1406,16.8594 Q34.5781,17.0469 34.8438,17.0469 Q35.0625,17.0469 35.1563,17 Q35.2656,16.9531 35.7188,16.3594 L36.4844,20.0938 L35.5938,20.3594 Q35.1406,18.9063 34.5313,18.3125 Q33.9375,17.7031 32.9844,17.7031 Q31.7656,17.7031 31.0469,19.1406 Q30.3281,20.5625 30.3281,22.75 Q30.3281,25.1563 30.9375,26.4531 Q31.5625,27.7344 32.9219,27.7344 Q33.875,27.7344 34.5625,27.0469 Q35.25,26.3438 35.5781,24.8438 L36.4844,25.25 Q36.0781,26.9531 35.1094,27.9063 Q34.1563,28.8594 32.8438,28.8594 Z " fill="#000000"/><text fill="#000000" font-family="sans-serif" font-size="14" lengthAdjust="spacing" textLength="30" x="47.5" y="29.4839">Root</text><line style="stroke:#181818;stroke-width:0.5;" x1="19.5" x2="79.5" y1="39" y2="39"/><line style="stroke:#181818;stroke-width:0.5;" x1="19.5" x2="79.5" y1="47" y2="47"/></g><!--reverse link Tooth to Leopard--><g id="link_Tooth_Leopard"><path codeLine="1" d="M49.5,194.22 C49.5,216.67 49.5,238.5 49.5,260.91 " fill="none" id="Tooth-backto-Leopard" style="stroke:#181818;stroke-width:1.0;"/><polygon fill="#181818" points="49.5,182.22,45.5,188.22,49.5,194.22,53.5,188.22,49.5,182.22" style="stroke:#181818;stroke-width:1.0;"/><text fill="#000000" font-family="sans-serif" font-size="13" lengthAdjust="spacing" textLength="60" x="50.5" y="227.8979">composes</text></g><!--reverse link Root to Tooth--><g id="link_Root_Tooth"><path codeLine="2" d="M49.5,67.22 C49.5,89.67 49.5,111.5 49.5,133.91 " fill="none" id="Root-backto-Tooth" style="stroke:#181818;stroke-width:1.0;"/><polygon fill="#181818" points="49.5,55.22,45.5,61.22,49.5,67.22,53.5,61.22,49.5,55.22" style="stroke:#181818;stroke-width:1.0;"/><text fill="#000000" font-family="sans-serif" font-size="13" lengthAdjust="spacing" textLength="60" x="50.5" y="100.8979">composes</text></g><!--SRC=[2ydFBybGqDBLLV19pIz8B4fHi598piyjo2zEBUOA0ag2vKB0gX0o0000]--></g></svg>