<?xml version="1.0" encoding="us-ascii" standalone="no"?><svg xmlns="http://www.w3.org/2000/svg" xmlns:xlink="http://www.w3.org/1999/xlink" contentStyleType="text/css" height="316px" preserveAspectRatio="none" style="width:128px;height:316px;background:#FFFFFF;" version="1.1" viewBox="0 0 128 316" width="128px" zoomAndPan="magnify"><defs/><g><!--class Nose--><g id="elem_Nose"><rect fill="#F1F1F1" height="48" id="Nose" rx="2.5" ry="2.5" style="stroke:#181818;stroke-width:0.5;" width="64" x="27" y="134"/><ellipse cx="42" cy="150" fill="#ADD1B2" rx="11" ry="11" style="stroke:#181818;stroke-width:1.0;"/><path d="M41.3438,155.8594 Q39.3594,155.8594 38.1875,154.3906 Q37.0313,152.9063 37.0313,149.8281 Q37.0313,147.2188 38.25,145.4688 Q39.4844,143.7188 41.6094,143.7188 Q42.1094,143.7188 42.6406,143.8594 Q43.0781,144.0469 43.3438,144.0469 Q43.5625,144.0469 43.6563,144 Q43.7656,143.9531 44.2188,143.3594 L44.9844,147.0938 L44.0938,147.3594 Q43.6406,145.9063 43.0313,145.3125 Q42.4375,144.7031 41.4844,144.7031 Q40.2656,144.7031 39.5469,146.1406 Q38.8281,147.5625 38.8281,149.75 Q38.8281,152.1563 39.4375,153.4531 Q40.0625,154.7344 41.4219,154.7344 Q42.375,154.7344 43.0625,154.0469 Q43.75,153.3438 44.0781,151.8438 L44.9844,152.25 Q44.5781,153.9531 43.6094,154.9063 Q42.6563,155.8594 41.3438,155.8594 Z " fill="#000000"/><text fill="#000000" font-family="sans-serif" font-size="14" lengthAdjust="spacing" textLength="32" x="56" y="156.4839">Nose</text><line style="stroke:#181818;stroke-width:0.5;" x1="28" x2="90" y1="166" y2="166"/><line style="stroke:#181818;stroke-width:0.5;" x1="28" x2="90" y1="174" y2="174"/></g><!--class Rhinoceros--><g id="elem_Rhinoceros"><rect fill="#F1F1F1" height="48" id="Rhinoceros" rx="2.5" ry="2.5" style="stroke:#181818;stroke-width:0.5;" width="104" x="7" y="261"/><ellipse cx="22" cy="277" fill="#ADD1B2" rx="11" ry="11" style="stroke:#181818;stroke-width:1.0;"/><path d="M21.3438,282.8594 Q19.3594,282.8594 18.1875,281.3906 Q17.0313,279.9063 17.0313,276.8281 Q17.0313,274.2188 18.25,272.4688 Q19.4844,270.7188 21.6094,270.7188 Q22.1094,270.7188 22.6406,270.8594 Q23.0781,271.0469 23.3438,271.0469 Q23.5625,271.0469 23.6563,271 Q23.7656,270.9531 24.2188,270.3594 L24.9844,274.0938 L24.0938,274.3594 Q23.6406,272.9063 23.0313,272.3125 Q22.4375,271.7031 21.4844,271.7031 Q20.2656,271.7031 19.5469,273.1406 Q18.8281,274.5625 18.8281,276.75 Q18.8281,279.1563 19.4375,280.4531 Q20.0625,281.7344 21.4219,281.7344 Q22.375,281.7344 23.0625,281.0469 Q23.75,280.3438 24.0781,278.8438 L24.9844,279.25 Q24.5781,280.9531 23.6094,281.9063 Q22.6563,282.8594 21.3438,282.8594 Z " fill="#000000"/><text fill="#000000" font-family="sans-serif" font-size="14" lengthAdjust="spacing" textLength="72" x="36" y="283.4839">Rhinoceros</text><line style="stroke:#181818;stroke-width:0.5;" x1="8" x2="110" y1="293" y2="293"/><line style="stroke:#181818;stroke-width:0.5;" x1="8" x2="110" y1="301" y2="301"/></g><!--class Nostril--><g id="elem_Nostril"><rect fill="#F1F1F1" height="48" id="Nostril" rx="2.5" ry="2.5" style="stroke:#181818;stroke-width:0.5;" width="71" x="23.5" y="7"/><ellipse cx="38.5" cy="23" fill="#ADD1B2" rx="11" ry="11" style="stroke:#181818;stroke-width:1.0;"/><path d="M37.8438,28.8594 Q35.8594,28.8594 34.6875,27.3906 Q33.5313,25.9063 33.5313,22.8281 Q33.5313,20.2188 34.75,18.4688 Q35.9844,16.7188 38.1094,16.7188 Q38.6094,16.7188 39.1406,16.8594 Q39.5781,17.0469 39.8438,17.0469 Q40.0625,17.0469 40.1563,17 Q40.2656,16.9531 40.7188,16.3594 L41.4844,20.0938 L40.5938,20.3594 Q40.1406,18.9063 39.5313,18.3125 Q38.9375,17.7031 37.9844,17.7031 Q36.7656,17.7031 36.0469,19.1406 Q35.3281,20.5625 35.3281,22.75 Q35.3281,25.1563 35.9375,26.4531 Q36.5625,27.7344 37.9219,27.7344 Q38.875,27.7344 39.5625,27.0469 Q40.25,26.3438 40.5781,24.8438 L41.4844,25.25 Q41.0781,26.9531 40.1094,27.9063 Q39.1563,28.8594 37.8438,28.8594 Z " fill="#000000"/><text fill="#000000" font-family="sans-serif" font-size="14" lengthAdjust="spacing" textLength="39" x="52.5" y="29.4839">Nostril</text><line style="stroke:#181818;stroke-width:0.5;" x1="24.5" x2="93.5" y1="39" y2="39"/><line style="stroke:#181818;stroke-width:0.5;" x1="24.5" x2="93.5" y1="47" y2="47"/></g><!--reverse link Nose to Rhinoceros--><g id="link_Nose_Rhinoceros"><path codeLine="1" d="M59,194.22 C59,216.67 59,238.5 59,260.91 " fill="none" id="Nose-backto-Rhinoceros" style="stroke:#181818;stroke-width:1.0;"/><polygon fill="#181818" points="59,182.22,55,188.22,59,194.22,63,188.22,59,182.22" style="stroke:#181818;stroke-width:1.0;"/><text fill="#000000" font-family="sans-serif" font-size="13" lengthAdjust="spacing" textLength="60" x="60" y="227.8979">composes</text></g><!--reverse link Nostril to Nose--><g id="link_Nostril_Nose"><path codeLine="2" d="M59,67.22 C59,89.67 59,111.5 59,133.91 " fill="none" id="Nostril-backto-Nose" style="stroke:#181818;stroke-width:1.0;"/><polygon fill="#181818" points="59,55.22,55,61.22,59,67.22,63,61.22,59,55.22" style="stroke:#181818;stroke-width:1.0;"/><text fill="#000000" font-family="sans-serif" font-size="13" lengthAdjust="spacing" textLength="60" x="60" y="100.8979">composes</text></g><!--SRC=[yyilJbNGqjLL2Ch8pCjFJYtABrQmKaZEpoq0IXHp-UKNbnHbve1L-86K8kG0]--></g></svg>