<?xml version="1.0" encoding="us-ascii" standalone="no"?><svg xmlns="http://www.w3.org/2000/svg" xmlns:xlink="http://www.w3.org/1999/xlink" contentStyleType="text/css" height="316px" preserveAspectRatio="none" style="width:107px;height:316px;background:#FFFFFF;" version="1.1" viewBox="0 0 107 316" width="107px" zoomAndPan="magnify"><defs/><g><!--class Eye--><g id="elem_Eye"><rect fill="#F1F1F1" height="48" id="Eye" rx="2.5" ry="2.5" style="stroke:#181818;stroke-width:0.5;" width="56" x="10.5" y="134"/><ellipse cx="25.5" cy="150" fill="#ADD1B2" rx="11" ry="11" style="stroke:#181818;stroke-width:1.0;"/><path d="M24.8438,155.8594 Q22.8594,155.8594 21.6875,154.3906 Q20.5313,152.9063 20.5313,149.8281 Q20.5313,147.2188 21.75,145.4688 Q22.9844,143.7188 25.1094,143.7188 Q25.6094,143.7188 26.1406,143.8594 Q26.5781,144.0469 26.8438,144.0469 Q27.0625,144.0469 27.1563,144 Q27.2656,143.9531 27.7188,143.3594 L28.4844,147.0938 L27.5938,147.3594 Q27.1406,145.9063 26.5313,145.3125 Q25.9375,144.7031 24.9844,144.7031 Q23.7656,144.7031 23.0469,146.1406 Q22.3281,147.5625 22.3281,149.75 Q22.3281,152.1563 22.9375,153.4531 Q23.5625,154.7344 24.9219,154.7344 Q25.875,154.7344 26.5625,154.0469 Q27.25,153.3438 27.5781,151.8438 L28.4844,152.25 Q28.0781,153.9531 27.1094,154.9063 Q26.1563,155.8594 24.8438,155.8594 Z " fill="#000000"/><text fill="#000000" font-family="sans-serif" font-size="14" lengthAdjust="spacing" textLength="24" x="39.5" y="156.4839">Eye</text><line style="stroke:#181818;stroke-width:0.5;" x1="11.5" x2="65.5" y1="166" y2="166"/><line style="stroke:#181818;stroke-width:0.5;" x1="11.5" x2="65.5" y1="174" y2="174"/></g><!--class Lion--><g id="elem_Lion"><rect fill="#F1F1F1" height="48" id="Lion" rx="2.5" ry="2.5" style="stroke:#181818;stroke-width:0.5;" width="59" x="9" y="261"/><ellipse cx="24" cy="277" fill="#ADD1B2" rx="11" ry="11" style="stroke:#181818;stroke-width:1.0;"/><path d="M23.3438,282.8594 Q21.3594,282.8594 20.1875,281.3906 Q19.0313,279.9063 19.0313,276.8281 Q19.0313,274.2188 20.25,272.4688 Q21.4844,270.7188 23.6094,270.7188 Q24.1094,270.7188 24.6406,270.8594 Q25.0781,271.0469 25.3438,271.0469 Q25.5625,271.0469 25.6563,271 Q25.7656,270.9531 26.2188,270.3594 L26.9844,274.0938 L26.0938,274.3594 Q25.6406,272.9063 25.0313,272.3125 Q24.4375,271.7031 23.4844,271.7031 Q22.2656,271.7031 21.5469,273.1406 Q20.8281,274.5625 20.8281,276.75 Q20.8281,279.1563 21.4375,280.4531 Q22.0625,281.7344 23.4219,281.7344 Q24.375,281.7344 25.0625,281.0469 Q25.75,280.3438 26.0781,278.8438 L26.9844,279.25 Q26.5781,280.9531 25.6094,281.9063 Q24.6563,282.8594 23.3438,282.8594 Z " fill="#000000"/><text fill="#000000" font-family="sans-serif" font-size="14" lengthAdjust="spacing" textLength="27" x="38" y="283.4839">Lion</text><line style="stroke:#181818;stroke-width:0.5;" x1="10" x2="67" y1="293" y2="293"/><line style="stroke:#181818;stroke-width:0.5;" x1="10" x2="67" y1="301" y2="301"/></g><!--class Lens--><g id="elem_Lens"><rect fill="#F1F1F1" height="48" id="Lens" rx="2.5" ry="2.5" style="stroke:#181818;stroke-width:0.5;" width="63" x="7" y="7"/><ellipse cx="22" cy="23" fill="#ADD1B2" rx="11" ry="11" style="stroke:#181818;stroke-width:1.0;"/><path d="M21.3438,28.8594 Q19.3594,28.8594 18.1875,27.3906 Q17.0313,25.9063 17.0313,22.8281 Q17.0313,20.2188 18.25,18.4688 Q19.4844,16.7188 21.6094,16.7188 Q22.1094,16.7188 22.6406,16.8594 Q23.0781,17.0469 23.3438,17.0469 Q23.5625,17.0469 23.6563,17 Q23.7656,16.9531 24.2188,16.3594 L24.9844,20.0938 L24.0938,20.3594 Q23.6406,18.9063 23.0313,18.3125 Q22.4375,17.7031 21.4844,17.7031 Q20.2656,17.7031 19.5469,19.1406 Q18.8281,20.5625 18.8281,22.75 Q18.8281,25.1563 19.4375,26.4531 Q20.0625,27.7344 21.4219,27.7344 Q22.375,27.7344 23.0625,27.0469 Q23.75,26.3438 24.0781,24.8438 L24.9844,25.25 Q24.5781,26.9531 23.6094,27.9063 Q22.6563,28.8594 21.3438,28.8594 Z " fill="#000000"/><text fill="#000000" font-family="sans-serif" font-size="14" lengthAdjust="spacing" textLength="31" x="36" y="29.4839">Lens</text><line style="stroke:#181818;stroke-width:0.5;" x1="8" x2="69" y1="39" y2="39"/><line style="stroke:#181818;stroke-width:0.5;" x1="8" x2="69" y1="47" y2="47"/></g><!--reverse link Eye to Lion--><g id="link_Eye_Lion"><path codeLine="1" d="M38.5,194.22 C38.5,216.67 38.5,238.5 38.5,260.91 " fill="none" id="Eye-backto-Lion" style="stroke:#181818;stroke-width:1.0;"/><polygon fill="#181818" points="38.5,182.22,34.5,188.22,38.5,194.22,42.5,188.22,38.5,182.22" style="stroke:#181818;stroke-width:1.0;"/><text fill="#000000" font-family="sans-serif" font-size="13" lengthAdjust="spacing" textLength="60" x="39.5" y="227.8979">composes</text></g><!--reverse link Lens to Eye--><g id="link_Lens_Eye"><path codeLine="2" d="M38.5,67.22 C38.5,89.67 38.5,111.5 38.5,133.91 " fill="none" id="Lens-backto-Eye" style="stroke:#181818;stroke-width:1.0;"/><polygon fill="#181818" points="38.5,55.22,34.5,61.22,38.5,67.22,42.5,61.22,38.5,55.22" style="stroke:#181818;stroke-width:1.0;"/><text fill="#000000" font-family="sans-serif" font-size="13" lengthAdjust="spacing" textLength="60" x="39.5" y="100.8979">composes</text></g><!--SRC=[SwrCLT3IrLNmoSpFKx1IICxFBSWlJYtcyadDAmPBk08L8CG1]--></g></svg>