<?xml version="1.0" encoding="us-ascii" standalone="no"?><svg xmlns="http://www.w3.org/2000/svg" xmlns:xlink="http://www.w3.org/1999/xlink" contentStyleType="text/css" height="316px" preserveAspectRatio="none" style="width:126px;height:316px;background:#FFFFFF;" version="1.1" viewBox="0 0 126 316" width="126px" zoomAndPan="magnify"><defs/><g><!--class Engine--><g id="elem_Engine"><rect fill="#F1F1F1" height="48" id="Engine" rx="2.5" ry="2.5" style="stroke:#181818;stroke-width:0.5;" width="76" x="19" y="134"/><ellipse cx="34" cy="150" fill="#ADD1B2" rx="11" ry="11" style="stroke:#181818;stroke-width:1.0;"/><path d="M33.3438,155.8594 Q31.3594,155.8594 30.1875,154.3906 Q29.0313,152.9063 29.0313,149.8281 Q29.0313,147.2188 30.25,145.4688 Q31.4844,143.7188 33.6094,143.7188 Q34.1094,143.7188 34.6406,143.8594 Q35.0781,144.0469 35.3438,144.0469 Q35.5625,144.0469 35.6563,144 Q35.7656,143.9531 36.2188,143.3594 L36.9844,147.0938 L36.0938,147.3594 Q35.6406,145.9063 35.0313,145.3125 Q34.4375,144.7031 33.4844,144.7031 Q32.2656,144.7031 31.5469,146.1406 Q30.8281,147.5625 30.8281,149.75 Q30.8281,152.1563 31.4375,153.4531 Q32.0625,154.7344 33.4219,154.7344 Q34.375,154.7344 35.0625,154.0469 Q35.75,153.3438 36.0781,151.8438 L36.9844,152.25 Q36.5781,153.9531 35.6094,154.9063 Q34.6563,155.8594 33.3438,155.8594 Z " fill="#000000"/><text fill="#000000" font-family="sans-serif" font-size="14" lengthAdjust="spacing" textLength="44" x="48" y="156.4839">Engine</text><line style="stroke:#181818;stroke-width:0.5;" x1="20" x2="94" y1="166" y2="166"/><line style="stroke:#181818;stroke-width:0.5;" x1="20" x2="94" y1="174" y2="174"/></g><!--class Motorcycle--><g id="elem_Motorcycle"><rect fill="#F1F1F1" height="48" id="Motorcycle" rx="2.5" ry="2.5" style="stroke:#181818;stroke-width:0.5;" width="100" x="7" y="261"/><ellipse cx="22" cy="277" fill="#ADD1B2" rx="11" ry="11" style="stroke:#181818;stroke-width:1.0;"/><path d="M21.3438,282.8594 Q19.3594,282.8594 18.1875,281.3906 Q17.0313,279.9063 17.0313,276.8281 Q17.0313,274.2188 18.25,272.4688 Q19.4844,270.7188 21.6094,270.7188 Q22.1094,270.7188 22.6406,270.8594 Q23.0781,271.0469 23.3438,271.0469 Q23.5625,271.0469 23.6563,271 Q23.7656,270.9531 24.2188,270.3594 L24.9844,274.0938 L24.0938,274.3594 Q23.6406,272.9063 23.0313,272.3125 Q22.4375,271.7031 21.4844,271.7031 Q20.2656,271.7031 19.5469,273.1406 Q18.8281,274.5625 18.8281,276.75 Q18.8281,279.1563 19.4375,280.4531 Q20.0625,281.7344 21.4219,281.7344 Q22.375,281.7344 23.0625,281.0469 Q23.75,280.3438 24.0781,278.8438 L24.9844,279.25 Q24.5781,280.9531 23.6094,281.9063 Q22.6563,282.8594 21.3438,282.8594 Z " fill="#000000"/><text fill="#000000" font-family="sans-serif" font-size="14" lengthAdjust="spacing" textLength="68" x="36" y="283.4839">Motorcycle</text><line style="stroke:#181818;stroke-width:0.5;" x1="8" x2="106" y1="293" y2="293"/><line style="stroke:#181818;stroke-width:0.5;" x1="8" x2="106" y1="301" y2="301"/></g><!--class Piston--><g id="elem_Piston"><rect fill="#F1F1F1" height="48" id="Piston" rx="2.5" ry="2.5" style="stroke:#181818;stroke-width:0.5;" width="71" x="21.5" y="7"/><ellipse cx="36.5" cy="23" fill="#ADD1B2" rx="11" ry="11" style="stroke:#181818;stroke-width:1.0;"/><path d="M35.8438,28.8594 Q33.8594,28.8594 32.6875,27.3906 Q31.5313,25.9063 31.5313,22.8281 Q31.5313,20.2188 32.75,18.4688 Q33.9844,16.7188 36.1094,16.7188 Q36.6094,16.7188 37.1406,16.8594 Q37.5781,17.0469 37.8438,17.0469 Q38.0625,17.0469 38.1563,17 Q38.2656,16.9531 38.7188,16.3594 L39.4844,20.0938 L38.5938,20.3594 Q38.1406,18.9063 37.5313,18.3125 Q36.9375,17.7031 35.9844,17.7031 Q34.7656,17.7031 34.0469,19.1406 Q33.3281,20.5625 33.3281,22.75 Q33.3281,25.1563 33.9375,26.4531 Q34.5625,27.7344 35.9219,27.7344 Q36.875,27.7344 37.5625,27.0469 Q38.25,26.3438 38.5781,24.8438 L39.4844,25.25 Q39.0781,26.9531 38.1094,27.9063 Q37.1563,28.8594 35.8438,28.8594 Z " fill="#000000"/><text fill="#000000" font-family="sans-serif" font-size="14" lengthAdjust="spacing" textLength="39" x="50.5" y="29.4839">Piston</text><line style="stroke:#181818;stroke-width:0.5;" x1="22.5" x2="91.5" y1="39" y2="39"/><line style="stroke:#181818;stroke-width:0.5;" x1="22.5" x2="91.5" y1="47" y2="47"/></g><!--reverse link Engine to Motorcycle--><g id="link_Engine_Motorcycle"><path codeLine="1" d="M57,194.22 C57,216.67 57,238.5 57,260.91 " fill="none" id="Engine-backto-Motorcycle" style="stroke:#181818;stroke-width:1.0;"/><polygon fill="#181818" points="57,182.22,53,188.22,57,194.22,61,188.22,57,182.22" style="stroke:#181818;stroke-width:1.0;"/><text fill="#000000" font-family="sans-serif" font-size="13" lengthAdjust="spacing" textLength="60" x="58" y="227.8979">composes</text></g><!--reverse link Piston to Engine--><g id="link_Piston_Engine"><path codeLine="2" d="M57,67.22 C57,89.67 57,111.5 57,133.91 " fill="none" id="Piston-backto-Engine" style="stroke:#181818;stroke-width:1.0;"/><polygon fill="#181818" points="57,55.22,53,61.22,57,67.22,61,61.22,57,55.22" style="stroke:#181818;stroke-width:1.0;"/><text fill="#000000" font-family="sans-serif" font-size="13" lengthAdjust="spacing" textLength="60" x="58" y="100.8979">composes</text></g><!--SRC=[SyrBpynBLT3IrLNmpI_9BqgkJCv9LR1IICxFBSWlJYtc2iWiBidF0ojmXQX5I080]--></g></svg>