<?xml version="1.0" encoding="us-ascii" standalone="no"?><svg xmlns="http://www.w3.org/2000/svg" xmlns:xlink="http://www.w3.org/1999/xlink" contentStyleType="text/css" height="316px" preserveAspectRatio="none" style="width:139px;height:316px;background:#FFFFFF;" version="1.1" viewBox="0 0 139 316" width="139px" zoomAndPan="magnify"><defs/><g><!--class TurbineEngine--><g id="elem_TurbineEngine"><rect fill="#F1F1F1" height="48" id="TurbineEngine" rx="2.5" ry="2.5" style="stroke:#181818;stroke-width:0.5;" width="125" x="7" y="134"/><ellipse cx="22" cy="150" fill="#ADD1B2" rx="11" ry="11" style="stroke:#181818;stroke-width:1.0;"/><path d="M21.3438,155.8594 Q19.3594,155.8594 18.1875,154.3906 Q17.0313,152.9063 17.0313,149.8281 Q17.0313,147.2188 18.25,145.4688 Q19.4844,143.7188 21.6094,143.7188 Q22.1094,143.7188 22.6406,143.8594 Q23.0781,144.0469 23.3438,144.0469 Q23.5625,144.0469 23.6563,144 Q23.7656,143.9531 24.2188,143.3594 L24.9844,147.0938 L24.0938,147.3594 Q23.6406,145.9063 23.0313,145.3125 Q22.4375,144.7031 21.4844,144.7031 Q20.2656,144.7031 19.5469,146.1406 Q18.8281,147.5625 18.8281,149.75 Q18.8281,152.1563 19.4375,153.4531 Q20.0625,154.7344 21.4219,154.7344 Q22.375,154.7344 23.0625,154.0469 Q23.75,153.3438 24.0781,151.8438 L24.9844,152.25 Q24.5781,153.9531 23.6094,154.9063 Q22.6563,155.8594 21.3438,155.8594 Z " fill="#000000"/><text fill="#000000" font-family="sans-serif" font-size="14" lengthAdjust="spacing" textLength="93" x="36" y="156.4839">TurbineEngine</text><line style="stroke:#181818;stroke-width:0.5;" x1="8" x2="131" y1="166" y2="166"/><line style="stroke:#181818;stroke-width:0.5;" x1="8" x2="131" y1="174" y2="174"/></g><!--class Jet--><g id="elem_Jet"><rect fill="#F1F1F1" height="48" id="Jet" rx="2.5" ry="2.5" style="stroke:#181818;stroke-width:0.5;" width="50" x="44.5" y="261"/><ellipse cx="59.5" cy="277" fill="#ADD1B2" rx="11" ry="11" style="stroke:#181818;stroke-width:1.0;"/><path d="M58.8438,282.8594 Q56.8594,282.8594 55.6875,281.3906 Q54.5313,279.9063 54.5313,276.8281 Q54.5313,274.2188 55.75,272.4688 Q56.9844,270.7188 59.1094,270.7188 Q59.6094,270.7188 60.1406,270.8594 Q60.5781,271.0469 60.8438,271.0469 Q61.0625,271.0469 61.1563,271 Q61.2656,270.9531 61.7188,270.3594 L62.4844,274.0938 L61.5938,274.3594 Q61.1406,272.9063 60.5313,272.3125 Q59.9375,271.7031 58.9844,271.7031 Q57.7656,271.7031 57.0469,273.1406 Q56.3281,274.5625 56.3281,276.75 Q56.3281,279.1563 56.9375,280.4531 Q57.5625,281.7344 58.9219,281.7344 Q59.875,281.7344 60.5625,281.0469 Q61.25,280.3438 61.5781,278.8438 L62.4844,279.25 Q62.0781,280.9531 61.1094,281.9063 Q60.1563,282.8594 58.8438,282.8594 Z " fill="#000000"/><text fill="#000000" font-family="sans-serif" font-size="14" lengthAdjust="spacing" textLength="18" x="73.5" y="283.4839">Jet</text><line style="stroke:#181818;stroke-width:0.5;" x1="45.5" x2="93.5" y1="293" y2="293"/><line style="stroke:#181818;stroke-width:0.5;" x1="45.5" x2="93.5" y1="301" y2="301"/></g><!--class FuelNozzle--><g id="elem_FuelNozzle"><rect fill="#F1F1F1" height="48" id="FuelNozzle" rx="2.5" ry="2.5" style="stroke:#181818;stroke-width:0.5;" width="100" x="19.5" y="7"/><ellipse cx="34.5" cy="23" fill="#ADD1B2" rx="11" ry="11" style="stroke:#181818;stroke-width:1.0;"/><path d="M33.8438,28.8594 Q31.8594,28.8594 30.6875,27.3906 Q29.5313,25.9063 29.5313,22.8281 Q29.5313,20.2188 30.75,18.4688 Q31.9844,16.7188 34.1094,16.7188 Q34.6094,16.7188 35.1406,16.8594 Q35.5781,17.0469 35.8438,17.0469 Q36.0625,17.0469 36.1563,17 Q36.2656,16.9531 36.7188,16.3594 L37.4844,20.0938 L36.5938,20.3594 Q36.1406,18.9063 35.5313,18.3125 Q34.9375,17.7031 33.9844,17.7031 Q32.7656,17.7031 32.0469,19.1406 Q31.3281,20.5625 31.3281,22.75 Q31.3281,25.1563 31.9375,26.4531 Q32.5625,27.7344 33.9219,27.7344 Q34.875,27.7344 35.5625,27.0469 Q36.25,26.3438 36.5781,24.8438 L37.4844,25.25 Q37.0781,26.9531 36.1094,27.9063 Q35.1563,28.8594 33.8438,28.8594 Z " fill="#000000"/><text fill="#000000" font-family="sans-serif" font-size="14" lengthAdjust="spacing" textLength="68" x="48.5" y="29.4839">FuelNozzle</text><line style="stroke:#181818;stroke-width:0.5;" x1="20.5" x2="118.5" y1="39" y2="39"/><line style="stroke:#181818;stroke-width:0.5;" x1="20.5" x2="118.5" y1="47" y2="47"/></g><!--reverse link TurbineEngine to Jet--><g id="link_TurbineEngine_Jet"><path codeLine="1" d="M69.5,194.22 C69.5,216.67 69.5,238.5 69.5,260.91 " fill="none" id="TurbineEngine-backto-Jet" style="stroke:#181818;stroke-width:1.0;"/><polygon fill="#181818" points="69.5,182.22,65.5,188.22,69.5,194.22,73.5,188.22,69.5,182.22" style="stroke:#181818;stroke-width:1.0;"/><text fill="#000000" font-family="sans-serif" font-size="13" lengthAdjust="spacing" textLength="60" x="70.5" y="227.8979">composes</text></g><!--reverse link FuelNozzle to TurbineEngine--><g id="link_FuelNozzle_TurbineEngine"><path codeLine="2" d="M69.5,67.22 C69.5,89.67 69.5,111.5 69.5,133.91 " fill="none" id="FuelNozzle-backto-TurbineEngine" style="stroke:#181818;stroke-width:1.0;"/><polygon fill="#181818" points="69.5,55.22,65.5,61.22,69.5,67.22,73.5,61.22,69.5,55.22" style="stroke:#181818;stroke-width:1.0;"/><text fill="#000000" font-family="sans-serif" font-size="13" lengthAdjust="spacing" textLength="60" x="70.5" y="100.8979">composes</text></g><!--SRC=[2oajIihCItNDImUI2bgwkWfUgIKALWh9-Ra5-SMfnLnkfQavVlbLLJaGsH0KzGXr0000]--></g></svg>