<?xml version="1.0" encoding="us-ascii" standalone="no"?><svg xmlns="http://www.w3.org/2000/svg" xmlns:xlink="http://www.w3.org/1999/xlink" contentStyleType="text/css" height="316px" preserveAspectRatio="none" style="width:131px;height:316px;background:#FFFFFF;" version="1.1" viewBox="0 0 131 316" width="131px" zoomAndPan="magnify"><defs/><g><!--class CircuitBoard--><g id="elem_CircuitBoard"><rect fill="#F1F1F1" height="48" id="CircuitBoard" rx="2.5" ry="2.5" style="stroke:#181818;stroke-width:0.5;" width="110" x="7" y="134"/><ellipse cx="22" cy="150" fill="#ADD1B2" rx="11" ry="11" style="stroke:#181818;stroke-width:1.0;"/><path d="M21.3438,155.8594 Q19.3594,155.8594 18.1875,154.3906 Q17.0313,152.9063 17.0313,149.8281 Q17.0313,147.2188 18.25,145.4688 Q19.4844,143.7188 21.6094,143.7188 Q22.1094,143.7188 22.6406,143.8594 Q23.0781,144.0469 23.3438,144.0469 Q23.5625,144.0469 23.6563,144 Q23.7656,143.9531 24.2188,143.3594 L24.9844,147.0938 L24.0938,147.3594 Q23.6406,145.9063 23.0313,145.3125 Q22.4375,144.7031 21.4844,144.7031 Q20.2656,144.7031 19.5469,146.1406 Q18.8281,147.5625 18.8281,149.75 Q18.8281,152.1563 19.4375,153.4531 Q20.0625,154.7344 21.4219,154.7344 Q22.375,154.7344 23.0625,154.0469 Q23.75,153.3438 24.0781,151.8438 L24.9844,152.25 Q24.5781,153.9531 23.6094,154.9063 Q22.6563,155.8594 21.3438,155.8594 Z " fill="#000000"/><text fill="#000000" font-family="sans-serif" font-size="14" lengthAdjust="spacing" textLength="78" x="36" y="156.4839">CircuitBoard</text><line style="stroke:#181818;stroke-width:0.5;" x1="8" x2="116" y1="166" y2="166"/><line style="stroke:#181818;stroke-width:0.5;" x1="8" x2="116" y1="174" y2="174"/></g><!--class Router--><g id="elem_Router"><rect fill="#F1F1F1" height="48" id="Router" rx="2.5" ry="2.5" style="stroke:#181818;stroke-width:0.5;" width="75" x="24.5" y="261"/><ellipse cx="39.5" cy="277" fill="#ADD1B2" rx="11" ry="11" style="stroke:#181818;stroke-width:1.0;"/><path d="M38.8438,282.8594 Q36.8594,282.8594 35.6875,281.3906 Q34.5313,279.9063 34.5313,276.8281 Q34.5313,274.2188 35.75,272.4688 Q36.9844,270.7188 39.1094,270.7188 Q39.6094,270.7188 40.1406,270.8594 Q40.5781,271.0469 40.8438,271.0469 Q41.0625,271.0469 41.1563,271 Q41.2656,270.9531 41.7188,270.3594 L42.4844,274.0938 L41.5938,274.3594 Q41.1406,272.9063 40.5313,272.3125 Q39.9375,271.7031 38.9844,271.7031 Q37.7656,271.7031 37.0469,273.1406 Q36.3281,274.5625 36.3281,276.75 Q36.3281,279.1563 36.9375,280.4531 Q37.5625,281.7344 38.9219,281.7344 Q39.875,281.7344 40.5625,281.0469 Q41.25,280.3438 41.5781,278.8438 L42.4844,279.25 Q42.0781,280.9531 41.1094,281.9063 Q40.1563,282.8594 38.8438,282.8594 Z " fill="#000000"/><text fill="#000000" font-family="sans-serif" font-size="14" lengthAdjust="spacing" textLength="43" x="53.5" y="283.4839">Router</text><line style="stroke:#181818;stroke-width:0.5;" x1="25.5" x2="98.5" y1="293" y2="293"/><line style="stroke:#181818;stroke-width:0.5;" x1="25.5" x2="98.5" y1="301" y2="301"/></g><!--class Resistor--><g id="elem_Resistor"><rect fill="#F1F1F1" height="48" id="Resistor" rx="2.5" ry="2.5" style="stroke:#181818;stroke-width:0.5;" width="84" x="20" y="7"/><ellipse cx="35" cy="23" fill="#ADD1B2" rx="11" ry="11" style="stroke:#181818;stroke-width:1.0;"/><path d="M34.3438,28.8594 Q32.3594,28.8594 31.1875,27.3906 Q30.0313,25.9063 30.0313,22.8281 Q30.0313,20.2188 31.25,18.4688 Q32.4844,16.7188 34.6094,16.7188 Q35.1094,16.7188 35.6406,16.8594 Q36.0781,17.0469 36.3438,17.0469 Q36.5625,17.0469 36.6563,17 Q36.7656,16.9531 37.2188,16.3594 L37.9844,20.0938 L37.0938,20.3594 Q36.6406,18.9063 36.0313,18.3125 Q35.4375,17.7031 34.4844,17.7031 Q33.2656,17.7031 32.5469,19.1406 Q31.8281,20.5625 31.8281,22.75 Q31.8281,25.1563 32.4375,26.4531 Q33.0625,27.7344 34.4219,27.7344 Q35.375,27.7344 36.0625,27.0469 Q36.75,26.3438 37.0781,24.8438 L37.9844,25.25 Q37.5781,26.9531 36.6094,27.9063 Q35.6563,28.8594 34.3438,28.8594 Z " fill="#000000"/><text fill="#000000" font-family="sans-serif" font-size="14" lengthAdjust="spacing" textLength="52" x="49" y="29.4839">Resistor</text><line style="stroke:#181818;stroke-width:0.5;" x1="21" x2="103" y1="39" y2="39"/><line style="stroke:#181818;stroke-width:0.5;" x1="21" x2="103" y1="47" y2="47"/></g><!--reverse link CircuitBoard to Router--><g id="link_CircuitBoard_Router"><path codeLine="1" d="M62,194.22 C62,216.67 62,238.5 62,260.91 " fill="none" id="CircuitBoard-backto-Router" style="stroke:#181818;stroke-width:1.0;"/><polygon fill="#181818" points="62,182.22,58,188.22,62,194.22,66,188.22,62,182.22" style="stroke:#181818;stroke-width:1.0;"/><text fill="#000000" font-family="sans-serif" font-size="13" lengthAdjust="spacing" textLength="60" x="63" y="227.8979">composes</text></g><!--reverse link Resistor to CircuitBoard--><g id="link_Resistor_CircuitBoard"><path codeLine="2" d="M62,67.22 C62,89.67 62,111.5 62,133.91 " fill="none" id="Resistor-backto-CircuitBoard" style="stroke:#181818;stroke-width:1.0;"/><polygon fill="#181818" points="62,55.22,58,61.22,62,67.22,66,61.22,62,55.22" style="stroke:#181818;stroke-width:1.0;"/><text fill="#000000" font-family="sans-serif" font-size="13" lengthAdjust="spacing" textLength="60" x="63" y="100.8979">composes</text></g><!--SRC=[SyuiIYxDB77AJonAKT3IrLK8oYyjIIrIi598piyjo2zEBUOAIYtEB2x9Bm9BEoEhHoW20000]--></g></svg>