<?xml version="1.0" encoding="us-ascii" standalone="no"?><svg xmlns="http://www.w3.org/2000/svg" xmlns:xlink="http://www.w3.org/1999/xlink" contentStyleType="text/css" height="189px" preserveAspectRatio="none" style="width:158px;height:189px;background:#FFFFFF;" version="1.1" viewBox="0 0 158 189" width="158px" zoomAndPan="magnify"><defs/><g><!--class NetworkingDevice--><g id="elem_NetworkingDevice"><rect fill="#F1F1F1" height="48" id="NetworkingDevice" rx="2.5" ry="2.5" style="stroke:#181818;stroke-width:0.5;" width="144" x="7" y="7"/><ellipse cx="22" cy="23" fill="#ADD1B2" rx="11" ry="11" style="stroke:#181818;stroke-width:1.0;"/><path d="M21.3438,28.8594 Q19.3594,28.8594 18.1875,27.3906 Q17.0313,25.9063 17.0313,22.8281 Q17.0313,20.2188 18.25,18.4688 Q19.4844,16.7188 21.6094,16.7188 Q22.1094,16.7188 22.6406,16.8594 Q23.0781,17.0469 23.3438,17.0469 Q23.5625,17.0469 23.6563,17 Q23.7656,16.9531 24.2188,16.3594 L24.9844,20.0938 L24.0938,20.3594 Q23.6406,18.9063 23.0313,18.3125 Q22.4375,17.7031 21.4844,17.7031 Q20.2656,17.7031 19.5469,19.1406 Q18.8281,20.5625 18.8281,22.75 Q18.8281,25.1563 19.4375,26.4531 Q20.0625,27.7344 21.4219,27.7344 Q22.375,27.7344 23.0625,27.0469 Q23.75,26.3438 24.0781,24.8438 L24.9844,25.25 Q24.5781,26.9531 23.6094,27.9063 Q22.6563,28.8594 21.3438,28.8594 Z " fill="#000000"/><text fill="#000000" font-family="sans-serif" font-size="14" lengthAdjust="spacing" textLength="112" x="36" y="29.4839">NetworkingDevice</text><line style="stroke:#181818;stroke-width:0.5;" x1="8" x2="150" y1="39" y2="39"/><line style="stroke:#181818;stroke-width:0.5;" x1="8" x2="150" y1="47" y2="47"/></g><!--class Router--><g id="elem_Router"><rect fill="#F1F1F1" height="48" id="Router" rx="2.5" ry="2.5" style="stroke:#181818;stroke-width:0.5;" width="75" x="41.5" y="134"/><ellipse cx="56.5" cy="150" fill="#ADD1B2" rx="11" ry="11" style="stroke:#181818;stroke-width:1.0;"/><path d="M55.8438,155.8594 Q53.8594,155.8594 52.6875,154.3906 Q51.5313,152.9063 51.5313,149.8281 Q51.5313,147.2188 52.75,145.4688 Q53.9844,143.7188 56.1094,143.7188 Q56.6094,143.7188 57.1406,143.8594 Q57.5781,144.0469 57.8438,144.0469 Q58.0625,144.0469 58.1563,144 Q58.2656,143.9531 58.7188,143.3594 L59.4844,147.0938 L58.5938,147.3594 Q58.1406,145.9063 57.5313,145.3125 Q56.9375,144.7031 55.9844,144.7031 Q54.7656,144.7031 54.0469,146.1406 Q53.3281,147.5625 53.3281,149.75 Q53.3281,152.1563 53.9375,153.4531 Q54.5625,154.7344 55.9219,154.7344 Q56.875,154.7344 57.5625,154.0469 Q58.25,153.3438 58.5781,151.8438 L59.4844,152.25 Q59.0781,153.9531 58.1094,154.9063 Q57.1563,155.8594 55.8438,155.8594 Z " fill="#000000"/><text fill="#000000" font-family="sans-serif" font-size="14" lengthAdjust="spacing" textLength="43" x="70.5" y="156.4839">Router</text><line style="stroke:#181818;stroke-width:0.5;" x1="42.5" x2="115.5" y1="166" y2="166"/><line style="stroke:#181818;stroke-width:0.5;" x1="42.5" x2="115.5" y1="174" y2="174"/></g><!--reverse link NetworkingDevice to Router--><g id="link_NetworkingDevice_Router"><path codeLine="1" d="M79,73.22 C79,95.67 79,111.5 79,133.91 " fill="none" id="NetworkingDevice-backto-Router" style="stroke:#181818;stroke-width:1.0;"/><polygon fill="none" points="79,55.22,73,73.22,85,73.22,79,55.22" style="stroke:#181818;stroke-width:1.0;"/><text fill="#000000" font-family="sans-serif" font-size="13" lengthAdjust="spacing" textLength="42" x="80" y="100.8979">inherits</text></g><!--SRC=[yqijASyloixCItT9BSjCJbMmgT7LLGZABor9BLAmKiZCoqWjoYmf1W00]--></g></svg>