<?xml version="1.0" encoding="us-ascii" standalone="no"?><svg xmlns="http://www.w3.org/2000/svg" xmlns:xlink="http://www.w3.org/1999/xlink" contentStyleType="text/css" height="316px" preserveAspectRatio="none" style="width:119px;height:316px;background:#FFFFFF;" version="1.1" viewBox="0 0 119 316" width="119px" zoomAndPan="magnify"><defs/><g><!--class Ear--><g id="elem_Ear"><rect fill="#F1F1F1" height="48" id="Ear" rx="2.5" ry="2.5" style="stroke:#181818;stroke-width:0.5;" width="54" x="23" y="134"/><ellipse cx="38" cy="150" fill="#ADD1B2" rx="11" ry="11" style="stroke:#181818;stroke-width:1.0;"/><path d="M37.3438,155.8594 Q35.3594,155.8594 34.1875,154.3906 Q33.0313,152.9063 33.0313,149.8281 Q33.0313,147.2188 34.25,145.4688 Q35.4844,143.7188 37.6094,143.7188 Q38.1094,143.7188 38.6406,143.8594 Q39.0781,144.0469 39.3438,144.0469 Q39.5625,144.0469 39.6563,144 Q39.7656,143.9531 40.2188,143.3594 L40.9844,147.0938 L40.0938,147.3594 Q39.6406,145.9063 39.0313,145.3125 Q38.4375,144.7031 37.4844,144.7031 Q36.2656,144.7031 35.5469,146.1406 Q34.8281,147.5625 34.8281,149.75 Q34.8281,152.1563 35.4375,153.4531 Q36.0625,154.7344 37.4219,154.7344 Q38.375,154.7344 39.0625,154.0469 Q39.75,153.3438 40.0781,151.8438 L40.9844,152.25 Q40.5781,153.9531 39.6094,154.9063 Q38.6563,155.8594 37.3438,155.8594 Z " fill="#000000"/><text fill="#000000" font-family="sans-serif" font-size="14" lengthAdjust="spacing" textLength="22" x="52" y="156.4839">Ear</text><line style="stroke:#181818;stroke-width:0.5;" x1="24" x2="76" y1="166" y2="166"/><line style="stroke:#181818;stroke-width:0.5;" x1="24" x2="76" y1="174" y2="174"/></g><!--class Eardrum--><g id="elem_Eardrum"><rect fill="#F1F1F1" height="48" id="Eardrum" rx="2.5" ry="2.5" style="stroke:#181818;stroke-width:0.5;" width="86" x="7" y="261"/><ellipse cx="22" cy="277" fill="#ADD1B2" rx="11" ry="11" style="stroke:#181818;stroke-width:1.0;"/><path d="M21.3438,282.8594 Q19.3594,282.8594 18.1875,281.3906 Q17.0313,279.9063 17.0313,276.8281 Q17.0313,274.2188 18.25,272.4688 Q19.4844,270.7188 21.6094,270.7188 Q22.1094,270.7188 22.6406,270.8594 Q23.0781,271.0469 23.3438,271.0469 Q23.5625,271.0469 23.6563,271 Q23.7656,270.9531 24.2188,270.3594 L24.9844,274.0938 L24.0938,274.3594 Q23.6406,272.9063 23.0313,272.3125 Q22.4375,271.7031 21.4844,271.7031 Q20.2656,271.7031 19.5469,273.1406 Q18.8281,274.5625 18.8281,276.75 Q18.8281,279.1563 19.4375,280.4531 Q20.0625,281.7344 21.4219,281.7344 Q22.375,281.7344 23.0625,281.0469 Q23.75,280.3438 24.0781,278.8438 L24.9844,279.25 Q24.5781,280.9531 23.6094,281.9063 Q22.6563,282.8594 21.3438,282.8594 Z " fill="#000000"/><text fill="#000000" font-family="sans-serif" font-size="14" lengthAdjust="spacing" textLength="54" x="36" y="283.4839">Eardrum</text><line style="stroke:#181818;stroke-width:0.5;" x1="8" x2="92" y1="293" y2="293"/><line style="stroke:#181818;stroke-width:0.5;" x1="8" x2="92" y1="301" y2="301"/></g><!--class Dog--><g id="elem_Dog"><rect fill="#F1F1F1" height="48" id="Dog" rx="2.5" ry="2.5" style="stroke:#181818;stroke-width:0.5;" width="58" x="21" y="7"/><ellipse cx="36" cy="23" fill="#ADD1B2" rx="11" ry="11" style="stroke:#181818;stroke-width:1.0;"/><path d="M35.3438,28.8594 Q33.3594,28.8594 32.1875,27.3906 Q31.0313,25.9063 31.0313,22.8281 Q31.0313,20.2188 32.25,18.4688 Q33.4844,16.7188 35.6094,16.7188 Q36.1094,16.7188 36.6406,16.8594 Q37.0781,17.0469 37.3438,17.0469 Q37.5625,17.0469 37.6563,17 Q37.7656,16.9531 38.2188,16.3594 L38.9844,20.0938 L38.0938,20.3594 Q37.6406,18.9063 37.0313,18.3125 Q36.4375,17.7031 35.4844,17.7031 Q34.2656,17.7031 33.5469,19.1406 Q32.8281,20.5625 32.8281,22.75 Q32.8281,25.1563 33.4375,26.4531 Q34.0625,27.7344 35.4219,27.7344 Q36.375,27.7344 37.0625,27.0469 Q37.75,26.3438 38.0781,24.8438 L38.9844,25.25 Q38.5781,26.9531 37.6094,27.9063 Q36.6563,28.8594 35.3438,28.8594 Z " fill="#000000"/><text fill="#000000" font-family="sans-serif" font-size="14" lengthAdjust="spacing" textLength="26" x="50" y="29.4839">Dog</text><line style="stroke:#181818;stroke-width:0.5;" x1="22" x2="78" y1="39" y2="39"/><line style="stroke:#181818;stroke-width:0.5;" x1="22" x2="78" y1="47" y2="47"/></g><!--reverse link Ear to Eardrum--><g id="link_Ear_Eardrum"><path codeLine="1" d="M50,194.22 C50,216.67 50,238.5 50,260.91 " fill="none" id="Ear-backto-Eardrum" style="stroke:#181818;stroke-width:1.0;"/><polygon fill="#181818" points="50,182.22,46,188.22,50,194.22,54,188.22,50,182.22" style="stroke:#181818;stroke-width:1.0;"/><text fill="#000000" font-family="sans-serif" font-size="13" lengthAdjust="spacing" textLength="60" x="51" y="227.8979">composes</text></g><!--reverse link Dog to Ear--><g id="link_Dog_Ear"><path codeLine="2" d="M50,67.22 C50,89.67 50,111.5 50,133.91 " fill="none" id="Dog-backto-Ear" style="stroke:#181818;stroke-width:1.0;"/><polygon fill="#181818" points="50,55.22,46,61.22,50,67.22,54,61.22,50,55.22" style="stroke:#181818;stroke-width:1.0;"/><text fill="#000000" font-family="sans-serif" font-size="13" lengthAdjust="spacing" textLength="60" x="51" y="100.8979">composes</text></g><!--SRC=[SqqiKj3IrLLmJInAAIhDLR1IICxFBSWlJYtcSibFXqaX2GC0]--></g></svg>