<?xml version="1.0" encoding="us-ascii" standalone="no"?><svg xmlns="http://www.w3.org/2000/svg" xmlns:xlink="http://www.w3.org/1999/xlink" contentStyleType="text/css" height="316px" preserveAspectRatio="none" style="width:116px;height:316px;background:#FFFFFF;" version="1.1" viewBox="0 0 116 316" width="116px" zoomAndPan="magnify"><defs/><g><!--class Paw--><g id="elem_Paw"><rect fill="#F1F1F1" height="48" id="Paw" rx="2.5" ry="2.5" style="stroke:#181818;stroke-width:0.5;" width="58" x="18.5" y="134"/><ellipse cx="33.5" cy="150" fill="#ADD1B2" rx="11" ry="11" style="stroke:#181818;stroke-width:1.0;"/><path d="M32.8438,155.8594 Q30.8594,155.8594 29.6875,154.3906 Q28.5313,152.9063 28.5313,149.8281 Q28.5313,147.2188 29.75,145.4688 Q30.9844,143.7188 33.1094,143.7188 Q33.6094,143.7188 34.1406,143.8594 Q34.5781,144.0469 34.8438,144.0469 Q35.0625,144.0469 35.1563,144 Q35.2656,143.9531 35.7188,143.3594 L36.4844,147.0938 L35.5938,147.3594 Q35.1406,145.9063 34.5313,145.3125 Q33.9375,144.7031 32.9844,144.7031 Q31.7656,144.7031 31.0469,146.1406 Q30.3281,147.5625 30.3281,149.75 Q30.3281,152.1563 30.9375,153.4531 Q31.5625,154.7344 32.9219,154.7344 Q33.875,154.7344 34.5625,154.0469 Q35.25,153.3438 35.5781,151.8438 L36.4844,152.25 Q36.0781,153.9531 35.1094,154.9063 Q34.1563,155.8594 32.8438,155.8594 Z " fill="#000000"/><text fill="#000000" font-family="sans-serif" font-size="14" lengthAdjust="spacing" textLength="26" x="47.5" y="156.4839">Paw</text><line style="stroke:#181818;stroke-width:0.5;" x1="19.5" x2="75.5" y1="166" y2="166"/><line style="stroke:#181818;stroke-width:0.5;" x1="19.5" x2="75.5" y1="174" y2="174"/></g><!--class Claw--><g id="elem_Claw"><rect fill="#F1F1F1" height="48" id="Claw" rx="2.5" ry="2.5" style="stroke:#181818;stroke-width:0.5;" width="62" x="16.5" y="261"/><ellipse cx="31.5" cy="277" fill="#ADD1B2" rx="11" ry="11" style="stroke:#181818;stroke-width:1.0;"/><path d="M30.8438,282.8594 Q28.8594,282.8594 27.6875,281.3906 Q26.5313,279.9063 26.5313,276.8281 Q26.5313,274.2188 27.75,272.4688 Q28.9844,270.7188 31.1094,270.7188 Q31.6094,270.7188 32.1406,270.8594 Q32.5781,271.0469 32.8438,271.0469 Q33.0625,271.0469 33.1563,271 Q33.2656,270.9531 33.7188,270.3594 L34.4844,274.0938 L33.5938,274.3594 Q33.1406,272.9063 32.5313,272.3125 Q31.9375,271.7031 30.9844,271.7031 Q29.7656,271.7031 29.0469,273.1406 Q28.3281,274.5625 28.3281,276.75 Q28.3281,279.1563 28.9375,280.4531 Q29.5625,281.7344 30.9219,281.7344 Q31.875,281.7344 32.5625,281.0469 Q33.25,280.3438 33.5781,278.8438 L34.4844,279.25 Q34.0781,280.9531 33.1094,281.9063 Q32.1563,282.8594 30.8438,282.8594 Z " fill="#000000"/><text fill="#000000" font-family="sans-serif" font-size="14" lengthAdjust="spacing" textLength="30" x="45.5" y="283.4839">Claw</text><line style="stroke:#181818;stroke-width:0.5;" x1="17.5" x2="77.5" y1="293" y2="293"/><line style="stroke:#181818;stroke-width:0.5;" x1="17.5" x2="77.5" y1="301" y2="301"/></g><!--class Squirrel--><g id="elem_Squirrel"><rect fill="#F1F1F1" height="48" id="Squirrel" rx="2.5" ry="2.5" style="stroke:#181818;stroke-width:0.5;" width="81" x="7" y="7"/><ellipse cx="22" cy="23" fill="#ADD1B2" rx="11" ry="11" style="stroke:#181818;stroke-width:1.0;"/><path d="M21.3438,28.8594 Q19.3594,28.8594 18.1875,27.3906 Q17.0313,25.9063 17.0313,22.8281 Q17.0313,20.2188 18.25,18.4688 Q19.4844,16.7188 21.6094,16.7188 Q22.1094,16.7188 22.6406,16.8594 Q23.0781,17.0469 23.3438,17.0469 Q23.5625,17.0469 23.6563,17 Q23.7656,16.9531 24.2188,16.3594 L24.9844,20.0938 L24.0938,20.3594 Q23.6406,18.9063 23.0313,18.3125 Q22.4375,17.7031 21.4844,17.7031 Q20.2656,17.7031 19.5469,19.1406 Q18.8281,20.5625 18.8281,22.75 Q18.8281,25.1563 19.4375,26.4531 Q20.0625,27.7344 21.4219,27.7344 Q22.375,27.7344 23.0625,27.0469 Q23.75,26.3438 24.0781,24.8438 L24.9844,25.25 Q24.5781,26.9531 23.6094,27.9063 Q22.6563,28.8594 21.3438,28.8594 Z " fill="#000000"/><text fill="#000000" font-family="sans-serif" font-size="14" lengthAdjust="spacing" textLength="49" x="36" y="29.4839">Squirrel</text><line style="stroke:#181818;stroke-width:0.5;" x1="8" x2="87" y1="39" y2="39"/><line style="stroke:#181818;stroke-width:0.5;" x1="8" x2="87" y1="47" y2="47"/></g><!--reverse link Paw to Claw--><g id="link_Paw_Claw"><path codeLine="1" d="M47.5,194.22 C47.5,216.67 47.5,238.5 47.5,260.91 " fill="none" id="Paw-backto-Claw" style="stroke:#181818;stroke-width:1.0;"/><polygon fill="#181818" points="47.5,182.22,43.5,188.22,47.5,194.22,51.5,188.22,47.5,182.22" style="stroke:#181818;stroke-width:1.0;"/><text fill="#000000" font-family="sans-serif" font-size="13" lengthAdjust="spacing" textLength="60" x="48.5" y="227.8979">composes</text></g><!--reverse link Squirrel to Paw--><g id="link_Squirrel_Paw"><path codeLine="2" d="M47.5,67.22 C47.5,89.67 47.5,111.5 47.5,133.91 " fill="none" id="Squirrel-backto-Paw" style="stroke:#181818;stroke-width:1.0;"/><polygon fill="#181818" points="47.5,55.22,43.5,61.22,47.5,67.22,51.5,61.22,47.5,55.22" style="stroke:#181818;stroke-width:1.0;"/><text fill="#000000" font-family="sans-serif" font-size="13" lengthAdjust="spacing" textLength="60" x="48.5" y="100.8979">composes</text></g><!--SRC=[2qWiLz3IrLLmpW4oh1IIytCByejJYxc22qipYufISy2I0IXo0000]--></g></svg>