<?xml version="1.0" encoding="us-ascii" standalone="no"?><svg xmlns="http://www.w3.org/2000/svg" xmlns:xlink="http://www.w3.org/1999/xlink" contentStyleType="text/css" height="316px" preserveAspectRatio="none" style="width:128px;height:316px;background:#FFFFFF;" version="1.1" viewBox="0 0 128 316" width="128px" zoomAndPan="magnify"><defs/><g><!--class Skin--><g id="elem_Skin"><rect fill="#F1F1F1" height="48" id="Skin" rx="2.5" ry="2.5" style="stroke:#181818;stroke-width:0.5;" width="59" x="29.5" y="134"/><ellipse cx="44.5" cy="150" fill="#ADD1B2" rx="11" ry="11" style="stroke:#181818;stroke-width:1.0;"/><path d="M43.8438,155.8594 Q41.8594,155.8594 40.6875,154.3906 Q39.5313,152.9063 39.5313,149.8281 Q39.5313,147.2188 40.75,145.4688 Q41.9844,143.7188 44.1094,143.7188 Q44.6094,143.7188 45.1406,143.8594 Q45.5781,144.0469 45.8438,144.0469 Q46.0625,144.0469 46.1563,144 Q46.2656,143.9531 46.7188,143.3594 L47.4844,147.0938 L46.5938,147.3594 Q46.1406,145.9063 45.5313,145.3125 Q44.9375,144.7031 43.9844,144.7031 Q42.7656,144.7031 42.0469,146.1406 Q41.3281,147.5625 41.3281,149.75 Q41.3281,152.1563 41.9375,153.4531 Q42.5625,154.7344 43.9219,154.7344 Q44.875,154.7344 45.5625,154.0469 Q46.25,153.3438 46.5781,151.8438 L47.4844,152.25 Q47.0781,153.9531 46.1094,154.9063 Q45.1563,155.8594 43.8438,155.8594 Z " fill="#000000"/><text fill="#000000" font-family="sans-serif" font-size="14" lengthAdjust="spacing" textLength="27" x="58.5" y="156.4839">Skin</text><line style="stroke:#181818;stroke-width:0.5;" x1="30.5" x2="87.5" y1="166" y2="166"/><line style="stroke:#181818;stroke-width:0.5;" x1="30.5" x2="87.5" y1="174" y2="174"/></g><!--class Scale--><g id="elem_Scale"><rect fill="#F1F1F1" height="48" id="Scale" rx="2.5" ry="2.5" style="stroke:#181818;stroke-width:0.5;" width="67" x="25.5" y="261"/><ellipse cx="40.5" cy="277" fill="#ADD1B2" rx="11" ry="11" style="stroke:#181818;stroke-width:1.0;"/><path d="M39.8438,282.8594 Q37.8594,282.8594 36.6875,281.3906 Q35.5313,279.9063 35.5313,276.8281 Q35.5313,274.2188 36.75,272.4688 Q37.9844,270.7188 40.1094,270.7188 Q40.6094,270.7188 41.1406,270.8594 Q41.5781,271.0469 41.8438,271.0469 Q42.0625,271.0469 42.1563,271 Q42.2656,270.9531 42.7188,270.3594 L43.4844,274.0938 L42.5938,274.3594 Q42.1406,272.9063 41.5313,272.3125 Q40.9375,271.7031 39.9844,271.7031 Q38.7656,271.7031 38.0469,273.1406 Q37.3281,274.5625 37.3281,276.75 Q37.3281,279.1563 37.9375,280.4531 Q38.5625,281.7344 39.9219,281.7344 Q40.875,281.7344 41.5625,281.0469 Q42.25,280.3438 42.5781,278.8438 L43.4844,279.25 Q43.0781,280.9531 42.1094,281.9063 Q41.1563,282.8594 39.8438,282.8594 Z " fill="#000000"/><text fill="#000000" font-family="sans-serif" font-size="14" lengthAdjust="spacing" textLength="35" x="54.5" y="283.4839">Scale</text><line style="stroke:#181818;stroke-width:0.5;" x1="26.5" x2="91.5" y1="293" y2="293"/><line style="stroke:#181818;stroke-width:0.5;" x1="26.5" x2="91.5" y1="301" y2="301"/></g><!--class Chameleon--><g id="elem_Chameleon"><rect fill="#F1F1F1" height="48" id="Chameleon" rx="2.5" ry="2.5" style="stroke:#181818;stroke-width:0.5;" width="104" x="7" y="7"/><ellipse cx="22" cy="23" fill="#ADD1B2" rx="11" ry="11" style="stroke:#181818;stroke-width:1.0;"/><path d="M21.3438,28.8594 Q19.3594,28.8594 18.1875,27.3906 Q17.0313,25.9063 17.0313,22.8281 Q17.0313,20.2188 18.25,18.4688 Q19.4844,16.7188 21.6094,16.7188 Q22.1094,16.7188 22.6406,16.8594 Q23.0781,17.0469 23.3438,17.0469 Q23.5625,17.0469 23.6563,17 Q23.7656,16.9531 24.2188,16.3594 L24.9844,20.0938 L24.0938,20.3594 Q23.6406,18.9063 23.0313,18.3125 Q22.4375,17.7031 21.4844,17.7031 Q20.2656,17.7031 19.5469,19.1406 Q18.8281,20.5625 18.8281,22.75 Q18.8281,25.1563 19.4375,26.4531 Q20.0625,27.7344 21.4219,27.7344 Q22.375,27.7344 23.0625,27.0469 Q23.75,26.3438 24.0781,24.8438 L24.9844,25.25 Q24.5781,26.9531 23.6094,27.9063 Q22.6563,28.8594 21.3438,28.8594 Z " fill="#000000"/><text fill="#000000" font-family="sans-serif" font-size="14" lengthAdjust="spacing" textLength="72" x="36" y="29.4839">Chameleon</text><line style="stroke:#181818;stroke-width:0.5;" x1="8" x2="110" y1="39" y2="39"/><line style="stroke:#181818;stroke-width:0.5;" x1="8" x2="110" y1="47" y2="47"/></g><!--reverse link Skin to Scale--><g id="link_Skin_Scale"><path codeLine="1" d="M59,194.22 C59,216.67 59,238.5 59,260.91 " fill="none" id="Skin-backto-Scale" style="stroke:#181818;stroke-width:1.0;"/><polygon fill="#181818" points="59,182.22,55,188.22,59,194.22,63,188.22,59,182.22" style="stroke:#181818;stroke-width:1.0;"/><text fill="#000000" font-family="sans-serif" font-size="13" lengthAdjust="spacing" textLength="60" x="60" y="227.8979">composes</text></g><!--reverse link Chameleon to Skin--><g id="link_Chameleon_Skin"><path codeLine="2" d="M59,67.22 C59,89.67 59,111.5 59,133.91 " fill="none" id="Chameleon-backto-Skin" style="stroke:#181818;stroke-width:1.0;"/><polygon fill="#181818" points="59,55.22,55,61.22,59,67.22,63,61.22,59,55.22" style="stroke:#181818;stroke-width:1.0;"/><text fill="#000000" font-family="sans-serif" font-size="13" lengthAdjust="spacing" textLength="60" x="60" y="100.8979">composes</text></g><!--SRC=[2yxEp5FGqjLL24vEp4bLi598piyjo2zEBUPopaZCJSr9pOTAWzGXP040]--></g></svg>