<?xml version="1.0" encoding="us-ascii" standalone="no"?><svg xmlns="http://www.w3.org/2000/svg" xmlns:xlink="http://www.w3.org/1999/xlink" contentStyleType="text/css" height="316px" preserveAspectRatio="none" style="width:133px;height:316px;background:#FFFFFF;" version="1.1" viewBox="0 0 133 316" width="133px" zoomAndPan="magnify"><defs/><g><!--class Hoof--><g id="elem_Hoof"><rect fill="#F1F1F1" height="48" id="Hoof" rx="2.5" ry="2.5" style="stroke:#181818;stroke-width:0.5;" width="61" x="33.5" y="134"/><ellipse cx="48.5" cy="150" fill="#ADD1B2" rx="11" ry="11" style="stroke:#181818;stroke-width:1.0;"/><path d="M47.8438,155.8594 Q45.8594,155.8594 44.6875,154.3906 Q43.5313,152.9063 43.5313,149.8281 Q43.5313,147.2188 44.75,145.4688 Q45.9844,143.7188 48.1094,143.7188 Q48.6094,143.7188 49.1406,143.8594 Q49.5781,144.0469 49.8438,144.0469 Q50.0625,144.0469 50.1563,144 Q50.2656,143.9531 50.7188,143.3594 L51.4844,147.0938 L50.5938,147.3594 Q50.1406,145.9063 49.5313,145.3125 Q48.9375,144.7031 47.9844,144.7031 Q46.7656,144.7031 46.0469,146.1406 Q45.3281,147.5625 45.3281,149.75 Q45.3281,152.1563 45.9375,153.4531 Q46.5625,154.7344 47.9219,154.7344 Q48.875,154.7344 49.5625,154.0469 Q50.25,153.3438 50.5781,151.8438 L51.4844,152.25 Q51.0781,153.9531 50.1094,154.9063 Q49.1563,155.8594 47.8438,155.8594 Z " fill="#000000"/><text fill="#000000" font-family="sans-serif" font-size="14" lengthAdjust="spacing" textLength="29" x="62.5" y="156.4839">Hoof</text><line style="stroke:#181818;stroke-width:0.5;" x1="34.5" x2="93.5" y1="166" y2="166"/><line style="stroke:#181818;stroke-width:0.5;" x1="34.5" x2="93.5" y1="174" y2="174"/></g><!--class Sole--><g id="elem_Sole"><rect fill="#F1F1F1" height="48" id="Sole" rx="2.5" ry="2.5" style="stroke:#181818;stroke-width:0.5;" width="60" x="34" y="261"/><ellipse cx="49" cy="277" fill="#ADD1B2" rx="11" ry="11" style="stroke:#181818;stroke-width:1.0;"/><path d="M48.3438,282.8594 Q46.3594,282.8594 45.1875,281.3906 Q44.0313,279.9063 44.0313,276.8281 Q44.0313,274.2188 45.25,272.4688 Q46.4844,270.7188 48.6094,270.7188 Q49.1094,270.7188 49.6406,270.8594 Q50.0781,271.0469 50.3438,271.0469 Q50.5625,271.0469 50.6563,271 Q50.7656,270.9531 51.2188,270.3594 L51.9844,274.0938 L51.0938,274.3594 Q50.6406,272.9063 50.0313,272.3125 Q49.4375,271.7031 48.4844,271.7031 Q47.2656,271.7031 46.5469,273.1406 Q45.8281,274.5625 45.8281,276.75 Q45.8281,279.1563 46.4375,280.4531 Q47.0625,281.7344 48.4219,281.7344 Q49.375,281.7344 50.0625,281.0469 Q50.75,280.3438 51.0781,278.8438 L51.9844,279.25 Q51.5781,280.9531 50.6094,281.9063 Q49.6563,282.8594 48.3438,282.8594 Z " fill="#000000"/><text fill="#000000" font-family="sans-serif" font-size="14" lengthAdjust="spacing" textLength="28" x="63" y="283.4839">Sole</text><line style="stroke:#181818;stroke-width:0.5;" x1="35" x2="93" y1="293" y2="293"/><line style="stroke:#181818;stroke-width:0.5;" x1="35" x2="93" y1="301" y2="301"/></g><!--class WaterBuffalo--><g id="elem_WaterBuffalo"><rect fill="#F1F1F1" height="48" id="WaterBuffalo" rx="2.5" ry="2.5" style="stroke:#181818;stroke-width:0.5;" width="114" x="7" y="7"/><ellipse cx="22" cy="23" fill="#ADD1B2" rx="11" ry="11" style="stroke:#181818;stroke-width:1.0;"/><path d="M21.3438,28.8594 Q19.3594,28.8594 18.1875,27.3906 Q17.0313,25.9063 17.0313,22.8281 Q17.0313,20.2188 18.25,18.4688 Q19.4844,16.7188 21.6094,16.7188 Q22.1094,16.7188 22.6406,16.8594 Q23.0781,17.0469 23.3438,17.0469 Q23.5625,17.0469 23.6563,17 Q23.7656,16.9531 24.2188,16.3594 L24.9844,20.0938 L24.0938,20.3594 Q23.6406,18.9063 23.0313,18.3125 Q22.4375,17.7031 21.4844,17.7031 Q20.2656,17.7031 19.5469,19.1406 Q18.8281,20.5625 18.8281,22.75 Q18.8281,25.1563 19.4375,26.4531 Q20.0625,27.7344 21.4219,27.7344 Q22.375,27.7344 23.0625,27.0469 Q23.75,26.3438 24.0781,24.8438 L24.9844,25.25 Q24.5781,26.9531 23.6094,27.9063 Q22.6563,28.8594 21.3438,28.8594 Z " fill="#000000"/><text fill="#000000" font-family="sans-serif" font-size="14" lengthAdjust="spacing" textLength="82" x="36" y="29.4839">WaterBuffalo</text><line style="stroke:#181818;stroke-width:0.5;" x1="8" x2="120" y1="39" y2="39"/><line style="stroke:#181818;stroke-width:0.5;" x1="8" x2="120" y1="47" y2="47"/></g><!--reverse link Hoof to Sole--><g id="link_Hoof_Sole"><path codeLine="1" d="M64,194.22 C64,216.67 64,238.5 64,260.91 " fill="none" id="Hoof-backto-Sole" style="stroke:#181818;stroke-width:1.0;"/><polygon fill="#181818" points="64,182.22,60,188.22,64,194.22,68,188.22,64,182.22" style="stroke:#181818;stroke-width:1.0;"/><text fill="#000000" font-family="sans-serif" font-size="13" lengthAdjust="spacing" textLength="60" x="65" y="227.8979">composes</text></g><!--reverse link WaterBuffalo to Hoof--><g id="link_WaterBuffalo_Hoof"><path codeLine="2" d="M64,67.22 C64,89.67 64,111.5 64,133.91 " fill="none" id="WaterBuffalo-backto-Hoof" style="stroke:#181818;stroke-width:1.0;"/><polygon fill="#181818" points="64,55.22,60,61.22,64,67.22,68,61.22,64,55.22" style="stroke:#181818;stroke-width:1.0;"/><text fill="#000000" font-family="sans-serif" font-size="13" lengthAdjust="spacing" textLength="60" x="65" y="100.8979">composes</text></g><!--SRC=[yyZFJrFGqjLL2CxFILMmKaZEpot8BqujvWfFB4ajSYfDIqlCoGShy02fH2W00000]--></g></svg>