<?xml version="1.0" encoding="us-ascii" standalone="no"?><svg xmlns="http://www.w3.org/2000/svg" xmlns:xlink="http://www.w3.org/1999/xlink" contentStyleType="text/css" height="316px" preserveAspectRatio="none" style="width:140px;height:316px;background:#FFFFFF;" version="1.1" viewBox="0 0 140 316" width="140px" zoomAndPan="magnify"><defs/><g><!--class Skin--><g id="elem_Skin"><rect fill="#F1F1F1" height="48" id="Skin" rx="2.5" ry="2.5" style="stroke:#181818;stroke-width:0.5;" width="59" x="40.5" y="134"/><ellipse cx="55.5" cy="150" fill="#ADD1B2" rx="11" ry="11" style="stroke:#181818;stroke-width:1.0;"/><path d="M54.8438,155.8594 Q52.8594,155.8594 51.6875,154.3906 Q50.5313,152.9063 50.5313,149.8281 Q50.5313,147.2188 51.75,145.4688 Q52.9844,143.7188 55.1094,143.7188 Q55.6094,143.7188 56.1406,143.8594 Q56.5781,144.0469 56.8438,144.0469 Q57.0625,144.0469 57.1563,144 Q57.2656,143.9531 57.7188,143.3594 L58.4844,147.0938 L57.5938,147.3594 Q57.1406,145.9063 56.5313,145.3125 Q55.9375,144.7031 54.9844,144.7031 Q53.7656,144.7031 53.0469,146.1406 Q52.3281,147.5625 52.3281,149.75 Q52.3281,152.1563 52.9375,153.4531 Q53.5625,154.7344 54.9219,154.7344 Q55.875,154.7344 56.5625,154.0469 Q57.25,153.3438 57.5781,151.8438 L58.4844,152.25 Q58.0781,153.9531 57.1094,154.9063 Q56.1563,155.8594 54.8438,155.8594 Z " fill="#000000"/><text fill="#000000" font-family="sans-serif" font-size="14" lengthAdjust="spacing" textLength="27" x="69.5" y="156.4839">Skin</text><line style="stroke:#181818;stroke-width:0.5;" x1="41.5" x2="98.5" y1="166" y2="166"/><line style="stroke:#181818;stroke-width:0.5;" x1="41.5" x2="98.5" y1="174" y2="174"/></g><!--class Scale--><g id="elem_Scale"><rect fill="#F1F1F1" height="48" id="Scale" rx="2.5" ry="2.5" style="stroke:#181818;stroke-width:0.5;" width="67" x="36.5" y="261"/><ellipse cx="51.5" cy="277" fill="#ADD1B2" rx="11" ry="11" style="stroke:#181818;stroke-width:1.0;"/><path d="M50.8438,282.8594 Q48.8594,282.8594 47.6875,281.3906 Q46.5313,279.9063 46.5313,276.8281 Q46.5313,274.2188 47.75,272.4688 Q48.9844,270.7188 51.1094,270.7188 Q51.6094,270.7188 52.1406,270.8594 Q52.5781,271.0469 52.8438,271.0469 Q53.0625,271.0469 53.1563,271 Q53.2656,270.9531 53.7188,270.3594 L54.4844,274.0938 L53.5938,274.3594 Q53.1406,272.9063 52.5313,272.3125 Q51.9375,271.7031 50.9844,271.7031 Q49.7656,271.7031 49.0469,273.1406 Q48.3281,274.5625 48.3281,276.75 Q48.3281,279.1563 48.9375,280.4531 Q49.5625,281.7344 50.9219,281.7344 Q51.875,281.7344 52.5625,281.0469 Q53.25,280.3438 53.5781,278.8438 L54.4844,279.25 Q54.0781,280.9531 53.1094,281.9063 Q52.1563,282.8594 50.8438,282.8594 Z " fill="#000000"/><text fill="#000000" font-family="sans-serif" font-size="14" lengthAdjust="spacing" textLength="35" x="65.5" y="283.4839">Scale</text><line style="stroke:#181818;stroke-width:0.5;" x1="37.5" x2="102.5" y1="293" y2="293"/><line style="stroke:#181818;stroke-width:0.5;" x1="37.5" x2="102.5" y1="301" y2="301"/></g><!--class LeopardGecko--><g id="elem_LeopardGecko"><rect fill="#F1F1F1" height="48" id="LeopardGecko" rx="2.5" ry="2.5" style="stroke:#181818;stroke-width:0.5;" width="126" x="7" y="7"/><ellipse cx="22" cy="23" fill="#ADD1B2" rx="11" ry="11" style="stroke:#181818;stroke-width:1.0;"/><path d="M21.3438,28.8594 Q19.3594,28.8594 18.1875,27.3906 Q17.0313,25.9063 17.0313,22.8281 Q17.0313,20.2188 18.25,18.4688 Q19.4844,16.7188 21.6094,16.7188 Q22.1094,16.7188 22.6406,16.8594 Q23.0781,17.0469 23.3438,17.0469 Q23.5625,17.0469 23.6563,17 Q23.7656,16.9531 24.2188,16.3594 L24.9844,20.0938 L24.0938,20.3594 Q23.6406,18.9063 23.0313,18.3125 Q22.4375,17.7031 21.4844,17.7031 Q20.2656,17.7031 19.5469,19.1406 Q18.8281,20.5625 18.8281,22.75 Q18.8281,25.1563 19.4375,26.4531 Q20.0625,27.7344 21.4219,27.7344 Q22.375,27.7344 23.0625,27.0469 Q23.75,26.3438 24.0781,24.8438 L24.9844,25.25 Q24.5781,26.9531 23.6094,27.9063 Q22.6563,28.8594 21.3438,28.8594 Z " fill="#000000"/><text fill="#000000" font-family="sans-serif" font-size="14" lengthAdjust="spacing" textLength="94" x="36" y="29.4839">LeopardGecko</text><line style="stroke:#181818;stroke-width:0.5;" x1="8" x2="132" y1="39" y2="39"/><line style="stroke:#181818;stroke-width:0.5;" x1="8" x2="132" y1="47" y2="47"/></g><!--reverse link Skin to Scale--><g id="link_Skin_Scale"><path codeLine="1" d="M70,194.22 C70,216.67 70,238.5 70,260.91 " fill="none" id="Skin-backto-Scale" style="stroke:#181818;stroke-width:1.0;"/><polygon fill="#181818" points="70,182.22,66,188.22,70,194.22,74,188.22,70,182.22" style="stroke:#181818;stroke-width:1.0;"/><text fill="#000000" font-family="sans-serif" font-size="13" lengthAdjust="spacing" textLength="60" x="71" y="227.8979">composes</text></g><!--reverse link LeopardGecko to Skin--><g id="link_LeopardGecko_Skin"><path codeLine="2" d="M70,67.22 C70,89.67 70,111.5 70,133.91 " fill="none" id="LeopardGecko-backto-Skin" style="stroke:#181818;stroke-width:1.0;"/><polygon fill="#181818" points="70,55.22,66,61.22,70,67.22,74,61.22,70,55.22" style="stroke:#181818;stroke-width:1.0;"/><text fill="#000000" font-family="sans-serif" font-size="13" lengthAdjust="spacing" textLength="60" x="71" y="100.8979">composes</text></g><!--SRC=[2yxEp5FGqjLL24vEp4bLi598piyjo2zEBURoISqlI2nASKzDpiw7g00fHIW00000]--></g></svg>