<?xml version="1.0" encoding="us-ascii" standalone="no"?><svg xmlns="http://www.w3.org/2000/svg" xmlns:xlink="http://www.w3.org/1999/xlink" contentStyleType="text/css" height="316px" preserveAspectRatio="none" style="width:110px;height:316px;background:#FFFFFF;" version="1.1" viewBox="0 0 110 316" width="110px" zoomAndPan="magnify"><defs/><g><!--class Hoof--><g id="elem_Hoof"><rect fill="#F1F1F1" height="48" id="Hoof" rx="2.5" ry="2.5" style="stroke:#181818;stroke-width:0.5;" width="61" x="11" y="134"/><ellipse cx="26" cy="150" fill="#ADD1B2" rx="11" ry="11" style="stroke:#181818;stroke-width:1.0;"/><path d="M25.3438,155.8594 Q23.3594,155.8594 22.1875,154.3906 Q21.0313,152.9063 21.0313,149.8281 Q21.0313,147.2188 22.25,145.4688 Q23.4844,143.7188 25.6094,143.7188 Q26.1094,143.7188 26.6406,143.8594 Q27.0781,144.0469 27.3438,144.0469 Q27.5625,144.0469 27.6563,144 Q27.7656,143.9531 28.2188,143.3594 L28.9844,147.0938 L28.0938,147.3594 Q27.6406,145.9063 27.0313,145.3125 Q26.4375,144.7031 25.4844,144.7031 Q24.2656,144.7031 23.5469,146.1406 Q22.8281,147.5625 22.8281,149.75 Q22.8281,152.1563 23.4375,153.4531 Q24.0625,154.7344 25.4219,154.7344 Q26.375,154.7344 27.0625,154.0469 Q27.75,153.3438 28.0781,151.8438 L28.9844,152.25 Q28.5781,153.9531 27.6094,154.9063 Q26.6563,155.8594 25.3438,155.8594 Z " fill="#000000"/><text fill="#000000" font-family="sans-serif" font-size="14" lengthAdjust="spacing" textLength="29" x="40" y="156.4839">Hoof</text><line style="stroke:#181818;stroke-width:0.5;" x1="12" x2="71" y1="166" y2="166"/><line style="stroke:#181818;stroke-width:0.5;" x1="12" x2="71" y1="174" y2="174"/></g><!--class Sole--><g id="elem_Sole"><rect fill="#F1F1F1" height="48" id="Sole" rx="2.5" ry="2.5" style="stroke:#181818;stroke-width:0.5;" width="60" x="11.5" y="261"/><ellipse cx="26.5" cy="277" fill="#ADD1B2" rx="11" ry="11" style="stroke:#181818;stroke-width:1.0;"/><path d="M25.8438,282.8594 Q23.8594,282.8594 22.6875,281.3906 Q21.5313,279.9063 21.5313,276.8281 Q21.5313,274.2188 22.75,272.4688 Q23.9844,270.7188 26.1094,270.7188 Q26.6094,270.7188 27.1406,270.8594 Q27.5781,271.0469 27.8438,271.0469 Q28.0625,271.0469 28.1563,271 Q28.2656,270.9531 28.7188,270.3594 L29.4844,274.0938 L28.5938,274.3594 Q28.1406,272.9063 27.5313,272.3125 Q26.9375,271.7031 25.9844,271.7031 Q24.7656,271.7031 24.0469,273.1406 Q23.3281,274.5625 23.3281,276.75 Q23.3281,279.1563 23.9375,280.4531 Q24.5625,281.7344 25.9219,281.7344 Q26.875,281.7344 27.5625,281.0469 Q28.25,280.3438 28.5781,278.8438 L29.4844,279.25 Q29.0781,280.9531 28.1094,281.9063 Q27.1563,282.8594 25.8438,282.8594 Z " fill="#000000"/><text fill="#000000" font-family="sans-serif" font-size="14" lengthAdjust="spacing" textLength="28" x="40.5" y="283.4839">Sole</text><line style="stroke:#181818;stroke-width:0.5;" x1="12.5" x2="70.5" y1="293" y2="293"/><line style="stroke:#181818;stroke-width:0.5;" x1="12.5" x2="70.5" y1="301" y2="301"/></g><!--class Horse--><g id="elem_Horse"><rect fill="#F1F1F1" height="48" id="Horse" rx="2.5" ry="2.5" style="stroke:#181818;stroke-width:0.5;" width="69" x="7" y="7"/><ellipse cx="22" cy="23" fill="#ADD1B2" rx="11" ry="11" style="stroke:#181818;stroke-width:1.0;"/><path d="M21.3438,28.8594 Q19.3594,28.8594 18.1875,27.3906 Q17.0313,25.9063 17.0313,22.8281 Q17.0313,20.2188 18.25,18.4688 Q19.4844,16.7188 21.6094,16.7188 Q22.1094,16.7188 22.6406,16.8594 Q23.0781,17.0469 23.3438,17.0469 Q23.5625,17.0469 23.6563,17 Q23.7656,16.9531 24.2188,16.3594 L24.9844,20.0938 L24.0938,20.3594 Q23.6406,18.9063 23.0313,18.3125 Q22.4375,17.7031 21.4844,17.7031 Q20.2656,17.7031 19.5469,19.1406 Q18.8281,20.5625 18.8281,22.75 Q18.8281,25.1563 19.4375,26.4531 Q20.0625,27.7344 21.4219,27.7344 Q22.375,27.7344 23.0625,27.0469 Q23.75,26.3438 24.0781,24.8438 L24.9844,25.25 Q24.5781,26.9531 23.6094,27.9063 Q22.6563,28.8594 21.3438,28.8594 Z " fill="#000000"/><text fill="#000000" font-family="sans-serif" font-size="14" lengthAdjust="spacing" textLength="37" x="36" y="29.4839">Horse</text><line style="stroke:#181818;stroke-width:0.5;" x1="8" x2="75" y1="39" y2="39"/><line style="stroke:#181818;stroke-width:0.5;" x1="8" x2="75" y1="47" y2="47"/></g><!--reverse link Hoof to Sole--><g id="link_Hoof_Sole"><path codeLine="1" d="M41.5,194.22 C41.5,216.67 41.5,238.5 41.5,260.91 " fill="none" id="Hoof-backto-Sole" style="stroke:#181818;stroke-width:1.0;"/><polygon fill="#181818" points="41.5,182.22,37.5,188.22,41.5,194.22,45.5,188.22,41.5,182.22" style="stroke:#181818;stroke-width:1.0;"/><text fill="#000000" font-family="sans-serif" font-size="13" lengthAdjust="spacing" textLength="60" x="42.5" y="227.8979">composes</text></g><!--reverse link Horse to Hoof--><g id="link_Horse_Hoof"><path codeLine="2" d="M41.5,67.22 C41.5,89.67 41.5,111.5 41.5,133.91 " fill="none" id="Horse-backto-Hoof" style="stroke:#181818;stroke-width:1.0;"/><polygon fill="#181818" points="41.5,55.22,37.5,61.22,41.5,67.22,45.5,61.22,41.5,55.22" style="stroke:#181818;stroke-width:1.0;"/><text fill="#000000" font-family="sans-serif" font-size="13" lengthAdjust="spacing" textLength="60" x="42.5" y="100.8979">composes</text></g><!--SRC=[yyZFJrFGqjLL2CxFILMmKaZEpot8BqujvlB8BofE1SjuW9GWP000]--></g></svg>