<?xml version="1.0" encoding="us-ascii" standalone="no"?><svg xmlns="http://www.w3.org/2000/svg" xmlns:xlink="http://www.w3.org/1999/xlink" contentStyleType="text/css" height="189px" preserveAspectRatio="none" style="width:219px;height:189px;background:#FFFFFF;" version="1.1" viewBox="0 0 219 189" width="219px" zoomAndPan="magnify"><defs/><g><!--class Country--><g id="elem_Country"><rect fill="#F1F1F1" height="48" id="Country" rx="2.5" ry="2.5" style="stroke:#181818;stroke-width:0.5;" width="82" x="68.5" y="7"/><ellipse cx="83.5" cy="23" fill="#ADD1B2" rx="11" ry="11" style="stroke:#181818;stroke-width:1.0;"/><path d="M82.8438,28.8594 Q80.8594,28.8594 79.6875,27.3906 Q78.5313,25.9063 78.5313,22.8281 Q78.5313,20.2188 79.75,18.4688 Q80.9844,16.7188 83.1094,16.7188 Q83.6094,16.7188 84.1406,16.8594 Q84.5781,17.0469 84.8438,17.0469 Q85.0625,17.0469 85.1563,17 Q85.2656,16.9531 85.7188,16.3594 L86.4844,20.0938 L85.5938,20.3594 Q85.1406,18.9063 84.5313,18.3125 Q83.9375,17.7031 82.9844,17.7031 Q81.7656,17.7031 81.0469,19.1406 Q80.3281,20.5625 80.3281,22.75 Q80.3281,25.1563 80.9375,26.4531 Q81.5625,27.7344 82.9219,27.7344 Q83.875,27.7344 84.5625,27.0469 Q85.25,26.3438 85.5781,24.8438 L86.4844,25.25 Q86.0781,26.9531 85.1094,27.9063 Q84.1563,28.8594 82.8438,28.8594 Z " fill="#000000"/><text fill="#000000" font-family="sans-serif" font-size="14" lengthAdjust="spacing" textLength="50" x="97.5" y="29.4839">Country</text><line style="stroke:#181818;stroke-width:0.5;" x1="69.5" x2="149.5" y1="39" y2="39"/><line style="stroke:#181818;stroke-width:0.5;" x1="69.5" x2="149.5" y1="47" y2="47"/></g><!--class BritishIndianOceanTerritory--><g id="elem_BritishIndianOceanTerritory"><rect fill="#F1F1F1" height="48" id="BritishIndianOceanTerritory" rx="2.5" ry="2.5" style="stroke:#181818;stroke-width:0.5;" width="205" x="7" y="134"/><ellipse cx="22" cy="150" fill="#ADD1B2" rx="11" ry="11" style="stroke:#181818;stroke-width:1.0;"/><path d="M21.3438,155.8594 Q19.3594,155.8594 18.1875,154.3906 Q17.0313,152.9063 17.0313,149.8281 Q17.0313,147.2188 18.25,145.4688 Q19.4844,143.7188 21.6094,143.7188 Q22.1094,143.7188 22.6406,143.8594 Q23.0781,144.0469 23.3438,144.0469 Q23.5625,144.0469 23.6563,144 Q23.7656,143.9531 24.2188,143.3594 L24.9844,147.0938 L24.0938,147.3594 Q23.6406,145.9063 23.0313,145.3125 Q22.4375,144.7031 21.4844,144.7031 Q20.2656,144.7031 19.5469,146.1406 Q18.8281,147.5625 18.8281,149.75 Q18.8281,152.1563 19.4375,153.4531 Q20.0625,154.7344 21.4219,154.7344 Q22.375,154.7344 23.0625,154.0469 Q23.75,153.3438 24.0781,151.8438 L24.9844,152.25 Q24.5781,153.9531 23.6094,154.9063 Q22.6563,155.8594 21.3438,155.8594 Z " fill="#000000"/><text fill="#000000" font-family="sans-serif" font-size="14" lengthAdjust="spacing" textLength="173" x="36" y="156.4839">BritishIndianOceanTerritory</text><line style="stroke:#181818;stroke-width:0.5;" x1="8" x2="211" y1="166" y2="166"/><line style="stroke:#181818;stroke-width:0.5;" x1="8" x2="211" y1="174" y2="174"/></g><!--reverse link Country to BritishIndianOceanTerritory--><g id="link_Country_BritishIndianOceanTerritory"><path codeLine="1" d="M109.5,73.22 C109.5,95.67 109.5,111.5 109.5,133.91 " fill="none" id="Country-backto-BritishIndianOceanTerritory" style="stroke:#181818;stroke-width:1.0;"/><polygon fill="none" points="109.5,55.22,103.5,73.22,115.5,73.22,109.5,55.22" style="stroke:#181818;stroke-width:1.0;"/><text fill="#000000" font-family="sans-serif" font-size="13" lengthAdjust="spacing" textLength="42" x="110.5" y="100.8979">inherits</text></g><!--SRC=[SyulpIifgbImgT7LLN0goYp9BCxmp4l9JCppJqvDp0j9BGAAvGCLM2bavcMa0Zd50000]--></g></svg>