<?xml version="1.0" encoding="us-ascii" standalone="no"?><svg xmlns="http://www.w3.org/2000/svg" xmlns:xlink="http://www.w3.org/1999/xlink" contentStyleType="text/css" height="316px" preserveAspectRatio="none" style="width:109px;height:316px;background:#FFFFFF;" version="1.1" viewBox="0 0 109 316" width="109px" zoomAndPan="magnify"><defs/><g><!--class Date--><g id="elem_Date"><rect fill="#F1F1F1" height="48" id="Date" rx="2.5" ry="2.5" style="stroke:#181818;stroke-width:0.5;" width="62" x="23.5" y="7"/><ellipse cx="38.5" cy="23" fill="#ADD1B2" rx="11" ry="11" style="stroke:#181818;stroke-width:1.0;"/><path d="M37.8438,28.8594 Q35.8594,28.8594 34.6875,27.3906 Q33.5313,25.9063 33.5313,22.8281 Q33.5313,20.2188 34.75,18.4688 Q35.9844,16.7188 38.1094,16.7188 Q38.6094,16.7188 39.1406,16.8594 Q39.5781,17.0469 39.8438,17.0469 Q40.0625,17.0469 40.1563,17 Q40.2656,16.9531 40.7188,16.3594 L41.4844,20.0938 L40.5938,20.3594 Q40.1406,18.9063 39.5313,18.3125 Q38.9375,17.7031 37.9844,17.7031 Q36.7656,17.7031 36.0469,19.1406 Q35.3281,20.5625 35.3281,22.75 Q35.3281,25.1563 35.9375,26.4531 Q36.5625,27.7344 37.9219,27.7344 Q38.875,27.7344 39.5625,27.0469 Q40.25,26.3438 40.5781,24.8438 L41.4844,25.25 Q41.0781,26.9531 40.1094,27.9063 Q39.1563,28.8594 37.8438,28.8594 Z " fill="#000000"/><text fill="#000000" font-family="sans-serif" font-size="14" lengthAdjust="spacing" textLength="30" x="52.5" y="29.4839">Date</text><line style="stroke:#181818;stroke-width:0.5;" x1="24.5" x2="84.5" y1="39" y2="39"/><line style="stroke:#181818;stroke-width:0.5;" x1="24.5" x2="84.5" y1="47" y2="47"/></g><!--class DriedFruit--><g id="elem_DriedFruit"><rect fill="#F1F1F1" height="48" id="DriedFruit" rx="2.5" ry="2.5" style="stroke:#181818;stroke-width:0.5;" width="95" x="7" y="134"/><ellipse cx="22" cy="150" fill="#ADD1B2" rx="11" ry="11" style="stroke:#181818;stroke-width:1.0;"/><path d="M21.3438,155.8594 Q19.3594,155.8594 18.1875,154.3906 Q17.0313,152.9063 17.0313,149.8281 Q17.0313,147.2188 18.25,145.4688 Q19.4844,143.7188 21.6094,143.7188 Q22.1094,143.7188 22.6406,143.8594 Q23.0781,144.0469 23.3438,144.0469 Q23.5625,144.0469 23.6563,144 Q23.7656,143.9531 24.2188,143.3594 L24.9844,147.0938 L24.0938,147.3594 Q23.6406,145.9063 23.0313,145.3125 Q22.4375,144.7031 21.4844,144.7031 Q20.2656,144.7031 19.5469,146.1406 Q18.8281,147.5625 18.8281,149.75 Q18.8281,152.1563 19.4375,153.4531 Q20.0625,154.7344 21.4219,154.7344 Q22.375,154.7344 23.0625,154.0469 Q23.75,153.3438 24.0781,151.8438 L24.9844,152.25 Q24.5781,153.9531 23.6094,154.9063 Q22.6563,155.8594 21.3438,155.8594 Z " fill="#000000"/><text fill="#000000" font-family="sans-serif" font-size="14" lengthAdjust="spacing" textLength="63" x="36" y="156.4839">DriedFruit</text><line style="stroke:#181818;stroke-width:0.5;" x1="8" x2="101" y1="166" y2="166"/><line style="stroke:#181818;stroke-width:0.5;" x1="8" x2="101" y1="174" y2="174"/></g><!--class Fruit--><g id="elem_Fruit"><rect fill="#F1F1F1" height="48" id="Fruit" rx="2.5" ry="2.5" style="stroke:#181818;stroke-width:0.5;" width="61" x="24" y="261"/><ellipse cx="39" cy="277" fill="#ADD1B2" rx="11" ry="11" style="stroke:#181818;stroke-width:1.0;"/><path d="M38.3438,282.8594 Q36.3594,282.8594 35.1875,281.3906 Q34.0313,279.9063 34.0313,276.8281 Q34.0313,274.2188 35.25,272.4688 Q36.4844,270.7188 38.6094,270.7188 Q39.1094,270.7188 39.6406,270.8594 Q40.0781,271.0469 40.3438,271.0469 Q40.5625,271.0469 40.6563,271 Q40.7656,270.9531 41.2188,270.3594 L41.9844,274.0938 L41.0938,274.3594 Q40.6406,272.9063 40.0313,272.3125 Q39.4375,271.7031 38.4844,271.7031 Q37.2656,271.7031 36.5469,273.1406 Q35.8281,274.5625 35.8281,276.75 Q35.8281,279.1563 36.4375,280.4531 Q37.0625,281.7344 38.4219,281.7344 Q39.375,281.7344 40.0625,281.0469 Q40.75,280.3438 41.0781,278.8438 L41.9844,279.25 Q41.5781,280.9531 40.6094,281.9063 Q39.6563,282.8594 38.3438,282.8594 Z " fill="#000000"/><text fill="#000000" font-family="sans-serif" font-size="14" lengthAdjust="spacing" textLength="29" x="53" y="283.4839">Fruit</text><line style="stroke:#181818;stroke-width:0.5;" x1="25" x2="84" y1="293" y2="293"/><line style="stroke:#181818;stroke-width:0.5;" x1="25" x2="84" y1="301" y2="301"/></g><!--reverse link Date to DriedFruit--><g id="link_Date_DriedFruit"><path codeLine="1" d="M54.5,73.22 C54.5,95.67 54.5,111.5 54.5,133.91 " fill="none" id="Date-backto-DriedFruit" style="stroke:#181818;stroke-width:1.0;"/><polygon fill="none" points="54.5,55.22,48.5,73.22,60.5,73.22,54.5,55.22" style="stroke:#181818;stroke-width:1.0;"/><text fill="#000000" font-family="sans-serif" font-size="13" lengthAdjust="spacing" textLength="42" x="55.5" y="100.8979">inherits</text></g><!--reverse link DriedFruit to Fruit--><g id="link_DriedFruit_Fruit"><path codeLine="2" d="M54.5,200.22 C54.5,222.67 54.5,238.5 54.5,260.91 " fill="none" id="DriedFruit-backto-Fruit" style="stroke:#181818;stroke-width:1.0;"/><polygon fill="none" points="54.5,182.22,48.5,200.22,60.5,200.22,54.5,182.22" style="stroke:#181818;stroke-width:1.0;"/><text fill="#000000" font-family="sans-serif" font-size="13" lengthAdjust="spacing" textLength="42" x="55.5" y="227.8979">inherits</text></g><!--SRC=[SqaiILMmgT7LLN0foanDSIigpInHi5B8pCj8BSeiAUP24WMhGbS00000]--></g></svg>