<?xml version="1.0" encoding="us-ascii" standalone="no"?><svg xmlns="http://www.w3.org/2000/svg" xmlns:xlink="http://www.w3.org/1999/xlink" contentStyleType="text/css" height="316px" preserveAspectRatio="none" style="width:91px;height:316px;background:#FFFFFF;" version="1.1" viewBox="0 0 91 316" width="91px" zoomAndPan="magnify"><defs/><g><!--class Curry--><g id="elem_Curry"><rect fill="#F1F1F1" height="48" id="Curry" rx="2.5" ry="2.5" style="stroke:#181818;stroke-width:0.5;" width="67" x="7" y="7"/><ellipse cx="22" cy="23" fill="#ADD1B2" rx="11" ry="11" style="stroke:#181818;stroke-width:1.0;"/><path d="M21.3438,28.8594 Q19.3594,28.8594 18.1875,27.3906 Q17.0313,25.9063 17.0313,22.8281 Q17.0313,20.2188 18.25,18.4688 Q19.4844,16.7188 21.6094,16.7188 Q22.1094,16.7188 22.6406,16.8594 Q23.0781,17.0469 23.3438,17.0469 Q23.5625,17.0469 23.6563,17 Q23.7656,16.9531 24.2188,16.3594 L24.9844,20.0938 L24.0938,20.3594 Q23.6406,18.9063 23.0313,18.3125 Q22.4375,17.7031 21.4844,17.7031 Q20.2656,17.7031 19.5469,19.1406 Q18.8281,20.5625 18.8281,22.75 Q18.8281,25.1563 19.4375,26.4531 Q20.0625,27.7344 21.4219,27.7344 Q22.375,27.7344 23.0625,27.0469 Q23.75,26.3438 24.0781,24.8438 L24.9844,25.25 Q24.5781,26.9531 23.6094,27.9063 Q22.6563,28.8594 21.3438,28.8594 Z " fill="#000000"/><text fill="#000000" font-family="sans-serif" font-size="14" lengthAdjust="spacing" textLength="35" x="36" y="29.4839">Curry</text><line style="stroke:#181818;stroke-width:0.5;" x1="8" x2="73" y1="39" y2="39"/><line style="stroke:#181818;stroke-width:0.5;" x1="8" x2="73" y1="47" y2="47"/></g><!--class Dish--><g id="elem_Dish"><rect fill="#F1F1F1" height="48" id="Dish" rx="2.5" ry="2.5" style="stroke:#181818;stroke-width:0.5;" width="60" x="10.5" y="134"/><ellipse cx="25.5" cy="150" fill="#ADD1B2" rx="11" ry="11" style="stroke:#181818;stroke-width:1.0;"/><path d="M24.8438,155.8594 Q22.8594,155.8594 21.6875,154.3906 Q20.5313,152.9063 20.5313,149.8281 Q20.5313,147.2188 21.75,145.4688 Q22.9844,143.7188 25.1094,143.7188 Q25.6094,143.7188 26.1406,143.8594 Q26.5781,144.0469 26.8438,144.0469 Q27.0625,144.0469 27.1563,144 Q27.2656,143.9531 27.7188,143.3594 L28.4844,147.0938 L27.5938,147.3594 Q27.1406,145.9063 26.5313,145.3125 Q25.9375,144.7031 24.9844,144.7031 Q23.7656,144.7031 23.0469,146.1406 Q22.3281,147.5625 22.3281,149.75 Q22.3281,152.1563 22.9375,153.4531 Q23.5625,154.7344 24.9219,154.7344 Q25.875,154.7344 26.5625,154.0469 Q27.25,153.3438 27.5781,151.8438 L28.4844,152.25 Q28.0781,153.9531 27.1094,154.9063 Q26.1563,155.8594 24.8438,155.8594 Z " fill="#000000"/><text fill="#000000" font-family="sans-serif" font-size="14" lengthAdjust="spacing" textLength="28" x="39.5" y="156.4839">Dish</text><line style="stroke:#181818;stroke-width:0.5;" x1="11.5" x2="69.5" y1="166" y2="166"/><line style="stroke:#181818;stroke-width:0.5;" x1="11.5" x2="69.5" y1="174" y2="174"/></g><!--class Food--><g id="elem_Food"><rect fill="#F1F1F1" height="48" id="Food" rx="2.5" ry="2.5" style="stroke:#181818;stroke-width:0.5;" width="65" x="8" y="261"/><ellipse cx="23" cy="277" fill="#ADD1B2" rx="11" ry="11" style="stroke:#181818;stroke-width:1.0;"/><path d="M22.3438,282.8594 Q20.3594,282.8594 19.1875,281.3906 Q18.0313,279.9063 18.0313,276.8281 Q18.0313,274.2188 19.25,272.4688 Q20.4844,270.7188 22.6094,270.7188 Q23.1094,270.7188 23.6406,270.8594 Q24.0781,271.0469 24.3438,271.0469 Q24.5625,271.0469 24.6563,271 Q24.7656,270.9531 25.2188,270.3594 L25.9844,274.0938 L25.0938,274.3594 Q24.6406,272.9063 24.0313,272.3125 Q23.4375,271.7031 22.4844,271.7031 Q21.2656,271.7031 20.5469,273.1406 Q19.8281,274.5625 19.8281,276.75 Q19.8281,279.1563 20.4375,280.4531 Q21.0625,281.7344 22.4219,281.7344 Q23.375,281.7344 24.0625,281.0469 Q24.75,280.3438 25.0781,278.8438 L25.9844,279.25 Q25.5781,280.9531 24.6094,281.9063 Q23.6563,282.8594 22.3438,282.8594 Z " fill="#000000"/><text fill="#000000" font-family="sans-serif" font-size="14" lengthAdjust="spacing" textLength="33" x="37" y="283.4839">Food</text><line style="stroke:#181818;stroke-width:0.5;" x1="9" x2="72" y1="293" y2="293"/><line style="stroke:#181818;stroke-width:0.5;" x1="9" x2="72" y1="301" y2="301"/></g><!--reverse link Curry to Dish--><g id="link_Curry_Dish"><path codeLine="1" d="M40.5,73.22 C40.5,95.67 40.5,111.5 40.5,133.91 " fill="none" id="Curry-backto-Dish" style="stroke:#181818;stroke-width:1.0;"/><polygon fill="none" points="40.5,55.22,34.5,73.22,46.5,73.22,40.5,55.22" style="stroke:#181818;stroke-width:1.0;"/><text fill="#000000" font-family="sans-serif" font-size="13" lengthAdjust="spacing" textLength="42" x="41.5" y="100.8979">inherits</text></g><!--reverse link Dish to Food--><g id="link_Dish_Food"><path codeLine="2" d="M40.5,200.22 C40.5,222.67 40.5,238.5 40.5,260.91 " fill="none" id="Dish-backto-Food" style="stroke:#181818;stroke-width:1.0;"/><polygon fill="none" points="40.5,182.22,34.5,200.22,46.5,200.22,40.5,182.22" style="stroke:#181818;stroke-width:1.0;"/><text fill="#000000" font-family="sans-serif" font-size="13" lengthAdjust="spacing" textLength="42" x="41.5" y="227.8979">inherits</text></g><!--SRC=[SoujAgfKiAdHrLLmoIpEKB1IoCpBI2tAB2dc0lF1Ccxv-Ib8CW00]--></g></svg>