<?xml version="1.0" encoding="us-ascii" standalone="no"?><svg xmlns="http://www.w3.org/2000/svg" xmlns:xlink="http://www.w3.org/1999/xlink" contentStyleType="text/css" height="316px" preserveAspectRatio="none" style="width:183px;height:316px;background:#FFFFFF;" version="1.1" viewBox="0 0 183 316" width="183px" zoomAndPan="magnify"><defs/><g><!--class Romanesco--><g id="elem_Romanesco"><rect fill="#F1F1F1" height="48" id="Romanesco" rx="2.5" ry="2.5" style="stroke:#181818;stroke-width:0.5;" width="107" x="38" y="7"/><ellipse cx="53" cy="23" fill="#ADD1B2" rx="11" ry="11" style="stroke:#181818;stroke-width:1.0;"/><path d="M52.3438,28.8594 Q50.3594,28.8594 49.1875,27.3906 Q48.0313,25.9063 48.0313,22.8281 Q48.0313,20.2188 49.25,18.4688 Q50.4844,16.7188 52.6094,16.7188 Q53.1094,16.7188 53.6406,16.8594 Q54.0781,17.0469 54.3438,17.0469 Q54.5625,17.0469 54.6563,17 Q54.7656,16.9531 55.2188,16.3594 L55.9844,20.0938 L55.0938,20.3594 Q54.6406,18.9063 54.0313,18.3125 Q53.4375,17.7031 52.4844,17.7031 Q51.2656,17.7031 50.5469,19.1406 Q49.8281,20.5625 49.8281,22.75 Q49.8281,25.1563 50.4375,26.4531 Q51.0625,27.7344 52.4219,27.7344 Q53.375,27.7344 54.0625,27.0469 Q54.75,26.3438 55.0781,24.8438 L55.9844,25.25 Q55.5781,26.9531 54.6094,27.9063 Q53.6563,28.8594 52.3438,28.8594 Z " fill="#000000"/><text fill="#000000" font-family="sans-serif" font-size="14" lengthAdjust="spacing" textLength="75" x="67" y="29.4839">Romanesco</text><line style="stroke:#181818;stroke-width:0.5;" x1="39" x2="144" y1="39" y2="39"/><line style="stroke:#181818;stroke-width:0.5;" x1="39" x2="144" y1="47" y2="47"/></g><!--class CruciferousVegetable--><g id="elem_CruciferousVegetable"><rect fill="#F1F1F1" height="48" id="CruciferousVegetable" rx="2.5" ry="2.5" style="stroke:#181818;stroke-width:0.5;" width="169" x="7" y="134"/><ellipse cx="22" cy="150" fill="#ADD1B2" rx="11" ry="11" style="stroke:#181818;stroke-width:1.0;"/><path d="M21.3438,155.8594 Q19.3594,155.8594 18.1875,154.3906 Q17.0313,152.9063 17.0313,149.8281 Q17.0313,147.2188 18.25,145.4688 Q19.4844,143.7188 21.6094,143.7188 Q22.1094,143.7188 22.6406,143.8594 Q23.0781,144.0469 23.3438,144.0469 Q23.5625,144.0469 23.6563,144 Q23.7656,143.9531 24.2188,143.3594 L24.9844,147.0938 L24.0938,147.3594 Q23.6406,145.9063 23.0313,145.3125 Q22.4375,144.7031 21.4844,144.7031 Q20.2656,144.7031 19.5469,146.1406 Q18.8281,147.5625 18.8281,149.75 Q18.8281,152.1563 19.4375,153.4531 Q20.0625,154.7344 21.4219,154.7344 Q22.375,154.7344 23.0625,154.0469 Q23.75,153.3438 24.0781,151.8438 L24.9844,152.25 Q24.5781,153.9531 23.6094,154.9063 Q22.6563,155.8594 21.3438,155.8594 Z " fill="#000000"/><text fill="#000000" font-family="sans-serif" font-size="14" lengthAdjust="spacing" textLength="137" x="36" y="156.4839">CruciferousVegetable</text><line style="stroke:#181818;stroke-width:0.5;" x1="8" x2="175" y1="166" y2="166"/><line style="stroke:#181818;stroke-width:0.5;" x1="8" x2="175" y1="174" y2="174"/></g><!--class Vegetable--><g id="elem_Vegetable"><rect fill="#F1F1F1" height="48" id="Vegetable" rx="2.5" ry="2.5" style="stroke:#181818;stroke-width:0.5;" width="96" x="43.5" y="261"/><ellipse cx="58.5" cy="277" fill="#ADD1B2" rx="11" ry="11" style="stroke:#181818;stroke-width:1.0;"/><path d="M57.8438,282.8594 Q55.8594,282.8594 54.6875,281.3906 Q53.5313,279.9063 53.5313,276.8281 Q53.5313,274.2188 54.75,272.4688 Q55.9844,270.7188 58.1094,270.7188 Q58.6094,270.7188 59.1406,270.8594 Q59.5781,271.0469 59.8438,271.0469 Q60.0625,271.0469 60.1563,271 Q60.2656,270.9531 60.7188,270.3594 L61.4844,274.0938 L60.5938,274.3594 Q60.1406,272.9063 59.5313,272.3125 Q58.9375,271.7031 57.9844,271.7031 Q56.7656,271.7031 56.0469,273.1406 Q55.3281,274.5625 55.3281,276.75 Q55.3281,279.1563 55.9375,280.4531 Q56.5625,281.7344 57.9219,281.7344 Q58.875,281.7344 59.5625,281.0469 Q60.25,280.3438 60.5781,278.8438 L61.4844,279.25 Q61.0781,280.9531 60.1094,281.9063 Q59.1563,282.8594 57.8438,282.8594 Z " fill="#000000"/><text fill="#000000" font-family="sans-serif" font-size="14" lengthAdjust="spacing" textLength="64" x="72.5" y="283.4839">Vegetable</text><line style="stroke:#181818;stroke-width:0.5;" x1="44.5" x2="138.5" y1="293" y2="293"/><line style="stroke:#181818;stroke-width:0.5;" x1="44.5" x2="138.5" y1="301" y2="301"/></g><!--reverse link Romanesco to CruciferousVegetable--><g id="link_Romanesco_CruciferousVegetable"><path codeLine="1" d="M91.5,73.22 C91.5,95.67 91.5,111.5 91.5,133.91 " fill="none" id="Romanesco-backto-CruciferousVegetable" style="stroke:#181818;stroke-width:1.0;"/><polygon fill="none" points="91.5,55.22,85.5,73.22,97.5,73.22,91.5,55.22" style="stroke:#181818;stroke-width:1.0;"/><text fill="#000000" font-family="sans-serif" font-size="13" lengthAdjust="spacing" textLength="42" x="92.5" y="100.8979">inherits</text></g><!--reverse link CruciferousVegetable to Vegetable--><g id="link_CruciferousVegetable_Vegetable"><path codeLine="2" d="M91.5,200.22 C91.5,222.67 91.5,238.5 91.5,260.91 " fill="none" id="CruciferousVegetable-backto-Vegetable" style="stroke:#181818;stroke-width:1.0;"/><polygon fill="none" points="91.5,182.22,85.5,200.22,97.5,200.22,91.5,182.22" style="stroke:#181818;stroke-width:1.0;"/><text fill="#000000" font-family="sans-serif" font-size="13" lengthAdjust="spacing" textLength="42" x="92.5" y="227.8979">inherits</text></g><!--SRC=[2yhFJSnBBKxELx2fqTLLS2ugJSvCIotABoqEIqrFBKbCoabLi5B8pCj8BSeiAUR2AW_MYKqv0000]--></g></svg>