<?xml version="1.0" encoding="us-ascii" standalone="no"?><svg xmlns="http://www.w3.org/2000/svg" xmlns:xlink="http://www.w3.org/1999/xlink" contentStyleType="text/css" height="189px" preserveAspectRatio="none" style="width:181px;height:189px;background:#FFFFFF;" version="1.1" viewBox="0 0 181 189" width="181px" zoomAndPan="magnify"><defs/><g><!--class ColonyOfSalamander--><g id="elem_ColonyOfSalamander"><rect fill="#F1F1F1" height="48" id="ColonyOfSalamander" rx="2.5" ry="2.5" style="stroke:#181818;stroke-width:0.5;" width="167" x="7" y="7"/><ellipse cx="22" cy="23" fill="#ADD1B2" rx="11" ry="11" style="stroke:#181818;stroke-width:1.0;"/><path d="M21.3438,28.8594 Q19.3594,28.8594 18.1875,27.3906 Q17.0313,25.9063 17.0313,22.8281 Q17.0313,20.2188 18.25,18.4688 Q19.4844,16.7188 21.6094,16.7188 Q22.1094,16.7188 22.6406,16.8594 Q23.0781,17.0469 23.3438,17.0469 Q23.5625,17.0469 23.6563,17 Q23.7656,16.9531 24.2188,16.3594 L24.9844,20.0938 L24.0938,20.3594 Q23.6406,18.9063 23.0313,18.3125 Q22.4375,17.7031 21.4844,17.7031 Q20.2656,17.7031 19.5469,19.1406 Q18.8281,20.5625 18.8281,22.75 Q18.8281,25.1563 19.4375,26.4531 Q20.0625,27.7344 21.4219,27.7344 Q22.375,27.7344 23.0625,27.0469 Q23.75,26.3438 24.0781,24.8438 L24.9844,25.25 Q24.5781,26.9531 23.6094,27.9063 Q22.6563,28.8594 21.3438,28.8594 Z " fill="#000000"/><text fill="#000000" font-family="sans-serif" font-size="14" lengthAdjust="spacing" textLength="135" x="36" y="29.4839">ColonyOfSalamander</text><line style="stroke:#181818;stroke-width:0.5;" x1="8" x2="173" y1="39" y2="39"/><line style="stroke:#181818;stroke-width:0.5;" x1="8" x2="173" y1="47" y2="47"/></g><!--class Aquarium--><g id="elem_Aquarium"><rect fill="#F1F1F1" height="48" id="Aquarium" rx="2.5" ry="2.5" style="stroke:#181818;stroke-width:0.5;" width="92" x="44.5" y="134"/><ellipse cx="59.5" cy="150" fill="#ADD1B2" rx="11" ry="11" style="stroke:#181818;stroke-width:1.0;"/><path d="M58.8438,155.8594 Q56.8594,155.8594 55.6875,154.3906 Q54.5313,152.9063 54.5313,149.8281 Q54.5313,147.2188 55.75,145.4688 Q56.9844,143.7188 59.1094,143.7188 Q59.6094,143.7188 60.1406,143.8594 Q60.5781,144.0469 60.8438,144.0469 Q61.0625,144.0469 61.1563,144 Q61.2656,143.9531 61.7188,143.3594 L62.4844,147.0938 L61.5938,147.3594 Q61.1406,145.9063 60.5313,145.3125 Q59.9375,144.7031 58.9844,144.7031 Q57.7656,144.7031 57.0469,146.1406 Q56.3281,147.5625 56.3281,149.75 Q56.3281,152.1563 56.9375,153.4531 Q57.5625,154.7344 58.9219,154.7344 Q59.875,154.7344 60.5625,154.0469 Q61.25,153.3438 61.5781,151.8438 L62.4844,152.25 Q62.0781,153.9531 61.1094,154.9063 Q60.1563,155.8594 58.8438,155.8594 Z " fill="#000000"/><text fill="#000000" font-family="sans-serif" font-size="14" lengthAdjust="spacing" textLength="60" x="73.5" y="156.4839">Aquarium</text><line style="stroke:#181818;stroke-width:0.5;" x1="45.5" x2="135.5" y1="166" y2="166"/><line style="stroke:#181818;stroke-width:0.5;" x1="45.5" x2="135.5" y1="174" y2="174"/></g><!--reverse link ColonyOfSalamander to Aquarium--><g id="link_ColonyOfSalamander_Aquarium"><path codeLine="1" d="M90.5,67.22 C90.5,89.67 90.5,111.5 90.5,133.91 " fill="none" id="ColonyOfSalamander-backto-Aquarium" style="stroke:#181818;stroke-width:1.0;"/><polygon fill="none" points="90.5,55.22,86.5,61.22,90.5,67.22,94.5,61.22,90.5,55.22" style="stroke:#181818;stroke-width:1.0;"/><text fill="#000000" font-family="sans-serif" font-size="13" lengthAdjust="spacing" textLength="64" x="91.5" y="100.8979">aggregates</text></g><!--SRC=[SyxFoS-hz4yBJin9p4tCIqajKiZNrLLmB2nDBCeipLMmKaXCJozAJKyiIIq60000]--></g></svg>