<?xml version="1.0" encoding="us-ascii" standalone="no"?><svg xmlns="http://www.w3.org/2000/svg" xmlns:xlink="http://www.w3.org/1999/xlink" contentStyleType="text/css" height="316px" preserveAspectRatio="none" style="width:97px;height:316px;background:#FFFFFF;" version="1.1" viewBox="0 0 97 316" width="97px" zoomAndPan="magnify"><defs/><g><!--class Animal--><g id="elem_Animal"><rect fill="#F1F1F1" height="48" id="Animal" rx="2.5" ry="2.5" style="stroke:#181818;stroke-width:0.5;" width="74" x="9.5" y="7"/><ellipse cx="24.5" cy="23" fill="#ADD1B2" rx="11" ry="11" style="stroke:#181818;stroke-width:1.0;"/><path d="M23.8438,28.8594 Q21.8594,28.8594 20.6875,27.3906 Q19.5313,25.9063 19.5313,22.8281 Q19.5313,20.2188 20.75,18.4688 Q21.9844,16.7188 24.1094,16.7188 Q24.6094,16.7188 25.1406,16.8594 Q25.5781,17.0469 25.8438,17.0469 Q26.0625,17.0469 26.1563,17 Q26.2656,16.9531 26.7188,16.3594 L27.4844,20.0938 L26.5938,20.3594 Q26.1406,18.9063 25.5313,18.3125 Q24.9375,17.7031 23.9844,17.7031 Q22.7656,17.7031 22.0469,19.1406 Q21.3281,20.5625 21.3281,22.75 Q21.3281,25.1563 21.9375,26.4531 Q22.5625,27.7344 23.9219,27.7344 Q24.875,27.7344 25.5625,27.0469 Q26.25,26.3438 26.5781,24.8438 L27.4844,25.25 Q27.0781,26.9531 26.1094,27.9063 Q25.1563,28.8594 23.8438,28.8594 Z " fill="#000000"/><text fill="#000000" font-family="sans-serif" font-size="14" lengthAdjust="spacing" textLength="42" x="38.5" y="29.4839">Animal</text><line style="stroke:#181818;stroke-width:0.5;" x1="10.5" x2="82.5" y1="39" y2="39"/><line style="stroke:#181818;stroke-width:0.5;" x1="10.5" x2="82.5" y1="47" y2="47"/></g><!--class Mollusk--><g id="elem_Mollusk"><rect fill="#F1F1F1" height="48" id="Mollusk" rx="2.5" ry="2.5" style="stroke:#181818;stroke-width:0.5;" width="79" x="7" y="134"/><ellipse cx="22" cy="150" fill="#ADD1B2" rx="11" ry="11" style="stroke:#181818;stroke-width:1.0;"/><path d="M21.3438,155.8594 Q19.3594,155.8594 18.1875,154.3906 Q17.0313,152.9063 17.0313,149.8281 Q17.0313,147.2188 18.25,145.4688 Q19.4844,143.7188 21.6094,143.7188 Q22.1094,143.7188 22.6406,143.8594 Q23.0781,144.0469 23.3438,144.0469 Q23.5625,144.0469 23.6563,144 Q23.7656,143.9531 24.2188,143.3594 L24.9844,147.0938 L24.0938,147.3594 Q23.6406,145.9063 23.0313,145.3125 Q22.4375,144.7031 21.4844,144.7031 Q20.2656,144.7031 19.5469,146.1406 Q18.8281,147.5625 18.8281,149.75 Q18.8281,152.1563 19.4375,153.4531 Q20.0625,154.7344 21.4219,154.7344 Q22.375,154.7344 23.0625,154.0469 Q23.75,153.3438 24.0781,151.8438 L24.9844,152.25 Q24.5781,153.9531 23.6094,154.9063 Q22.6563,155.8594 21.3438,155.8594 Z " fill="#000000"/><text fill="#000000" font-family="sans-serif" font-size="14" lengthAdjust="spacing" textLength="47" x="36" y="156.4839">Mollusk</text><line style="stroke:#181818;stroke-width:0.5;" x1="8" x2="85" y1="166" y2="166"/><line style="stroke:#181818;stroke-width:0.5;" x1="8" x2="85" y1="174" y2="174"/></g><!--class Snail--><g id="elem_Snail"><rect fill="#F1F1F1" height="48" id="Snail" rx="2.5" ry="2.5" style="stroke:#181818;stroke-width:0.5;" width="63" x="15" y="261"/><ellipse cx="30" cy="277" fill="#ADD1B2" rx="11" ry="11" style="stroke:#181818;stroke-width:1.0;"/><path d="M29.3438,282.8594 Q27.3594,282.8594 26.1875,281.3906 Q25.0313,279.9063 25.0313,276.8281 Q25.0313,274.2188 26.25,272.4688 Q27.4844,270.7188 29.6094,270.7188 Q30.1094,270.7188 30.6406,270.8594 Q31.0781,271.0469 31.3438,271.0469 Q31.5625,271.0469 31.6563,271 Q31.7656,270.9531 32.2188,270.3594 L32.9844,274.0938 L32.0938,274.3594 Q31.6406,272.9063 31.0313,272.3125 Q30.4375,271.7031 29.4844,271.7031 Q28.2656,271.7031 27.5469,273.1406 Q26.8281,274.5625 26.8281,276.75 Q26.8281,279.1563 27.4375,280.4531 Q28.0625,281.7344 29.4219,281.7344 Q30.375,281.7344 31.0625,281.0469 Q31.75,280.3438 32.0781,278.8438 L32.9844,279.25 Q32.5781,280.9531 31.6094,281.9063 Q30.6563,282.8594 29.3438,282.8594 Z " fill="#000000"/><text fill="#000000" font-family="sans-serif" font-size="14" lengthAdjust="spacing" textLength="31" x="44" y="283.4839">Snail</text><line style="stroke:#181818;stroke-width:0.5;" x1="16" x2="77" y1="293" y2="293"/><line style="stroke:#181818;stroke-width:0.5;" x1="16" x2="77" y1="301" y2="301"/></g><!--reverse link Animal to Mollusk--><g id="link_Animal_Mollusk"><path codeLine="1" d="M46.5,73.22 C46.5,95.67 46.5,111.5 46.5,133.91 " fill="none" id="Animal-backto-Mollusk" style="stroke:#181818;stroke-width:1.0;"/><polygon fill="none" points="46.5,55.22,40.5,73.22,52.5,73.22,46.5,55.22" style="stroke:#181818;stroke-width:1.0;"/><text fill="#000000" font-family="sans-serif" font-size="13" lengthAdjust="spacing" textLength="42" x="47.5" y="100.8979">inherits</text></g><!--reverse link Mollusk to Snail--><g id="link_Mollusk_Snail"><path codeLine="2" d="M46.5,200.22 C46.5,222.67 46.5,238.5 46.5,260.91 " fill="none" id="Mollusk-backto-Snail" style="stroke:#181818;stroke-width:1.0;"/><polygon fill="none" points="46.5,182.22,40.5,200.22,52.5,200.22,46.5,182.22" style="stroke:#181818;stroke-width:1.0;"/><text fill="#000000" font-family="sans-serif" font-size="13" lengthAdjust="spacing" textLength="42" x="47.5" y="227.8979">inherits</text></g><!--SRC=[SypBp4tCKR2fqTLLyCtFoIajpbQmKiZCoqWjoYmfve89WUM3yn8pSv1a0G00]--></g></svg>