<?xml version="1.0" encoding="us-ascii" standalone="no"?><svg xmlns="http://www.w3.org/2000/svg" xmlns:xlink="http://www.w3.org/1999/xlink" contentStyleType="text/css" height="316px" preserveAspectRatio="none" style="width:240px;height:316px;background:#FFFFFF;" version="1.1" viewBox="0 0 240 316" width="240px" zoomAndPan="magnify"><defs/><g><!--class EducationalInstitution--><g id="elem_EducationalInstitution"><rect fill="#F1F1F1" height="48" id="EducationalInstitution" rx="2.5" ry="2.5" style="stroke:#181818;stroke-width:0.5;" width="166" x="37" y="7"/><ellipse cx="52" cy="23" fill="#ADD1B2" rx="11" ry="11" style="stroke:#181818;stroke-width:1.0;"/><path d="M51.3438,28.8594 Q49.3594,28.8594 48.1875,27.3906 Q47.0313,25.9063 47.0313,22.8281 Q47.0313,20.2188 48.25,18.4688 Q49.4844,16.7188 51.6094,16.7188 Q52.1094,16.7188 52.6406,16.8594 Q53.0781,17.0469 53.3438,17.0469 Q53.5625,17.0469 53.6563,17 Q53.7656,16.9531 54.2188,16.3594 L54.9844,20.0938 L54.0938,20.3594 Q53.6406,18.9063 53.0313,18.3125 Q52.4375,17.7031 51.4844,17.7031 Q50.2656,17.7031 49.5469,19.1406 Q48.8281,20.5625 48.8281,22.75 Q48.8281,25.1563 49.4375,26.4531 Q50.0625,27.7344 51.4219,27.7344 Q52.375,27.7344 53.0625,27.0469 Q53.75,26.3438 54.0781,24.8438 L54.9844,25.25 Q54.5781,26.9531 53.6094,27.9063 Q52.6563,28.8594 51.3438,28.8594 Z " fill="#000000"/><text fill="#000000" font-family="sans-serif" font-size="14" lengthAdjust="spacing" textLength="134" x="66" y="29.4839">EducationalInstitution</text><line style="stroke:#181818;stroke-width:0.5;" x1="38" x2="202" y1="39" y2="39"/><line style="stroke:#181818;stroke-width:0.5;" x1="38" x2="202" y1="47" y2="47"/></g><!--class University--><g id="elem_University"><rect fill="#F1F1F1" height="48" id="University" rx="2.5" ry="2.5" style="stroke:#181818;stroke-width:0.5;" width="93" x="73.5" y="134"/><ellipse cx="88.5" cy="150" fill="#ADD1B2" rx="11" ry="11" style="stroke:#181818;stroke-width:1.0;"/><path d="M87.8438,155.8594 Q85.8594,155.8594 84.6875,154.3906 Q83.5313,152.9063 83.5313,149.8281 Q83.5313,147.2188 84.75,145.4688 Q85.9844,143.7188 88.1094,143.7188 Q88.6094,143.7188 89.1406,143.8594 Q89.5781,144.0469 89.8438,144.0469 Q90.0625,144.0469 90.1563,144 Q90.2656,143.9531 90.7188,143.3594 L91.4844,147.0938 L90.5938,147.3594 Q90.1406,145.9063 89.5313,145.3125 Q88.9375,144.7031 87.9844,144.7031 Q86.7656,144.7031 86.0469,146.1406 Q85.3281,147.5625 85.3281,149.75 Q85.3281,152.1563 85.9375,153.4531 Q86.5625,154.7344 87.9219,154.7344 Q88.875,154.7344 89.5625,154.0469 Q90.25,153.3438 90.5781,151.8438 L91.4844,152.25 Q91.0781,153.9531 90.1094,154.9063 Q89.1563,155.8594 87.8438,155.8594 Z " fill="#000000"/><text fill="#000000" font-family="sans-serif" font-size="14" lengthAdjust="spacing" textLength="61" x="102.5" y="156.4839">University</text><line style="stroke:#181818;stroke-width:0.5;" x1="74.5" x2="165.5" y1="166" y2="166"/><line style="stroke:#181818;stroke-width:0.5;" x1="74.5" x2="165.5" y1="174" y2="174"/></g><!--class TechnicalUniversityOfDenmark--><g id="elem_TechnicalUniversityOfDenmark"><rect fill="#F1F1F1" height="48" id="TechnicalUniversityOfDenmark" rx="2.5" ry="2.5" style="stroke:#181818;stroke-width:0.5;" width="226" x="7" y="261"/><ellipse cx="22" cy="277" fill="#ADD1B2" rx="11" ry="11" style="stroke:#181818;stroke-width:1.0;"/><path d="M21.3438,282.8594 Q19.3594,282.8594 18.1875,281.3906 Q17.0313,279.9063 17.0313,276.8281 Q17.0313,274.2188 18.25,272.4688 Q19.4844,270.7188 21.6094,270.7188 Q22.1094,270.7188 22.6406,270.8594 Q23.0781,271.0469 23.3438,271.0469 Q23.5625,271.0469 23.6563,271 Q23.7656,270.9531 24.2188,270.3594 L24.9844,274.0938 L24.0938,274.3594 Q23.6406,272.9063 23.0313,272.3125 Q22.4375,271.7031 21.4844,271.7031 Q20.2656,271.7031 19.5469,273.1406 Q18.8281,274.5625 18.8281,276.75 Q18.8281,279.1563 19.4375,280.4531 Q20.0625,281.7344 21.4219,281.7344 Q22.375,281.7344 23.0625,281.0469 Q23.75,280.3438 24.0781,278.8438 L24.9844,279.25 Q24.5781,280.9531 23.6094,281.9063 Q22.6563,282.8594 21.3438,282.8594 Z " fill="#000000"/><text fill="#000000" font-family="sans-serif" font-size="14" lengthAdjust="spacing" textLength="194" x="36" y="283.4839">TechnicalUniversityOfDenmark</text><line style="stroke:#181818;stroke-width:0.5;" x1="8" x2="232" y1="293" y2="293"/><line style="stroke:#181818;stroke-width:0.5;" x1="8" x2="232" y1="301" y2="301"/></g><!--reverse link EducationalInstitution to University--><g id="link_EducationalInstitution_University"><path codeLine="1" d="M120,73.22 C120,95.67 120,111.5 120,133.91 " fill="none" id="EducationalInstitution-backto-University" style="stroke:#181818;stroke-width:1.0;"/><polygon fill="none" points="120,55.22,114,73.22,126,73.22,120,55.22" style="stroke:#181818;stroke-width:1.0;"/><text fill="#000000" font-family="sans-serif" font-size="13" lengthAdjust="spacing" textLength="42" x="121" y="100.8979">inherits</text></g><!--reverse link University to TechnicalUniversityOfDenmark--><g id="link_University_TechnicalUniversityOfDenmark"><path codeLine="2" d="M120,200.22 C120,222.67 120,238.5 120,260.91 " fill="none" id="University-backto-TechnicalUniversityOfDenmark" style="stroke:#181818;stroke-width:1.0;"/><polygon fill="none" points="120,182.22,114,200.22,126,200.22,120,182.22" style="stroke:#181818;stroke-width:1.0;"/><text fill="#000000" font-family="sans-serif" font-size="13" lengthAdjust="spacing" textLength="42" x="121" y="227.8979">inherits</text></g><!--SRC=[SqqfJKuioSpFIypnp2ikoImf1N4KR6fqTHL2ypBBKekACqig5QmKClCoKeioIugva4J1ga9IapFoCfCJSn0I_cakgNcvYKNPIFe0]--></g></svg>