<?xml version="1.0" encoding="us-ascii" standalone="no"?><svg xmlns="http://www.w3.org/2000/svg" xmlns:xlink="http://www.w3.org/1999/xlink" contentStyleType="text/css" height="316px" preserveAspectRatio="none" style="width:226px;height:316px;background:#FFFFFF;" version="1.1" viewBox="0 0 226 316" width="226px" zoomAndPan="magnify"><defs/><g><!--class EducationalInstitution--><g id="elem_EducationalInstitution"><rect fill="#F1F1F1" height="48" id="EducationalInstitution" rx="2.5" ry="2.5" style="stroke:#181818;stroke-width:0.5;" width="166" x="30" y="7"/><ellipse cx="45" cy="23" fill="#ADD1B2" rx="11" ry="11" style="stroke:#181818;stroke-width:1.0;"/><path d="M44.3438,28.8594 Q42.3594,28.8594 41.1875,27.3906 Q40.0313,25.9063 40.0313,22.8281 Q40.0313,20.2188 41.25,18.4688 Q42.4844,16.7188 44.6094,16.7188 Q45.1094,16.7188 45.6406,16.8594 Q46.0781,17.0469 46.3438,17.0469 Q46.5625,17.0469 46.6563,17 Q46.7656,16.9531 47.2188,16.3594 L47.9844,20.0938 L47.0938,20.3594 Q46.6406,18.9063 46.0313,18.3125 Q45.4375,17.7031 44.4844,17.7031 Q43.2656,17.7031 42.5469,19.1406 Q41.8281,20.5625 41.8281,22.75 Q41.8281,25.1563 42.4375,26.4531 Q43.0625,27.7344 44.4219,27.7344 Q45.375,27.7344 46.0625,27.0469 Q46.75,26.3438 47.0781,24.8438 L47.9844,25.25 Q47.5781,26.9531 46.6094,27.9063 Q45.6563,28.8594 44.3438,28.8594 Z " fill="#000000"/><text fill="#000000" font-family="sans-serif" font-size="14" lengthAdjust="spacing" textLength="134" x="59" y="29.4839">EducationalInstitution</text><line style="stroke:#181818;stroke-width:0.5;" x1="31" x2="195" y1="39" y2="39"/><line style="stroke:#181818;stroke-width:0.5;" x1="31" x2="195" y1="47" y2="47"/></g><!--class University--><g id="elem_University"><rect fill="#F1F1F1" height="48" id="University" rx="2.5" ry="2.5" style="stroke:#181818;stroke-width:0.5;" width="93" x="66.5" y="134"/><ellipse cx="81.5" cy="150" fill="#ADD1B2" rx="11" ry="11" style="stroke:#181818;stroke-width:1.0;"/><path d="M80.8438,155.8594 Q78.8594,155.8594 77.6875,154.3906 Q76.5313,152.9063 76.5313,149.8281 Q76.5313,147.2188 77.75,145.4688 Q78.9844,143.7188 81.1094,143.7188 Q81.6094,143.7188 82.1406,143.8594 Q82.5781,144.0469 82.8438,144.0469 Q83.0625,144.0469 83.1563,144 Q83.2656,143.9531 83.7188,143.3594 L84.4844,147.0938 L83.5938,147.3594 Q83.1406,145.9063 82.5313,145.3125 Q81.9375,144.7031 80.9844,144.7031 Q79.7656,144.7031 79.0469,146.1406 Q78.3281,147.5625 78.3281,149.75 Q78.3281,152.1563 78.9375,153.4531 Q79.5625,154.7344 80.9219,154.7344 Q81.875,154.7344 82.5625,154.0469 Q83.25,153.3438 83.5781,151.8438 L84.4844,152.25 Q84.0781,153.9531 83.1094,154.9063 Q82.1563,155.8594 80.8438,155.8594 Z " fill="#000000"/><text fill="#000000" font-family="sans-serif" font-size="14" lengthAdjust="spacing" textLength="61" x="95.5" y="156.4839">University</text><line style="stroke:#181818;stroke-width:0.5;" x1="67.5" x2="158.5" y1="166" y2="166"/><line style="stroke:#181818;stroke-width:0.5;" x1="67.5" x2="158.5" y1="174" y2="174"/></g><!--class BeijingInstituteOfTechnology--><g id="elem_BeijingInstituteOfTechnology"><rect fill="#F1F1F1" height="48" id="BeijingInstituteOfTechnology" rx="2.5" ry="2.5" style="stroke:#181818;stroke-width:0.5;" width="212" x="7" y="261"/><ellipse cx="22" cy="277" fill="#ADD1B2" rx="11" ry="11" style="stroke:#181818;stroke-width:1.0;"/><path d="M21.3438,282.8594 Q19.3594,282.8594 18.1875,281.3906 Q17.0313,279.9063 17.0313,276.8281 Q17.0313,274.2188 18.25,272.4688 Q19.4844,270.7188 21.6094,270.7188 Q22.1094,270.7188 22.6406,270.8594 Q23.0781,271.0469 23.3438,271.0469 Q23.5625,271.0469 23.6563,271 Q23.7656,270.9531 24.2188,270.3594 L24.9844,274.0938 L24.0938,274.3594 Q23.6406,272.9063 23.0313,272.3125 Q22.4375,271.7031 21.4844,271.7031 Q20.2656,271.7031 19.5469,273.1406 Q18.8281,274.5625 18.8281,276.75 Q18.8281,279.1563 19.4375,280.4531 Q20.0625,281.7344 21.4219,281.7344 Q22.375,281.7344 23.0625,281.0469 Q23.75,280.3438 24.0781,278.8438 L24.9844,279.25 Q24.5781,280.9531 23.6094,281.9063 Q22.6563,282.8594 21.3438,282.8594 Z " fill="#000000"/><text fill="#000000" font-family="sans-serif" font-size="14" lengthAdjust="spacing" textLength="180" x="36" y="283.4839">BeijingInstituteOfTechnology</text><line style="stroke:#181818;stroke-width:0.5;" x1="8" x2="218" y1="293" y2="293"/><line style="stroke:#181818;stroke-width:0.5;" x1="8" x2="218" y1="301" y2="301"/></g><!--reverse link EducationalInstitution to University--><g id="link_EducationalInstitution_University"><path codeLine="1" d="M113,73.22 C113,95.67 113,111.5 113,133.91 " fill="none" id="EducationalInstitution-backto-University" style="stroke:#181818;stroke-width:1.0;"/><polygon fill="none" points="113,55.22,107,73.22,119,73.22,113,55.22" style="stroke:#181818;stroke-width:1.0;"/><text fill="#000000" font-family="sans-serif" font-size="13" lengthAdjust="spacing" textLength="42" x="114" y="100.8979">inherits</text></g><!--reverse link University to BeijingInstituteOfTechnology--><g id="link_University_BeijingInstituteOfTechnology"><path codeLine="2" d="M113,200.22 C113,222.67 113,238.5 113,260.91 " fill="none" id="University-backto-BeijingInstituteOfTechnology" style="stroke:#181818;stroke-width:1.0;"/><polygon fill="none" points="113,182.22,107,200.22,119,200.22,113,182.22" style="stroke:#181818;stroke-width:1.0;"/><text fill="#000000" font-family="sans-serif" font-size="13" lengthAdjust="spacing" textLength="42" x="114" y="227.8979">inherits</text></g><!--SRC=[SqqfJKuioSpFIypnp2ikoImf1N4KR6fqTHL2ypBBKekACqig5QmKClCoKeioIugva4J1gfnICxCoyz9XkbFzqq9IapFoydFoqv7r0G00]--></g></svg>