<?xml version="1.0" encoding="us-ascii" standalone="no"?><svg xmlns="http://www.w3.org/2000/svg" xmlns:xlink="http://www.w3.org/1999/xlink" contentStyleType="text/css" height="316px" preserveAspectRatio="none" style="width:278px;height:316px;background:#FFFFFF;" version="1.1" viewBox="0 0 278 316" width="278px" zoomAndPan="magnify"><defs/><g><!--class EducationalInstitution--><g id="elem_EducationalInstitution"><rect fill="#F1F1F1" height="48" id="EducationalInstitution" rx="2.5" ry="2.5" style="stroke:#181818;stroke-width:0.5;" width="166" x="56" y="7"/><ellipse cx="71" cy="23" fill="#ADD1B2" rx="11" ry="11" style="stroke:#181818;stroke-width:1.0;"/><path d="M70.3438,28.8594 Q68.3594,28.8594 67.1875,27.3906 Q66.0313,25.9063 66.0313,22.8281 Q66.0313,20.2188 67.25,18.4688 Q68.4844,16.7188 70.6094,16.7188 Q71.1094,16.7188 71.6406,16.8594 Q72.0781,17.0469 72.3438,17.0469 Q72.5625,17.0469 72.6563,17 Q72.7656,16.9531 73.2188,16.3594 L73.9844,20.0938 L73.0938,20.3594 Q72.6406,18.9063 72.0313,18.3125 Q71.4375,17.7031 70.4844,17.7031 Q69.2656,17.7031 68.5469,19.1406 Q67.8281,20.5625 67.8281,22.75 Q67.8281,25.1563 68.4375,26.4531 Q69.0625,27.7344 70.4219,27.7344 Q71.375,27.7344 72.0625,27.0469 Q72.75,26.3438 73.0781,24.8438 L73.9844,25.25 Q73.5781,26.9531 72.6094,27.9063 Q71.6563,28.8594 70.3438,28.8594 Z " fill="#000000"/><text fill="#000000" font-family="sans-serif" font-size="14" lengthAdjust="spacing" textLength="134" x="85" y="29.4839">EducationalInstitution</text><line style="stroke:#181818;stroke-width:0.5;" x1="57" x2="221" y1="39" y2="39"/><line style="stroke:#181818;stroke-width:0.5;" x1="57" x2="221" y1="47" y2="47"/></g><!--class University--><g id="elem_University"><rect fill="#F1F1F1" height="48" id="University" rx="2.5" ry="2.5" style="stroke:#181818;stroke-width:0.5;" width="93" x="92.5" y="134"/><ellipse cx="107.5" cy="150" fill="#ADD1B2" rx="11" ry="11" style="stroke:#181818;stroke-width:1.0;"/><path d="M106.8438,155.8594 Q104.8594,155.8594 103.6875,154.3906 Q102.5313,152.9063 102.5313,149.8281 Q102.5313,147.2188 103.75,145.4688 Q104.9844,143.7188 107.1094,143.7188 Q107.6094,143.7188 108.1406,143.8594 Q108.5781,144.0469 108.8438,144.0469 Q109.0625,144.0469 109.1563,144 Q109.2656,143.9531 109.7188,143.3594 L110.4844,147.0938 L109.5938,147.3594 Q109.1406,145.9063 108.5313,145.3125 Q107.9375,144.7031 106.9844,144.7031 Q105.7656,144.7031 105.0469,146.1406 Q104.3281,147.5625 104.3281,149.75 Q104.3281,152.1563 104.9375,153.4531 Q105.5625,154.7344 106.9219,154.7344 Q107.875,154.7344 108.5625,154.0469 Q109.25,153.3438 109.5781,151.8438 L110.4844,152.25 Q110.0781,153.9531 109.1094,154.9063 Q108.1563,155.8594 106.8438,155.8594 Z " fill="#000000"/><text fill="#000000" font-family="sans-serif" font-size="14" lengthAdjust="spacing" textLength="61" x="121.5" y="156.4839">University</text><line style="stroke:#181818;stroke-width:0.5;" x1="93.5" x2="184.5" y1="166" y2="166"/><line style="stroke:#181818;stroke-width:0.5;" x1="93.5" x2="184.5" y1="174" y2="174"/></g><!--class MassachusettsInstituteOfTechnology--><g id="elem_MassachusettsInstituteOfTechnology"><rect fill="#F1F1F1" height="48" id="MassachusettsInstituteOfTechnology" rx="2.5" ry="2.5" style="stroke:#181818;stroke-width:0.5;" width="264" x="7" y="261"/><ellipse cx="22" cy="277" fill="#ADD1B2" rx="11" ry="11" style="stroke:#181818;stroke-width:1.0;"/><path d="M21.3438,282.8594 Q19.3594,282.8594 18.1875,281.3906 Q17.0313,279.9063 17.0313,276.8281 Q17.0313,274.2188 18.25,272.4688 Q19.4844,270.7188 21.6094,270.7188 Q22.1094,270.7188 22.6406,270.8594 Q23.0781,271.0469 23.3438,271.0469 Q23.5625,271.0469 23.6563,271 Q23.7656,270.9531 24.2188,270.3594 L24.9844,274.0938 L24.0938,274.3594 Q23.6406,272.9063 23.0313,272.3125 Q22.4375,271.7031 21.4844,271.7031 Q20.2656,271.7031 19.5469,273.1406 Q18.8281,274.5625 18.8281,276.75 Q18.8281,279.1563 19.4375,280.4531 Q20.0625,281.7344 21.4219,281.7344 Q22.375,281.7344 23.0625,281.0469 Q23.75,280.3438 24.0781,278.8438 L24.9844,279.25 Q24.5781,280.9531 23.6094,281.9063 Q22.6563,282.8594 21.3438,282.8594 Z " fill="#000000"/><text fill="#000000" font-family="sans-serif" font-size="14" lengthAdjust="spacing" textLength="232" x="36" y="283.4839">MassachusettsInstituteOfTechnology</text><line style="stroke:#181818;stroke-width:0.5;" x1="8" x2="270" y1="293" y2="293"/><line style="stroke:#181818;stroke-width:0.5;" x1="8" x2="270" y1="301" y2="301"/></g><!--reverse link EducationalInstitution to University--><g id="link_EducationalInstitution_University"><path codeLine="1" d="M139,73.22 C139,95.67 139,111.5 139,133.91 " fill="none" id="EducationalInstitution-backto-University" style="stroke:#181818;stroke-width:1.0;"/><polygon fill="none" points="139,55.22,133,73.22,145,73.22,139,55.22" style="stroke:#181818;stroke-width:1.0;"/><text fill="#000000" font-family="sans-serif" font-size="13" lengthAdjust="spacing" textLength="42" x="140" y="100.8979">inherits</text></g><!--reverse link University to MassachusettsInstituteOfTechnology--><g id="link_University_MassachusettsInstituteOfTechnology"><path codeLine="2" d="M139,200.22 C139,222.67 139,238.5 139,260.91 " fill="none" id="University-backto-MassachusettsInstituteOfTechnology" style="stroke:#181818;stroke-width:1.0;"/><polygon fill="none" points="139,182.22,133,200.22,145,200.22,139,182.22" style="stroke:#181818;stroke-width:1.0;"/><text fill="#000000" font-family="sans-serif" font-size="13" lengthAdjust="spacing" textLength="42" x="140" y="227.8979">inherits</text></g><!--SRC=[SqqfJKuioSpFIypnp2ikoImf1N4KR6fqTHL2ypBBKekACqig5QmKClCoKeioIugva4J1gdmJYuiJapDAYrDBIefXPgJwfuMa9cVavUVafoFh1W00]--></g></svg>