<?xml version="1.0" encoding="us-ascii" standalone="no"?><svg xmlns="http://www.w3.org/2000/svg" xmlns:xlink="http://www.w3.org/1999/xlink" contentStyleType="text/css" height="316px" preserveAspectRatio="none" style="width:122px;height:316px;background:#FFFFFF;" version="1.1" viewBox="0 0 122 316" width="122px" zoomAndPan="magnify"><defs/><g><!--class Game--><g id="elem_Game"><rect fill="#F1F1F1" height="48" id="Game" rx="2.5" ry="2.5" style="stroke:#181818;stroke-width:0.5;" width="70" x="26" y="7"/><ellipse cx="41" cy="23" fill="#ADD1B2" rx="11" ry="11" style="stroke:#181818;stroke-width:1.0;"/><path d="M40.3438,28.8594 Q38.3594,28.8594 37.1875,27.3906 Q36.0313,25.9063 36.0313,22.8281 Q36.0313,20.2188 37.25,18.4688 Q38.4844,16.7188 40.6094,16.7188 Q41.1094,16.7188 41.6406,16.8594 Q42.0781,17.0469 42.3438,17.0469 Q42.5625,17.0469 42.6563,17 Q42.7656,16.9531 43.2188,16.3594 L43.9844,20.0938 L43.0938,20.3594 Q42.6406,18.9063 42.0313,18.3125 Q41.4375,17.7031 40.4844,17.7031 Q39.2656,17.7031 38.5469,19.1406 Q37.8281,20.5625 37.8281,22.75 Q37.8281,25.1563 38.4375,26.4531 Q39.0625,27.7344 40.4219,27.7344 Q41.375,27.7344 42.0625,27.0469 Q42.75,26.3438 43.0781,24.8438 L43.9844,25.25 Q43.5781,26.9531 42.6094,27.9063 Q41.6563,28.8594 40.3438,28.8594 Z " fill="#000000"/><text fill="#000000" font-family="sans-serif" font-size="14" lengthAdjust="spacing" textLength="38" x="55" y="29.4839">Game</text><line style="stroke:#181818;stroke-width:0.5;" x1="27" x2="95" y1="39" y2="39"/><line style="stroke:#181818;stroke-width:0.5;" x1="27" x2="95" y1="47" y2="47"/></g><!--class BoardGame--><g id="elem_BoardGame"><rect fill="#F1F1F1" height="48" id="BoardGame" rx="2.5" ry="2.5" style="stroke:#181818;stroke-width:0.5;" width="108" x="7" y="134"/><ellipse cx="22" cy="150" fill="#ADD1B2" rx="11" ry="11" style="stroke:#181818;stroke-width:1.0;"/><path d="M21.3438,155.8594 Q19.3594,155.8594 18.1875,154.3906 Q17.0313,152.9063 17.0313,149.8281 Q17.0313,147.2188 18.25,145.4688 Q19.4844,143.7188 21.6094,143.7188 Q22.1094,143.7188 22.6406,143.8594 Q23.0781,144.0469 23.3438,144.0469 Q23.5625,144.0469 23.6563,144 Q23.7656,143.9531 24.2188,143.3594 L24.9844,147.0938 L24.0938,147.3594 Q23.6406,145.9063 23.0313,145.3125 Q22.4375,144.7031 21.4844,144.7031 Q20.2656,144.7031 19.5469,146.1406 Q18.8281,147.5625 18.8281,149.75 Q18.8281,152.1563 19.4375,153.4531 Q20.0625,154.7344 21.4219,154.7344 Q22.375,154.7344 23.0625,154.0469 Q23.75,153.3438 24.0781,151.8438 L24.9844,152.25 Q24.5781,153.9531 23.6094,154.9063 Q22.6563,155.8594 21.3438,155.8594 Z " fill="#000000"/><text fill="#000000" font-family="sans-serif" font-size="14" lengthAdjust="spacing" textLength="76" x="36" y="156.4839">BoardGame</text><line style="stroke:#181818;stroke-width:0.5;" x1="8" x2="114" y1="166" y2="166"/><line style="stroke:#181818;stroke-width:0.5;" x1="8" x2="114" y1="174" y2="174"/></g><!--class Clue--><g id="elem_Clue"><rect fill="#F1F1F1" height="48" id="Clue" rx="2.5" ry="2.5" style="stroke:#181818;stroke-width:0.5;" width="61" x="30.5" y="261"/><ellipse cx="45.5" cy="277" fill="#ADD1B2" rx="11" ry="11" style="stroke:#181818;stroke-width:1.0;"/><path d="M44.8438,282.8594 Q42.8594,282.8594 41.6875,281.3906 Q40.5313,279.9063 40.5313,276.8281 Q40.5313,274.2188 41.75,272.4688 Q42.9844,270.7188 45.1094,270.7188 Q45.6094,270.7188 46.1406,270.8594 Q46.5781,271.0469 46.8438,271.0469 Q47.0625,271.0469 47.1563,271 Q47.2656,270.9531 47.7188,270.3594 L48.4844,274.0938 L47.5938,274.3594 Q47.1406,272.9063 46.5313,272.3125 Q45.9375,271.7031 44.9844,271.7031 Q43.7656,271.7031 43.0469,273.1406 Q42.3281,274.5625 42.3281,276.75 Q42.3281,279.1563 42.9375,280.4531 Q43.5625,281.7344 44.9219,281.7344 Q45.875,281.7344 46.5625,281.0469 Q47.25,280.3438 47.5781,278.8438 L48.4844,279.25 Q48.0781,280.9531 47.1094,281.9063 Q46.1563,282.8594 44.8438,282.8594 Z " fill="#000000"/><text fill="#000000" font-family="sans-serif" font-size="14" lengthAdjust="spacing" textLength="29" x="59.5" y="283.4839">Clue</text><line style="stroke:#181818;stroke-width:0.5;" x1="31.5" x2="90.5" y1="293" y2="293"/><line style="stroke:#181818;stroke-width:0.5;" x1="31.5" x2="90.5" y1="301" y2="301"/></g><!--reverse link Game to BoardGame--><g id="link_Game_BoardGame"><path codeLine="1" d="M61,73.22 C61,95.67 61,111.5 61,133.91 " fill="none" id="Game-backto-BoardGame" style="stroke:#181818;stroke-width:1.0;"/><polygon fill="none" points="61,55.22,55,73.22,67,73.22,61,55.22" style="stroke:#181818;stroke-width:1.0;"/><text fill="#000000" font-family="sans-serif" font-size="13" lengthAdjust="spacing" textLength="42" x="62" y="100.8979">inherits</text></g><!--reverse link BoardGame to Clue--><g id="link_BoardGame_Clue"><path codeLine="2" d="M61,200.22 C61,222.67 61,238.5 61,260.91 " fill="none" id="BoardGame-backto-Clue" style="stroke:#181818;stroke-width:1.0;"/><polygon fill="none" points="61,182.22,55,200.22,67,200.22,61,182.22" style="stroke:#181818;stroke-width:1.0;"/><text fill="#000000" font-family="sans-serif" font-size="13" lengthAdjust="spacing" textLength="42" x="62" y="227.8979">inherits</text></g><!--SRC=[Sq_CJLMmgT7LLN3AJonASGTnhHGoyp9IYp9BYhaGWc0rpZcboD80]--></g></svg>