<?xml version="1.0" encoding="us-ascii" standalone="no"?><svg xmlns="http://www.w3.org/2000/svg" xmlns:xlink="http://www.w3.org/1999/xlink" contentStyleType="text/css" height="316px" preserveAspectRatio="none" style="width:147px;height:316px;background:#FFFFFF;" version="1.1" viewBox="0 0 147 316" width="147px" zoomAndPan="magnify"><defs/><g><!--class Game--><g id="elem_Game"><rect fill="#F1F1F1" height="48" id="Game" rx="2.5" ry="2.5" style="stroke:#181818;stroke-width:0.5;" width="70" x="38.5" y="7"/><ellipse cx="53.5" cy="23" fill="#ADD1B2" rx="11" ry="11" style="stroke:#181818;stroke-width:1.0;"/><path d="M52.8438,28.8594 Q50.8594,28.8594 49.6875,27.3906 Q48.5313,25.9063 48.5313,22.8281 Q48.5313,20.2188 49.75,18.4688 Q50.9844,16.7188 53.1094,16.7188 Q53.6094,16.7188 54.1406,16.8594 Q54.5781,17.0469 54.8438,17.0469 Q55.0625,17.0469 55.1563,17 Q55.2656,16.9531 55.7188,16.3594 L56.4844,20.0938 L55.5938,20.3594 Q55.1406,18.9063 54.5313,18.3125 Q53.9375,17.7031 52.9844,17.7031 Q51.7656,17.7031 51.0469,19.1406 Q50.3281,20.5625 50.3281,22.75 Q50.3281,25.1563 50.9375,26.4531 Q51.5625,27.7344 52.9219,27.7344 Q53.875,27.7344 54.5625,27.0469 Q55.25,26.3438 55.5781,24.8438 L56.4844,25.25 Q56.0781,26.9531 55.1094,27.9063 Q54.1563,28.8594 52.8438,28.8594 Z " fill="#000000"/><text fill="#000000" font-family="sans-serif" font-size="14" lengthAdjust="spacing" textLength="38" x="67.5" y="29.4839">Game</text><line style="stroke:#181818;stroke-width:0.5;" x1="39.5" x2="107.5" y1="39" y2="39"/><line style="stroke:#181818;stroke-width:0.5;" x1="39.5" x2="107.5" y1="47" y2="47"/></g><!--class BoardGame--><g id="elem_BoardGame"><rect fill="#F1F1F1" height="48" id="BoardGame" rx="2.5" ry="2.5" style="stroke:#181818;stroke-width:0.5;" width="108" x="19.5" y="134"/><ellipse cx="34.5" cy="150" fill="#ADD1B2" rx="11" ry="11" style="stroke:#181818;stroke-width:1.0;"/><path d="M33.8438,155.8594 Q31.8594,155.8594 30.6875,154.3906 Q29.5313,152.9063 29.5313,149.8281 Q29.5313,147.2188 30.75,145.4688 Q31.9844,143.7188 34.1094,143.7188 Q34.6094,143.7188 35.1406,143.8594 Q35.5781,144.0469 35.8438,144.0469 Q36.0625,144.0469 36.1563,144 Q36.2656,143.9531 36.7188,143.3594 L37.4844,147.0938 L36.5938,147.3594 Q36.1406,145.9063 35.5313,145.3125 Q34.9375,144.7031 33.9844,144.7031 Q32.7656,144.7031 32.0469,146.1406 Q31.3281,147.5625 31.3281,149.75 Q31.3281,152.1563 31.9375,153.4531 Q32.5625,154.7344 33.9219,154.7344 Q34.875,154.7344 35.5625,154.0469 Q36.25,153.3438 36.5781,151.8438 L37.4844,152.25 Q37.0781,153.9531 36.1094,154.9063 Q35.1563,155.8594 33.8438,155.8594 Z " fill="#000000"/><text fill="#000000" font-family="sans-serif" font-size="14" lengthAdjust="spacing" textLength="76" x="48.5" y="156.4839">BoardGame</text><line style="stroke:#181818;stroke-width:0.5;" x1="20.5" x2="126.5" y1="166" y2="166"/><line style="stroke:#181818;stroke-width:0.5;" x1="20.5" x2="126.5" y1="174" y2="174"/></g><!--class SettlersOfCatan--><g id="elem_SettlersOfCatan"><rect fill="#F1F1F1" height="48" id="SettlersOfCatan" rx="2.5" ry="2.5" style="stroke:#181818;stroke-width:0.5;" width="133" x="7" y="261"/><ellipse cx="22" cy="277" fill="#ADD1B2" rx="11" ry="11" style="stroke:#181818;stroke-width:1.0;"/><path d="M21.3438,282.8594 Q19.3594,282.8594 18.1875,281.3906 Q17.0313,279.9063 17.0313,276.8281 Q17.0313,274.2188 18.25,272.4688 Q19.4844,270.7188 21.6094,270.7188 Q22.1094,270.7188 22.6406,270.8594 Q23.0781,271.0469 23.3438,271.0469 Q23.5625,271.0469 23.6563,271 Q23.7656,270.9531 24.2188,270.3594 L24.9844,274.0938 L24.0938,274.3594 Q23.6406,272.9063 23.0313,272.3125 Q22.4375,271.7031 21.4844,271.7031 Q20.2656,271.7031 19.5469,273.1406 Q18.8281,274.5625 18.8281,276.75 Q18.8281,279.1563 19.4375,280.4531 Q20.0625,281.7344 21.4219,281.7344 Q22.375,281.7344 23.0625,281.0469 Q23.75,280.3438 24.0781,278.8438 L24.9844,279.25 Q24.5781,280.9531 23.6094,281.9063 Q22.6563,282.8594 21.3438,282.8594 Z " fill="#000000"/><text fill="#000000" font-family="sans-serif" font-size="14" lengthAdjust="spacing" textLength="101" x="36" y="283.4839">SettlersOfCatan</text><line style="stroke:#181818;stroke-width:0.5;" x1="8" x2="139" y1="293" y2="293"/><line style="stroke:#181818;stroke-width:0.5;" x1="8" x2="139" y1="301" y2="301"/></g><!--reverse link Game to BoardGame--><g id="link_Game_BoardGame"><path codeLine="1" d="M73.5,73.22 C73.5,95.67 73.5,111.5 73.5,133.91 " fill="none" id="Game-backto-BoardGame" style="stroke:#181818;stroke-width:1.0;"/><polygon fill="none" points="73.5,55.22,67.5,73.22,79.5,73.22,73.5,55.22" style="stroke:#181818;stroke-width:1.0;"/><text fill="#000000" font-family="sans-serif" font-size="13" lengthAdjust="spacing" textLength="42" x="74.5" y="100.8979">inherits</text></g><!--reverse link BoardGame to SettlersOfCatan--><g id="link_BoardGame_SettlersOfCatan"><path codeLine="2" d="M73.5,200.22 C73.5,222.67 73.5,238.5 73.5,260.91 " fill="none" id="BoardGame-backto-SettlersOfCatan" style="stroke:#181818;stroke-width:1.0;"/><polygon fill="none" points="73.5,182.22,67.5,200.22,79.5,200.22,73.5,182.22" style="stroke:#181818;stroke-width:1.0;"/><text fill="#000000" font-family="sans-serif" font-size="13" lengthAdjust="spacing" textLength="42" x="74.5" y="227.8979">inherits</text></g><!--SRC=[Sq_CJLMmgT7LLN3AJonASGTnhHGoyp9IYp9BYhaGWc0rmQab9JcfHSN-QSw99ObvI2e1]--></g></svg>