<?xml version="1.0" encoding="us-ascii" standalone="no"?><svg xmlns="http://www.w3.org/2000/svg" xmlns:xlink="http://www.w3.org/1999/xlink" contentStyleType="text/css" height="316px" preserveAspectRatio="none" style="width:134px;height:316px;background:#FFFFFF;" version="1.1" viewBox="0 0 134 316" width="134px" zoomAndPan="magnify"><defs/><g><!--class Entertainment--><g id="elem_Entertainment"><rect fill="#F1F1F1" height="48" id="Entertainment" rx="2.5" ry="2.5" style="stroke:#181818;stroke-width:0.5;" width="120" x="7" y="7"/><ellipse cx="22" cy="23" fill="#ADD1B2" rx="11" ry="11" style="stroke:#181818;stroke-width:1.0;"/><path d="M21.3438,28.8594 Q19.3594,28.8594 18.1875,27.3906 Q17.0313,25.9063 17.0313,22.8281 Q17.0313,20.2188 18.25,18.4688 Q19.4844,16.7188 21.6094,16.7188 Q22.1094,16.7188 22.6406,16.8594 Q23.0781,17.0469 23.3438,17.0469 Q23.5625,17.0469 23.6563,17 Q23.7656,16.9531 24.2188,16.3594 L24.9844,20.0938 L24.0938,20.3594 Q23.6406,18.9063 23.0313,18.3125 Q22.4375,17.7031 21.4844,17.7031 Q20.2656,17.7031 19.5469,19.1406 Q18.8281,20.5625 18.8281,22.75 Q18.8281,25.1563 19.4375,26.4531 Q20.0625,27.7344 21.4219,27.7344 Q22.375,27.7344 23.0625,27.0469 Q23.75,26.3438 24.0781,24.8438 L24.9844,25.25 Q24.5781,26.9531 23.6094,27.9063 Q22.6563,28.8594 21.3438,28.8594 Z " fill="#000000"/><text fill="#000000" font-family="sans-serif" font-size="14" lengthAdjust="spacing" textLength="88" x="36" y="29.4839">Entertainment</text><line style="stroke:#181818;stroke-width:0.5;" x1="8" x2="126" y1="39" y2="39"/><line style="stroke:#181818;stroke-width:0.5;" x1="8" x2="126" y1="47" y2="47"/></g><!--class Film--><g id="elem_Film"><rect fill="#F1F1F1" height="48" id="Film" rx="2.5" ry="2.5" style="stroke:#181818;stroke-width:0.5;" width="58" x="38" y="134"/><ellipse cx="53" cy="150" fill="#ADD1B2" rx="11" ry="11" style="stroke:#181818;stroke-width:1.0;"/><path d="M52.3438,155.8594 Q50.3594,155.8594 49.1875,154.3906 Q48.0313,152.9063 48.0313,149.8281 Q48.0313,147.2188 49.25,145.4688 Q50.4844,143.7188 52.6094,143.7188 Q53.1094,143.7188 53.6406,143.8594 Q54.0781,144.0469 54.3438,144.0469 Q54.5625,144.0469 54.6563,144 Q54.7656,143.9531 55.2188,143.3594 L55.9844,147.0938 L55.0938,147.3594 Q54.6406,145.9063 54.0313,145.3125 Q53.4375,144.7031 52.4844,144.7031 Q51.2656,144.7031 50.5469,146.1406 Q49.8281,147.5625 49.8281,149.75 Q49.8281,152.1563 50.4375,153.4531 Q51.0625,154.7344 52.4219,154.7344 Q53.375,154.7344 54.0625,154.0469 Q54.75,153.3438 55.0781,151.8438 L55.9844,152.25 Q55.5781,153.9531 54.6094,154.9063 Q53.6563,155.8594 52.3438,155.8594 Z " fill="#000000"/><text fill="#000000" font-family="sans-serif" font-size="14" lengthAdjust="spacing" textLength="26" x="67" y="156.4839">Film</text><line style="stroke:#181818;stroke-width:0.5;" x1="39" x2="95" y1="166" y2="166"/><line style="stroke:#181818;stroke-width:0.5;" x1="39" x2="95" y1="174" y2="174"/></g><!--class FightClub--><g id="elem_FightClub"><rect fill="#F1F1F1" height="48" id="FightClub" rx="2.5" ry="2.5" style="stroke:#181818;stroke-width:0.5;" width="93" x="20.5" y="261"/><ellipse cx="35.5" cy="277" fill="#ADD1B2" rx="11" ry="11" style="stroke:#181818;stroke-width:1.0;"/><path d="M34.8438,282.8594 Q32.8594,282.8594 31.6875,281.3906 Q30.5313,279.9063 30.5313,276.8281 Q30.5313,274.2188 31.75,272.4688 Q32.9844,270.7188 35.1094,270.7188 Q35.6094,270.7188 36.1406,270.8594 Q36.5781,271.0469 36.8438,271.0469 Q37.0625,271.0469 37.1563,271 Q37.2656,270.9531 37.7188,270.3594 L38.4844,274.0938 L37.5938,274.3594 Q37.1406,272.9063 36.5313,272.3125 Q35.9375,271.7031 34.9844,271.7031 Q33.7656,271.7031 33.0469,273.1406 Q32.3281,274.5625 32.3281,276.75 Q32.3281,279.1563 32.9375,280.4531 Q33.5625,281.7344 34.9219,281.7344 Q35.875,281.7344 36.5625,281.0469 Q37.25,280.3438 37.5781,278.8438 L38.4844,279.25 Q38.0781,280.9531 37.1094,281.9063 Q36.1563,282.8594 34.8438,282.8594 Z " fill="#000000"/><text fill="#000000" font-family="sans-serif" font-size="14" lengthAdjust="spacing" textLength="61" x="49.5" y="283.4839">FightClub</text><line style="stroke:#181818;stroke-width:0.5;" x1="21.5" x2="112.5" y1="293" y2="293"/><line style="stroke:#181818;stroke-width:0.5;" x1="21.5" x2="112.5" y1="301" y2="301"/></g><!--reverse link Entertainment to Film--><g id="link_Entertainment_Film"><path codeLine="1" d="M67,73.22 C67,95.67 67,111.5 67,133.91 " fill="none" id="Entertainment-backto-Film" style="stroke:#181818;stroke-width:1.0;"/><polygon fill="none" points="67,55.22,61,73.22,73,73.22,67,55.22" style="stroke:#181818;stroke-width:1.0;"/><text fill="#000000" font-family="sans-serif" font-size="13" lengthAdjust="spacing" textLength="42" x="68" y="100.8979">inherits</text></g><!--reverse link Film to FightClub--><g id="link_Film_FightClub"><path codeLine="2" d="M67,200.22 C67,222.67 67,238.5 67,260.91 " fill="none" id="Film-backto-FightClub" style="stroke:#181818;stroke-width:1.0;"/><polygon fill="none" points="67,182.22,61,200.22,73,200.22,67,182.22" style="stroke:#181818;stroke-width:1.0;"/><text fill="#000000" font-family="sans-serif" font-size="13" lengthAdjust="spacing" textLength="42" x="68" y="227.8979">inherits</text></g><!--SRC=[SyqhIIqgISpCoqtDAr6mgT7LLN3BpCbLi5B8pCj8BSeiAUO2yw4owHabpZcbIKZI0000]--></g></svg>