<?xml version="1.0" encoding="us-ascii" standalone="no"?><svg xmlns="http://www.w3.org/2000/svg" xmlns:xlink="http://www.w3.org/1999/xlink" contentStyleType="text/css" height="316px" preserveAspectRatio="none" style="width:158px;height:316px;background:#FFFFFF;" version="1.1" viewBox="0 0 158 316" width="158px" zoomAndPan="magnify"><defs/><g><!--class Game--><g id="elem_Game"><rect fill="#F1F1F1" height="48" id="Game" rx="2.5" ry="2.5" style="stroke:#181818;stroke-width:0.5;" width="70" x="44" y="7"/><ellipse cx="59" cy="23" fill="#ADD1B2" rx="11" ry="11" style="stroke:#181818;stroke-width:1.0;"/><path d="M58.3438,28.8594 Q56.3594,28.8594 55.1875,27.3906 Q54.0313,25.9063 54.0313,22.8281 Q54.0313,20.2188 55.25,18.4688 Q56.4844,16.7188 58.6094,16.7188 Q59.1094,16.7188 59.6406,16.8594 Q60.0781,17.0469 60.3438,17.0469 Q60.5625,17.0469 60.6563,17 Q60.7656,16.9531 61.2188,16.3594 L61.9844,20.0938 L61.0938,20.3594 Q60.6406,18.9063 60.0313,18.3125 Q59.4375,17.7031 58.4844,17.7031 Q57.2656,17.7031 56.5469,19.1406 Q55.8281,20.5625 55.8281,22.75 Q55.8281,25.1563 56.4375,26.4531 Q57.0625,27.7344 58.4219,27.7344 Q59.375,27.7344 60.0625,27.0469 Q60.75,26.3438 61.0781,24.8438 L61.9844,25.25 Q61.5781,26.9531 60.6094,27.9063 Q59.6563,28.8594 58.3438,28.8594 Z " fill="#000000"/><text fill="#000000" font-family="sans-serif" font-size="14" lengthAdjust="spacing" textLength="38" x="73" y="29.4839">Game</text><line style="stroke:#181818;stroke-width:0.5;" x1="45" x2="113" y1="39" y2="39"/><line style="stroke:#181818;stroke-width:0.5;" x1="45" x2="113" y1="47" y2="47"/></g><!--class VideoGame--><g id="elem_VideoGame"><rect fill="#F1F1F1" height="48" id="VideoGame" rx="2.5" ry="2.5" style="stroke:#181818;stroke-width:0.5;" width="106" x="26" y="134"/><ellipse cx="41" cy="150" fill="#ADD1B2" rx="11" ry="11" style="stroke:#181818;stroke-width:1.0;"/><path d="M40.3438,155.8594 Q38.3594,155.8594 37.1875,154.3906 Q36.0313,152.9063 36.0313,149.8281 Q36.0313,147.2188 37.25,145.4688 Q38.4844,143.7188 40.6094,143.7188 Q41.1094,143.7188 41.6406,143.8594 Q42.0781,144.0469 42.3438,144.0469 Q42.5625,144.0469 42.6563,144 Q42.7656,143.9531 43.2188,143.3594 L43.9844,147.0938 L43.0938,147.3594 Q42.6406,145.9063 42.0313,145.3125 Q41.4375,144.7031 40.4844,144.7031 Q39.2656,144.7031 38.5469,146.1406 Q37.8281,147.5625 37.8281,149.75 Q37.8281,152.1563 38.4375,153.4531 Q39.0625,154.7344 40.4219,154.7344 Q41.375,154.7344 42.0625,154.0469 Q42.75,153.3438 43.0781,151.8438 L43.9844,152.25 Q43.5781,153.9531 42.6094,154.9063 Q41.6563,155.8594 40.3438,155.8594 Z " fill="#000000"/><text fill="#000000" font-family="sans-serif" font-size="14" lengthAdjust="spacing" textLength="74" x="55" y="156.4839">VideoGame</text><line style="stroke:#181818;stroke-width:0.5;" x1="27" x2="131" y1="166" y2="166"/><line style="stroke:#181818;stroke-width:0.5;" x1="27" x2="131" y1="174" y2="174"/></g><!--class MarioKart8Deluxe--><g id="elem_MarioKart8Deluxe"><rect fill="#F1F1F1" height="48" id="MarioKart8Deluxe" rx="2.5" ry="2.5" style="stroke:#181818;stroke-width:0.5;" width="144" x="7" y="261"/><ellipse cx="22" cy="277" fill="#ADD1B2" rx="11" ry="11" style="stroke:#181818;stroke-width:1.0;"/><path d="M21.3438,282.8594 Q19.3594,282.8594 18.1875,281.3906 Q17.0313,279.9063 17.0313,276.8281 Q17.0313,274.2188 18.25,272.4688 Q19.4844,270.7188 21.6094,270.7188 Q22.1094,270.7188 22.6406,270.8594 Q23.0781,271.0469 23.3438,271.0469 Q23.5625,271.0469 23.6563,271 Q23.7656,270.9531 24.2188,270.3594 L24.9844,274.0938 L24.0938,274.3594 Q23.6406,272.9063 23.0313,272.3125 Q22.4375,271.7031 21.4844,271.7031 Q20.2656,271.7031 19.5469,273.1406 Q18.8281,274.5625 18.8281,276.75 Q18.8281,279.1563 19.4375,280.4531 Q20.0625,281.7344 21.4219,281.7344 Q22.375,281.7344 23.0625,281.0469 Q23.75,280.3438 24.0781,278.8438 L24.9844,279.25 Q24.5781,280.9531 23.6094,281.9063 Q22.6563,282.8594 21.3438,282.8594 Z " fill="#000000"/><text fill="#000000" font-family="sans-serif" font-size="14" lengthAdjust="spacing" textLength="112" x="36" y="283.4839">MarioKart8Deluxe</text><line style="stroke:#181818;stroke-width:0.5;" x1="8" x2="150" y1="293" y2="293"/><line style="stroke:#181818;stroke-width:0.5;" x1="8" x2="150" y1="301" y2="301"/></g><!--reverse link Game to VideoGame--><g id="link_Game_VideoGame"><path codeLine="1" d="M79,73.22 C79,95.67 79,111.5 79,133.91 " fill="none" id="Game-backto-VideoGame" style="stroke:#181818;stroke-width:1.0;"/><polygon fill="none" points="79,55.22,73,73.22,85,73.22,79,55.22" style="stroke:#181818;stroke-width:1.0;"/><text fill="#000000" font-family="sans-serif" font-size="13" lengthAdjust="spacing" textLength="42" x="80" y="100.8979">inherits</text></g><!--reverse link VideoGame to MarioKart8Deluxe--><g id="link_VideoGame_MarioKart8Deluxe"><path codeLine="2" d="M79,200.22 C79,222.67 79,238.5 79,260.91 " fill="none" id="VideoGame-backto-MarioKart8Deluxe" style="stroke:#181818;stroke-width:1.0;"/><polygon fill="none" points="79,182.22,73,200.22,85,200.22,79,182.22" style="stroke:#181818;stroke-width:1.0;"/><text fill="#000000" font-family="sans-serif" font-size="13" lengthAdjust="spacing" textLength="42" x="80" y="227.8979">inherits</text></g><!--SRC=[Sq_CJLMmgT7LLGZBJ4dDTmTnhHGoyp9IYp9BYhaGWc0rleb5cVdUYKKb5YwfEQKLo4e1]--></g></svg>