<?xml version="1.0" encoding="us-ascii" standalone="no"?><svg xmlns="http://www.w3.org/2000/svg" xmlns:xlink="http://www.w3.org/1999/xlink" contentStyleType="text/css" height="316px" preserveAspectRatio="none" style="width:125px;height:316px;background:#FFFFFF;" version="1.1" viewBox="0 0 125 316" width="125px" zoomAndPan="magnify"><defs/><g><!--class TVSeries--><g id="elem_TVSeries"><rect fill="#F1F1F1" height="48" id="TVSeries" rx="2.5" ry="2.5" style="stroke:#181818;stroke-width:0.5;" width="90" x="17.5" y="7"/><ellipse cx="32.5" cy="23" fill="#ADD1B2" rx="11" ry="11" style="stroke:#181818;stroke-width:1.0;"/><path d="M31.8438,28.8594 Q29.8594,28.8594 28.6875,27.3906 Q27.5313,25.9063 27.5313,22.8281 Q27.5313,20.2188 28.75,18.4688 Q29.9844,16.7188 32.1094,16.7188 Q32.6094,16.7188 33.1406,16.8594 Q33.5781,17.0469 33.8438,17.0469 Q34.0625,17.0469 34.1563,17 Q34.2656,16.9531 34.7188,16.3594 L35.4844,20.0938 L34.5938,20.3594 Q34.1406,18.9063 33.5313,18.3125 Q32.9375,17.7031 31.9844,17.7031 Q30.7656,17.7031 30.0469,19.1406 Q29.3281,20.5625 29.3281,22.75 Q29.3281,25.1563 29.9375,26.4531 Q30.5625,27.7344 31.9219,27.7344 Q32.875,27.7344 33.5625,27.0469 Q34.25,26.3438 34.5781,24.8438 L35.4844,25.25 Q35.0781,26.9531 34.1094,27.9063 Q33.1563,28.8594 31.8438,28.8594 Z " fill="#000000"/><text fill="#000000" font-family="sans-serif" font-size="14" lengthAdjust="spacing" textLength="58" x="46.5" y="29.4839">TVSeries</text><line style="stroke:#181818;stroke-width:0.5;" x1="18.5" x2="106.5" y1="39" y2="39"/><line style="stroke:#181818;stroke-width:0.5;" x1="18.5" x2="106.5" y1="47" y2="47"/></g><!--class AnimeSeries--><g id="elem_AnimeSeries"><rect fill="#F1F1F1" height="48" id="AnimeSeries" rx="2.5" ry="2.5" style="stroke:#181818;stroke-width:0.5;" width="111" x="7" y="134"/><ellipse cx="22" cy="150" fill="#ADD1B2" rx="11" ry="11" style="stroke:#181818;stroke-width:1.0;"/><path d="M21.3438,155.8594 Q19.3594,155.8594 18.1875,154.3906 Q17.0313,152.9063 17.0313,149.8281 Q17.0313,147.2188 18.25,145.4688 Q19.4844,143.7188 21.6094,143.7188 Q22.1094,143.7188 22.6406,143.8594 Q23.0781,144.0469 23.3438,144.0469 Q23.5625,144.0469 23.6563,144 Q23.7656,143.9531 24.2188,143.3594 L24.9844,147.0938 L24.0938,147.3594 Q23.6406,145.9063 23.0313,145.3125 Q22.4375,144.7031 21.4844,144.7031 Q20.2656,144.7031 19.5469,146.1406 Q18.8281,147.5625 18.8281,149.75 Q18.8281,152.1563 19.4375,153.4531 Q20.0625,154.7344 21.4219,154.7344 Q22.375,154.7344 23.0625,154.0469 Q23.75,153.3438 24.0781,151.8438 L24.9844,152.25 Q24.5781,153.9531 23.6094,154.9063 Q22.6563,155.8594 21.3438,155.8594 Z " fill="#000000"/><text fill="#000000" font-family="sans-serif" font-size="14" lengthAdjust="spacing" textLength="79" x="36" y="156.4839">AnimeSeries</text><line style="stroke:#181818;stroke-width:0.5;" x1="8" x2="117" y1="166" y2="166"/><line style="stroke:#181818;stroke-width:0.5;" x1="8" x2="117" y1="174" y2="174"/></g><!--class SteinsGate--><g id="elem_SteinsGate"><rect fill="#F1F1F1" height="48" id="SteinsGate" rx="2.5" ry="2.5" style="stroke:#181818;stroke-width:0.5;" width="102" x="11.5" y="261"/><ellipse cx="26.5" cy="277" fill="#ADD1B2" rx="11" ry="11" style="stroke:#181818;stroke-width:1.0;"/><path d="M25.8438,282.8594 Q23.8594,282.8594 22.6875,281.3906 Q21.5313,279.9063 21.5313,276.8281 Q21.5313,274.2188 22.75,272.4688 Q23.9844,270.7188 26.1094,270.7188 Q26.6094,270.7188 27.1406,270.8594 Q27.5781,271.0469 27.8438,271.0469 Q28.0625,271.0469 28.1563,271 Q28.2656,270.9531 28.7188,270.3594 L29.4844,274.0938 L28.5938,274.3594 Q28.1406,272.9063 27.5313,272.3125 Q26.9375,271.7031 25.9844,271.7031 Q24.7656,271.7031 24.0469,273.1406 Q23.3281,274.5625 23.3281,276.75 Q23.3281,279.1563 23.9375,280.4531 Q24.5625,281.7344 25.9219,281.7344 Q26.875,281.7344 27.5625,281.0469 Q28.25,280.3438 28.5781,278.8438 L29.4844,279.25 Q29.0781,280.9531 28.1094,281.9063 Q27.1563,282.8594 25.8438,282.8594 Z " fill="#000000"/><text fill="#000000" font-family="sans-serif" font-size="14" lengthAdjust="spacing" textLength="70" x="40.5" y="283.4839">SteinsGate</text><line style="stroke:#181818;stroke-width:0.5;" x1="12.5" x2="112.5" y1="293" y2="293"/><line style="stroke:#181818;stroke-width:0.5;" x1="12.5" x2="112.5" y1="301" y2="301"/></g><!--reverse link TVSeries to AnimeSeries--><g id="link_TVSeries_AnimeSeries"><path codeLine="1" d="M62.5,73.22 C62.5,95.67 62.5,111.5 62.5,133.91 " fill="none" id="TVSeries-backto-AnimeSeries" style="stroke:#181818;stroke-width:1.0;"/><polygon fill="none" points="62.5,55.22,56.5,73.22,68.5,73.22,62.5,55.22" style="stroke:#181818;stroke-width:1.0;"/><text fill="#000000" font-family="sans-serif" font-size="13" lengthAdjust="spacing" textLength="42" x="63.5" y="100.8979">inherits</text></g><!--reverse link AnimeSeries to SteinsGate--><g id="link_AnimeSeries_SteinsGate"><path codeLine="2" d="M62.5,200.22 C62.5,222.67 62.5,238.5 62.5,260.91 " fill="none" id="AnimeSeries-backto-SteinsGate" style="stroke:#181818;stroke-width:1.0;"/><polygon fill="none" points="62.5,182.22,56.5,200.22,68.5,200.22,62.5,182.22" style="stroke:#181818;stroke-width:1.0;"/><text fill="#000000" font-family="sans-serif" font-size="13" lengthAdjust="spacing" textLength="42" x="63.5" y="227.8979">inherits</text></g><!--SRC=[2maBJYtAJ2rMiAdHrLLmpClCJOKAM2bavcK0cIN5NCZ2O7N19QcPUSNkYIMfICe0]--></g></svg>