<?xml version="1.0" encoding="us-ascii" standalone="no"?><svg xmlns="http://www.w3.org/2000/svg" xmlns:xlink="http://www.w3.org/1999/xlink" contentStyleType="text/css" height="316px" preserveAspectRatio="none" style="width:206px;height:316px;background:#FFFFFF;" version="1.1" viewBox="0 0 206 316" width="206px" zoomAndPan="magnify"><defs/><g><!--class Comic--><g id="elem_Comic"><rect fill="#F1F1F1" height="48" id="Comic" rx="2.5" ry="2.5" style="stroke:#181818;stroke-width:0.5;" width="71" x="67.5" y="7"/><ellipse cx="82.5" cy="23" fill="#ADD1B2" rx="11" ry="11" style="stroke:#181818;stroke-width:1.0;"/><path d="M81.8438,28.8594 Q79.8594,28.8594 78.6875,27.3906 Q77.5313,25.9063 77.5313,22.8281 Q77.5313,20.2188 78.75,18.4688 Q79.9844,16.7188 82.1094,16.7188 Q82.6094,16.7188 83.1406,16.8594 Q83.5781,17.0469 83.8438,17.0469 Q84.0625,17.0469 84.1563,17 Q84.2656,16.9531 84.7188,16.3594 L85.4844,20.0938 L84.5938,20.3594 Q84.1406,18.9063 83.5313,18.3125 Q82.9375,17.7031 81.9844,17.7031 Q80.7656,17.7031 80.0469,19.1406 Q79.3281,20.5625 79.3281,22.75 Q79.3281,25.1563 79.9375,26.4531 Q80.5625,27.7344 81.9219,27.7344 Q82.875,27.7344 83.5625,27.0469 Q84.25,26.3438 84.5781,24.8438 L85.4844,25.25 Q85.0781,26.9531 84.1094,27.9063 Q83.1563,28.8594 81.8438,28.8594 Z " fill="#000000"/><text fill="#000000" font-family="sans-serif" font-size="14" lengthAdjust="spacing" textLength="39" x="96.5" y="29.4839">Comic</text><line style="stroke:#181818;stroke-width:0.5;" x1="68.5" x2="137.5" y1="39" y2="39"/><line style="stroke:#181818;stroke-width:0.5;" x1="68.5" x2="137.5" y1="47" y2="47"/></g><!--class Manga--><g id="elem_Manga"><rect fill="#F1F1F1" height="48" id="Manga" rx="2.5" ry="2.5" style="stroke:#181818;stroke-width:0.5;" width="75" x="65.5" y="134"/><ellipse cx="80.5" cy="150" fill="#ADD1B2" rx="11" ry="11" style="stroke:#181818;stroke-width:1.0;"/><path d="M79.8438,155.8594 Q77.8594,155.8594 76.6875,154.3906 Q75.5313,152.9063 75.5313,149.8281 Q75.5313,147.2188 76.75,145.4688 Q77.9844,143.7188 80.1094,143.7188 Q80.6094,143.7188 81.1406,143.8594 Q81.5781,144.0469 81.8438,144.0469 Q82.0625,144.0469 82.1563,144 Q82.2656,143.9531 82.7188,143.3594 L83.4844,147.0938 L82.5938,147.3594 Q82.1406,145.9063 81.5313,145.3125 Q80.9375,144.7031 79.9844,144.7031 Q78.7656,144.7031 78.0469,146.1406 Q77.3281,147.5625 77.3281,149.75 Q77.3281,152.1563 77.9375,153.4531 Q78.5625,154.7344 79.9219,154.7344 Q80.875,154.7344 81.5625,154.0469 Q82.25,153.3438 82.5781,151.8438 L83.4844,152.25 Q83.0781,153.9531 82.1094,154.9063 Q81.1563,155.8594 79.8438,155.8594 Z " fill="#000000"/><text fill="#000000" font-family="sans-serif" font-size="14" lengthAdjust="spacing" textLength="43" x="94.5" y="156.4839">Manga</text><line style="stroke:#181818;stroke-width:0.5;" x1="66.5" x2="139.5" y1="166" y2="166"/><line style="stroke:#181818;stroke-width:0.5;" x1="66.5" x2="139.5" y1="174" y2="174"/></g><!--class FullmetalAlchemistManga--><g id="elem_FullmetalAlchemistManga"><rect fill="#F1F1F1" height="48" id="FullmetalAlchemistManga" rx="2.5" ry="2.5" style="stroke:#181818;stroke-width:0.5;" width="192" x="7" y="261"/><ellipse cx="22" cy="277" fill="#ADD1B2" rx="11" ry="11" style="stroke:#181818;stroke-width:1.0;"/><path d="M21.3438,282.8594 Q19.3594,282.8594 18.1875,281.3906 Q17.0313,279.9063 17.0313,276.8281 Q17.0313,274.2188 18.25,272.4688 Q19.4844,270.7188 21.6094,270.7188 Q22.1094,270.7188 22.6406,270.8594 Q23.0781,271.0469 23.3438,271.0469 Q23.5625,271.0469 23.6563,271 Q23.7656,270.9531 24.2188,270.3594 L24.9844,274.0938 L24.0938,274.3594 Q23.6406,272.9063 23.0313,272.3125 Q22.4375,271.7031 21.4844,271.7031 Q20.2656,271.7031 19.5469,273.1406 Q18.8281,274.5625 18.8281,276.75 Q18.8281,279.1563 19.4375,280.4531 Q20.0625,281.7344 21.4219,281.7344 Q22.375,281.7344 23.0625,281.0469 Q23.75,280.3438 24.0781,278.8438 L24.9844,279.25 Q24.5781,280.9531 23.6094,281.9063 Q22.6563,282.8594 21.3438,282.8594 Z " fill="#000000"/><text fill="#000000" font-family="sans-serif" font-size="14" lengthAdjust="spacing" textLength="160" x="36" y="283.4839">FullmetalAlchemistManga</text><line style="stroke:#181818;stroke-width:0.5;" x1="8" x2="198" y1="293" y2="293"/><line style="stroke:#181818;stroke-width:0.5;" x1="8" x2="198" y1="301" y2="301"/></g><!--reverse link Comic to Manga--><g id="link_Comic_Manga"><path codeLine="1" d="M103,73.22 C103,95.67 103,111.5 103,133.91 " fill="none" id="Comic-backto-Manga" style="stroke:#181818;stroke-width:1.0;"/><polygon fill="none" points="103,55.22,97,73.22,109,73.22,103,55.22" style="stroke:#181818;stroke-width:1.0;"/><text fill="#000000" font-family="sans-serif" font-size="13" lengthAdjust="spacing" textLength="42" x="104" y="100.8979">inherits</text></g><!--reverse link Manga to FullmetalAlchemistManga--><g id="link_Manga_FullmetalAlchemistManga"><path codeLine="2" d="M103,200.22 C103,222.67 103,238.5 103,260.91 " fill="none" id="Manga-backto-FullmetalAlchemistManga" style="stroke:#181818;stroke-width:1.0;"/><polygon fill="none" points="103,182.22,97,200.22,109,200.22,103,182.22" style="stroke:#181818;stroke-width:1.0;"/><text fill="#000000" font-family="sans-serif" font-size="13" lengthAdjust="spacing" textLength="42" x="104" y="227.8979">inherits</text></g><!--SRC=[SyxFpKnMiAdHrLNmJSnBJrImKiZCoqWjoYmfve88WENSIdDoSbDB4dCSSv8pKdCpYqlGLGC0]--></g></svg>