<?xml version="1.0" encoding="us-ascii" standalone="no"?><svg xmlns="http://www.w3.org/2000/svg" xmlns:xlink="http://www.w3.org/1999/xlink" contentStyleType="text/css" height="316px" preserveAspectRatio="none" style="width:265px;height:316px;background:#FFFFFF;" version="1.1" viewBox="0 0 265 316" width="265px" zoomAndPan="magnify"><defs/><g><!--class MusicWork--><g id="elem_MusicWork"><rect fill="#F1F1F1" height="48" id="MusicWork" rx="2.5" ry="2.5" style="stroke:#181818;stroke-width:0.5;" width="101" x="82" y="7"/><ellipse cx="97" cy="23" fill="#ADD1B2" rx="11" ry="11" style="stroke:#181818;stroke-width:1.0;"/><path d="M96.3438,28.8594 Q94.3594,28.8594 93.1875,27.3906 Q92.0313,25.9063 92.0313,22.8281 Q92.0313,20.2188 93.25,18.4688 Q94.4844,16.7188 96.6094,16.7188 Q97.1094,16.7188 97.6406,16.8594 Q98.0781,17.0469 98.3438,17.0469 Q98.5625,17.0469 98.6563,17 Q98.7656,16.9531 99.2188,16.3594 L99.9844,20.0938 L99.0938,20.3594 Q98.6406,18.9063 98.0313,18.3125 Q97.4375,17.7031 96.4844,17.7031 Q95.2656,17.7031 94.5469,19.1406 Q93.8281,20.5625 93.8281,22.75 Q93.8281,25.1563 94.4375,26.4531 Q95.0625,27.7344 96.4219,27.7344 Q97.375,27.7344 98.0625,27.0469 Q98.75,26.3438 99.0781,24.8438 L99.9844,25.25 Q99.5781,26.9531 98.6094,27.9063 Q97.6563,28.8594 96.3438,28.8594 Z " fill="#000000"/><text fill="#000000" font-family="sans-serif" font-size="14" lengthAdjust="spacing" textLength="69" x="111" y="29.4839">MusicWork</text><line style="stroke:#181818;stroke-width:0.5;" x1="83" x2="182" y1="39" y2="39"/><line style="stroke:#181818;stroke-width:0.5;" x1="83" x2="182" y1="47" y2="47"/></g><!--class Album--><g id="elem_Album"><rect fill="#F1F1F1" height="48" id="Album" rx="2.5" ry="2.5" style="stroke:#181818;stroke-width:0.5;" width="71" x="97" y="134"/><ellipse cx="112" cy="150" fill="#ADD1B2" rx="11" ry="11" style="stroke:#181818;stroke-width:1.0;"/><path d="M111.3438,155.8594 Q109.3594,155.8594 108.1875,154.3906 Q107.0313,152.9063 107.0313,149.8281 Q107.0313,147.2188 108.25,145.4688 Q109.4844,143.7188 111.6094,143.7188 Q112.1094,143.7188 112.6406,143.8594 Q113.0781,144.0469 113.3438,144.0469 Q113.5625,144.0469 113.6563,144 Q113.7656,143.9531 114.2188,143.3594 L114.9844,147.0938 L114.0938,147.3594 Q113.6406,145.9063 113.0313,145.3125 Q112.4375,144.7031 111.4844,144.7031 Q110.2656,144.7031 109.5469,146.1406 Q108.8281,147.5625 108.8281,149.75 Q108.8281,152.1563 109.4375,153.4531 Q110.0625,154.7344 111.4219,154.7344 Q112.375,154.7344 113.0625,154.0469 Q113.75,153.3438 114.0781,151.8438 L114.9844,152.25 Q114.5781,153.9531 113.6094,154.9063 Q112.6563,155.8594 111.3438,155.8594 Z " fill="#000000"/><text fill="#000000" font-family="sans-serif" font-size="14" lengthAdjust="spacing" textLength="39" x="126" y="156.4839">Album</text><line style="stroke:#181818;stroke-width:0.5;" x1="98" x2="167" y1="166" y2="166"/><line style="stroke:#181818;stroke-width:0.5;" x1="98" x2="167" y1="174" y2="174"/></g><!--class SgtPeppersLonelyHeartsClubBand--><g id="elem_SgtPeppersLonelyHeartsClubBand"><rect fill="#F1F1F1" height="48" id="SgtPeppersLonelyHeartsClubBand" rx="2.5" ry="2.5" style="stroke:#181818;stroke-width:0.5;" width="251" x="7" y="261"/><ellipse cx="22" cy="277" fill="#ADD1B2" rx="11" ry="11" style="stroke:#181818;stroke-width:1.0;"/><path d="M21.3438,282.8594 Q19.3594,282.8594 18.1875,281.3906 Q17.0313,279.9063 17.0313,276.8281 Q17.0313,274.2188 18.25,272.4688 Q19.4844,270.7188 21.6094,270.7188 Q22.1094,270.7188 22.6406,270.8594 Q23.0781,271.0469 23.3438,271.0469 Q23.5625,271.0469 23.6563,271 Q23.7656,270.9531 24.2188,270.3594 L24.9844,274.0938 L24.0938,274.3594 Q23.6406,272.9063 23.0313,272.3125 Q22.4375,271.7031 21.4844,271.7031 Q20.2656,271.7031 19.5469,273.1406 Q18.8281,274.5625 18.8281,276.75 Q18.8281,279.1563 19.4375,280.4531 Q20.0625,281.7344 21.4219,281.7344 Q22.375,281.7344 23.0625,281.0469 Q23.75,280.3438 24.0781,278.8438 L24.9844,279.25 Q24.5781,280.9531 23.6094,281.9063 Q22.6563,282.8594 21.3438,282.8594 Z " fill="#000000"/><text fill="#000000" font-family="sans-serif" font-size="14" lengthAdjust="spacing" textLength="219" x="36" y="283.4839">SgtPeppersLonelyHeartsClubBand</text><line style="stroke:#181818;stroke-width:0.5;" x1="8" x2="257" y1="293" y2="293"/><line style="stroke:#181818;stroke-width:0.5;" x1="8" x2="257" y1="301" y2="301"/></g><!--reverse link MusicWork to Album--><g id="link_MusicWork_Album"><path codeLine="1" d="M132.5,73.22 C132.5,95.67 132.5,111.5 132.5,133.91 " fill="none" id="MusicWork-backto-Album" style="stroke:#181818;stroke-width:1.0;"/><polygon fill="none" points="132.5,55.22,126.5,73.22,138.5,73.22,132.5,55.22" style="stroke:#181818;stroke-width:1.0;"/><text fill="#000000" font-family="sans-serif" font-size="13" lengthAdjust="spacing" textLength="42" x="133.5" y="100.8979">inherits</text></g><!--reverse link Album to SgtPeppersLonelyHeartsClubBand--><g id="link_Album_SgtPeppersLonelyHeartsClubBand"><path codeLine="2" d="M132.5,200.22 C132.5,222.67 132.5,238.5 132.5,260.91 " fill="none" id="Album-backto-SgtPeppersLonelyHeartsClubBand" style="stroke:#181818;stroke-width:1.0;"/><polygon fill="none" points="132.5,182.22,126.5,200.22,138.5,200.22,132.5,182.22" style="stroke:#181818;stroke-width:1.0;"/><text fill="#000000" font-family="sans-serif" font-size="13" lengthAdjust="spacing" textLength="42" x="133.5" y="227.8979">inherits</text></g><!--SRC=[yoqjpamEpo_ALh2fqTLLSCn9AirLi5B8pCj8BSeiAUQ2283bWjDB0b8B2bABYdtoyr9pAZrI4ujAYfrpIfES4lDIa3G10000]--></g></svg>