<?xml version="1.0" encoding="us-ascii" standalone="no"?><svg xmlns="http://www.w3.org/2000/svg" xmlns:xlink="http://www.w3.org/1999/xlink" contentStyleType="text/css" height="316px" preserveAspectRatio="none" style="width:177px;height:316px;background:#FFFFFF;" version="1.1" viewBox="0 0 177 316" width="177px" zoomAndPan="magnify"><defs/><g><!--class Artwork--><g id="elem_Artwork"><rect fill="#F1F1F1" height="48" id="Artwork" rx="2.5" ry="2.5" style="stroke:#181818;stroke-width:0.5;" width="79" x="49" y="7"/><ellipse cx="64" cy="23" fill="#ADD1B2" rx="11" ry="11" style="stroke:#181818;stroke-width:1.0;"/><path d="M63.3438,28.8594 Q61.3594,28.8594 60.1875,27.3906 Q59.0313,25.9063 59.0313,22.8281 Q59.0313,20.2188 60.25,18.4688 Q61.4844,16.7188 63.6094,16.7188 Q64.1094,16.7188 64.6406,16.8594 Q65.0781,17.0469 65.3438,17.0469 Q65.5625,17.0469 65.6563,17 Q65.7656,16.9531 66.2188,16.3594 L66.9844,20.0938 L66.0938,20.3594 Q65.6406,18.9063 65.0313,18.3125 Q64.4375,17.7031 63.4844,17.7031 Q62.2656,17.7031 61.5469,19.1406 Q60.8281,20.5625 60.8281,22.75 Q60.8281,25.1563 61.4375,26.4531 Q62.0625,27.7344 63.4219,27.7344 Q64.375,27.7344 65.0625,27.0469 Q65.75,26.3438 66.0781,24.8438 L66.9844,25.25 Q66.5781,26.9531 65.6094,27.9063 Q64.6563,28.8594 63.3438,28.8594 Z " fill="#000000"/><text fill="#000000" font-family="sans-serif" font-size="14" lengthAdjust="spacing" textLength="47" x="78" y="29.4839">Artwork</text><line style="stroke:#181818;stroke-width:0.5;" x1="50" x2="127" y1="39" y2="39"/><line style="stroke:#181818;stroke-width:0.5;" x1="50" x2="127" y1="47" y2="47"/></g><!--class Sculpture--><g id="elem_Sculpture"><rect fill="#F1F1F1" height="48" id="Sculpture" rx="2.5" ry="2.5" style="stroke:#181818;stroke-width:0.5;" width="92" x="42.5" y="134"/><ellipse cx="57.5" cy="150" fill="#ADD1B2" rx="11" ry="11" style="stroke:#181818;stroke-width:1.0;"/><path d="M56.8438,155.8594 Q54.8594,155.8594 53.6875,154.3906 Q52.5313,152.9063 52.5313,149.8281 Q52.5313,147.2188 53.75,145.4688 Q54.9844,143.7188 57.1094,143.7188 Q57.6094,143.7188 58.1406,143.8594 Q58.5781,144.0469 58.8438,144.0469 Q59.0625,144.0469 59.1563,144 Q59.2656,143.9531 59.7188,143.3594 L60.4844,147.0938 L59.5938,147.3594 Q59.1406,145.9063 58.5313,145.3125 Q57.9375,144.7031 56.9844,144.7031 Q55.7656,144.7031 55.0469,146.1406 Q54.3281,147.5625 54.3281,149.75 Q54.3281,152.1563 54.9375,153.4531 Q55.5625,154.7344 56.9219,154.7344 Q57.875,154.7344 58.5625,154.0469 Q59.25,153.3438 59.5781,151.8438 L60.4844,152.25 Q60.0781,153.9531 59.1094,154.9063 Q58.1563,155.8594 56.8438,155.8594 Z " fill="#000000"/><text fill="#000000" font-family="sans-serif" font-size="14" lengthAdjust="spacing" textLength="60" x="71.5" y="156.4839">Sculpture</text><line style="stroke:#181818;stroke-width:0.5;" x1="43.5" x2="133.5" y1="166" y2="166"/><line style="stroke:#181818;stroke-width:0.5;" x1="43.5" x2="133.5" y1="174" y2="174"/></g><!--class LaocoonAndHisSons--><g id="elem_LaocoonAndHisSons"><rect fill="#F1F1F1" height="48" id="LaocoonAndHisSons" rx="2.5" ry="2.5" style="stroke:#181818;stroke-width:0.5;" width="163" x="7" y="261"/><ellipse cx="22" cy="277" fill="#ADD1B2" rx="11" ry="11" style="stroke:#181818;stroke-width:1.0;"/><path d="M21.3438,282.8594 Q19.3594,282.8594 18.1875,281.3906 Q17.0313,279.9063 17.0313,276.8281 Q17.0313,274.2188 18.25,272.4688 Q19.4844,270.7188 21.6094,270.7188 Q22.1094,270.7188 22.6406,270.8594 Q23.0781,271.0469 23.3438,271.0469 Q23.5625,271.0469 23.6563,271 Q23.7656,270.9531 24.2188,270.3594 L24.9844,274.0938 L24.0938,274.3594 Q23.6406,272.9063 23.0313,272.3125 Q22.4375,271.7031 21.4844,271.7031 Q20.2656,271.7031 19.5469,273.1406 Q18.8281,274.5625 18.8281,276.75 Q18.8281,279.1563 19.4375,280.4531 Q20.0625,281.7344 21.4219,281.7344 Q22.375,281.7344 23.0625,281.0469 Q23.75,280.3438 24.0781,278.8438 L24.9844,279.25 Q24.5781,280.9531 23.6094,281.9063 Q22.6563,282.8594 21.3438,282.8594 Z " fill="#000000"/><text fill="#000000" font-family="sans-serif" font-size="14" lengthAdjust="spacing" textLength="131" x="36" y="283.4839">LaocoonAndHisSons</text><line style="stroke:#181818;stroke-width:0.5;" x1="8" x2="169" y1="293" y2="293"/><line style="stroke:#181818;stroke-width:0.5;" x1="8" x2="169" y1="301" y2="301"/></g><!--reverse link Artwork to Sculpture--><g id="link_Artwork_Sculpture"><path codeLine="1" d="M88.5,73.22 C88.5,95.67 88.5,111.5 88.5,133.91 " fill="none" id="Artwork-backto-Sculpture" style="stroke:#181818;stroke-width:1.0;"/><polygon fill="none" points="88.5,55.22,82.5,73.22,94.5,73.22,88.5,55.22" style="stroke:#181818;stroke-width:1.0;"/><text fill="#000000" font-family="sans-serif" font-size="13" lengthAdjust="spacing" textLength="42" x="89.5" y="100.8979">inherits</text></g><!--reverse link Sculpture to LaocoonAndHisSons--><g id="link_Sculpture_LaocoonAndHisSons"><path codeLine="2" d="M88.5,200.22 C88.5,222.67 88.5,238.5 88.5,260.91 " fill="none" id="Sculpture-backto-LaocoonAndHisSons" style="stroke:#181818;stroke-width:1.0;"/><polygon fill="none" points="88.5,182.22,82.5,200.22,94.5,200.22,88.5,182.22" style="stroke:#181818;stroke-width:1.0;"/><text fill="#000000" font-family="sans-serif" font-size="13" lengthAdjust="spacing" textLength="42" x="89.5" y="227.8979">inherits</text></g><!--SRC=[SomgASylobQmgT7LLGXEBiqfA2ajIbMmKiZCoqWjoYmfva88WjNu9EOdv-VdEUQbU6GM1-Vd5IEf1G00]--></g></svg>