<?xml version="1.0" encoding="us-ascii" standalone="no"?><svg xmlns="http://www.w3.org/2000/svg" xmlns:xlink="http://www.w3.org/1999/xlink" contentStyleType="text/css" height="316px" preserveAspectRatio="none" style="width:156px;height:316px;background:#FFFFFF;" version="1.1" viewBox="0 0 156 316" width="156px" zoomAndPan="magnify"><defs/><g><!--class InductionCooktop--><g id="elem_InductionCooktop"><rect fill="#F1F1F1" height="48" id="InductionCooktop" rx="2.5" ry="2.5" style="stroke:#181818;stroke-width:0.5;" width="142" x="7" y="134"/><ellipse cx="22" cy="150" fill="#ADD1B2" rx="11" ry="11" style="stroke:#181818;stroke-width:1.0;"/><path d="M21.3438,155.8594 Q19.3594,155.8594 18.1875,154.3906 Q17.0313,152.9063 17.0313,149.8281 Q17.0313,147.2188 18.25,145.4688 Q19.4844,143.7188 21.6094,143.7188 Q22.1094,143.7188 22.6406,143.8594 Q23.0781,144.0469 23.3438,144.0469 Q23.5625,144.0469 23.6563,144 Q23.7656,143.9531 24.2188,143.3594 L24.9844,147.0938 L24.0938,147.3594 Q23.6406,145.9063 23.0313,145.3125 Q22.4375,144.7031 21.4844,144.7031 Q20.2656,144.7031 19.5469,146.1406 Q18.8281,147.5625 18.8281,149.75 Q18.8281,152.1563 19.4375,153.4531 Q20.0625,154.7344 21.4219,154.7344 Q22.375,154.7344 23.0625,154.0469 Q23.75,153.3438 24.0781,151.8438 L24.9844,152.25 Q24.5781,153.9531 23.6094,154.9063 Q22.6563,155.8594 21.3438,155.8594 Z " fill="#000000"/><text fill="#000000" font-family="sans-serif" font-size="14" lengthAdjust="spacing" textLength="110" x="36" y="156.4839">InductionCooktop</text><line style="stroke:#181818;stroke-width:0.5;" x1="8" x2="148" y1="166" y2="166"/><line style="stroke:#181818;stroke-width:0.5;" x1="8" x2="148" y1="174" y2="174"/></g><!--class Frying--><g id="elem_Frying"><rect fill="#F1F1F1" height="48" id="Frying" rx="2.5" ry="2.5" style="stroke:#181818;stroke-width:0.5;" width="72" x="42" y="261"/><ellipse cx="57" cy="277" fill="#ADD1B2" rx="11" ry="11" style="stroke:#181818;stroke-width:1.0;"/><path d="M56.3438,282.8594 Q54.3594,282.8594 53.1875,281.3906 Q52.0313,279.9063 52.0313,276.8281 Q52.0313,274.2188 53.25,272.4688 Q54.4844,270.7188 56.6094,270.7188 Q57.1094,270.7188 57.6406,270.8594 Q58.0781,271.0469 58.3438,271.0469 Q58.5625,271.0469 58.6563,271 Q58.7656,270.9531 59.2188,270.3594 L59.9844,274.0938 L59.0938,274.3594 Q58.6406,272.9063 58.0313,272.3125 Q57.4375,271.7031 56.4844,271.7031 Q55.2656,271.7031 54.5469,273.1406 Q53.8281,274.5625 53.8281,276.75 Q53.8281,279.1563 54.4375,280.4531 Q55.0625,281.7344 56.4219,281.7344 Q57.375,281.7344 58.0625,281.0469 Q58.75,280.3438 59.0781,278.8438 L59.9844,279.25 Q59.5781,280.9531 58.6094,281.9063 Q57.6563,282.8594 56.3438,282.8594 Z " fill="#000000"/><text fill="#000000" font-family="sans-serif" font-size="14" lengthAdjust="spacing" textLength="40" x="71" y="283.4839">Frying</text><line style="stroke:#181818;stroke-width:0.5;" x1="43" x2="113" y1="293" y2="293"/><line style="stroke:#181818;stroke-width:0.5;" x1="43" x2="113" y1="301" y2="301"/></g><!--class Electricity--><g id="elem_Electricity"><rect fill="#F1F1F1" height="48" id="Electricity" rx="2.5" ry="2.5" style="stroke:#181818;stroke-width:0.5;" width="92" x="32" y="7"/><ellipse cx="47" cy="23" fill="#ADD1B2" rx="11" ry="11" style="stroke:#181818;stroke-width:1.0;"/><path d="M46.3438,28.8594 Q44.3594,28.8594 43.1875,27.3906 Q42.0313,25.9063 42.0313,22.8281 Q42.0313,20.2188 43.25,18.4688 Q44.4844,16.7188 46.6094,16.7188 Q47.1094,16.7188 47.6406,16.8594 Q48.0781,17.0469 48.3438,17.0469 Q48.5625,17.0469 48.6563,17 Q48.7656,16.9531 49.2188,16.3594 L49.9844,20.0938 L49.0938,20.3594 Q48.6406,18.9063 48.0313,18.3125 Q47.4375,17.7031 46.4844,17.7031 Q45.2656,17.7031 44.5469,19.1406 Q43.8281,20.5625 43.8281,22.75 Q43.8281,25.1563 44.4375,26.4531 Q45.0625,27.7344 46.4219,27.7344 Q47.375,27.7344 48.0625,27.0469 Q48.75,26.3438 49.0781,24.8438 L49.9844,25.25 Q49.5781,26.9531 48.6094,27.9063 Q47.6563,28.8594 46.3438,28.8594 Z " fill="#000000"/><text fill="#000000" font-family="sans-serif" font-size="14" lengthAdjust="spacing" textLength="60" x="61" y="29.4839">Electricity</text><line style="stroke:#181818;stroke-width:0.5;" x1="33" x2="123" y1="39" y2="39"/><line style="stroke:#181818;stroke-width:0.5;" x1="33" x2="123" y1="47" y2="47"/></g><!--link InductionCooktop to Frying--><g id="link_InductionCooktop_Frying"><path codeLine="1" d="M78,182.22 C78,204.67 78,232.5 78,254.91 " fill="none" id="InductionCooktop-to-Frying" style="stroke:#181818;stroke-width:1.0;stroke-dasharray:7.0,7.0;"/><polygon fill="#181818" points="78,260.91,82,251.91,78,255.91,74,251.91,78,260.91" style="stroke:#181818;stroke-width:1.0;"/><text fill="#000000" font-family="sans-serif" font-size="13" lengthAdjust="spacing" textLength="67" x="79" y="227.8979">depends on</text></g><!--link Electricity to InductionCooktop--><g id="link_Electricity_InductionCooktop"><path codeLine="2" d="M78,55.22 C78,77.67 78,105.5 78,127.91 " fill="none" id="Electricity-to-InductionCooktop" style="stroke:#181818;stroke-width:1.0;stroke-dasharray:7.0,7.0;"/><polygon fill="#181818" points="78,133.91,82,124.91,78,128.91,74,124.91,78,133.91" style="stroke:#181818;stroke-width:1.0;"/><text fill="#000000" font-family="sans-serif" font-size="13" lengthAdjust="spacing" textLength="67" x="79" y="100.8979">depends on</text></g><!--SRC=[yynBAKqkoSpFSyxFpox9Br3GqxDJS2kgpCnBLx1II4ajICrBALR8p-DopKbDBYdAJCuigGIhyKJNYAmQ0000]--></g></svg>