<?xml version="1.0" encoding="us-ascii" standalone="no"?><svg xmlns="http://www.w3.org/2000/svg" xmlns:xlink="http://www.w3.org/1999/xlink" contentStyleType="text/css" height="316px" preserveAspectRatio="none" style="width:139px;height:316px;background:#FFFFFF;" version="1.1" viewBox="0 0 139 316" width="139px" zoomAndPan="magnify"><defs/><g><!--class BrakeCaliper--><g id="elem_BrakeCaliper"><rect fill="#F1F1F1" height="48" id="BrakeCaliper" rx="2.5" ry="2.5" style="stroke:#181818;stroke-width:0.5;" width="114" x="12.5" y="134"/><ellipse cx="27.5" cy="150" fill="#ADD1B2" rx="11" ry="11" style="stroke:#181818;stroke-width:1.0;"/><path d="M26.8438,155.8594 Q24.8594,155.8594 23.6875,154.3906 Q22.5313,152.9063 22.5313,149.8281 Q22.5313,147.2188 23.75,145.4688 Q24.9844,143.7188 27.1094,143.7188 Q27.6094,143.7188 28.1406,143.8594 Q28.5781,144.0469 28.8438,144.0469 Q29.0625,144.0469 29.1563,144 Q29.2656,143.9531 29.7188,143.3594 L30.4844,147.0938 L29.5938,147.3594 Q29.1406,145.9063 28.5313,145.3125 Q27.9375,144.7031 26.9844,144.7031 Q25.7656,144.7031 25.0469,146.1406 Q24.3281,147.5625 24.3281,149.75 Q24.3281,152.1563 24.9375,153.4531 Q25.5625,154.7344 26.9219,154.7344 Q27.875,154.7344 28.5625,154.0469 Q29.25,153.3438 29.5781,151.8438 L30.4844,152.25 Q30.0781,153.9531 29.1094,154.9063 Q28.1563,155.8594 26.8438,155.8594 Z " fill="#000000"/><text fill="#000000" font-family="sans-serif" font-size="14" lengthAdjust="spacing" textLength="82" x="41.5" y="156.4839">BrakeCaliper</text><line style="stroke:#181818;stroke-width:0.5;" x1="13.5" x2="125.5" y1="166" y2="166"/><line style="stroke:#181818;stroke-width:0.5;" x1="13.5" x2="125.5" y1="174" y2="174"/></g><!--class Car--><g id="elem_Car"><rect fill="#F1F1F1" height="48" id="Car" rx="2.5" ry="2.5" style="stroke:#181818;stroke-width:0.5;" width="55" x="42" y="261"/><ellipse cx="57" cy="277" fill="#ADD1B2" rx="11" ry="11" style="stroke:#181818;stroke-width:1.0;"/><path d="M56.3438,282.8594 Q54.3594,282.8594 53.1875,281.3906 Q52.0313,279.9063 52.0313,276.8281 Q52.0313,274.2188 53.25,272.4688 Q54.4844,270.7188 56.6094,270.7188 Q57.1094,270.7188 57.6406,270.8594 Q58.0781,271.0469 58.3438,271.0469 Q58.5625,271.0469 58.6563,271 Q58.7656,270.9531 59.2188,270.3594 L59.9844,274.0938 L59.0938,274.3594 Q58.6406,272.9063 58.0313,272.3125 Q57.4375,271.7031 56.4844,271.7031 Q55.2656,271.7031 54.5469,273.1406 Q53.8281,274.5625 53.8281,276.75 Q53.8281,279.1563 54.4375,280.4531 Q55.0625,281.7344 56.4219,281.7344 Q57.375,281.7344 58.0625,281.0469 Q58.75,280.3438 59.0781,278.8438 L59.9844,279.25 Q59.5781,280.9531 58.6094,281.9063 Q57.6563,282.8594 56.3438,282.8594 Z " fill="#000000"/><text fill="#000000" font-family="sans-serif" font-size="14" lengthAdjust="spacing" textLength="23" x="71" y="283.4839">Car</text><line style="stroke:#181818;stroke-width:0.5;" x1="43" x2="96" y1="293" y2="293"/><line style="stroke:#181818;stroke-width:0.5;" x1="43" x2="96" y1="301" y2="301"/></g><!--class CaliperBracket--><g id="elem_CaliperBracket"><rect fill="#F1F1F1" height="48" id="CaliperBracket" rx="2.5" ry="2.5" style="stroke:#181818;stroke-width:0.5;" width="125" x="7" y="7"/><ellipse cx="22" cy="23" fill="#ADD1B2" rx="11" ry="11" style="stroke:#181818;stroke-width:1.0;"/><path d="M21.3438,28.8594 Q19.3594,28.8594 18.1875,27.3906 Q17.0313,25.9063 17.0313,22.8281 Q17.0313,20.2188 18.25,18.4688 Q19.4844,16.7188 21.6094,16.7188 Q22.1094,16.7188 22.6406,16.8594 Q23.0781,17.0469 23.3438,17.0469 Q23.5625,17.0469 23.6563,17 Q23.7656,16.9531 24.2188,16.3594 L24.9844,20.0938 L24.0938,20.3594 Q23.6406,18.9063 23.0313,18.3125 Q22.4375,17.7031 21.4844,17.7031 Q20.2656,17.7031 19.5469,19.1406 Q18.8281,20.5625 18.8281,22.75 Q18.8281,25.1563 19.4375,26.4531 Q20.0625,27.7344 21.4219,27.7344 Q22.375,27.7344 23.0625,27.0469 Q23.75,26.3438 24.0781,24.8438 L24.9844,25.25 Q24.5781,26.9531 23.6094,27.9063 Q22.6563,28.8594 21.3438,28.8594 Z " fill="#000000"/><text fill="#000000" font-family="sans-serif" font-size="14" lengthAdjust="spacing" textLength="93" x="36" y="29.4839">CaliperBracket</text><line style="stroke:#181818;stroke-width:0.5;" x1="8" x2="131" y1="39" y2="39"/><line style="stroke:#181818;stroke-width:0.5;" x1="8" x2="131" y1="47" y2="47"/></g><!--reverse link BrakeCaliper to Car--><g id="link_BrakeCaliper_Car"><path codeLine="1" d="M69.5,194.22 C69.5,216.67 69.5,238.5 69.5,260.91 " fill="none" id="BrakeCaliper-backto-Car" style="stroke:#181818;stroke-width:1.0;"/><polygon fill="#181818" points="69.5,182.22,65.5,188.22,69.5,194.22,73.5,188.22,69.5,182.22" style="stroke:#181818;stroke-width:1.0;"/><text fill="#000000" font-family="sans-serif" font-size="13" lengthAdjust="spacing" textLength="60" x="70.5" y="227.8979">composes</text></g><!--reverse link CaliperBracket to BrakeCaliper--><g id="link_CaliperBracket_BrakeCaliper"><path codeLine="2" d="M69.5,67.22 C69.5,89.67 69.5,111.5 69.5,133.91 " fill="none" id="CaliperBracket-backto-BrakeCaliper" style="stroke:#181818;stroke-width:1.0;"/><polygon fill="#181818" points="69.5,55.22,65.5,61.22,69.5,67.22,73.5,61.22,69.5,55.22" style="stroke:#181818;stroke-width:1.0;"/><text fill="#000000" font-family="sans-serif" font-size="13" lengthAdjust="spacing" textLength="60" x="70.5" y="100.8979">composes</text></g><!--SRC=[SofAp4vrJip9B4WjKj3IrLLmJYnIi598piyjo2zEBUQ2IZaL9IPdfvQ0LJWXQq4e1G00]--></g></svg>