<?xml version="1.0" encoding="us-ascii" standalone="no"?><svg xmlns="http://www.w3.org/2000/svg" xmlns:xlink="http://www.w3.org/1999/xlink" contentStyleType="text/css" height="316px" preserveAspectRatio="none" style="width:115px;height:316px;background:#FFFFFF;" version="1.1" viewBox="0 0 115 316" width="115px" zoomAndPan="magnify"><defs/><g><!--class Wing--><g id="elem_Wing"><rect fill="#F1F1F1" height="48" id="Wing" rx="2.5" ry="2.5" style="stroke:#181818;stroke-width:0.5;" width="64" x="14.5" y="134"/><ellipse cx="29.5" cy="150" fill="#ADD1B2" rx="11" ry="11" style="stroke:#181818;stroke-width:1.0;"/><path d="M28.8438,155.8594 Q26.8594,155.8594 25.6875,154.3906 Q24.5313,152.9063 24.5313,149.8281 Q24.5313,147.2188 25.75,145.4688 Q26.9844,143.7188 29.1094,143.7188 Q29.6094,143.7188 30.1406,143.8594 Q30.5781,144.0469 30.8438,144.0469 Q31.0625,144.0469 31.1563,144 Q31.2656,143.9531 31.7188,143.3594 L32.4844,147.0938 L31.5938,147.3594 Q31.1406,145.9063 30.5313,145.3125 Q29.9375,144.7031 28.9844,144.7031 Q27.7656,144.7031 27.0469,146.1406 Q26.3281,147.5625 26.3281,149.75 Q26.3281,152.1563 26.9375,153.4531 Q27.5625,154.7344 28.9219,154.7344 Q29.875,154.7344 30.5625,154.0469 Q31.25,153.3438 31.5781,151.8438 L32.4844,152.25 Q32.0781,153.9531 31.1094,154.9063 Q30.1563,155.8594 28.8438,155.8594 Z " fill="#000000"/><text fill="#000000" font-family="sans-serif" font-size="14" lengthAdjust="spacing" textLength="32" x="43.5" y="156.4839">Wing</text><line style="stroke:#181818;stroke-width:0.5;" x1="15.5" x2="77.5" y1="166" y2="166"/><line style="stroke:#181818;stroke-width:0.5;" x1="15.5" x2="77.5" y1="174" y2="174"/></g><!--class Glider--><g id="elem_Glider"><rect fill="#F1F1F1" height="48" id="Glider" rx="2.5" ry="2.5" style="stroke:#181818;stroke-width:0.5;" width="70" x="11.5" y="261"/><ellipse cx="26.5" cy="277" fill="#ADD1B2" rx="11" ry="11" style="stroke:#181818;stroke-width:1.0;"/><path d="M25.8438,282.8594 Q23.8594,282.8594 22.6875,281.3906 Q21.5313,279.9063 21.5313,276.8281 Q21.5313,274.2188 22.75,272.4688 Q23.9844,270.7188 26.1094,270.7188 Q26.6094,270.7188 27.1406,270.8594 Q27.5781,271.0469 27.8438,271.0469 Q28.0625,271.0469 28.1563,271 Q28.2656,270.9531 28.7188,270.3594 L29.4844,274.0938 L28.5938,274.3594 Q28.1406,272.9063 27.5313,272.3125 Q26.9375,271.7031 25.9844,271.7031 Q24.7656,271.7031 24.0469,273.1406 Q23.3281,274.5625 23.3281,276.75 Q23.3281,279.1563 23.9375,280.4531 Q24.5625,281.7344 25.9219,281.7344 Q26.875,281.7344 27.5625,281.0469 Q28.25,280.3438 28.5781,278.8438 L29.4844,279.25 Q29.0781,280.9531 28.1094,281.9063 Q27.1563,282.8594 25.8438,282.8594 Z " fill="#000000"/><text fill="#000000" font-family="sans-serif" font-size="14" lengthAdjust="spacing" textLength="38" x="40.5" y="283.4839">Glider</text><line style="stroke:#181818;stroke-width:0.5;" x1="12.5" x2="80.5" y1="293" y2="293"/><line style="stroke:#181818;stroke-width:0.5;" x1="12.5" x2="80.5" y1="301" y2="301"/></g><!--class Winglet--><g id="elem_Winglet"><rect fill="#F1F1F1" height="48" id="Winglet" rx="2.5" ry="2.5" style="stroke:#181818;stroke-width:0.5;" width="79" x="7" y="7"/><ellipse cx="22" cy="23" fill="#ADD1B2" rx="11" ry="11" style="stroke:#181818;stroke-width:1.0;"/><path d="M21.3438,28.8594 Q19.3594,28.8594 18.1875,27.3906 Q17.0313,25.9063 17.0313,22.8281 Q17.0313,20.2188 18.25,18.4688 Q19.4844,16.7188 21.6094,16.7188 Q22.1094,16.7188 22.6406,16.8594 Q23.0781,17.0469 23.3438,17.0469 Q23.5625,17.0469 23.6563,17 Q23.7656,16.9531 24.2188,16.3594 L24.9844,20.0938 L24.0938,20.3594 Q23.6406,18.9063 23.0313,18.3125 Q22.4375,17.7031 21.4844,17.7031 Q20.2656,17.7031 19.5469,19.1406 Q18.8281,20.5625 18.8281,22.75 Q18.8281,25.1563 19.4375,26.4531 Q20.0625,27.7344 21.4219,27.7344 Q22.375,27.7344 23.0625,27.0469 Q23.75,26.3438 24.0781,24.8438 L24.9844,25.25 Q24.5781,26.9531 23.6094,27.9063 Q22.6563,28.8594 21.3438,28.8594 Z " fill="#000000"/><text fill="#000000" font-family="sans-serif" font-size="14" lengthAdjust="spacing" textLength="47" x="36" y="29.4839">Winglet</text><line style="stroke:#181818;stroke-width:0.5;" x1="8" x2="85" y1="39" y2="39"/><line style="stroke:#181818;stroke-width:0.5;" x1="8" x2="85" y1="47" y2="47"/></g><!--reverse link Wing to Glider--><g id="link_Wing_Glider"><path codeLine="1" d="M46.5,194.22 C46.5,216.67 46.5,238.5 46.5,260.91 " fill="none" id="Wing-backto-Glider" style="stroke:#181818;stroke-width:1.0;"/><polygon fill="#181818" points="46.5,182.22,42.5,188.22,46.5,194.22,50.5,188.22,46.5,182.22" style="stroke:#181818;stroke-width:1.0;"/><text fill="#000000" font-family="sans-serif" font-size="13" lengthAdjust="spacing" textLength="60" x="47.5" y="227.8979">composes</text></g><!--reverse link Winglet to Wing--><g id="link_Winglet_Wing"><path codeLine="2" d="M46.5,67.22 C46.5,89.67 46.5,111.5 46.5,133.91 " fill="none" id="Winglet-backto-Wing" style="stroke:#181818;stroke-width:1.0;"/><polygon fill="#181818" points="46.5,55.22,42.5,61.22,46.5,67.22,50.5,61.22,46.5,55.22" style="stroke:#181818;stroke-width:1.0;"/><text fill="#000000" font-family="sans-serif" font-size="13" lengthAdjust="spacing" textLength="60" x="47.5" y="100.8979">composes</text></g><!--SRC=[2y_CIrVGqjLLSC_9J4ajKh1IICxFBSWlJYtc2WTAvQIMW6L1R2Gv0000]--></g></svg>