<?xml version="1.0" encoding="us-ascii" standalone="no"?><svg xmlns="http://www.w3.org/2000/svg" xmlns:xlink="http://www.w3.org/1999/xlink" contentStyleType="text/css" height="316px" preserveAspectRatio="none" style="width:166px;height:316px;background:#FFFFFF;" version="1.1" viewBox="0 0 166 316" width="166px" zoomAndPan="magnify"><defs/><g><!--class InternetConnection--><g id="elem_InternetConnection"><rect fill="#F1F1F1" height="48" id="InternetConnection" rx="2.5" ry="2.5" style="stroke:#181818;stroke-width:0.5;" width="152" x="7" y="134"/><ellipse cx="22" cy="150" fill="#ADD1B2" rx="11" ry="11" style="stroke:#181818;stroke-width:1.0;"/><path d="M21.3438,155.8594 Q19.3594,155.8594 18.1875,154.3906 Q17.0313,152.9063 17.0313,149.8281 Q17.0313,147.2188 18.25,145.4688 Q19.4844,143.7188 21.6094,143.7188 Q22.1094,143.7188 22.6406,143.8594 Q23.0781,144.0469 23.3438,144.0469 Q23.5625,144.0469 23.6563,144 Q23.7656,143.9531 24.2188,143.3594 L24.9844,147.0938 L24.0938,147.3594 Q23.6406,145.9063 23.0313,145.3125 Q22.4375,144.7031 21.4844,144.7031 Q20.2656,144.7031 19.5469,146.1406 Q18.8281,147.5625 18.8281,149.75 Q18.8281,152.1563 19.4375,153.4531 Q20.0625,154.7344 21.4219,154.7344 Q22.375,154.7344 23.0625,154.0469 Q23.75,153.3438 24.0781,151.8438 L24.9844,152.25 Q24.5781,153.9531 23.6094,154.9063 Q22.6563,155.8594 21.3438,155.8594 Z " fill="#000000"/><text fill="#000000" font-family="sans-serif" font-size="14" lengthAdjust="spacing" textLength="120" x="36" y="156.4839">InternetConnection</text><line style="stroke:#181818;stroke-width:0.5;" x1="8" x2="158" y1="166" y2="166"/><line style="stroke:#181818;stroke-width:0.5;" x1="8" x2="158" y1="174" y2="174"/></g><!--class ISP--><g id="elem_ISP"><rect fill="#F1F1F1" height="48" id="ISP" rx="2.5" ry="2.5" style="stroke:#181818;stroke-width:0.5;" width="53" x="56.5" y="261"/><ellipse cx="71.5" cy="277" fill="#ADD1B2" rx="11" ry="11" style="stroke:#181818;stroke-width:1.0;"/><path d="M70.8438,282.8594 Q68.8594,282.8594 67.6875,281.3906 Q66.5313,279.9063 66.5313,276.8281 Q66.5313,274.2188 67.75,272.4688 Q68.9844,270.7188 71.1094,270.7188 Q71.6094,270.7188 72.1406,270.8594 Q72.5781,271.0469 72.8438,271.0469 Q73.0625,271.0469 73.1563,271 Q73.2656,270.9531 73.7188,270.3594 L74.4844,274.0938 L73.5938,274.3594 Q73.1406,272.9063 72.5313,272.3125 Q71.9375,271.7031 70.9844,271.7031 Q69.7656,271.7031 69.0469,273.1406 Q68.3281,274.5625 68.3281,276.75 Q68.3281,279.1563 68.9375,280.4531 Q69.5625,281.7344 70.9219,281.7344 Q71.875,281.7344 72.5625,281.0469 Q73.25,280.3438 73.5781,278.8438 L74.4844,279.25 Q74.0781,280.9531 73.1094,281.9063 Q72.1563,282.8594 70.8438,282.8594 Z " fill="#000000"/><text fill="#000000" font-family="sans-serif" font-size="14" lengthAdjust="spacing" textLength="21" x="85.5" y="283.4839">ISP</text><line style="stroke:#181818;stroke-width:0.5;" x1="57.5" x2="108.5" y1="293" y2="293"/><line style="stroke:#181818;stroke-width:0.5;" x1="57.5" x2="108.5" y1="301" y2="301"/></g><!--class VideoStreaming--><g id="elem_VideoStreaming"><rect fill="#F1F1F1" height="48" id="VideoStreaming" rx="2.5" ry="2.5" style="stroke:#181818;stroke-width:0.5;" width="132" x="17" y="7"/><ellipse cx="32" cy="23" fill="#ADD1B2" rx="11" ry="11" style="stroke:#181818;stroke-width:1.0;"/><path d="M31.3438,28.8594 Q29.3594,28.8594 28.1875,27.3906 Q27.0313,25.9063 27.0313,22.8281 Q27.0313,20.2188 28.25,18.4688 Q29.4844,16.7188 31.6094,16.7188 Q32.1094,16.7188 32.6406,16.8594 Q33.0781,17.0469 33.3438,17.0469 Q33.5625,17.0469 33.6563,17 Q33.7656,16.9531 34.2188,16.3594 L34.9844,20.0938 L34.0938,20.3594 Q33.6406,18.9063 33.0313,18.3125 Q32.4375,17.7031 31.4844,17.7031 Q30.2656,17.7031 29.5469,19.1406 Q28.8281,20.5625 28.8281,22.75 Q28.8281,25.1563 29.4375,26.4531 Q30.0625,27.7344 31.4219,27.7344 Q32.375,27.7344 33.0625,27.0469 Q33.75,26.3438 34.0781,24.8438 L34.9844,25.25 Q34.5781,26.9531 33.6094,27.9063 Q32.6563,28.8594 31.3438,28.8594 Z " fill="#000000"/><text fill="#000000" font-family="sans-serif" font-size="14" lengthAdjust="spacing" textLength="100" x="46" y="29.4839">VideoStreaming</text><line style="stroke:#181818;stroke-width:0.5;" x1="18" x2="148" y1="39" y2="39"/><line style="stroke:#181818;stroke-width:0.5;" x1="18" x2="148" y1="47" y2="47"/></g><!--link InternetConnection to ISP--><g id="link_InternetConnection_ISP"><path codeLine="1" d="M83,182.22 C83,204.67 83,232.5 83,254.91 " fill="none" id="InternetConnection-to-ISP" style="stroke:#181818;stroke-width:1.0;stroke-dasharray:7.0,7.0;"/><polygon fill="#181818" points="83,260.91,87,251.91,83,255.91,79,251.91,83,260.91" style="stroke:#181818;stroke-width:1.0;"/><text fill="#000000" font-family="sans-serif" font-size="13" lengthAdjust="spacing" textLength="67" x="84" y="227.8979">depends on</text></g><!--link VideoStreaming to InternetConnection--><g id="link_VideoStreaming_InternetConnection"><path codeLine="2" d="M83,55.22 C83,77.67 83,105.5 83,127.91 " fill="none" id="VideoStreaming-to-InternetConnection" style="stroke:#181818;stroke-width:1.0;stroke-dasharray:7.0,7.0;"/><polygon fill="#181818" points="83,133.91,87,124.91,83,128.91,79,124.91,83,133.91" style="stroke:#181818;stroke-width:1.0;"/><text fill="#000000" font-family="sans-serif" font-size="13" lengthAdjust="spacing" textLength="67" x="84" y="100.8979">depends on</text></g><!--SRC=[yymhIItAIornpi_BIqqkoSpFKz3JirFm30vGi598IIr8pKifLiZFumhBJ4dD3oufIatCpSnBXwZ1r8gi1G00]--></g></svg>