<?xml version="1.0" encoding="us-ascii" standalone="no"?><svg xmlns="http://www.w3.org/2000/svg" xmlns:xlink="http://www.w3.org/1999/xlink" contentStyleType="text/css" height="316px" preserveAspectRatio="none" style="width:170px;height:316px;background:#FFFFFF;" version="1.1" viewBox="0 0 170 316" width="170px" zoomAndPan="magnify"><defs/><g><!--class KalahariDesert--><g id="elem_KalahariDesert"><rect fill="#F1F1F1" height="48" id="KalahariDesert" rx="2.5" ry="2.5" style="stroke:#181818;stroke-width:0.5;" width="126" x="22" y="7"/><ellipse cx="37" cy="23" fill="#ADD1B2" rx="11" ry="11" style="stroke:#181818;stroke-width:1.0;"/><path d="M36.3438,28.8594 Q34.3594,28.8594 33.1875,27.3906 Q32.0313,25.9063 32.0313,22.8281 Q32.0313,20.2188 33.25,18.4688 Q34.4844,16.7188 36.6094,16.7188 Q37.1094,16.7188 37.6406,16.8594 Q38.0781,17.0469 38.3438,17.0469 Q38.5625,17.0469 38.6563,17 Q38.7656,16.9531 39.2188,16.3594 L39.9844,20.0938 L39.0938,20.3594 Q38.6406,18.9063 38.0313,18.3125 Q37.4375,17.7031 36.4844,17.7031 Q35.2656,17.7031 34.5469,19.1406 Q33.8281,20.5625 33.8281,22.75 Q33.8281,25.1563 34.4375,26.4531 Q35.0625,27.7344 36.4219,27.7344 Q37.375,27.7344 38.0625,27.0469 Q38.75,26.3438 39.0781,24.8438 L39.9844,25.25 Q39.5781,26.9531 38.6094,27.9063 Q37.6563,28.8594 36.3438,28.8594 Z " fill="#000000"/><text fill="#000000" font-family="sans-serif" font-size="14" lengthAdjust="spacing" textLength="94" x="51" y="29.4839">KalahariDesert</text><line style="stroke:#181818;stroke-width:0.5;" x1="23" x2="147" y1="39" y2="39"/><line style="stroke:#181818;stroke-width:0.5;" x1="23" x2="147" y1="47" y2="47"/></g><!--class Desert--><g id="elem_Desert"><rect fill="#F1F1F1" height="48" id="Desert" rx="2.5" ry="2.5" style="stroke:#181818;stroke-width:0.5;" width="74" x="48" y="134"/><ellipse cx="63" cy="150" fill="#ADD1B2" rx="11" ry="11" style="stroke:#181818;stroke-width:1.0;"/><path d="M62.3438,155.8594 Q60.3594,155.8594 59.1875,154.3906 Q58.0313,152.9063 58.0313,149.8281 Q58.0313,147.2188 59.25,145.4688 Q60.4844,143.7188 62.6094,143.7188 Q63.1094,143.7188 63.6406,143.8594 Q64.0781,144.0469 64.3438,144.0469 Q64.5625,144.0469 64.6563,144 Q64.7656,143.9531 65.2188,143.3594 L65.9844,147.0938 L65.0938,147.3594 Q64.6406,145.9063 64.0313,145.3125 Q63.4375,144.7031 62.4844,144.7031 Q61.2656,144.7031 60.5469,146.1406 Q59.8281,147.5625 59.8281,149.75 Q59.8281,152.1563 60.4375,153.4531 Q61.0625,154.7344 62.4219,154.7344 Q63.375,154.7344 64.0625,154.0469 Q64.75,153.3438 65.0781,151.8438 L65.9844,152.25 Q65.5781,153.9531 64.6094,154.9063 Q63.6563,155.8594 62.3438,155.8594 Z " fill="#000000"/><text fill="#000000" font-family="sans-serif" font-size="14" lengthAdjust="spacing" textLength="42" x="77" y="156.4839">Desert</text><line style="stroke:#181818;stroke-width:0.5;" x1="49" x2="121" y1="166" y2="166"/><line style="stroke:#181818;stroke-width:0.5;" x1="49" x2="121" y1="174" y2="174"/></g><!--class GeographicFeature--><g id="elem_GeographicFeature"><rect fill="#F1F1F1" height="48" id="GeographicFeature" rx="2.5" ry="2.5" style="stroke:#181818;stroke-width:0.5;" width="156" x="7" y="261"/><ellipse cx="22" cy="277" fill="#ADD1B2" rx="11" ry="11" style="stroke:#181818;stroke-width:1.0;"/><path d="M21.3438,282.8594 Q19.3594,282.8594 18.1875,281.3906 Q17.0313,279.9063 17.0313,276.8281 Q17.0313,274.2188 18.25,272.4688 Q19.4844,270.7188 21.6094,270.7188 Q22.1094,270.7188 22.6406,270.8594 Q23.0781,271.0469 23.3438,271.0469 Q23.5625,271.0469 23.6563,271 Q23.7656,270.9531 24.2188,270.3594 L24.9844,274.0938 L24.0938,274.3594 Q23.6406,272.9063 23.0313,272.3125 Q22.4375,271.7031 21.4844,271.7031 Q20.2656,271.7031 19.5469,273.1406 Q18.8281,274.5625 18.8281,276.75 Q18.8281,279.1563 19.4375,280.4531 Q20.0625,281.7344 21.4219,281.7344 Q22.375,281.7344 23.0625,281.0469 Q23.75,280.3438 24.0781,278.8438 L24.9844,279.25 Q24.5781,280.9531 23.6094,281.9063 Q22.6563,282.8594 21.3438,282.8594 Z " fill="#000000"/><text fill="#000000" font-family="sans-serif" font-size="14" lengthAdjust="spacing" textLength="124" x="36" y="283.4839">GeographicFeature</text><line style="stroke:#181818;stroke-width:0.5;" x1="8" x2="162" y1="293" y2="293"/><line style="stroke:#181818;stroke-width:0.5;" x1="8" x2="162" y1="301" y2="301"/></g><!--reverse link KalahariDesert to Desert--><g id="link_KalahariDesert_Desert"><path codeLine="1" d="M85,73.22 C85,95.67 85,111.5 85,133.91 " fill="none" id="KalahariDesert-backto-Desert" style="stroke:#181818;stroke-width:1.0;"/><polygon fill="none" points="85,55.22,79,73.22,91,73.22,85,55.22" style="stroke:#181818;stroke-width:1.0;"/><text fill="#000000" font-family="sans-serif" font-size="13" lengthAdjust="spacing" textLength="42" x="86" y="100.8979">inherits</text></g><!--reverse link Desert to GeographicFeature--><g id="link_Desert_GeographicFeature"><path codeLine="2" d="M85,200.22 C85,222.67 85,238.5 85,260.91 " fill="none" id="Desert-backto-GeographicFeature" style="stroke:#181818;stroke-width:1.0;"/><polygon fill="none" points="85,182.22,79,200.22,91,200.22,85,182.22" style="stroke:#181818;stroke-width:1.0;"/><text fill="#000000" font-family="sans-serif" font-size="13" lengthAdjust="spacing" textLength="42" x="86" y="227.8979">inherits</text></g><!--SRC=[yqxCISn8BCfqIIrEBIfHiAdHrLM0igqKClCoKeioIugva6NTK_FJYn8BCZAJtL8JIqgBKf4K0W00]--></g></svg>