<?xml version="1.0" encoding="us-ascii" standalone="no"?><svg xmlns="http://www.w3.org/2000/svg" xmlns:xlink="http://www.w3.org/1999/xlink" contentStyleType="text/css" height="189px" preserveAspectRatio="none" style="width:112px;height:189px;background:#FFFFFF;" version="1.1" viewBox="0 0 112 189" width="112px" zoomAndPan="magnify"><defs/><g><!--class Satsuma--><g id="elem_Satsuma"><rect fill="#F1F1F1" height="48" id="Satsuma" rx="2.5" ry="2.5" style="stroke:#181818;stroke-width:0.5;" width="87" x="12.5" y="7"/><ellipse cx="27.5" cy="23" fill="#ADD1B2" rx="11" ry="11" style="stroke:#181818;stroke-width:1.0;"/><path d="M26.8438,28.8594 Q24.8594,28.8594 23.6875,27.3906 Q22.5313,25.9063 22.5313,22.8281 Q22.5313,20.2188 23.75,18.4688 Q24.9844,16.7188 27.1094,16.7188 Q27.6094,16.7188 28.1406,16.8594 Q28.5781,17.0469 28.8438,17.0469 Q29.0625,17.0469 29.1563,17 Q29.2656,16.9531 29.7188,16.3594 L30.4844,20.0938 L29.5938,20.3594 Q29.1406,18.9063 28.5313,18.3125 Q27.9375,17.7031 26.9844,17.7031 Q25.7656,17.7031 25.0469,19.1406 Q24.3281,20.5625 24.3281,22.75 Q24.3281,25.1563 24.9375,26.4531 Q25.5625,27.7344 26.9219,27.7344 Q27.875,27.7344 28.5625,27.0469 Q29.25,26.3438 29.5781,24.8438 L30.4844,25.25 Q30.0781,26.9531 29.1094,27.9063 Q28.1563,28.8594 26.8438,28.8594 Z " fill="#000000"/><text fill="#000000" font-family="sans-serif" font-size="14" lengthAdjust="spacing" textLength="55" x="41.5" y="29.4839">Satsuma</text><line style="stroke:#181818;stroke-width:0.5;" x1="13.5" x2="98.5" y1="39" y2="39"/><line style="stroke:#181818;stroke-width:0.5;" x1="13.5" x2="98.5" y1="47" y2="47"/></g><!--class CitrusFruit--><g id="elem_CitrusFruit"><rect fill="#F1F1F1" height="48" id="CitrusFruit" rx="2.5" ry="2.5" style="stroke:#181818;stroke-width:0.5;" width="98" x="7" y="134"/><ellipse cx="22" cy="150" fill="#ADD1B2" rx="11" ry="11" style="stroke:#181818;stroke-width:1.0;"/><path d="M21.3438,155.8594 Q19.3594,155.8594 18.1875,154.3906 Q17.0313,152.9063 17.0313,149.8281 Q17.0313,147.2188 18.25,145.4688 Q19.4844,143.7188 21.6094,143.7188 Q22.1094,143.7188 22.6406,143.8594 Q23.0781,144.0469 23.3438,144.0469 Q23.5625,144.0469 23.6563,144 Q23.7656,143.9531 24.2188,143.3594 L24.9844,147.0938 L24.0938,147.3594 Q23.6406,145.9063 23.0313,145.3125 Q22.4375,144.7031 21.4844,144.7031 Q20.2656,144.7031 19.5469,146.1406 Q18.8281,147.5625 18.8281,149.75 Q18.8281,152.1563 19.4375,153.4531 Q20.0625,154.7344 21.4219,154.7344 Q22.375,154.7344 23.0625,154.0469 Q23.75,153.3438 24.0781,151.8438 L24.9844,152.25 Q24.5781,153.9531 23.6094,154.9063 Q22.6563,155.8594 21.3438,155.8594 Z " fill="#000000"/><text fill="#000000" font-family="sans-serif" font-size="14" lengthAdjust="spacing" textLength="66" x="36" y="156.4839">CitrusFruit</text><line style="stroke:#181818;stroke-width:0.5;" x1="8" x2="104" y1="166" y2="166"/><line style="stroke:#181818;stroke-width:0.5;" x1="8" x2="104" y1="174" y2="174"/></g><!--reverse link Satsuma to CitrusFruit--><g id="link_Satsuma_CitrusFruit"><path codeLine="1" d="M56,73.22 C56,95.67 56,111.5 56,133.91 " fill="none" id="Satsuma-backto-CitrusFruit" style="stroke:#181818;stroke-width:1.0;"/><polygon fill="none" points="56,55.22,50,73.22,62,73.22,56,55.22" style="stroke:#181818;stroke-width:1.0;"/><text fill="#000000" font-family="sans-serif" font-size="13" lengthAdjust="spacing" textLength="42" x="57" y="100.8979">inherits</text></g><!--SRC=[2quiAIxDJLImgT7LLN3EB2agBNOhAiqiKR1IoCpBI2tAB2a60000]--></g></svg>