<?xml version="1.0" encoding="us-ascii" standalone="no"?><svg xmlns="http://www.w3.org/2000/svg" xmlns:xlink="http://www.w3.org/1999/xlink" contentStyleType="text/css" height="316px" preserveAspectRatio="none" style="width:226px;height:316px;background:#FFFFFF;" version="1.1" viewBox="0 0 226 316" width="226px" zoomAndPan="magnify"><defs/><g><!--class GrandTheftAutoSanAndreas--><g id="elem_GrandTheftAutoSanAndreas"><rect fill="#F1F1F1" height="48" id="GrandTheftAutoSanAndreas" rx="2.5" ry="2.5" style="stroke:#181818;stroke-width:0.5;" width="212" x="7" y="7"/><ellipse cx="22" cy="23" fill="#ADD1B2" rx="11" ry="11" style="stroke:#181818;stroke-width:1.0;"/><path d="M21.3438,28.8594 Q19.3594,28.8594 18.1875,27.3906 Q17.0313,25.9063 17.0313,22.8281 Q17.0313,20.2188 18.25,18.4688 Q19.4844,16.7188 21.6094,16.7188 Q22.1094,16.7188 22.6406,16.8594 Q23.0781,17.0469 23.3438,17.0469 Q23.5625,17.0469 23.6563,17 Q23.7656,16.9531 24.2188,16.3594 L24.9844,20.0938 L24.0938,20.3594 Q23.6406,18.9063 23.0313,18.3125 Q22.4375,17.7031 21.4844,17.7031 Q20.2656,17.7031 19.5469,19.1406 Q18.8281,20.5625 18.8281,22.75 Q18.8281,25.1563 19.4375,26.4531 Q20.0625,27.7344 21.4219,27.7344 Q22.375,27.7344 23.0625,27.0469 Q23.75,26.3438 24.0781,24.8438 L24.9844,25.25 Q24.5781,26.9531 23.6094,27.9063 Q22.6563,28.8594 21.3438,28.8594 Z " fill="#000000"/><text fill="#000000" font-family="sans-serif" font-size="14" lengthAdjust="spacing" textLength="180" x="36" y="29.4839">GrandTheftAutoSanAndreas</text><line style="stroke:#181818;stroke-width:0.5;" x1="8" x2="218" y1="39" y2="39"/><line style="stroke:#181818;stroke-width:0.5;" x1="8" x2="218" y1="47" y2="47"/></g><!--class VideoGame--><g id="elem_VideoGame"><rect fill="#F1F1F1" height="48" id="VideoGame" rx="2.5" ry="2.5" style="stroke:#181818;stroke-width:0.5;" width="106" x="60" y="134"/><ellipse cx="75" cy="150" fill="#ADD1B2" rx="11" ry="11" style="stroke:#181818;stroke-width:1.0;"/><path d="M74.3438,155.8594 Q72.3594,155.8594 71.1875,154.3906 Q70.0313,152.9063 70.0313,149.8281 Q70.0313,147.2188 71.25,145.4688 Q72.4844,143.7188 74.6094,143.7188 Q75.1094,143.7188 75.6406,143.8594 Q76.0781,144.0469 76.3438,144.0469 Q76.5625,144.0469 76.6563,144 Q76.7656,143.9531 77.2188,143.3594 L77.9844,147.0938 L77.0938,147.3594 Q76.6406,145.9063 76.0313,145.3125 Q75.4375,144.7031 74.4844,144.7031 Q73.2656,144.7031 72.5469,146.1406 Q71.8281,147.5625 71.8281,149.75 Q71.8281,152.1563 72.4375,153.4531 Q73.0625,154.7344 74.4219,154.7344 Q75.375,154.7344 76.0625,154.0469 Q76.75,153.3438 77.0781,151.8438 L77.9844,152.25 Q77.5781,153.9531 76.6094,154.9063 Q75.6563,155.8594 74.3438,155.8594 Z " fill="#000000"/><text fill="#000000" font-family="sans-serif" font-size="14" lengthAdjust="spacing" textLength="74" x="89" y="156.4839">VideoGame</text><line style="stroke:#181818;stroke-width:0.5;" x1="61" x2="165" y1="166" y2="166"/><line style="stroke:#181818;stroke-width:0.5;" x1="61" x2="165" y1="174" y2="174"/></g><!--class Game--><g id="elem_Game"><rect fill="#F1F1F1" height="48" id="Game" rx="2.5" ry="2.5" style="stroke:#181818;stroke-width:0.5;" width="70" x="78" y="261"/><ellipse cx="93" cy="277" fill="#ADD1B2" rx="11" ry="11" style="stroke:#181818;stroke-width:1.0;"/><path d="M92.3438,282.8594 Q90.3594,282.8594 89.1875,281.3906 Q88.0313,279.9063 88.0313,276.8281 Q88.0313,274.2188 89.25,272.4688 Q90.4844,270.7188 92.6094,270.7188 Q93.1094,270.7188 93.6406,270.8594 Q94.0781,271.0469 94.3438,271.0469 Q94.5625,271.0469 94.6563,271 Q94.7656,270.9531 95.2188,270.3594 L95.9844,274.0938 L95.0938,274.3594 Q94.6406,272.9063 94.0313,272.3125 Q93.4375,271.7031 92.4844,271.7031 Q91.2656,271.7031 90.5469,273.1406 Q89.8281,274.5625 89.8281,276.75 Q89.8281,279.1563 90.4375,280.4531 Q91.0625,281.7344 92.4219,281.7344 Q93.375,281.7344 94.0625,281.0469 Q94.75,280.3438 95.0781,278.8438 L95.9844,279.25 Q95.5781,280.9531 94.6094,281.9063 Q93.6563,282.8594 92.3438,282.8594 Z " fill="#000000"/><text fill="#000000" font-family="sans-serif" font-size="14" lengthAdjust="spacing" textLength="38" x="107" y="283.4839">Game</text><line style="stroke:#181818;stroke-width:0.5;" x1="79" x2="147" y1="293" y2="293"/><line style="stroke:#181818;stroke-width:0.5;" x1="79" x2="147" y1="301" y2="301"/></g><!--reverse link GrandTheftAutoSanAndreas to VideoGame--><g id="link_GrandTheftAutoSanAndreas_VideoGame"><path codeLine="1" d="M113,73.22 C113,95.67 113,111.5 113,133.91 " fill="none" id="GrandTheftAutoSanAndreas-backto-VideoGame" style="stroke:#181818;stroke-width:1.0;"/><polygon fill="none" points="113,55.22,107,73.22,119,73.22,113,55.22" style="stroke:#181818;stroke-width:1.0;"/><text fill="#000000" font-family="sans-serif" font-size="13" lengthAdjust="spacing" textLength="42" x="114" y="100.8979">inherits</text></g><!--reverse link VideoGame to Game--><g id="link_VideoGame_Game"><path codeLine="2" d="M113,200.22 C113,222.67 113,238.5 113,260.91 " fill="none" id="VideoGame-backto-Game" style="stroke:#181818;stroke-width:1.0;"/><polygon fill="none" points="113,182.22,107,200.22,119,200.22,113,182.22" style="stroke:#181818;stroke-width:1.0;"/><text fill="#000000" font-family="sans-serif" font-size="13" lengthAdjust="spacing" textLength="42" x="114" y="227.8979">inherits</text></g><!--SRC=[SozAp4i9oKXDAt4iBSaFJinpp4ifIaqiLh2fqTLL2CjCISrtJynDLR1IoCpBI2tAB2dcGWY2rQ190m00]--></g></svg>