<?xml version="1.0" encoding="us-ascii" standalone="no"?><svg xmlns="http://www.w3.org/2000/svg" xmlns:xlink="http://www.w3.org/1999/xlink" contentStyleType="text/css" height="316px" preserveAspectRatio="none" style="width:173px;height:316px;background:#FFFFFF;" version="1.1" viewBox="0 0 173 316" width="173px" zoomAndPan="magnify"><defs/><g><!--class StarWarsANewHope--><g id="elem_StarWarsANewHope"><rect fill="#F1F1F1" height="48" id="StarWarsANewHope" rx="2.5" ry="2.5" style="stroke:#181818;stroke-width:0.5;" width="159" x="7" y="7"/><ellipse cx="22" cy="23" fill="#ADD1B2" rx="11" ry="11" style="stroke:#181818;stroke-width:1.0;"/><path d="M21.3438,28.8594 Q19.3594,28.8594 18.1875,27.3906 Q17.0313,25.9063 17.0313,22.8281 Q17.0313,20.2188 18.25,18.4688 Q19.4844,16.7188 21.6094,16.7188 Q22.1094,16.7188 22.6406,16.8594 Q23.0781,17.0469 23.3438,17.0469 Q23.5625,17.0469 23.6563,17 Q23.7656,16.9531 24.2188,16.3594 L24.9844,20.0938 L24.0938,20.3594 Q23.6406,18.9063 23.0313,18.3125 Q22.4375,17.7031 21.4844,17.7031 Q20.2656,17.7031 19.5469,19.1406 Q18.8281,20.5625 18.8281,22.75 Q18.8281,25.1563 19.4375,26.4531 Q20.0625,27.7344 21.4219,27.7344 Q22.375,27.7344 23.0625,27.0469 Q23.75,26.3438 24.0781,24.8438 L24.9844,25.25 Q24.5781,26.9531 23.6094,27.9063 Q22.6563,28.8594 21.3438,28.8594 Z " fill="#000000"/><text fill="#000000" font-family="sans-serif" font-size="14" lengthAdjust="spacing" textLength="127" x="36" y="29.4839">StarWarsANewHope</text><line style="stroke:#181818;stroke-width:0.5;" x1="8" x2="165" y1="39" y2="39"/><line style="stroke:#181818;stroke-width:0.5;" x1="8" x2="165" y1="47" y2="47"/></g><!--class Film--><g id="elem_Film"><rect fill="#F1F1F1" height="48" id="Film" rx="2.5" ry="2.5" style="stroke:#181818;stroke-width:0.5;" width="58" x="57.5" y="134"/><ellipse cx="72.5" cy="150" fill="#ADD1B2" rx="11" ry="11" style="stroke:#181818;stroke-width:1.0;"/><path d="M71.8438,155.8594 Q69.8594,155.8594 68.6875,154.3906 Q67.5313,152.9063 67.5313,149.8281 Q67.5313,147.2188 68.75,145.4688 Q69.9844,143.7188 72.1094,143.7188 Q72.6094,143.7188 73.1406,143.8594 Q73.5781,144.0469 73.8438,144.0469 Q74.0625,144.0469 74.1563,144 Q74.2656,143.9531 74.7188,143.3594 L75.4844,147.0938 L74.5938,147.3594 Q74.1406,145.9063 73.5313,145.3125 Q72.9375,144.7031 71.9844,144.7031 Q70.7656,144.7031 70.0469,146.1406 Q69.3281,147.5625 69.3281,149.75 Q69.3281,152.1563 69.9375,153.4531 Q70.5625,154.7344 71.9219,154.7344 Q72.875,154.7344 73.5625,154.0469 Q74.25,153.3438 74.5781,151.8438 L75.4844,152.25 Q75.0781,153.9531 74.1094,154.9063 Q73.1563,155.8594 71.8438,155.8594 Z " fill="#000000"/><text fill="#000000" font-family="sans-serif" font-size="14" lengthAdjust="spacing" textLength="26" x="86.5" y="156.4839">Film</text><line style="stroke:#181818;stroke-width:0.5;" x1="58.5" x2="114.5" y1="166" y2="166"/><line style="stroke:#181818;stroke-width:0.5;" x1="58.5" x2="114.5" y1="174" y2="174"/></g><!--class Entertainment--><g id="elem_Entertainment"><rect fill="#F1F1F1" height="48" id="Entertainment" rx="2.5" ry="2.5" style="stroke:#181818;stroke-width:0.5;" width="120" x="26.5" y="261"/><ellipse cx="41.5" cy="277" fill="#ADD1B2" rx="11" ry="11" style="stroke:#181818;stroke-width:1.0;"/><path d="M40.8438,282.8594 Q38.8594,282.8594 37.6875,281.3906 Q36.5313,279.9063 36.5313,276.8281 Q36.5313,274.2188 37.75,272.4688 Q38.9844,270.7188 41.1094,270.7188 Q41.6094,270.7188 42.1406,270.8594 Q42.5781,271.0469 42.8438,271.0469 Q43.0625,271.0469 43.1563,271 Q43.2656,270.9531 43.7188,270.3594 L44.4844,274.0938 L43.5938,274.3594 Q43.1406,272.9063 42.5313,272.3125 Q41.9375,271.7031 40.9844,271.7031 Q39.7656,271.7031 39.0469,273.1406 Q38.3281,274.5625 38.3281,276.75 Q38.3281,279.1563 38.9375,280.4531 Q39.5625,281.7344 40.9219,281.7344 Q41.875,281.7344 42.5625,281.0469 Q43.25,280.3438 43.5781,278.8438 L44.4844,279.25 Q44.0781,280.9531 43.1094,281.9063 Q42.1563,282.8594 40.8438,282.8594 Z " fill="#000000"/><text fill="#000000" font-family="sans-serif" font-size="14" lengthAdjust="spacing" textLength="88" x="55.5" y="283.4839">Entertainment</text><line style="stroke:#181818;stroke-width:0.5;" x1="27.5" x2="145.5" y1="293" y2="293"/><line style="stroke:#181818;stroke-width:0.5;" x1="27.5" x2="145.5" y1="301" y2="301"/></g><!--reverse link StarWarsANewHope to Film--><g id="link_StarWarsANewHope_Film"><path codeLine="1" d="M86.5,73.22 C86.5,95.67 86.5,111.5 86.5,133.91 " fill="none" id="StarWarsANewHope-backto-Film" style="stroke:#181818;stroke-width:1.0;"/><polygon fill="none" points="86.5,55.22,80.5,73.22,92.5,73.22,86.5,55.22" style="stroke:#181818;stroke-width:1.0;"/><text fill="#000000" font-family="sans-serif" font-size="13" lengthAdjust="spacing" textLength="42" x="87.5" y="100.8979">inherits</text></g><!--reverse link Film to Entertainment--><g id="link_Film_Entertainment"><path codeLine="2" d="M86.5,200.22 C86.5,222.67 86.5,238.5 86.5,260.91 " fill="none" id="Film-backto-Entertainment" style="stroke:#181818;stroke-width:1.0;"/><polygon fill="none" points="86.5,182.22,80.5,200.22,92.5,200.22,86.5,182.22" style="stroke:#181818;stroke-width:1.0;"/><text fill="#000000" font-family="sans-serif" font-size="13" lengthAdjust="spacing" textLength="42" x="87.5" y="227.8979">inherits</text></g><!--SRC=[2ov9B0fFB2fsz4ijzyWlI5MmgT7LLN3BpCbLi5B8pCj8BSeiAUO2yy4ohdabgKKbYPbvkQbv9KXA0000]--></g></svg>