<?xml version="1.0" encoding="us-ascii" standalone="no"?><svg xmlns="http://www.w3.org/2000/svg" xmlns:xlink="http://www.w3.org/1999/xlink" contentStyleType="text/css" height="316px" preserveAspectRatio="none" style="width:248px;height:316px;background:#FFFFFF;" version="1.1" viewBox="0 0 248 316" width="248px" zoomAndPan="magnify"><defs/><g><!--class StarWarsTheEmpireStrikesBack--><g id="elem_StarWarsTheEmpireStrikesBack"><rect fill="#F1F1F1" height="48" id="StarWarsTheEmpireStrikesBack" rx="2.5" ry="2.5" style="stroke:#181818;stroke-width:0.5;" width="234" x="7" y="7"/><ellipse cx="22" cy="23" fill="#ADD1B2" rx="11" ry="11" style="stroke:#181818;stroke-width:1.0;"/><path d="M21.3438,28.8594 Q19.3594,28.8594 18.1875,27.3906 Q17.0313,25.9063 17.0313,22.8281 Q17.0313,20.2188 18.25,18.4688 Q19.4844,16.7188 21.6094,16.7188 Q22.1094,16.7188 22.6406,16.8594 Q23.0781,17.0469 23.3438,17.0469 Q23.5625,17.0469 23.6563,17 Q23.7656,16.9531 24.2188,16.3594 L24.9844,20.0938 L24.0938,20.3594 Q23.6406,18.9063 23.0313,18.3125 Q22.4375,17.7031 21.4844,17.7031 Q20.2656,17.7031 19.5469,19.1406 Q18.8281,20.5625 18.8281,22.75 Q18.8281,25.1563 19.4375,26.4531 Q20.0625,27.7344 21.4219,27.7344 Q22.375,27.7344 23.0625,27.0469 Q23.75,26.3438 24.0781,24.8438 L24.9844,25.25 Q24.5781,26.9531 23.6094,27.9063 Q22.6563,28.8594 21.3438,28.8594 Z " fill="#000000"/><text fill="#000000" font-family="sans-serif" font-size="14" lengthAdjust="spacing" textLength="202" x="36" y="29.4839">StarWarsTheEmpireStrikesBack</text><line style="stroke:#181818;stroke-width:0.5;" x1="8" x2="240" y1="39" y2="39"/><line style="stroke:#181818;stroke-width:0.5;" x1="8" x2="240" y1="47" y2="47"/></g><!--class Film--><g id="elem_Film"><rect fill="#F1F1F1" height="48" id="Film" rx="2.5" ry="2.5" style="stroke:#181818;stroke-width:0.5;" width="58" x="95" y="134"/><ellipse cx="110" cy="150" fill="#ADD1B2" rx="11" ry="11" style="stroke:#181818;stroke-width:1.0;"/><path d="M109.3438,155.8594 Q107.3594,155.8594 106.1875,154.3906 Q105.0313,152.9063 105.0313,149.8281 Q105.0313,147.2188 106.25,145.4688 Q107.4844,143.7188 109.6094,143.7188 Q110.1094,143.7188 110.6406,143.8594 Q111.0781,144.0469 111.3438,144.0469 Q111.5625,144.0469 111.6563,144 Q111.7656,143.9531 112.2188,143.3594 L112.9844,147.0938 L112.0938,147.3594 Q111.6406,145.9063 111.0313,145.3125 Q110.4375,144.7031 109.4844,144.7031 Q108.2656,144.7031 107.5469,146.1406 Q106.8281,147.5625 106.8281,149.75 Q106.8281,152.1563 107.4375,153.4531 Q108.0625,154.7344 109.4219,154.7344 Q110.375,154.7344 111.0625,154.0469 Q111.75,153.3438 112.0781,151.8438 L112.9844,152.25 Q112.5781,153.9531 111.6094,154.9063 Q110.6563,155.8594 109.3438,155.8594 Z " fill="#000000"/><text fill="#000000" font-family="sans-serif" font-size="14" lengthAdjust="spacing" textLength="26" x="124" y="156.4839">Film</text><line style="stroke:#181818;stroke-width:0.5;" x1="96" x2="152" y1="166" y2="166"/><line style="stroke:#181818;stroke-width:0.5;" x1="96" x2="152" y1="174" y2="174"/></g><!--class Entertainment--><g id="elem_Entertainment"><rect fill="#F1F1F1" height="48" id="Entertainment" rx="2.5" ry="2.5" style="stroke:#181818;stroke-width:0.5;" width="120" x="64" y="261"/><ellipse cx="79" cy="277" fill="#ADD1B2" rx="11" ry="11" style="stroke:#181818;stroke-width:1.0;"/><path d="M78.3438,282.8594 Q76.3594,282.8594 75.1875,281.3906 Q74.0313,279.9063 74.0313,276.8281 Q74.0313,274.2188 75.25,272.4688 Q76.4844,270.7188 78.6094,270.7188 Q79.1094,270.7188 79.6406,270.8594 Q80.0781,271.0469 80.3438,271.0469 Q80.5625,271.0469 80.6563,271 Q80.7656,270.9531 81.2188,270.3594 L81.9844,274.0938 L81.0938,274.3594 Q80.6406,272.9063 80.0313,272.3125 Q79.4375,271.7031 78.4844,271.7031 Q77.2656,271.7031 76.5469,273.1406 Q75.8281,274.5625 75.8281,276.75 Q75.8281,279.1563 76.4375,280.4531 Q77.0625,281.7344 78.4219,281.7344 Q79.375,281.7344 80.0625,281.0469 Q80.75,280.3438 81.0781,278.8438 L81.9844,279.25 Q81.5781,280.9531 80.6094,281.9063 Q79.6563,282.8594 78.3438,282.8594 Z " fill="#000000"/><text fill="#000000" font-family="sans-serif" font-size="14" lengthAdjust="spacing" textLength="88" x="93" y="283.4839">Entertainment</text><line style="stroke:#181818;stroke-width:0.5;" x1="65" x2="183" y1="293" y2="293"/><line style="stroke:#181818;stroke-width:0.5;" x1="65" x2="183" y1="301" y2="301"/></g><!--reverse link StarWarsTheEmpireStrikesBack to Film--><g id="link_StarWarsTheEmpireStrikesBack_Film"><path codeLine="1" d="M124,73.22 C124,95.67 124,111.5 124,133.91 " fill="none" id="StarWarsTheEmpireStrikesBack-backto-Film" style="stroke:#181818;stroke-width:1.0;"/><polygon fill="none" points="124,55.22,118,73.22,130,73.22,124,55.22" style="stroke:#181818;stroke-width:1.0;"/><text fill="#000000" font-family="sans-serif" font-size="13" lengthAdjust="spacing" textLength="42" x="125" y="100.8979">inherits</text></g><!--reverse link Film to Entertainment--><g id="link_Film_Entertainment"><path codeLine="2" d="M124,200.22 C124,222.67 124,238.5 124,260.91 " fill="none" id="Film-backto-Entertainment" style="stroke:#181818;stroke-width:1.0;"/><polygon fill="none" points="124,182.22,118,200.22,130,200.22,124,182.22" style="stroke:#181818;stroke-width:1.0;"/><text fill="#000000" font-family="sans-serif" font-size="13" lengthAdjust="spacing" textLength="42" x="125" y="227.8979">inherits</text></g><!--SRC=[2ov9B0fFB2eEoKXrpIt8B4eDBYdAp4ujTafCpbQmgT7LLN3BpCbLi5B8pCj8BSeiAUO2yy4ohdabgKKbYPbvkQbv9KXA0000]--></g></svg>