<?xml version="1.0" encoding="us-ascii" standalone="no"?><svg xmlns="http://www.w3.org/2000/svg" xmlns:xlink="http://www.w3.org/1999/xlink" contentStyleType="text/css" height="316px" preserveAspectRatio="none" style="width:159px;height:316px;background:#FFFFFF;" version="1.1" viewBox="0 0 159 316" width="159px" zoomAndPan="magnify"><defs/><g><!--class TheSocialNetwork--><g id="elem_TheSocialNetwork"><rect fill="#F1F1F1" height="48" id="TheSocialNetwork" rx="2.5" ry="2.5" style="stroke:#181818;stroke-width:0.5;" width="145" x="7" y="7"/><ellipse cx="22" cy="23" fill="#ADD1B2" rx="11" ry="11" style="stroke:#181818;stroke-width:1.0;"/><path d="M21.3438,28.8594 Q19.3594,28.8594 18.1875,27.3906 Q17.0313,25.9063 17.0313,22.8281 Q17.0313,20.2188 18.25,18.4688 Q19.4844,16.7188 21.6094,16.7188 Q22.1094,16.7188 22.6406,16.8594 Q23.0781,17.0469 23.3438,17.0469 Q23.5625,17.0469 23.6563,17 Q23.7656,16.9531 24.2188,16.3594 L24.9844,20.0938 L24.0938,20.3594 Q23.6406,18.9063 23.0313,18.3125 Q22.4375,17.7031 21.4844,17.7031 Q20.2656,17.7031 19.5469,19.1406 Q18.8281,20.5625 18.8281,22.75 Q18.8281,25.1563 19.4375,26.4531 Q20.0625,27.7344 21.4219,27.7344 Q22.375,27.7344 23.0625,27.0469 Q23.75,26.3438 24.0781,24.8438 L24.9844,25.25 Q24.5781,26.9531 23.6094,27.9063 Q22.6563,28.8594 21.3438,28.8594 Z " fill="#000000"/><text fill="#000000" font-family="sans-serif" font-size="14" lengthAdjust="spacing" textLength="113" x="36" y="29.4839">TheSocialNetwork</text><line style="stroke:#181818;stroke-width:0.5;" x1="8" x2="151" y1="39" y2="39"/><line style="stroke:#181818;stroke-width:0.5;" x1="8" x2="151" y1="47" y2="47"/></g><!--class Film--><g id="elem_Film"><rect fill="#F1F1F1" height="48" id="Film" rx="2.5" ry="2.5" style="stroke:#181818;stroke-width:0.5;" width="58" x="50.5" y="134"/><ellipse cx="65.5" cy="150" fill="#ADD1B2" rx="11" ry="11" style="stroke:#181818;stroke-width:1.0;"/><path d="M64.8438,155.8594 Q62.8594,155.8594 61.6875,154.3906 Q60.5313,152.9063 60.5313,149.8281 Q60.5313,147.2188 61.75,145.4688 Q62.9844,143.7188 65.1094,143.7188 Q65.6094,143.7188 66.1406,143.8594 Q66.5781,144.0469 66.8438,144.0469 Q67.0625,144.0469 67.1563,144 Q67.2656,143.9531 67.7188,143.3594 L68.4844,147.0938 L67.5938,147.3594 Q67.1406,145.9063 66.5313,145.3125 Q65.9375,144.7031 64.9844,144.7031 Q63.7656,144.7031 63.0469,146.1406 Q62.3281,147.5625 62.3281,149.75 Q62.3281,152.1563 62.9375,153.4531 Q63.5625,154.7344 64.9219,154.7344 Q65.875,154.7344 66.5625,154.0469 Q67.25,153.3438 67.5781,151.8438 L68.4844,152.25 Q68.0781,153.9531 67.1094,154.9063 Q66.1563,155.8594 64.8438,155.8594 Z " fill="#000000"/><text fill="#000000" font-family="sans-serif" font-size="14" lengthAdjust="spacing" textLength="26" x="79.5" y="156.4839">Film</text><line style="stroke:#181818;stroke-width:0.5;" x1="51.5" x2="107.5" y1="166" y2="166"/><line style="stroke:#181818;stroke-width:0.5;" x1="51.5" x2="107.5" y1="174" y2="174"/></g><!--class Entertainment--><g id="elem_Entertainment"><rect fill="#F1F1F1" height="48" id="Entertainment" rx="2.5" ry="2.5" style="stroke:#181818;stroke-width:0.5;" width="120" x="19.5" y="261"/><ellipse cx="34.5" cy="277" fill="#ADD1B2" rx="11" ry="11" style="stroke:#181818;stroke-width:1.0;"/><path d="M33.8438,282.8594 Q31.8594,282.8594 30.6875,281.3906 Q29.5313,279.9063 29.5313,276.8281 Q29.5313,274.2188 30.75,272.4688 Q31.9844,270.7188 34.1094,270.7188 Q34.6094,270.7188 35.1406,270.8594 Q35.5781,271.0469 35.8438,271.0469 Q36.0625,271.0469 36.1563,271 Q36.2656,270.9531 36.7188,270.3594 L37.4844,274.0938 L36.5938,274.3594 Q36.1406,272.9063 35.5313,272.3125 Q34.9375,271.7031 33.9844,271.7031 Q32.7656,271.7031 32.0469,273.1406 Q31.3281,274.5625 31.3281,276.75 Q31.3281,279.1563 31.9375,280.4531 Q32.5625,281.7344 33.9219,281.7344 Q34.875,281.7344 35.5625,281.0469 Q36.25,280.3438 36.5781,278.8438 L37.4844,279.25 Q37.0781,280.9531 36.1094,281.9063 Q35.1563,282.8594 33.8438,282.8594 Z " fill="#000000"/><text fill="#000000" font-family="sans-serif" font-size="14" lengthAdjust="spacing" textLength="88" x="48.5" y="283.4839">Entertainment</text><line style="stroke:#181818;stroke-width:0.5;" x1="20.5" x2="138.5" y1="293" y2="293"/><line style="stroke:#181818;stroke-width:0.5;" x1="20.5" x2="138.5" y1="301" y2="301"/></g><!--reverse link TheSocialNetwork to Film--><g id="link_TheSocialNetwork_Film"><path codeLine="1" d="M79.5,73.22 C79.5,95.67 79.5,111.5 79.5,133.91 " fill="none" id="TheSocialNetwork-backto-Film" style="stroke:#181818;stroke-width:1.0;"/><polygon fill="none" points="79.5,55.22,73.5,73.22,85.5,73.22,79.5,55.22" style="stroke:#181818;stroke-width:1.0;"/><text fill="#000000" font-family="sans-serif" font-size="13" lengthAdjust="spacing" textLength="42" x="80.5" y="100.8979">inherits</text></g><!--reverse link Film to Entertainment--><g id="link_Film_Entertainment"><path codeLine="2" d="M79.5,200.22 C79.5,222.67 79.5,238.5 79.5,260.91 " fill="none" id="Film-backto-Entertainment" style="stroke:#181818;stroke-width:1.0;"/><polygon fill="none" points="79.5,182.22,73.5,200.22,85.5,200.22,79.5,182.22" style="stroke:#181818;stroke-width:1.0;"/><text fill="#000000" font-family="sans-serif" font-size="13" lengthAdjust="spacing" textLength="42" x="80.5" y="227.8979">inherits</text></g><!--SRC=[2yb83SvFpapCyKijASylobQmgT7LLN3BpCbLi5B8pCj8BSeiAUO2yy4ohdabgKKbYPbvkQbv9KXA0000]--></g></svg>