<?xml version="1.0" encoding="us-ascii" standalone="no"?><svg xmlns="http://www.w3.org/2000/svg" xmlns:xlink="http://www.w3.org/1999/xlink" contentStyleType="text/css" height="316px" preserveAspectRatio="none" style="width:199px;height:316px;background:#FFFFFF;" version="1.1" viewBox="0 0 199 316" width="199px" zoomAndPan="magnify"><defs/><g><!--class HowToTrainYourDragon--><g id="elem_HowToTrainYourDragon"><rect fill="#F1F1F1" height="48" id="HowToTrainYourDragon" rx="2.5" ry="2.5" style="stroke:#181818;stroke-width:0.5;" width="185" x="7" y="7"/><ellipse cx="22" cy="23" fill="#ADD1B2" rx="11" ry="11" style="stroke:#181818;stroke-width:1.0;"/><path d="M21.3438,28.8594 Q19.3594,28.8594 18.1875,27.3906 Q17.0313,25.9063 17.0313,22.8281 Q17.0313,20.2188 18.25,18.4688 Q19.4844,16.7188 21.6094,16.7188 Q22.1094,16.7188 22.6406,16.8594 Q23.0781,17.0469 23.3438,17.0469 Q23.5625,17.0469 23.6563,17 Q23.7656,16.9531 24.2188,16.3594 L24.9844,20.0938 L24.0938,20.3594 Q23.6406,18.9063 23.0313,18.3125 Q22.4375,17.7031 21.4844,17.7031 Q20.2656,17.7031 19.5469,19.1406 Q18.8281,20.5625 18.8281,22.75 Q18.8281,25.1563 19.4375,26.4531 Q20.0625,27.7344 21.4219,27.7344 Q22.375,27.7344 23.0625,27.0469 Q23.75,26.3438 24.0781,24.8438 L24.9844,25.25 Q24.5781,26.9531 23.6094,27.9063 Q22.6563,28.8594 21.3438,28.8594 Z " fill="#000000"/><text fill="#000000" font-family="sans-serif" font-size="14" lengthAdjust="spacing" textLength="153" x="36" y="29.4839">HowToTrainYourDragon</text><line style="stroke:#181818;stroke-width:0.5;" x1="8" x2="191" y1="39" y2="39"/><line style="stroke:#181818;stroke-width:0.5;" x1="8" x2="191" y1="47" y2="47"/></g><!--class AnimatedFilm--><g id="elem_AnimatedFilm"><rect fill="#F1F1F1" height="48" id="AnimatedFilm" rx="2.5" ry="2.5" style="stroke:#181818;stroke-width:0.5;" width="117" x="41" y="134"/><ellipse cx="56" cy="150" fill="#ADD1B2" rx="11" ry="11" style="stroke:#181818;stroke-width:1.0;"/><path d="M55.3438,155.8594 Q53.3594,155.8594 52.1875,154.3906 Q51.0313,152.9063 51.0313,149.8281 Q51.0313,147.2188 52.25,145.4688 Q53.4844,143.7188 55.6094,143.7188 Q56.1094,143.7188 56.6406,143.8594 Q57.0781,144.0469 57.3438,144.0469 Q57.5625,144.0469 57.6563,144 Q57.7656,143.9531 58.2188,143.3594 L58.9844,147.0938 L58.0938,147.3594 Q57.6406,145.9063 57.0313,145.3125 Q56.4375,144.7031 55.4844,144.7031 Q54.2656,144.7031 53.5469,146.1406 Q52.8281,147.5625 52.8281,149.75 Q52.8281,152.1563 53.4375,153.4531 Q54.0625,154.7344 55.4219,154.7344 Q56.375,154.7344 57.0625,154.0469 Q57.75,153.3438 58.0781,151.8438 L58.9844,152.25 Q58.5781,153.9531 57.6094,154.9063 Q56.6563,155.8594 55.3438,155.8594 Z " fill="#000000"/><text fill="#000000" font-family="sans-serif" font-size="14" lengthAdjust="spacing" textLength="85" x="70" y="156.4839">AnimatedFilm</text><line style="stroke:#181818;stroke-width:0.5;" x1="42" x2="157" y1="166" y2="166"/><line style="stroke:#181818;stroke-width:0.5;" x1="42" x2="157" y1="174" y2="174"/></g><!--class Film--><g id="elem_Film"><rect fill="#F1F1F1" height="48" id="Film" rx="2.5" ry="2.5" style="stroke:#181818;stroke-width:0.5;" width="58" x="70.5" y="261"/><ellipse cx="85.5" cy="277" fill="#ADD1B2" rx="11" ry="11" style="stroke:#181818;stroke-width:1.0;"/><path d="M84.8438,282.8594 Q82.8594,282.8594 81.6875,281.3906 Q80.5313,279.9063 80.5313,276.8281 Q80.5313,274.2188 81.75,272.4688 Q82.9844,270.7188 85.1094,270.7188 Q85.6094,270.7188 86.1406,270.8594 Q86.5781,271.0469 86.8438,271.0469 Q87.0625,271.0469 87.1563,271 Q87.2656,270.9531 87.7188,270.3594 L88.4844,274.0938 L87.5938,274.3594 Q87.1406,272.9063 86.5313,272.3125 Q85.9375,271.7031 84.9844,271.7031 Q83.7656,271.7031 83.0469,273.1406 Q82.3281,274.5625 82.3281,276.75 Q82.3281,279.1563 82.9375,280.4531 Q83.5625,281.7344 84.9219,281.7344 Q85.875,281.7344 86.5625,281.0469 Q87.25,280.3438 87.5781,278.8438 L88.4844,279.25 Q88.0781,280.9531 87.1094,281.9063 Q86.1563,282.8594 84.8438,282.8594 Z " fill="#000000"/><text fill="#000000" font-family="sans-serif" font-size="14" lengthAdjust="spacing" textLength="26" x="99.5" y="283.4839">Film</text><line style="stroke:#181818;stroke-width:0.5;" x1="71.5" x2="127.5" y1="293" y2="293"/><line style="stroke:#181818;stroke-width:0.5;" x1="71.5" x2="127.5" y1="301" y2="301"/></g><!--reverse link HowToTrainYourDragon to AnimatedFilm--><g id="link_HowToTrainYourDragon_AnimatedFilm"><path codeLine="1" d="M99.5,73.22 C99.5,95.67 99.5,111.5 99.5,133.91 " fill="none" id="HowToTrainYourDragon-backto-AnimatedFilm" style="stroke:#181818;stroke-width:1.0;"/><polygon fill="none" points="99.5,55.22,93.5,73.22,105.5,73.22,99.5,55.22" style="stroke:#181818;stroke-width:1.0;"/><text fill="#000000" font-family="sans-serif" font-size="13" lengthAdjust="spacing" textLength="42" x="100.5" y="100.8979">inherits</text></g><!--reverse link AnimatedFilm to Film--><g id="link_AnimatedFilm_Film"><path codeLine="2" d="M99.5,200.22 C99.5,222.67 99.5,238.5 99.5,260.91 " fill="none" id="AnimatedFilm-backto-Film" style="stroke:#181818;stroke-width:1.0;"/><polygon fill="none" points="99.5,182.22,93.5,200.22,105.5,200.22,99.5,182.22" style="stroke:#181818;stroke-width:1.0;"/><text fill="#000000" font-family="sans-serif" font-size="13" lengthAdjust="spacing" textLength="42" x="100.5" y="227.8979">inherits</text></g><!--SRC=[yyWl3yaFAKhCp8lCBoroAKfCpyzJiAdHrLLmpClCJIn9JN7BpCbLi5B8pCj8BSeiAUP24GUhH5C10000]--></g></svg>