<?xml version="1.0" encoding="us-ascii" standalone="no"?><svg xmlns="http://www.w3.org/2000/svg" xmlns:xlink="http://www.w3.org/1999/xlink" contentStyleType="text/css" height="316px" preserveAspectRatio="none" style="width:301px;height:316px;background:#FFFFFF;" version="1.1" viewBox="0 0 301 316" width="301px" zoomAndPan="magnify"><defs/><g><!--class TheLegendOfZeldaTearsOfTheKingdom--><g id="elem_TheLegendOfZeldaTearsOfTheKingdom"><rect fill="#F1F1F1" height="48" id="TheLegendOfZeldaTearsOfTheKingdom" rx="2.5" ry="2.5" style="stroke:#181818;stroke-width:0.5;" width="287" x="7" y="7"/><ellipse cx="22" cy="23" fill="#ADD1B2" rx="11" ry="11" style="stroke:#181818;stroke-width:1.0;"/><path d="M21.3438,28.8594 Q19.3594,28.8594 18.1875,27.3906 Q17.0313,25.9063 17.0313,22.8281 Q17.0313,20.2188 18.25,18.4688 Q19.4844,16.7188 21.6094,16.7188 Q22.1094,16.7188 22.6406,16.8594 Q23.0781,17.0469 23.3438,17.0469 Q23.5625,17.0469 23.6563,17 Q23.7656,16.9531 24.2188,16.3594 L24.9844,20.0938 L24.0938,20.3594 Q23.6406,18.9063 23.0313,18.3125 Q22.4375,17.7031 21.4844,17.7031 Q20.2656,17.7031 19.5469,19.1406 Q18.8281,20.5625 18.8281,22.75 Q18.8281,25.1563 19.4375,26.4531 Q20.0625,27.7344 21.4219,27.7344 Q22.375,27.7344 23.0625,27.0469 Q23.75,26.3438 24.0781,24.8438 L24.9844,25.25 Q24.5781,26.9531 23.6094,27.9063 Q22.6563,28.8594 21.3438,28.8594 Z " fill="#000000"/><text fill="#000000" font-family="sans-serif" font-size="14" lengthAdjust="spacing" textLength="255" x="36" y="29.4839">TheLegendOfZeldaTearsOfTheKingdom</text><line style="stroke:#181818;stroke-width:0.5;" x1="8" x2="293" y1="39" y2="39"/><line style="stroke:#181818;stroke-width:0.5;" x1="8" x2="293" y1="47" y2="47"/></g><!--class VideoGame--><g id="elem_VideoGame"><rect fill="#F1F1F1" height="48" id="VideoGame" rx="2.5" ry="2.5" style="stroke:#181818;stroke-width:0.5;" width="106" x="97.5" y="134"/><ellipse cx="112.5" cy="150" fill="#ADD1B2" rx="11" ry="11" style="stroke:#181818;stroke-width:1.0;"/><path d="M111.8438,155.8594 Q109.8594,155.8594 108.6875,154.3906 Q107.5313,152.9063 107.5313,149.8281 Q107.5313,147.2188 108.75,145.4688 Q109.9844,143.7188 112.1094,143.7188 Q112.6094,143.7188 113.1406,143.8594 Q113.5781,144.0469 113.8438,144.0469 Q114.0625,144.0469 114.1563,144 Q114.2656,143.9531 114.7188,143.3594 L115.4844,147.0938 L114.5938,147.3594 Q114.1406,145.9063 113.5313,145.3125 Q112.9375,144.7031 111.9844,144.7031 Q110.7656,144.7031 110.0469,146.1406 Q109.3281,147.5625 109.3281,149.75 Q109.3281,152.1563 109.9375,153.4531 Q110.5625,154.7344 111.9219,154.7344 Q112.875,154.7344 113.5625,154.0469 Q114.25,153.3438 114.5781,151.8438 L115.4844,152.25 Q115.0781,153.9531 114.1094,154.9063 Q113.1563,155.8594 111.8438,155.8594 Z " fill="#000000"/><text fill="#000000" font-family="sans-serif" font-size="14" lengthAdjust="spacing" textLength="74" x="126.5" y="156.4839">VideoGame</text><line style="stroke:#181818;stroke-width:0.5;" x1="98.5" x2="202.5" y1="166" y2="166"/><line style="stroke:#181818;stroke-width:0.5;" x1="98.5" x2="202.5" y1="174" y2="174"/></g><!--class Game--><g id="elem_Game"><rect fill="#F1F1F1" height="48" id="Game" rx="2.5" ry="2.5" style="stroke:#181818;stroke-width:0.5;" width="70" x="115.5" y="261"/><ellipse cx="130.5" cy="277" fill="#ADD1B2" rx="11" ry="11" style="stroke:#181818;stroke-width:1.0;"/><path d="M129.8438,282.8594 Q127.8594,282.8594 126.6875,281.3906 Q125.5313,279.9063 125.5313,276.8281 Q125.5313,274.2188 126.75,272.4688 Q127.9844,270.7188 130.1094,270.7188 Q130.6094,270.7188 131.1406,270.8594 Q131.5781,271.0469 131.8438,271.0469 Q132.0625,271.0469 132.1563,271 Q132.2656,270.9531 132.7188,270.3594 L133.4844,274.0938 L132.5938,274.3594 Q132.1406,272.9063 131.5313,272.3125 Q130.9375,271.7031 129.9844,271.7031 Q128.7656,271.7031 128.0469,273.1406 Q127.3281,274.5625 127.3281,276.75 Q127.3281,279.1563 127.9375,280.4531 Q128.5625,281.7344 129.9219,281.7344 Q130.875,281.7344 131.5625,281.0469 Q132.25,280.3438 132.5781,278.8438 L133.4844,279.25 Q133.0781,280.9531 132.1094,281.9063 Q131.1563,282.8594 129.8438,282.8594 Z " fill="#000000"/><text fill="#000000" font-family="sans-serif" font-size="14" lengthAdjust="spacing" textLength="38" x="144.5" y="283.4839">Game</text><line style="stroke:#181818;stroke-width:0.5;" x1="116.5" x2="184.5" y1="293" y2="293"/><line style="stroke:#181818;stroke-width:0.5;" x1="116.5" x2="184.5" y1="301" y2="301"/></g><!--reverse link TheLegendOfZeldaTearsOfTheKingdom to VideoGame--><g id="link_TheLegendOfZeldaTearsOfTheKingdom_VideoGame"><path codeLine="1" d="M150.5,73.22 C150.5,95.67 150.5,111.5 150.5,133.91 " fill="none" id="TheLegendOfZeldaTearsOfTheKingdom-backto-VideoGame" style="stroke:#181818;stroke-width:1.0;"/><polygon fill="none" points="150.5,55.22,144.5,73.22,156.5,73.22,150.5,55.22" style="stroke:#181818;stroke-width:1.0;"/><text fill="#000000" font-family="sans-serif" font-size="13" lengthAdjust="spacing" textLength="42" x="151.5" y="100.8979">inherits</text></g><!--reverse link VideoGame to Game--><g id="link_VideoGame_Game"><path codeLine="2" d="M150.5,200.22 C150.5,222.67 150.5,238.5 150.5,260.91 " fill="none" id="VideoGame-backto-Game" style="stroke:#181818;stroke-width:1.0;"/><polygon fill="none" points="150.5,182.22,144.5,200.22,156.5,200.22,150.5,182.22" style="stroke:#181818;stroke-width:1.0;"/><text fill="#000000" font-family="sans-serif" font-size="13" lengthAdjust="spacing" textLength="42" x="151.5" y="227.8979">inherits</text></g><!--SRC=[2yb8zKbDJyrByK-BIir9IGn9JImgzayBoKZrpinBJydFLR2fqTLL2CjCISrtJynDLR1IoCpBI2tAB2dcGWY2rQ190m00]--></g></svg>