<?xml version="1.0" encoding="us-ascii" standalone="no"?><svg xmlns="http://www.w3.org/2000/svg" xmlns:xlink="http://www.w3.org/1999/xlink" contentStyleType="text/css" height="316px" preserveAspectRatio="none" style="width:175px;height:316px;background:#FFFFFF;" version="1.1" viewBox="0 0 175 316" width="175px" zoomAndPan="magnify"><defs/><g><!--class SunflowersVanGogh--><g id="elem_SunflowersVanGogh"><rect fill="#F1F1F1" height="48" id="SunflowersVanGogh" rx="2.5" ry="2.5" style="stroke:#181818;stroke-width:0.5;" width="161" x="7" y="7"/><ellipse cx="22" cy="23" fill="#ADD1B2" rx="11" ry="11" style="stroke:#181818;stroke-width:1.0;"/><path d="M21.3438,28.8594 Q19.3594,28.8594 18.1875,27.3906 Q17.0313,25.9063 17.0313,22.8281 Q17.0313,20.2188 18.25,18.4688 Q19.4844,16.7188 21.6094,16.7188 Q22.1094,16.7188 22.6406,16.8594 Q23.0781,17.0469 23.3438,17.0469 Q23.5625,17.0469 23.6563,17 Q23.7656,16.9531 24.2188,16.3594 L24.9844,20.0938 L24.0938,20.3594 Q23.6406,18.9063 23.0313,18.3125 Q22.4375,17.7031 21.4844,17.7031 Q20.2656,17.7031 19.5469,19.1406 Q18.8281,20.5625 18.8281,22.75 Q18.8281,25.1563 19.4375,26.4531 Q20.0625,27.7344 21.4219,27.7344 Q22.375,27.7344 23.0625,27.0469 Q23.75,26.3438 24.0781,24.8438 L24.9844,25.25 Q24.5781,26.9531 23.6094,27.9063 Q22.6563,28.8594 21.3438,28.8594 Z " fill="#000000"/><text fill="#000000" font-family="sans-serif" font-size="14" lengthAdjust="spacing" textLength="129" x="36" y="29.4839">SunflowersVanGogh</text><line style="stroke:#181818;stroke-width:0.5;" x1="8" x2="167" y1="39" y2="39"/><line style="stroke:#181818;stroke-width:0.5;" x1="8" x2="167" y1="47" y2="47"/></g><!--class Painting--><g id="elem_Painting"><rect fill="#F1F1F1" height="48" id="Painting" rx="2.5" ry="2.5" style="stroke:#181818;stroke-width:0.5;" width="83" x="46" y="134"/><ellipse cx="61" cy="150" fill="#ADD1B2" rx="11" ry="11" style="stroke:#181818;stroke-width:1.0;"/><path d="M60.3438,155.8594 Q58.3594,155.8594 57.1875,154.3906 Q56.0313,152.9063 56.0313,149.8281 Q56.0313,147.2188 57.25,145.4688 Q58.4844,143.7188 60.6094,143.7188 Q61.1094,143.7188 61.6406,143.8594 Q62.0781,144.0469 62.3438,144.0469 Q62.5625,144.0469 62.6563,144 Q62.7656,143.9531 63.2188,143.3594 L63.9844,147.0938 L63.0938,147.3594 Q62.6406,145.9063 62.0313,145.3125 Q61.4375,144.7031 60.4844,144.7031 Q59.2656,144.7031 58.5469,146.1406 Q57.8281,147.5625 57.8281,149.75 Q57.8281,152.1563 58.4375,153.4531 Q59.0625,154.7344 60.4219,154.7344 Q61.375,154.7344 62.0625,154.0469 Q62.75,153.3438 63.0781,151.8438 L63.9844,152.25 Q63.5781,153.9531 62.6094,154.9063 Q61.6563,155.8594 60.3438,155.8594 Z " fill="#000000"/><text fill="#000000" font-family="sans-serif" font-size="14" lengthAdjust="spacing" textLength="51" x="75" y="156.4839">Painting</text><line style="stroke:#181818;stroke-width:0.5;" x1="47" x2="128" y1="166" y2="166"/><line style="stroke:#181818;stroke-width:0.5;" x1="47" x2="128" y1="174" y2="174"/></g><!--class Artwork--><g id="elem_Artwork"><rect fill="#F1F1F1" height="48" id="Artwork" rx="2.5" ry="2.5" style="stroke:#181818;stroke-width:0.5;" width="79" x="48" y="261"/><ellipse cx="63" cy="277" fill="#ADD1B2" rx="11" ry="11" style="stroke:#181818;stroke-width:1.0;"/><path d="M62.3438,282.8594 Q60.3594,282.8594 59.1875,281.3906 Q58.0313,279.9063 58.0313,276.8281 Q58.0313,274.2188 59.25,272.4688 Q60.4844,270.7188 62.6094,270.7188 Q63.1094,270.7188 63.6406,270.8594 Q64.0781,271.0469 64.3438,271.0469 Q64.5625,271.0469 64.6563,271 Q64.7656,270.9531 65.2188,270.3594 L65.9844,274.0938 L65.0938,274.3594 Q64.6406,272.9063 64.0313,272.3125 Q63.4375,271.7031 62.4844,271.7031 Q61.2656,271.7031 60.5469,273.1406 Q59.8281,274.5625 59.8281,276.75 Q59.8281,279.1563 60.4375,280.4531 Q61.0625,281.7344 62.4219,281.7344 Q63.375,281.7344 64.0625,281.0469 Q64.75,280.3438 65.0781,278.8438 L65.9844,279.25 Q65.5781,280.9531 64.6094,281.9063 Q63.6563,282.8594 62.3438,282.8594 Z " fill="#000000"/><text fill="#000000" font-family="sans-serif" font-size="14" lengthAdjust="spacing" textLength="47" x="77" y="283.4839">Artwork</text><line style="stroke:#181818;stroke-width:0.5;" x1="49" x2="126" y1="293" y2="293"/><line style="stroke:#181818;stroke-width:0.5;" x1="49" x2="126" y1="301" y2="301"/></g><!--reverse link SunflowersVanGogh to Painting--><g id="link_SunflowersVanGogh_Painting"><path codeLine="1" d="M87.5,73.22 C87.5,95.67 87.5,111.5 87.5,133.91 " fill="none" id="SunflowersVanGogh-backto-Painting" style="stroke:#181818;stroke-width:1.0;"/><polygon fill="none" points="87.5,55.22,81.5,73.22,93.5,73.22,87.5,55.22" style="stroke:#181818;stroke-width:1.0;"/><text fill="#000000" font-family="sans-serif" font-size="13" lengthAdjust="spacing" textLength="42" x="88.5" y="100.8979">inherits</text></g><!--reverse link Painting to Artwork--><g id="link_Painting_Artwork"><path codeLine="2" d="M87.5,200.22 C87.5,222.67 87.5,238.5 87.5,260.91 " fill="none" id="Painting-backto-Artwork" style="stroke:#181818;stroke-width:1.0;"/><polygon fill="none" points="87.5,182.22,81.5,200.22,93.5,200.22,87.5,182.22" style="stroke:#181818;stroke-width:1.0;"/><text fill="#000000" font-family="sans-serif" font-size="13" lengthAdjust="spacing" textLength="42" x="88.5" y="227.8979">inherits</text></g><!--SRC=[2oxDIyl9BqyjAWvBp7FFJyzGiAdHrLK8ICpCAydCIrUmKiZCoqWjoYmfveABWLKu5fMKvnTb8oa00000]--></g></svg>