<?xml version="1.0" encoding="us-ascii" standalone="no"?><svg xmlns="http://www.w3.org/2000/svg" xmlns:xlink="http://www.w3.org/1999/xlink" contentStyleType="text/css" height="316px" preserveAspectRatio="none" style="width:147px;height:316px;background:#FFFFFF;" version="1.1" viewBox="0 0 147 316" width="147px" zoomAndPan="magnify"><defs/><g><!--class BatteryCharger--><g id="elem_BatteryCharger"><rect fill="#F1F1F1" height="48" id="BatteryCharger" rx="2.5" ry="2.5" style="stroke:#181818;stroke-width:0.5;" width="129" x="7" y="134"/><ellipse cx="22" cy="150" fill="#ADD1B2" rx="11" ry="11" style="stroke:#181818;stroke-width:1.0;"/><path d="M21.3438,155.8594 Q19.3594,155.8594 18.1875,154.3906 Q17.0313,152.9063 17.0313,149.8281 Q17.0313,147.2188 18.25,145.4688 Q19.4844,143.7188 21.6094,143.7188 Q22.1094,143.7188 22.6406,143.8594 Q23.0781,144.0469 23.3438,144.0469 Q23.5625,144.0469 23.6563,144 Q23.7656,143.9531 24.2188,143.3594 L24.9844,147.0938 L24.0938,147.3594 Q23.6406,145.9063 23.0313,145.3125 Q22.4375,144.7031 21.4844,144.7031 Q20.2656,144.7031 19.5469,146.1406 Q18.8281,147.5625 18.8281,149.75 Q18.8281,152.1563 19.4375,153.4531 Q20.0625,154.7344 21.4219,154.7344 Q22.375,154.7344 23.0625,154.0469 Q23.75,153.3438 24.0781,151.8438 L24.9844,152.25 Q24.5781,153.9531 23.6094,154.9063 Q22.6563,155.8594 21.3438,155.8594 Z " fill="#000000"/><text fill="#000000" font-family="sans-serif" font-size="14" lengthAdjust="spacing" textLength="97" x="36" y="156.4839">BatteryCharger</text><line style="stroke:#181818;stroke-width:0.5;" x1="8" x2="135" y1="166" y2="166"/><line style="stroke:#181818;stroke-width:0.5;" x1="8" x2="135" y1="174" y2="174"/></g><!--class RadioBattery--><g id="elem_RadioBattery"><rect fill="#F1F1F1" height="48" id="RadioBattery" rx="2.5" ry="2.5" style="stroke:#181818;stroke-width:0.5;" width="114" x="14.5" y="261"/><ellipse cx="29.5" cy="277" fill="#ADD1B2" rx="11" ry="11" style="stroke:#181818;stroke-width:1.0;"/><path d="M28.8438,282.8594 Q26.8594,282.8594 25.6875,281.3906 Q24.5313,279.9063 24.5313,276.8281 Q24.5313,274.2188 25.75,272.4688 Q26.9844,270.7188 29.1094,270.7188 Q29.6094,270.7188 30.1406,270.8594 Q30.5781,271.0469 30.8438,271.0469 Q31.0625,271.0469 31.1563,271 Q31.2656,270.9531 31.7188,270.3594 L32.4844,274.0938 L31.5938,274.3594 Q31.1406,272.9063 30.5313,272.3125 Q29.9375,271.7031 28.9844,271.7031 Q27.7656,271.7031 27.0469,273.1406 Q26.3281,274.5625 26.3281,276.75 Q26.3281,279.1563 26.9375,280.4531 Q27.5625,281.7344 28.9219,281.7344 Q29.875,281.7344 30.5625,281.0469 Q31.25,280.3438 31.5781,278.8438 L32.4844,279.25 Q32.0781,280.9531 31.1094,281.9063 Q30.1563,282.8594 28.8438,282.8594 Z " fill="#000000"/><text fill="#000000" font-family="sans-serif" font-size="14" lengthAdjust="spacing" textLength="82" x="43.5" y="283.4839">RadioBattery</text><line style="stroke:#181818;stroke-width:0.5;" x1="15.5" x2="127.5" y1="293" y2="293"/><line style="stroke:#181818;stroke-width:0.5;" x1="15.5" x2="127.5" y1="301" y2="301"/></g><!--class WallOutlet--><g id="elem_WallOutlet"><rect fill="#F1F1F1" height="48" id="WallOutlet" rx="2.5" ry="2.5" style="stroke:#181818;stroke-width:0.5;" width="97" x="23" y="7"/><ellipse cx="38" cy="23" fill="#ADD1B2" rx="11" ry="11" style="stroke:#181818;stroke-width:1.0;"/><path d="M37.3438,28.8594 Q35.3594,28.8594 34.1875,27.3906 Q33.0313,25.9063 33.0313,22.8281 Q33.0313,20.2188 34.25,18.4688 Q35.4844,16.7188 37.6094,16.7188 Q38.1094,16.7188 38.6406,16.8594 Q39.0781,17.0469 39.3438,17.0469 Q39.5625,17.0469 39.6563,17 Q39.7656,16.9531 40.2188,16.3594 L40.9844,20.0938 L40.0938,20.3594 Q39.6406,18.9063 39.0313,18.3125 Q38.4375,17.7031 37.4844,17.7031 Q36.2656,17.7031 35.5469,19.1406 Q34.8281,20.5625 34.8281,22.75 Q34.8281,25.1563 35.4375,26.4531 Q36.0625,27.7344 37.4219,27.7344 Q38.375,27.7344 39.0625,27.0469 Q39.75,26.3438 40.0781,24.8438 L40.9844,25.25 Q40.5781,26.9531 39.6094,27.9063 Q38.6563,28.8594 37.3438,28.8594 Z " fill="#000000"/><text fill="#000000" font-family="sans-serif" font-size="14" lengthAdjust="spacing" textLength="65" x="52" y="29.4839">WallOutlet</text><line style="stroke:#181818;stroke-width:0.5;" x1="24" x2="119" y1="39" y2="39"/><line style="stroke:#181818;stroke-width:0.5;" x1="24" x2="119" y1="47" y2="47"/></g><!--link BatteryCharger to RadioBattery--><g id="link_BatteryCharger_RadioBattery"><path codeLine="1" d="M71.5,182.22 C71.5,204.67 71.5,232.5 71.5,254.91 " fill="none" id="BatteryCharger-to-RadioBattery" style="stroke:#181818;stroke-width:1.0;stroke-dasharray:7.0,7.0;"/><polygon fill="#181818" points="71.5,260.91,75.5,251.91,71.5,255.91,67.5,251.91,71.5,260.91" style="stroke:#181818;stroke-width:1.0;"/><text fill="#000000" font-family="sans-serif" font-size="13" lengthAdjust="spacing" textLength="67" x="72.5" y="227.8979">depends on</text></g><!--link WallOutlet to BatteryCharger--><g id="link_WallOutlet_BatteryCharger"><path codeLine="2" d="M71.5,55.22 C71.5,77.67 71.5,105.5 71.5,127.91 " fill="none" id="WallOutlet-to-BatteryCharger" style="stroke:#181818;stroke-width:1.0;stroke-dasharray:7.0,7.0;"/><polygon fill="#181818" points="71.5,133.91,75.5,124.91,71.5,128.91,67.5,124.91,71.5,133.91" style="stroke:#181818;stroke-width:1.0;"/><text fill="#000000" font-family="sans-serif" font-size="13" lengthAdjust="spacing" textLength="67" x="72.5" y="100.8979">depends on</text></g><!--SRC=[SqeiAKajgdJEI2nAJorIqDEpKmXAJCdCTuA8ArWffAGMfEQb52lavt659-Ra-9UMvAIMW1KweUf5LWe0]--></g></svg>