<?xml version="1.0" encoding="us-ascii" standalone="no"?><svg xmlns="http://www.w3.org/2000/svg" xmlns:xlink="http://www.w3.org/1999/xlink" contentStyleType="text/css" height="316px" preserveAspectRatio="none" style="width:161px;height:316px;background:#FFFFFF;" version="1.1" viewBox="0 0 161 316" width="161px" zoomAndPan="magnify"><defs/><g><!--class GasStation--><g id="elem_GasStation"><rect fill="#F1F1F1" height="48" id="GasStation" rx="2.5" ry="2.5" style="stroke:#181818;stroke-width:0.5;" width="102" x="29.5" y="134"/><ellipse cx="44.5" cy="150" fill="#ADD1B2" rx="11" ry="11" style="stroke:#181818;stroke-width:1.0;"/><path d="M43.8438,155.8594 Q41.8594,155.8594 40.6875,154.3906 Q39.5313,152.9063 39.5313,149.8281 Q39.5313,147.2188 40.75,145.4688 Q41.9844,143.7188 44.1094,143.7188 Q44.6094,143.7188 45.1406,143.8594 Q45.5781,144.0469 45.8438,144.0469 Q46.0625,144.0469 46.1563,144 Q46.2656,143.9531 46.7188,143.3594 L47.4844,147.0938 L46.5938,147.3594 Q46.1406,145.9063 45.5313,145.3125 Q44.9375,144.7031 43.9844,144.7031 Q42.7656,144.7031 42.0469,146.1406 Q41.3281,147.5625 41.3281,149.75 Q41.3281,152.1563 41.9375,153.4531 Q42.5625,154.7344 43.9219,154.7344 Q44.875,154.7344 45.5625,154.0469 Q46.25,153.3438 46.5781,151.8438 L47.4844,152.25 Q47.0781,153.9531 46.1094,154.9063 Q45.1563,155.8594 43.8438,155.8594 Z " fill="#000000"/><text fill="#000000" font-family="sans-serif" font-size="14" lengthAdjust="spacing" textLength="70" x="58.5" y="156.4839">GasStation</text><line style="stroke:#181818;stroke-width:0.5;" x1="30.5" x2="130.5" y1="166" y2="166"/><line style="stroke:#181818;stroke-width:0.5;" x1="30.5" x2="130.5" y1="174" y2="174"/></g><!--class Scooter--><g id="elem_Scooter"><rect fill="#F1F1F1" height="48" id="Scooter" rx="2.5" ry="2.5" style="stroke:#181818;stroke-width:0.5;" width="81" x="40" y="261"/><ellipse cx="55" cy="277" fill="#ADD1B2" rx="11" ry="11" style="stroke:#181818;stroke-width:1.0;"/><path d="M54.3438,282.8594 Q52.3594,282.8594 51.1875,281.3906 Q50.0313,279.9063 50.0313,276.8281 Q50.0313,274.2188 51.25,272.4688 Q52.4844,270.7188 54.6094,270.7188 Q55.1094,270.7188 55.6406,270.8594 Q56.0781,271.0469 56.3438,271.0469 Q56.5625,271.0469 56.6563,271 Q56.7656,270.9531 57.2188,270.3594 L57.9844,274.0938 L57.0938,274.3594 Q56.6406,272.9063 56.0313,272.3125 Q55.4375,271.7031 54.4844,271.7031 Q53.2656,271.7031 52.5469,273.1406 Q51.8281,274.5625 51.8281,276.75 Q51.8281,279.1563 52.4375,280.4531 Q53.0625,281.7344 54.4219,281.7344 Q55.375,281.7344 56.0625,281.0469 Q56.75,280.3438 57.0781,278.8438 L57.9844,279.25 Q57.5781,280.9531 56.6094,281.9063 Q55.6563,282.8594 54.3438,282.8594 Z " fill="#000000"/><text fill="#000000" font-family="sans-serif" font-size="14" lengthAdjust="spacing" textLength="49" x="69" y="283.4839">Scooter</text><line style="stroke:#181818;stroke-width:0.5;" x1="41" x2="120" y1="293" y2="293"/><line style="stroke:#181818;stroke-width:0.5;" x1="41" x2="120" y1="301" y2="301"/></g><!--class FuelDeliveryTruck--><g id="elem_FuelDeliveryTruck"><rect fill="#F1F1F1" height="48" id="FuelDeliveryTruck" rx="2.5" ry="2.5" style="stroke:#181818;stroke-width:0.5;" width="147" x="7" y="7"/><ellipse cx="22" cy="23" fill="#ADD1B2" rx="11" ry="11" style="stroke:#181818;stroke-width:1.0;"/><path d="M21.3438,28.8594 Q19.3594,28.8594 18.1875,27.3906 Q17.0313,25.9063 17.0313,22.8281 Q17.0313,20.2188 18.25,18.4688 Q19.4844,16.7188 21.6094,16.7188 Q22.1094,16.7188 22.6406,16.8594 Q23.0781,17.0469 23.3438,17.0469 Q23.5625,17.0469 23.6563,17 Q23.7656,16.9531 24.2188,16.3594 L24.9844,20.0938 L24.0938,20.3594 Q23.6406,18.9063 23.0313,18.3125 Q22.4375,17.7031 21.4844,17.7031 Q20.2656,17.7031 19.5469,19.1406 Q18.8281,20.5625 18.8281,22.75 Q18.8281,25.1563 19.4375,26.4531 Q20.0625,27.7344 21.4219,27.7344 Q22.375,27.7344 23.0625,27.0469 Q23.75,26.3438 24.0781,24.8438 L24.9844,25.25 Q24.5781,26.9531 23.6094,27.9063 Q22.6563,28.8594 21.3438,28.8594 Z " fill="#000000"/><text fill="#000000" font-family="sans-serif" font-size="14" lengthAdjust="spacing" textLength="115" x="36" y="29.4839">FuelDeliveryTruck</text><line style="stroke:#181818;stroke-width:0.5;" x1="8" x2="153" y1="39" y2="39"/><line style="stroke:#181818;stroke-width:0.5;" x1="8" x2="153" y1="47" y2="47"/></g><!--link GasStation to Scooter--><g id="link_GasStation_Scooter"><path codeLine="1" d="M80.5,182.22 C80.5,204.67 80.5,232.5 80.5,254.91 " fill="none" id="GasStation-to-Scooter" style="stroke:#181818;stroke-width:1.0;stroke-dasharray:7.0,7.0;"/><polygon fill="#181818" points="80.5,260.91,84.5,251.91,80.5,255.91,76.5,251.91,80.5,260.91" style="stroke:#181818;stroke-width:1.0;"/><text fill="#000000" font-family="sans-serif" font-size="13" lengthAdjust="spacing" textLength="67" x="81.5" y="227.8979">depends on</text></g><!--link FuelDeliveryTruck to GasStation--><g id="link_FuelDeliveryTruck_GasStation"><path codeLine="2" d="M80.5,55.22 C80.5,77.67 80.5,105.5 80.5,127.91 " fill="none" id="FuelDeliveryTruck-to-GasStation" style="stroke:#181818;stroke-width:1.0;stroke-dasharray:7.0,7.0;"/><polygon fill="#181818" points="80.5,133.91,84.5,124.91,80.5,128.91,76.5,124.91,80.5,133.91" style="stroke:#181818;stroke-width:1.0;"/><text fill="#000000" font-family="sans-serif" font-size="13" lengthAdjust="spacing" textLength="67" x="81.5" y="100.8979">depends on</text></g><!--SRC=[Sqyi3Yv9BCdCprFGqxDJ24xEpoz9BLAmKaX9BKZDIobMoC_ZSYjDpN59pSaiIosg32agJSu6AtL7w4HM3G00]--></g></svg>