<?xml version="1.0" encoding="us-ascii" standalone="no"?><svg xmlns="http://www.w3.org/2000/svg" xmlns:xlink="http://www.w3.org/1999/xlink" contentStyleType="text/css" height="316px" preserveAspectRatio="none" style="width:196px;height:316px;background:#FFFFFF;" version="1.1" viewBox="0 0 196 316" width="196px" zoomAndPan="magnify"><defs/><g><!--class USBCharger--><g id="elem_USBCharger"><rect fill="#F1F1F1" height="48" id="USBCharger" rx="2.5" ry="2.5" style="stroke:#181818;stroke-width:0.5;" width="111" x="42.5" y="134"/><ellipse cx="57.5" cy="150" fill="#ADD1B2" rx="11" ry="11" style="stroke:#181818;stroke-width:1.0;"/><path d="M56.8438,155.8594 Q54.8594,155.8594 53.6875,154.3906 Q52.5313,152.9063 52.5313,149.8281 Q52.5313,147.2188 53.75,145.4688 Q54.9844,143.7188 57.1094,143.7188 Q57.6094,143.7188 58.1406,143.8594 Q58.5781,144.0469 58.8438,144.0469 Q59.0625,144.0469 59.1563,144 Q59.2656,143.9531 59.7188,143.3594 L60.4844,147.0938 L59.5938,147.3594 Q59.1406,145.9063 58.5313,145.3125 Q57.9375,144.7031 56.9844,144.7031 Q55.7656,144.7031 55.0469,146.1406 Q54.3281,147.5625 54.3281,149.75 Q54.3281,152.1563 54.9375,153.4531 Q55.5625,154.7344 56.9219,154.7344 Q57.875,154.7344 58.5625,154.0469 Q59.25,153.3438 59.5781,151.8438 L60.4844,152.25 Q60.0781,153.9531 59.1094,154.9063 Q58.1563,155.8594 56.8438,155.8594 Z " fill="#000000"/><text fill="#000000" font-family="sans-serif" font-size="14" lengthAdjust="spacing" textLength="79" x="71.5" y="156.4839">USBCharger</text><line style="stroke:#181818;stroke-width:0.5;" x1="43.5" x2="152.5" y1="166" y2="166"/><line style="stroke:#181818;stroke-width:0.5;" x1="43.5" x2="152.5" y1="174" y2="174"/></g><!--class HandheldGameConsole--><g id="elem_HandheldGameConsole"><rect fill="#F1F1F1" height="48" id="HandheldGameConsole" rx="2.5" ry="2.5" style="stroke:#181818;stroke-width:0.5;" width="182" x="7" y="261"/><ellipse cx="22" cy="277" fill="#ADD1B2" rx="11" ry="11" style="stroke:#181818;stroke-width:1.0;"/><path d="M21.3438,282.8594 Q19.3594,282.8594 18.1875,281.3906 Q17.0313,279.9063 17.0313,276.8281 Q17.0313,274.2188 18.25,272.4688 Q19.4844,270.7188 21.6094,270.7188 Q22.1094,270.7188 22.6406,270.8594 Q23.0781,271.0469 23.3438,271.0469 Q23.5625,271.0469 23.6563,271 Q23.7656,270.9531 24.2188,270.3594 L24.9844,274.0938 L24.0938,274.3594 Q23.6406,272.9063 23.0313,272.3125 Q22.4375,271.7031 21.4844,271.7031 Q20.2656,271.7031 19.5469,273.1406 Q18.8281,274.5625 18.8281,276.75 Q18.8281,279.1563 19.4375,280.4531 Q20.0625,281.7344 21.4219,281.7344 Q22.375,281.7344 23.0625,281.0469 Q23.75,280.3438 24.0781,278.8438 L24.9844,279.25 Q24.5781,280.9531 23.6094,281.9063 Q22.6563,282.8594 21.3438,282.8594 Z " fill="#000000"/><text fill="#000000" font-family="sans-serif" font-size="14" lengthAdjust="spacing" textLength="150" x="36" y="283.4839">HandheldGameConsole</text><line style="stroke:#181818;stroke-width:0.5;" x1="8" x2="188" y1="293" y2="293"/><line style="stroke:#181818;stroke-width:0.5;" x1="8" x2="188" y1="301" y2="301"/></g><!--class WallOutlet--><g id="elem_WallOutlet"><rect fill="#F1F1F1" height="48" id="WallOutlet" rx="2.5" ry="2.5" style="stroke:#181818;stroke-width:0.5;" width="97" x="49.5" y="7"/><ellipse cx="64.5" cy="23" fill="#ADD1B2" rx="11" ry="11" style="stroke:#181818;stroke-width:1.0;"/><path d="M63.8438,28.8594 Q61.8594,28.8594 60.6875,27.3906 Q59.5313,25.9063 59.5313,22.8281 Q59.5313,20.2188 60.75,18.4688 Q61.9844,16.7188 64.1094,16.7188 Q64.6094,16.7188 65.1406,16.8594 Q65.5781,17.0469 65.8438,17.0469 Q66.0625,17.0469 66.1563,17 Q66.2656,16.9531 66.7188,16.3594 L67.4844,20.0938 L66.5938,20.3594 Q66.1406,18.9063 65.5313,18.3125 Q64.9375,17.7031 63.9844,17.7031 Q62.7656,17.7031 62.0469,19.1406 Q61.3281,20.5625 61.3281,22.75 Q61.3281,25.1563 61.9375,26.4531 Q62.5625,27.7344 63.9219,27.7344 Q64.875,27.7344 65.5625,27.0469 Q66.25,26.3438 66.5781,24.8438 L67.4844,25.25 Q67.0781,26.9531 66.1094,27.9063 Q65.1563,28.8594 63.8438,28.8594 Z " fill="#000000"/><text fill="#000000" font-family="sans-serif" font-size="14" lengthAdjust="spacing" textLength="65" x="78.5" y="29.4839">WallOutlet</text><line style="stroke:#181818;stroke-width:0.5;" x1="50.5" x2="145.5" y1="39" y2="39"/><line style="stroke:#181818;stroke-width:0.5;" x1="50.5" x2="145.5" y1="47" y2="47"/></g><!--link USBCharger to HandheldGameConsole--><g id="link_USBCharger_HandheldGameConsole"><path codeLine="1" d="M98,182.22 C98,204.67 98,232.5 98,254.91 " fill="none" id="USBCharger-to-HandheldGameConsole" style="stroke:#181818;stroke-width:1.0;stroke-dasharray:7.0,7.0;"/><polygon fill="#181818" points="98,260.91,102,251.91,98,255.91,94,251.91,98,260.91" style="stroke:#181818;stroke-width:1.0;"/><text fill="#000000" font-family="sans-serif" font-size="13" lengthAdjust="spacing" textLength="67" x="99" y="227.8979">depends on</text></g><!--link WallOutlet to USBCharger--><g id="link_WallOutlet_USBCharger"><path codeLine="2" d="M98,55.22 C98,77.67 98,105.5 98,127.91 " fill="none" id="WallOutlet-to-USBCharger" style="stroke:#181818;stroke-width:1.0;stroke-dasharray:7.0,7.0;"/><polygon fill="#181818" points="98,133.91,102,124.91,98,128.91,94,124.91,98,133.91" style="stroke:#181818;stroke-width:1.0;"/><text fill="#000000" font-family="sans-serif" font-size="13" lengthAdjust="spacing" textLength="67" x="99" y="100.8979">depends on</text></g><!--SRC=[2mrsSiv8B4fFBLBGqxDJy4ZCIyb8pKbnJynDTSxFAyxFILMmKaX9BKZDIobMoC_Z2a_CoV4lBSb9BG6h3qLeHrO60000]--></g></svg>