<?xml version="1.0" encoding="us-ascii" standalone="no"?><svg xmlns="http://www.w3.org/2000/svg" xmlns:xlink="http://www.w3.org/1999/xlink" contentStyleType="text/css" height="189px" preserveAspectRatio="none" style="width:193px;height:189px;background:#FFFFFF;" version="1.1" viewBox="0 0 193 189" width="193px" zoomAndPan="magnify"><defs/><g><!--class PlaylistPlayback--><g id="elem_PlaylistPlayback"><rect fill="#F1F1F1" height="48" id="PlaylistPlayback" rx="2.5" ry="2.5" style="stroke:#181818;stroke-width:0.5;" width="133" x="30" y="7"/><ellipse cx="45" cy="23" fill="#ADD1B2" rx="11" ry="11" style="stroke:#181818;stroke-width:1.0;"/><path d="M44.3438,28.8594 Q42.3594,28.8594 41.1875,27.3906 Q40.0313,25.9063 40.0313,22.8281 Q40.0313,20.2188 41.25,18.4688 Q42.4844,16.7188 44.6094,16.7188 Q45.1094,16.7188 45.6406,16.8594 Q46.0781,17.0469 46.3438,17.0469 Q46.5625,17.0469 46.6563,17 Q46.7656,16.9531 47.2188,16.3594 L47.9844,20.0938 L47.0938,20.3594 Q46.6406,18.9063 46.0313,18.3125 Q45.4375,17.7031 44.4844,17.7031 Q43.2656,17.7031 42.5469,19.1406 Q41.8281,20.5625 41.8281,22.75 Q41.8281,25.1563 42.4375,26.4531 Q43.0625,27.7344 44.4219,27.7344 Q45.375,27.7344 46.0625,27.0469 Q46.75,26.3438 47.0781,24.8438 L47.9844,25.25 Q47.5781,26.9531 46.6094,27.9063 Q45.6563,28.8594 44.3438,28.8594 Z " fill="#000000"/><text fill="#000000" font-family="sans-serif" font-size="14" lengthAdjust="spacing" textLength="101" x="59" y="29.4839">PlaylistPlayback</text><line style="stroke:#181818;stroke-width:0.5;" x1="31" x2="162" y1="39" y2="39"/><line style="stroke:#181818;stroke-width:0.5;" x1="31" x2="162" y1="47" y2="47"/></g><!--class MusicStreamingService--><g id="elem_MusicStreamingService"><rect fill="#F1F1F1" height="48" id="MusicStreamingService" rx="2.5" ry="2.5" style="stroke:#181818;stroke-width:0.5;" width="179" x="7" y="134"/><ellipse cx="22" cy="150" fill="#ADD1B2" rx="11" ry="11" style="stroke:#181818;stroke-width:1.0;"/><path d="M21.3438,155.8594 Q19.3594,155.8594 18.1875,154.3906 Q17.0313,152.9063 17.0313,149.8281 Q17.0313,147.2188 18.25,145.4688 Q19.4844,143.7188 21.6094,143.7188 Q22.1094,143.7188 22.6406,143.8594 Q23.0781,144.0469 23.3438,144.0469 Q23.5625,144.0469 23.6563,144 Q23.7656,143.9531 24.2188,143.3594 L24.9844,147.0938 L24.0938,147.3594 Q23.6406,145.9063 23.0313,145.3125 Q22.4375,144.7031 21.4844,144.7031 Q20.2656,144.7031 19.5469,146.1406 Q18.8281,147.5625 18.8281,149.75 Q18.8281,152.1563 19.4375,153.4531 Q20.0625,154.7344 21.4219,154.7344 Q22.375,154.7344 23.0625,154.0469 Q23.75,153.3438 24.0781,151.8438 L24.9844,152.25 Q24.5781,153.9531 23.6094,154.9063 Q22.6563,155.8594 21.3438,155.8594 Z " fill="#000000"/><text fill="#000000" font-family="sans-serif" font-size="14" lengthAdjust="spacing" textLength="147" x="36" y="156.4839">MusicStreamingService</text><line style="stroke:#181818;stroke-width:0.5;" x1="8" x2="185" y1="166" y2="166"/><line style="stroke:#181818;stroke-width:0.5;" x1="8" x2="185" y1="174" y2="174"/></g><!--link PlaylistPlayback to MusicStreamingService--><g id="link_PlaylistPlayback_MusicStreamingService"><path codeLine="1" d="M96.5,55.22 C96.5,77.67 96.5,105.5 96.5,127.91 " fill="none" id="PlaylistPlayback-to-MusicStreamingService" style="stroke:#181818;stroke-width:1.0;stroke-dasharray:7.0,7.0;"/><polygon fill="#181818" points="96.5,133.91,100.5,124.91,96.5,128.91,92.5,124.91,96.5,133.91" style="stroke:#181818;stroke-width:1.0;"/><text fill="#000000" font-family="sans-serif" font-size="13" lengthAdjust="spacing" textLength="67" x="97.5" y="100.8979">depends on</text></g><!--SRC=[2yX9hCp9B2u90D99YSdP2dfwTWg-fSMPoS4bHQc9kPbvwS6fHMMPoQaALWefgGMfUId52lbv0000]--></g></svg>