<?xml version="1.0" encoding="us-ascii" standalone="no"?><svg xmlns="http://www.w3.org/2000/svg" xmlns:xlink="http://www.w3.org/1999/xlink" contentStyleType="text/css" height="189px" preserveAspectRatio="none" style="width:242px;height:189px;background:#FFFFFF;" version="1.1" viewBox="0 0 242 189" width="242px" zoomAndPan="magnify"><defs/><g><!--class University--><g id="elem_University"><rect fill="#F1F1F1" height="48" id="University" rx="2.5" ry="2.5" style="stroke:#181818;stroke-width:0.5;" width="93" x="74.5" y="7"/><ellipse cx="89.5" cy="23" fill="#ADD1B2" rx="11" ry="11" style="stroke:#181818;stroke-width:1.0;"/><path d="M88.8438,28.8594 Q86.8594,28.8594 85.6875,27.3906 Q84.5313,25.9063 84.5313,22.8281 Q84.5313,20.2188 85.75,18.4688 Q86.9844,16.7188 89.1094,16.7188 Q89.6094,16.7188 90.1406,16.8594 Q90.5781,17.0469 90.8438,17.0469 Q91.0625,17.0469 91.1563,17 Q91.2656,16.9531 91.7188,16.3594 L92.4844,20.0938 L91.5938,20.3594 Q91.1406,18.9063 90.5313,18.3125 Q89.9375,17.7031 88.9844,17.7031 Q87.7656,17.7031 87.0469,19.1406 Q86.3281,20.5625 86.3281,22.75 Q86.3281,25.1563 86.9375,26.4531 Q87.5625,27.7344 88.9219,27.7344 Q89.875,27.7344 90.5625,27.0469 Q91.25,26.3438 91.5781,24.8438 L92.4844,25.25 Q92.0781,26.9531 91.1094,27.9063 Q90.1563,28.8594 88.8438,28.8594 Z " fill="#000000"/><text fill="#000000" font-family="sans-serif" font-size="14" lengthAdjust="spacing" textLength="61" x="103.5" y="29.4839">University</text><line style="stroke:#181818;stroke-width:0.5;" x1="75.5" x2="166.5" y1="39" y2="39"/><line style="stroke:#181818;stroke-width:0.5;" x1="75.5" x2="166.5" y1="47" y2="47"/></g><!--class SaintPetersburgStateUniversity--><g id="elem_SaintPetersburgStateUniversity"><rect fill="#F1F1F1" height="48" id="SaintPetersburgStateUniversity" rx="2.5" ry="2.5" style="stroke:#181818;stroke-width:0.5;" width="228" x="7" y="134"/><ellipse cx="22" cy="150" fill="#ADD1B2" rx="11" ry="11" style="stroke:#181818;stroke-width:1.0;"/><path d="M21.3438,155.8594 Q19.3594,155.8594 18.1875,154.3906 Q17.0313,152.9063 17.0313,149.8281 Q17.0313,147.2188 18.25,145.4688 Q19.4844,143.7188 21.6094,143.7188 Q22.1094,143.7188 22.6406,143.8594 Q23.0781,144.0469 23.3438,144.0469 Q23.5625,144.0469 23.6563,144 Q23.7656,143.9531 24.2188,143.3594 L24.9844,147.0938 L24.0938,147.3594 Q23.6406,145.9063 23.0313,145.3125 Q22.4375,144.7031 21.4844,144.7031 Q20.2656,144.7031 19.5469,146.1406 Q18.8281,147.5625 18.8281,149.75 Q18.8281,152.1563 19.4375,153.4531 Q20.0625,154.7344 21.4219,154.7344 Q22.375,154.7344 23.0625,154.0469 Q23.75,153.3438 24.0781,151.8438 L24.9844,152.25 Q24.5781,153.9531 23.6094,154.9063 Q22.6563,155.8594 21.3438,155.8594 Z " fill="#000000"/><text fill="#000000" font-family="sans-serif" font-size="14" lengthAdjust="spacing" textLength="196" x="36" y="156.4839">SaintPetersburgStateUniversity</text><line style="stroke:#181818;stroke-width:0.5;" x1="8" x2="234" y1="166" y2="166"/><line style="stroke:#181818;stroke-width:0.5;" x1="8" x2="234" y1="174" y2="174"/></g><!--reverse link University to SaintPetersburgStateUniversity--><g id="link_University_SaintPetersburgStateUniversity"><path codeLine="1" d="M121,73.22 C121,95.67 121,111.5 121,133.91 " fill="none" id="University-backto-SaintPetersburgStateUniversity" style="stroke:#181818;stroke-width:1.0;"/><polygon fill="none" points="121,55.22,115,73.22,127,73.22,121,55.22" style="stroke:#181818;stroke-width:1.0;"/><text fill="#000000" font-family="sans-serif" font-size="13" lengthAdjust="spacing" textLength="42" x="122" y="100.8979">inherits</text></g><!--SRC=[2ytBB4ijAiuigLImgT7LLGXEpCmh2KWj0OebbHQb1vSabgI68jHOAMJcPQGMPPOK0m00]--></g></svg>