<?xml version="1.0" encoding="us-ascii" standalone="no"?><svg xmlns="http://www.w3.org/2000/svg" xmlns:xlink="http://www.w3.org/1999/xlink" contentStyleType="text/css" height="189px" preserveAspectRatio="none" style="width:285px;height:189px;background:#FFFFFF;" version="1.1" viewBox="0 0 285 189" width="285px" zoomAndPan="magnify"><defs/><g><!--class University--><g id="elem_University"><rect fill="#F1F1F1" height="48" id="University" rx="2.5" ry="2.5" style="stroke:#181818;stroke-width:0.5;" width="93" x="96" y="7"/><ellipse cx="111" cy="23" fill="#ADD1B2" rx="11" ry="11" style="stroke:#181818;stroke-width:1.0;"/><path d="M110.3438,28.8594 Q108.3594,28.8594 107.1875,27.3906 Q106.0313,25.9063 106.0313,22.8281 Q106.0313,20.2188 107.25,18.4688 Q108.4844,16.7188 110.6094,16.7188 Q111.1094,16.7188 111.6406,16.8594 Q112.0781,17.0469 112.3438,17.0469 Q112.5625,17.0469 112.6563,17 Q112.7656,16.9531 113.2188,16.3594 L113.9844,20.0938 L113.0938,20.3594 Q112.6406,18.9063 112.0313,18.3125 Q111.4375,17.7031 110.4844,17.7031 Q109.2656,17.7031 108.5469,19.1406 Q107.8281,20.5625 107.8281,22.75 Q107.8281,25.1563 108.4375,26.4531 Q109.0625,27.7344 110.4219,27.7344 Q111.375,27.7344 112.0625,27.0469 Q112.75,26.3438 113.0781,24.8438 L113.9844,25.25 Q113.5781,26.9531 112.6094,27.9063 Q111.6563,28.8594 110.3438,28.8594 Z " fill="#000000"/><text fill="#000000" font-family="sans-serif" font-size="14" lengthAdjust="spacing" textLength="61" x="125" y="29.4839">University</text><line style="stroke:#181818;stroke-width:0.5;" x1="97" x2="188" y1="39" y2="39"/><line style="stroke:#181818;stroke-width:0.5;" x1="97" x2="188" y1="47" y2="47"/></g><!--class UniversityOfNorthCarolinaAtChapelHill--><g id="elem_UniversityOfNorthCarolinaAtChapelHill"><rect fill="#F1F1F1" height="48" id="UniversityOfNorthCarolinaAtChapelHill" rx="2.5" ry="2.5" style="stroke:#181818;stroke-width:0.5;" width="271" x="7" y="134"/><ellipse cx="22" cy="150" fill="#ADD1B2" rx="11" ry="11" style="stroke:#181818;stroke-width:1.0;"/><path d="M21.3438,155.8594 Q19.3594,155.8594 18.1875,154.3906 Q17.0313,152.9063 17.0313,149.8281 Q17.0313,147.2188 18.25,145.4688 Q19.4844,143.7188 21.6094,143.7188 Q22.1094,143.7188 22.6406,143.8594 Q23.0781,144.0469 23.3438,144.0469 Q23.5625,144.0469 23.6563,144 Q23.7656,143.9531 24.2188,143.3594 L24.9844,147.0938 L24.0938,147.3594 Q23.6406,145.9063 23.0313,145.3125 Q22.4375,144.7031 21.4844,144.7031 Q20.2656,144.7031 19.5469,146.1406 Q18.8281,147.5625 18.8281,149.75 Q18.8281,152.1563 19.4375,153.4531 Q20.0625,154.7344 21.4219,154.7344 Q22.375,154.7344 23.0625,154.0469 Q23.75,153.3438 24.0781,151.8438 L24.9844,152.25 Q24.5781,153.9531 23.6094,154.9063 Q22.6563,155.8594 21.3438,155.8594 Z " fill="#000000"/><text fill="#000000" font-family="sans-serif" font-size="14" lengthAdjust="spacing" textLength="239" x="36" y="156.4839">UniversityOfNorthCarolinaAtChapelHill</text><line style="stroke:#181818;stroke-width:0.5;" x1="8" x2="277" y1="166" y2="166"/><line style="stroke:#181818;stroke-width:0.5;" x1="8" x2="277" y1="174" y2="174"/></g><!--reverse link University to UniversityOfNorthCarolinaAtChapelHill--><g id="link_University_UniversityOfNorthCarolinaAtChapelHill"><path codeLine="1" d="M142.5,73.22 C142.5,95.67 142.5,111.5 142.5,133.91 " fill="none" id="University-backto-UniversityOfNorthCarolinaAtChapelHill" style="stroke:#181818;stroke-width:1.0;"/><polygon fill="none" points="142.5,55.22,136.5,73.22,148.5,73.22,142.5,55.22" style="stroke:#181818;stroke-width:1.0;"/><text fill="#000000" font-family="sans-serif" font-size="13" lengthAdjust="spacing" textLength="42" x="143.5" y="100.8979">inherits</text></g><!--SRC=[2ytBB4ijAiuigLImgT7LLGY5y_tJ_FABIZAS4uloSpBp4XrBd3CI2r9pF39pSXIi53BpCbABCakA0G00]--></g></svg>