<?xml version="1.0" encoding="us-ascii" standalone="no"?><svg xmlns="http://www.w3.org/2000/svg" xmlns:xlink="http://www.w3.org/1999/xlink" contentStyleType="text/css" height="189px" preserveAspectRatio="none" style="width:144px;height:189px;background:#FFFFFF;" version="1.1" viewBox="0 0 144 189" width="144px" zoomAndPan="magnify"><defs/><g><!--class SwarmOfFirefly--><g id="elem_SwarmOfFirefly"><rect fill="#F1F1F1" height="48" id="SwarmOfFirefly" rx="2.5" ry="2.5" style="stroke:#181818;stroke-width:0.5;" width="128" x="7" y="7"/><ellipse cx="22" cy="23" fill="#ADD1B2" rx="11" ry="11" style="stroke:#181818;stroke-width:1.0;"/><path d="M21.3438,28.8594 Q19.3594,28.8594 18.1875,27.3906 Q17.0313,25.9063 17.0313,22.8281 Q17.0313,20.2188 18.25,18.4688 Q19.4844,16.7188 21.6094,16.7188 Q22.1094,16.7188 22.6406,16.8594 Q23.0781,17.0469 23.3438,17.0469 Q23.5625,17.0469 23.6563,17 Q23.7656,16.9531 24.2188,16.3594 L24.9844,20.0938 L24.0938,20.3594 Q23.6406,18.9063 23.0313,18.3125 Q22.4375,17.7031 21.4844,17.7031 Q20.2656,17.7031 19.5469,19.1406 Q18.8281,20.5625 18.8281,22.75 Q18.8281,25.1563 19.4375,26.4531 Q20.0625,27.7344 21.4219,27.7344 Q22.375,27.7344 23.0625,27.0469 Q23.75,26.3438 24.0781,24.8438 L24.9844,25.25 Q24.5781,26.9531 23.6094,27.9063 Q22.6563,28.8594 21.3438,28.8594 Z " fill="#000000"/><text fill="#000000" font-family="sans-serif" font-size="14" lengthAdjust="spacing" textLength="96" x="36" y="29.4839">SwarmOfFirefly</text><line style="stroke:#181818;stroke-width:0.5;" x1="8" x2="134" y1="39" y2="39"/><line style="stroke:#181818;stroke-width:0.5;" x1="8" x2="134" y1="47" y2="47"/></g><!--class Aviary--><g id="elem_Aviary"><rect fill="#F1F1F1" height="48" id="Aviary" rx="2.5" ry="2.5" style="stroke:#181818;stroke-width:0.5;" width="71" x="35.5" y="134"/><ellipse cx="50.5" cy="150" fill="#ADD1B2" rx="11" ry="11" style="stroke:#181818;stroke-width:1.0;"/><path d="M49.8438,155.8594 Q47.8594,155.8594 46.6875,154.3906 Q45.5313,152.9063 45.5313,149.8281 Q45.5313,147.2188 46.75,145.4688 Q47.9844,143.7188 50.1094,143.7188 Q50.6094,143.7188 51.1406,143.8594 Q51.5781,144.0469 51.8438,144.0469 Q52.0625,144.0469 52.1563,144 Q52.2656,143.9531 52.7188,143.3594 L53.4844,147.0938 L52.5938,147.3594 Q52.1406,145.9063 51.5313,145.3125 Q50.9375,144.7031 49.9844,144.7031 Q48.7656,144.7031 48.0469,146.1406 Q47.3281,147.5625 47.3281,149.75 Q47.3281,152.1563 47.9375,153.4531 Q48.5625,154.7344 49.9219,154.7344 Q50.875,154.7344 51.5625,154.0469 Q52.25,153.3438 52.5781,151.8438 L53.4844,152.25 Q53.0781,153.9531 52.1094,154.9063 Q51.1563,155.8594 49.8438,155.8594 Z " fill="#000000"/><text fill="#000000" font-family="sans-serif" font-size="14" lengthAdjust="spacing" textLength="39" x="64.5" y="156.4839">Aviary</text><line style="stroke:#181818;stroke-width:0.5;" x1="36.5" x2="105.5" y1="166" y2="166"/><line style="stroke:#181818;stroke-width:0.5;" x1="36.5" x2="105.5" y1="174" y2="174"/></g><!--reverse link SwarmOfFirefly to Aviary--><g id="link_SwarmOfFirefly_Aviary"><path codeLine="1" d="M71,67.22 C71,89.67 71,111.5 71,133.91 " fill="none" id="SwarmOfFirefly-backto-Aviary" style="stroke:#181818;stroke-width:1.0;"/><polygon fill="none" points="71,55.22,67,61.22,71,67.22,75,61.22,71,55.22" style="stroke:#181818;stroke-width:1.0;"/><text fill="#000000" font-family="sans-serif" font-size="13" lengthAdjust="spacing" textLength="64" x="72" y="100.8979">aggregates</text></g><!--SRC=[2ovFBChrJtFBB4fDowbKoDVLLN0ioqmigbImKaXCJozAJKyiIIq60000]--></g></svg>