<?xml version="1.0" encoding="us-ascii" standalone="no"?><svg xmlns="http://www.w3.org/2000/svg" xmlns:xlink="http://www.w3.org/1999/xlink" contentStyleType="text/css" height="316px" preserveAspectRatio="none" style="width:140px;height:316px;background:#FFFFFF;" version="1.1" viewBox="0 0 140 316" width="140px" zoomAndPan="magnify"><defs/><g><!--class DieselTrain--><g id="elem_DieselTrain"><rect fill="#F1F1F1" height="48" id="DieselTrain" rx="2.5" ry="2.5" style="stroke:#181818;stroke-width:0.5;" width="104" x="12" y="134"/><ellipse cx="27" cy="150" fill="#ADD1B2" rx="11" ry="11" style="stroke:#181818;stroke-width:1.0;"/><path d="M26.3438,155.8594 Q24.3594,155.8594 23.1875,154.3906 Q22.0313,152.9063 22.0313,149.8281 Q22.0313,147.2188 23.25,145.4688 Q24.4844,143.7188 26.6094,143.7188 Q27.1094,143.7188 27.6406,143.8594 Q28.0781,144.0469 28.3438,144.0469 Q28.5625,144.0469 28.6563,144 Q28.7656,143.9531 29.2188,143.3594 L29.9844,147.0938 L29.0938,147.3594 Q28.6406,145.9063 28.0313,145.3125 Q27.4375,144.7031 26.4844,144.7031 Q25.2656,144.7031 24.5469,146.1406 Q23.8281,147.5625 23.8281,149.75 Q23.8281,152.1563 24.4375,153.4531 Q25.0625,154.7344 26.4219,154.7344 Q27.375,154.7344 28.0625,154.0469 Q28.75,153.3438 29.0781,151.8438 L29.9844,152.25 Q29.5781,153.9531 28.6094,154.9063 Q27.6563,155.8594 26.3438,155.8594 Z " fill="#000000"/><text fill="#000000" font-family="sans-serif" font-size="14" lengthAdjust="spacing" textLength="72" x="41" y="156.4839">DieselTrain</text><line style="stroke:#181818;stroke-width:0.5;" x1="13" x2="115" y1="166" y2="166"/><line style="stroke:#181818;stroke-width:0.5;" x1="13" x2="115" y1="174" y2="174"/></g><!--class PublicTransit--><g id="elem_PublicTransit"><rect fill="#F1F1F1" height="48" id="PublicTransit" rx="2.5" ry="2.5" style="stroke:#181818;stroke-width:0.5;" width="114" x="7" y="261"/><ellipse cx="22" cy="277" fill="#ADD1B2" rx="11" ry="11" style="stroke:#181818;stroke-width:1.0;"/><path d="M21.3438,282.8594 Q19.3594,282.8594 18.1875,281.3906 Q17.0313,279.9063 17.0313,276.8281 Q17.0313,274.2188 18.25,272.4688 Q19.4844,270.7188 21.6094,270.7188 Q22.1094,270.7188 22.6406,270.8594 Q23.0781,271.0469 23.3438,271.0469 Q23.5625,271.0469 23.6563,271 Q23.7656,270.9531 24.2188,270.3594 L24.9844,274.0938 L24.0938,274.3594 Q23.6406,272.9063 23.0313,272.3125 Q22.4375,271.7031 21.4844,271.7031 Q20.2656,271.7031 19.5469,273.1406 Q18.8281,274.5625 18.8281,276.75 Q18.8281,279.1563 19.4375,280.4531 Q20.0625,281.7344 21.4219,281.7344 Q22.375,281.7344 23.0625,281.0469 Q23.75,280.3438 24.0781,278.8438 L24.9844,279.25 Q24.5781,280.9531 23.6094,281.9063 Q22.6563,282.8594 21.3438,282.8594 Z " fill="#000000"/><text fill="#000000" font-family="sans-serif" font-size="14" lengthAdjust="spacing" textLength="82" x="36" y="283.4839">PublicTransit</text><line style="stroke:#181818;stroke-width:0.5;" x1="8" x2="120" y1="293" y2="293"/><line style="stroke:#181818;stroke-width:0.5;" x1="8" x2="120" y1="301" y2="301"/></g><!--class DieselFuel--><g id="elem_DieselFuel"><rect fill="#F1F1F1" height="48" id="DieselFuel" rx="2.5" ry="2.5" style="stroke:#181818;stroke-width:0.5;" width="99" x="14.5" y="7"/><ellipse cx="29.5" cy="23" fill="#ADD1B2" rx="11" ry="11" style="stroke:#181818;stroke-width:1.0;"/><path d="M28.8438,28.8594 Q26.8594,28.8594 25.6875,27.3906 Q24.5313,25.9063 24.5313,22.8281 Q24.5313,20.2188 25.75,18.4688 Q26.9844,16.7188 29.1094,16.7188 Q29.6094,16.7188 30.1406,16.8594 Q30.5781,17.0469 30.8438,17.0469 Q31.0625,17.0469 31.1563,17 Q31.2656,16.9531 31.7188,16.3594 L32.4844,20.0938 L31.5938,20.3594 Q31.1406,18.9063 30.5313,18.3125 Q29.9375,17.7031 28.9844,17.7031 Q27.7656,17.7031 27.0469,19.1406 Q26.3281,20.5625 26.3281,22.75 Q26.3281,25.1563 26.9375,26.4531 Q27.5625,27.7344 28.9219,27.7344 Q29.875,27.7344 30.5625,27.0469 Q31.25,26.3438 31.5781,24.8438 L32.4844,25.25 Q32.0781,26.9531 31.1094,27.9063 Q30.1563,28.8594 28.8438,28.8594 Z " fill="#000000"/><text fill="#000000" font-family="sans-serif" font-size="14" lengthAdjust="spacing" textLength="67" x="43.5" y="29.4839">DieselFuel</text><line style="stroke:#181818;stroke-width:0.5;" x1="15.5" x2="112.5" y1="39" y2="39"/><line style="stroke:#181818;stroke-width:0.5;" x1="15.5" x2="112.5" y1="47" y2="47"/></g><!--link DieselTrain to PublicTransit--><g id="link_DieselTrain_PublicTransit"><path codeLine="1" d="M64,182.22 C64,204.67 64,232.5 64,254.91 " fill="none" id="DieselTrain-to-PublicTransit" style="stroke:#181818;stroke-width:1.0;stroke-dasharray:7.0,7.0;"/><polygon fill="#181818" points="64,260.91,68,251.91,64,255.91,60,251.91,64,260.91" style="stroke:#181818;stroke-width:1.0;"/><text fill="#000000" font-family="sans-serif" font-size="13" lengthAdjust="spacing" textLength="67" x="65" y="227.8979">depends on</text></g><!--link DieselFuel to DieselTrain--><g id="link_DieselFuel_DieselTrain"><path codeLine="2" d="M64,55.22 C64,77.67 64,105.5 64,127.91 " fill="none" id="DieselFuel-to-DieselTrain" style="stroke:#181818;stroke-width:1.0;stroke-dasharray:7.0,7.0;"/><polygon fill="#181818" points="64,133.91,68,124.91,64,128.91,60,124.91,64,133.91" style="stroke:#181818;stroke-width:1.0;"/><text fill="#000000" font-family="sans-serif" font-size="13" lengthAdjust="spacing" textLength="67" x="65" y="100.8979">depends on</text></g><!--SRC=[SybCBKxD2IbApCnJqDEpKmWeJSh9J0RoyuepInIi559I2rBpKeeLylEuNC1AtKfJSy0gNP1q8gi30000]--></g></svg>