<?xml version="1.0" encoding="us-ascii" standalone="no"?><svg xmlns="http://www.w3.org/2000/svg" xmlns:xlink="http://www.w3.org/1999/xlink" contentStyleType="text/css" height="316px" preserveAspectRatio="none" style="width:179px;height:316px;background:#FFFFFF;" version="1.1" viewBox="0 0 179 316" width="179px" zoomAndPan="magnify"><defs/><g><!--class Helicopter--><g id="elem_Helicopter"><rect fill="#F1F1F1" height="48" id="Helicopter" rx="2.5" ry="2.5" style="stroke:#181818;stroke-width:0.5;" width="95" x="42" y="134"/><ellipse cx="57" cy="150" fill="#ADD1B2" rx="11" ry="11" style="stroke:#181818;stroke-width:1.0;"/><path d="M56.3438,155.8594 Q54.3594,155.8594 53.1875,154.3906 Q52.0313,152.9063 52.0313,149.8281 Q52.0313,147.2188 53.25,145.4688 Q54.4844,143.7188 56.6094,143.7188 Q57.1094,143.7188 57.6406,143.8594 Q58.0781,144.0469 58.3438,144.0469 Q58.5625,144.0469 58.6563,144 Q58.7656,143.9531 59.2188,143.3594 L59.9844,147.0938 L59.0938,147.3594 Q58.6406,145.9063 58.0313,145.3125 Q57.4375,144.7031 56.4844,144.7031 Q55.2656,144.7031 54.5469,146.1406 Q53.8281,147.5625 53.8281,149.75 Q53.8281,152.1563 54.4375,153.4531 Q55.0625,154.7344 56.4219,154.7344 Q57.375,154.7344 58.0625,154.0469 Q58.75,153.3438 59.0781,151.8438 L59.9844,152.25 Q59.5781,153.9531 58.6094,154.9063 Q57.6563,155.8594 56.3438,155.8594 Z " fill="#000000"/><text fill="#000000" font-family="sans-serif" font-size="14" lengthAdjust="spacing" textLength="63" x="71" y="156.4839">Helicopter</text><line style="stroke:#181818;stroke-width:0.5;" x1="43" x2="136" y1="166" y2="166"/><line style="stroke:#181818;stroke-width:0.5;" x1="43" x2="136" y1="174" y2="174"/></g><!--class EmergencyTransport--><g id="elem_EmergencyTransport"><rect fill="#F1F1F1" height="48" id="EmergencyTransport" rx="2.5" ry="2.5" style="stroke:#181818;stroke-width:0.5;" width="165" x="7" y="261"/><ellipse cx="22" cy="277" fill="#ADD1B2" rx="11" ry="11" style="stroke:#181818;stroke-width:1.0;"/><path d="M21.3438,282.8594 Q19.3594,282.8594 18.1875,281.3906 Q17.0313,279.9063 17.0313,276.8281 Q17.0313,274.2188 18.25,272.4688 Q19.4844,270.7188 21.6094,270.7188 Q22.1094,270.7188 22.6406,270.8594 Q23.0781,271.0469 23.3438,271.0469 Q23.5625,271.0469 23.6563,271 Q23.7656,270.9531 24.2188,270.3594 L24.9844,274.0938 L24.0938,274.3594 Q23.6406,272.9063 23.0313,272.3125 Q22.4375,271.7031 21.4844,271.7031 Q20.2656,271.7031 19.5469,273.1406 Q18.8281,274.5625 18.8281,276.75 Q18.8281,279.1563 19.4375,280.4531 Q20.0625,281.7344 21.4219,281.7344 Q22.375,281.7344 23.0625,281.0469 Q23.75,280.3438 24.0781,278.8438 L24.9844,279.25 Q24.5781,280.9531 23.6094,281.9063 Q22.6563,282.8594 21.3438,282.8594 Z " fill="#000000"/><text fill="#000000" font-family="sans-serif" font-size="14" lengthAdjust="spacing" textLength="133" x="36" y="283.4839">EmergencyTransport</text><line style="stroke:#181818;stroke-width:0.5;" x1="8" x2="171" y1="293" y2="293"/><line style="stroke:#181818;stroke-width:0.5;" x1="8" x2="171" y1="301" y2="301"/></g><!--class JetFuel--><g id="elem_JetFuel"><rect fill="#F1F1F1" height="48" id="JetFuel" rx="2.5" ry="2.5" style="stroke:#181818;stroke-width:0.5;" width="78" x="50.5" y="7"/><ellipse cx="65.5" cy="23" fill="#ADD1B2" rx="11" ry="11" style="stroke:#181818;stroke-width:1.0;"/><path d="M64.8438,28.8594 Q62.8594,28.8594 61.6875,27.3906 Q60.5313,25.9063 60.5313,22.8281 Q60.5313,20.2188 61.75,18.4688 Q62.9844,16.7188 65.1094,16.7188 Q65.6094,16.7188 66.1406,16.8594 Q66.5781,17.0469 66.8438,17.0469 Q67.0625,17.0469 67.1563,17 Q67.2656,16.9531 67.7188,16.3594 L68.4844,20.0938 L67.5938,20.3594 Q67.1406,18.9063 66.5313,18.3125 Q65.9375,17.7031 64.9844,17.7031 Q63.7656,17.7031 63.0469,19.1406 Q62.3281,20.5625 62.3281,22.75 Q62.3281,25.1563 62.9375,26.4531 Q63.5625,27.7344 64.9219,27.7344 Q65.875,27.7344 66.5625,27.0469 Q67.25,26.3438 67.5781,24.8438 L68.4844,25.25 Q68.0781,26.9531 67.1094,27.9063 Q66.1563,28.8594 64.8438,28.8594 Z " fill="#000000"/><text fill="#000000" font-family="sans-serif" font-size="14" lengthAdjust="spacing" textLength="46" x="79.5" y="29.4839">JetFuel</text><line style="stroke:#181818;stroke-width:0.5;" x1="51.5" x2="127.5" y1="39" y2="39"/><line style="stroke:#181818;stroke-width:0.5;" x1="51.5" x2="127.5" y1="47" y2="47"/></g><!--link Helicopter to EmergencyTransport--><g id="link_Helicopter_EmergencyTransport"><path codeLine="1" d="M89.5,182.22 C89.5,204.67 89.5,232.5 89.5,254.91 " fill="none" id="Helicopter-to-EmergencyTransport" style="stroke:#181818;stroke-width:1.0;stroke-dasharray:7.0,7.0;"/><polygon fill="#181818" points="89.5,260.91,93.5,251.91,89.5,255.91,85.5,251.91,89.5,260.91" style="stroke:#181818;stroke-width:1.0;"/><text fill="#000000" font-family="sans-serif" font-size="13" lengthAdjust="spacing" textLength="67" x="90.5" y="227.8979">depends on</text></g><!--link JetFuel to Helicopter--><g id="link_JetFuel_Helicopter"><path codeLine="2" d="M89.5,55.22 C89.5,77.67 89.5,105.5 89.5,127.91 " fill="none" id="JetFuel-to-Helicopter" style="stroke:#181818;stroke-width:1.0;stroke-dasharray:7.0,7.0;"/><polygon fill="#181818" points="89.5,133.91,93.5,124.91,89.5,128.91,85.5,124.91,89.5,133.91" style="stroke:#181818;stroke-width:1.0;"/><text fill="#000000" font-family="sans-serif" font-size="13" lengthAdjust="spacing" textLength="67" x="90.5" y="100.8979">depends on</text></g><!--SRC=[yqZDoKpEBoX9BLBGqxDJSCrDBKfFpKkk32bAp2iko2ygKR1II4ajICrBALR8p-FoIYrnAqtD0QlrG6X5LWC0]--></g></svg>