<?xml version="1.0" encoding="us-ascii" standalone="no"?><svg xmlns="http://www.w3.org/2000/svg" xmlns:xlink="http://www.w3.org/1999/xlink" contentStyleType="text/css" height="189px" preserveAspectRatio="none" style="width:199px;height:189px;background:#FFFFFF;" version="1.1" viewBox="0 0 199 189" width="199px" zoomAndPan="magnify"><defs/><g><!--class TheSilenceOfTheLambs--><g id="elem_TheSilenceOfTheLambs"><rect fill="#F1F1F1" height="48" id="TheSilenceOfTheLambs" rx="2.5" ry="2.5" style="stroke:#181818;stroke-width:0.5;" width="185" x="7" y="7"/><ellipse cx="22" cy="23" fill="#ADD1B2" rx="11" ry="11" style="stroke:#181818;stroke-width:1.0;"/><path d="M21.3438,28.8594 Q19.3594,28.8594 18.1875,27.3906 Q17.0313,25.9063 17.0313,22.8281 Q17.0313,20.2188 18.25,18.4688 Q19.4844,16.7188 21.6094,16.7188 Q22.1094,16.7188 22.6406,16.8594 Q23.0781,17.0469 23.3438,17.0469 Q23.5625,17.0469 23.6563,17 Q23.7656,16.9531 24.2188,16.3594 L24.9844,20.0938 L24.0938,20.3594 Q23.6406,18.9063 23.0313,18.3125 Q22.4375,17.7031 21.4844,17.7031 Q20.2656,17.7031 19.5469,19.1406 Q18.8281,20.5625 18.8281,22.75 Q18.8281,25.1563 19.4375,26.4531 Q20.0625,27.7344 21.4219,27.7344 Q22.375,27.7344 23.0625,27.0469 Q23.75,26.3438 24.0781,24.8438 L24.9844,25.25 Q24.5781,26.9531 23.6094,27.9063 Q22.6563,28.8594 21.3438,28.8594 Z " fill="#000000"/><text fill="#000000" font-family="sans-serif" font-size="14" lengthAdjust="spacing" textLength="153" x="36" y="29.4839">TheSilenceOfTheLambs</text><line style="stroke:#181818;stroke-width:0.5;" x1="8" x2="191" y1="39" y2="39"/><line style="stroke:#181818;stroke-width:0.5;" x1="8" x2="191" y1="47" y2="47"/></g><!--class Film--><g id="elem_Film"><rect fill="#F1F1F1" height="48" id="Film" rx="2.5" ry="2.5" style="stroke:#181818;stroke-width:0.5;" width="58" x="70.5" y="134"/><ellipse cx="85.5" cy="150" fill="#ADD1B2" rx="11" ry="11" style="stroke:#181818;stroke-width:1.0;"/><path d="M84.8438,155.8594 Q82.8594,155.8594 81.6875,154.3906 Q80.5313,152.9063 80.5313,149.8281 Q80.5313,147.2188 81.75,145.4688 Q82.9844,143.7188 85.1094,143.7188 Q85.6094,143.7188 86.1406,143.8594 Q86.5781,144.0469 86.8438,144.0469 Q87.0625,144.0469 87.1563,144 Q87.2656,143.9531 87.7188,143.3594 L88.4844,147.0938 L87.5938,147.3594 Q87.1406,145.9063 86.5313,145.3125 Q85.9375,144.7031 84.9844,144.7031 Q83.7656,144.7031 83.0469,146.1406 Q82.3281,147.5625 82.3281,149.75 Q82.3281,152.1563 82.9375,153.4531 Q83.5625,154.7344 84.9219,154.7344 Q85.875,154.7344 86.5625,154.0469 Q87.25,153.3438 87.5781,151.8438 L88.4844,152.25 Q88.0781,153.9531 87.1094,154.9063 Q86.1563,155.8594 84.8438,155.8594 Z " fill="#000000"/><text fill="#000000" font-family="sans-serif" font-size="14" lengthAdjust="spacing" textLength="26" x="99.5" y="156.4839">Film</text><line style="stroke:#181818;stroke-width:0.5;" x1="71.5" x2="127.5" y1="166" y2="166"/><line style="stroke:#181818;stroke-width:0.5;" x1="71.5" x2="127.5" y1="174" y2="174"/></g><!--reverse link TheSilenceOfTheLambs to Film--><g id="link_TheSilenceOfTheLambs_Film"><path codeLine="1" d="M99.5,73.22 C99.5,95.67 99.5,111.5 99.5,133.91 " fill="none" id="TheSilenceOfTheLambs-backto-Film" style="stroke:#181818;stroke-width:1.0;"/><polygon fill="none" points="99.5,55.22,93.5,73.22,105.5,73.22,99.5,55.22" style="stroke:#181818;stroke-width:1.0;"/><text fill="#000000" font-family="sans-serif" font-size="13" lengthAdjust="spacing" textLength="42" x="100.5" y="100.8979">inherits</text></g><!--SRC=[2yb83SxCISrBJlLF2yb8zKdCJIfMiAdHrLLmoyp9LR1IoCpBI2tAB2a60000]--></g></svg>