<?xml version="1.0" encoding="us-ascii" standalone="no"?><svg xmlns="http://www.w3.org/2000/svg" xmlns:xlink="http://www.w3.org/1999/xlink" contentStyleType="text/css" height="316px" preserveAspectRatio="none" style="width:146px;height:316px;background:#FFFFFF;" version="1.1" viewBox="0 0 146 316" width="146px" zoomAndPan="magnify"><defs/><g><!--class WheelAssembly--><g id="elem_WheelAssembly"><rect fill="#F1F1F1" height="48" id="WheelAssembly" rx="2.5" ry="2.5" style="stroke:#181818;stroke-width:0.5;" width="132" x="7" y="134"/><ellipse cx="22" cy="150" fill="#ADD1B2" rx="11" ry="11" style="stroke:#181818;stroke-width:1.0;"/><path d="M21.3438,155.8594 Q19.3594,155.8594 18.1875,154.3906 Q17.0313,152.9063 17.0313,149.8281 Q17.0313,147.2188 18.25,145.4688 Q19.4844,143.7188 21.6094,143.7188 Q22.1094,143.7188 22.6406,143.8594 Q23.0781,144.0469 23.3438,144.0469 Q23.5625,144.0469 23.6563,144 Q23.7656,143.9531 24.2188,143.3594 L24.9844,147.0938 L24.0938,147.3594 Q23.6406,145.9063 23.0313,145.3125 Q22.4375,144.7031 21.4844,144.7031 Q20.2656,144.7031 19.5469,146.1406 Q18.8281,147.5625 18.8281,149.75 Q18.8281,152.1563 19.4375,153.4531 Q20.0625,154.7344 21.4219,154.7344 Q22.375,154.7344 23.0625,154.0469 Q23.75,153.3438 24.0781,151.8438 L24.9844,152.25 Q24.5781,153.9531 23.6094,154.9063 Q22.6563,155.8594 21.3438,155.8594 Z " fill="#000000"/><text fill="#000000" font-family="sans-serif" font-size="14" lengthAdjust="spacing" textLength="100" x="36" y="156.4839">WheelAssembly</text><line style="stroke:#181818;stroke-width:0.5;" x1="8" x2="138" y1="166" y2="166"/><line style="stroke:#181818;stroke-width:0.5;" x1="8" x2="138" y1="174" y2="174"/></g><!--class Hub--><g id="elem_Hub"><rect fill="#F1F1F1" height="48" id="Hub" rx="2.5" ry="2.5" style="stroke:#181818;stroke-width:0.5;" width="57" x="44.5" y="261"/><ellipse cx="59.5" cy="277" fill="#ADD1B2" rx="11" ry="11" style="stroke:#181818;stroke-width:1.0;"/><path d="M58.8438,282.8594 Q56.8594,282.8594 55.6875,281.3906 Q54.5313,279.9063 54.5313,276.8281 Q54.5313,274.2188 55.75,272.4688 Q56.9844,270.7188 59.1094,270.7188 Q59.6094,270.7188 60.1406,270.8594 Q60.5781,271.0469 60.8438,271.0469 Q61.0625,271.0469 61.1563,271 Q61.2656,270.9531 61.7188,270.3594 L62.4844,274.0938 L61.5938,274.3594 Q61.1406,272.9063 60.5313,272.3125 Q59.9375,271.7031 58.9844,271.7031 Q57.7656,271.7031 57.0469,273.1406 Q56.3281,274.5625 56.3281,276.75 Q56.3281,279.1563 56.9375,280.4531 Q57.5625,281.7344 58.9219,281.7344 Q59.875,281.7344 60.5625,281.0469 Q61.25,280.3438 61.5781,278.8438 L62.4844,279.25 Q62.0781,280.9531 61.1094,281.9063 Q60.1563,282.8594 58.8438,282.8594 Z " fill="#000000"/><text fill="#000000" font-family="sans-serif" font-size="14" lengthAdjust="spacing" textLength="25" x="73.5" y="283.4839">Hub</text><line style="stroke:#181818;stroke-width:0.5;" x1="45.5" x2="100.5" y1="293" y2="293"/><line style="stroke:#181818;stroke-width:0.5;" x1="45.5" x2="100.5" y1="301" y2="301"/></g><!--class Car--><g id="elem_Car"><rect fill="#F1F1F1" height="48" id="Car" rx="2.5" ry="2.5" style="stroke:#181818;stroke-width:0.5;" width="55" x="45.5" y="7"/><ellipse cx="60.5" cy="23" fill="#ADD1B2" rx="11" ry="11" style="stroke:#181818;stroke-width:1.0;"/><path d="M59.8438,28.8594 Q57.8594,28.8594 56.6875,27.3906 Q55.5313,25.9063 55.5313,22.8281 Q55.5313,20.2188 56.75,18.4688 Q57.9844,16.7188 60.1094,16.7188 Q60.6094,16.7188 61.1406,16.8594 Q61.5781,17.0469 61.8438,17.0469 Q62.0625,17.0469 62.1563,17 Q62.2656,16.9531 62.7188,16.3594 L63.4844,20.0938 L62.5938,20.3594 Q62.1406,18.9063 61.5313,18.3125 Q60.9375,17.7031 59.9844,17.7031 Q58.7656,17.7031 58.0469,19.1406 Q57.3281,20.5625 57.3281,22.75 Q57.3281,25.1563 57.9375,26.4531 Q58.5625,27.7344 59.9219,27.7344 Q60.875,27.7344 61.5625,27.0469 Q62.25,26.3438 62.5781,24.8438 L63.4844,25.25 Q63.0781,26.9531 62.1094,27.9063 Q61.1563,28.8594 59.8438,28.8594 Z " fill="#000000"/><text fill="#000000" font-family="sans-serif" font-size="14" lengthAdjust="spacing" textLength="23" x="74.5" y="29.4839">Car</text><line style="stroke:#181818;stroke-width:0.5;" x1="46.5" x2="99.5" y1="39" y2="39"/><line style="stroke:#181818;stroke-width:0.5;" x1="46.5" x2="99.5" y1="47" y2="47"/></g><!--reverse link WheelAssembly to Hub--><g id="link_WheelAssembly_Hub"><path codeLine="1" d="M73,194.22 C73,216.67 73,238.5 73,260.91 " fill="none" id="WheelAssembly-backto-Hub" style="stroke:#181818;stroke-width:1.0;"/><polygon fill="#181818" points="73,182.22,69,188.22,73,194.22,77,188.22,73,182.22" style="stroke:#181818;stroke-width:1.0;"/><text fill="#000000" font-family="sans-serif" font-size="13" lengthAdjust="spacing" textLength="60" x="74" y="227.8979">composes</text></g><!--reverse link Car to WheelAssembly--><g id="link_Car_WheelAssembly"><path codeLine="2" d="M73,67.22 C73,89.67 73,111.5 73,133.91 " fill="none" id="Car-backto-WheelAssembly" style="stroke:#181818;stroke-width:1.0;"/><polygon fill="#181818" points="73,55.22,69,61.22,73,67.22,77,61.22,73,55.22" style="stroke:#181818;stroke-width:1.0;"/><text fill="#000000" font-family="sans-serif" font-size="13" lengthAdjust="spacing" textLength="60" x="74" y="100.8979">composes</text></g><!--SRC=[2yz8JSrnB2vEpKtAgLJGqjLLy2XDKh1IICxFBSWlJYtcSaui0Wk7eoX4A000]--></g></svg>