<?xml version="1.0" encoding="us-ascii" standalone="no"?><svg xmlns="http://www.w3.org/2000/svg" xmlns:xlink="http://www.w3.org/1999/xlink" contentStyleType="text/css" height="316px" preserveAspectRatio="none" style="width:114px;height:316px;background:#FFFFFF;" version="1.1" viewBox="0 0 114 316" width="114px" zoomAndPan="magnify"><defs/><g><!--class Wing--><g id="elem_Wing"><rect fill="#F1F1F1" height="48" id="Wing" rx="2.5" ry="2.5" style="stroke:#181818;stroke-width:0.5;" width="64" x="13" y="134"/><ellipse cx="28" cy="150" fill="#ADD1B2" rx="11" ry="11" style="stroke:#181818;stroke-width:1.0;"/><path d="M27.3438,155.8594 Q25.3594,155.8594 24.1875,154.3906 Q23.0313,152.9063 23.0313,149.8281 Q23.0313,147.2188 24.25,145.4688 Q25.4844,143.7188 27.6094,143.7188 Q28.1094,143.7188 28.6406,143.8594 Q29.0781,144.0469 29.3438,144.0469 Q29.5625,144.0469 29.6563,144 Q29.7656,143.9531 30.2188,143.3594 L30.9844,147.0938 L30.0938,147.3594 Q29.6406,145.9063 29.0313,145.3125 Q28.4375,144.7031 27.4844,144.7031 Q26.2656,144.7031 25.5469,146.1406 Q24.8281,147.5625 24.8281,149.75 Q24.8281,152.1563 25.4375,153.4531 Q26.0625,154.7344 27.4219,154.7344 Q28.375,154.7344 29.0625,154.0469 Q29.75,153.3438 30.0781,151.8438 L30.9844,152.25 Q30.5781,153.9531 29.6094,154.9063 Q28.6563,155.8594 27.3438,155.8594 Z " fill="#000000"/><text fill="#000000" font-family="sans-serif" font-size="14" lengthAdjust="spacing" textLength="32" x="42" y="156.4839">Wing</text><line style="stroke:#181818;stroke-width:0.5;" x1="14" x2="76" y1="166" y2="166"/><line style="stroke:#181818;stroke-width:0.5;" x1="14" x2="76" y1="174" y2="174"/></g><!--class Aileron--><g id="elem_Aileron"><rect fill="#F1F1F1" height="48" id="Aileron" rx="2.5" ry="2.5" style="stroke:#181818;stroke-width:0.5;" width="76" x="7" y="261"/><ellipse cx="22" cy="277" fill="#ADD1B2" rx="11" ry="11" style="stroke:#181818;stroke-width:1.0;"/><path d="M21.3438,282.8594 Q19.3594,282.8594 18.1875,281.3906 Q17.0313,279.9063 17.0313,276.8281 Q17.0313,274.2188 18.25,272.4688 Q19.4844,270.7188 21.6094,270.7188 Q22.1094,270.7188 22.6406,270.8594 Q23.0781,271.0469 23.3438,271.0469 Q23.5625,271.0469 23.6563,271 Q23.7656,270.9531 24.2188,270.3594 L24.9844,274.0938 L24.0938,274.3594 Q23.6406,272.9063 23.0313,272.3125 Q22.4375,271.7031 21.4844,271.7031 Q20.2656,271.7031 19.5469,273.1406 Q18.8281,274.5625 18.8281,276.75 Q18.8281,279.1563 19.4375,280.4531 Q20.0625,281.7344 21.4219,281.7344 Q22.375,281.7344 23.0625,281.0469 Q23.75,280.3438 24.0781,278.8438 L24.9844,279.25 Q24.5781,280.9531 23.6094,281.9063 Q22.6563,282.8594 21.3438,282.8594 Z " fill="#000000"/><text fill="#000000" font-family="sans-serif" font-size="14" lengthAdjust="spacing" textLength="44" x="36" y="283.4839">Aileron</text><line style="stroke:#181818;stroke-width:0.5;" x1="8" x2="82" y1="293" y2="293"/><line style="stroke:#181818;stroke-width:0.5;" x1="8" x2="82" y1="301" y2="301"/></g><!--class Glider--><g id="elem_Glider"><rect fill="#F1F1F1" height="48" id="Glider" rx="2.5" ry="2.5" style="stroke:#181818;stroke-width:0.5;" width="70" x="10" y="7"/><ellipse cx="25" cy="23" fill="#ADD1B2" rx="11" ry="11" style="stroke:#181818;stroke-width:1.0;"/><path d="M24.3438,28.8594 Q22.3594,28.8594 21.1875,27.3906 Q20.0313,25.9063 20.0313,22.8281 Q20.0313,20.2188 21.25,18.4688 Q22.4844,16.7188 24.6094,16.7188 Q25.1094,16.7188 25.6406,16.8594 Q26.0781,17.0469 26.3438,17.0469 Q26.5625,17.0469 26.6563,17 Q26.7656,16.9531 27.2188,16.3594 L27.9844,20.0938 L27.0938,20.3594 Q26.6406,18.9063 26.0313,18.3125 Q25.4375,17.7031 24.4844,17.7031 Q23.2656,17.7031 22.5469,19.1406 Q21.8281,20.5625 21.8281,22.75 Q21.8281,25.1563 22.4375,26.4531 Q23.0625,27.7344 24.4219,27.7344 Q25.375,27.7344 26.0625,27.0469 Q26.75,26.3438 27.0781,24.8438 L27.9844,25.25 Q27.5781,26.9531 26.6094,27.9063 Q25.6563,28.8594 24.3438,28.8594 Z " fill="#000000"/><text fill="#000000" font-family="sans-serif" font-size="14" lengthAdjust="spacing" textLength="38" x="39" y="29.4839">Glider</text><line style="stroke:#181818;stroke-width:0.5;" x1="11" x2="79" y1="39" y2="39"/><line style="stroke:#181818;stroke-width:0.5;" x1="11" x2="79" y1="47" y2="47"/></g><!--reverse link Wing to Aileron--><g id="link_Wing_Aileron"><path codeLine="1" d="M45,194.22 C45,216.67 45,238.5 45,260.91 " fill="none" id="Wing-backto-Aileron" style="stroke:#181818;stroke-width:1.0;"/><polygon fill="#181818" points="45,182.22,41,188.22,45,194.22,49,188.22,45,182.22" style="stroke:#181818;stroke-width:1.0;"/><text fill="#000000" font-family="sans-serif" font-size="13" lengthAdjust="spacing" textLength="60" x="46" y="227.8979">composes</text></g><!--reverse link Glider to Wing--><g id="link_Glider_Wing"><path codeLine="2" d="M45,67.22 C45,89.67 45,111.5 45,133.91 " fill="none" id="Glider-backto-Wing" style="stroke:#181818;stroke-width:1.0;"/><polygon fill="#181818" points="45,55.22,41,61.22,45,67.22,49,61.22,45,55.22" style="stroke:#181818;stroke-width:1.0;"/><text fill="#000000" font-family="sans-serif" font-size="13" lengthAdjust="spacing" textLength="60" x="46" y="100.8979">composes</text></g><!--SRC=[2y_CIrVGqjLLSCpCIItAprEmKaZEpot8BqujvdBFoKn9BGBBXeEK8QG0]--></g></svg>