<?xml version="1.0" encoding="us-ascii" standalone="no"?><svg xmlns="http://www.w3.org/2000/svg" xmlns:xlink="http://www.w3.org/1999/xlink" contentStyleType="text/css" height="316px" preserveAspectRatio="none" style="width:128px;height:316px;background:#FFFFFF;" version="1.1" viewBox="0 0 128 316" width="128px" zoomAndPan="magnify"><defs/><g><!--class Door--><g id="elem_Door"><rect fill="#F1F1F1" height="48" id="Door" rx="2.5" ry="2.5" style="stroke:#181818;stroke-width:0.5;" width="63" x="27.5" y="134"/><ellipse cx="42.5" cy="150" fill="#ADD1B2" rx="11" ry="11" style="stroke:#181818;stroke-width:1.0;"/><path d="M41.8438,155.8594 Q39.8594,155.8594 38.6875,154.3906 Q37.5313,152.9063 37.5313,149.8281 Q37.5313,147.2188 38.75,145.4688 Q39.9844,143.7188 42.1094,143.7188 Q42.6094,143.7188 43.1406,143.8594 Q43.5781,144.0469 43.8438,144.0469 Q44.0625,144.0469 44.1563,144 Q44.2656,143.9531 44.7188,143.3594 L45.4844,147.0938 L44.5938,147.3594 Q44.1406,145.9063 43.5313,145.3125 Q42.9375,144.7031 41.9844,144.7031 Q40.7656,144.7031 40.0469,146.1406 Q39.3281,147.5625 39.3281,149.75 Q39.3281,152.1563 39.9375,153.4531 Q40.5625,154.7344 41.9219,154.7344 Q42.875,154.7344 43.5625,154.0469 Q44.25,153.3438 44.5781,151.8438 L45.4844,152.25 Q45.0781,153.9531 44.1094,154.9063 Q43.1563,155.8594 41.8438,155.8594 Z " fill="#000000"/><text fill="#000000" font-family="sans-serif" font-size="14" lengthAdjust="spacing" textLength="31" x="56.5" y="156.4839">Door</text><line style="stroke:#181818;stroke-width:0.5;" x1="28.5" x2="89.5" y1="166" y2="166"/><line style="stroke:#181818;stroke-width:0.5;" x1="28.5" x2="89.5" y1="174" y2="174"/></g><!--class DoorFrame--><g id="elem_DoorFrame"><rect fill="#F1F1F1" height="48" id="DoorFrame" rx="2.5" ry="2.5" style="stroke:#181818;stroke-width:0.5;" width="104" x="7" y="261"/><ellipse cx="22" cy="277" fill="#ADD1B2" rx="11" ry="11" style="stroke:#181818;stroke-width:1.0;"/><path d="M21.3438,282.8594 Q19.3594,282.8594 18.1875,281.3906 Q17.0313,279.9063 17.0313,276.8281 Q17.0313,274.2188 18.25,272.4688 Q19.4844,270.7188 21.6094,270.7188 Q22.1094,270.7188 22.6406,270.8594 Q23.0781,271.0469 23.3438,271.0469 Q23.5625,271.0469 23.6563,271 Q23.7656,270.9531 24.2188,270.3594 L24.9844,274.0938 L24.0938,274.3594 Q23.6406,272.9063 23.0313,272.3125 Q22.4375,271.7031 21.4844,271.7031 Q20.2656,271.7031 19.5469,273.1406 Q18.8281,274.5625 18.8281,276.75 Q18.8281,279.1563 19.4375,280.4531 Q20.0625,281.7344 21.4219,281.7344 Q22.375,281.7344 23.0625,281.0469 Q23.75,280.3438 24.0781,278.8438 L24.9844,279.25 Q24.5781,280.9531 23.6094,281.9063 Q22.6563,282.8594 21.3438,282.8594 Z " fill="#000000"/><text fill="#000000" font-family="sans-serif" font-size="14" lengthAdjust="spacing" textLength="72" x="36" y="283.4839">DoorFrame</text><line style="stroke:#181818;stroke-width:0.5;" x1="8" x2="110" y1="293" y2="293"/><line style="stroke:#181818;stroke-width:0.5;" x1="8" x2="110" y1="301" y2="301"/></g><!--class House--><g id="elem_House"><rect fill="#F1F1F1" height="48" id="House" rx="2.5" ry="2.5" style="stroke:#181818;stroke-width:0.5;" width="72" x="23" y="7"/><ellipse cx="38" cy="23" fill="#ADD1B2" rx="11" ry="11" style="stroke:#181818;stroke-width:1.0;"/><path d="M37.3438,28.8594 Q35.3594,28.8594 34.1875,27.3906 Q33.0313,25.9063 33.0313,22.8281 Q33.0313,20.2188 34.25,18.4688 Q35.4844,16.7188 37.6094,16.7188 Q38.1094,16.7188 38.6406,16.8594 Q39.0781,17.0469 39.3438,17.0469 Q39.5625,17.0469 39.6563,17 Q39.7656,16.9531 40.2188,16.3594 L40.9844,20.0938 L40.0938,20.3594 Q39.6406,18.9063 39.0313,18.3125 Q38.4375,17.7031 37.4844,17.7031 Q36.2656,17.7031 35.5469,19.1406 Q34.8281,20.5625 34.8281,22.75 Q34.8281,25.1563 35.4375,26.4531 Q36.0625,27.7344 37.4219,27.7344 Q38.375,27.7344 39.0625,27.0469 Q39.75,26.3438 40.0781,24.8438 L40.9844,25.25 Q40.5781,26.9531 39.6094,27.9063 Q38.6563,28.8594 37.3438,28.8594 Z " fill="#000000"/><text fill="#000000" font-family="sans-serif" font-size="14" lengthAdjust="spacing" textLength="40" x="52" y="29.4839">House</text><line style="stroke:#181818;stroke-width:0.5;" x1="24" x2="94" y1="39" y2="39"/><line style="stroke:#181818;stroke-width:0.5;" x1="24" x2="94" y1="47" y2="47"/></g><!--reverse link Door to DoorFrame--><g id="link_Door_DoorFrame"><path codeLine="1" d="M59,194.22 C59,216.67 59,238.5 59,260.91 " fill="none" id="Door-backto-DoorFrame" style="stroke:#181818;stroke-width:1.0;"/><polygon fill="#181818" points="59,182.22,55,188.22,59,194.22,63,188.22,59,182.22" style="stroke:#181818;stroke-width:1.0;"/><text fill="#000000" font-family="sans-serif" font-size="13" lengthAdjust="spacing" textLength="60" x="60" y="227.8979">composes</text></g><!--reverse link House to Door--><g id="link_House_Door"><path codeLine="2" d="M59,67.22 C59,89.67 59,111.5 59,133.91 " fill="none" id="House-backto-Door" style="stroke:#181818;stroke-width:1.0;"/><polygon fill="#181818" points="59,55.22,55,61.22,59,67.22,63,61.22,59,55.22" style="stroke:#181818;stroke-width:1.0;"/><text fill="#000000" font-family="sans-serif" font-size="13" lengthAdjust="spacing" textLength="60" x="60" y="100.8979">composes</text></g><!--SRC=[SydFBrBGqjLLS04ot8eISrCLh1IIytCByejJYxayyakBK-7II380]--></g></svg>