<?xml version="1.0" encoding="us-ascii" standalone="no"?><svg xmlns="http://www.w3.org/2000/svg" xmlns:xlink="http://www.w3.org/1999/xlink" contentStyleType="text/css" height="316px" preserveAspectRatio="none" style="width:134px;height:316px;background:#FFFFFF;" version="1.1" viewBox="0 0 134 316" width="134px" zoomAndPan="magnify"><defs/><g><!--class Toilet--><g id="elem_Toilet"><rect fill="#F1F1F1" height="48" id="Toilet" rx="2.5" ry="2.5" style="stroke:#181818;stroke-width:0.5;" width="67" x="24.5" y="134"/><ellipse cx="39.5" cy="150" fill="#ADD1B2" rx="11" ry="11" style="stroke:#181818;stroke-width:1.0;"/><path d="M38.8438,155.8594 Q36.8594,155.8594 35.6875,154.3906 Q34.5313,152.9063 34.5313,149.8281 Q34.5313,147.2188 35.75,145.4688 Q36.9844,143.7188 39.1094,143.7188 Q39.6094,143.7188 40.1406,143.8594 Q40.5781,144.0469 40.8438,144.0469 Q41.0625,144.0469 41.1563,144 Q41.2656,143.9531 41.7188,143.3594 L42.4844,147.0938 L41.5938,147.3594 Q41.1406,145.9063 40.5313,145.3125 Q39.9375,144.7031 38.9844,144.7031 Q37.7656,144.7031 37.0469,146.1406 Q36.3281,147.5625 36.3281,149.75 Q36.3281,152.1563 36.9375,153.4531 Q37.5625,154.7344 38.9219,154.7344 Q39.875,154.7344 40.5625,154.0469 Q41.25,153.3438 41.5781,151.8438 L42.4844,152.25 Q42.0781,153.9531 41.1094,154.9063 Q40.1563,155.8594 38.8438,155.8594 Z " fill="#000000"/><text fill="#000000" font-family="sans-serif" font-size="14" lengthAdjust="spacing" textLength="35" x="53.5" y="156.4839">Toilet</text><line style="stroke:#181818;stroke-width:0.5;" x1="25.5" x2="90.5" y1="166" y2="166"/><line style="stroke:#181818;stroke-width:0.5;" x1="25.5" x2="90.5" y1="174" y2="174"/></g><!--class TapWater--><g id="elem_TapWater"><rect fill="#F1F1F1" height="48" id="TapWater" rx="2.5" ry="2.5" style="stroke:#181818;stroke-width:0.5;" width="95" x="10.5" y="261"/><ellipse cx="25.5" cy="277" fill="#ADD1B2" rx="11" ry="11" style="stroke:#181818;stroke-width:1.0;"/><path d="M24.8438,282.8594 Q22.8594,282.8594 21.6875,281.3906 Q20.5313,279.9063 20.5313,276.8281 Q20.5313,274.2188 21.75,272.4688 Q22.9844,270.7188 25.1094,270.7188 Q25.6094,270.7188 26.1406,270.8594 Q26.5781,271.0469 26.8438,271.0469 Q27.0625,271.0469 27.1563,271 Q27.2656,270.9531 27.7188,270.3594 L28.4844,274.0938 L27.5938,274.3594 Q27.1406,272.9063 26.5313,272.3125 Q25.9375,271.7031 24.9844,271.7031 Q23.7656,271.7031 23.0469,273.1406 Q22.3281,274.5625 22.3281,276.75 Q22.3281,279.1563 22.9375,280.4531 Q23.5625,281.7344 24.9219,281.7344 Q25.875,281.7344 26.5625,281.0469 Q27.25,280.3438 27.5781,278.8438 L28.4844,279.25 Q28.0781,280.9531 27.1094,281.9063 Q26.1563,282.8594 24.8438,282.8594 Z " fill="#000000"/><text fill="#000000" font-family="sans-serif" font-size="14" lengthAdjust="spacing" textLength="63" x="39.5" y="283.4839">TapWater</text><line style="stroke:#181818;stroke-width:0.5;" x1="11.5" x2="104.5" y1="293" y2="293"/><line style="stroke:#181818;stroke-width:0.5;" x1="11.5" x2="104.5" y1="301" y2="301"/></g><!--class ToiletFlush--><g id="elem_ToiletFlush"><rect fill="#F1F1F1" height="48" id="ToiletFlush" rx="2.5" ry="2.5" style="stroke:#181818;stroke-width:0.5;" width="102" x="7" y="7"/><ellipse cx="22" cy="23" fill="#ADD1B2" rx="11" ry="11" style="stroke:#181818;stroke-width:1.0;"/><path d="M21.3438,28.8594 Q19.3594,28.8594 18.1875,27.3906 Q17.0313,25.9063 17.0313,22.8281 Q17.0313,20.2188 18.25,18.4688 Q19.4844,16.7188 21.6094,16.7188 Q22.1094,16.7188 22.6406,16.8594 Q23.0781,17.0469 23.3438,17.0469 Q23.5625,17.0469 23.6563,17 Q23.7656,16.9531 24.2188,16.3594 L24.9844,20.0938 L24.0938,20.3594 Q23.6406,18.9063 23.0313,18.3125 Q22.4375,17.7031 21.4844,17.7031 Q20.2656,17.7031 19.5469,19.1406 Q18.8281,20.5625 18.8281,22.75 Q18.8281,25.1563 19.4375,26.4531 Q20.0625,27.7344 21.4219,27.7344 Q22.375,27.7344 23.0625,27.0469 Q23.75,26.3438 24.0781,24.8438 L24.9844,25.25 Q24.5781,26.9531 23.6094,27.9063 Q22.6563,28.8594 21.3438,28.8594 Z " fill="#000000"/><text fill="#000000" font-family="sans-serif" font-size="14" lengthAdjust="spacing" textLength="70" x="36" y="29.4839">ToiletFlush</text><line style="stroke:#181818;stroke-width:0.5;" x1="8" x2="108" y1="39" y2="39"/><line style="stroke:#181818;stroke-width:0.5;" x1="8" x2="108" y1="47" y2="47"/></g><!--link Toilet to TapWater--><g id="link_Toilet_TapWater"><path codeLine="1" d="M58,182.22 C58,204.67 58,232.5 58,254.91 " fill="none" id="Toilet-to-TapWater" style="stroke:#181818;stroke-width:1.0;stroke-dasharray:7.0,7.0;"/><polygon fill="#181818" points="58,260.91,62,251.91,58,255.91,54,251.91,58,260.91" style="stroke:#181818;stroke-width:1.0;"/><text fill="#000000" font-family="sans-serif" font-size="13" lengthAdjust="spacing" textLength="67" x="59" y="227.8979">depends on</text></g><!--link ToiletFlush to Toilet--><g id="link_ToiletFlush_Toilet"><path codeLine="2" d="M58,55.22 C58,77.67 58,105.5 58,127.91 " fill="none" id="ToiletFlush-to-Toilet" style="stroke:#181818;stroke-width:1.0;stroke-dasharray:7.0,7.0;"/><polygon fill="#181818" points="58,133.91,62,124.91,58,128.91,54,124.91,58,133.91" style="stroke:#181818;stroke-width:1.0;"/><text fill="#000000" font-family="sans-serif" font-size="13" lengthAdjust="spacing" textLength="67" x="59" y="100.8979">depends on</text></g><!--SRC=[2ydFp4ajKT3JirC8IIm8Jon9BLAmKaX9BKZDIobMoC_Z2W4hSCifBSw0g89eG5O30000]--></g></svg>