<?xml version="1.0" encoding="us-ascii" standalone="no"?><svg xmlns="http://www.w3.org/2000/svg" xmlns:xlink="http://www.w3.org/1999/xlink" contentStyleType="text/css" height="316px" preserveAspectRatio="none" style="width:189px;height:316px;background:#FFFFFF;" version="1.1" viewBox="0 0 189 316" width="189px" zoomAndPan="magnify"><defs/><g><!--class CarbonMonoxideAlarm--><g id="elem_CarbonMonoxideAlarm"><rect fill="#F1F1F1" height="48" id="CarbonMonoxideAlarm" rx="2.5" ry="2.5" style="stroke:#181818;stroke-width:0.5;" width="175" x="7" y="134"/><ellipse cx="22" cy="150" fill="#ADD1B2" rx="11" ry="11" style="stroke:#181818;stroke-width:1.0;"/><path d="M21.3438,155.8594 Q19.3594,155.8594 18.1875,154.3906 Q17.0313,152.9063 17.0313,149.8281 Q17.0313,147.2188 18.25,145.4688 Q19.4844,143.7188 21.6094,143.7188 Q22.1094,143.7188 22.6406,143.8594 Q23.0781,144.0469 23.3438,144.0469 Q23.5625,144.0469 23.6563,144 Q23.7656,143.9531 24.2188,143.3594 L24.9844,147.0938 L24.0938,147.3594 Q23.6406,145.9063 23.0313,145.3125 Q22.4375,144.7031 21.4844,144.7031 Q20.2656,144.7031 19.5469,146.1406 Q18.8281,147.5625 18.8281,149.75 Q18.8281,152.1563 19.4375,153.4531 Q20.0625,154.7344 21.4219,154.7344 Q22.375,154.7344 23.0625,154.0469 Q23.75,153.3438 24.0781,151.8438 L24.9844,152.25 Q24.5781,153.9531 23.6094,154.9063 Q22.6563,155.8594 21.3438,155.8594 Z " fill="#000000"/><text fill="#000000" font-family="sans-serif" font-size="14" lengthAdjust="spacing" textLength="143" x="36" y="156.4839">CarbonMonoxideAlarm</text><line style="stroke:#181818;stroke-width:0.5;" x1="8" x2="181" y1="166" y2="166"/><line style="stroke:#181818;stroke-width:0.5;" x1="8" x2="181" y1="174" y2="174"/></g><!--class Electricity--><g id="elem_Electricity"><rect fill="#F1F1F1" height="48" id="Electricity" rx="2.5" ry="2.5" style="stroke:#181818;stroke-width:0.5;" width="92" x="48.5" y="261"/><ellipse cx="63.5" cy="277" fill="#ADD1B2" rx="11" ry="11" style="stroke:#181818;stroke-width:1.0;"/><path d="M62.8438,282.8594 Q60.8594,282.8594 59.6875,281.3906 Q58.5313,279.9063 58.5313,276.8281 Q58.5313,274.2188 59.75,272.4688 Q60.9844,270.7188 63.1094,270.7188 Q63.6094,270.7188 64.1406,270.8594 Q64.5781,271.0469 64.8438,271.0469 Q65.0625,271.0469 65.1563,271 Q65.2656,270.9531 65.7188,270.3594 L66.4844,274.0938 L65.5938,274.3594 Q65.1406,272.9063 64.5313,272.3125 Q63.9375,271.7031 62.9844,271.7031 Q61.7656,271.7031 61.0469,273.1406 Q60.3281,274.5625 60.3281,276.75 Q60.3281,279.1563 60.9375,280.4531 Q61.5625,281.7344 62.9219,281.7344 Q63.875,281.7344 64.5625,281.0469 Q65.25,280.3438 65.5781,278.8438 L66.4844,279.25 Q66.0781,280.9531 65.1094,281.9063 Q64.1563,282.8594 62.8438,282.8594 Z " fill="#000000"/><text fill="#000000" font-family="sans-serif" font-size="14" lengthAdjust="spacing" textLength="60" x="77.5" y="283.4839">Electricity</text><line style="stroke:#181818;stroke-width:0.5;" x1="49.5" x2="139.5" y1="293" y2="293"/><line style="stroke:#181818;stroke-width:0.5;" x1="49.5" x2="139.5" y1="301" y2="301"/></g><!--class HomeSecurity--><g id="elem_HomeSecurity"><rect fill="#F1F1F1" height="48" id="HomeSecurity" rx="2.5" ry="2.5" style="stroke:#181818;stroke-width:0.5;" width="119" x="35" y="7"/><ellipse cx="50" cy="23" fill="#ADD1B2" rx="11" ry="11" style="stroke:#181818;stroke-width:1.0;"/><path d="M49.3438,28.8594 Q47.3594,28.8594 46.1875,27.3906 Q45.0313,25.9063 45.0313,22.8281 Q45.0313,20.2188 46.25,18.4688 Q47.4844,16.7188 49.6094,16.7188 Q50.1094,16.7188 50.6406,16.8594 Q51.0781,17.0469 51.3438,17.0469 Q51.5625,17.0469 51.6563,17 Q51.7656,16.9531 52.2188,16.3594 L52.9844,20.0938 L52.0938,20.3594 Q51.6406,18.9063 51.0313,18.3125 Q50.4375,17.7031 49.4844,17.7031 Q48.2656,17.7031 47.5469,19.1406 Q46.8281,20.5625 46.8281,22.75 Q46.8281,25.1563 47.4375,26.4531 Q48.0625,27.7344 49.4219,27.7344 Q50.375,27.7344 51.0625,27.0469 Q51.75,26.3438 52.0781,24.8438 L52.9844,25.25 Q52.5781,26.9531 51.6094,27.9063 Q50.6563,28.8594 49.3438,28.8594 Z " fill="#000000"/><text fill="#000000" font-family="sans-serif" font-size="14" lengthAdjust="spacing" textLength="87" x="64" y="29.4839">HomeSecurity</text><line style="stroke:#181818;stroke-width:0.5;" x1="36" x2="153" y1="39" y2="39"/><line style="stroke:#181818;stroke-width:0.5;" x1="36" x2="153" y1="47" y2="47"/></g><!--link CarbonMonoxideAlarm to Electricity--><g id="link_CarbonMonoxideAlarm_Electricity"><path codeLine="1" d="M94.5,182.22 C94.5,204.67 94.5,232.5 94.5,254.91 " fill="none" id="CarbonMonoxideAlarm-to-Electricity" style="stroke:#181818;stroke-width:1.0;stroke-dasharray:7.0,7.0;"/><polygon fill="#181818" points="94.5,260.91,98.5,251.91,94.5,255.91,90.5,251.91,94.5,260.91" style="stroke:#181818;stroke-width:1.0;"/><text fill="#000000" font-family="sans-serif" font-size="13" lengthAdjust="spacing" textLength="67" x="95.5" y="227.8979">depends on</text></g><!--link HomeSecurity to CarbonMonoxideAlarm--><g id="link_HomeSecurity_CarbonMonoxideAlarm"><path codeLine="2" d="M94.5,55.22 C94.5,77.67 94.5,105.5 94.5,127.91 " fill="none" id="HomeSecurity-to-CarbonMonoxideAlarm" style="stroke:#181818;stroke-width:1.0;stroke-dasharray:7.0,7.0;"/><polygon fill="#181818" points="94.5,133.91,98.5,124.91,94.5,128.91,90.5,124.91,94.5,133.91" style="stroke:#181818;stroke-width:1.0;"/><text fill="#000000" font-family="sans-serif" font-size="13" lengthAdjust="spacing" textLength="67" x="95.5" y="100.8979">depends on</text></g><!--SRC=[SquiIihFyytFow_8J4brp4aiobNGqxDJSCr9JIufoapEBAbKi598IIr8pKifLiZFu_B8pqqDJaqkBGB9W5GwOp41MGS0]--></g></svg>