<?xml version="1.0" encoding="us-ascii" standalone="no"?><svg xmlns="http://www.w3.org/2000/svg" xmlns:xlink="http://www.w3.org/1999/xlink" contentStyleType="text/css" height="316px" preserveAspectRatio="none" style="width:138px;height:316px;background:#FFFFFF;" version="1.1" viewBox="0 0 138 316" width="138px" zoomAndPan="magnify"><defs/><g><!--class GasFurnace--><g id="elem_GasFurnace"><rect fill="#F1F1F1" height="48" id="GasFurnace" rx="2.5" ry="2.5" style="stroke:#181818;stroke-width:0.5;" width="111" x="7" y="134"/><ellipse cx="22" cy="150" fill="#ADD1B2" rx="11" ry="11" style="stroke:#181818;stroke-width:1.0;"/><path d="M21.3438,155.8594 Q19.3594,155.8594 18.1875,154.3906 Q17.0313,152.9063 17.0313,149.8281 Q17.0313,147.2188 18.25,145.4688 Q19.4844,143.7188 21.6094,143.7188 Q22.1094,143.7188 22.6406,143.8594 Q23.0781,144.0469 23.3438,144.0469 Q23.5625,144.0469 23.6563,144 Q23.7656,143.9531 24.2188,143.3594 L24.9844,147.0938 L24.0938,147.3594 Q23.6406,145.9063 23.0313,145.3125 Q22.4375,144.7031 21.4844,144.7031 Q20.2656,144.7031 19.5469,146.1406 Q18.8281,147.5625 18.8281,149.75 Q18.8281,152.1563 19.4375,153.4531 Q20.0625,154.7344 21.4219,154.7344 Q22.375,154.7344 23.0625,154.0469 Q23.75,153.3438 24.0781,151.8438 L24.9844,152.25 Q24.5781,153.9531 23.6094,154.9063 Q22.6563,155.8594 21.3438,155.8594 Z " fill="#000000"/><text fill="#000000" font-family="sans-serif" font-size="14" lengthAdjust="spacing" textLength="79" x="36" y="156.4839">GasFurnace</text><line style="stroke:#181818;stroke-width:0.5;" x1="8" x2="117" y1="166" y2="166"/><line style="stroke:#181818;stroke-width:0.5;" x1="8" x2="117" y1="174" y2="174"/></g><!--class NaturalGas--><g id="elem_NaturalGas"><rect fill="#F1F1F1" height="48" id="NaturalGas" rx="2.5" ry="2.5" style="stroke:#181818;stroke-width:0.5;" width="103" x="11" y="261"/><ellipse cx="26" cy="277" fill="#ADD1B2" rx="11" ry="11" style="stroke:#181818;stroke-width:1.0;"/><path d="M25.3438,282.8594 Q23.3594,282.8594 22.1875,281.3906 Q21.0313,279.9063 21.0313,276.8281 Q21.0313,274.2188 22.25,272.4688 Q23.4844,270.7188 25.6094,270.7188 Q26.1094,270.7188 26.6406,270.8594 Q27.0781,271.0469 27.3438,271.0469 Q27.5625,271.0469 27.6563,271 Q27.7656,270.9531 28.2188,270.3594 L28.9844,274.0938 L28.0938,274.3594 Q27.6406,272.9063 27.0313,272.3125 Q26.4375,271.7031 25.4844,271.7031 Q24.2656,271.7031 23.5469,273.1406 Q22.8281,274.5625 22.8281,276.75 Q22.8281,279.1563 23.4375,280.4531 Q24.0625,281.7344 25.4219,281.7344 Q26.375,281.7344 27.0625,281.0469 Q27.75,280.3438 28.0781,278.8438 L28.9844,279.25 Q28.5781,280.9531 27.6094,281.9063 Q26.6563,282.8594 25.3438,282.8594 Z " fill="#000000"/><text fill="#000000" font-family="sans-serif" font-size="14" lengthAdjust="spacing" textLength="71" x="40" y="283.4839">NaturalGas</text><line style="stroke:#181818;stroke-width:0.5;" x1="12" x2="113" y1="293" y2="293"/><line style="stroke:#181818;stroke-width:0.5;" x1="12" x2="113" y1="301" y2="301"/></g><!--class WarmAir--><g id="elem_WarmAir"><rect fill="#F1F1F1" height="48" id="WarmAir" rx="2.5" ry="2.5" style="stroke:#181818;stroke-width:0.5;" width="86" x="19.5" y="7"/><ellipse cx="34.5" cy="23" fill="#ADD1B2" rx="11" ry="11" style="stroke:#181818;stroke-width:1.0;"/><path d="M33.8438,28.8594 Q31.8594,28.8594 30.6875,27.3906 Q29.5313,25.9063 29.5313,22.8281 Q29.5313,20.2188 30.75,18.4688 Q31.9844,16.7188 34.1094,16.7188 Q34.6094,16.7188 35.1406,16.8594 Q35.5781,17.0469 35.8438,17.0469 Q36.0625,17.0469 36.1563,17 Q36.2656,16.9531 36.7188,16.3594 L37.4844,20.0938 L36.5938,20.3594 Q36.1406,18.9063 35.5313,18.3125 Q34.9375,17.7031 33.9844,17.7031 Q32.7656,17.7031 32.0469,19.1406 Q31.3281,20.5625 31.3281,22.75 Q31.3281,25.1563 31.9375,26.4531 Q32.5625,27.7344 33.9219,27.7344 Q34.875,27.7344 35.5625,27.0469 Q36.25,26.3438 36.5781,24.8438 L37.4844,25.25 Q37.0781,26.9531 36.1094,27.9063 Q35.1563,28.8594 33.8438,28.8594 Z " fill="#000000"/><text fill="#000000" font-family="sans-serif" font-size="14" lengthAdjust="spacing" textLength="54" x="48.5" y="29.4839">WarmAir</text><line style="stroke:#181818;stroke-width:0.5;" x1="20.5" x2="104.5" y1="39" y2="39"/><line style="stroke:#181818;stroke-width:0.5;" x1="20.5" x2="104.5" y1="47" y2="47"/></g><!--link GasFurnace to NaturalGas--><g id="link_GasFurnace_NaturalGas"><path codeLine="1" d="M62.5,182.22 C62.5,204.67 62.5,232.5 62.5,254.91 " fill="none" id="GasFurnace-to-NaturalGas" style="stroke:#181818;stroke-width:1.0;stroke-dasharray:7.0,7.0;"/><polygon fill="#181818" points="62.5,260.91,66.5,251.91,62.5,255.91,58.5,251.91,62.5,260.91" style="stroke:#181818;stroke-width:1.0;"/><text fill="#000000" font-family="sans-serif" font-size="13" lengthAdjust="spacing" textLength="67" x="63.5" y="227.8979">depends on</text></g><!--link WarmAir to GasFurnace--><g id="link_WarmAir_GasFurnace"><path codeLine="2" d="M62.5,55.22 C62.5,77.67 62.5,105.5 62.5,127.91 " fill="none" id="WarmAir-to-GasFurnace" style="stroke:#181818;stroke-width:1.0;stroke-dasharray:7.0,7.0;"/><polygon fill="#181818" points="62.5,133.91,66.5,124.91,62.5,128.91,58.5,124.91,62.5,133.91" style="stroke:#181818;stroke-width:1.0;"/><text fill="#000000" font-family="sans-serif" font-size="13" lengthAdjust="spacing" textLength="67" x="63.5" y="100.8979">depends on</text></g><!--SRC=[SqyiTYijoajCJbNGqxDJy4iiAIrAp75FB5QmKaX9BKZDIobMoC_Z2ayiodNCB0AhSKTeGLO30000]--></g></svg>