<?xml version="1.0" encoding="us-ascii" standalone="no"?><svg xmlns="http://www.w3.org/2000/svg" xmlns:xlink="http://www.w3.org/1999/xlink" contentStyleType="text/css" height="316px" preserveAspectRatio="none" style="width:149px;height:316px;background:#FFFFFF;" version="1.1" viewBox="0 0 149 316" width="149px" zoomAndPan="magnify"><defs/><g><!--class Vegetable--><g id="elem_Vegetable"><rect fill="#F1F1F1" height="48" id="Vegetable" rx="2.5" ry="2.5" style="stroke:#181818;stroke-width:0.5;" width="96" x="26.5" y="7"/><ellipse cx="41.5" cy="23" fill="#ADD1B2" rx="11" ry="11" style="stroke:#181818;stroke-width:1.0;"/><path d="M40.8438,28.8594 Q38.8594,28.8594 37.6875,27.3906 Q36.5313,25.9063 36.5313,22.8281 Q36.5313,20.2188 37.75,18.4688 Q38.9844,16.7188 41.1094,16.7188 Q41.6094,16.7188 42.1406,16.8594 Q42.5781,17.0469 42.8438,17.0469 Q43.0625,17.0469 43.1563,17 Q43.2656,16.9531 43.7188,16.3594 L44.4844,20.0938 L43.5938,20.3594 Q43.1406,18.9063 42.5313,18.3125 Q41.9375,17.7031 40.9844,17.7031 Q39.7656,17.7031 39.0469,19.1406 Q38.3281,20.5625 38.3281,22.75 Q38.3281,25.1563 38.9375,26.4531 Q39.5625,27.7344 40.9219,27.7344 Q41.875,27.7344 42.5625,27.0469 Q43.25,26.3438 43.5781,24.8438 L44.4844,25.25 Q44.0781,26.9531 43.1094,27.9063 Q42.1563,28.8594 40.8438,28.8594 Z " fill="#000000"/><text fill="#000000" font-family="sans-serif" font-size="14" lengthAdjust="spacing" textLength="64" x="55.5" y="29.4839">Vegetable</text><line style="stroke:#181818;stroke-width:0.5;" x1="27.5" x2="121.5" y1="39" y2="39"/><line style="stroke:#181818;stroke-width:0.5;" x1="27.5" x2="121.5" y1="47" y2="47"/></g><!--class LeafyVegetable--><g id="elem_LeafyVegetable"><rect fill="#F1F1F1" height="48" id="LeafyVegetable" rx="2.5" ry="2.5" style="stroke:#181818;stroke-width:0.5;" width="131" x="9" y="134"/><ellipse cx="24" cy="150" fill="#ADD1B2" rx="11" ry="11" style="stroke:#181818;stroke-width:1.0;"/><path d="M23.3438,155.8594 Q21.3594,155.8594 20.1875,154.3906 Q19.0313,152.9063 19.0313,149.8281 Q19.0313,147.2188 20.25,145.4688 Q21.4844,143.7188 23.6094,143.7188 Q24.1094,143.7188 24.6406,143.8594 Q25.0781,144.0469 25.3438,144.0469 Q25.5625,144.0469 25.6563,144 Q25.7656,143.9531 26.2188,143.3594 L26.9844,147.0938 L26.0938,147.3594 Q25.6406,145.9063 25.0313,145.3125 Q24.4375,144.7031 23.4844,144.7031 Q22.2656,144.7031 21.5469,146.1406 Q20.8281,147.5625 20.8281,149.75 Q20.8281,152.1563 21.4375,153.4531 Q22.0625,154.7344 23.4219,154.7344 Q24.375,154.7344 25.0625,154.0469 Q25.75,153.3438 26.0781,151.8438 L26.9844,152.25 Q26.5781,153.9531 25.6094,154.9063 Q24.6563,155.8594 23.3438,155.8594 Z " fill="#000000"/><text fill="#000000" font-family="sans-serif" font-size="14" lengthAdjust="spacing" textLength="99" x="38" y="156.4839">LeafyVegetable</text><line style="stroke:#181818;stroke-width:0.5;" x1="10" x2="139" y1="166" y2="166"/><line style="stroke:#181818;stroke-width:0.5;" x1="10" x2="139" y1="174" y2="174"/></g><!--class RomaineLettuce--><g id="elem_RomaineLettuce"><rect fill="#F1F1F1" height="48" id="RomaineLettuce" rx="2.5" ry="2.5" style="stroke:#181818;stroke-width:0.5;" width="135" x="7" y="261"/><ellipse cx="22" cy="277" fill="#ADD1B2" rx="11" ry="11" style="stroke:#181818;stroke-width:1.0;"/><path d="M21.3438,282.8594 Q19.3594,282.8594 18.1875,281.3906 Q17.0313,279.9063 17.0313,276.8281 Q17.0313,274.2188 18.25,272.4688 Q19.4844,270.7188 21.6094,270.7188 Q22.1094,270.7188 22.6406,270.8594 Q23.0781,271.0469 23.3438,271.0469 Q23.5625,271.0469 23.6563,271 Q23.7656,270.9531 24.2188,270.3594 L24.9844,274.0938 L24.0938,274.3594 Q23.6406,272.9063 23.0313,272.3125 Q22.4375,271.7031 21.4844,271.7031 Q20.2656,271.7031 19.5469,273.1406 Q18.8281,274.5625 18.8281,276.75 Q18.8281,279.1563 19.4375,280.4531 Q20.0625,281.7344 21.4219,281.7344 Q22.375,281.7344 23.0625,281.0469 Q23.75,280.3438 24.0781,278.8438 L24.9844,279.25 Q24.5781,280.9531 23.6094,281.9063 Q22.6563,282.8594 21.3438,282.8594 Z " fill="#000000"/><text fill="#000000" font-family="sans-serif" font-size="14" lengthAdjust="spacing" textLength="103" x="36" y="283.4839">RomaineLettuce</text><line style="stroke:#181818;stroke-width:0.5;" x1="8" x2="141" y1="293" y2="293"/><line style="stroke:#181818;stroke-width:0.5;" x1="8" x2="141" y1="301" y2="301"/></g><!--reverse link Vegetable to LeafyVegetable--><g id="link_Vegetable_LeafyVegetable"><path codeLine="1" d="M74.5,73.22 C74.5,95.67 74.5,111.5 74.5,133.91 " fill="none" id="Vegetable-backto-LeafyVegetable" style="stroke:#181818;stroke-width:1.0;"/><polygon fill="none" points="74.5,55.22,68.5,73.22,80.5,73.22,74.5,55.22" style="stroke:#181818;stroke-width:1.0;"/><text fill="#000000" font-family="sans-serif" font-size="13" lengthAdjust="spacing" textLength="42" x="75.5" y="100.8979">inherits</text></g><!--reverse link LeafyVegetable to RomaineLettuce--><g id="link_LeafyVegetable_RomaineLettuce"><path codeLine="2" d="M74.5,200.22 C74.5,222.67 74.5,238.5 74.5,260.91 " fill="none" id="LeafyVegetable-backto-RomaineLettuce" style="stroke:#181818;stroke-width:1.0;"/><polygon fill="none" points="74.5,182.22,68.5,200.22,80.5,200.22,74.5,182.22" style="stroke:#181818;stroke-width:1.0;"/><text fill="#000000" font-family="sans-serif" font-size="13" lengthAdjust="spacing" textLength="42" x="75.5" y="227.8979">inherits</text></g><!--SRC=[2qjDJor9JCf9LR2fqTLLy4bDJAiCWujPAMJcPQGMPPOKSw79W5K7vUScPkQb-gIMb9Gc8wi60000]--></g></svg>