<?xml version="1.0" encoding="us-ascii" standalone="no"?><svg xmlns="http://www.w3.org/2000/svg" xmlns:xlink="http://www.w3.org/1999/xlink" contentStyleType="text/css" height="316px" preserveAspectRatio="none" style="width:136px;height:316px;background:#FFFFFF;" version="1.1" viewBox="0 0 136 316" width="136px" zoomAndPan="magnify"><defs/><g><!--class Food--><g id="elem_Food"><rect fill="#F1F1F1" height="48" id="Food" rx="2.5" ry="2.5" style="stroke:#181818;stroke-width:0.5;" width="65" x="35.5" y="7"/><ellipse cx="50.5" cy="23" fill="#ADD1B2" rx="11" ry="11" style="stroke:#181818;stroke-width:1.0;"/><path d="M49.8438,28.8594 Q47.8594,28.8594 46.6875,27.3906 Q45.5313,25.9063 45.5313,22.8281 Q45.5313,20.2188 46.75,18.4688 Q47.9844,16.7188 50.1094,16.7188 Q50.6094,16.7188 51.1406,16.8594 Q51.5781,17.0469 51.8438,17.0469 Q52.0625,17.0469 52.1563,17 Q52.2656,16.9531 52.7188,16.3594 L53.4844,20.0938 L52.5938,20.3594 Q52.1406,18.9063 51.5313,18.3125 Q50.9375,17.7031 49.9844,17.7031 Q48.7656,17.7031 48.0469,19.1406 Q47.3281,20.5625 47.3281,22.75 Q47.3281,25.1563 47.9375,26.4531 Q48.5625,27.7344 49.9219,27.7344 Q50.875,27.7344 51.5625,27.0469 Q52.25,26.3438 52.5781,24.8438 L53.4844,25.25 Q53.0781,26.9531 52.1094,27.9063 Q51.1563,28.8594 49.8438,28.8594 Z " fill="#000000"/><text fill="#000000" font-family="sans-serif" font-size="14" lengthAdjust="spacing" textLength="33" x="64.5" y="29.4839">Food</text><line style="stroke:#181818;stroke-width:0.5;" x1="36.5" x2="99.5" y1="39" y2="39"/><line style="stroke:#181818;stroke-width:0.5;" x1="36.5" x2="99.5" y1="47" y2="47"/></g><!--class Sandwich--><g id="elem_Sandwich"><rect fill="#F1F1F1" height="48" id="Sandwich" rx="2.5" ry="2.5" style="stroke:#181818;stroke-width:0.5;" width="92" x="22" y="134"/><ellipse cx="37" cy="150" fill="#ADD1B2" rx="11" ry="11" style="stroke:#181818;stroke-width:1.0;"/><path d="M36.3438,155.8594 Q34.3594,155.8594 33.1875,154.3906 Q32.0313,152.9063 32.0313,149.8281 Q32.0313,147.2188 33.25,145.4688 Q34.4844,143.7188 36.6094,143.7188 Q37.1094,143.7188 37.6406,143.8594 Q38.0781,144.0469 38.3438,144.0469 Q38.5625,144.0469 38.6563,144 Q38.7656,143.9531 39.2188,143.3594 L39.9844,147.0938 L39.0938,147.3594 Q38.6406,145.9063 38.0313,145.3125 Q37.4375,144.7031 36.4844,144.7031 Q35.2656,144.7031 34.5469,146.1406 Q33.8281,147.5625 33.8281,149.75 Q33.8281,152.1563 34.4375,153.4531 Q35.0625,154.7344 36.4219,154.7344 Q37.375,154.7344 38.0625,154.0469 Q38.75,153.3438 39.0781,151.8438 L39.9844,152.25 Q39.5781,153.9531 38.6094,154.9063 Q37.6563,155.8594 36.3438,155.8594 Z " fill="#000000"/><text fill="#000000" font-family="sans-serif" font-size="14" lengthAdjust="spacing" textLength="60" x="51" y="156.4839">Sandwich</text><line style="stroke:#181818;stroke-width:0.5;" x1="23" x2="113" y1="166" y2="166"/><line style="stroke:#181818;stroke-width:0.5;" x1="23" x2="113" y1="174" y2="174"/></g><!--class GrilledCheese--><g id="elem_GrilledCheese"><rect fill="#F1F1F1" height="48" id="GrilledCheese" rx="2.5" ry="2.5" style="stroke:#181818;stroke-width:0.5;" width="122" x="7" y="261"/><ellipse cx="22" cy="277" fill="#ADD1B2" rx="11" ry="11" style="stroke:#181818;stroke-width:1.0;"/><path d="M21.3438,282.8594 Q19.3594,282.8594 18.1875,281.3906 Q17.0313,279.9063 17.0313,276.8281 Q17.0313,274.2188 18.25,272.4688 Q19.4844,270.7188 21.6094,270.7188 Q22.1094,270.7188 22.6406,270.8594 Q23.0781,271.0469 23.3438,271.0469 Q23.5625,271.0469 23.6563,271 Q23.7656,270.9531 24.2188,270.3594 L24.9844,274.0938 L24.0938,274.3594 Q23.6406,272.9063 23.0313,272.3125 Q22.4375,271.7031 21.4844,271.7031 Q20.2656,271.7031 19.5469,273.1406 Q18.8281,274.5625 18.8281,276.75 Q18.8281,279.1563 19.4375,280.4531 Q20.0625,281.7344 21.4219,281.7344 Q22.375,281.7344 23.0625,281.0469 Q23.75,280.3438 24.0781,278.8438 L24.9844,279.25 Q24.5781,280.9531 23.6094,281.9063 Q22.6563,282.8594 21.3438,282.8594 Z " fill="#000000"/><text fill="#000000" font-family="sans-serif" font-size="14" lengthAdjust="spacing" textLength="90" x="36" y="283.4839">GrilledCheese</text><line style="stroke:#181818;stroke-width:0.5;" x1="8" x2="128" y1="293" y2="293"/><line style="stroke:#181818;stroke-width:0.5;" x1="8" x2="128" y1="301" y2="301"/></g><!--reverse link Food to Sandwich--><g id="link_Food_Sandwich"><path codeLine="1" d="M68,73.22 C68,95.67 68,111.5 68,133.91 " fill="none" id="Food-backto-Sandwich" style="stroke:#181818;stroke-width:1.0;"/><polygon fill="none" points="68,55.22,62,73.22,74,73.22,68,55.22" style="stroke:#181818;stroke-width:1.0;"/><text fill="#000000" font-family="sans-serif" font-size="13" lengthAdjust="spacing" textLength="42" x="69" y="100.8979">inherits</text></g><!--reverse link Sandwich to GrilledCheese--><g id="link_Sandwich_GrilledCheese"><path codeLine="2" d="M68,200.22 C68,222.67 68,238.5 68,260.91 " fill="none" id="Sandwich-backto-GrilledCheese" style="stroke:#181818;stroke-width:1.0;"/><polygon fill="none" points="68,182.22,62,200.22,74,200.22,68,182.22" style="stroke:#181818;stroke-width:1.0;"/><text fill="#000000" font-family="sans-serif" font-size="13" lengthAdjust="spacing" textLength="42" x="69" y="227.8979">inherits</text></g><!--SRC=[SylFJr6mgT7LLGXEp4ifpqpEKB1IoCpBI2tAB2dcWek1LRWNPURafAOuPwIc5gSYAGC0]--></g></svg>