<?xml version="1.0" encoding="us-ascii" standalone="no"?><svg xmlns="http://www.w3.org/2000/svg" xmlns:xlink="http://www.w3.org/1999/xlink" contentStyleType="text/css" height="316px" preserveAspectRatio="none" style="width:181px;height:316px;background:#FFFFFF;" version="1.1" viewBox="0 0 181 316" width="181px" zoomAndPan="magnify"><defs/><g><!--class Vegetable--><g id="elem_Vegetable"><rect fill="#F1F1F1" height="48" id="Vegetable" rx="2.5" ry="2.5" style="stroke:#181818;stroke-width:0.5;" width="96" x="42.5" y="7"/><ellipse cx="57.5" cy="23" fill="#ADD1B2" rx="11" ry="11" style="stroke:#181818;stroke-width:1.0;"/><path d="M56.8438,28.8594 Q54.8594,28.8594 53.6875,27.3906 Q52.5313,25.9063 52.5313,22.8281 Q52.5313,20.2188 53.75,18.4688 Q54.9844,16.7188 57.1094,16.7188 Q57.6094,16.7188 58.1406,16.8594 Q58.5781,17.0469 58.8438,17.0469 Q59.0625,17.0469 59.1563,17 Q59.2656,16.9531 59.7188,16.3594 L60.4844,20.0938 L59.5938,20.3594 Q59.1406,18.9063 58.5313,18.3125 Q57.9375,17.7031 56.9844,17.7031 Q55.7656,17.7031 55.0469,19.1406 Q54.3281,20.5625 54.3281,22.75 Q54.3281,25.1563 54.9375,26.4531 Q55.5625,27.7344 56.9219,27.7344 Q57.875,27.7344 58.5625,27.0469 Q59.25,26.3438 59.5781,24.8438 L60.4844,25.25 Q60.0781,26.9531 59.1094,27.9063 Q58.1563,28.8594 56.8438,28.8594 Z " fill="#000000"/><text fill="#000000" font-family="sans-serif" font-size="14" lengthAdjust="spacing" textLength="64" x="71.5" y="29.4839">Vegetable</text><line style="stroke:#181818;stroke-width:0.5;" x1="43.5" x2="137.5" y1="39" y2="39"/><line style="stroke:#181818;stroke-width:0.5;" x1="43.5" x2="137.5" y1="47" y2="47"/></g><!--class NightshadeVegetable--><g id="elem_NightshadeVegetable"><rect fill="#F1F1F1" height="48" id="NightshadeVegetable" rx="2.5" ry="2.5" style="stroke:#181818;stroke-width:0.5;" width="167" x="7" y="134"/><ellipse cx="22" cy="150" fill="#ADD1B2" rx="11" ry="11" style="stroke:#181818;stroke-width:1.0;"/><path d="M21.3438,155.8594 Q19.3594,155.8594 18.1875,154.3906 Q17.0313,152.9063 17.0313,149.8281 Q17.0313,147.2188 18.25,145.4688 Q19.4844,143.7188 21.6094,143.7188 Q22.1094,143.7188 22.6406,143.8594 Q23.0781,144.0469 23.3438,144.0469 Q23.5625,144.0469 23.6563,144 Q23.7656,143.9531 24.2188,143.3594 L24.9844,147.0938 L24.0938,147.3594 Q23.6406,145.9063 23.0313,145.3125 Q22.4375,144.7031 21.4844,144.7031 Q20.2656,144.7031 19.5469,146.1406 Q18.8281,147.5625 18.8281,149.75 Q18.8281,152.1563 19.4375,153.4531 Q20.0625,154.7344 21.4219,154.7344 Q22.375,154.7344 23.0625,154.0469 Q23.75,153.3438 24.0781,151.8438 L24.9844,152.25 Q24.5781,153.9531 23.6094,154.9063 Q22.6563,155.8594 21.3438,155.8594 Z " fill="#000000"/><text fill="#000000" font-family="sans-serif" font-size="14" lengthAdjust="spacing" textLength="135" x="36" y="156.4839">NightshadeVegetable</text><line style="stroke:#181818;stroke-width:0.5;" x1="8" x2="173" y1="166" y2="166"/><line style="stroke:#181818;stroke-width:0.5;" x1="8" x2="173" y1="174" y2="174"/></g><!--class Tomato--><g id="elem_Tomato"><rect fill="#F1F1F1" height="48" id="Tomato" rx="2.5" ry="2.5" style="stroke:#181818;stroke-width:0.5;" width="80" x="50.5" y="261"/><ellipse cx="65.5" cy="277" fill="#ADD1B2" rx="11" ry="11" style="stroke:#181818;stroke-width:1.0;"/><path d="M64.8438,282.8594 Q62.8594,282.8594 61.6875,281.3906 Q60.5313,279.9063 60.5313,276.8281 Q60.5313,274.2188 61.75,272.4688 Q62.9844,270.7188 65.1094,270.7188 Q65.6094,270.7188 66.1406,270.8594 Q66.5781,271.0469 66.8438,271.0469 Q67.0625,271.0469 67.1563,271 Q67.2656,270.9531 67.7188,270.3594 L68.4844,274.0938 L67.5938,274.3594 Q67.1406,272.9063 66.5313,272.3125 Q65.9375,271.7031 64.9844,271.7031 Q63.7656,271.7031 63.0469,273.1406 Q62.3281,274.5625 62.3281,276.75 Q62.3281,279.1563 62.9375,280.4531 Q63.5625,281.7344 64.9219,281.7344 Q65.875,281.7344 66.5625,281.0469 Q67.25,280.3438 67.5781,278.8438 L68.4844,279.25 Q68.0781,280.9531 67.1094,281.9063 Q66.1563,282.8594 64.8438,282.8594 Z " fill="#000000"/><text fill="#000000" font-family="sans-serif" font-size="14" lengthAdjust="spacing" textLength="48" x="79.5" y="283.4839">Tomato</text><line style="stroke:#181818;stroke-width:0.5;" x1="51.5" x2="129.5" y1="293" y2="293"/><line style="stroke:#181818;stroke-width:0.5;" x1="51.5" x2="129.5" y1="301" y2="301"/></g><!--reverse link Vegetable to NightshadeVegetable--><g id="link_Vegetable_NightshadeVegetable"><path codeLine="1" d="M90.5,73.22 C90.5,95.67 90.5,111.5 90.5,133.91 " fill="none" id="Vegetable-backto-NightshadeVegetable" style="stroke:#181818;stroke-width:1.0;"/><polygon fill="none" points="90.5,55.22,84.5,73.22,96.5,73.22,90.5,55.22" style="stroke:#181818;stroke-width:1.0;"/><text fill="#000000" font-family="sans-serif" font-size="13" lengthAdjust="spacing" textLength="42" x="91.5" y="100.8979">inherits</text></g><!--reverse link NightshadeVegetable to Tomato--><g id="link_NightshadeVegetable_Tomato"><path codeLine="2" d="M90.5,200.22 C90.5,222.67 90.5,238.5 90.5,260.91 " fill="none" id="NightshadeVegetable-backto-Tomato" style="stroke:#181818;stroke-width:1.0;"/><polygon fill="none" points="90.5,182.22,84.5,200.22,96.5,200.22,90.5,182.22" style="stroke:#181818;stroke-width:1.0;"/><text fill="#000000" font-family="sans-serif" font-size="13" lengthAdjust="spacing" textLength="42" x="91.5" y="227.8979">inherits</text></g><!--SRC=[2qjDJor9JCf9LR2fqTLLyCjCpoWfpaXCIGs3IrWfPEPbf1PbbXHpOPC6wml9pqqioKTI2W00]--></g></svg>