<?xml version="1.0" encoding="us-ascii" standalone="no"?><svg xmlns="http://www.w3.org/2000/svg" xmlns:xlink="http://www.w3.org/1999/xlink" contentStyleType="text/css" height="189px" preserveAspectRatio="none" style="width:139px;height:189px;background:#FFFFFF;" version="1.1" viewBox="0 0 139 189" width="139px" zoomAndPan="magnify"><defs/><g><!--class Cave--><g id="elem_Cave"><rect fill="#F1F1F1" height="48" id="Cave" rx="2.5" ry="2.5" style="stroke:#181818;stroke-width:0.5;" width="65" x="34" y="7"/><ellipse cx="49" cy="23" fill="#ADD1B2" rx="11" ry="11" style="stroke:#181818;stroke-width:1.0;"/><path d="M48.3438,28.8594 Q46.3594,28.8594 45.1875,27.3906 Q44.0313,25.9063 44.0313,22.8281 Q44.0313,20.2188 45.25,18.4688 Q46.4844,16.7188 48.6094,16.7188 Q49.1094,16.7188 49.6406,16.8594 Q50.0781,17.0469 50.3438,17.0469 Q50.5625,17.0469 50.6563,17 Q50.7656,16.9531 51.2188,16.3594 L51.9844,20.0938 L51.0938,20.3594 Q50.6406,18.9063 50.0313,18.3125 Q49.4375,17.7031 48.4844,17.7031 Q47.2656,17.7031 46.5469,19.1406 Q45.8281,20.5625 45.8281,22.75 Q45.8281,25.1563 46.4375,26.4531 Q47.0625,27.7344 48.4219,27.7344 Q49.375,27.7344 50.0625,27.0469 Q50.75,26.3438 51.0781,24.8438 L51.9844,25.25 Q51.5781,26.9531 50.6094,27.9063 Q49.6563,28.8594 48.3438,28.8594 Z " fill="#000000"/><text fill="#000000" font-family="sans-serif" font-size="14" lengthAdjust="spacing" textLength="33" x="63" y="29.4839">Cave</text><line style="stroke:#181818;stroke-width:0.5;" x1="35" x2="98" y1="39" y2="39"/><line style="stroke:#181818;stroke-width:0.5;" x1="35" x2="98" y1="47" y2="47"/></g><!--class HerdOfMoose--><g id="elem_HerdOfMoose"><rect fill="#F1F1F1" height="48" id="HerdOfMoose" rx="2.5" ry="2.5" style="stroke:#181818;stroke-width:0.5;" width="119" x="7" y="134"/><ellipse cx="22" cy="150" fill="#ADD1B2" rx="11" ry="11" style="stroke:#181818;stroke-width:1.0;"/><path d="M21.3438,155.8594 Q19.3594,155.8594 18.1875,154.3906 Q17.0313,152.9063 17.0313,149.8281 Q17.0313,147.2188 18.25,145.4688 Q19.4844,143.7188 21.6094,143.7188 Q22.1094,143.7188 22.6406,143.8594 Q23.0781,144.0469 23.3438,144.0469 Q23.5625,144.0469 23.6563,144 Q23.7656,143.9531 24.2188,143.3594 L24.9844,147.0938 L24.0938,147.3594 Q23.6406,145.9063 23.0313,145.3125 Q22.4375,144.7031 21.4844,144.7031 Q20.2656,144.7031 19.5469,146.1406 Q18.8281,147.5625 18.8281,149.75 Q18.8281,152.1563 19.4375,153.4531 Q20.0625,154.7344 21.4219,154.7344 Q22.375,154.7344 23.0625,154.0469 Q23.75,153.3438 24.0781,151.8438 L24.9844,152.25 Q24.5781,153.9531 23.6094,154.9063 Q22.6563,155.8594 21.3438,155.8594 Z " fill="#000000"/><text fill="#000000" font-family="sans-serif" font-size="14" lengthAdjust="spacing" textLength="87" x="36" y="156.4839">HerdOfMoose</text><line style="stroke:#181818;stroke-width:0.5;" x1="8" x2="125" y1="166" y2="166"/><line style="stroke:#181818;stroke-width:0.5;" x1="8" x2="125" y1="174" y2="174"/></g><!--reverse link Cave to HerdOfMoose--><g id="link_Cave_HerdOfMoose"><path codeLine="1" d="M66.5,67.22 C66.5,89.67 66.5,111.5 66.5,133.91 " fill="none" id="Cave-backto-HerdOfMoose" style="stroke:#181818;stroke-width:1.0;"/><polygon fill="none" points="66.5,55.22,62.5,61.22,66.5,67.22,70.5,61.22,66.5,55.22" style="stroke:#181818;stroke-width:1.0;"/><text fill="#000000" font-family="sans-serif" font-size="13" lengthAdjust="spacing" textLength="64" x="67.5" y="100.8979">aggregates</text></g><!--SRC=[SquiIrN8rzLLy4WjIl5FyytFBqvLi598J4ylIarFB4aj1W00]--></g></svg>