<?xml version="1.0" encoding="us-ascii" standalone="no"?><svg xmlns="http://www.w3.org/2000/svg" xmlns:xlink="http://www.w3.org/1999/xlink" contentStyleType="text/css" height="316px" preserveAspectRatio="none" style="width:155px;height:316px;background:#FFFFFF;" version="1.1" viewBox="0 0 155 316" width="155px" zoomAndPan="magnify"><defs/><g><!--class ChatClient--><g id="elem_ChatClient"><rect fill="#F1F1F1" height="48" id="ChatClient" rx="2.5" ry="2.5" style="stroke:#181818;stroke-width:0.5;" width="98" x="28.5" y="134"/><ellipse cx="43.5" cy="150" fill="#ADD1B2" rx="11" ry="11" style="stroke:#181818;stroke-width:1.0;"/><path d="M42.8438,155.8594 Q40.8594,155.8594 39.6875,154.3906 Q38.5313,152.9063 38.5313,149.8281 Q38.5313,147.2188 39.75,145.4688 Q40.9844,143.7188 43.1094,143.7188 Q43.6094,143.7188 44.1406,143.8594 Q44.5781,144.0469 44.8438,144.0469 Q45.0625,144.0469 45.1563,144 Q45.2656,143.9531 45.7188,143.3594 L46.4844,147.0938 L45.5938,147.3594 Q45.1406,145.9063 44.5313,145.3125 Q43.9375,144.7031 42.9844,144.7031 Q41.7656,144.7031 41.0469,146.1406 Q40.3281,147.5625 40.3281,149.75 Q40.3281,152.1563 40.9375,153.4531 Q41.5625,154.7344 42.9219,154.7344 Q43.875,154.7344 44.5625,154.0469 Q45.25,153.3438 45.5781,151.8438 L46.4844,152.25 Q46.0781,153.9531 45.1094,154.9063 Q44.1563,155.8594 42.8438,155.8594 Z " fill="#000000"/><text fill="#000000" font-family="sans-serif" font-size="14" lengthAdjust="spacing" textLength="66" x="57.5" y="156.4839">ChatClient</text><line style="stroke:#181818;stroke-width:0.5;" x1="29.5" x2="125.5" y1="166" y2="166"/><line style="stroke:#181818;stroke-width:0.5;" x1="29.5" x2="125.5" y1="174" y2="174"/></g><!--class TextChat--><g id="elem_TextChat"><rect fill="#F1F1F1" height="48" id="TextChat" rx="2.5" ry="2.5" style="stroke:#181818;stroke-width:0.5;" width="89" x="33" y="261"/><ellipse cx="48" cy="277" fill="#ADD1B2" rx="11" ry="11" style="stroke:#181818;stroke-width:1.0;"/><path d="M47.3438,282.8594 Q45.3594,282.8594 44.1875,281.3906 Q43.0313,279.9063 43.0313,276.8281 Q43.0313,274.2188 44.25,272.4688 Q45.4844,270.7188 47.6094,270.7188 Q48.1094,270.7188 48.6406,270.8594 Q49.0781,271.0469 49.3438,271.0469 Q49.5625,271.0469 49.6563,271 Q49.7656,270.9531 50.2188,270.3594 L50.9844,274.0938 L50.0938,274.3594 Q49.6406,272.9063 49.0313,272.3125 Q48.4375,271.7031 47.4844,271.7031 Q46.2656,271.7031 45.5469,273.1406 Q44.8281,274.5625 44.8281,276.75 Q44.8281,279.1563 45.4375,280.4531 Q46.0625,281.7344 47.4219,281.7344 Q48.375,281.7344 49.0625,281.0469 Q49.75,280.3438 50.0781,278.8438 L50.9844,279.25 Q50.5781,280.9531 49.6094,281.9063 Q48.6563,282.8594 47.3438,282.8594 Z " fill="#000000"/><text fill="#000000" font-family="sans-serif" font-size="14" lengthAdjust="spacing" textLength="57" x="62" y="283.4839">TextChat</text><line style="stroke:#181818;stroke-width:0.5;" x1="34" x2="121" y1="293" y2="293"/><line style="stroke:#181818;stroke-width:0.5;" x1="34" x2="121" y1="301" y2="301"/></g><!--class OperatingSystem--><g id="elem_OperatingSystem"><rect fill="#F1F1F1" height="48" id="OperatingSystem" rx="2.5" ry="2.5" style="stroke:#181818;stroke-width:0.5;" width="141" x="7" y="7"/><ellipse cx="22" cy="23" fill="#ADD1B2" rx="11" ry="11" style="stroke:#181818;stroke-width:1.0;"/><path d="M21.3438,28.8594 Q19.3594,28.8594 18.1875,27.3906 Q17.0313,25.9063 17.0313,22.8281 Q17.0313,20.2188 18.25,18.4688 Q19.4844,16.7188 21.6094,16.7188 Q22.1094,16.7188 22.6406,16.8594 Q23.0781,17.0469 23.3438,17.0469 Q23.5625,17.0469 23.6563,17 Q23.7656,16.9531 24.2188,16.3594 L24.9844,20.0938 L24.0938,20.3594 Q23.6406,18.9063 23.0313,18.3125 Q22.4375,17.7031 21.4844,17.7031 Q20.2656,17.7031 19.5469,19.1406 Q18.8281,20.5625 18.8281,22.75 Q18.8281,25.1563 19.4375,26.4531 Q20.0625,27.7344 21.4219,27.7344 Q22.375,27.7344 23.0625,27.0469 Q23.75,26.3438 24.0781,24.8438 L24.9844,25.25 Q24.5781,26.9531 23.6094,27.9063 Q22.6563,28.8594 21.3438,28.8594 Z " fill="#000000"/><text fill="#000000" font-family="sans-serif" font-size="14" lengthAdjust="spacing" textLength="109" x="36" y="29.4839">OperatingSystem</text><line style="stroke:#181818;stroke-width:0.5;" x1="8" x2="147" y1="39" y2="39"/><line style="stroke:#181818;stroke-width:0.5;" x1="8" x2="147" y1="47" y2="47"/></g><!--link ChatClient to TextChat--><g id="link_ChatClient_TextChat"><path codeLine="1" d="M77.5,182.22 C77.5,204.67 77.5,232.5 77.5,254.91 " fill="none" id="ChatClient-to-TextChat" style="stroke:#181818;stroke-width:1.0;stroke-dasharray:7.0,7.0;"/><polygon fill="#181818" points="77.5,260.91,81.5,251.91,77.5,255.91,73.5,251.91,77.5,260.91" style="stroke:#181818;stroke-width:1.0;"/><text fill="#000000" font-family="sans-serif" font-size="13" lengthAdjust="spacing" textLength="67" x="78.5" y="227.8979">depends on</text></g><!--link OperatingSystem to ChatClient--><g id="link_OperatingSystem_ChatClient"><path codeLine="2" d="M77.5,55.22 C77.5,77.67 77.5,105.5 77.5,127.91 " fill="none" id="OperatingSystem-to-ChatClient" style="stroke:#181818;stroke-width:1.0;stroke-dasharray:7.0,7.0;"/><polygon fill="#181818" points="77.5,133.91,81.5,124.91,77.5,128.91,73.5,124.91,77.5,133.91" style="stroke:#181818;stroke-width:1.0;"/><text fill="#000000" font-family="sans-serif" font-size="13" lengthAdjust="spacing" textLength="67" x="78.5" y="100.8979">depends on</text></g><!--SRC=[Syv8B77EoKpDAr7GqxDJ24cjA7462YbOAQIa5gJcfHGhvETn-HUa5YMMPEQb1rSMbwJcWbKw8pGYgmK0]--></g></svg>