<?xml version="1.0" encoding="us-ascii" standalone="no"?><svg xmlns="http://www.w3.org/2000/svg" xmlns:xlink="http://www.w3.org/1999/xlink" contentStyleType="text/css" height="316px" preserveAspectRatio="none" style="width:194px;height:316px;background:#FFFFFF;" version="1.1" viewBox="0 0 194 316" width="194px" zoomAndPan="magnify"><defs/><g><!--class CitationManager--><g id="elem_CitationManager"><rect fill="#F1F1F1" height="48" id="CitationManager" rx="2.5" ry="2.5" style="stroke:#181818;stroke-width:0.5;" width="136" x="29" y="134"/><ellipse cx="44" cy="150" fill="#ADD1B2" rx="11" ry="11" style="stroke:#181818;stroke-width:1.0;"/><path d="M43.3438,155.8594 Q41.3594,155.8594 40.1875,154.3906 Q39.0313,152.9063 39.0313,149.8281 Q39.0313,147.2188 40.25,145.4688 Q41.4844,143.7188 43.6094,143.7188 Q44.1094,143.7188 44.6406,143.8594 Q45.0781,144.0469 45.3438,144.0469 Q45.5625,144.0469 45.6563,144 Q45.7656,143.9531 46.2188,143.3594 L46.9844,147.0938 L46.0938,147.3594 Q45.6406,145.9063 45.0313,145.3125 Q44.4375,144.7031 43.4844,144.7031 Q42.2656,144.7031 41.5469,146.1406 Q40.8281,147.5625 40.8281,149.75 Q40.8281,152.1563 41.4375,153.4531 Q42.0625,154.7344 43.4219,154.7344 Q44.375,154.7344 45.0625,154.0469 Q45.75,153.3438 46.0781,151.8438 L46.9844,152.25 Q46.5781,153.9531 45.6094,154.9063 Q44.6563,155.8594 43.3438,155.8594 Z " fill="#000000"/><text fill="#000000" font-family="sans-serif" font-size="14" lengthAdjust="spacing" textLength="104" x="58" y="156.4839">CitationManager</text><line style="stroke:#181818;stroke-width:0.5;" x1="30" x2="164" y1="166" y2="166"/><line style="stroke:#181818;stroke-width:0.5;" x1="30" x2="164" y1="174" y2="174"/></g><!--class ReferenceManagement--><g id="elem_ReferenceManagement"><rect fill="#F1F1F1" height="48" id="ReferenceManagement" rx="2.5" ry="2.5" style="stroke:#181818;stroke-width:0.5;" width="180" x="7" y="261"/><ellipse cx="22" cy="277" fill="#ADD1B2" rx="11" ry="11" style="stroke:#181818;stroke-width:1.0;"/><path d="M21.3438,282.8594 Q19.3594,282.8594 18.1875,281.3906 Q17.0313,279.9063 17.0313,276.8281 Q17.0313,274.2188 18.25,272.4688 Q19.4844,270.7188 21.6094,270.7188 Q22.1094,270.7188 22.6406,270.8594 Q23.0781,271.0469 23.3438,271.0469 Q23.5625,271.0469 23.6563,271 Q23.7656,270.9531 24.2188,270.3594 L24.9844,274.0938 L24.0938,274.3594 Q23.6406,272.9063 23.0313,272.3125 Q22.4375,271.7031 21.4844,271.7031 Q20.2656,271.7031 19.5469,273.1406 Q18.8281,274.5625 18.8281,276.75 Q18.8281,279.1563 19.4375,280.4531 Q20.0625,281.7344 21.4219,281.7344 Q22.375,281.7344 23.0625,281.0469 Q23.75,280.3438 24.0781,278.8438 L24.9844,279.25 Q24.5781,280.9531 23.6094,281.9063 Q22.6563,282.8594 21.3438,282.8594 Z " fill="#000000"/><text fill="#000000" font-family="sans-serif" font-size="14" lengthAdjust="spacing" textLength="148" x="36" y="283.4839">ReferenceManagement</text><line style="stroke:#181818;stroke-width:0.5;" x1="8" x2="186" y1="293" y2="293"/><line style="stroke:#181818;stroke-width:0.5;" x1="8" x2="186" y1="301" y2="301"/></g><!--class OperatingSystem--><g id="elem_OperatingSystem"><rect fill="#F1F1F1" height="48" id="OperatingSystem" rx="2.5" ry="2.5" style="stroke:#181818;stroke-width:0.5;" width="141" x="26.5" y="7"/><ellipse cx="41.5" cy="23" fill="#ADD1B2" rx="11" ry="11" style="stroke:#181818;stroke-width:1.0;"/><path d="M40.8438,28.8594 Q38.8594,28.8594 37.6875,27.3906 Q36.5313,25.9063 36.5313,22.8281 Q36.5313,20.2188 37.75,18.4688 Q38.9844,16.7188 41.1094,16.7188 Q41.6094,16.7188 42.1406,16.8594 Q42.5781,17.0469 42.8438,17.0469 Q43.0625,17.0469 43.1563,17 Q43.2656,16.9531 43.7188,16.3594 L44.4844,20.0938 L43.5938,20.3594 Q43.1406,18.9063 42.5313,18.3125 Q41.9375,17.7031 40.9844,17.7031 Q39.7656,17.7031 39.0469,19.1406 Q38.3281,20.5625 38.3281,22.75 Q38.3281,25.1563 38.9375,26.4531 Q39.5625,27.7344 40.9219,27.7344 Q41.875,27.7344 42.5625,27.0469 Q43.25,26.3438 43.5781,24.8438 L44.4844,25.25 Q44.0781,26.9531 43.1094,27.9063 Q42.1563,28.8594 40.8438,28.8594 Z " fill="#000000"/><text fill="#000000" font-family="sans-serif" font-size="14" lengthAdjust="spacing" textLength="109" x="55.5" y="29.4839">OperatingSystem</text><line style="stroke:#181818;stroke-width:0.5;" x1="27.5" x2="166.5" y1="39" y2="39"/><line style="stroke:#181818;stroke-width:0.5;" x1="27.5" x2="166.5" y1="47" y2="47"/></g><!--link CitationManager to ReferenceManagement--><g id="link_CitationManager_ReferenceManagement"><path codeLine="1" d="M97,182.22 C97,204.67 97,232.5 97,254.91 " fill="none" id="CitationManager-to-ReferenceManagement" style="stroke:#181818;stroke-width:1.0;stroke-dasharray:7.0,7.0;"/><polygon fill="#181818" points="97,260.91,101,251.91,97,255.91,93,251.91,97,260.91" style="stroke:#181818;stroke-width:1.0;"/><text fill="#000000" font-family="sans-serif" font-size="13" lengthAdjust="spacing" textLength="67" x="98" y="227.8979">depends on</text></g><!--link OperatingSystem to CitationManager--><g id="link_OperatingSystem_CitationManager"><path codeLine="2" d="M97,55.22 C97,77.67 97,105.5 97,127.91 " fill="none" id="OperatingSystem-to-CitationManager" style="stroke:#181818;stroke-width:1.0;stroke-dasharray:7.0,7.0;"/><polygon fill="#181818" points="97,133.91,101,124.91,97,128.91,93,124.91,97,133.91" style="stroke:#181818;stroke-width:1.0;"/><text fill="#000000" font-family="sans-serif" font-size="13" lengthAdjust="spacing" textLength="67" x="98" y="100.8979">depends on</text></g><!--SRC=[SyuiIIp9pC_pJSnBJ4yjKj3JirC8IarBBKhDIqw52EQcvfKeM2caf1QavgKKA-JdSVaNf1O1TUMb1rSMbwJcWZKvenc4h040]--></g></svg>