<?xml version="1.0" encoding="us-ascii" standalone="no"?><svg xmlns="http://www.w3.org/2000/svg" xmlns:xlink="http://www.w3.org/1999/xlink" contentStyleType="text/css" height="316px" preserveAspectRatio="none" style="width:155px;height:316px;background:#FFFFFF;" version="1.1" viewBox="0 0 155 316" width="155px" zoomAndPan="magnify"><defs/><g><!--class Compiler--><g id="elem_Compiler"><rect fill="#F1F1F1" height="48" id="Compiler" rx="2.5" ry="2.5" style="stroke:#181818;stroke-width:0.5;" width="88" x="33.5" y="134"/><ellipse cx="48.5" cy="150" fill="#ADD1B2" rx="11" ry="11" style="stroke:#181818;stroke-width:1.0;"/><path d="M47.8438,155.8594 Q45.8594,155.8594 44.6875,154.3906 Q43.5313,152.9063 43.5313,149.8281 Q43.5313,147.2188 44.75,145.4688 Q45.9844,143.7188 48.1094,143.7188 Q48.6094,143.7188 49.1406,143.8594 Q49.5781,144.0469 49.8438,144.0469 Q50.0625,144.0469 50.1563,144 Q50.2656,143.9531 50.7188,143.3594 L51.4844,147.0938 L50.5938,147.3594 Q50.1406,145.9063 49.5313,145.3125 Q48.9375,144.7031 47.9844,144.7031 Q46.7656,144.7031 46.0469,146.1406 Q45.3281,147.5625 45.3281,149.75 Q45.3281,152.1563 45.9375,153.4531 Q46.5625,154.7344 47.9219,154.7344 Q48.875,154.7344 49.5625,154.0469 Q50.25,153.3438 50.5781,151.8438 L51.4844,152.25 Q51.0781,153.9531 50.1094,154.9063 Q49.1563,155.8594 47.8438,155.8594 Z " fill="#000000"/><text fill="#000000" font-family="sans-serif" font-size="14" lengthAdjust="spacing" textLength="56" x="62.5" y="156.4839">Compiler</text><line style="stroke:#181818;stroke-width:0.5;" x1="34.5" x2="120.5" y1="166" y2="166"/><line style="stroke:#181818;stroke-width:0.5;" x1="34.5" x2="120.5" y1="174" y2="174"/></g><!--class SoftwareBuild--><g id="elem_SoftwareBuild"><rect fill="#F1F1F1" height="48" id="SoftwareBuild" rx="2.5" ry="2.5" style="stroke:#181818;stroke-width:0.5;" width="118" x="18.5" y="261"/><ellipse cx="33.5" cy="277" fill="#ADD1B2" rx="11" ry="11" style="stroke:#181818;stroke-width:1.0;"/><path d="M32.8438,282.8594 Q30.8594,282.8594 29.6875,281.3906 Q28.5313,279.9063 28.5313,276.8281 Q28.5313,274.2188 29.75,272.4688 Q30.9844,270.7188 33.1094,270.7188 Q33.6094,270.7188 34.1406,270.8594 Q34.5781,271.0469 34.8438,271.0469 Q35.0625,271.0469 35.1563,271 Q35.2656,270.9531 35.7188,270.3594 L36.4844,274.0938 L35.5938,274.3594 Q35.1406,272.9063 34.5313,272.3125 Q33.9375,271.7031 32.9844,271.7031 Q31.7656,271.7031 31.0469,273.1406 Q30.3281,274.5625 30.3281,276.75 Q30.3281,279.1563 30.9375,280.4531 Q31.5625,281.7344 32.9219,281.7344 Q33.875,281.7344 34.5625,281.0469 Q35.25,280.3438 35.5781,278.8438 L36.4844,279.25 Q36.0781,280.9531 35.1094,281.9063 Q34.1563,282.8594 32.8438,282.8594 Z " fill="#000000"/><text fill="#000000" font-family="sans-serif" font-size="14" lengthAdjust="spacing" textLength="86" x="47.5" y="283.4839">SoftwareBuild</text><line style="stroke:#181818;stroke-width:0.5;" x1="19.5" x2="135.5" y1="293" y2="293"/><line style="stroke:#181818;stroke-width:0.5;" x1="19.5" x2="135.5" y1="301" y2="301"/></g><!--class OperatingSystem--><g id="elem_OperatingSystem"><rect fill="#F1F1F1" height="48" id="OperatingSystem" rx="2.5" ry="2.5" style="stroke:#181818;stroke-width:0.5;" width="141" x="7" y="7"/><ellipse cx="22" cy="23" fill="#ADD1B2" rx="11" ry="11" style="stroke:#181818;stroke-width:1.0;"/><path d="M21.3438,28.8594 Q19.3594,28.8594 18.1875,27.3906 Q17.0313,25.9063 17.0313,22.8281 Q17.0313,20.2188 18.25,18.4688 Q19.4844,16.7188 21.6094,16.7188 Q22.1094,16.7188 22.6406,16.8594 Q23.0781,17.0469 23.3438,17.0469 Q23.5625,17.0469 23.6563,17 Q23.7656,16.9531 24.2188,16.3594 L24.9844,20.0938 L24.0938,20.3594 Q23.6406,18.9063 23.0313,18.3125 Q22.4375,17.7031 21.4844,17.7031 Q20.2656,17.7031 19.5469,19.1406 Q18.8281,20.5625 18.8281,22.75 Q18.8281,25.1563 19.4375,26.4531 Q20.0625,27.7344 21.4219,27.7344 Q22.375,27.7344 23.0625,27.0469 Q23.75,26.3438 24.0781,24.8438 L24.9844,25.25 Q24.5781,26.9531 23.6094,27.9063 Q22.6563,28.8594 21.3438,28.8594 Z " fill="#000000"/><text fill="#000000" font-family="sans-serif" font-size="14" lengthAdjust="spacing" textLength="109" x="36" y="29.4839">OperatingSystem</text><line style="stroke:#181818;stroke-width:0.5;" x1="8" x2="147" y1="39" y2="39"/><line style="stroke:#181818;stroke-width:0.5;" x1="8" x2="147" y1="47" y2="47"/></g><!--link Compiler to SoftwareBuild--><g id="link_Compiler_SoftwareBuild"><path codeLine="1" d="M77.5,182.22 C77.5,204.67 77.5,232.5 77.5,254.91 " fill="none" id="Compiler-to-SoftwareBuild" style="stroke:#181818;stroke-width:1.0;stroke-dasharray:7.0,7.0;"/><polygon fill="#181818" points="77.5,260.91,81.5,251.91,77.5,255.91,73.5,251.91,77.5,260.91" style="stroke:#181818;stroke-width:1.0;"/><text fill="#000000" font-family="sans-serif" font-size="13" lengthAdjust="spacing" textLength="67" x="78.5" y="227.8979">depends on</text></g><!--link OperatingSystem to Compiler--><g id="link_OperatingSystem_Compiler"><path codeLine="2" d="M77.5,55.22 C77.5,77.67 77.5,105.5 77.5,127.91 " fill="none" id="OperatingSystem-to-Compiler" style="stroke:#181818;stroke-width:1.0;stroke-dasharray:7.0,7.0;"/><polygon fill="#181818" points="77.5,133.91,81.5,124.91,77.5,128.91,73.5,124.91,77.5,133.91" style="stroke:#181818;stroke-width:1.0;"/><text fill="#000000" font-family="sans-serif" font-size="13" lengthAdjust="spacing" textLength="67" x="78.5" y="100.8979">depends on</text></g><!--SRC=[SyxFBSZCIIrIqDEpKmZEJoifJonATIhDp4bHi598IIr8pKifLiZFu_8lI2rABCdCIm-kB2v9pGKhTuRfHLO90000]--></g></svg>