<?xml version="1.0" encoding="us-ascii" standalone="no"?><svg xmlns="http://www.w3.org/2000/svg" xmlns:xlink="http://www.w3.org/1999/xlink" contentStyleType="text/css" height="316px" preserveAspectRatio="none" style="width:134px;height:316px;background:#FFFFFF;" version="1.1" viewBox="0 0 134 316" width="134px" zoomAndPan="magnify"><defs/><g><!--class Food--><g id="elem_Food"><rect fill="#F1F1F1" height="48" id="Food" rx="2.5" ry="2.5" style="stroke:#181818;stroke-width:0.5;" width="65" x="34.5" y="7"/><ellipse cx="49.5" cy="23" fill="#ADD1B2" rx="11" ry="11" style="stroke:#181818;stroke-width:1.0;"/><path d="M48.8438,28.8594 Q46.8594,28.8594 45.6875,27.3906 Q44.5313,25.9063 44.5313,22.8281 Q44.5313,20.2188 45.75,18.4688 Q46.9844,16.7188 49.1094,16.7188 Q49.6094,16.7188 50.1406,16.8594 Q50.5781,17.0469 50.8438,17.0469 Q51.0625,17.0469 51.1563,17 Q51.2656,16.9531 51.7188,16.3594 L52.4844,20.0938 L51.5938,20.3594 Q51.1406,18.9063 50.5313,18.3125 Q49.9375,17.7031 48.9844,17.7031 Q47.7656,17.7031 47.0469,19.1406 Q46.3281,20.5625 46.3281,22.75 Q46.3281,25.1563 46.9375,26.4531 Q47.5625,27.7344 48.9219,27.7344 Q49.875,27.7344 50.5625,27.0469 Q51.25,26.3438 51.5781,24.8438 L52.4844,25.25 Q52.0781,26.9531 51.1094,27.9063 Q50.1563,28.8594 48.8438,28.8594 Z " fill="#000000"/><text fill="#000000" font-family="sans-serif" font-size="14" lengthAdjust="spacing" textLength="33" x="63.5" y="29.4839">Food</text><line style="stroke:#181818;stroke-width:0.5;" x1="35.5" x2="98.5" y1="39" y2="39"/><line style="stroke:#181818;stroke-width:0.5;" x1="35.5" x2="98.5" y1="47" y2="47"/></g><!--class Dish--><g id="elem_Dish"><rect fill="#F1F1F1" height="48" id="Dish" rx="2.5" ry="2.5" style="stroke:#181818;stroke-width:0.5;" width="60" x="37" y="134"/><ellipse cx="52" cy="150" fill="#ADD1B2" rx="11" ry="11" style="stroke:#181818;stroke-width:1.0;"/><path d="M51.3438,155.8594 Q49.3594,155.8594 48.1875,154.3906 Q47.0313,152.9063 47.0313,149.8281 Q47.0313,147.2188 48.25,145.4688 Q49.4844,143.7188 51.6094,143.7188 Q52.1094,143.7188 52.6406,143.8594 Q53.0781,144.0469 53.3438,144.0469 Q53.5625,144.0469 53.6563,144 Q53.7656,143.9531 54.2188,143.3594 L54.9844,147.0938 L54.0938,147.3594 Q53.6406,145.9063 53.0313,145.3125 Q52.4375,144.7031 51.4844,144.7031 Q50.2656,144.7031 49.5469,146.1406 Q48.8281,147.5625 48.8281,149.75 Q48.8281,152.1563 49.4375,153.4531 Q50.0625,154.7344 51.4219,154.7344 Q52.375,154.7344 53.0625,154.0469 Q53.75,153.3438 54.0781,151.8438 L54.9844,152.25 Q54.5781,153.9531 53.6094,154.9063 Q52.6563,155.8594 51.3438,155.8594 Z " fill="#000000"/><text fill="#000000" font-family="sans-serif" font-size="14" lengthAdjust="spacing" textLength="28" x="66" y="156.4839">Dish</text><line style="stroke:#181818;stroke-width:0.5;" x1="38" x2="96" y1="166" y2="166"/><line style="stroke:#181818;stroke-width:0.5;" x1="38" x2="96" y1="174" y2="174"/></g><!--class FishAndChips--><g id="elem_FishAndChips"><rect fill="#F1F1F1" height="48" id="FishAndChips" rx="2.5" ry="2.5" style="stroke:#181818;stroke-width:0.5;" width="120" x="7" y="261"/><ellipse cx="22" cy="277" fill="#ADD1B2" rx="11" ry="11" style="stroke:#181818;stroke-width:1.0;"/><path d="M21.3438,282.8594 Q19.3594,282.8594 18.1875,281.3906 Q17.0313,279.9063 17.0313,276.8281 Q17.0313,274.2188 18.25,272.4688 Q19.4844,270.7188 21.6094,270.7188 Q22.1094,270.7188 22.6406,270.8594 Q23.0781,271.0469 23.3438,271.0469 Q23.5625,271.0469 23.6563,271 Q23.7656,270.9531 24.2188,270.3594 L24.9844,274.0938 L24.0938,274.3594 Q23.6406,272.9063 23.0313,272.3125 Q22.4375,271.7031 21.4844,271.7031 Q20.2656,271.7031 19.5469,273.1406 Q18.8281,274.5625 18.8281,276.75 Q18.8281,279.1563 19.4375,280.4531 Q20.0625,281.7344 21.4219,281.7344 Q22.375,281.7344 23.0625,281.0469 Q23.75,280.3438 24.0781,278.8438 L24.9844,279.25 Q24.5781,280.9531 23.6094,281.9063 Q22.6563,282.8594 21.3438,282.8594 Z " fill="#000000"/><text fill="#000000" font-family="sans-serif" font-size="14" lengthAdjust="spacing" textLength="88" x="36" y="283.4839">FishAndChips</text><line style="stroke:#181818;stroke-width:0.5;" x1="8" x2="126" y1="293" y2="293"/><line style="stroke:#181818;stroke-width:0.5;" x1="8" x2="126" y1="301" y2="301"/></g><!--reverse link Food to Dish--><g id="link_Food_Dish"><path codeLine="1" d="M67,73.22 C67,95.67 67,111.5 67,133.91 " fill="none" id="Food-backto-Dish" style="stroke:#181818;stroke-width:1.0;"/><polygon fill="none" points="67,55.22,61,73.22,73,73.22,67,55.22" style="stroke:#181818;stroke-width:1.0;"/><text fill="#000000" font-family="sans-serif" font-size="13" lengthAdjust="spacing" textLength="42" x="68" y="100.8979">inherits</text></g><!--reverse link Dish to FishAndChips--><g id="link_Dish_FishAndChips"><path codeLine="2" d="M67,200.22 C67,222.67 67,238.5 67,260.91 " fill="none" id="Dish-backto-FishAndChips" style="stroke:#181818;stroke-width:1.0;"/><polygon fill="none" points="67,182.22,61,200.22,73,200.22,67,182.22" style="stroke:#181818;stroke-width:1.0;"/><text fill="#000000" font-family="sans-serif" font-size="13" lengthAdjust="spacing" textLength="42" x="68" y="227.8979">inherits</text></g><!--SRC=[SylFJr6mgT7LLN39BCvGi5B8pCj8BSeiAUO2yy4oRa2MOrwASqPcGJ6I2W00]--></g></svg>