<?xml version="1.0" encoding="us-ascii" standalone="no"?><svg xmlns="http://www.w3.org/2000/svg" xmlns:xlink="http://www.w3.org/1999/xlink" contentStyleType="text/css" height="316px" preserveAspectRatio="none" style="width:132px;height:316px;background:#FFFFFF;" version="1.1" viewBox="0 0 132 316" width="132px" zoomAndPan="magnify"><defs/><g><!--class Food--><g id="elem_Food"><rect fill="#F1F1F1" height="48" id="Food" rx="2.5" ry="2.5" style="stroke:#181818;stroke-width:0.5;" width="65" x="33.5" y="7"/><ellipse cx="48.5" cy="23" fill="#ADD1B2" rx="11" ry="11" style="stroke:#181818;stroke-width:1.0;"/><path d="M47.8438,28.8594 Q45.8594,28.8594 44.6875,27.3906 Q43.5313,25.9063 43.5313,22.8281 Q43.5313,20.2188 44.75,18.4688 Q45.9844,16.7188 48.1094,16.7188 Q48.6094,16.7188 49.1406,16.8594 Q49.5781,17.0469 49.8438,17.0469 Q50.0625,17.0469 50.1563,17 Q50.2656,16.9531 50.7188,16.3594 L51.4844,20.0938 L50.5938,20.3594 Q50.1406,18.9063 49.5313,18.3125 Q48.9375,17.7031 47.9844,17.7031 Q46.7656,17.7031 46.0469,19.1406 Q45.3281,20.5625 45.3281,22.75 Q45.3281,25.1563 45.9375,26.4531 Q46.5625,27.7344 47.9219,27.7344 Q48.875,27.7344 49.5625,27.0469 Q50.25,26.3438 50.5781,24.8438 L51.4844,25.25 Q51.0781,26.9531 50.1094,27.9063 Q49.1563,28.8594 47.8438,28.8594 Z " fill="#000000"/><text fill="#000000" font-family="sans-serif" font-size="14" lengthAdjust="spacing" textLength="33" x="62.5" y="29.4839">Food</text><line style="stroke:#181818;stroke-width:0.5;" x1="34.5" x2="97.5" y1="39" y2="39"/><line style="stroke:#181818;stroke-width:0.5;" x1="34.5" x2="97.5" y1="47" y2="47"/></g><!--class Snack--><g id="elem_Snack"><rect fill="#F1F1F1" height="48" id="Snack" rx="2.5" ry="2.5" style="stroke:#181818;stroke-width:0.5;" width="71" x="30.5" y="134"/><ellipse cx="45.5" cy="150" fill="#ADD1B2" rx="11" ry="11" style="stroke:#181818;stroke-width:1.0;"/><path d="M44.8438,155.8594 Q42.8594,155.8594 41.6875,154.3906 Q40.5313,152.9063 40.5313,149.8281 Q40.5313,147.2188 41.75,145.4688 Q42.9844,143.7188 45.1094,143.7188 Q45.6094,143.7188 46.1406,143.8594 Q46.5781,144.0469 46.8438,144.0469 Q47.0625,144.0469 47.1563,144 Q47.2656,143.9531 47.7188,143.3594 L48.4844,147.0938 L47.5938,147.3594 Q47.1406,145.9063 46.5313,145.3125 Q45.9375,144.7031 44.9844,144.7031 Q43.7656,144.7031 43.0469,146.1406 Q42.3281,147.5625 42.3281,149.75 Q42.3281,152.1563 42.9375,153.4531 Q43.5625,154.7344 44.9219,154.7344 Q45.875,154.7344 46.5625,154.0469 Q47.25,153.3438 47.5781,151.8438 L48.4844,152.25 Q48.0781,153.9531 47.1094,154.9063 Q46.1563,155.8594 44.8438,155.8594 Z " fill="#000000"/><text fill="#000000" font-family="sans-serif" font-size="14" lengthAdjust="spacing" textLength="39" x="59.5" y="156.4839">Snack</text><line style="stroke:#181818;stroke-width:0.5;" x1="31.5" x2="100.5" y1="166" y2="166"/><line style="stroke:#181818;stroke-width:0.5;" x1="31.5" x2="100.5" y1="174" y2="174"/></g><!--class ChocolateBar--><g id="elem_ChocolateBar"><rect fill="#F1F1F1" height="48" id="ChocolateBar" rx="2.5" ry="2.5" style="stroke:#181818;stroke-width:0.5;" width="118" x="7" y="261"/><ellipse cx="22" cy="277" fill="#ADD1B2" rx="11" ry="11" style="stroke:#181818;stroke-width:1.0;"/><path d="M21.3438,282.8594 Q19.3594,282.8594 18.1875,281.3906 Q17.0313,279.9063 17.0313,276.8281 Q17.0313,274.2188 18.25,272.4688 Q19.4844,270.7188 21.6094,270.7188 Q22.1094,270.7188 22.6406,270.8594 Q23.0781,271.0469 23.3438,271.0469 Q23.5625,271.0469 23.6563,271 Q23.7656,270.9531 24.2188,270.3594 L24.9844,274.0938 L24.0938,274.3594 Q23.6406,272.9063 23.0313,272.3125 Q22.4375,271.7031 21.4844,271.7031 Q20.2656,271.7031 19.5469,273.1406 Q18.8281,274.5625 18.8281,276.75 Q18.8281,279.1563 19.4375,280.4531 Q20.0625,281.7344 21.4219,281.7344 Q22.375,281.7344 23.0625,281.0469 Q23.75,280.3438 24.0781,278.8438 L24.9844,279.25 Q24.5781,280.9531 23.6094,281.9063 Q22.6563,282.8594 21.3438,282.8594 Z " fill="#000000"/><text fill="#000000" font-family="sans-serif" font-size="14" lengthAdjust="spacing" textLength="86" x="36" y="283.4839">ChocolateBar</text><line style="stroke:#181818;stroke-width:0.5;" x1="8" x2="124" y1="293" y2="293"/><line style="stroke:#181818;stroke-width:0.5;" x1="8" x2="124" y1="301" y2="301"/></g><!--reverse link Food to Snack--><g id="link_Food_Snack"><path codeLine="1" d="M66,73.22 C66,95.67 66,111.5 66,133.91 " fill="none" id="Food-backto-Snack" style="stroke:#181818;stroke-width:1.0;"/><polygon fill="none" points="66,55.22,60,73.22,72,73.22,66,55.22" style="stroke:#181818;stroke-width:1.0;"/><text fill="#000000" font-family="sans-serif" font-size="13" lengthAdjust="spacing" textLength="42" x="67" y="100.8979">inherits</text></g><!--reverse link Snack to ChocolateBar--><g id="link_Snack_ChocolateBar"><path codeLine="2" d="M66,200.22 C66,222.67 66,238.5 66,260.91 " fill="none" id="Snack-backto-ChocolateBar" style="stroke:#181818;stroke-width:1.0;"/><polygon fill="none" points="66,182.22,60,200.22,72,200.22,66,182.22" style="stroke:#181818;stroke-width:1.0;"/><text fill="#000000" font-family="sans-serif" font-size="13" lengthAdjust="spacing" textLength="42" x="67" y="227.8979">inherits</text></g><!--SRC=[SylFJr6mgT7LLGZEIqpELh1IoCpBI2tAB2dcWWY0vPmpyfFpSn9BKfqIYv2K0000]--></g></svg>