<?xml version="1.0" encoding="us-ascii" standalone="no"?><svg xmlns="http://www.w3.org/2000/svg" xmlns:xlink="http://www.w3.org/1999/xlink" contentStyleType="text/css" height="316px" preserveAspectRatio="none" style="width:113px;height:316px;background:#FFFFFF;" version="1.1" viewBox="0 0 113 316" width="113px" zoomAndPan="magnify"><defs/><g><!--class Dish--><g id="elem_Dish"><rect fill="#F1F1F1" height="48" id="Dish" rx="2.5" ry="2.5" style="stroke:#181818;stroke-width:0.5;" width="60" x="26.5" y="7"/><ellipse cx="41.5" cy="23" fill="#ADD1B2" rx="11" ry="11" style="stroke:#181818;stroke-width:1.0;"/><path d="M40.8438,28.8594 Q38.8594,28.8594 37.6875,27.3906 Q36.5313,25.9063 36.5313,22.8281 Q36.5313,20.2188 37.75,18.4688 Q38.9844,16.7188 41.1094,16.7188 Q41.6094,16.7188 42.1406,16.8594 Q42.5781,17.0469 42.8438,17.0469 Q43.0625,17.0469 43.1563,17 Q43.2656,16.9531 43.7188,16.3594 L44.4844,20.0938 L43.5938,20.3594 Q43.1406,18.9063 42.5313,18.3125 Q41.9375,17.7031 40.9844,17.7031 Q39.7656,17.7031 39.0469,19.1406 Q38.3281,20.5625 38.3281,22.75 Q38.3281,25.1563 38.9375,26.4531 Q39.5625,27.7344 40.9219,27.7344 Q41.875,27.7344 42.5625,27.0469 Q43.25,26.3438 43.5781,24.8438 L44.4844,25.25 Q44.0781,26.9531 43.1094,27.9063 Q42.1563,28.8594 40.8438,28.8594 Z " fill="#000000"/><text fill="#000000" font-family="sans-serif" font-size="14" lengthAdjust="spacing" textLength="28" x="55.5" y="29.4839">Dish</text><line style="stroke:#181818;stroke-width:0.5;" x1="27.5" x2="85.5" y1="39" y2="39"/><line style="stroke:#181818;stroke-width:0.5;" x1="27.5" x2="85.5" y1="47" y2="47"/></g><!--class Soup--><g id="elem_Soup"><rect fill="#F1F1F1" height="48" id="Soup" rx="2.5" ry="2.5" style="stroke:#181818;stroke-width:0.5;" width="65" x="24" y="134"/><ellipse cx="39" cy="150" fill="#ADD1B2" rx="11" ry="11" style="stroke:#181818;stroke-width:1.0;"/><path d="M38.3438,155.8594 Q36.3594,155.8594 35.1875,154.3906 Q34.0313,152.9063 34.0313,149.8281 Q34.0313,147.2188 35.25,145.4688 Q36.4844,143.7188 38.6094,143.7188 Q39.1094,143.7188 39.6406,143.8594 Q40.0781,144.0469 40.3438,144.0469 Q40.5625,144.0469 40.6563,144 Q40.7656,143.9531 41.2188,143.3594 L41.9844,147.0938 L41.0938,147.3594 Q40.6406,145.9063 40.0313,145.3125 Q39.4375,144.7031 38.4844,144.7031 Q37.2656,144.7031 36.5469,146.1406 Q35.8281,147.5625 35.8281,149.75 Q35.8281,152.1563 36.4375,153.4531 Q37.0625,154.7344 38.4219,154.7344 Q39.375,154.7344 40.0625,154.0469 Q40.75,153.3438 41.0781,151.8438 L41.9844,152.25 Q41.5781,153.9531 40.6094,154.9063 Q39.6563,155.8594 38.3438,155.8594 Z " fill="#000000"/><text fill="#000000" font-family="sans-serif" font-size="14" lengthAdjust="spacing" textLength="33" x="53" y="156.4839">Soup</text><line style="stroke:#181818;stroke-width:0.5;" x1="25" x2="88" y1="166" y2="166"/><line style="stroke:#181818;stroke-width:0.5;" x1="25" x2="88" y1="174" y2="174"/></g><!--class LentilSoup--><g id="elem_LentilSoup"><rect fill="#F1F1F1" height="48" id="LentilSoup" rx="2.5" ry="2.5" style="stroke:#181818;stroke-width:0.5;" width="99" x="7" y="261"/><ellipse cx="22" cy="277" fill="#ADD1B2" rx="11" ry="11" style="stroke:#181818;stroke-width:1.0;"/><path d="M21.3438,282.8594 Q19.3594,282.8594 18.1875,281.3906 Q17.0313,279.9063 17.0313,276.8281 Q17.0313,274.2188 18.25,272.4688 Q19.4844,270.7188 21.6094,270.7188 Q22.1094,270.7188 22.6406,270.8594 Q23.0781,271.0469 23.3438,271.0469 Q23.5625,271.0469 23.6563,271 Q23.7656,270.9531 24.2188,270.3594 L24.9844,274.0938 L24.0938,274.3594 Q23.6406,272.9063 23.0313,272.3125 Q22.4375,271.7031 21.4844,271.7031 Q20.2656,271.7031 19.5469,273.1406 Q18.8281,274.5625 18.8281,276.75 Q18.8281,279.1563 19.4375,280.4531 Q20.0625,281.7344 21.4219,281.7344 Q22.375,281.7344 23.0625,281.0469 Q23.75,280.3438 24.0781,278.8438 L24.9844,279.25 Q24.5781,280.9531 23.6094,281.9063 Q22.6563,282.8594 21.3438,282.8594 Z " fill="#000000"/><text fill="#000000" font-family="sans-serif" font-size="14" lengthAdjust="spacing" textLength="67" x="36" y="283.4839">LentilSoup</text><line style="stroke:#181818;stroke-width:0.5;" x1="8" x2="105" y1="293" y2="293"/><line style="stroke:#181818;stroke-width:0.5;" x1="8" x2="105" y1="301" y2="301"/></g><!--reverse link Dish to Soup--><g id="link_Dish_Soup"><path codeLine="1" d="M56.5,73.22 C56.5,95.67 56.5,111.5 56.5,133.91 " fill="none" id="Dish-backto-Soup" style="stroke:#181818;stroke-width:1.0;"/><polygon fill="none" points="56.5,55.22,50.5,73.22,62.5,73.22,56.5,55.22" style="stroke:#181818;stroke-width:1.0;"/><text fill="#000000" font-family="sans-serif" font-size="13" lengthAdjust="spacing" textLength="42" x="57.5" y="100.8979">inherits</text></g><!--reverse link Soup to LentilSoup--><g id="link_Soup_LentilSoup"><path codeLine="2" d="M56.5,200.22 C56.5,222.67 56.5,238.5 56.5,260.91 " fill="none" id="Soup-backto-LentilSoup" style="stroke:#181818;stroke-width:1.0;"/><polygon fill="none" points="56.5,182.22,50.5,200.22,62.5,200.22,56.5,182.22" style="stroke:#181818;stroke-width:1.0;"/><text fill="#000000" font-family="sans-serif" font-size="13" lengthAdjust="spacing" textLength="42" x="57.5" y="227.8979">inherits</text></g><!--SRC=[Syaipb2mgT7LLGZEBorGi5B8pCj8BSeiAUO2yy4oFgbv9PavQF80]--></g></svg>