<?xml version="1.0" encoding="us-ascii" standalone="no"?><svg xmlns="http://www.w3.org/2000/svg" xmlns:xlink="http://www.w3.org/1999/xlink" contentStyleType="text/css" height="316px" preserveAspectRatio="none" style="width:135px;height:316px;background:#FFFFFF;" version="1.1" viewBox="0 0 135 316" width="135px" zoomAndPan="magnify"><defs/><g><!--class Food--><g id="elem_Food"><rect fill="#F1F1F1" height="48" id="Food" rx="2.5" ry="2.5" style="stroke:#181818;stroke-width:0.5;" width="65" x="35" y="7"/><ellipse cx="50" cy="23" fill="#ADD1B2" rx="11" ry="11" style="stroke:#181818;stroke-width:1.0;"/><path d="M49.3438,28.8594 Q47.3594,28.8594 46.1875,27.3906 Q45.0313,25.9063 45.0313,22.8281 Q45.0313,20.2188 46.25,18.4688 Q47.4844,16.7188 49.6094,16.7188 Q50.1094,16.7188 50.6406,16.8594 Q51.0781,17.0469 51.3438,17.0469 Q51.5625,17.0469 51.6563,17 Q51.7656,16.9531 52.2188,16.3594 L52.9844,20.0938 L52.0938,20.3594 Q51.6406,18.9063 51.0313,18.3125 Q50.4375,17.7031 49.4844,17.7031 Q48.2656,17.7031 47.5469,19.1406 Q46.8281,20.5625 46.8281,22.75 Q46.8281,25.1563 47.4375,26.4531 Q48.0625,27.7344 49.4219,27.7344 Q50.375,27.7344 51.0625,27.0469 Q51.75,26.3438 52.0781,24.8438 L52.9844,25.25 Q52.5781,26.9531 51.6094,27.9063 Q50.6563,28.8594 49.3438,28.8594 Z " fill="#000000"/><text fill="#000000" font-family="sans-serif" font-size="14" lengthAdjust="spacing" textLength="33" x="64" y="29.4839">Food</text><line style="stroke:#181818;stroke-width:0.5;" x1="36" x2="99" y1="39" y2="39"/><line style="stroke:#181818;stroke-width:0.5;" x1="36" x2="99" y1="47" y2="47"/></g><!--class Sandwich--><g id="elem_Sandwich"><rect fill="#F1F1F1" height="48" id="Sandwich" rx="2.5" ry="2.5" style="stroke:#181818;stroke-width:0.5;" width="92" x="21.5" y="134"/><ellipse cx="36.5" cy="150" fill="#ADD1B2" rx="11" ry="11" style="stroke:#181818;stroke-width:1.0;"/><path d="M35.8438,155.8594 Q33.8594,155.8594 32.6875,154.3906 Q31.5313,152.9063 31.5313,149.8281 Q31.5313,147.2188 32.75,145.4688 Q33.9844,143.7188 36.1094,143.7188 Q36.6094,143.7188 37.1406,143.8594 Q37.5781,144.0469 37.8438,144.0469 Q38.0625,144.0469 38.1563,144 Q38.2656,143.9531 38.7188,143.3594 L39.4844,147.0938 L38.5938,147.3594 Q38.1406,145.9063 37.5313,145.3125 Q36.9375,144.7031 35.9844,144.7031 Q34.7656,144.7031 34.0469,146.1406 Q33.3281,147.5625 33.3281,149.75 Q33.3281,152.1563 33.9375,153.4531 Q34.5625,154.7344 35.9219,154.7344 Q36.875,154.7344 37.5625,154.0469 Q38.25,153.3438 38.5781,151.8438 L39.4844,152.25 Q39.0781,153.9531 38.1094,154.9063 Q37.1563,155.8594 35.8438,155.8594 Z " fill="#000000"/><text fill="#000000" font-family="sans-serif" font-size="14" lengthAdjust="spacing" textLength="60" x="50.5" y="156.4839">Sandwich</text><line style="stroke:#181818;stroke-width:0.5;" x1="22.5" x2="112.5" y1="166" y2="166"/><line style="stroke:#181818;stroke-width:0.5;" x1="22.5" x2="112.5" y1="174" y2="174"/></g><!--class ClubSandwich--><g id="elem_ClubSandwich"><rect fill="#F1F1F1" height="48" id="ClubSandwich" rx="2.5" ry="2.5" style="stroke:#181818;stroke-width:0.5;" width="121" x="7" y="261"/><ellipse cx="22" cy="277" fill="#ADD1B2" rx="11" ry="11" style="stroke:#181818;stroke-width:1.0;"/><path d="M21.3438,282.8594 Q19.3594,282.8594 18.1875,281.3906 Q17.0313,279.9063 17.0313,276.8281 Q17.0313,274.2188 18.25,272.4688 Q19.4844,270.7188 21.6094,270.7188 Q22.1094,270.7188 22.6406,270.8594 Q23.0781,271.0469 23.3438,271.0469 Q23.5625,271.0469 23.6563,271 Q23.7656,270.9531 24.2188,270.3594 L24.9844,274.0938 L24.0938,274.3594 Q23.6406,272.9063 23.0313,272.3125 Q22.4375,271.7031 21.4844,271.7031 Q20.2656,271.7031 19.5469,273.1406 Q18.8281,274.5625 18.8281,276.75 Q18.8281,279.1563 19.4375,280.4531 Q20.0625,281.7344 21.4219,281.7344 Q22.375,281.7344 23.0625,281.0469 Q23.75,280.3438 24.0781,278.8438 L24.9844,279.25 Q24.5781,280.9531 23.6094,281.9063 Q22.6563,282.8594 21.3438,282.8594 Z " fill="#000000"/><text fill="#000000" font-family="sans-serif" font-size="14" lengthAdjust="spacing" textLength="89" x="36" y="283.4839">ClubSandwich</text><line style="stroke:#181818;stroke-width:0.5;" x1="8" x2="127" y1="293" y2="293"/><line style="stroke:#181818;stroke-width:0.5;" x1="8" x2="127" y1="301" y2="301"/></g><!--reverse link Food to Sandwich--><g id="link_Food_Sandwich"><path codeLine="1" d="M67.5,73.22 C67.5,95.67 67.5,111.5 67.5,133.91 " fill="none" id="Food-backto-Sandwich" style="stroke:#181818;stroke-width:1.0;"/><polygon fill="none" points="67.5,55.22,61.5,73.22,73.5,73.22,67.5,55.22" style="stroke:#181818;stroke-width:1.0;"/><text fill="#000000" font-family="sans-serif" font-size="13" lengthAdjust="spacing" textLength="42" x="68.5" y="100.8979">inherits</text></g><!--reverse link Sandwich to ClubSandwich--><g id="link_Sandwich_ClubSandwich"><path codeLine="2" d="M67.5,200.22 C67.5,222.67 67.5,238.5 67.5,260.91 " fill="none" id="Sandwich-backto-ClubSandwich" style="stroke:#181818;stroke-width:1.0;"/><polygon fill="none" points="67.5,182.22,61.5,200.22,73.5,200.22,67.5,182.22" style="stroke:#181818;stroke-width:1.0;"/><text fill="#000000" font-family="sans-serif" font-size="13" lengthAdjust="spacing" textLength="42" x="68.5" y="227.8979">inherits</text></g><!--SRC=[SylFJr6mgT7LLGXEp4ifpqpEKB1IoCpBI2tAB2dcWek1LJZdb2PXKGK0]--></g></svg>