<?xml version="1.0" encoding="us-ascii" standalone="no"?><svg xmlns="http://www.w3.org/2000/svg" xmlns:xlink="http://www.w3.org/1999/xlink" contentStyleType="text/css" height="316px" preserveAspectRatio="none" style="width:110px;height:316px;background:#FFFFFF;" version="1.1" viewBox="0 0 110 316" width="110px" zoomAndPan="magnify"><defs/><g><!--class Food--><g id="elem_Food"><rect fill="#F1F1F1" height="48" id="Food" rx="2.5" ry="2.5" style="stroke:#181818;stroke-width:0.5;" width="65" x="22.5" y="7"/><ellipse cx="37.5" cy="23" fill="#ADD1B2" rx="11" ry="11" style="stroke:#181818;stroke-width:1.0;"/><path d="M36.8438,28.8594 Q34.8594,28.8594 33.6875,27.3906 Q32.5313,25.9063 32.5313,22.8281 Q32.5313,20.2188 33.75,18.4688 Q34.9844,16.7188 37.1094,16.7188 Q37.6094,16.7188 38.1406,16.8594 Q38.5781,17.0469 38.8438,17.0469 Q39.0625,17.0469 39.1563,17 Q39.2656,16.9531 39.7188,16.3594 L40.4844,20.0938 L39.5938,20.3594 Q39.1406,18.9063 38.5313,18.3125 Q37.9375,17.7031 36.9844,17.7031 Q35.7656,17.7031 35.0469,19.1406 Q34.3281,20.5625 34.3281,22.75 Q34.3281,25.1563 34.9375,26.4531 Q35.5625,27.7344 36.9219,27.7344 Q37.875,27.7344 38.5625,27.0469 Q39.25,26.3438 39.5781,24.8438 L40.4844,25.25 Q40.0781,26.9531 39.1094,27.9063 Q38.1563,28.8594 36.8438,28.8594 Z " fill="#000000"/><text fill="#000000" font-family="sans-serif" font-size="14" lengthAdjust="spacing" textLength="33" x="51.5" y="29.4839">Food</text><line style="stroke:#181818;stroke-width:0.5;" x1="23.5" x2="86.5" y1="39" y2="39"/><line style="stroke:#181818;stroke-width:0.5;" x1="23.5" x2="86.5" y1="47" y2="47"/></g><!--class PastaDish--><g id="elem_PastaDish"><rect fill="#F1F1F1" height="48" id="PastaDish" rx="2.5" ry="2.5" style="stroke:#181818;stroke-width:0.5;" width="96" x="7" y="134"/><ellipse cx="22" cy="150" fill="#ADD1B2" rx="11" ry="11" style="stroke:#181818;stroke-width:1.0;"/><path d="M21.3438,155.8594 Q19.3594,155.8594 18.1875,154.3906 Q17.0313,152.9063 17.0313,149.8281 Q17.0313,147.2188 18.25,145.4688 Q19.4844,143.7188 21.6094,143.7188 Q22.1094,143.7188 22.6406,143.8594 Q23.0781,144.0469 23.3438,144.0469 Q23.5625,144.0469 23.6563,144 Q23.7656,143.9531 24.2188,143.3594 L24.9844,147.0938 L24.0938,147.3594 Q23.6406,145.9063 23.0313,145.3125 Q22.4375,144.7031 21.4844,144.7031 Q20.2656,144.7031 19.5469,146.1406 Q18.8281,147.5625 18.8281,149.75 Q18.8281,152.1563 19.4375,153.4531 Q20.0625,154.7344 21.4219,154.7344 Q22.375,154.7344 23.0625,154.0469 Q23.75,153.3438 24.0781,151.8438 L24.9844,152.25 Q24.5781,153.9531 23.6094,154.9063 Q22.6563,155.8594 21.3438,155.8594 Z " fill="#000000"/><text fill="#000000" font-family="sans-serif" font-size="14" lengthAdjust="spacing" textLength="64" x="36" y="156.4839">PastaDish</text><line style="stroke:#181818;stroke-width:0.5;" x1="8" x2="102" y1="166" y2="166"/><line style="stroke:#181818;stroke-width:0.5;" x1="8" x2="102" y1="174" y2="174"/></g><!--class Spaghetti--><g id="elem_Spaghetti"><rect fill="#F1F1F1" height="48" id="Spaghetti" rx="2.5" ry="2.5" style="stroke:#181818;stroke-width:0.5;" width="92" x="9" y="261"/><ellipse cx="24" cy="277" fill="#ADD1B2" rx="11" ry="11" style="stroke:#181818;stroke-width:1.0;"/><path d="M23.3438,282.8594 Q21.3594,282.8594 20.1875,281.3906 Q19.0313,279.9063 19.0313,276.8281 Q19.0313,274.2188 20.25,272.4688 Q21.4844,270.7188 23.6094,270.7188 Q24.1094,270.7188 24.6406,270.8594 Q25.0781,271.0469 25.3438,271.0469 Q25.5625,271.0469 25.6563,271 Q25.7656,270.9531 26.2188,270.3594 L26.9844,274.0938 L26.0938,274.3594 Q25.6406,272.9063 25.0313,272.3125 Q24.4375,271.7031 23.4844,271.7031 Q22.2656,271.7031 21.5469,273.1406 Q20.8281,274.5625 20.8281,276.75 Q20.8281,279.1563 21.4375,280.4531 Q22.0625,281.7344 23.4219,281.7344 Q24.375,281.7344 25.0625,281.0469 Q25.75,280.3438 26.0781,278.8438 L26.9844,279.25 Q26.5781,280.9531 25.6094,281.9063 Q24.6563,282.8594 23.3438,282.8594 Z " fill="#000000"/><text fill="#000000" font-family="sans-serif" font-size="14" lengthAdjust="spacing" textLength="60" x="38" y="283.4839">Spaghetti</text><line style="stroke:#181818;stroke-width:0.5;" x1="10" x2="100" y1="293" y2="293"/><line style="stroke:#181818;stroke-width:0.5;" x1="10" x2="100" y1="301" y2="301"/></g><!--reverse link Food to PastaDish--><g id="link_Food_PastaDish"><path codeLine="1" d="M55,73.22 C55,95.67 55,111.5 55,133.91 " fill="none" id="Food-backto-PastaDish" style="stroke:#181818;stroke-width:1.0;"/><polygon fill="none" points="55,55.22,49,73.22,61,73.22,55,55.22" style="stroke:#181818;stroke-width:1.0;"/><text fill="#000000" font-family="sans-serif" font-size="13" lengthAdjust="spacing" textLength="42" x="56" y="100.8979">inherits</text></g><!--reverse link PastaDish to Spaghetti--><g id="link_PastaDish_Spaghetti"><path codeLine="2" d="M55,200.22 C55,222.67 55,238.5 55,260.91 " fill="none" id="PastaDish-backto-Spaghetti" style="stroke:#181818;stroke-width:1.0;"/><polygon fill="none" points="55,182.22,49,200.22,61,200.22,55,182.22" style="stroke:#181818;stroke-width:1.0;"/><text fill="#000000" font-family="sans-serif" font-size="13" lengthAdjust="spacing" textLength="42" x="56" y="227.8979">inherits</text></g><!--SRC=[SylFJr6mgT7LLGX8B2v9TCaipb2mKiZCoqWjoYmfva88WjK45oIcPwIMb6GYgG40]--></g></svg>