<?xml version="1.0" encoding="us-ascii" standalone="no"?><svg xmlns="http://www.w3.org/2000/svg" xmlns:xlink="http://www.w3.org/1999/xlink" contentStyleType="text/css" height="316px" preserveAspectRatio="none" style="width:147px;height:316px;background:#FFFFFF;" version="1.1" viewBox="0 0 147 316" width="147px" zoomAndPan="magnify"><defs/><g><!--class Vegetable--><g id="elem_Vegetable"><rect fill="#F1F1F1" height="48" id="Vegetable" rx="2.5" ry="2.5" style="stroke:#181818;stroke-width:0.5;" width="96" x="25.5" y="7"/><ellipse cx="40.5" cy="23" fill="#ADD1B2" rx="11" ry="11" style="stroke:#181818;stroke-width:1.0;"/><path d="M39.8438,28.8594 Q37.8594,28.8594 36.6875,27.3906 Q35.5313,25.9063 35.5313,22.8281 Q35.5313,20.2188 36.75,18.4688 Q37.9844,16.7188 40.1094,16.7188 Q40.6094,16.7188 41.1406,16.8594 Q41.5781,17.0469 41.8438,17.0469 Q42.0625,17.0469 42.1563,17 Q42.2656,16.9531 42.7188,16.3594 L43.4844,20.0938 L42.5938,20.3594 Q42.1406,18.9063 41.5313,18.3125 Q40.9375,17.7031 39.9844,17.7031 Q38.7656,17.7031 38.0469,19.1406 Q37.3281,20.5625 37.3281,22.75 Q37.3281,25.1563 37.9375,26.4531 Q38.5625,27.7344 39.9219,27.7344 Q40.875,27.7344 41.5625,27.0469 Q42.25,26.3438 42.5781,24.8438 L43.4844,25.25 Q43.0781,26.9531 42.1094,27.9063 Q41.1563,28.8594 39.8438,28.8594 Z " fill="#000000"/><text fill="#000000" font-family="sans-serif" font-size="14" lengthAdjust="spacing" textLength="64" x="54.5" y="29.4839">Vegetable</text><line style="stroke:#181818;stroke-width:0.5;" x1="26.5" x2="120.5" y1="39" y2="39"/><line style="stroke:#181818;stroke-width:0.5;" x1="26.5" x2="120.5" y1="47" y2="47"/></g><!--class AlliumVegetable--><g id="elem_AlliumVegetable"><rect fill="#F1F1F1" height="48" id="AlliumVegetable" rx="2.5" ry="2.5" style="stroke:#181818;stroke-width:0.5;" width="133" x="7" y="134"/><ellipse cx="22" cy="150" fill="#ADD1B2" rx="11" ry="11" style="stroke:#181818;stroke-width:1.0;"/><path d="M21.3438,155.8594 Q19.3594,155.8594 18.1875,154.3906 Q17.0313,152.9063 17.0313,149.8281 Q17.0313,147.2188 18.25,145.4688 Q19.4844,143.7188 21.6094,143.7188 Q22.1094,143.7188 22.6406,143.8594 Q23.0781,144.0469 23.3438,144.0469 Q23.5625,144.0469 23.6563,144 Q23.7656,143.9531 24.2188,143.3594 L24.9844,147.0938 L24.0938,147.3594 Q23.6406,145.9063 23.0313,145.3125 Q22.4375,144.7031 21.4844,144.7031 Q20.2656,144.7031 19.5469,146.1406 Q18.8281,147.5625 18.8281,149.75 Q18.8281,152.1563 19.4375,153.4531 Q20.0625,154.7344 21.4219,154.7344 Q22.375,154.7344 23.0625,154.0469 Q23.75,153.3438 24.0781,151.8438 L24.9844,152.25 Q24.5781,153.9531 23.6094,154.9063 Q22.6563,155.8594 21.3438,155.8594 Z " fill="#000000"/><text fill="#000000" font-family="sans-serif" font-size="14" lengthAdjust="spacing" textLength="101" x="36" y="156.4839">AlliumVegetable</text><line style="stroke:#181818;stroke-width:0.5;" x1="8" x2="139" y1="166" y2="166"/><line style="stroke:#181818;stroke-width:0.5;" x1="8" x2="139" y1="174" y2="174"/></g><!--class Garlic--><g id="elem_Garlic"><rect fill="#F1F1F1" height="48" id="Garlic" rx="2.5" ry="2.5" style="stroke:#181818;stroke-width:0.5;" width="69" x="39" y="261"/><ellipse cx="54" cy="277" fill="#ADD1B2" rx="11" ry="11" style="stroke:#181818;stroke-width:1.0;"/><path d="M53.3438,282.8594 Q51.3594,282.8594 50.1875,281.3906 Q49.0313,279.9063 49.0313,276.8281 Q49.0313,274.2188 50.25,272.4688 Q51.4844,270.7188 53.6094,270.7188 Q54.1094,270.7188 54.6406,270.8594 Q55.0781,271.0469 55.3438,271.0469 Q55.5625,271.0469 55.6563,271 Q55.7656,270.9531 56.2188,270.3594 L56.9844,274.0938 L56.0938,274.3594 Q55.6406,272.9063 55.0313,272.3125 Q54.4375,271.7031 53.4844,271.7031 Q52.2656,271.7031 51.5469,273.1406 Q50.8281,274.5625 50.8281,276.75 Q50.8281,279.1563 51.4375,280.4531 Q52.0625,281.7344 53.4219,281.7344 Q54.375,281.7344 55.0625,281.0469 Q55.75,280.3438 56.0781,278.8438 L56.9844,279.25 Q56.5781,280.9531 55.6094,281.9063 Q54.6563,282.8594 53.3438,282.8594 Z " fill="#000000"/><text fill="#000000" font-family="sans-serif" font-size="14" lengthAdjust="spacing" textLength="37" x="68" y="283.4839">Garlic</text><line style="stroke:#181818;stroke-width:0.5;" x1="40" x2="107" y1="293" y2="293"/><line style="stroke:#181818;stroke-width:0.5;" x1="40" x2="107" y1="301" y2="301"/></g><!--reverse link Vegetable to AlliumVegetable--><g id="link_Vegetable_AlliumVegetable"><path codeLine="1" d="M73.5,73.22 C73.5,95.67 73.5,111.5 73.5,133.91 " fill="none" id="Vegetable-backto-AlliumVegetable" style="stroke:#181818;stroke-width:1.0;"/><polygon fill="none" points="73.5,55.22,67.5,73.22,79.5,73.22,73.5,55.22" style="stroke:#181818;stroke-width:1.0;"/><text fill="#000000" font-family="sans-serif" font-size="13" lengthAdjust="spacing" textLength="42" x="74.5" y="100.8979">inherits</text></g><!--reverse link AlliumVegetable to Garlic--><g id="link_AlliumVegetable_Garlic"><path codeLine="2" d="M73.5,200.22 C73.5,222.67 73.5,238.5 73.5,260.91 " fill="none" id="AlliumVegetable-backto-Garlic" style="stroke:#181818;stroke-width:1.0;"/><polygon fill="none" points="73.5,182.22,67.5,200.22,79.5,200.22,73.5,182.22" style="stroke:#181818;stroke-width:1.0;"/><text fill="#000000" font-family="sans-serif" font-size="13" lengthAdjust="spacing" textLength="42" x="74.5" y="227.8979">inherits</text></g><!--SRC=[2qjDJor9JCf9LR2fqTLLSCp9oIpD3OCBMYbavcMa5cMM57EXIu7LkoSMvMGc8oa30000]--></g></svg>