<?xml version="1.0" encoding="us-ascii" standalone="no"?><svg xmlns="http://www.w3.org/2000/svg" xmlns:xlink="http://www.w3.org/1999/xlink" contentStyleType="text/css" height="316px" preserveAspectRatio="none" style="width:153px;height:316px;background:#FFFFFF;" version="1.1" viewBox="0 0 153 316" width="153px" zoomAndPan="magnify"><defs/><g><!--class ShuttleBus--><g id="elem_ShuttleBus"><rect fill="#F1F1F1" height="48" id="ShuttleBus" rx="2.5" ry="2.5" style="stroke:#181818;stroke-width:0.5;" width="100" x="26.5" y="134"/><ellipse cx="41.5" cy="150" fill="#ADD1B2" rx="11" ry="11" style="stroke:#181818;stroke-width:1.0;"/><path d="M40.8438,155.8594 Q38.8594,155.8594 37.6875,154.3906 Q36.5313,152.9063 36.5313,149.8281 Q36.5313,147.2188 37.75,145.4688 Q38.9844,143.7188 41.1094,143.7188 Q41.6094,143.7188 42.1406,143.8594 Q42.5781,144.0469 42.8438,144.0469 Q43.0625,144.0469 43.1563,144 Q43.2656,143.9531 43.7188,143.3594 L44.4844,147.0938 L43.5938,147.3594 Q43.1406,145.9063 42.5313,145.3125 Q41.9375,144.7031 40.9844,144.7031 Q39.7656,144.7031 39.0469,146.1406 Q38.3281,147.5625 38.3281,149.75 Q38.3281,152.1563 38.9375,153.4531 Q39.5625,154.7344 40.9219,154.7344 Q41.875,154.7344 42.5625,154.0469 Q43.25,153.3438 43.5781,151.8438 L44.4844,152.25 Q44.0781,153.9531 43.1094,154.9063 Q42.1563,155.8594 40.8438,155.8594 Z " fill="#000000"/><text fill="#000000" font-family="sans-serif" font-size="14" lengthAdjust="spacing" textLength="68" x="55.5" y="156.4839">ShuttleBus</text><line style="stroke:#181818;stroke-width:0.5;" x1="27.5" x2="125.5" y1="166" y2="166"/><line style="stroke:#181818;stroke-width:0.5;" x1="27.5" x2="125.5" y1="174" y2="174"/></g><!--class FreightTransport--><g id="elem_FreightTransport"><rect fill="#F1F1F1" height="48" id="FreightTransport" rx="2.5" ry="2.5" style="stroke:#181818;stroke-width:0.5;" width="139" x="7" y="261"/><ellipse cx="22" cy="277" fill="#ADD1B2" rx="11" ry="11" style="stroke:#181818;stroke-width:1.0;"/><path d="M21.3438,282.8594 Q19.3594,282.8594 18.1875,281.3906 Q17.0313,279.9063 17.0313,276.8281 Q17.0313,274.2188 18.25,272.4688 Q19.4844,270.7188 21.6094,270.7188 Q22.1094,270.7188 22.6406,270.8594 Q23.0781,271.0469 23.3438,271.0469 Q23.5625,271.0469 23.6563,271 Q23.7656,270.9531 24.2188,270.3594 L24.9844,274.0938 L24.0938,274.3594 Q23.6406,272.9063 23.0313,272.3125 Q22.4375,271.7031 21.4844,271.7031 Q20.2656,271.7031 19.5469,273.1406 Q18.8281,274.5625 18.8281,276.75 Q18.8281,279.1563 19.4375,280.4531 Q20.0625,281.7344 21.4219,281.7344 Q22.375,281.7344 23.0625,281.0469 Q23.75,280.3438 24.0781,278.8438 L24.9844,279.25 Q24.5781,280.9531 23.6094,281.9063 Q22.6563,282.8594 21.3438,282.8594 Z " fill="#000000"/><text fill="#000000" font-family="sans-serif" font-size="14" lengthAdjust="spacing" textLength="107" x="36" y="283.4839">FreightTransport</text><line style="stroke:#181818;stroke-width:0.5;" x1="8" x2="145" y1="293" y2="293"/><line style="stroke:#181818;stroke-width:0.5;" x1="8" x2="145" y1="301" y2="301"/></g><!--class DieselFuel--><g id="elem_DieselFuel"><rect fill="#F1F1F1" height="48" id="DieselFuel" rx="2.5" ry="2.5" style="stroke:#181818;stroke-width:0.5;" width="99" x="27" y="7"/><ellipse cx="42" cy="23" fill="#ADD1B2" rx="11" ry="11" style="stroke:#181818;stroke-width:1.0;"/><path d="M41.3438,28.8594 Q39.3594,28.8594 38.1875,27.3906 Q37.0313,25.9063 37.0313,22.8281 Q37.0313,20.2188 38.25,18.4688 Q39.4844,16.7188 41.6094,16.7188 Q42.1094,16.7188 42.6406,16.8594 Q43.0781,17.0469 43.3438,17.0469 Q43.5625,17.0469 43.6563,17 Q43.7656,16.9531 44.2188,16.3594 L44.9844,20.0938 L44.0938,20.3594 Q43.6406,18.9063 43.0313,18.3125 Q42.4375,17.7031 41.4844,17.7031 Q40.2656,17.7031 39.5469,19.1406 Q38.8281,20.5625 38.8281,22.75 Q38.8281,25.1563 39.4375,26.4531 Q40.0625,27.7344 41.4219,27.7344 Q42.375,27.7344 43.0625,27.0469 Q43.75,26.3438 44.0781,24.8438 L44.9844,25.25 Q44.5781,26.9531 43.6094,27.9063 Q42.6563,28.8594 41.3438,28.8594 Z " fill="#000000"/><text fill="#000000" font-family="sans-serif" font-size="14" lengthAdjust="spacing" textLength="67" x="56" y="29.4839">DieselFuel</text><line style="stroke:#181818;stroke-width:0.5;" x1="28" x2="125" y1="39" y2="39"/><line style="stroke:#181818;stroke-width:0.5;" x1="28" x2="125" y1="47" y2="47"/></g><!--link ShuttleBus to FreightTransport--><g id="link_ShuttleBus_FreightTransport"><path codeLine="1" d="M76.5,182.22 C76.5,204.67 76.5,232.5 76.5,254.91 " fill="none" id="ShuttleBus-to-FreightTransport" style="stroke:#181818;stroke-width:1.0;stroke-dasharray:7.0,7.0;"/><polygon fill="#181818" points="76.5,260.91,80.5,251.91,76.5,255.91,72.5,251.91,76.5,260.91" style="stroke:#181818;stroke-width:1.0;"/><text fill="#000000" font-family="sans-serif" font-size="13" lengthAdjust="spacing" textLength="67" x="77.5" y="227.8979">depends on</text></g><!--link DieselFuel to ShuttleBus--><g id="link_DieselFuel_ShuttleBus"><path codeLine="2" d="M76.5,55.22 C76.5,77.67 76.5,105.5 76.5,127.91 " fill="none" id="DieselFuel-to-ShuttleBus" style="stroke:#181818;stroke-width:1.0;stroke-dasharray:7.0,7.0;"/><polygon fill="#181818" points="76.5,133.91,80.5,124.91,76.5,128.91,72.5,124.91,76.5,133.91" style="stroke:#181818;stroke-width:1.0;"/><text fill="#000000" font-family="sans-serif" font-size="13" lengthAdjust="spacing" textLength="67" x="77.5" y="100.8979">depends on</text></g><!--SRC=[2yueBId9INKgBLRGqxDJS2jApKpFA0afIimhBiWlAb6mKaX9BKZDIobMoC_ZSibCBKxDSIjDpG4h3aReHLO60000]--></g></svg>