<?xml version="1.0" encoding="us-ascii" standalone="no"?><svg xmlns="http://www.w3.org/2000/svg" xmlns:xlink="http://www.w3.org/1999/xlink" contentStyleType="text/css" height="316px" preserveAspectRatio="none" style="width:141px;height:316px;background:#FFFFFF;" version="1.1" viewBox="0 0 141 316" width="141px" zoomAndPan="magnify"><defs/><g><!--class StorageBin--><g id="elem_StorageBin"><rect fill="#F1F1F1" height="48" id="StorageBin" rx="2.5" ry="2.5" style="stroke:#181818;stroke-width:0.5;" width="102" x="17" y="134"/><ellipse cx="32" cy="150" fill="#ADD1B2" rx="11" ry="11" style="stroke:#181818;stroke-width:1.0;"/><path d="M31.3438,155.8594 Q29.3594,155.8594 28.1875,154.3906 Q27.0313,152.9063 27.0313,149.8281 Q27.0313,147.2188 28.25,145.4688 Q29.4844,143.7188 31.6094,143.7188 Q32.1094,143.7188 32.6406,143.8594 Q33.0781,144.0469 33.3438,144.0469 Q33.5625,144.0469 33.6563,144 Q33.7656,143.9531 34.2188,143.3594 L34.9844,147.0938 L34.0938,147.3594 Q33.6406,145.9063 33.0313,145.3125 Q32.4375,144.7031 31.4844,144.7031 Q30.2656,144.7031 29.5469,146.1406 Q28.8281,147.5625 28.8281,149.75 Q28.8281,152.1563 29.4375,153.4531 Q30.0625,154.7344 31.4219,154.7344 Q32.375,154.7344 33.0625,154.0469 Q33.75,153.3438 34.0781,151.8438 L34.9844,152.25 Q34.5781,153.9531 33.6094,154.9063 Q32.6563,155.8594 31.3438,155.8594 Z " fill="#000000"/><text fill="#000000" font-family="sans-serif" font-size="14" lengthAdjust="spacing" textLength="70" x="46" y="156.4839">StorageBin</text><line style="stroke:#181818;stroke-width:0.5;" x1="18" x2="118" y1="166" y2="166"/><line style="stroke:#181818;stroke-width:0.5;" x1="18" x2="118" y1="174" y2="174"/></g><!--class Blanket--><g id="elem_Blanket"><rect fill="#F1F1F1" height="48" id="Blanket" rx="2.5" ry="2.5" style="stroke:#181818;stroke-width:0.5;" width="79" x="28.5" y="261"/><ellipse cx="43.5" cy="277" fill="#ADD1B2" rx="11" ry="11" style="stroke:#181818;stroke-width:1.0;"/><path d="M42.8438,282.8594 Q40.8594,282.8594 39.6875,281.3906 Q38.5313,279.9063 38.5313,276.8281 Q38.5313,274.2188 39.75,272.4688 Q40.9844,270.7188 43.1094,270.7188 Q43.6094,270.7188 44.1406,270.8594 Q44.5781,271.0469 44.8438,271.0469 Q45.0625,271.0469 45.1563,271 Q45.2656,270.9531 45.7188,270.3594 L46.4844,274.0938 L45.5938,274.3594 Q45.1406,272.9063 44.5313,272.3125 Q43.9375,271.7031 42.9844,271.7031 Q41.7656,271.7031 41.0469,273.1406 Q40.3281,274.5625 40.3281,276.75 Q40.3281,279.1563 40.9375,280.4531 Q41.5625,281.7344 42.9219,281.7344 Q43.875,281.7344 44.5625,281.0469 Q45.25,280.3438 45.5781,278.8438 L46.4844,279.25 Q46.0781,280.9531 45.1094,281.9063 Q44.1563,282.8594 42.8438,282.8594 Z " fill="#000000"/><text fill="#000000" font-family="sans-serif" font-size="14" lengthAdjust="spacing" textLength="47" x="57.5" y="283.4839">Blanket</text><line style="stroke:#181818;stroke-width:0.5;" x1="29.5" x2="106.5" y1="293" y2="293"/><line style="stroke:#181818;stroke-width:0.5;" x1="29.5" x2="106.5" y1="301" y2="301"/></g><!--class CampingStore--><g id="elem_CampingStore"><rect fill="#F1F1F1" height="48" id="CampingStore" rx="2.5" ry="2.5" style="stroke:#181818;stroke-width:0.5;" width="122" x="7" y="7"/><ellipse cx="22" cy="23" fill="#ADD1B2" rx="11" ry="11" style="stroke:#181818;stroke-width:1.0;"/><path d="M21.3438,28.8594 Q19.3594,28.8594 18.1875,27.3906 Q17.0313,25.9063 17.0313,22.8281 Q17.0313,20.2188 18.25,18.4688 Q19.4844,16.7188 21.6094,16.7188 Q22.1094,16.7188 22.6406,16.8594 Q23.0781,17.0469 23.3438,17.0469 Q23.5625,17.0469 23.6563,17 Q23.7656,16.9531 24.2188,16.3594 L24.9844,20.0938 L24.0938,20.3594 Q23.6406,18.9063 23.0313,18.3125 Q22.4375,17.7031 21.4844,17.7031 Q20.2656,17.7031 19.5469,19.1406 Q18.8281,20.5625 18.8281,22.75 Q18.8281,25.1563 19.4375,26.4531 Q20.0625,27.7344 21.4219,27.7344 Q22.375,27.7344 23.0625,27.0469 Q23.75,26.3438 24.0781,24.8438 L24.9844,25.25 Q24.5781,26.9531 23.6094,27.9063 Q22.6563,28.8594 21.3438,28.8594 Z " fill="#000000"/><text fill="#000000" font-family="sans-serif" font-size="14" lengthAdjust="spacing" textLength="90" x="36" y="29.4839">CampingStore</text><line style="stroke:#181818;stroke-width:0.5;" x1="8" x2="128" y1="39" y2="39"/><line style="stroke:#181818;stroke-width:0.5;" x1="8" x2="128" y1="47" y2="47"/></g><!--reverse link StorageBin to Blanket--><g id="link_StorageBin_Blanket"><path codeLine="1" d="M68,194.22 C68,216.67 68,238.5 68,260.91 " fill="none" id="StorageBin-backto-Blanket" style="stroke:#181818;stroke-width:1.0;"/><polygon fill="none" points="68,182.22,64,188.22,68,194.22,72,188.22,68,182.22" style="stroke:#181818;stroke-width:1.0;"/><text fill="#000000" font-family="sans-serif" font-size="13" lengthAdjust="spacing" textLength="64" x="69" y="227.8979">aggregates</text></g><!--reverse link CampingStore to StorageBin--><g id="link_CampingStore_StorageBin"><path codeLine="2" d="M68,67.22 C68,89.67 68,111.5 68,133.91 " fill="none" id="CampingStore-backto-StorageBin" style="stroke:#181818;stroke-width:1.0;"/><polygon fill="none" points="68,55.22,64,61.22,68,67.22,72,61.22,68,55.22" style="stroke:#181818;stroke-width:1.0;"/><text fill="#000000" font-family="sans-serif" font-size="13" lengthAdjust="spacing" textLength="64" x="69" y="100.8979">aggregates</text></g><!--SRC=[2ox9BqfCJtNAp5F8rzLLSCf9pCjEBL6mKaXCJozAJKyiIItcSaxCBSZCImy6Aaq5gmf6Q49M2000]--></g></svg>