<?xml version="1.0" encoding="us-ascii" standalone="no"?><svg xmlns="http://www.w3.org/2000/svg" xmlns:xlink="http://www.w3.org/1999/xlink" contentStyleType="text/css" height="316px" preserveAspectRatio="none" style="width:140px;height:316px;background:#FFFFFF;" version="1.1" viewBox="0 0 140 316" width="140px" zoomAndPan="magnify"><defs/><g><!--class Box--><g id="elem_Box"><rect fill="#F1F1F1" height="48" id="Box" rx="2.5" ry="2.5" style="stroke:#181818;stroke-width:0.5;" width="55" x="40" y="134"/><ellipse cx="55" cy="150" fill="#ADD1B2" rx="11" ry="11" style="stroke:#181818;stroke-width:1.0;"/><path d="M54.3438,155.8594 Q52.3594,155.8594 51.1875,154.3906 Q50.0313,152.9063 50.0313,149.8281 Q50.0313,147.2188 51.25,145.4688 Q52.4844,143.7188 54.6094,143.7188 Q55.1094,143.7188 55.6406,143.8594 Q56.0781,144.0469 56.3438,144.0469 Q56.5625,144.0469 56.6563,144 Q56.7656,143.9531 57.2188,143.3594 L57.9844,147.0938 L57.0938,147.3594 Q56.6406,145.9063 56.0313,145.3125 Q55.4375,144.7031 54.4844,144.7031 Q53.2656,144.7031 52.5469,146.1406 Q51.8281,147.5625 51.8281,149.75 Q51.8281,152.1563 52.4375,153.4531 Q53.0625,154.7344 54.4219,154.7344 Q55.375,154.7344 56.0625,154.0469 Q56.75,153.3438 57.0781,151.8438 L57.9844,152.25 Q57.5781,153.9531 56.6094,154.9063 Q55.6563,155.8594 54.3438,155.8594 Z " fill="#000000"/><text fill="#000000" font-family="sans-serif" font-size="14" lengthAdjust="spacing" textLength="23" x="69" y="156.4839">Box</text><line style="stroke:#181818;stroke-width:0.5;" x1="41" x2="94" y1="166" y2="166"/><line style="stroke:#181818;stroke-width:0.5;" x1="41" x2="94" y1="174" y2="174"/></g><!--class ChocolateBar--><g id="elem_ChocolateBar"><rect fill="#F1F1F1" height="48" id="ChocolateBar" rx="2.5" ry="2.5" style="stroke:#181818;stroke-width:0.5;" width="118" x="8.5" y="261"/><ellipse cx="23.5" cy="277" fill="#ADD1B2" rx="11" ry="11" style="stroke:#181818;stroke-width:1.0;"/><path d="M22.8438,282.8594 Q20.8594,282.8594 19.6875,281.3906 Q18.5313,279.9063 18.5313,276.8281 Q18.5313,274.2188 19.75,272.4688 Q20.9844,270.7188 23.1094,270.7188 Q23.6094,270.7188 24.1406,270.8594 Q24.5781,271.0469 24.8438,271.0469 Q25.0625,271.0469 25.1563,271 Q25.2656,270.9531 25.7188,270.3594 L26.4844,274.0938 L25.5938,274.3594 Q25.1406,272.9063 24.5313,272.3125 Q23.9375,271.7031 22.9844,271.7031 Q21.7656,271.7031 21.0469,273.1406 Q20.3281,274.5625 20.3281,276.75 Q20.3281,279.1563 20.9375,280.4531 Q21.5625,281.7344 22.9219,281.7344 Q23.875,281.7344 24.5625,281.0469 Q25.25,280.3438 25.5781,278.8438 L26.4844,279.25 Q26.0781,280.9531 25.1094,281.9063 Q24.1563,282.8594 22.8438,282.8594 Z " fill="#000000"/><text fill="#000000" font-family="sans-serif" font-size="14" lengthAdjust="spacing" textLength="86" x="37.5" y="283.4839">ChocolateBar</text><line style="stroke:#181818;stroke-width:0.5;" x1="9.5" x2="125.5" y1="293" y2="293"/><line style="stroke:#181818;stroke-width:0.5;" x1="9.5" x2="125.5" y1="301" y2="301"/></g><!--class RoboticsStore--><g id="elem_RoboticsStore"><rect fill="#F1F1F1" height="48" id="RoboticsStore" rx="2.5" ry="2.5" style="stroke:#181818;stroke-width:0.5;" width="121" x="7" y="7"/><ellipse cx="22" cy="23" fill="#ADD1B2" rx="11" ry="11" style="stroke:#181818;stroke-width:1.0;"/><path d="M21.3438,28.8594 Q19.3594,28.8594 18.1875,27.3906 Q17.0313,25.9063 17.0313,22.8281 Q17.0313,20.2188 18.25,18.4688 Q19.4844,16.7188 21.6094,16.7188 Q22.1094,16.7188 22.6406,16.8594 Q23.0781,17.0469 23.3438,17.0469 Q23.5625,17.0469 23.6563,17 Q23.7656,16.9531 24.2188,16.3594 L24.9844,20.0938 L24.0938,20.3594 Q23.6406,18.9063 23.0313,18.3125 Q22.4375,17.7031 21.4844,17.7031 Q20.2656,17.7031 19.5469,19.1406 Q18.8281,20.5625 18.8281,22.75 Q18.8281,25.1563 19.4375,26.4531 Q20.0625,27.7344 21.4219,27.7344 Q22.375,27.7344 23.0625,27.0469 Q23.75,26.3438 24.0781,24.8438 L24.9844,25.25 Q24.5781,26.9531 23.6094,27.9063 Q22.6563,28.8594 21.3438,28.8594 Z " fill="#000000"/><text fill="#000000" font-family="sans-serif" font-size="14" lengthAdjust="spacing" textLength="89" x="36" y="29.4839">RoboticsStore</text><line style="stroke:#181818;stroke-width:0.5;" x1="8" x2="127" y1="39" y2="39"/><line style="stroke:#181818;stroke-width:0.5;" x1="8" x2="127" y1="47" y2="47"/></g><!--reverse link Box to ChocolateBar--><g id="link_Box_ChocolateBar"><path codeLine="1" d="M67.5,194.22 C67.5,216.67 67.5,238.5 67.5,260.91 " fill="none" id="Box-backto-ChocolateBar" style="stroke:#181818;stroke-width:1.0;"/><polygon fill="none" points="67.5,182.22,63.5,188.22,67.5,194.22,71.5,188.22,67.5,182.22" style="stroke:#181818;stroke-width:1.0;"/><text fill="#000000" font-family="sans-serif" font-size="13" lengthAdjust="spacing" textLength="64" x="68.5" y="227.8979">aggregates</text></g><!--reverse link RoboticsStore to Box--><g id="link_RoboticsStore_Box"><path codeLine="2" d="M67.5,67.22 C67.5,89.67 67.5,111.5 67.5,133.91 " fill="none" id="RoboticsStore-backto-Box" style="stroke:#181818;stroke-width:1.0;"/><polygon fill="none" points="67.5,55.22,63.5,61.22,67.5,67.22,71.5,61.22,67.5,55.22" style="stroke:#181818;stroke-width:1.0;"/><text fill="#000000" font-family="sans-serif" font-size="13" lengthAdjust="spacing" textLength="64" x="68.5" y="100.8979">aggregates</text></g><!--SRC=[SyglKCZNrLLmpiXFpiz9B4brIYnIi598J4ylIaq7SekvWlAJyaioauk3I_ABKi5gdO1wa9K00000]--></g></svg>