<?xml version="1.0" encoding="us-ascii" standalone="no"?><svg xmlns="http://www.w3.org/2000/svg" xmlns:xlink="http://www.w3.org/1999/xlink" contentStyleType="text/css" height="316px" preserveAspectRatio="none" style="width:137px;height:316px;background:#FFFFFF;" version="1.1" viewBox="0 0 137 316" width="137px" zoomAndPan="magnify"><defs/><g><!--class Folder--><g id="elem_Folder"><rect fill="#F1F1F1" height="48" id="Folder" rx="2.5" ry="2.5" style="stroke:#181818;stroke-width:0.5;" width="73" x="27.5" y="134"/><ellipse cx="42.5" cy="150" fill="#ADD1B2" rx="11" ry="11" style="stroke:#181818;stroke-width:1.0;"/><path d="M41.8438,155.8594 Q39.8594,155.8594 38.6875,154.3906 Q37.5313,152.9063 37.5313,149.8281 Q37.5313,147.2188 38.75,145.4688 Q39.9844,143.7188 42.1094,143.7188 Q42.6094,143.7188 43.1406,143.8594 Q43.5781,144.0469 43.8438,144.0469 Q44.0625,144.0469 44.1563,144 Q44.2656,143.9531 44.7188,143.3594 L45.4844,147.0938 L44.5938,147.3594 Q44.1406,145.9063 43.5313,145.3125 Q42.9375,144.7031 41.9844,144.7031 Q40.7656,144.7031 40.0469,146.1406 Q39.3281,147.5625 39.3281,149.75 Q39.3281,152.1563 39.9375,153.4531 Q40.5625,154.7344 41.9219,154.7344 Q42.875,154.7344 43.5625,154.0469 Q44.25,153.3438 44.5781,151.8438 L45.4844,152.25 Q45.0781,153.9531 44.1094,154.9063 Q43.1563,155.8594 41.8438,155.8594 Z " fill="#000000"/><text fill="#000000" font-family="sans-serif" font-size="14" lengthAdjust="spacing" textLength="41" x="56.5" y="156.4839">Folder</text><line style="stroke:#181818;stroke-width:0.5;" x1="28.5" x2="99.5" y1="166" y2="166"/><line style="stroke:#181818;stroke-width:0.5;" x1="28.5" x2="99.5" y1="174" y2="174"/></g><!--class File--><g id="elem_File"><rect fill="#F1F1F1" height="48" id="File" rx="2.5" ry="2.5" style="stroke:#181818;stroke-width:0.5;" width="55" x="36.5" y="261"/><ellipse cx="51.5" cy="277" fill="#ADD1B2" rx="11" ry="11" style="stroke:#181818;stroke-width:1.0;"/><path d="M50.8438,282.8594 Q48.8594,282.8594 47.6875,281.3906 Q46.5313,279.9063 46.5313,276.8281 Q46.5313,274.2188 47.75,272.4688 Q48.9844,270.7188 51.1094,270.7188 Q51.6094,270.7188 52.1406,270.8594 Q52.5781,271.0469 52.8438,271.0469 Q53.0625,271.0469 53.1563,271 Q53.2656,270.9531 53.7188,270.3594 L54.4844,274.0938 L53.5938,274.3594 Q53.1406,272.9063 52.5313,272.3125 Q51.9375,271.7031 50.9844,271.7031 Q49.7656,271.7031 49.0469,273.1406 Q48.3281,274.5625 48.3281,276.75 Q48.3281,279.1563 48.9375,280.4531 Q49.5625,281.7344 50.9219,281.7344 Q51.875,281.7344 52.5625,281.0469 Q53.25,280.3438 53.5781,278.8438 L54.4844,279.25 Q54.0781,280.9531 53.1094,281.9063 Q52.1563,282.8594 50.8438,282.8594 Z " fill="#000000"/><text fill="#000000" font-family="sans-serif" font-size="14" lengthAdjust="spacing" textLength="23" x="65.5" y="283.4839">File</text><line style="stroke:#181818;stroke-width:0.5;" x1="37.5" x2="90.5" y1="293" y2="293"/><line style="stroke:#181818;stroke-width:0.5;" x1="37.5" x2="90.5" y1="301" y2="301"/></g><!--class ImageLibrary--><g id="elem_ImageLibrary"><rect fill="#F1F1F1" height="48" id="ImageLibrary" rx="2.5" ry="2.5" style="stroke:#181818;stroke-width:0.5;" width="114" x="7" y="7"/><ellipse cx="22" cy="23" fill="#ADD1B2" rx="11" ry="11" style="stroke:#181818;stroke-width:1.0;"/><path d="M21.3438,28.8594 Q19.3594,28.8594 18.1875,27.3906 Q17.0313,25.9063 17.0313,22.8281 Q17.0313,20.2188 18.25,18.4688 Q19.4844,16.7188 21.6094,16.7188 Q22.1094,16.7188 22.6406,16.8594 Q23.0781,17.0469 23.3438,17.0469 Q23.5625,17.0469 23.6563,17 Q23.7656,16.9531 24.2188,16.3594 L24.9844,20.0938 L24.0938,20.3594 Q23.6406,18.9063 23.0313,18.3125 Q22.4375,17.7031 21.4844,17.7031 Q20.2656,17.7031 19.5469,19.1406 Q18.8281,20.5625 18.8281,22.75 Q18.8281,25.1563 19.4375,26.4531 Q20.0625,27.7344 21.4219,27.7344 Q22.375,27.7344 23.0625,27.0469 Q23.75,26.3438 24.0781,24.8438 L24.9844,25.25 Q24.5781,26.9531 23.6094,27.9063 Q22.6563,28.8594 21.3438,28.8594 Z " fill="#000000"/><text fill="#000000" font-family="sans-serif" font-size="14" lengthAdjust="spacing" textLength="82" x="36" y="29.4839">ImageLibrary</text><line style="stroke:#181818;stroke-width:0.5;" x1="8" x2="120" y1="39" y2="39"/><line style="stroke:#181818;stroke-width:0.5;" x1="8" x2="120" y1="47" y2="47"/></g><!--reverse link Folder to File--><g id="link_Folder_File"><path codeLine="1" d="M64,194.22 C64,216.67 64,238.5 64,260.91 " fill="none" id="Folder-backto-File" style="stroke:#181818;stroke-width:1.0;"/><polygon fill="none" points="64,182.22,60,188.22,64,194.22,68,188.22,64,182.22" style="stroke:#181818;stroke-width:1.0;"/><text fill="#000000" font-family="sans-serif" font-size="13" lengthAdjust="spacing" textLength="64" x="65" y="227.8979">aggregates</text></g><!--reverse link ImageLibrary to Folder--><g id="link_ImageLibrary_Folder"><path codeLine="2" d="M64,67.22 C64,89.67 64,111.5 64,133.91 " fill="none" id="ImageLibrary-backto-Folder" style="stroke:#181818;stroke-width:1.0;"/><polygon fill="none" points="64,55.22,60,61.22,64,67.22,68,61.22,64,55.22" style="stroke:#181818;stroke-width:1.0;"/><text fill="#000000" font-family="sans-serif" font-size="13" lengthAdjust="spacing" textLength="64" x="65" y="100.8979">aggregates</text></g><!--SRC=[SylFIKajKiZNrLLmoyn9LR1II4nFBqfDJon9BURop4rCJ_N9J2fABAg4A86eHbO40000]--></g></svg>