<?xml version="1.0" encoding="us-ascii" standalone="no"?><svg xmlns="http://www.w3.org/2000/svg" xmlns:xlink="http://www.w3.org/1999/xlink" contentStyleType="text/css" height="316px" preserveAspectRatio="none" style="width:186px;height:316px;background:#FFFFFF;" version="1.1" viewBox="0 0 186 316" width="186px" zoomAndPan="magnify"><defs/><g><!--class BloodPressureMonitor--><g id="elem_BloodPressureMonitor"><rect fill="#F1F1F1" height="48" id="BloodPressureMonitor" rx="2.5" ry="2.5" style="stroke:#181818;stroke-width:0.5;" width="172" x="7" y="134"/><ellipse cx="22" cy="150" fill="#ADD1B2" rx="11" ry="11" style="stroke:#181818;stroke-width:1.0;"/><path d="M21.3438,155.8594 Q19.3594,155.8594 18.1875,154.3906 Q17.0313,152.9063 17.0313,149.8281 Q17.0313,147.2188 18.25,145.4688 Q19.4844,143.7188 21.6094,143.7188 Q22.1094,143.7188 22.6406,143.8594 Q23.0781,144.0469 23.3438,144.0469 Q23.5625,144.0469 23.6563,144 Q23.7656,143.9531 24.2188,143.3594 L24.9844,147.0938 L24.0938,147.3594 Q23.6406,145.9063 23.0313,145.3125 Q22.4375,144.7031 21.4844,144.7031 Q20.2656,144.7031 19.5469,146.1406 Q18.8281,147.5625 18.8281,149.75 Q18.8281,152.1563 19.4375,153.4531 Q20.0625,154.7344 21.4219,154.7344 Q22.375,154.7344 23.0625,154.0469 Q23.75,153.3438 24.0781,151.8438 L24.9844,152.25 Q24.5781,153.9531 23.6094,154.9063 Q22.6563,155.8594 21.3438,155.8594 Z " fill="#000000"/><text fill="#000000" font-family="sans-serif" font-size="14" lengthAdjust="spacing" textLength="140" x="36" y="156.4839">BloodPressureMonitor</text><line style="stroke:#181818;stroke-width:0.5;" x1="8" x2="178" y1="166" y2="166"/><line style="stroke:#181818;stroke-width:0.5;" x1="8" x2="178" y1="174" y2="174"/></g><!--class BatteryPower--><g id="elem_BatteryPower"><rect fill="#F1F1F1" height="48" id="BatteryPower" rx="2.5" ry="2.5" style="stroke:#181818;stroke-width:0.5;" width="116" x="35" y="261"/><ellipse cx="50" cy="277" fill="#ADD1B2" rx="11" ry="11" style="stroke:#181818;stroke-width:1.0;"/><path d="M49.3438,282.8594 Q47.3594,282.8594 46.1875,281.3906 Q45.0313,279.9063 45.0313,276.8281 Q45.0313,274.2188 46.25,272.4688 Q47.4844,270.7188 49.6094,270.7188 Q50.1094,270.7188 50.6406,270.8594 Q51.0781,271.0469 51.3438,271.0469 Q51.5625,271.0469 51.6563,271 Q51.7656,270.9531 52.2188,270.3594 L52.9844,274.0938 L52.0938,274.3594 Q51.6406,272.9063 51.0313,272.3125 Q50.4375,271.7031 49.4844,271.7031 Q48.2656,271.7031 47.5469,273.1406 Q46.8281,274.5625 46.8281,276.75 Q46.8281,279.1563 47.4375,280.4531 Q48.0625,281.7344 49.4219,281.7344 Q50.375,281.7344 51.0625,281.0469 Q51.75,280.3438 52.0781,278.8438 L52.9844,279.25 Q52.5781,280.9531 51.6094,281.9063 Q50.6563,282.8594 49.3438,282.8594 Z " fill="#000000"/><text fill="#000000" font-family="sans-serif" font-size="14" lengthAdjust="spacing" textLength="84" x="64" y="283.4839">BatteryPower</text><line style="stroke:#181818;stroke-width:0.5;" x1="36" x2="150" y1="293" y2="293"/><line style="stroke:#181818;stroke-width:0.5;" x1="36" x2="150" y1="301" y2="301"/></g><!--class BloodPressureCheck--><g id="elem_BloodPressureCheck"><rect fill="#F1F1F1" height="48" id="BloodPressureCheck" rx="2.5" ry="2.5" style="stroke:#181818;stroke-width:0.5;" width="165" x="10.5" y="7"/><ellipse cx="25.5" cy="23" fill="#ADD1B2" rx="11" ry="11" style="stroke:#181818;stroke-width:1.0;"/><path d="M24.8438,28.8594 Q22.8594,28.8594 21.6875,27.3906 Q20.5313,25.9063 20.5313,22.8281 Q20.5313,20.2188 21.75,18.4688 Q22.9844,16.7188 25.1094,16.7188 Q25.6094,16.7188 26.1406,16.8594 Q26.5781,17.0469 26.8438,17.0469 Q27.0625,17.0469 27.1563,17 Q27.2656,16.9531 27.7188,16.3594 L28.4844,20.0938 L27.5938,20.3594 Q27.1406,18.9063 26.5313,18.3125 Q25.9375,17.7031 24.9844,17.7031 Q23.7656,17.7031 23.0469,19.1406 Q22.3281,20.5625 22.3281,22.75 Q22.3281,25.1563 22.9375,26.4531 Q23.5625,27.7344 24.9219,27.7344 Q25.875,27.7344 26.5625,27.0469 Q27.25,26.3438 27.5781,24.8438 L28.4844,25.25 Q28.0781,26.9531 27.1094,27.9063 Q26.1563,28.8594 24.8438,28.8594 Z " fill="#000000"/><text fill="#000000" font-family="sans-serif" font-size="14" lengthAdjust="spacing" textLength="133" x="39.5" y="29.4839">BloodPressureCheck</text><line style="stroke:#181818;stroke-width:0.5;" x1="11.5" x2="174.5" y1="39" y2="39"/><line style="stroke:#181818;stroke-width:0.5;" x1="11.5" x2="174.5" y1="47" y2="47"/></g><!--link BloodPressureMonitor to BatteryPower--><g id="link_BloodPressureMonitor_BatteryPower"><path codeLine="1" d="M93,182.22 C93,204.67 93,232.5 93,254.91 " fill="none" id="BloodPressureMonitor-to-BatteryPower" style="stroke:#181818;stroke-width:1.0;stroke-dasharray:7.0,7.0;"/><polygon fill="#181818" points="93,260.91,97,251.91,93,255.91,89,251.91,93,260.91" style="stroke:#181818;stroke-width:1.0;"/><text fill="#000000" font-family="sans-serif" font-size="13" lengthAdjust="spacing" textLength="67" x="94" y="227.8979">depends on</text></g><!--link BloodPressureCheck to BloodPressureMonitor--><g id="link_BloodPressureCheck_BloodPressureMonitor"><path codeLine="2" d="M93,55.22 C93,77.67 93,105.5 93,127.91 " fill="none" id="BloodPressureCheck-to-BloodPressureMonitor" style="stroke:#181818;stroke-width:1.0;stroke-dasharray:7.0,7.0;"/><polygon fill="#181818" points="93,133.91,97,124.91,93,128.91,89,124.91,93,133.91" style="stroke:#181818;stroke-width:1.0;"/><text fill="#000000" font-family="sans-serif" font-size="13" lengthAdjust="spacing" textLength="67" x="94" y="100.8979">depends on</text></g><!--SRC=[Syh9pqy9A4ejBYujIlNDpyiioIzIqDEpKt1AB2b9BQeCo2zFBLAmKaX9BKZDIobMoC_ZSaBMufoHcfmDqO3D96ID0000]--></g></svg>