<?xml version="1.0" encoding="us-ascii" standalone="no"?><svg xmlns="http://www.w3.org/2000/svg" xmlns:xlink="http://www.w3.org/1999/xlink" contentStyleType="text/css" height="316px" preserveAspectRatio="none" style="width:164px;height:316px;background:#FFFFFF;" version="1.1" viewBox="0 0 164 316" width="164px" zoomAndPan="magnify"><defs/><g><!--class BloodTestAnalyzer--><g id="elem_BloodTestAnalyzer"><rect fill="#F1F1F1" height="48" id="BloodTestAnalyzer" rx="2.5" ry="2.5" style="stroke:#181818;stroke-width:0.5;" width="150" x="7" y="134"/><ellipse cx="22" cy="150" fill="#ADD1B2" rx="11" ry="11" style="stroke:#181818;stroke-width:1.0;"/><path d="M21.3438,155.8594 Q19.3594,155.8594 18.1875,154.3906 Q17.0313,152.9063 17.0313,149.8281 Q17.0313,147.2188 18.25,145.4688 Q19.4844,143.7188 21.6094,143.7188 Q22.1094,143.7188 22.6406,143.8594 Q23.0781,144.0469 23.3438,144.0469 Q23.5625,144.0469 23.6563,144 Q23.7656,143.9531 24.2188,143.3594 L24.9844,147.0938 L24.0938,147.3594 Q23.6406,145.9063 23.0313,145.3125 Q22.4375,144.7031 21.4844,144.7031 Q20.2656,144.7031 19.5469,146.1406 Q18.8281,147.5625 18.8281,149.75 Q18.8281,152.1563 19.4375,153.4531 Q20.0625,154.7344 21.4219,154.7344 Q22.375,154.7344 23.0625,154.0469 Q23.75,153.3438 24.0781,151.8438 L24.9844,152.25 Q24.5781,153.9531 23.6094,154.9063 Q22.6563,155.8594 21.3438,155.8594 Z " fill="#000000"/><text fill="#000000" font-family="sans-serif" font-size="14" lengthAdjust="spacing" textLength="118" x="36" y="156.4839">BloodTestAnalyzer</text><line style="stroke:#181818;stroke-width:0.5;" x1="8" x2="156" y1="166" y2="166"/><line style="stroke:#181818;stroke-width:0.5;" x1="8" x2="156" y1="174" y2="174"/></g><!--class Electricity--><g id="elem_Electricity"><rect fill="#F1F1F1" height="48" id="Electricity" rx="2.5" ry="2.5" style="stroke:#181818;stroke-width:0.5;" width="92" x="36" y="261"/><ellipse cx="51" cy="277" fill="#ADD1B2" rx="11" ry="11" style="stroke:#181818;stroke-width:1.0;"/><path d="M50.3438,282.8594 Q48.3594,282.8594 47.1875,281.3906 Q46.0313,279.9063 46.0313,276.8281 Q46.0313,274.2188 47.25,272.4688 Q48.4844,270.7188 50.6094,270.7188 Q51.1094,270.7188 51.6406,270.8594 Q52.0781,271.0469 52.3438,271.0469 Q52.5625,271.0469 52.6563,271 Q52.7656,270.9531 53.2188,270.3594 L53.9844,274.0938 L53.0938,274.3594 Q52.6406,272.9063 52.0313,272.3125 Q51.4375,271.7031 50.4844,271.7031 Q49.2656,271.7031 48.5469,273.1406 Q47.8281,274.5625 47.8281,276.75 Q47.8281,279.1563 48.4375,280.4531 Q49.0625,281.7344 50.4219,281.7344 Q51.375,281.7344 52.0625,281.0469 Q52.75,280.3438 53.0781,278.8438 L53.9844,279.25 Q53.5781,280.9531 52.6094,281.9063 Q51.6563,282.8594 50.3438,282.8594 Z " fill="#000000"/><text fill="#000000" font-family="sans-serif" font-size="14" lengthAdjust="spacing" textLength="60" x="65" y="283.4839">Electricity</text><line style="stroke:#181818;stroke-width:0.5;" x1="37" x2="127" y1="293" y2="293"/><line style="stroke:#181818;stroke-width:0.5;" x1="37" x2="127" y1="301" y2="301"/></g><!--class BloodTest--><g id="elem_BloodTest"><rect fill="#F1F1F1" height="48" id="BloodTest" rx="2.5" ry="2.5" style="stroke:#181818;stroke-width:0.5;" width="96" x="34" y="7"/><ellipse cx="49" cy="23" fill="#ADD1B2" rx="11" ry="11" style="stroke:#181818;stroke-width:1.0;"/><path d="M48.3438,28.8594 Q46.3594,28.8594 45.1875,27.3906 Q44.0313,25.9063 44.0313,22.8281 Q44.0313,20.2188 45.25,18.4688 Q46.4844,16.7188 48.6094,16.7188 Q49.1094,16.7188 49.6406,16.8594 Q50.0781,17.0469 50.3438,17.0469 Q50.5625,17.0469 50.6563,17 Q50.7656,16.9531 51.2188,16.3594 L51.9844,20.0938 L51.0938,20.3594 Q50.6406,18.9063 50.0313,18.3125 Q49.4375,17.7031 48.4844,17.7031 Q47.2656,17.7031 46.5469,19.1406 Q45.8281,20.5625 45.8281,22.75 Q45.8281,25.1563 46.4375,26.4531 Q47.0625,27.7344 48.4219,27.7344 Q49.375,27.7344 50.0625,27.0469 Q50.75,26.3438 51.0781,24.8438 L51.9844,25.25 Q51.5781,26.9531 50.6094,27.9063 Q49.6563,28.8594 48.3438,28.8594 Z " fill="#000000"/><text fill="#000000" font-family="sans-serif" font-size="14" lengthAdjust="spacing" textLength="64" x="63" y="29.4839">BloodTest</text><line style="stroke:#181818;stroke-width:0.5;" x1="35" x2="129" y1="39" y2="39"/><line style="stroke:#181818;stroke-width:0.5;" x1="35" x2="129" y1="47" y2="47"/></g><!--link BloodTestAnalyzer to Electricity--><g id="link_BloodTestAnalyzer_Electricity"><path codeLine="1" d="M82,182.22 C82,204.67 82,232.5 82,254.91 " fill="none" id="BloodTestAnalyzer-to-Electricity" style="stroke:#181818;stroke-width:1.0;stroke-dasharray:7.0,7.0;"/><polygon fill="#181818" points="82,260.91,86,251.91,82,255.91,78,251.91,82,260.91" style="stroke:#181818;stroke-width:1.0;"/><text fill="#000000" font-family="sans-serif" font-size="13" lengthAdjust="spacing" textLength="67" x="83" y="227.8979">depends on</text></g><!--link BloodTest to BloodTestAnalyzer--><g id="link_BloodTest_BloodTestAnalyzer"><path codeLine="2" d="M82,55.22 C82,77.67 82,105.5 82,127.91 " fill="none" id="BloodTest-to-BloodTestAnalyzer" style="stroke:#181818;stroke-width:1.0;stroke-dasharray:7.0,7.0;"/><polygon fill="#181818" points="82,133.91,86,124.91,82,128.91,78,124.91,82,133.91" style="stroke:#181818;stroke-width:1.0;"/><text fill="#000000" font-family="sans-serif" font-size="13" lengthAdjust="spacing" textLength="67" x="83" y="100.8979">depends on</text></g><!--SRC=[Syh9pqy9IIqkSSnBpAciIYrIqDEpKt3DIKqkASfCpYofLB1II4ajICrBALR8p-DoWYa7AtF2q8oi6000]--></g></svg>