<?xml version="1.0" encoding="us-ascii" standalone="no"?><svg xmlns="http://www.w3.org/2000/svg" xmlns:xlink="http://www.w3.org/1999/xlink" contentStyleType="text/css" height="316px" preserveAspectRatio="none" style="width:111px;height:316px;background:#FFFFFF;" version="1.1" viewBox="0 0 111 316" width="111px" zoomAndPan="magnify"><defs/><g><!--class Roof--><g id="elem_Roof"><rect fill="#F1F1F1" height="48" id="Roof" rx="2.5" ry="2.5" style="stroke:#181818;stroke-width:0.5;" width="62" x="11.5" y="134"/><ellipse cx="26.5" cy="150" fill="#ADD1B2" rx="11" ry="11" style="stroke:#181818;stroke-width:1.0;"/><path d="M25.8438,155.8594 Q23.8594,155.8594 22.6875,154.3906 Q21.5313,152.9063 21.5313,149.8281 Q21.5313,147.2188 22.75,145.4688 Q23.9844,143.7188 26.1094,143.7188 Q26.6094,143.7188 27.1406,143.8594 Q27.5781,144.0469 27.8438,144.0469 Q28.0625,144.0469 28.1563,144 Q28.2656,143.9531 28.7188,143.3594 L29.4844,147.0938 L28.5938,147.3594 Q28.1406,145.9063 27.5313,145.3125 Q26.9375,144.7031 25.9844,144.7031 Q24.7656,144.7031 24.0469,146.1406 Q23.3281,147.5625 23.3281,149.75 Q23.3281,152.1563 23.9375,153.4531 Q24.5625,154.7344 25.9219,154.7344 Q26.875,154.7344 27.5625,154.0469 Q28.25,153.3438 28.5781,151.8438 L29.4844,152.25 Q29.0781,153.9531 28.1094,154.9063 Q27.1563,155.8594 25.8438,155.8594 Z " fill="#000000"/><text fill="#000000" font-family="sans-serif" font-size="14" lengthAdjust="spacing" textLength="30" x="40.5" y="156.4839">Roof</text><line style="stroke:#181818;stroke-width:0.5;" x1="12.5" x2="72.5" y1="166" y2="166"/><line style="stroke:#181818;stroke-width:0.5;" x1="12.5" x2="72.5" y1="174" y2="174"/></g><!--class Rafter--><g id="elem_Rafter"><rect fill="#F1F1F1" height="48" id="Rafter" rx="2.5" ry="2.5" style="stroke:#181818;stroke-width:0.5;" width="71" x="7" y="261"/><ellipse cx="22" cy="277" fill="#ADD1B2" rx="11" ry="11" style="stroke:#181818;stroke-width:1.0;"/><path d="M21.3438,282.8594 Q19.3594,282.8594 18.1875,281.3906 Q17.0313,279.9063 17.0313,276.8281 Q17.0313,274.2188 18.25,272.4688 Q19.4844,270.7188 21.6094,270.7188 Q22.1094,270.7188 22.6406,270.8594 Q23.0781,271.0469 23.3438,271.0469 Q23.5625,271.0469 23.6563,271 Q23.7656,270.9531 24.2188,270.3594 L24.9844,274.0938 L24.0938,274.3594 Q23.6406,272.9063 23.0313,272.3125 Q22.4375,271.7031 21.4844,271.7031 Q20.2656,271.7031 19.5469,273.1406 Q18.8281,274.5625 18.8281,276.75 Q18.8281,279.1563 19.4375,280.4531 Q20.0625,281.7344 21.4219,281.7344 Q22.375,281.7344 23.0625,281.0469 Q23.75,280.3438 24.0781,278.8438 L24.9844,279.25 Q24.5781,280.9531 23.6094,281.9063 Q22.6563,282.8594 21.3438,282.8594 Z " fill="#000000"/><text fill="#000000" font-family="sans-serif" font-size="14" lengthAdjust="spacing" textLength="39" x="36" y="283.4839">Rafter</text><line style="stroke:#181818;stroke-width:0.5;" x1="8" x2="77" y1="293" y2="293"/><line style="stroke:#181818;stroke-width:0.5;" x1="8" x2="77" y1="301" y2="301"/></g><!--class Cabin--><g id="elem_Cabin"><rect fill="#F1F1F1" height="48" id="Cabin" rx="2.5" ry="2.5" style="stroke:#181818;stroke-width:0.5;" width="69" x="8" y="7"/><ellipse cx="23" cy="23" fill="#ADD1B2" rx="11" ry="11" style="stroke:#181818;stroke-width:1.0;"/><path d="M22.3438,28.8594 Q20.3594,28.8594 19.1875,27.3906 Q18.0313,25.9063 18.0313,22.8281 Q18.0313,20.2188 19.25,18.4688 Q20.4844,16.7188 22.6094,16.7188 Q23.1094,16.7188 23.6406,16.8594 Q24.0781,17.0469 24.3438,17.0469 Q24.5625,17.0469 24.6563,17 Q24.7656,16.9531 25.2188,16.3594 L25.9844,20.0938 L25.0938,20.3594 Q24.6406,18.9063 24.0313,18.3125 Q23.4375,17.7031 22.4844,17.7031 Q21.2656,17.7031 20.5469,19.1406 Q19.8281,20.5625 19.8281,22.75 Q19.8281,25.1563 20.4375,26.4531 Q21.0625,27.7344 22.4219,27.7344 Q23.375,27.7344 24.0625,27.0469 Q24.75,26.3438 25.0781,24.8438 L25.9844,25.25 Q25.5781,26.9531 24.6094,27.9063 Q23.6563,28.8594 22.3438,28.8594 Z " fill="#000000"/><text fill="#000000" font-family="sans-serif" font-size="14" lengthAdjust="spacing" textLength="37" x="37" y="29.4839">Cabin</text><line style="stroke:#181818;stroke-width:0.5;" x1="9" x2="76" y1="39" y2="39"/><line style="stroke:#181818;stroke-width:0.5;" x1="9" x2="76" y1="47" y2="47"/></g><!--reverse link Roof to Rafter--><g id="link_Roof_Rafter"><path codeLine="1" d="M42.5,194.22 C42.5,216.67 42.5,238.5 42.5,260.91 " fill="none" id="Roof-backto-Rafter" style="stroke:#181818;stroke-width:1.0;"/><polygon fill="#181818" points="42.5,182.22,38.5,188.22,42.5,194.22,46.5,188.22,42.5,182.22" style="stroke:#181818;stroke-width:1.0;"/><text fill="#000000" font-family="sans-serif" font-size="13" lengthAdjust="spacing" textLength="60" x="43.5" y="227.8979">composes</text></g><!--reverse link Cabin to Roof--><g id="link_Cabin_Roof"><path codeLine="2" d="M42.5,67.22 C42.5,89.67 42.5,111.5 42.5,133.91 " fill="none" id="Cabin-backto-Roof" style="stroke:#181818;stroke-width:1.0;"/><polygon fill="#181818" points="42.5,55.22,38.5,61.22,42.5,67.22,46.5,61.22,42.5,55.22" style="stroke:#181818;stroke-width:1.0;"/><text fill="#000000" font-family="sans-serif" font-size="13" lengthAdjust="spacing" textLength="60" x="43.5" y="100.8979">composes</text></g><!--SRC=[2yhFJrFGqjLL24fCAqajKh1IICxFBSWlJYtcSavCoio3o84K8MG0]--></g></svg>