<?xml version="1.0" encoding="us-ascii" standalone="no"?><svg xmlns="http://www.w3.org/2000/svg" xmlns:xlink="http://www.w3.org/1999/xlink" contentStyleType="text/css" height="316px" preserveAspectRatio="none" style="width:120px;height:316px;background:#FFFFFF;" version="1.1" viewBox="0 0 120 316" width="120px" zoomAndPan="magnify"><defs/><g><!--class Door--><g id="elem_Door"><rect fill="#F1F1F1" height="48" id="Door" rx="2.5" ry="2.5" style="stroke:#181818;stroke-width:0.5;" width="63" x="20" y="134"/><ellipse cx="35" cy="150" fill="#ADD1B2" rx="11" ry="11" style="stroke:#181818;stroke-width:1.0;"/><path d="M34.3438,155.8594 Q32.3594,155.8594 31.1875,154.3906 Q30.0313,152.9063 30.0313,149.8281 Q30.0313,147.2188 31.25,145.4688 Q32.4844,143.7188 34.6094,143.7188 Q35.1094,143.7188 35.6406,143.8594 Q36.0781,144.0469 36.3438,144.0469 Q36.5625,144.0469 36.6563,144 Q36.7656,143.9531 37.2188,143.3594 L37.9844,147.0938 L37.0938,147.3594 Q36.6406,145.9063 36.0313,145.3125 Q35.4375,144.7031 34.4844,144.7031 Q33.2656,144.7031 32.5469,146.1406 Q31.8281,147.5625 31.8281,149.75 Q31.8281,152.1563 32.4375,153.4531 Q33.0625,154.7344 34.4219,154.7344 Q35.375,154.7344 36.0625,154.0469 Q36.75,153.3438 37.0781,151.8438 L37.9844,152.25 Q37.5781,153.9531 36.6094,154.9063 Q35.6563,155.8594 34.3438,155.8594 Z " fill="#000000"/><text fill="#000000" font-family="sans-serif" font-size="14" lengthAdjust="spacing" textLength="31" x="49" y="156.4839">Door</text><line style="stroke:#181818;stroke-width:0.5;" x1="21" x2="82" y1="166" y2="166"/><line style="stroke:#181818;stroke-width:0.5;" x1="21" x2="82" y1="174" y2="174"/></g><!--class Deadbolt--><g id="elem_Deadbolt"><rect fill="#F1F1F1" height="48" id="Deadbolt" rx="2.5" ry="2.5" style="stroke:#181818;stroke-width:0.5;" width="89" x="7" y="261"/><ellipse cx="22" cy="277" fill="#ADD1B2" rx="11" ry="11" style="stroke:#181818;stroke-width:1.0;"/><path d="M21.3438,282.8594 Q19.3594,282.8594 18.1875,281.3906 Q17.0313,279.9063 17.0313,276.8281 Q17.0313,274.2188 18.25,272.4688 Q19.4844,270.7188 21.6094,270.7188 Q22.1094,270.7188 22.6406,270.8594 Q23.0781,271.0469 23.3438,271.0469 Q23.5625,271.0469 23.6563,271 Q23.7656,270.9531 24.2188,270.3594 L24.9844,274.0938 L24.0938,274.3594 Q23.6406,272.9063 23.0313,272.3125 Q22.4375,271.7031 21.4844,271.7031 Q20.2656,271.7031 19.5469,273.1406 Q18.8281,274.5625 18.8281,276.75 Q18.8281,279.1563 19.4375,280.4531 Q20.0625,281.7344 21.4219,281.7344 Q22.375,281.7344 23.0625,281.0469 Q23.75,280.3438 24.0781,278.8438 L24.9844,279.25 Q24.5781,280.9531 23.6094,281.9063 Q22.6563,282.8594 21.3438,282.8594 Z " fill="#000000"/><text fill="#000000" font-family="sans-serif" font-size="14" lengthAdjust="spacing" textLength="57" x="36" y="283.4839">Deadbolt</text><line style="stroke:#181818;stroke-width:0.5;" x1="8" x2="95" y1="293" y2="293"/><line style="stroke:#181818;stroke-width:0.5;" x1="8" x2="95" y1="301" y2="301"/></g><!--class House--><g id="elem_House"><rect fill="#F1F1F1" height="48" id="House" rx="2.5" ry="2.5" style="stroke:#181818;stroke-width:0.5;" width="72" x="15.5" y="7"/><ellipse cx="30.5" cy="23" fill="#ADD1B2" rx="11" ry="11" style="stroke:#181818;stroke-width:1.0;"/><path d="M29.8438,28.8594 Q27.8594,28.8594 26.6875,27.3906 Q25.5313,25.9063 25.5313,22.8281 Q25.5313,20.2188 26.75,18.4688 Q27.9844,16.7188 30.1094,16.7188 Q30.6094,16.7188 31.1406,16.8594 Q31.5781,17.0469 31.8438,17.0469 Q32.0625,17.0469 32.1563,17 Q32.2656,16.9531 32.7188,16.3594 L33.4844,20.0938 L32.5938,20.3594 Q32.1406,18.9063 31.5313,18.3125 Q30.9375,17.7031 29.9844,17.7031 Q28.7656,17.7031 28.0469,19.1406 Q27.3281,20.5625 27.3281,22.75 Q27.3281,25.1563 27.9375,26.4531 Q28.5625,27.7344 29.9219,27.7344 Q30.875,27.7344 31.5625,27.0469 Q32.25,26.3438 32.5781,24.8438 L33.4844,25.25 Q33.0781,26.9531 32.1094,27.9063 Q31.1563,28.8594 29.8438,28.8594 Z " fill="#000000"/><text fill="#000000" font-family="sans-serif" font-size="14" lengthAdjust="spacing" textLength="40" x="44.5" y="29.4839">House</text><line style="stroke:#181818;stroke-width:0.5;" x1="16.5" x2="86.5" y1="39" y2="39"/><line style="stroke:#181818;stroke-width:0.5;" x1="16.5" x2="86.5" y1="47" y2="47"/></g><!--reverse link Door to Deadbolt--><g id="link_Door_Deadbolt"><path codeLine="1" d="M51.5,194.22 C51.5,216.67 51.5,238.5 51.5,260.91 " fill="none" id="Door-backto-Deadbolt" style="stroke:#181818;stroke-width:1.0;"/><polygon fill="#181818" points="51.5,182.22,47.5,188.22,51.5,194.22,55.5,188.22,51.5,182.22" style="stroke:#181818;stroke-width:1.0;"/><text fill="#000000" font-family="sans-serif" font-size="13" lengthAdjust="spacing" textLength="60" x="52.5" y="227.8979">composes</text></g><!--reverse link House to Door--><g id="link_House_Door"><path codeLine="2" d="M51.5,67.22 C51.5,89.67 51.5,111.5 51.5,133.91 " fill="none" id="House-backto-Door" style="stroke:#181818;stroke-width:1.0;"/><polygon fill="#181818" points="51.5,55.22,47.5,61.22,51.5,67.22,55.5,61.22,51.5,55.22" style="stroke:#181818;stroke-width:1.0;"/><text fill="#000000" font-family="sans-serif" font-size="13" lengthAdjust="spacing" textLength="60" x="52.5" y="100.8979">composes</text></g><!--SRC=[SydFBrBGqjLLS4bDJ4dApobHi598piyjo2zEBURoo2yjJeN8WfGXP000]--></g></svg>