<?xml version="1.0" encoding="us-ascii" standalone="no"?><svg xmlns="http://www.w3.org/2000/svg" xmlns:xlink="http://www.w3.org/1999/xlink" contentStyleType="text/css" height="316px" preserveAspectRatio="none" style="width:132px;height:316px;background:#FFFFFF;" version="1.1" viewBox="0 0 132 316" width="132px" zoomAndPan="magnify"><defs/><g><!--class Wall--><g id="elem_Wall"><rect fill="#F1F1F1" height="48" id="Wall" rx="2.5" ry="2.5" style="stroke:#181818;stroke-width:0.5;" width="59" x="34" y="134"/><ellipse cx="49" cy="150" fill="#ADD1B2" rx="11" ry="11" style="stroke:#181818;stroke-width:1.0;"/><path d="M48.3438,155.8594 Q46.3594,155.8594 45.1875,154.3906 Q44.0313,152.9063 44.0313,149.8281 Q44.0313,147.2188 45.25,145.4688 Q46.4844,143.7188 48.6094,143.7188 Q49.1094,143.7188 49.6406,143.8594 Q50.0781,144.0469 50.3438,144.0469 Q50.5625,144.0469 50.6563,144 Q50.7656,143.9531 51.2188,143.3594 L51.9844,147.0938 L51.0938,147.3594 Q50.6406,145.9063 50.0313,145.3125 Q49.4375,144.7031 48.4844,144.7031 Q47.2656,144.7031 46.5469,146.1406 Q45.8281,147.5625 45.8281,149.75 Q45.8281,152.1563 46.4375,153.4531 Q47.0625,154.7344 48.4219,154.7344 Q49.375,154.7344 50.0625,154.0469 Q50.75,153.3438 51.0781,151.8438 L51.9844,152.25 Q51.5781,153.9531 50.6094,154.9063 Q49.6563,155.8594 48.3438,155.8594 Z " fill="#000000"/><text fill="#000000" font-family="sans-serif" font-size="14" lengthAdjust="spacing" textLength="27" x="63" y="156.4839">Wall</text><line style="stroke:#181818;stroke-width:0.5;" x1="35" x2="92" y1="166" y2="166"/><line style="stroke:#181818;stroke-width:0.5;" x1="35" x2="92" y1="174" y2="174"/></g><!--class VaporBarrier--><g id="elem_VaporBarrier"><rect fill="#F1F1F1" height="48" id="VaporBarrier" rx="2.5" ry="2.5" style="stroke:#181818;stroke-width:0.5;" width="113" x="7" y="261"/><ellipse cx="22" cy="277" fill="#ADD1B2" rx="11" ry="11" style="stroke:#181818;stroke-width:1.0;"/><path d="M21.3438,282.8594 Q19.3594,282.8594 18.1875,281.3906 Q17.0313,279.9063 17.0313,276.8281 Q17.0313,274.2188 18.25,272.4688 Q19.4844,270.7188 21.6094,270.7188 Q22.1094,270.7188 22.6406,270.8594 Q23.0781,271.0469 23.3438,271.0469 Q23.5625,271.0469 23.6563,271 Q23.7656,270.9531 24.2188,270.3594 L24.9844,274.0938 L24.0938,274.3594 Q23.6406,272.9063 23.0313,272.3125 Q22.4375,271.7031 21.4844,271.7031 Q20.2656,271.7031 19.5469,273.1406 Q18.8281,274.5625 18.8281,276.75 Q18.8281,279.1563 19.4375,280.4531 Q20.0625,281.7344 21.4219,281.7344 Q22.375,281.7344 23.0625,281.0469 Q23.75,280.3438 24.0781,278.8438 L24.9844,279.25 Q24.5781,280.9531 23.6094,281.9063 Q22.6563,282.8594 21.3438,282.8594 Z " fill="#000000"/><text fill="#000000" font-family="sans-serif" font-size="14" lengthAdjust="spacing" textLength="81" x="36" y="283.4839">VaporBarrier</text><line style="stroke:#181818;stroke-width:0.5;" x1="8" x2="119" y1="293" y2="293"/><line style="stroke:#181818;stroke-width:0.5;" x1="8" x2="119" y1="301" y2="301"/></g><!--class House--><g id="elem_House"><rect fill="#F1F1F1" height="48" id="House" rx="2.5" ry="2.5" style="stroke:#181818;stroke-width:0.5;" width="72" x="27.5" y="7"/><ellipse cx="42.5" cy="23" fill="#ADD1B2" rx="11" ry="11" style="stroke:#181818;stroke-width:1.0;"/><path d="M41.8438,28.8594 Q39.8594,28.8594 38.6875,27.3906 Q37.5313,25.9063 37.5313,22.8281 Q37.5313,20.2188 38.75,18.4688 Q39.9844,16.7188 42.1094,16.7188 Q42.6094,16.7188 43.1406,16.8594 Q43.5781,17.0469 43.8438,17.0469 Q44.0625,17.0469 44.1563,17 Q44.2656,16.9531 44.7188,16.3594 L45.4844,20.0938 L44.5938,20.3594 Q44.1406,18.9063 43.5313,18.3125 Q42.9375,17.7031 41.9844,17.7031 Q40.7656,17.7031 40.0469,19.1406 Q39.3281,20.5625 39.3281,22.75 Q39.3281,25.1563 39.9375,26.4531 Q40.5625,27.7344 41.9219,27.7344 Q42.875,27.7344 43.5625,27.0469 Q44.25,26.3438 44.5781,24.8438 L45.4844,25.25 Q45.0781,26.9531 44.1094,27.9063 Q43.1563,28.8594 41.8438,28.8594 Z " fill="#000000"/><text fill="#000000" font-family="sans-serif" font-size="14" lengthAdjust="spacing" textLength="40" x="56.5" y="29.4839">House</text><line style="stroke:#181818;stroke-width:0.5;" x1="28.5" x2="98.5" y1="39" y2="39"/><line style="stroke:#181818;stroke-width:0.5;" x1="28.5" x2="98.5" y1="47" y2="47"/></g><!--reverse link Wall to VaporBarrier--><g id="link_Wall_VaporBarrier"><path codeLine="1" d="M63.5,194.22 C63.5,216.67 63.5,238.5 63.5,260.91 " fill="none" id="Wall-backto-VaporBarrier" style="stroke:#181818;stroke-width:1.0;"/><polygon fill="#181818" points="63.5,182.22,59.5,188.22,63.5,194.22,67.5,188.22,63.5,182.22" style="stroke:#181818;stroke-width:1.0;"/><text fill="#000000" font-family="sans-serif" font-size="13" lengthAdjust="spacing" textLength="60" x="64.5" y="227.8979">composes</text></g><!--reverse link House to Wall--><g id="link_House_Wall"><path codeLine="2" d="M63.5,67.22 C63.5,89.67 63.5,111.5 63.5,133.91 " fill="none" id="House-backto-Wall" style="stroke:#181818;stroke-width:1.0;"/><polygon fill="#181818" points="63.5,55.22,59.5,61.22,63.5,67.22,67.5,61.22,63.5,55.22" style="stroke:#181818;stroke-width:1.0;"/><text fill="#000000" font-family="sans-serif" font-size="13" lengthAdjust="spacing" textLength="60" x="64.5" y="100.8979">composes</text></g><!--SRC=[2q_CoL7GqjLL24iio2zoIYmgoamjKh1IICxFBSWlJYtcyiWlBKu5gmW7AKN80000]--></g></svg>