<?xml version="1.0" encoding="us-ascii" standalone="no"?><svg xmlns="http://www.w3.org/2000/svg" xmlns:xlink="http://www.w3.org/1999/xlink" contentStyleType="text/css" height="316px" preserveAspectRatio="none" style="width:142px;height:316px;background:#FFFFFF;" version="1.1" viewBox="0 0 142 316" width="142px" zoomAndPan="magnify"><defs/><g><!--class CameraModule--><g id="elem_CameraModule"><rect fill="#F1F1F1" height="48" id="CameraModule" rx="2.5" ry="2.5" style="stroke:#181818;stroke-width:0.5;" width="128" x="7" y="134"/><ellipse cx="22" cy="150" fill="#ADD1B2" rx="11" ry="11" style="stroke:#181818;stroke-width:1.0;"/><path d="M21.3438,155.8594 Q19.3594,155.8594 18.1875,154.3906 Q17.0313,152.9063 17.0313,149.8281 Q17.0313,147.2188 18.25,145.4688 Q19.4844,143.7188 21.6094,143.7188 Q22.1094,143.7188 22.6406,143.8594 Q23.0781,144.0469 23.3438,144.0469 Q23.5625,144.0469 23.6563,144 Q23.7656,143.9531 24.2188,143.3594 L24.9844,147.0938 L24.0938,147.3594 Q23.6406,145.9063 23.0313,145.3125 Q22.4375,144.7031 21.4844,144.7031 Q20.2656,144.7031 19.5469,146.1406 Q18.8281,147.5625 18.8281,149.75 Q18.8281,152.1563 19.4375,153.4531 Q20.0625,154.7344 21.4219,154.7344 Q22.375,154.7344 23.0625,154.0469 Q23.75,153.3438 24.0781,151.8438 L24.9844,152.25 Q24.5781,153.9531 23.6094,154.9063 Q22.6563,155.8594 21.3438,155.8594 Z " fill="#000000"/><text fill="#000000" font-family="sans-serif" font-size="14" lengthAdjust="spacing" textLength="96" x="36" y="156.4839">CameraModule</text><line style="stroke:#181818;stroke-width:0.5;" x1="8" x2="134" y1="166" y2="166"/><line style="stroke:#181818;stroke-width:0.5;" x1="8" x2="134" y1="174" y2="174"/></g><!--class ImageSensor--><g id="elem_ImageSensor"><rect fill="#F1F1F1" height="48" id="ImageSensor" rx="2.5" ry="2.5" style="stroke:#181818;stroke-width:0.5;" width="115" x="13.5" y="261"/><ellipse cx="28.5" cy="277" fill="#ADD1B2" rx="11" ry="11" style="stroke:#181818;stroke-width:1.0;"/><path d="M27.8438,282.8594 Q25.8594,282.8594 24.6875,281.3906 Q23.5313,279.9063 23.5313,276.8281 Q23.5313,274.2188 24.75,272.4688 Q25.9844,270.7188 28.1094,270.7188 Q28.6094,270.7188 29.1406,270.8594 Q29.5781,271.0469 29.8438,271.0469 Q30.0625,271.0469 30.1563,271 Q30.2656,270.9531 30.7188,270.3594 L31.4844,274.0938 L30.5938,274.3594 Q30.1406,272.9063 29.5313,272.3125 Q28.9375,271.7031 27.9844,271.7031 Q26.7656,271.7031 26.0469,273.1406 Q25.3281,274.5625 25.3281,276.75 Q25.3281,279.1563 25.9375,280.4531 Q26.5625,281.7344 27.9219,281.7344 Q28.875,281.7344 29.5625,281.0469 Q30.25,280.3438 30.5781,278.8438 L31.4844,279.25 Q31.0781,280.9531 30.1094,281.9063 Q29.1563,282.8594 27.8438,282.8594 Z " fill="#000000"/><text fill="#000000" font-family="sans-serif" font-size="14" lengthAdjust="spacing" textLength="83" x="42.5" y="283.4839">ImageSensor</text><line style="stroke:#181818;stroke-width:0.5;" x1="14.5" x2="127.5" y1="293" y2="293"/><line style="stroke:#181818;stroke-width:0.5;" x1="14.5" x2="127.5" y1="301" y2="301"/></g><!--class DigitalCamera--><g id="elem_DigitalCamera"><rect fill="#F1F1F1" height="48" id="DigitalCamera" rx="2.5" ry="2.5" style="stroke:#181818;stroke-width:0.5;" width="121" x="10.5" y="7"/><ellipse cx="25.5" cy="23" fill="#ADD1B2" rx="11" ry="11" style="stroke:#181818;stroke-width:1.0;"/><path d="M24.8438,28.8594 Q22.8594,28.8594 21.6875,27.3906 Q20.5313,25.9063 20.5313,22.8281 Q20.5313,20.2188 21.75,18.4688 Q22.9844,16.7188 25.1094,16.7188 Q25.6094,16.7188 26.1406,16.8594 Q26.5781,17.0469 26.8438,17.0469 Q27.0625,17.0469 27.1563,17 Q27.2656,16.9531 27.7188,16.3594 L28.4844,20.0938 L27.5938,20.3594 Q27.1406,18.9063 26.5313,18.3125 Q25.9375,17.7031 24.9844,17.7031 Q23.7656,17.7031 23.0469,19.1406 Q22.3281,20.5625 22.3281,22.75 Q22.3281,25.1563 22.9375,26.4531 Q23.5625,27.7344 24.9219,27.7344 Q25.875,27.7344 26.5625,27.0469 Q27.25,26.3438 27.5781,24.8438 L28.4844,25.25 Q28.0781,26.9531 27.1094,27.9063 Q26.1563,28.8594 24.8438,28.8594 Z " fill="#000000"/><text fill="#000000" font-family="sans-serif" font-size="14" lengthAdjust="spacing" textLength="89" x="39.5" y="29.4839">DigitalCamera</text><line style="stroke:#181818;stroke-width:0.5;" x1="11.5" x2="130.5" y1="39" y2="39"/><line style="stroke:#181818;stroke-width:0.5;" x1="11.5" x2="130.5" y1="47" y2="47"/></g><!--reverse link CameraModule to ImageSensor--><g id="link_CameraModule_ImageSensor"><path codeLine="1" d="M71,194.22 C71,216.67 71,238.5 71,260.91 " fill="none" id="CameraModule-backto-ImageSensor" style="stroke:#181818;stroke-width:1.0;"/><polygon fill="#181818" points="71,182.22,67,188.22,71,194.22,75,188.22,71,182.22" style="stroke:#181818;stroke-width:1.0;"/><text fill="#000000" font-family="sans-serif" font-size="13" lengthAdjust="spacing" textLength="60" x="72" y="227.8979">composes</text></g><!--reverse link DigitalCamera to CameraModule--><g id="link_DigitalCamera_CameraModule"><path codeLine="2" d="M71,67.22 C71,89.67 71,111.5 71,133.91 " fill="none" id="DigitalCamera-backto-CameraModule" style="stroke:#181818;stroke-width:1.0;"/><polygon fill="#181818" points="71,55.22,67,61.22,71,67.22,75,61.22,71,55.22" style="stroke:#181818;stroke-width:1.0;"/><text fill="#000000" font-family="sans-serif" font-size="13" lengthAdjust="spacing" textLength="60" x="72" y="100.8979">composes</text></g><!--SRC=[SqxCJIrAzCrFASr9LT3IrLNmp4rCJmrEpIlEBrAmKaZEpot8BqujvdB9JCyiISnn1Yi7AtH6rebG2G00]--></g></svg>