<?xml version="1.0" encoding="us-ascii" standalone="no"?><svg xmlns="http://www.w3.org/2000/svg" xmlns:xlink="http://www.w3.org/1999/xlink" contentStyleType="text/css" height="316px" preserveAspectRatio="none" style="width:143px;height:316px;background:#FFFFFF;" version="1.1" viewBox="0 0 143 316" width="143px" zoomAndPan="magnify"><defs/><g><!--class BenchGrinder--><g id="elem_BenchGrinder"><rect fill="#F1F1F1" height="48" id="BenchGrinder" rx="2.5" ry="2.5" style="stroke:#181818;stroke-width:0.5;" width="120" x="7" y="134"/><ellipse cx="22" cy="150" fill="#ADD1B2" rx="11" ry="11" style="stroke:#181818;stroke-width:1.0;"/><path d="M21.3438,155.8594 Q19.3594,155.8594 18.1875,154.3906 Q17.0313,152.9063 17.0313,149.8281 Q17.0313,147.2188 18.25,145.4688 Q19.4844,143.7188 21.6094,143.7188 Q22.1094,143.7188 22.6406,143.8594 Q23.0781,144.0469 23.3438,144.0469 Q23.5625,144.0469 23.6563,144 Q23.7656,143.9531 24.2188,143.3594 L24.9844,147.0938 L24.0938,147.3594 Q23.6406,145.9063 23.0313,145.3125 Q22.4375,144.7031 21.4844,144.7031 Q20.2656,144.7031 19.5469,146.1406 Q18.8281,147.5625 18.8281,149.75 Q18.8281,152.1563 19.4375,153.4531 Q20.0625,154.7344 21.4219,154.7344 Q22.375,154.7344 23.0625,154.0469 Q23.75,153.3438 24.0781,151.8438 L24.9844,152.25 Q24.5781,153.9531 23.6094,154.9063 Q22.6563,155.8594 21.3438,155.8594 Z " fill="#000000"/><text fill="#000000" font-family="sans-serif" font-size="14" lengthAdjust="spacing" textLength="88" x="36" y="156.4839">BenchGrinder</text><line style="stroke:#181818;stroke-width:0.5;" x1="8" x2="126" y1="166" y2="166"/><line style="stroke:#181818;stroke-width:0.5;" x1="8" x2="126" y1="174" y2="174"/></g><!--class Deburring--><g id="elem_Deburring"><rect fill="#F1F1F1" height="48" id="Deburring" rx="2.5" ry="2.5" style="stroke:#181818;stroke-width:0.5;" width="95" x="19.5" y="261"/><ellipse cx="34.5" cy="277" fill="#ADD1B2" rx="11" ry="11" style="stroke:#181818;stroke-width:1.0;"/><path d="M33.8438,282.8594 Q31.8594,282.8594 30.6875,281.3906 Q29.5313,279.9063 29.5313,276.8281 Q29.5313,274.2188 30.75,272.4688 Q31.9844,270.7188 34.1094,270.7188 Q34.6094,270.7188 35.1406,270.8594 Q35.5781,271.0469 35.8438,271.0469 Q36.0625,271.0469 36.1563,271 Q36.2656,270.9531 36.7188,270.3594 L37.4844,274.0938 L36.5938,274.3594 Q36.1406,272.9063 35.5313,272.3125 Q34.9375,271.7031 33.9844,271.7031 Q32.7656,271.7031 32.0469,273.1406 Q31.3281,274.5625 31.3281,276.75 Q31.3281,279.1563 31.9375,280.4531 Q32.5625,281.7344 33.9219,281.7344 Q34.875,281.7344 35.5625,281.0469 Q36.25,280.3438 36.5781,278.8438 L37.4844,279.25 Q37.0781,280.9531 36.1094,281.9063 Q35.1563,282.8594 33.8438,282.8594 Z " fill="#000000"/><text fill="#000000" font-family="sans-serif" font-size="14" lengthAdjust="spacing" textLength="63" x="48.5" y="283.4839">Deburring</text><line style="stroke:#181818;stroke-width:0.5;" x1="20.5" x2="113.5" y1="293" y2="293"/><line style="stroke:#181818;stroke-width:0.5;" x1="20.5" x2="113.5" y1="301" y2="301"/></g><!--class Electricity--><g id="elem_Electricity"><rect fill="#F1F1F1" height="48" id="Electricity" rx="2.5" ry="2.5" style="stroke:#181818;stroke-width:0.5;" width="92" x="21" y="7"/><ellipse cx="36" cy="23" fill="#ADD1B2" rx="11" ry="11" style="stroke:#181818;stroke-width:1.0;"/><path d="M35.3438,28.8594 Q33.3594,28.8594 32.1875,27.3906 Q31.0313,25.9063 31.0313,22.8281 Q31.0313,20.2188 32.25,18.4688 Q33.4844,16.7188 35.6094,16.7188 Q36.1094,16.7188 36.6406,16.8594 Q37.0781,17.0469 37.3438,17.0469 Q37.5625,17.0469 37.6563,17 Q37.7656,16.9531 38.2188,16.3594 L38.9844,20.0938 L38.0938,20.3594 Q37.6406,18.9063 37.0313,18.3125 Q36.4375,17.7031 35.4844,17.7031 Q34.2656,17.7031 33.5469,19.1406 Q32.8281,20.5625 32.8281,22.75 Q32.8281,25.1563 33.4375,26.4531 Q34.0625,27.7344 35.4219,27.7344 Q36.375,27.7344 37.0625,27.0469 Q37.75,26.3438 38.0781,24.8438 L38.9844,25.25 Q38.5781,26.9531 37.6094,27.9063 Q36.6563,28.8594 35.3438,28.8594 Z " fill="#000000"/><text fill="#000000" font-family="sans-serif" font-size="14" lengthAdjust="spacing" textLength="60" x="50" y="29.4839">Electricity</text><line style="stroke:#181818;stroke-width:0.5;" x1="22" x2="112" y1="39" y2="39"/><line style="stroke:#181818;stroke-width:0.5;" x1="22" x2="112" y1="47" y2="47"/></g><!--link BenchGrinder to Deburring--><g id="link_BenchGrinder_Deburring"><path codeLine="1" d="M67,182.22 C67,204.67 67,232.5 67,254.91 " fill="none" id="BenchGrinder-to-Deburring" style="stroke:#181818;stroke-width:1.0;stroke-dasharray:7.0,7.0;"/><polygon fill="#181818" points="67,260.91,71,251.91,67,255.91,63,251.91,67,260.91" style="stroke:#181818;stroke-width:1.0;"/><text fill="#000000" font-family="sans-serif" font-size="13" lengthAdjust="spacing" textLength="67" x="68" y="227.8979">depends on</text></g><!--link Electricity to BenchGrinder--><g id="link_Electricity_BenchGrinder"><path codeLine="2" d="M67,55.22 C67,77.67 67,105.5 67,127.91 " fill="none" id="Electricity-to-BenchGrinder" style="stroke:#181818;stroke-width:1.0;stroke-dasharray:7.0,7.0;"/><polygon fill="#181818" points="67,133.91,71,124.91,67,128.91,63,124.91,67,133.91" style="stroke:#181818;stroke-width:1.0;"/><text fill="#000000" font-family="sans-serif" font-size="13" lengthAdjust="spacing" textLength="67" x="68" y="100.8979">depends on</text></g><!--SRC=[SqhDIyvmByhCIqajKj3JirDmIKqgBGBoqnMi559I2rBpKeeLylEuN7DIaqkACfCpIoh1ofoGzI6h1000]--></g></svg>