<?xml version="1.0" encoding="us-ascii" standalone="no"?><svg xmlns="http://www.w3.org/2000/svg" xmlns:xlink="http://www.w3.org/1999/xlink" contentStyleType="text/css" height="316px" preserveAspectRatio="none" style="width:162px;height:316px;background:#FFFFFF;" version="1.1" viewBox="0 0 162 316" width="162px" zoomAndPan="magnify"><defs/><g><!--class PneumaticNailGun--><g id="elem_PneumaticNailGun"><rect fill="#F1F1F1" height="48" id="PneumaticNailGun" rx="2.5" ry="2.5" style="stroke:#181818;stroke-width:0.5;" width="148" x="7" y="134"/><ellipse cx="22" cy="150" fill="#ADD1B2" rx="11" ry="11" style="stroke:#181818;stroke-width:1.0;"/><path d="M21.3438,155.8594 Q19.3594,155.8594 18.1875,154.3906 Q17.0313,152.9063 17.0313,149.8281 Q17.0313,147.2188 18.25,145.4688 Q19.4844,143.7188 21.6094,143.7188 Q22.1094,143.7188 22.6406,143.8594 Q23.0781,144.0469 23.3438,144.0469 Q23.5625,144.0469 23.6563,144 Q23.7656,143.9531 24.2188,143.3594 L24.9844,147.0938 L24.0938,147.3594 Q23.6406,145.9063 23.0313,145.3125 Q22.4375,144.7031 21.4844,144.7031 Q20.2656,144.7031 19.5469,146.1406 Q18.8281,147.5625 18.8281,149.75 Q18.8281,152.1563 19.4375,153.4531 Q20.0625,154.7344 21.4219,154.7344 Q22.375,154.7344 23.0625,154.0469 Q23.75,153.3438 24.0781,151.8438 L24.9844,152.25 Q24.5781,153.9531 23.6094,154.9063 Q22.6563,155.8594 21.3438,155.8594 Z " fill="#000000"/><text fill="#000000" font-family="sans-serif" font-size="14" lengthAdjust="spacing" textLength="116" x="36" y="156.4839">PneumaticNailGun</text><line style="stroke:#181818;stroke-width:0.5;" x1="8" x2="154" y1="166" y2="166"/><line style="stroke:#181818;stroke-width:0.5;" x1="8" x2="154" y1="174" y2="174"/></g><!--class Carpentry--><g id="elem_Carpentry"><rect fill="#F1F1F1" height="48" id="Carpentry" rx="2.5" ry="2.5" style="stroke:#181818;stroke-width:0.5;" width="95" x="33.5" y="261"/><ellipse cx="48.5" cy="277" fill="#ADD1B2" rx="11" ry="11" style="stroke:#181818;stroke-width:1.0;"/><path d="M47.8438,282.8594 Q45.8594,282.8594 44.6875,281.3906 Q43.5313,279.9063 43.5313,276.8281 Q43.5313,274.2188 44.75,272.4688 Q45.9844,270.7188 48.1094,270.7188 Q48.6094,270.7188 49.1406,270.8594 Q49.5781,271.0469 49.8438,271.0469 Q50.0625,271.0469 50.1563,271 Q50.2656,270.9531 50.7188,270.3594 L51.4844,274.0938 L50.5938,274.3594 Q50.1406,272.9063 49.5313,272.3125 Q48.9375,271.7031 47.9844,271.7031 Q46.7656,271.7031 46.0469,273.1406 Q45.3281,274.5625 45.3281,276.75 Q45.3281,279.1563 45.9375,280.4531 Q46.5625,281.7344 47.9219,281.7344 Q48.875,281.7344 49.5625,281.0469 Q50.25,280.3438 50.5781,278.8438 L51.4844,279.25 Q51.0781,280.9531 50.1094,281.9063 Q49.1563,282.8594 47.8438,282.8594 Z " fill="#000000"/><text fill="#000000" font-family="sans-serif" font-size="14" lengthAdjust="spacing" textLength="63" x="62.5" y="283.4839">Carpentry</text><line style="stroke:#181818;stroke-width:0.5;" x1="34.5" x2="127.5" y1="293" y2="293"/><line style="stroke:#181818;stroke-width:0.5;" x1="34.5" x2="127.5" y1="301" y2="301"/></g><!--class CompressedAir--><g id="elem_CompressedAir"><rect fill="#F1F1F1" height="48" id="CompressedAir" rx="2.5" ry="2.5" style="stroke:#181818;stroke-width:0.5;" width="129" x="16.5" y="7"/><ellipse cx="31.5" cy="23" fill="#ADD1B2" rx="11" ry="11" style="stroke:#181818;stroke-width:1.0;"/><path d="M30.8438,28.8594 Q28.8594,28.8594 27.6875,27.3906 Q26.5313,25.9063 26.5313,22.8281 Q26.5313,20.2188 27.75,18.4688 Q28.9844,16.7188 31.1094,16.7188 Q31.6094,16.7188 32.1406,16.8594 Q32.5781,17.0469 32.8438,17.0469 Q33.0625,17.0469 33.1563,17 Q33.2656,16.9531 33.7188,16.3594 L34.4844,20.0938 L33.5938,20.3594 Q33.1406,18.9063 32.5313,18.3125 Q31.9375,17.7031 30.9844,17.7031 Q29.7656,17.7031 29.0469,19.1406 Q28.3281,20.5625 28.3281,22.75 Q28.3281,25.1563 28.9375,26.4531 Q29.5625,27.7344 30.9219,27.7344 Q31.875,27.7344 32.5625,27.0469 Q33.25,26.3438 33.5781,24.8438 L34.4844,25.25 Q34.0781,26.9531 33.1094,27.9063 Q32.1563,28.8594 30.8438,28.8594 Z " fill="#000000"/><text fill="#000000" font-family="sans-serif" font-size="14" lengthAdjust="spacing" textLength="97" x="45.5" y="29.4839">CompressedAir</text><line style="stroke:#181818;stroke-width:0.5;" x1="17.5" x2="144.5" y1="39" y2="39"/><line style="stroke:#181818;stroke-width:0.5;" x1="17.5" x2="144.5" y1="47" y2="47"/></g><!--link PneumaticNailGun to Carpentry--><g id="link_PneumaticNailGun_Carpentry"><path codeLine="1" d="M81,182.22 C81,204.67 81,232.5 81,254.91 " fill="none" id="PneumaticNailGun-to-Carpentry" style="stroke:#181818;stroke-width:1.0;stroke-dasharray:7.0,7.0;"/><polygon fill="#181818" points="81,260.91,85,251.91,81,255.91,77,251.91,81,260.91" style="stroke:#181818;stroke-width:1.0;"/><text fill="#000000" font-family="sans-serif" font-size="13" lengthAdjust="spacing" textLength="67" x="82" y="227.8979">depends on</text></g><!--link CompressedAir to PneumaticNailGun--><g id="link_CompressedAir_PneumaticNailGun"><path codeLine="2" d="M81,55.22 C81,77.67 81,105.5 81,127.91 " fill="none" id="CompressedAir-to-PneumaticNailGun" style="stroke:#181818;stroke-width:1.0;stroke-dasharray:7.0,7.0;"/><polygon fill="#181818" points="81,133.91,85,124.91,81,128.91,77,124.91,81,133.91" style="stroke:#181818;stroke-width:1.0;"/><text fill="#000000" font-family="sans-serif" font-size="13" lengthAdjust="spacing" textLength="67" x="82" y="100.8979">depends on</text></g><!--SRC=[2yXBBSrDBCbCzalCp74lpLFGqxDJS4uiAaZDAocgLB1II4a5CbEA5VBpk9ppSmkAKekBKrCSCul02WFGTIEh1m00]--></g></svg>