<?xml version="1.0" encoding="us-ascii" standalone="no"?><svg xmlns="http://www.w3.org/2000/svg" xmlns:xlink="http://www.w3.org/1999/xlink" contentStyleType="text/css" height="316px" preserveAspectRatio="none" style="width:137px;height:316px;background:#FFFFFF;" version="1.1" viewBox="0 0 137 316" width="137px" zoomAndPan="magnify"><defs/><g><!--class Game--><g id="elem_Game"><rect fill="#F1F1F1" height="48" id="Game" rx="2.5" ry="2.5" style="stroke:#181818;stroke-width:0.5;" width="70" x="33.5" y="7"/><ellipse cx="48.5" cy="23" fill="#ADD1B2" rx="11" ry="11" style="stroke:#181818;stroke-width:1.0;"/><path d="M47.8438,28.8594 Q45.8594,28.8594 44.6875,27.3906 Q43.5313,25.9063 43.5313,22.8281 Q43.5313,20.2188 44.75,18.4688 Q45.9844,16.7188 48.1094,16.7188 Q48.6094,16.7188 49.1406,16.8594 Q49.5781,17.0469 49.8438,17.0469 Q50.0625,17.0469 50.1563,17 Q50.2656,16.9531 50.7188,16.3594 L51.4844,20.0938 L50.5938,20.3594 Q50.1406,18.9063 49.5313,18.3125 Q48.9375,17.7031 47.9844,17.7031 Q46.7656,17.7031 46.0469,19.1406 Q45.3281,20.5625 45.3281,22.75 Q45.3281,25.1563 45.9375,26.4531 Q46.5625,27.7344 47.9219,27.7344 Q48.875,27.7344 49.5625,27.0469 Q50.25,26.3438 50.5781,24.8438 L51.4844,25.25 Q51.0781,26.9531 50.1094,27.9063 Q49.1563,28.8594 47.8438,28.8594 Z " fill="#000000"/><text fill="#000000" font-family="sans-serif" font-size="14" lengthAdjust="spacing" textLength="38" x="62.5" y="29.4839">Game</text><line style="stroke:#181818;stroke-width:0.5;" x1="34.5" x2="102.5" y1="39" y2="39"/><line style="stroke:#181818;stroke-width:0.5;" x1="34.5" x2="102.5" y1="47" y2="47"/></g><!--class VideoGame--><g id="elem_VideoGame"><rect fill="#F1F1F1" height="48" id="VideoGame" rx="2.5" ry="2.5" style="stroke:#181818;stroke-width:0.5;" width="106" x="15.5" y="134"/><ellipse cx="30.5" cy="150" fill="#ADD1B2" rx="11" ry="11" style="stroke:#181818;stroke-width:1.0;"/><path d="M29.8438,155.8594 Q27.8594,155.8594 26.6875,154.3906 Q25.5313,152.9063 25.5313,149.8281 Q25.5313,147.2188 26.75,145.4688 Q27.9844,143.7188 30.1094,143.7188 Q30.6094,143.7188 31.1406,143.8594 Q31.5781,144.0469 31.8438,144.0469 Q32.0625,144.0469 32.1563,144 Q32.2656,143.9531 32.7188,143.3594 L33.4844,147.0938 L32.5938,147.3594 Q32.1406,145.9063 31.5313,145.3125 Q30.9375,144.7031 29.9844,144.7031 Q28.7656,144.7031 28.0469,146.1406 Q27.3281,147.5625 27.3281,149.75 Q27.3281,152.1563 27.9375,153.4531 Q28.5625,154.7344 29.9219,154.7344 Q30.875,154.7344 31.5625,154.0469 Q32.25,153.3438 32.5781,151.8438 L33.4844,152.25 Q33.0781,153.9531 32.1094,154.9063 Q31.1563,155.8594 29.8438,155.8594 Z " fill="#000000"/><text fill="#000000" font-family="sans-serif" font-size="14" lengthAdjust="spacing" textLength="74" x="44.5" y="156.4839">VideoGame</text><line style="stroke:#181818;stroke-width:0.5;" x1="16.5" x2="120.5" y1="166" y2="166"/><line style="stroke:#181818;stroke-width:0.5;" x1="16.5" x2="120.5" y1="174" y2="174"/></g><!--class GranTurismo7--><g id="elem_GranTurismo7"><rect fill="#F1F1F1" height="48" id="GranTurismo7" rx="2.5" ry="2.5" style="stroke:#181818;stroke-width:0.5;" width="123" x="7" y="261"/><ellipse cx="22" cy="277" fill="#ADD1B2" rx="11" ry="11" style="stroke:#181818;stroke-width:1.0;"/><path d="M21.3438,282.8594 Q19.3594,282.8594 18.1875,281.3906 Q17.0313,279.9063 17.0313,276.8281 Q17.0313,274.2188 18.25,272.4688 Q19.4844,270.7188 21.6094,270.7188 Q22.1094,270.7188 22.6406,270.8594 Q23.0781,271.0469 23.3438,271.0469 Q23.5625,271.0469 23.6563,271 Q23.7656,270.9531 24.2188,270.3594 L24.9844,274.0938 L24.0938,274.3594 Q23.6406,272.9063 23.0313,272.3125 Q22.4375,271.7031 21.4844,271.7031 Q20.2656,271.7031 19.5469,273.1406 Q18.8281,274.5625 18.8281,276.75 Q18.8281,279.1563 19.4375,280.4531 Q20.0625,281.7344 21.4219,281.7344 Q22.375,281.7344 23.0625,281.0469 Q23.75,280.3438 24.0781,278.8438 L24.9844,279.25 Q24.5781,280.9531 23.6094,281.9063 Q22.6563,282.8594 21.3438,282.8594 Z " fill="#000000"/><text fill="#000000" font-family="sans-serif" font-size="14" lengthAdjust="spacing" textLength="91" x="36" y="283.4839">GranTurismo7</text><line style="stroke:#181818;stroke-width:0.5;" x1="8" x2="129" y1="293" y2="293"/><line style="stroke:#181818;stroke-width:0.5;" x1="8" x2="129" y1="301" y2="301"/></g><!--reverse link Game to VideoGame--><g id="link_Game_VideoGame"><path codeLine="1" d="M68.5,73.22 C68.5,95.67 68.5,111.5 68.5,133.91 " fill="none" id="Game-backto-VideoGame" style="stroke:#181818;stroke-width:1.0;"/><polygon fill="none" points="68.5,55.22,62.5,73.22,74.5,73.22,68.5,55.22" style="stroke:#181818;stroke-width:1.0;"/><text fill="#000000" font-family="sans-serif" font-size="13" lengthAdjust="spacing" textLength="42" x="69.5" y="100.8979">inherits</text></g><!--reverse link VideoGame to GranTurismo7--><g id="link_VideoGame_GranTurismo7"><path codeLine="2" d="M68.5,200.22 C68.5,222.67 68.5,238.5 68.5,260.91 " fill="none" id="VideoGame-backto-GranTurismo7" style="stroke:#181818;stroke-width:1.0;"/><polygon fill="none" points="68.5,182.22,62.5,200.22,74.5,200.22,68.5,182.22" style="stroke:#181818;stroke-width:1.0;"/><text fill="#000000" font-family="sans-serif" font-size="13" lengthAdjust="spacing" textLength="42" x="69.5" y="227.8979">inherits</text></g><!--SRC=[Sq_CJLMmgT7LLGZBJ4dDTmTnhHGoyp9IYp9BYhaGWc0rxaM9UI6bHPd5kVdcICe0]--></g></svg>