<?xml version="1.0" encoding="us-ascii" standalone="no"?><svg xmlns="http://www.w3.org/2000/svg" xmlns:xlink="http://www.w3.org/1999/xlink" contentStyleType="text/css" height="316px" preserveAspectRatio="none" style="width:219px;height:316px;background:#FFFFFF;" version="1.1" viewBox="0 0 219 316" width="219px" zoomAndPan="magnify"><defs/><g><!--class Entertainment--><g id="elem_Entertainment"><rect fill="#F1F1F1" height="48" id="Entertainment" rx="2.5" ry="2.5" style="stroke:#181818;stroke-width:0.5;" width="120" x="49.5" y="7"/><ellipse cx="64.5" cy="23" fill="#ADD1B2" rx="11" ry="11" style="stroke:#181818;stroke-width:1.0;"/><path d="M63.8438,28.8594 Q61.8594,28.8594 60.6875,27.3906 Q59.5313,25.9063 59.5313,22.8281 Q59.5313,20.2188 60.75,18.4688 Q61.9844,16.7188 64.1094,16.7188 Q64.6094,16.7188 65.1406,16.8594 Q65.5781,17.0469 65.8438,17.0469 Q66.0625,17.0469 66.1563,17 Q66.2656,16.9531 66.7188,16.3594 L67.4844,20.0938 L66.5938,20.3594 Q66.1406,18.9063 65.5313,18.3125 Q64.9375,17.7031 63.9844,17.7031 Q62.7656,17.7031 62.0469,19.1406 Q61.3281,20.5625 61.3281,22.75 Q61.3281,25.1563 61.9375,26.4531 Q62.5625,27.7344 63.9219,27.7344 Q64.875,27.7344 65.5625,27.0469 Q66.25,26.3438 66.5781,24.8438 L67.4844,25.25 Q67.0781,26.9531 66.1094,27.9063 Q65.1563,28.8594 63.8438,28.8594 Z " fill="#000000"/><text fill="#000000" font-family="sans-serif" font-size="14" lengthAdjust="spacing" textLength="88" x="78.5" y="29.4839">Entertainment</text><line style="stroke:#181818;stroke-width:0.5;" x1="50.5" x2="168.5" y1="39" y2="39"/><line style="stroke:#181818;stroke-width:0.5;" x1="50.5" x2="168.5" y1="47" y2="47"/></g><!--class Film--><g id="elem_Film"><rect fill="#F1F1F1" height="48" id="Film" rx="2.5" ry="2.5" style="stroke:#181818;stroke-width:0.5;" width="58" x="80.5" y="134"/><ellipse cx="95.5" cy="150" fill="#ADD1B2" rx="11" ry="11" style="stroke:#181818;stroke-width:1.0;"/><path d="M94.8438,155.8594 Q92.8594,155.8594 91.6875,154.3906 Q90.5313,152.9063 90.5313,149.8281 Q90.5313,147.2188 91.75,145.4688 Q92.9844,143.7188 95.1094,143.7188 Q95.6094,143.7188 96.1406,143.8594 Q96.5781,144.0469 96.8438,144.0469 Q97.0625,144.0469 97.1563,144 Q97.2656,143.9531 97.7188,143.3594 L98.4844,147.0938 L97.5938,147.3594 Q97.1406,145.9063 96.5313,145.3125 Q95.9375,144.7031 94.9844,144.7031 Q93.7656,144.7031 93.0469,146.1406 Q92.3281,147.5625 92.3281,149.75 Q92.3281,152.1563 92.9375,153.4531 Q93.5625,154.7344 94.9219,154.7344 Q95.875,154.7344 96.5625,154.0469 Q97.25,153.3438 97.5781,151.8438 L98.4844,152.25 Q98.0781,153.9531 97.1094,154.9063 Q96.1563,155.8594 94.8438,155.8594 Z " fill="#000000"/><text fill="#000000" font-family="sans-serif" font-size="14" lengthAdjust="spacing" textLength="26" x="109.5" y="156.4839">Film</text><line style="stroke:#181818;stroke-width:0.5;" x1="81.5" x2="137.5" y1="166" y2="166"/><line style="stroke:#181818;stroke-width:0.5;" x1="81.5" x2="137.5" y1="174" y2="174"/></g><!--class TheShawshankRedemption--><g id="elem_TheShawshankRedemption"><rect fill="#F1F1F1" height="48" id="TheShawshankRedemption" rx="2.5" ry="2.5" style="stroke:#181818;stroke-width:0.5;" width="205" x="7" y="261"/><ellipse cx="22" cy="277" fill="#ADD1B2" rx="11" ry="11" style="stroke:#181818;stroke-width:1.0;"/><path d="M21.3438,282.8594 Q19.3594,282.8594 18.1875,281.3906 Q17.0313,279.9063 17.0313,276.8281 Q17.0313,274.2188 18.25,272.4688 Q19.4844,270.7188 21.6094,270.7188 Q22.1094,270.7188 22.6406,270.8594 Q23.0781,271.0469 23.3438,271.0469 Q23.5625,271.0469 23.6563,271 Q23.7656,270.9531 24.2188,270.3594 L24.9844,274.0938 L24.0938,274.3594 Q23.6406,272.9063 23.0313,272.3125 Q22.4375,271.7031 21.4844,271.7031 Q20.2656,271.7031 19.5469,273.1406 Q18.8281,274.5625 18.8281,276.75 Q18.8281,279.1563 19.4375,280.4531 Q20.0625,281.7344 21.4219,281.7344 Q22.375,281.7344 23.0625,281.0469 Q23.75,280.3438 24.0781,278.8438 L24.9844,279.25 Q24.5781,280.9531 23.6094,281.9063 Q22.6563,282.8594 21.3438,282.8594 Z " fill="#000000"/><text fill="#000000" font-family="sans-serif" font-size="14" lengthAdjust="spacing" textLength="173" x="36" y="283.4839">TheShawshankRedemption</text><line style="stroke:#181818;stroke-width:0.5;" x1="8" x2="211" y1="293" y2="293"/><line style="stroke:#181818;stroke-width:0.5;" x1="8" x2="211" y1="301" y2="301"/></g><!--reverse link Entertainment to Film--><g id="link_Entertainment_Film"><path codeLine="1" d="M109.5,73.22 C109.5,95.67 109.5,111.5 109.5,133.91 " fill="none" id="Entertainment-backto-Film" style="stroke:#181818;stroke-width:1.0;"/><polygon fill="none" points="109.5,55.22,103.5,73.22,115.5,73.22,109.5,55.22" style="stroke:#181818;stroke-width:1.0;"/><text fill="#000000" font-family="sans-serif" font-size="13" lengthAdjust="spacing" textLength="42" x="110.5" y="100.8979">inherits</text></g><!--reverse link Film to TheShawshankRedemption--><g id="link_Film_TheShawshankRedemption"><path codeLine="2" d="M109.5,200.22 C109.5,222.67 109.5,238.5 109.5,260.91 " fill="none" id="Film-backto-TheShawshankRedemption" style="stroke:#181818;stroke-width:1.0;"/><polygon fill="none" points="109.5,182.22,103.5,200.22,115.5,200.22,109.5,182.22" style="stroke:#181818;stroke-width:1.0;"/><text fill="#000000" font-family="sans-serif" font-size="13" lengthAdjust="spacing" textLength="42" x="110.5" y="227.8979">inherits</text></g><!--SRC=[SyqhIIqgISpCoqtDAr6mgT7LLN3BpCbLi5B8pCj8BSeiAUO2yy4o8HcfmHc9vSKPYNdPGQafgRa59PdvUKXg0G00]--></g></svg>