<?xml version="1.0" encoding="us-ascii" standalone="no"?><svg xmlns="http://www.w3.org/2000/svg" xmlns:xlink="http://www.w3.org/1999/xlink" contentStyleType="text/css" height="316px" preserveAspectRatio="none" style="width:163px;height:316px;background:#FFFFFF;" version="1.1" viewBox="0 0 163 316" width="163px" zoomAndPan="magnify"><defs/><g><!--class Entertainment--><g id="elem_Entertainment"><rect fill="#F1F1F1" height="48" id="Entertainment" rx="2.5" ry="2.5" style="stroke:#181818;stroke-width:0.5;" width="120" x="21.5" y="7"/><ellipse cx="36.5" cy="23" fill="#ADD1B2" rx="11" ry="11" style="stroke:#181818;stroke-width:1.0;"/><path d="M35.8438,28.8594 Q33.8594,28.8594 32.6875,27.3906 Q31.5313,25.9063 31.5313,22.8281 Q31.5313,20.2188 32.75,18.4688 Q33.9844,16.7188 36.1094,16.7188 Q36.6094,16.7188 37.1406,16.8594 Q37.5781,17.0469 37.8438,17.0469 Q38.0625,17.0469 38.1563,17 Q38.2656,16.9531 38.7188,16.3594 L39.4844,20.0938 L38.5938,20.3594 Q38.1406,18.9063 37.5313,18.3125 Q36.9375,17.7031 35.9844,17.7031 Q34.7656,17.7031 34.0469,19.1406 Q33.3281,20.5625 33.3281,22.75 Q33.3281,25.1563 33.9375,26.4531 Q34.5625,27.7344 35.9219,27.7344 Q36.875,27.7344 37.5625,27.0469 Q38.25,26.3438 38.5781,24.8438 L39.4844,25.25 Q39.0781,26.9531 38.1094,27.9063 Q37.1563,28.8594 35.8438,28.8594 Z " fill="#000000"/><text fill="#000000" font-family="sans-serif" font-size="14" lengthAdjust="spacing" textLength="88" x="50.5" y="29.4839">Entertainment</text><line style="stroke:#181818;stroke-width:0.5;" x1="22.5" x2="140.5" y1="39" y2="39"/><line style="stroke:#181818;stroke-width:0.5;" x1="22.5" x2="140.5" y1="47" y2="47"/></g><!--class Film--><g id="elem_Film"><rect fill="#F1F1F1" height="48" id="Film" rx="2.5" ry="2.5" style="stroke:#181818;stroke-width:0.5;" width="58" x="52.5" y="134"/><ellipse cx="67.5" cy="150" fill="#ADD1B2" rx="11" ry="11" style="stroke:#181818;stroke-width:1.0;"/><path d="M66.8438,155.8594 Q64.8594,155.8594 63.6875,154.3906 Q62.5313,152.9063 62.5313,149.8281 Q62.5313,147.2188 63.75,145.4688 Q64.9844,143.7188 67.1094,143.7188 Q67.6094,143.7188 68.1406,143.8594 Q68.5781,144.0469 68.8438,144.0469 Q69.0625,144.0469 69.1563,144 Q69.2656,143.9531 69.7188,143.3594 L70.4844,147.0938 L69.5938,147.3594 Q69.1406,145.9063 68.5313,145.3125 Q67.9375,144.7031 66.9844,144.7031 Q65.7656,144.7031 65.0469,146.1406 Q64.3281,147.5625 64.3281,149.75 Q64.3281,152.1563 64.9375,153.4531 Q65.5625,154.7344 66.9219,154.7344 Q67.875,154.7344 68.5625,154.0469 Q69.25,153.3438 69.5781,151.8438 L70.4844,152.25 Q70.0781,153.9531 69.1094,154.9063 Q68.1563,155.8594 66.8438,155.8594 Z " fill="#000000"/><text fill="#000000" font-family="sans-serif" font-size="14" lengthAdjust="spacing" textLength="26" x="81.5" y="156.4839">Film</text><line style="stroke:#181818;stroke-width:0.5;" x1="53.5" x2="109.5" y1="166" y2="166"/><line style="stroke:#181818;stroke-width:0.5;" x1="53.5" x2="109.5" y1="174" y2="174"/></g><!--class MyNeighborTotoro--><g id="elem_MyNeighborTotoro"><rect fill="#F1F1F1" height="48" id="MyNeighborTotoro" rx="2.5" ry="2.5" style="stroke:#181818;stroke-width:0.5;" width="149" x="7" y="261"/><ellipse cx="22" cy="277" fill="#ADD1B2" rx="11" ry="11" style="stroke:#181818;stroke-width:1.0;"/><path d="M21.3438,282.8594 Q19.3594,282.8594 18.1875,281.3906 Q17.0313,279.9063 17.0313,276.8281 Q17.0313,274.2188 18.25,272.4688 Q19.4844,270.7188 21.6094,270.7188 Q22.1094,270.7188 22.6406,270.8594 Q23.0781,271.0469 23.3438,271.0469 Q23.5625,271.0469 23.6563,271 Q23.7656,270.9531 24.2188,270.3594 L24.9844,274.0938 L24.0938,274.3594 Q23.6406,272.9063 23.0313,272.3125 Q22.4375,271.7031 21.4844,271.7031 Q20.2656,271.7031 19.5469,273.1406 Q18.8281,274.5625 18.8281,276.75 Q18.8281,279.1563 19.4375,280.4531 Q20.0625,281.7344 21.4219,281.7344 Q22.375,281.7344 23.0625,281.0469 Q23.75,280.3438 24.0781,278.8438 L24.9844,279.25 Q24.5781,280.9531 23.6094,281.9063 Q22.6563,282.8594 21.3438,282.8594 Z " fill="#000000"/><text fill="#000000" font-family="sans-serif" font-size="14" lengthAdjust="spacing" textLength="117" x="36" y="283.4839">MyNeighborTotoro</text><line style="stroke:#181818;stroke-width:0.5;" x1="8" x2="155" y1="293" y2="293"/><line style="stroke:#181818;stroke-width:0.5;" x1="8" x2="155" y1="301" y2="301"/></g><!--reverse link Entertainment to Film--><g id="link_Entertainment_Film"><path codeLine="1" d="M81.5,73.22 C81.5,95.67 81.5,111.5 81.5,133.91 " fill="none" id="Entertainment-backto-Film" style="stroke:#181818;stroke-width:1.0;"/><polygon fill="none" points="81.5,55.22,75.5,73.22,87.5,73.22,81.5,55.22" style="stroke:#181818;stroke-width:1.0;"/><text fill="#000000" font-family="sans-serif" font-size="13" lengthAdjust="spacing" textLength="42" x="82.5" y="100.8979">inherits</text></g><!--reverse link Film to MyNeighborTotoro--><g id="link_Film_MyNeighborTotoro"><path codeLine="2" d="M81.5,200.22 C81.5,222.67 81.5,238.5 81.5,260.91 " fill="none" id="Film-backto-MyNeighborTotoro" style="stroke:#181818;stroke-width:1.0;"/><polygon fill="none" points="81.5,182.22,75.5,200.22,87.5,200.22,81.5,182.22" style="stroke:#181818;stroke-width:1.0;"/><text fill="#000000" font-family="sans-serif" font-size="13" lengthAdjust="spacing" textLength="42" x="82.5" y="227.8979">inherits</text></g><!--SRC=[SyqhIIqgISpCoqtDAr6mgT7LLN3BpCbLi5B8pCj8BSeiAUO2yy4olfL-gPdf6KdvHI7v9Vb5-KYg0000]--></g></svg>