<?xml version="1.0" encoding="us-ascii" standalone="no"?><svg xmlns="http://www.w3.org/2000/svg" xmlns:xlink="http://www.w3.org/1999/xlink" contentStyleType="text/css" height="316px" preserveAspectRatio="none" style="width:249px;height:316px;background:#FFFFFF;" version="1.1" viewBox="0 0 249 316" width="249px" zoomAndPan="magnify"><defs/><g><!--class Film--><g id="elem_Film"><rect fill="#F1F1F1" height="48" id="Film" rx="2.5" ry="2.5" style="stroke:#181818;stroke-width:0.5;" width="58" x="95.5" y="7"/><ellipse cx="110.5" cy="23" fill="#ADD1B2" rx="11" ry="11" style="stroke:#181818;stroke-width:1.0;"/><path d="M109.8438,28.8594 Q107.8594,28.8594 106.6875,27.3906 Q105.5313,25.9063 105.5313,22.8281 Q105.5313,20.2188 106.75,18.4688 Q107.9844,16.7188 110.1094,16.7188 Q110.6094,16.7188 111.1406,16.8594 Q111.5781,17.0469 111.8438,17.0469 Q112.0625,17.0469 112.1563,17 Q112.2656,16.9531 112.7188,16.3594 L113.4844,20.0938 L112.5938,20.3594 Q112.1406,18.9063 111.5313,18.3125 Q110.9375,17.7031 109.9844,17.7031 Q108.7656,17.7031 108.0469,19.1406 Q107.3281,20.5625 107.3281,22.75 Q107.3281,25.1563 107.9375,26.4531 Q108.5625,27.7344 109.9219,27.7344 Q110.875,27.7344 111.5625,27.0469 Q112.25,26.3438 112.5781,24.8438 L113.4844,25.25 Q113.0781,26.9531 112.1094,27.9063 Q111.1563,28.8594 109.8438,28.8594 Z " fill="#000000"/><text fill="#000000" font-family="sans-serif" font-size="14" lengthAdjust="spacing" textLength="26" x="124.5" y="29.4839">Film</text><line style="stroke:#181818;stroke-width:0.5;" x1="96.5" x2="152.5" y1="39" y2="39"/><line style="stroke:#181818;stroke-width:0.5;" x1="96.5" x2="152.5" y1="47" y2="47"/></g><!--class AnimatedFilm--><g id="elem_AnimatedFilm"><rect fill="#F1F1F1" height="48" id="AnimatedFilm" rx="2.5" ry="2.5" style="stroke:#181818;stroke-width:0.5;" width="117" x="66" y="134"/><ellipse cx="81" cy="150" fill="#ADD1B2" rx="11" ry="11" style="stroke:#181818;stroke-width:1.0;"/><path d="M80.3438,155.8594 Q78.3594,155.8594 77.1875,154.3906 Q76.0313,152.9063 76.0313,149.8281 Q76.0313,147.2188 77.25,145.4688 Q78.4844,143.7188 80.6094,143.7188 Q81.1094,143.7188 81.6406,143.8594 Q82.0781,144.0469 82.3438,144.0469 Q82.5625,144.0469 82.6563,144 Q82.7656,143.9531 83.2188,143.3594 L83.9844,147.0938 L83.0938,147.3594 Q82.6406,145.9063 82.0313,145.3125 Q81.4375,144.7031 80.4844,144.7031 Q79.2656,144.7031 78.5469,146.1406 Q77.8281,147.5625 77.8281,149.75 Q77.8281,152.1563 78.4375,153.4531 Q79.0625,154.7344 80.4219,154.7344 Q81.375,154.7344 82.0625,154.0469 Q82.75,153.3438 83.0781,151.8438 L83.9844,152.25 Q83.5781,153.9531 82.6094,154.9063 Q81.6563,155.8594 80.3438,155.8594 Z " fill="#000000"/><text fill="#000000" font-family="sans-serif" font-size="14" lengthAdjust="spacing" textLength="85" x="95" y="156.4839">AnimatedFilm</text><line style="stroke:#181818;stroke-width:0.5;" x1="67" x2="182" y1="166" y2="166"/><line style="stroke:#181818;stroke-width:0.5;" x1="67" x2="182" y1="174" y2="174"/></g><!--class SnowWhiteAndTheSevenDwarfs--><g id="elem_SnowWhiteAndTheSevenDwarfs"><rect fill="#F1F1F1" height="48" id="SnowWhiteAndTheSevenDwarfs" rx="2.5" ry="2.5" style="stroke:#181818;stroke-width:0.5;" width="235" x="7" y="261"/><ellipse cx="22" cy="277" fill="#ADD1B2" rx="11" ry="11" style="stroke:#181818;stroke-width:1.0;"/><path d="M21.3438,282.8594 Q19.3594,282.8594 18.1875,281.3906 Q17.0313,279.9063 17.0313,276.8281 Q17.0313,274.2188 18.25,272.4688 Q19.4844,270.7188 21.6094,270.7188 Q22.1094,270.7188 22.6406,270.8594 Q23.0781,271.0469 23.3438,271.0469 Q23.5625,271.0469 23.6563,271 Q23.7656,270.9531 24.2188,270.3594 L24.9844,274.0938 L24.0938,274.3594 Q23.6406,272.9063 23.0313,272.3125 Q22.4375,271.7031 21.4844,271.7031 Q20.2656,271.7031 19.5469,273.1406 Q18.8281,274.5625 18.8281,276.75 Q18.8281,279.1563 19.4375,280.4531 Q20.0625,281.7344 21.4219,281.7344 Q22.375,281.7344 23.0625,281.0469 Q23.75,280.3438 24.0781,278.8438 L24.9844,279.25 Q24.5781,280.9531 23.6094,281.9063 Q22.6563,282.8594 21.3438,282.8594 Z " fill="#000000"/><text fill="#000000" font-family="sans-serif" font-size="14" lengthAdjust="spacing" textLength="203" x="36" y="283.4839">SnowWhiteAndTheSevenDwarfs</text><line style="stroke:#181818;stroke-width:0.5;" x1="8" x2="241" y1="293" y2="293"/><line style="stroke:#181818;stroke-width:0.5;" x1="8" x2="241" y1="301" y2="301"/></g><!--reverse link Film to AnimatedFilm--><g id="link_Film_AnimatedFilm"><path codeLine="1" d="M124.5,73.22 C124.5,95.67 124.5,111.5 124.5,133.91 " fill="none" id="Film-backto-AnimatedFilm" style="stroke:#181818;stroke-width:1.0;"/><polygon fill="none" points="124.5,55.22,118.5,73.22,130.5,73.22,124.5,55.22" style="stroke:#181818;stroke-width:1.0;"/><text fill="#000000" font-family="sans-serif" font-size="13" lengthAdjust="spacing" textLength="42" x="125.5" y="100.8979">inherits</text></g><!--reverse link AnimatedFilm to SnowWhiteAndTheSevenDwarfs--><g id="link_AnimatedFilm_SnowWhiteAndTheSevenDwarfs"><path codeLine="2" d="M124.5,200.22 C124.5,222.67 124.5,238.5 124.5,260.91 " fill="none" id="AnimatedFilm-backto-SnowWhiteAndTheSevenDwarfs" style="stroke:#181818;stroke-width:1.0;"/><polygon fill="none" points="124.5,182.22,118.5,200.22,130.5,200.22,124.5,182.22" style="stroke:#181818;stroke-width:1.0;"/><text fill="#000000" font-family="sans-serif" font-size="13" lengthAdjust="spacing" textLength="42" x="125.5" y="227.8979">inherits</text></g><!--SRC=[SylCoLMmgT7LLN3CoynDB4bDSGE9M2bavcMa5cMM57EXY8DL1kVbbuTdP9QaEkQbX6Ia1gUMfUQvb2SMfHKZwGC0]--></g></svg>