<?xml version="1.0" encoding="us-ascii" standalone="no"?><svg xmlns="http://www.w3.org/2000/svg" xmlns:xlink="http://www.w3.org/1999/xlink" contentStyleType="text/css" height="316px" preserveAspectRatio="none" style="width:145px;height:316px;background:#FFFFFF;" version="1.1" viewBox="0 0 145 316" width="145px" zoomAndPan="magnify"><defs/><g><!--class Film--><g id="elem_Film"><rect fill="#F1F1F1" height="48" id="Film" rx="2.5" ry="2.5" style="stroke:#181818;stroke-width:0.5;" width="58" x="43.5" y="7"/><ellipse cx="58.5" cy="23" fill="#ADD1B2" rx="11" ry="11" style="stroke:#181818;stroke-width:1.0;"/><path d="M57.8438,28.8594 Q55.8594,28.8594 54.6875,27.3906 Q53.5313,25.9063 53.5313,22.8281 Q53.5313,20.2188 54.75,18.4688 Q55.9844,16.7188 58.1094,16.7188 Q58.6094,16.7188 59.1406,16.8594 Q59.5781,17.0469 59.8438,17.0469 Q60.0625,17.0469 60.1563,17 Q60.2656,16.9531 60.7188,16.3594 L61.4844,20.0938 L60.5938,20.3594 Q60.1406,18.9063 59.5313,18.3125 Q58.9375,17.7031 57.9844,17.7031 Q56.7656,17.7031 56.0469,19.1406 Q55.3281,20.5625 55.3281,22.75 Q55.3281,25.1563 55.9375,26.4531 Q56.5625,27.7344 57.9219,27.7344 Q58.875,27.7344 59.5625,27.0469 Q60.25,26.3438 60.5781,24.8438 L61.4844,25.25 Q61.0781,26.9531 60.1094,27.9063 Q59.1563,28.8594 57.8438,28.8594 Z " fill="#000000"/><text fill="#000000" font-family="sans-serif" font-size="14" lengthAdjust="spacing" textLength="26" x="72.5" y="29.4839">Film</text><line style="stroke:#181818;stroke-width:0.5;" x1="44.5" x2="100.5" y1="39" y2="39"/><line style="stroke:#181818;stroke-width:0.5;" x1="44.5" x2="100.5" y1="47" y2="47"/></g><!--class AnimatedFilm--><g id="elem_AnimatedFilm"><rect fill="#F1F1F1" height="48" id="AnimatedFilm" rx="2.5" ry="2.5" style="stroke:#181818;stroke-width:0.5;" width="117" x="14" y="134"/><ellipse cx="29" cy="150" fill="#ADD1B2" rx="11" ry="11" style="stroke:#181818;stroke-width:1.0;"/><path d="M28.3438,155.8594 Q26.3594,155.8594 25.1875,154.3906 Q24.0313,152.9063 24.0313,149.8281 Q24.0313,147.2188 25.25,145.4688 Q26.4844,143.7188 28.6094,143.7188 Q29.1094,143.7188 29.6406,143.8594 Q30.0781,144.0469 30.3438,144.0469 Q30.5625,144.0469 30.6563,144 Q30.7656,143.9531 31.2188,143.3594 L31.9844,147.0938 L31.0938,147.3594 Q30.6406,145.9063 30.0313,145.3125 Q29.4375,144.7031 28.4844,144.7031 Q27.2656,144.7031 26.5469,146.1406 Q25.8281,147.5625 25.8281,149.75 Q25.8281,152.1563 26.4375,153.4531 Q27.0625,154.7344 28.4219,154.7344 Q29.375,154.7344 30.0625,154.0469 Q30.75,153.3438 31.0781,151.8438 L31.9844,152.25 Q31.5781,153.9531 30.6094,154.9063 Q29.6563,155.8594 28.3438,155.8594 Z " fill="#000000"/><text fill="#000000" font-family="sans-serif" font-size="14" lengthAdjust="spacing" textLength="85" x="43" y="156.4839">AnimatedFilm</text><line style="stroke:#181818;stroke-width:0.5;" x1="15" x2="130" y1="166" y2="166"/><line style="stroke:#181818;stroke-width:0.5;" x1="15" x2="130" y1="174" y2="174"/></g><!--class SleepingBeauty--><g id="elem_SleepingBeauty"><rect fill="#F1F1F1" height="48" id="SleepingBeauty" rx="2.5" ry="2.5" style="stroke:#181818;stroke-width:0.5;" width="131" x="7" y="261"/><ellipse cx="22" cy="277" fill="#ADD1B2" rx="11" ry="11" style="stroke:#181818;stroke-width:1.0;"/><path d="M21.3438,282.8594 Q19.3594,282.8594 18.1875,281.3906 Q17.0313,279.9063 17.0313,276.8281 Q17.0313,274.2188 18.25,272.4688 Q19.4844,270.7188 21.6094,270.7188 Q22.1094,270.7188 22.6406,270.8594 Q23.0781,271.0469 23.3438,271.0469 Q23.5625,271.0469 23.6563,271 Q23.7656,270.9531 24.2188,270.3594 L24.9844,274.0938 L24.0938,274.3594 Q23.6406,272.9063 23.0313,272.3125 Q22.4375,271.7031 21.4844,271.7031 Q20.2656,271.7031 19.5469,273.1406 Q18.8281,274.5625 18.8281,276.75 Q18.8281,279.1563 19.4375,280.4531 Q20.0625,281.7344 21.4219,281.7344 Q22.375,281.7344 23.0625,281.0469 Q23.75,280.3438 24.0781,278.8438 L24.9844,279.25 Q24.5781,280.9531 23.6094,281.9063 Q22.6563,282.8594 21.3438,282.8594 Z " fill="#000000"/><text fill="#000000" font-family="sans-serif" font-size="14" lengthAdjust="spacing" textLength="99" x="36" y="283.4839">SleepingBeauty</text><line style="stroke:#181818;stroke-width:0.5;" x1="8" x2="137" y1="293" y2="293"/><line style="stroke:#181818;stroke-width:0.5;" x1="8" x2="137" y1="301" y2="301"/></g><!--reverse link Film to AnimatedFilm--><g id="link_Film_AnimatedFilm"><path codeLine="1" d="M72.5,73.22 C72.5,95.67 72.5,111.5 72.5,133.91 " fill="none" id="Film-backto-AnimatedFilm" style="stroke:#181818;stroke-width:1.0;"/><polygon fill="none" points="72.5,55.22,66.5,73.22,78.5,73.22,72.5,55.22" style="stroke:#181818;stroke-width:1.0;"/><text fill="#000000" font-family="sans-serif" font-size="13" lengthAdjust="spacing" textLength="42" x="73.5" y="100.8979">inherits</text></g><!--reverse link AnimatedFilm to SleepingBeauty--><g id="link_AnimatedFilm_SleepingBeauty"><path codeLine="2" d="M72.5,200.22 C72.5,222.67 72.5,238.5 72.5,260.91 " fill="none" id="AnimatedFilm-backto-SleepingBeauty" style="stroke:#181818;stroke-width:1.0;"/><polygon fill="none" points="72.5,182.22,66.5,200.22,78.5,200.22,72.5,182.22" style="stroke:#181818;stroke-width:1.0;"/><text fill="#000000" font-family="sans-serif" font-size="13" lengthAdjust="spacing" textLength="42" x="73.5" y="227.8979">inherits</text></g><!--SRC=[SylCoLMmgT7LLN3CoynDB4bDSGE9M2bavcMa5cMM57EXY8DL1kUafXPavgKxfIQMbbGYgGK0]--></g></svg>