<?xml version="1.0" encoding="us-ascii" standalone="no"?><svg xmlns="http://www.w3.org/2000/svg" xmlns:xlink="http://www.w3.org/1999/xlink" contentStyleType="text/css" height="316px" preserveAspectRatio="none" style="width:122px;height:316px;background:#FFFFFF;" version="1.1" viewBox="0 0 122 316" width="122px" zoomAndPan="magnify"><defs/><g><!--class MusicWork--><g id="elem_MusicWork"><rect fill="#F1F1F1" height="48" id="MusicWork" rx="2.5" ry="2.5" style="stroke:#181818;stroke-width:0.5;" width="101" x="10.5" y="7"/><ellipse cx="25.5" cy="23" fill="#ADD1B2" rx="11" ry="11" style="stroke:#181818;stroke-width:1.0;"/><path d="M24.8438,28.8594 Q22.8594,28.8594 21.6875,27.3906 Q20.5313,25.9063 20.5313,22.8281 Q20.5313,20.2188 21.75,18.4688 Q22.9844,16.7188 25.1094,16.7188 Q25.6094,16.7188 26.1406,16.8594 Q26.5781,17.0469 26.8438,17.0469 Q27.0625,17.0469 27.1563,17 Q27.2656,16.9531 27.7188,16.3594 L28.4844,20.0938 L27.5938,20.3594 Q27.1406,18.9063 26.5313,18.3125 Q25.9375,17.7031 24.9844,17.7031 Q23.7656,17.7031 23.0469,19.1406 Q22.3281,20.5625 22.3281,22.75 Q22.3281,25.1563 22.9375,26.4531 Q23.5625,27.7344 24.9219,27.7344 Q25.875,27.7344 26.5625,27.0469 Q27.25,26.3438 27.5781,24.8438 L28.4844,25.25 Q28.0781,26.9531 27.1094,27.9063 Q26.1563,28.8594 24.8438,28.8594 Z " fill="#000000"/><text fill="#000000" font-family="sans-serif" font-size="14" lengthAdjust="spacing" textLength="69" x="39.5" y="29.4839">MusicWork</text><line style="stroke:#181818;stroke-width:0.5;" x1="11.5" x2="110.5" y1="39" y2="39"/><line style="stroke:#181818;stroke-width:0.5;" x1="11.5" x2="110.5" y1="47" y2="47"/></g><!--class Album--><g id="elem_Album"><rect fill="#F1F1F1" height="48" id="Album" rx="2.5" ry="2.5" style="stroke:#181818;stroke-width:0.5;" width="71" x="25.5" y="134"/><ellipse cx="40.5" cy="150" fill="#ADD1B2" rx="11" ry="11" style="stroke:#181818;stroke-width:1.0;"/><path d="M39.8438,155.8594 Q37.8594,155.8594 36.6875,154.3906 Q35.5313,152.9063 35.5313,149.8281 Q35.5313,147.2188 36.75,145.4688 Q37.9844,143.7188 40.1094,143.7188 Q40.6094,143.7188 41.1406,143.8594 Q41.5781,144.0469 41.8438,144.0469 Q42.0625,144.0469 42.1563,144 Q42.2656,143.9531 42.7188,143.3594 L43.4844,147.0938 L42.5938,147.3594 Q42.1406,145.9063 41.5313,145.3125 Q40.9375,144.7031 39.9844,144.7031 Q38.7656,144.7031 38.0469,146.1406 Q37.3281,147.5625 37.3281,149.75 Q37.3281,152.1563 37.9375,153.4531 Q38.5625,154.7344 39.9219,154.7344 Q40.875,154.7344 41.5625,154.0469 Q42.25,153.3438 42.5781,151.8438 L43.4844,152.25 Q43.0781,153.9531 42.1094,154.9063 Q41.1563,155.8594 39.8438,155.8594 Z " fill="#000000"/><text fill="#000000" font-family="sans-serif" font-size="14" lengthAdjust="spacing" textLength="39" x="54.5" y="156.4839">Album</text><line style="stroke:#181818;stroke-width:0.5;" x1="26.5" x2="95.5" y1="166" y2="166"/><line style="stroke:#181818;stroke-width:0.5;" x1="26.5" x2="95.5" y1="174" y2="174"/></g><!--class BackInBlack--><g id="elem_BackInBlack"><rect fill="#F1F1F1" height="48" id="BackInBlack" rx="2.5" ry="2.5" style="stroke:#181818;stroke-width:0.5;" width="108" x="7" y="261"/><ellipse cx="22" cy="277" fill="#ADD1B2" rx="11" ry="11" style="stroke:#181818;stroke-width:1.0;"/><path d="M21.3438,282.8594 Q19.3594,282.8594 18.1875,281.3906 Q17.0313,279.9063 17.0313,276.8281 Q17.0313,274.2188 18.25,272.4688 Q19.4844,270.7188 21.6094,270.7188 Q22.1094,270.7188 22.6406,270.8594 Q23.0781,271.0469 23.3438,271.0469 Q23.5625,271.0469 23.6563,271 Q23.7656,270.9531 24.2188,270.3594 L24.9844,274.0938 L24.0938,274.3594 Q23.6406,272.9063 23.0313,272.3125 Q22.4375,271.7031 21.4844,271.7031 Q20.2656,271.7031 19.5469,273.1406 Q18.8281,274.5625 18.8281,276.75 Q18.8281,279.1563 19.4375,280.4531 Q20.0625,281.7344 21.4219,281.7344 Q22.375,281.7344 23.0625,281.0469 Q23.75,280.3438 24.0781,278.8438 L24.9844,279.25 Q24.5781,280.9531 23.6094,281.9063 Q22.6563,282.8594 21.3438,282.8594 Z " fill="#000000"/><text fill="#000000" font-family="sans-serif" font-size="14" lengthAdjust="spacing" textLength="76" x="36" y="283.4839">BackInBlack</text><line style="stroke:#181818;stroke-width:0.5;" x1="8" x2="114" y1="293" y2="293"/><line style="stroke:#181818;stroke-width:0.5;" x1="8" x2="114" y1="301" y2="301"/></g><!--reverse link MusicWork to Album--><g id="link_MusicWork_Album"><path codeLine="1" d="M61,73.22 C61,95.67 61,111.5 61,133.91 " fill="none" id="MusicWork-backto-Album" style="stroke:#181818;stroke-width:1.0;"/><polygon fill="none" points="61,55.22,55,73.22,67,73.22,61,55.22" style="stroke:#181818;stroke-width:1.0;"/><text fill="#000000" font-family="sans-serif" font-size="13" lengthAdjust="spacing" textLength="42" x="62" y="100.8979">inherits</text></g><!--reverse link Album to BackInBlack--><g id="link_Album_BackInBlack"><path codeLine="2" d="M61,200.22 C61,222.67 61,238.5 61,260.91 " fill="none" id="Album-backto-BackInBlack" style="stroke:#181818;stroke-width:1.0;"/><polygon fill="none" points="61,182.22,55,200.22,67,200.22,61,182.22" style="stroke:#181818;stroke-width:1.0;"/><text fill="#000000" font-family="sans-serif" font-size="13" lengthAdjust="spacing" textLength="42" x="62" y="227.8979">inherits</text></g><!--SRC=[yoqjpamEpo_ALh2fqTLLSCn9AirLi5B8pCj8BSeiAUQ2283bd1AJiptpd7A0598A0000]--></g></svg>