<?xml version="1.0" encoding="us-ascii" standalone="no"?><svg xmlns="http://www.w3.org/2000/svg" xmlns:xlink="http://www.w3.org/1999/xlink" contentStyleType="text/css" height="316px" preserveAspectRatio="none" style="width:224px;height:316px;background:#FFFFFF;" version="1.1" viewBox="0 0 224 316" width="224px" zoomAndPan="magnify"><defs/><g><!--class Game--><g id="elem_Game"><rect fill="#F1F1F1" height="48" id="Game" rx="2.5" ry="2.5" style="stroke:#181818;stroke-width:0.5;" width="70" x="77" y="7"/><ellipse cx="92" cy="23" fill="#ADD1B2" rx="11" ry="11" style="stroke:#181818;stroke-width:1.0;"/><path d="M91.3438,28.8594 Q89.3594,28.8594 88.1875,27.3906 Q87.0313,25.9063 87.0313,22.8281 Q87.0313,20.2188 88.25,18.4688 Q89.4844,16.7188 91.6094,16.7188 Q92.1094,16.7188 92.6406,16.8594 Q93.0781,17.0469 93.3438,17.0469 Q93.5625,17.0469 93.6563,17 Q93.7656,16.9531 94.2188,16.3594 L94.9844,20.0938 L94.0938,20.3594 Q93.6406,18.9063 93.0313,18.3125 Q92.4375,17.7031 91.4844,17.7031 Q90.2656,17.7031 89.5469,19.1406 Q88.8281,20.5625 88.8281,22.75 Q88.8281,25.1563 89.4375,26.4531 Q90.0625,27.7344 91.4219,27.7344 Q92.375,27.7344 93.0625,27.0469 Q93.75,26.3438 94.0781,24.8438 L94.9844,25.25 Q94.5781,26.9531 93.6094,27.9063 Q92.6563,28.8594 91.3438,28.8594 Z " fill="#000000"/><text fill="#000000" font-family="sans-serif" font-size="14" lengthAdjust="spacing" textLength="38" x="106" y="29.4839">Game</text><line style="stroke:#181818;stroke-width:0.5;" x1="78" x2="146" y1="39" y2="39"/><line style="stroke:#181818;stroke-width:0.5;" x1="78" x2="146" y1="47" y2="47"/></g><!--class VideoGame--><g id="elem_VideoGame"><rect fill="#F1F1F1" height="48" id="VideoGame" rx="2.5" ry="2.5" style="stroke:#181818;stroke-width:0.5;" width="106" x="59" y="134"/><ellipse cx="74" cy="150" fill="#ADD1B2" rx="11" ry="11" style="stroke:#181818;stroke-width:1.0;"/><path d="M73.3438,155.8594 Q71.3594,155.8594 70.1875,154.3906 Q69.0313,152.9063 69.0313,149.8281 Q69.0313,147.2188 70.25,145.4688 Q71.4844,143.7188 73.6094,143.7188 Q74.1094,143.7188 74.6406,143.8594 Q75.0781,144.0469 75.3438,144.0469 Q75.5625,144.0469 75.6563,144 Q75.7656,143.9531 76.2188,143.3594 L76.9844,147.0938 L76.0938,147.3594 Q75.6406,145.9063 75.0313,145.3125 Q74.4375,144.7031 73.4844,144.7031 Q72.2656,144.7031 71.5469,146.1406 Q70.8281,147.5625 70.8281,149.75 Q70.8281,152.1563 71.4375,153.4531 Q72.0625,154.7344 73.4219,154.7344 Q74.375,154.7344 75.0625,154.0469 Q75.75,153.3438 76.0781,151.8438 L76.9844,152.25 Q76.5781,153.9531 75.6094,154.9063 Q74.6563,155.8594 73.3438,155.8594 Z " fill="#000000"/><text fill="#000000" font-family="sans-serif" font-size="14" lengthAdjust="spacing" textLength="74" x="88" y="156.4839">VideoGame</text><line style="stroke:#181818;stroke-width:0.5;" x1="60" x2="164" y1="166" y2="166"/><line style="stroke:#181818;stroke-width:0.5;" x1="60" x2="164" y1="174" y2="174"/></g><!--class AnimalCrossingNewHorizons--><g id="elem_AnimalCrossingNewHorizons"><rect fill="#F1F1F1" height="48" id="AnimalCrossingNewHorizons" rx="2.5" ry="2.5" style="stroke:#181818;stroke-width:0.5;" width="210" x="7" y="261"/><ellipse cx="22" cy="277" fill="#ADD1B2" rx="11" ry="11" style="stroke:#181818;stroke-width:1.0;"/><path d="M21.3438,282.8594 Q19.3594,282.8594 18.1875,281.3906 Q17.0313,279.9063 17.0313,276.8281 Q17.0313,274.2188 18.25,272.4688 Q19.4844,270.7188 21.6094,270.7188 Q22.1094,270.7188 22.6406,270.8594 Q23.0781,271.0469 23.3438,271.0469 Q23.5625,271.0469 23.6563,271 Q23.7656,270.9531 24.2188,270.3594 L24.9844,274.0938 L24.0938,274.3594 Q23.6406,272.9063 23.0313,272.3125 Q22.4375,271.7031 21.4844,271.7031 Q20.2656,271.7031 19.5469,273.1406 Q18.8281,274.5625 18.8281,276.75 Q18.8281,279.1563 19.4375,280.4531 Q20.0625,281.7344 21.4219,281.7344 Q22.375,281.7344 23.0625,281.0469 Q23.75,280.3438 24.0781,278.8438 L24.9844,279.25 Q24.5781,280.9531 23.6094,281.9063 Q22.6563,282.8594 21.3438,282.8594 Z " fill="#000000"/><text fill="#000000" font-family="sans-serif" font-size="14" lengthAdjust="spacing" textLength="178" x="36" y="283.4839">AnimalCrossingNewHorizons</text><line style="stroke:#181818;stroke-width:0.5;" x1="8" x2="216" y1="293" y2="293"/><line style="stroke:#181818;stroke-width:0.5;" x1="8" x2="216" y1="301" y2="301"/></g><!--reverse link Game to VideoGame--><g id="link_Game_VideoGame"><path codeLine="1" d="M112,73.22 C112,95.67 112,111.5 112,133.91 " fill="none" id="Game-backto-VideoGame" style="stroke:#181818;stroke-width:1.0;"/><polygon fill="none" points="112,55.22,106,73.22,118,73.22,112,55.22" style="stroke:#181818;stroke-width:1.0;"/><text fill="#000000" font-family="sans-serif" font-size="13" lengthAdjust="spacing" textLength="42" x="113" y="100.8979">inherits</text></g><!--reverse link VideoGame to AnimalCrossingNewHorizons--><g id="link_VideoGame_AnimalCrossingNewHorizons"><path codeLine="2" d="M112,200.22 C112,222.67 112,238.5 112,260.91 " fill="none" id="VideoGame-backto-AnimalCrossingNewHorizons" style="stroke:#181818;stroke-width:1.0;"/><polygon fill="none" points="112,182.22,106,200.22,118,200.22,112,182.22" style="stroke:#181818;stroke-width:1.0;"/><text fill="#000000" font-family="sans-serif" font-size="13" lengthAdjust="spacing" textLength="42" x="113" y="227.8979">inherits</text></g><!--SRC=[Sq_CJLMmgT7LLGZBJ4dDTmTnhHGoyp9IYp9BYhaGWc0rZdcPkOavpaNvnSMPUUb-gUKU-KMPLVbvnKXw0000]--></g></svg>