<?xml version="1.0" encoding="us-ascii" standalone="no"?><svg xmlns="http://www.w3.org/2000/svg" xmlns:xlink="http://www.w3.org/1999/xlink" contentStyleType="text/css" height="316px" preserveAspectRatio="none" style="width:213px;height:316px;background:#FFFFFF;" version="1.1" viewBox="0 0 213 316" width="213px" zoomAndPan="magnify"><defs/><g><!--class Game--><g id="elem_Game"><rect fill="#F1F1F1" height="48" id="Game" rx="2.5" ry="2.5" style="stroke:#181818;stroke-width:0.5;" width="70" x="71.5" y="7"/><ellipse cx="86.5" cy="23" fill="#ADD1B2" rx="11" ry="11" style="stroke:#181818;stroke-width:1.0;"/><path d="M85.8438,28.8594 Q83.8594,28.8594 82.6875,27.3906 Q81.5313,25.9063 81.5313,22.8281 Q81.5313,20.2188 82.75,18.4688 Q83.9844,16.7188 86.1094,16.7188 Q86.6094,16.7188 87.1406,16.8594 Q87.5781,17.0469 87.8438,17.0469 Q88.0625,17.0469 88.1563,17 Q88.2656,16.9531 88.7188,16.3594 L89.4844,20.0938 L88.5938,20.3594 Q88.1406,18.9063 87.5313,18.3125 Q86.9375,17.7031 85.9844,17.7031 Q84.7656,17.7031 84.0469,19.1406 Q83.3281,20.5625 83.3281,22.75 Q83.3281,25.1563 83.9375,26.4531 Q84.5625,27.7344 85.9219,27.7344 Q86.875,27.7344 87.5625,27.0469 Q88.25,26.3438 88.5781,24.8438 L89.4844,25.25 Q89.0781,26.9531 88.1094,27.9063 Q87.1563,28.8594 85.8438,28.8594 Z " fill="#000000"/><text fill="#000000" font-family="sans-serif" font-size="14" lengthAdjust="spacing" textLength="38" x="100.5" y="29.4839">Game</text><line style="stroke:#181818;stroke-width:0.5;" x1="72.5" x2="140.5" y1="39" y2="39"/><line style="stroke:#181818;stroke-width:0.5;" x1="72.5" x2="140.5" y1="47" y2="47"/></g><!--class VideoGame--><g id="elem_VideoGame"><rect fill="#F1F1F1" height="48" id="VideoGame" rx="2.5" ry="2.5" style="stroke:#181818;stroke-width:0.5;" width="106" x="53.5" y="134"/><ellipse cx="68.5" cy="150" fill="#ADD1B2" rx="11" ry="11" style="stroke:#181818;stroke-width:1.0;"/><path d="M67.8438,155.8594 Q65.8594,155.8594 64.6875,154.3906 Q63.5313,152.9063 63.5313,149.8281 Q63.5313,147.2188 64.75,145.4688 Q65.9844,143.7188 68.1094,143.7188 Q68.6094,143.7188 69.1406,143.8594 Q69.5781,144.0469 69.8438,144.0469 Q70.0625,144.0469 70.1563,144 Q70.2656,143.9531 70.7188,143.3594 L71.4844,147.0938 L70.5938,147.3594 Q70.1406,145.9063 69.5313,145.3125 Q68.9375,144.7031 67.9844,144.7031 Q66.7656,144.7031 66.0469,146.1406 Q65.3281,147.5625 65.3281,149.75 Q65.3281,152.1563 65.9375,153.4531 Q66.5625,154.7344 67.9219,154.7344 Q68.875,154.7344 69.5625,154.0469 Q70.25,153.3438 70.5781,151.8438 L71.4844,152.25 Q71.0781,153.9531 70.1094,154.9063 Q69.1563,155.8594 67.8438,155.8594 Z " fill="#000000"/><text fill="#000000" font-family="sans-serif" font-size="14" lengthAdjust="spacing" textLength="74" x="82.5" y="156.4839">VideoGame</text><line style="stroke:#181818;stroke-width:0.5;" x1="54.5" x2="158.5" y1="166" y2="166"/><line style="stroke:#181818;stroke-width:0.5;" x1="54.5" x2="158.5" y1="174" y2="174"/></g><!--class CallOfDutyModernWarfare--><g id="elem_CallOfDutyModernWarfare"><rect fill="#F1F1F1" height="48" id="CallOfDutyModernWarfare" rx="2.5" ry="2.5" style="stroke:#181818;stroke-width:0.5;" width="199" x="7" y="261"/><ellipse cx="22" cy="277" fill="#ADD1B2" rx="11" ry="11" style="stroke:#181818;stroke-width:1.0;"/><path d="M21.3438,282.8594 Q19.3594,282.8594 18.1875,281.3906 Q17.0313,279.9063 17.0313,276.8281 Q17.0313,274.2188 18.25,272.4688 Q19.4844,270.7188 21.6094,270.7188 Q22.1094,270.7188 22.6406,270.8594 Q23.0781,271.0469 23.3438,271.0469 Q23.5625,271.0469 23.6563,271 Q23.7656,270.9531 24.2188,270.3594 L24.9844,274.0938 L24.0938,274.3594 Q23.6406,272.9063 23.0313,272.3125 Q22.4375,271.7031 21.4844,271.7031 Q20.2656,271.7031 19.5469,273.1406 Q18.8281,274.5625 18.8281,276.75 Q18.8281,279.1563 19.4375,280.4531 Q20.0625,281.7344 21.4219,281.7344 Q22.375,281.7344 23.0625,281.0469 Q23.75,280.3438 24.0781,278.8438 L24.9844,279.25 Q24.5781,280.9531 23.6094,281.9063 Q22.6563,282.8594 21.3438,282.8594 Z " fill="#000000"/><text fill="#000000" font-family="sans-serif" font-size="14" lengthAdjust="spacing" textLength="167" x="36" y="283.4839">CallOfDutyModernWarfare</text><line style="stroke:#181818;stroke-width:0.5;" x1="8" x2="205" y1="293" y2="293"/><line style="stroke:#181818;stroke-width:0.5;" x1="8" x2="205" y1="301" y2="301"/></g><!--reverse link Game to VideoGame--><g id="link_Game_VideoGame"><path codeLine="1" d="M106.5,73.22 C106.5,95.67 106.5,111.5 106.5,133.91 " fill="none" id="Game-backto-VideoGame" style="stroke:#181818;stroke-width:1.0;"/><polygon fill="none" points="106.5,55.22,100.5,73.22,112.5,73.22,106.5,55.22" style="stroke:#181818;stroke-width:1.0;"/><text fill="#000000" font-family="sans-serif" font-size="13" lengthAdjust="spacing" textLength="42" x="107.5" y="100.8979">inherits</text></g><!--reverse link VideoGame to CallOfDutyModernWarfare--><g id="link_VideoGame_CallOfDutyModernWarfare"><path codeLine="2" d="M106.5,200.22 C106.5,222.67 106.5,238.5 106.5,260.91 " fill="none" id="VideoGame-backto-CallOfDutyModernWarfare" style="stroke:#181818;stroke-width:1.0;"/><polygon fill="none" points="106.5,182.22,100.5,200.22,112.5,200.22,106.5,182.22" style="stroke:#181818;stroke-width:1.0;"/><text fill="#000000" font-family="sans-serif" font-size="13" lengthAdjust="spacing" textLength="42" x="107.5" y="227.8979">inherits</text></g><!--SRC=[Sq_CJLMmgT7LLGZBJ4dDTmTnhHGoyp9IYp9BYhaGWc0rpeavEVvfBgKbbRxvAQb5UU69HMc9HSWw0000]--></g></svg>