<?xml version="1.0" encoding="us-ascii" standalone="no"?><svg xmlns="http://www.w3.org/2000/svg" xmlns:xlink="http://www.w3.org/1999/xlink" contentStyleType="text/css" height="316px" preserveAspectRatio="none" style="width:120px;height:316px;background:#FFFFFF;" version="1.1" viewBox="0 0 120 316" width="120px" zoomAndPan="magnify"><defs/><g><!--class Game--><g id="elem_Game"><rect fill="#F1F1F1" height="48" id="Game" rx="2.5" ry="2.5" style="stroke:#181818;stroke-width:0.5;" width="70" x="25" y="7"/><ellipse cx="40" cy="23" fill="#ADD1B2" rx="11" ry="11" style="stroke:#181818;stroke-width:1.0;"/><path d="M39.3438,28.8594 Q37.3594,28.8594 36.1875,27.3906 Q35.0313,25.9063 35.0313,22.8281 Q35.0313,20.2188 36.25,18.4688 Q37.4844,16.7188 39.6094,16.7188 Q40.1094,16.7188 40.6406,16.8594 Q41.0781,17.0469 41.3438,17.0469 Q41.5625,17.0469 41.6563,17 Q41.7656,16.9531 42.2188,16.3594 L42.9844,20.0938 L42.0938,20.3594 Q41.6406,18.9063 41.0313,18.3125 Q40.4375,17.7031 39.4844,17.7031 Q38.2656,17.7031 37.5469,19.1406 Q36.8281,20.5625 36.8281,22.75 Q36.8281,25.1563 37.4375,26.4531 Q38.0625,27.7344 39.4219,27.7344 Q40.375,27.7344 41.0625,27.0469 Q41.75,26.3438 42.0781,24.8438 L42.9844,25.25 Q42.5781,26.9531 41.6094,27.9063 Q40.6563,28.8594 39.3438,28.8594 Z " fill="#000000"/><text fill="#000000" font-family="sans-serif" font-size="14" lengthAdjust="spacing" textLength="38" x="54" y="29.4839">Game</text><line style="stroke:#181818;stroke-width:0.5;" x1="26" x2="94" y1="39" y2="39"/><line style="stroke:#181818;stroke-width:0.5;" x1="26" x2="94" y1="47" y2="47"/></g><!--class VideoGame--><g id="elem_VideoGame"><rect fill="#F1F1F1" height="48" id="VideoGame" rx="2.5" ry="2.5" style="stroke:#181818;stroke-width:0.5;" width="106" x="7" y="134"/><ellipse cx="22" cy="150" fill="#ADD1B2" rx="11" ry="11" style="stroke:#181818;stroke-width:1.0;"/><path d="M21.3438,155.8594 Q19.3594,155.8594 18.1875,154.3906 Q17.0313,152.9063 17.0313,149.8281 Q17.0313,147.2188 18.25,145.4688 Q19.4844,143.7188 21.6094,143.7188 Q22.1094,143.7188 22.6406,143.8594 Q23.0781,144.0469 23.3438,144.0469 Q23.5625,144.0469 23.6563,144 Q23.7656,143.9531 24.2188,143.3594 L24.9844,147.0938 L24.0938,147.3594 Q23.6406,145.9063 23.0313,145.3125 Q22.4375,144.7031 21.4844,144.7031 Q20.2656,144.7031 19.5469,146.1406 Q18.8281,147.5625 18.8281,149.75 Q18.8281,152.1563 19.4375,153.4531 Q20.0625,154.7344 21.4219,154.7344 Q22.375,154.7344 23.0625,154.0469 Q23.75,153.3438 24.0781,151.8438 L24.9844,152.25 Q24.5781,153.9531 23.6094,154.9063 Q22.6563,155.8594 21.3438,155.8594 Z " fill="#000000"/><text fill="#000000" font-family="sans-serif" font-size="14" lengthAdjust="spacing" textLength="74" x="36" y="156.4839">VideoGame</text><line style="stroke:#181818;stroke-width:0.5;" x1="8" x2="112" y1="166" y2="166"/><line style="stroke:#181818;stroke-width:0.5;" x1="8" x2="112" y1="174" y2="174"/></g><!--class DiabloIII--><g id="elem_DiabloIII"><rect fill="#F1F1F1" height="48" id="DiabloIII" rx="2.5" ry="2.5" style="stroke:#181818;stroke-width:0.5;" width="81" x="19.5" y="261"/><ellipse cx="34.5" cy="277" fill="#ADD1B2" rx="11" ry="11" style="stroke:#181818;stroke-width:1.0;"/><path d="M33.8438,282.8594 Q31.8594,282.8594 30.6875,281.3906 Q29.5313,279.9063 29.5313,276.8281 Q29.5313,274.2188 30.75,272.4688 Q31.9844,270.7188 34.1094,270.7188 Q34.6094,270.7188 35.1406,270.8594 Q35.5781,271.0469 35.8438,271.0469 Q36.0625,271.0469 36.1563,271 Q36.2656,270.9531 36.7188,270.3594 L37.4844,274.0938 L36.5938,274.3594 Q36.1406,272.9063 35.5313,272.3125 Q34.9375,271.7031 33.9844,271.7031 Q32.7656,271.7031 32.0469,273.1406 Q31.3281,274.5625 31.3281,276.75 Q31.3281,279.1563 31.9375,280.4531 Q32.5625,281.7344 33.9219,281.7344 Q34.875,281.7344 35.5625,281.0469 Q36.25,280.3438 36.5781,278.8438 L37.4844,279.25 Q37.0781,280.9531 36.1094,281.9063 Q35.1563,282.8594 33.8438,282.8594 Z " fill="#000000"/><text fill="#000000" font-family="sans-serif" font-size="14" lengthAdjust="spacing" textLength="49" x="48.5" y="283.4839">DiabloIII</text><line style="stroke:#181818;stroke-width:0.5;" x1="20.5" x2="99.5" y1="293" y2="293"/><line style="stroke:#181818;stroke-width:0.5;" x1="20.5" x2="99.5" y1="301" y2="301"/></g><!--reverse link Game to VideoGame--><g id="link_Game_VideoGame"><path codeLine="1" d="M60,73.22 C60,95.67 60,111.5 60,133.91 " fill="none" id="Game-backto-VideoGame" style="stroke:#181818;stroke-width:1.0;"/><polygon fill="none" points="60,55.22,54,73.22,66,73.22,60,55.22" style="stroke:#181818;stroke-width:1.0;"/><text fill="#000000" font-family="sans-serif" font-size="13" lengthAdjust="spacing" textLength="42" x="61" y="100.8979">inherits</text></g><!--reverse link VideoGame to DiabloIII--><g id="link_VideoGame_DiabloIII"><path codeLine="2" d="M60,200.22 C60,222.67 60,238.5 60,260.91 " fill="none" id="VideoGame-backto-DiabloIII" style="stroke:#181818;stroke-width:1.0;"/><polygon fill="none" points="60,182.22,54,200.22,66,200.22,60,182.22" style="stroke:#181818;stroke-width:1.0;"/><text fill="#000000" font-family="sans-serif" font-size="13" lengthAdjust="spacing" textLength="42" x="61" y="227.8979">inherits</text></g><!--SRC=[Sq_CJLMmgT7LLGZBJ4dDTmTnhHGoyp9IYp9BYhaGWc0rBfc9IJdvdfwUI6e0]--></g></svg>