<?xml version="1.0" encoding="us-ascii" standalone="no"?><svg xmlns="http://www.w3.org/2000/svg" xmlns:xlink="http://www.w3.org/1999/xlink" contentStyleType="text/css" height="189px" preserveAspectRatio="none" style="width:108px;height:189px;background:#FFFFFF;" version="1.1" viewBox="0 0 108 189" width="108px" zoomAndPan="magnify"><defs/><g><!--class Milkshake--><g id="elem_Milkshake"><rect fill="#F1F1F1" height="48" id="Milkshake" rx="2.5" ry="2.5" style="stroke:#181818;stroke-width:0.5;" width="94" x="7" y="7"/><ellipse cx="22" cy="23" fill="#ADD1B2" rx="11" ry="11" style="stroke:#181818;stroke-width:1.0;"/><path d="M21.3438,28.8594 Q19.3594,28.8594 18.1875,27.3906 Q17.0313,25.9063 17.0313,22.8281 Q17.0313,20.2188 18.25,18.4688 Q19.4844,16.7188 21.6094,16.7188 Q22.1094,16.7188 22.6406,16.8594 Q23.0781,17.0469 23.3438,17.0469 Q23.5625,17.0469 23.6563,17 Q23.7656,16.9531 24.2188,16.3594 L24.9844,20.0938 L24.0938,20.3594 Q23.6406,18.9063 23.0313,18.3125 Q22.4375,17.7031 21.4844,17.7031 Q20.2656,17.7031 19.5469,19.1406 Q18.8281,20.5625 18.8281,22.75 Q18.8281,25.1563 19.4375,26.4531 Q20.0625,27.7344 21.4219,27.7344 Q22.375,27.7344 23.0625,27.0469 Q23.75,26.3438 24.0781,24.8438 L24.9844,25.25 Q24.5781,26.9531 23.6094,27.9063 Q22.6563,28.8594 21.3438,28.8594 Z " fill="#000000"/><text fill="#000000" font-family="sans-serif" font-size="14" lengthAdjust="spacing" textLength="62" x="36" y="29.4839">Milkshake</text><line style="stroke:#181818;stroke-width:0.5;" x1="8" x2="100" y1="39" y2="39"/><line style="stroke:#181818;stroke-width:0.5;" x1="8" x2="100" y1="47" y2="47"/></g><!--class Beverage--><g id="elem_Beverage"><rect fill="#F1F1F1" height="48" id="Beverage" rx="2.5" ry="2.5" style="stroke:#181818;stroke-width:0.5;" width="93" x="7.5" y="134"/><ellipse cx="22.5" cy="150" fill="#ADD1B2" rx="11" ry="11" style="stroke:#181818;stroke-width:1.0;"/><path d="M21.8438,155.8594 Q19.8594,155.8594 18.6875,154.3906 Q17.5313,152.9063 17.5313,149.8281 Q17.5313,147.2188 18.75,145.4688 Q19.9844,143.7188 22.1094,143.7188 Q22.6094,143.7188 23.1406,143.8594 Q23.5781,144.0469 23.8438,144.0469 Q24.0625,144.0469 24.1563,144 Q24.2656,143.9531 24.7188,143.3594 L25.4844,147.0938 L24.5938,147.3594 Q24.1406,145.9063 23.5313,145.3125 Q22.9375,144.7031 21.9844,144.7031 Q20.7656,144.7031 20.0469,146.1406 Q19.3281,147.5625 19.3281,149.75 Q19.3281,152.1563 19.9375,153.4531 Q20.5625,154.7344 21.9219,154.7344 Q22.875,154.7344 23.5625,154.0469 Q24.25,153.3438 24.5781,151.8438 L25.4844,152.25 Q25.0781,153.9531 24.1094,154.9063 Q23.1563,155.8594 21.8438,155.8594 Z " fill="#000000"/><text fill="#000000" font-family="sans-serif" font-size="14" lengthAdjust="spacing" textLength="61" x="36.5" y="156.4839">Beverage</text><line style="stroke:#181818;stroke-width:0.5;" x1="8.5" x2="99.5" y1="166" y2="166"/><line style="stroke:#181818;stroke-width:0.5;" x1="8.5" x2="99.5" y1="174" y2="174"/></g><!--reverse link Milkshake to Beverage--><g id="link_Milkshake_Beverage"><path codeLine="1" d="M54,73.22 C54,95.67 54,111.5 54,133.91 " fill="none" id="Milkshake-backto-Beverage" style="stroke:#181818;stroke-width:1.0;"/><polygon fill="none" points="54,55.22,48,73.22,60,73.22,54,55.22" style="stroke:#181818;stroke-width:1.0;"/><text fill="#000000" font-family="sans-serif" font-size="13" lengthAdjust="spacing" textLength="42" x="55" y="100.8979">inherits</text></g><!--SRC=[yytCoIxEICnELR2fqTLLS4ejIorAJ4zLi5B8pCj8BSeiAGO0]--></g></svg>