<?xml version="1.0" encoding="us-ascii" standalone="no"?><svg xmlns="http://www.w3.org/2000/svg" xmlns:xlink="http://www.w3.org/1999/xlink" contentStyleType="text/css" height="189px" preserveAspectRatio="none" style="width:112px;height:189px;background:#FFFFFF;" version="1.1" viewBox="0 0 112 189" width="112px" zoomAndPan="magnify"><defs/><g><!--class Mushroom--><g id="elem_Mushroom"><rect fill="#F1F1F1" height="48" id="Mushroom" rx="2.5" ry="2.5" style="stroke:#181818;stroke-width:0.5;" width="98" x="7" y="7"/><ellipse cx="22" cy="23" fill="#ADD1B2" rx="11" ry="11" style="stroke:#181818;stroke-width:1.0;"/><path d="M21.3438,28.8594 Q19.3594,28.8594 18.1875,27.3906 Q17.0313,25.9063 17.0313,22.8281 Q17.0313,20.2188 18.25,18.4688 Q19.4844,16.7188 21.6094,16.7188 Q22.1094,16.7188 22.6406,16.8594 Q23.0781,17.0469 23.3438,17.0469 Q23.5625,17.0469 23.6563,17 Q23.7656,16.9531 24.2188,16.3594 L24.9844,20.0938 L24.0938,20.3594 Q23.6406,18.9063 23.0313,18.3125 Q22.4375,17.7031 21.4844,17.7031 Q20.2656,17.7031 19.5469,19.1406 Q18.8281,20.5625 18.8281,22.75 Q18.8281,25.1563 19.4375,26.4531 Q20.0625,27.7344 21.4219,27.7344 Q22.375,27.7344 23.0625,27.0469 Q23.75,26.3438 24.0781,24.8438 L24.9844,25.25 Q24.5781,26.9531 23.6094,27.9063 Q22.6563,28.8594 21.3438,28.8594 Z " fill="#000000"/><text fill="#000000" font-family="sans-serif" font-size="14" lengthAdjust="spacing" textLength="66" x="36" y="29.4839">Mushroom</text><line style="stroke:#181818;stroke-width:0.5;" x1="8" x2="104" y1="39" y2="39"/><line style="stroke:#181818;stroke-width:0.5;" x1="8" x2="104" y1="47" y2="47"/></g><!--class Vegetable--><g id="elem_Vegetable"><rect fill="#F1F1F1" height="48" id="Vegetable" rx="2.5" ry="2.5" style="stroke:#181818;stroke-width:0.5;" width="96" x="8" y="134"/><ellipse cx="23" cy="150" fill="#ADD1B2" rx="11" ry="11" style="stroke:#181818;stroke-width:1.0;"/><path d="M22.3438,155.8594 Q20.3594,155.8594 19.1875,154.3906 Q18.0313,152.9063 18.0313,149.8281 Q18.0313,147.2188 19.25,145.4688 Q20.4844,143.7188 22.6094,143.7188 Q23.1094,143.7188 23.6406,143.8594 Q24.0781,144.0469 24.3438,144.0469 Q24.5625,144.0469 24.6563,144 Q24.7656,143.9531 25.2188,143.3594 L25.9844,147.0938 L25.0938,147.3594 Q24.6406,145.9063 24.0313,145.3125 Q23.4375,144.7031 22.4844,144.7031 Q21.2656,144.7031 20.5469,146.1406 Q19.8281,147.5625 19.8281,149.75 Q19.8281,152.1563 20.4375,153.4531 Q21.0625,154.7344 22.4219,154.7344 Q23.375,154.7344 24.0625,154.0469 Q24.75,153.3438 25.0781,151.8438 L25.9844,152.25 Q25.5781,153.9531 24.6094,154.9063 Q23.6563,155.8594 22.3438,155.8594 Z " fill="#000000"/><text fill="#000000" font-family="sans-serif" font-size="14" lengthAdjust="spacing" textLength="64" x="37" y="156.4839">Vegetable</text><line style="stroke:#181818;stroke-width:0.5;" x1="9" x2="103" y1="166" y2="166"/><line style="stroke:#181818;stroke-width:0.5;" x1="9" x2="103" y1="174" y2="174"/></g><!--reverse link Mushroom to Vegetable--><g id="link_Mushroom_Vegetable"><path codeLine="1" d="M56,73.22 C56,95.67 56,111.5 56,133.91 " fill="none" id="Mushroom-backto-Vegetable" style="stroke:#181818;stroke-width:1.0;"/><polygon fill="none" points="56,55.22,50,73.22,62,73.22,56,55.22" style="stroke:#181818;stroke-width:1.0;"/><text fill="#000000" font-family="sans-serif" font-size="13" lengthAdjust="spacing" textLength="42" x="57" y="100.8979">inherits</text></g><!--SRC=[yoqjpYZApyzLiAdHrLK8IqrFBKbCoabLi5B8pCj8BSeiAGO0]--></g></svg>