<?xml version="1.0" encoding="us-ascii" standalone="no"?><svg xmlns="http://www.w3.org/2000/svg" xmlns:xlink="http://www.w3.org/1999/xlink" contentStyleType="text/css" height="316px" preserveAspectRatio="none" style="width:153px;height:316px;background:#FFFFFF;" version="1.1" viewBox="0 0 153 316" width="153px" zoomAndPan="magnify"><defs/><g><!--class ColonyOfTermite--><g id="elem_ColonyOfTermite"><rect fill="#F1F1F1" height="48" id="ColonyOfTermite" rx="2.5" ry="2.5" style="stroke:#181818;stroke-width:0.5;" width="139" x="7" y="134"/><ellipse cx="22" cy="150" fill="#ADD1B2" rx="11" ry="11" style="stroke:#181818;stroke-width:1.0;"/><path d="M21.3438,155.8594 Q19.3594,155.8594 18.1875,154.3906 Q17.0313,152.9063 17.0313,149.8281 Q17.0313,147.2188 18.25,145.4688 Q19.4844,143.7188 21.6094,143.7188 Q22.1094,143.7188 22.6406,143.8594 Q23.0781,144.0469 23.3438,144.0469 Q23.5625,144.0469 23.6563,144 Q23.7656,143.9531 24.2188,143.3594 L24.9844,147.0938 L24.0938,147.3594 Q23.6406,145.9063 23.0313,145.3125 Q22.4375,144.7031 21.4844,144.7031 Q20.2656,144.7031 19.5469,146.1406 Q18.8281,147.5625 18.8281,149.75 Q18.8281,152.1563 19.4375,153.4531 Q20.0625,154.7344 21.4219,154.7344 Q22.375,154.7344 23.0625,154.0469 Q23.75,153.3438 24.0781,151.8438 L24.9844,152.25 Q24.5781,153.9531 23.6094,154.9063 Q22.6563,155.8594 21.3438,155.8594 Z " fill="#000000"/><text fill="#000000" font-family="sans-serif" font-size="14" lengthAdjust="spacing" textLength="107" x="36" y="156.4839">ColonyOfTermite</text><line style="stroke:#181818;stroke-width:0.5;" x1="8" x2="145" y1="166" y2="166"/><line style="stroke:#181818;stroke-width:0.5;" x1="8" x2="145" y1="174" y2="174"/></g><!--class Termite--><g id="elem_Termite"><rect fill="#F1F1F1" height="48" id="Termite" rx="2.5" ry="2.5" style="stroke:#181818;stroke-width:0.5;" width="80" x="36.5" y="261"/><ellipse cx="51.5" cy="277" fill="#ADD1B2" rx="11" ry="11" style="stroke:#181818;stroke-width:1.0;"/><path d="M50.8438,282.8594 Q48.8594,282.8594 47.6875,281.3906 Q46.5313,279.9063 46.5313,276.8281 Q46.5313,274.2188 47.75,272.4688 Q48.9844,270.7188 51.1094,270.7188 Q51.6094,270.7188 52.1406,270.8594 Q52.5781,271.0469 52.8438,271.0469 Q53.0625,271.0469 53.1563,271 Q53.2656,270.9531 53.7188,270.3594 L54.4844,274.0938 L53.5938,274.3594 Q53.1406,272.9063 52.5313,272.3125 Q51.9375,271.7031 50.9844,271.7031 Q49.7656,271.7031 49.0469,273.1406 Q48.3281,274.5625 48.3281,276.75 Q48.3281,279.1563 48.9375,280.4531 Q49.5625,281.7344 50.9219,281.7344 Q51.875,281.7344 52.5625,281.0469 Q53.25,280.3438 53.5781,278.8438 L54.4844,279.25 Q54.0781,280.9531 53.1094,281.9063 Q52.1563,282.8594 50.8438,282.8594 Z " fill="#000000"/><text fill="#000000" font-family="sans-serif" font-size="14" lengthAdjust="spacing" textLength="48" x="65.5" y="283.4839">Termite</text><line style="stroke:#181818;stroke-width:0.5;" x1="37.5" x2="115.5" y1="293" y2="293"/><line style="stroke:#181818;stroke-width:0.5;" x1="37.5" x2="115.5" y1="301" y2="301"/></g><!--class Bay--><g id="elem_Bay"><rect fill="#F1F1F1" height="48" id="Bay" rx="2.5" ry="2.5" style="stroke:#181818;stroke-width:0.5;" width="56" x="48.5" y="7"/><ellipse cx="63.5" cy="23" fill="#ADD1B2" rx="11" ry="11" style="stroke:#181818;stroke-width:1.0;"/><path d="M62.8438,28.8594 Q60.8594,28.8594 59.6875,27.3906 Q58.5313,25.9063 58.5313,22.8281 Q58.5313,20.2188 59.75,18.4688 Q60.9844,16.7188 63.1094,16.7188 Q63.6094,16.7188 64.1406,16.8594 Q64.5781,17.0469 64.8438,17.0469 Q65.0625,17.0469 65.1563,17 Q65.2656,16.9531 65.7188,16.3594 L66.4844,20.0938 L65.5938,20.3594 Q65.1406,18.9063 64.5313,18.3125 Q63.9375,17.7031 62.9844,17.7031 Q61.7656,17.7031 61.0469,19.1406 Q60.3281,20.5625 60.3281,22.75 Q60.3281,25.1563 60.9375,26.4531 Q61.5625,27.7344 62.9219,27.7344 Q63.875,27.7344 64.5625,27.0469 Q65.25,26.3438 65.5781,24.8438 L66.4844,25.25 Q66.0781,26.9531 65.1094,27.9063 Q64.1563,28.8594 62.8438,28.8594 Z " fill="#000000"/><text fill="#000000" font-family="sans-serif" font-size="14" lengthAdjust="spacing" textLength="24" x="77.5" y="29.4839">Bay</text><line style="stroke:#181818;stroke-width:0.5;" x1="49.5" x2="103.5" y1="39" y2="39"/><line style="stroke:#181818;stroke-width:0.5;" x1="49.5" x2="103.5" y1="47" y2="47"/></g><!--reverse link ColonyOfTermite to Termite--><g id="link_ColonyOfTermite_Termite"><path codeLine="1" d="M76.5,194.22 C76.5,216.67 76.5,238.5 76.5,260.91 " fill="none" id="ColonyOfTermite-backto-Termite" style="stroke:#181818;stroke-width:1.0;"/><polygon fill="none" points="76.5,182.22,72.5,188.22,76.5,194.22,80.5,188.22,76.5,182.22" style="stroke:#181818;stroke-width:1.0;"/><text fill="#000000" font-family="sans-serif" font-size="13" lengthAdjust="spacing" textLength="64" x="77.5" y="227.8979">aggregates</text></g><!--reverse link Bay to ColonyOfTermite--><g id="link_Bay_ColonyOfTermite"><path codeLine="2" d="M76.5,67.22 C76.5,89.67 76.5,111.5 76.5,133.91 " fill="none" id="Bay-backto-ColonyOfTermite" style="stroke:#181818;stroke-width:1.0;"/><polygon fill="none" points="76.5,55.22,72.5,61.22,76.5,67.22,80.5,61.22,76.5,55.22" style="stroke:#181818;stroke-width:1.0;"/><text fill="#000000" font-family="sans-serif" font-size="13" lengthAdjust="spacing" textLength="64" x="77.5" y="100.8979">aggregates</text></g><!--SRC=[SyxFoS-hz4yBIItApIn9LSZNrLM0iQqK4jFJYrBJ4qjIYxcS4Yl1aive6f0L0G00]--></g></svg>