<?xml version="1.0" encoding="us-ascii" standalone="no"?><svg xmlns="http://www.w3.org/2000/svg" xmlns:xlink="http://www.w3.org/1999/xlink" contentStyleType="text/css" height="316px" preserveAspectRatio="none" style="width:155px;height:316px;background:#FFFFFF;" version="1.1" viewBox="0 0 155 316" width="155px" zoomAndPan="magnify"><defs/><g><!--class FlockOfPheasant--><g id="elem_FlockOfPheasant"><rect fill="#F1F1F1" height="48" id="FlockOfPheasant" rx="2.5" ry="2.5" style="stroke:#181818;stroke-width:0.5;" width="141" x="7" y="134"/><ellipse cx="22" cy="150" fill="#ADD1B2" rx="11" ry="11" style="stroke:#181818;stroke-width:1.0;"/><path d="M21.3438,155.8594 Q19.3594,155.8594 18.1875,154.3906 Q17.0313,152.9063 17.0313,149.8281 Q17.0313,147.2188 18.25,145.4688 Q19.4844,143.7188 21.6094,143.7188 Q22.1094,143.7188 22.6406,143.8594 Q23.0781,144.0469 23.3438,144.0469 Q23.5625,144.0469 23.6563,144 Q23.7656,143.9531 24.2188,143.3594 L24.9844,147.0938 L24.0938,147.3594 Q23.6406,145.9063 23.0313,145.3125 Q22.4375,144.7031 21.4844,144.7031 Q20.2656,144.7031 19.5469,146.1406 Q18.8281,147.5625 18.8281,149.75 Q18.8281,152.1563 19.4375,153.4531 Q20.0625,154.7344 21.4219,154.7344 Q22.375,154.7344 23.0625,154.0469 Q23.75,153.3438 24.0781,151.8438 L24.9844,152.25 Q24.5781,153.9531 23.6094,154.9063 Q22.6563,155.8594 21.3438,155.8594 Z " fill="#000000"/><text fill="#000000" font-family="sans-serif" font-size="14" lengthAdjust="spacing" textLength="109" x="36" y="156.4839">FlockOfPheasant</text><line style="stroke:#181818;stroke-width:0.5;" x1="8" x2="147" y1="166" y2="166"/><line style="stroke:#181818;stroke-width:0.5;" x1="8" x2="147" y1="174" y2="174"/></g><!--class Pheasant--><g id="elem_Pheasant"><rect fill="#F1F1F1" height="48" id="Pheasant" rx="2.5" ry="2.5" style="stroke:#181818;stroke-width:0.5;" width="92" x="31.5" y="261"/><ellipse cx="46.5" cy="277" fill="#ADD1B2" rx="11" ry="11" style="stroke:#181818;stroke-width:1.0;"/><path d="M45.8438,282.8594 Q43.8594,282.8594 42.6875,281.3906 Q41.5313,279.9063 41.5313,276.8281 Q41.5313,274.2188 42.75,272.4688 Q43.9844,270.7188 46.1094,270.7188 Q46.6094,270.7188 47.1406,270.8594 Q47.5781,271.0469 47.8438,271.0469 Q48.0625,271.0469 48.1563,271 Q48.2656,270.9531 48.7188,270.3594 L49.4844,274.0938 L48.5938,274.3594 Q48.1406,272.9063 47.5313,272.3125 Q46.9375,271.7031 45.9844,271.7031 Q44.7656,271.7031 44.0469,273.1406 Q43.3281,274.5625 43.3281,276.75 Q43.3281,279.1563 43.9375,280.4531 Q44.5625,281.7344 45.9219,281.7344 Q46.875,281.7344 47.5625,281.0469 Q48.25,280.3438 48.5781,278.8438 L49.4844,279.25 Q49.0781,280.9531 48.1094,281.9063 Q47.1563,282.8594 45.8438,282.8594 Z " fill="#000000"/><text fill="#000000" font-family="sans-serif" font-size="14" lengthAdjust="spacing" textLength="60" x="60.5" y="283.4839">Pheasant</text><line style="stroke:#181818;stroke-width:0.5;" x1="32.5" x2="122.5" y1="293" y2="293"/><line style="stroke:#181818;stroke-width:0.5;" x1="32.5" x2="122.5" y1="301" y2="301"/></g><!--class Pond--><g id="elem_Pond"><rect fill="#F1F1F1" height="48" id="Pond" rx="2.5" ry="2.5" style="stroke:#181818;stroke-width:0.5;" width="65" x="45" y="7"/><ellipse cx="60" cy="23" fill="#ADD1B2" rx="11" ry="11" style="stroke:#181818;stroke-width:1.0;"/><path d="M59.3438,28.8594 Q57.3594,28.8594 56.1875,27.3906 Q55.0313,25.9063 55.0313,22.8281 Q55.0313,20.2188 56.25,18.4688 Q57.4844,16.7188 59.6094,16.7188 Q60.1094,16.7188 60.6406,16.8594 Q61.0781,17.0469 61.3438,17.0469 Q61.5625,17.0469 61.6563,17 Q61.7656,16.9531 62.2188,16.3594 L62.9844,20.0938 L62.0938,20.3594 Q61.6406,18.9063 61.0313,18.3125 Q60.4375,17.7031 59.4844,17.7031 Q58.2656,17.7031 57.5469,19.1406 Q56.8281,20.5625 56.8281,22.75 Q56.8281,25.1563 57.4375,26.4531 Q58.0625,27.7344 59.4219,27.7344 Q60.375,27.7344 61.0625,27.0469 Q61.75,26.3438 62.0781,24.8438 L62.9844,25.25 Q62.5781,26.9531 61.6094,27.9063 Q60.6563,28.8594 59.3438,28.8594 Z " fill="#000000"/><text fill="#000000" font-family="sans-serif" font-size="14" lengthAdjust="spacing" textLength="33" x="74" y="29.4839">Pond</text><line style="stroke:#181818;stroke-width:0.5;" x1="46" x2="109" y1="39" y2="39"/><line style="stroke:#181818;stroke-width:0.5;" x1="46" x2="109" y1="47" y2="47"/></g><!--reverse link FlockOfPheasant to Pheasant--><g id="link_FlockOfPheasant_Pheasant"><path codeLine="1" d="M77.5,194.22 C77.5,216.67 77.5,238.5 77.5,260.91 " fill="none" id="FlockOfPheasant-backto-Pheasant" style="stroke:#181818;stroke-width:1.0;"/><polygon fill="none" points="77.5,182.22,73.5,188.22,77.5,194.22,81.5,188.22,77.5,182.22" style="stroke:#181818;stroke-width:1.0;"/><text fill="#000000" font-family="sans-serif" font-size="13" lengthAdjust="spacing" textLength="64" x="78.5" y="227.8979">aggregates</text></g><!--reverse link Pond to FlockOfPheasant--><g id="link_Pond_FlockOfPheasant"><path codeLine="2" d="M77.5,67.22 C77.5,89.67 77.5,111.5 77.5,133.91 " fill="none" id="Pond-backto-FlockOfPheasant" style="stroke:#181818;stroke-width:1.0;"/><polygon fill="none" points="77.5,55.22,73.5,61.22,77.5,67.22,81.5,61.22,77.5,55.22" style="stroke:#181818;stroke-width:1.0;"/><text fill="#000000" font-family="sans-serif" font-size="13" lengthAdjust="spacing" textLength="64" x="78.5" y="100.8979">aggregates</text></g><!--SRC=[Syl9JyxsJml8I4qiJimhKSZNrLM0SwmK4jFJYrBJ4qjIYxa2ylDImD9kQ5gGLG40]--></g></svg>