<?xml version="1.0" encoding="us-ascii" standalone="no"?><svg xmlns="http://www.w3.org/2000/svg" xmlns:xlink="http://www.w3.org/1999/xlink" contentStyleType="text/css" height="316px" preserveAspectRatio="none" style="width:149px;height:316px;background:#FFFFFF;" version="1.1" viewBox="0 0 149 316" width="149px" zoomAndPan="magnify"><defs/><g><!--class GroupOfLobster--><g id="elem_GroupOfLobster"><rect fill="#F1F1F1" height="48" id="GroupOfLobster" rx="2.5" ry="2.5" style="stroke:#181818;stroke-width:0.5;" width="135" x="7" y="134"/><ellipse cx="22" cy="150" fill="#ADD1B2" rx="11" ry="11" style="stroke:#181818;stroke-width:1.0;"/><path d="M21.3438,155.8594 Q19.3594,155.8594 18.1875,154.3906 Q17.0313,152.9063 17.0313,149.8281 Q17.0313,147.2188 18.25,145.4688 Q19.4844,143.7188 21.6094,143.7188 Q22.1094,143.7188 22.6406,143.8594 Q23.0781,144.0469 23.3438,144.0469 Q23.5625,144.0469 23.6563,144 Q23.7656,143.9531 24.2188,143.3594 L24.9844,147.0938 L24.0938,147.3594 Q23.6406,145.9063 23.0313,145.3125 Q22.4375,144.7031 21.4844,144.7031 Q20.2656,144.7031 19.5469,146.1406 Q18.8281,147.5625 18.8281,149.75 Q18.8281,152.1563 19.4375,153.4531 Q20.0625,154.7344 21.4219,154.7344 Q22.375,154.7344 23.0625,154.0469 Q23.75,153.3438 24.0781,151.8438 L24.9844,152.25 Q24.5781,153.9531 23.6094,154.9063 Q22.6563,155.8594 21.3438,155.8594 Z " fill="#000000"/><text fill="#000000" font-family="sans-serif" font-size="14" lengthAdjust="spacing" textLength="103" x="36" y="156.4839">GroupOfLobster</text><line style="stroke:#181818;stroke-width:0.5;" x1="8" x2="141" y1="166" y2="166"/><line style="stroke:#181818;stroke-width:0.5;" x1="8" x2="141" y1="174" y2="174"/></g><!--class Lobster--><g id="elem_Lobster"><rect fill="#F1F1F1" height="48" id="Lobster" rx="2.5" ry="2.5" style="stroke:#181818;stroke-width:0.5;" width="80" x="34.5" y="261"/><ellipse cx="49.5" cy="277" fill="#ADD1B2" rx="11" ry="11" style="stroke:#181818;stroke-width:1.0;"/><path d="M48.8438,282.8594 Q46.8594,282.8594 45.6875,281.3906 Q44.5313,279.9063 44.5313,276.8281 Q44.5313,274.2188 45.75,272.4688 Q46.9844,270.7188 49.1094,270.7188 Q49.6094,270.7188 50.1406,270.8594 Q50.5781,271.0469 50.8438,271.0469 Q51.0625,271.0469 51.1563,271 Q51.2656,270.9531 51.7188,270.3594 L52.4844,274.0938 L51.5938,274.3594 Q51.1406,272.9063 50.5313,272.3125 Q49.9375,271.7031 48.9844,271.7031 Q47.7656,271.7031 47.0469,273.1406 Q46.3281,274.5625 46.3281,276.75 Q46.3281,279.1563 46.9375,280.4531 Q47.5625,281.7344 48.9219,281.7344 Q49.875,281.7344 50.5625,281.0469 Q51.25,280.3438 51.5781,278.8438 L52.4844,279.25 Q52.0781,280.9531 51.1094,281.9063 Q50.1563,282.8594 48.8438,282.8594 Z " fill="#000000"/><text fill="#000000" font-family="sans-serif" font-size="14" lengthAdjust="spacing" textLength="48" x="63.5" y="283.4839">Lobster</text><line style="stroke:#181818;stroke-width:0.5;" x1="35.5" x2="113.5" y1="293" y2="293"/><line style="stroke:#181818;stroke-width:0.5;" x1="35.5" x2="113.5" y1="301" y2="301"/></g><!--class Island--><g id="elem_Island"><rect fill="#F1F1F1" height="48" id="Island" rx="2.5" ry="2.5" style="stroke:#181818;stroke-width:0.5;" width="69" x="40" y="7"/><ellipse cx="55" cy="23" fill="#ADD1B2" rx="11" ry="11" style="stroke:#181818;stroke-width:1.0;"/><path d="M54.3438,28.8594 Q52.3594,28.8594 51.1875,27.3906 Q50.0313,25.9063 50.0313,22.8281 Q50.0313,20.2188 51.25,18.4688 Q52.4844,16.7188 54.6094,16.7188 Q55.1094,16.7188 55.6406,16.8594 Q56.0781,17.0469 56.3438,17.0469 Q56.5625,17.0469 56.6563,17 Q56.7656,16.9531 57.2188,16.3594 L57.9844,20.0938 L57.0938,20.3594 Q56.6406,18.9063 56.0313,18.3125 Q55.4375,17.7031 54.4844,17.7031 Q53.2656,17.7031 52.5469,19.1406 Q51.8281,20.5625 51.8281,22.75 Q51.8281,25.1563 52.4375,26.4531 Q53.0625,27.7344 54.4219,27.7344 Q55.375,27.7344 56.0625,27.0469 Q56.75,26.3438 57.0781,24.8438 L57.9844,25.25 Q57.5781,26.9531 56.6094,27.9063 Q55.6563,28.8594 54.3438,28.8594 Z " fill="#000000"/><text fill="#000000" font-family="sans-serif" font-size="14" lengthAdjust="spacing" textLength="37" x="69" y="29.4839">Island</text><line style="stroke:#181818;stroke-width:0.5;" x1="41" x2="108" y1="39" y2="39"/><line style="stroke:#181818;stroke-width:0.5;" x1="41" x2="108" y1="47" y2="47"/></g><!--reverse link GroupOfLobster to Lobster--><g id="link_GroupOfLobster_Lobster"><path codeLine="1" d="M74.5,194.22 C74.5,216.67 74.5,238.5 74.5,260.91 " fill="none" id="GroupOfLobster-backto-Lobster" style="stroke:#181818;stroke-width:1.0;"/><polygon fill="none" points="74.5,182.22,70.5,188.22,74.5,194.22,78.5,188.22,74.5,182.22" style="stroke:#181818;stroke-width:1.0;"/><text fill="#000000" font-family="sans-serif" font-size="13" lengthAdjust="spacing" textLength="64" x="75.5" y="227.8979">aggregates</text></g><!--reverse link Island to GroupOfLobster--><g id="link_Island_GroupOfLobster"><path codeLine="2" d="M74.5,67.22 C74.5,89.67 74.5,111.5 74.5,133.91 " fill="none" id="Island-backto-GroupOfLobster" style="stroke:#181818;stroke-width:1.0;"/><polygon fill="none" points="74.5,55.22,70.5,61.22,74.5,67.22,78.5,61.22,74.5,55.22" style="stroke:#181818;stroke-width:1.0;"/><text fill="#000000" font-family="sans-serif" font-size="13" lengthAdjust="spacing" textLength="64" x="75.5" y="100.8979">aggregates</text></g><!--SRC=[So_ABotmJ_F9JoekIIrIoDVLLO2nhHGIqzEBKjCJIrABkJoBSnBpKi3oxgXQa9K10000]--></g></svg>