<?xml version="1.0" encoding="us-ascii" standalone="no"?><svg xmlns="http://www.w3.org/2000/svg" xmlns:xlink="http://www.w3.org/1999/xlink" contentStyleType="text/css" height="316px" preserveAspectRatio="none" style="width:167px;height:316px;background:#FFFFFF;" version="1.1" viewBox="0 0 167 316" width="167px" zoomAndPan="magnify"><defs/><g><!--class TroopOfOrangutan--><g id="elem_TroopOfOrangutan"><rect fill="#F1F1F1" height="48" id="TroopOfOrangutan" rx="2.5" ry="2.5" style="stroke:#181818;stroke-width:0.5;" width="153" x="7" y="134"/><ellipse cx="22" cy="150" fill="#ADD1B2" rx="11" ry="11" style="stroke:#181818;stroke-width:1.0;"/><path d="M21.3438,155.8594 Q19.3594,155.8594 18.1875,154.3906 Q17.0313,152.9063 17.0313,149.8281 Q17.0313,147.2188 18.25,145.4688 Q19.4844,143.7188 21.6094,143.7188 Q22.1094,143.7188 22.6406,143.8594 Q23.0781,144.0469 23.3438,144.0469 Q23.5625,144.0469 23.6563,144 Q23.7656,143.9531 24.2188,143.3594 L24.9844,147.0938 L24.0938,147.3594 Q23.6406,145.9063 23.0313,145.3125 Q22.4375,144.7031 21.4844,144.7031 Q20.2656,144.7031 19.5469,146.1406 Q18.8281,147.5625 18.8281,149.75 Q18.8281,152.1563 19.4375,153.4531 Q20.0625,154.7344 21.4219,154.7344 Q22.375,154.7344 23.0625,154.0469 Q23.75,153.3438 24.0781,151.8438 L24.9844,152.25 Q24.5781,153.9531 23.6094,154.9063 Q22.6563,155.8594 21.3438,155.8594 Z " fill="#000000"/><text fill="#000000" font-family="sans-serif" font-size="14" lengthAdjust="spacing" textLength="121" x="36" y="156.4839">TroopOfOrangutan</text><line style="stroke:#181818;stroke-width:0.5;" x1="8" x2="159" y1="166" y2="166"/><line style="stroke:#181818;stroke-width:0.5;" x1="8" x2="159" y1="174" y2="174"/></g><!--class Orangutan--><g id="elem_Orangutan"><rect fill="#F1F1F1" height="48" id="Orangutan" rx="2.5" ry="2.5" style="stroke:#181818;stroke-width:0.5;" width="100" x="33.5" y="261"/><ellipse cx="48.5" cy="277" fill="#ADD1B2" rx="11" ry="11" style="stroke:#181818;stroke-width:1.0;"/><path d="M47.8438,282.8594 Q45.8594,282.8594 44.6875,281.3906 Q43.5313,279.9063 43.5313,276.8281 Q43.5313,274.2188 44.75,272.4688 Q45.9844,270.7188 48.1094,270.7188 Q48.6094,270.7188 49.1406,270.8594 Q49.5781,271.0469 49.8438,271.0469 Q50.0625,271.0469 50.1563,271 Q50.2656,270.9531 50.7188,270.3594 L51.4844,274.0938 L50.5938,274.3594 Q50.1406,272.9063 49.5313,272.3125 Q48.9375,271.7031 47.9844,271.7031 Q46.7656,271.7031 46.0469,273.1406 Q45.3281,274.5625 45.3281,276.75 Q45.3281,279.1563 45.9375,280.4531 Q46.5625,281.7344 47.9219,281.7344 Q48.875,281.7344 49.5625,281.0469 Q50.25,280.3438 50.5781,278.8438 L51.4844,279.25 Q51.0781,280.9531 50.1094,281.9063 Q49.1563,282.8594 47.8438,282.8594 Z " fill="#000000"/><text fill="#000000" font-family="sans-serif" font-size="14" lengthAdjust="spacing" textLength="68" x="62.5" y="283.4839">Orangutan</text><line style="stroke:#181818;stroke-width:0.5;" x1="34.5" x2="132.5" y1="293" y2="293"/><line style="stroke:#181818;stroke-width:0.5;" x1="34.5" x2="132.5" y1="301" y2="301"/></g><!--class Orchard--><g id="elem_Orchard"><rect fill="#F1F1F1" height="48" id="Orchard" rx="2.5" ry="2.5" style="stroke:#181818;stroke-width:0.5;" width="84" x="41.5" y="7"/><ellipse cx="56.5" cy="23" fill="#ADD1B2" rx="11" ry="11" style="stroke:#181818;stroke-width:1.0;"/><path d="M55.8438,28.8594 Q53.8594,28.8594 52.6875,27.3906 Q51.5313,25.9063 51.5313,22.8281 Q51.5313,20.2188 52.75,18.4688 Q53.9844,16.7188 56.1094,16.7188 Q56.6094,16.7188 57.1406,16.8594 Q57.5781,17.0469 57.8438,17.0469 Q58.0625,17.0469 58.1563,17 Q58.2656,16.9531 58.7188,16.3594 L59.4844,20.0938 L58.5938,20.3594 Q58.1406,18.9063 57.5313,18.3125 Q56.9375,17.7031 55.9844,17.7031 Q54.7656,17.7031 54.0469,19.1406 Q53.3281,20.5625 53.3281,22.75 Q53.3281,25.1563 53.9375,26.4531 Q54.5625,27.7344 55.9219,27.7344 Q56.875,27.7344 57.5625,27.0469 Q58.25,26.3438 58.5781,24.8438 L59.4844,25.25 Q59.0781,26.9531 58.1094,27.9063 Q57.1563,28.8594 55.8438,28.8594 Z " fill="#000000"/><text fill="#000000" font-family="sans-serif" font-size="14" lengthAdjust="spacing" textLength="52" x="70.5" y="29.4839">Orchard</text><line style="stroke:#181818;stroke-width:0.5;" x1="42.5" x2="124.5" y1="39" y2="39"/><line style="stroke:#181818;stroke-width:0.5;" x1="42.5" x2="124.5" y1="47" y2="47"/></g><!--reverse link TroopOfOrangutan to Orangutan--><g id="link_TroopOfOrangutan_Orangutan"><path codeLine="1" d="M83.5,194.22 C83.5,216.67 83.5,238.5 83.5,260.91 " fill="none" id="TroopOfOrangutan-backto-Orangutan" style="stroke:#181818;stroke-width:1.0;"/><polygon fill="none" points="83.5,182.22,79.5,188.22,83.5,194.22,87.5,188.22,83.5,182.22" style="stroke:#181818;stroke-width:1.0;"/><text fill="#000000" font-family="sans-serif" font-size="13" lengthAdjust="spacing" textLength="64" x="84.5" y="227.8979">aggregates</text></g><!--reverse link Orchard to TroopOfOrangutan--><g id="link_Orchard_TroopOfOrangutan"><path codeLine="2" d="M83.5,67.22 C83.5,89.67 83.5,111.5 83.5,133.91 " fill="none" id="Orchard-backto-TroopOfOrangutan" style="stroke:#181818;stroke-width:1.0;"/><polygon fill="none" points="83.5,55.22,79.5,61.22,83.5,67.22,87.5,61.22,83.5,55.22" style="stroke:#181818;stroke-width:1.0;"/><text fill="#000000" font-family="sans-serif" font-size="13" lengthAdjust="spacing" textLength="64" x="84.5" y="100.8979">aggregates</text></g><!--SRC=[2odApo_mJ_ClIinBBor9p5F8rzLLGF2i51BJqujIqnDBKekv_8kICnABKi1AGj3r8Qi40000]--></g></svg>