<?xml version="1.0" encoding="us-ascii" standalone="no"?><svg xmlns="http://www.w3.org/2000/svg" xmlns:xlink="http://www.w3.org/1999/xlink" contentStyleType="text/css" height="316px" preserveAspectRatio="none" style="width:149px;height:316px;background:#FFFFFF;" version="1.1" viewBox="0 0 149 316" width="149px" zoomAndPan="magnify"><defs/><g><!--class TelephoneLine--><g id="elem_TelephoneLine"><rect fill="#F1F1F1" height="48" id="TelephoneLine" rx="2.5" ry="2.5" style="stroke:#181818;stroke-width:0.5;" width="127" x="9.5" y="134"/><ellipse cx="24.5" cy="150" fill="#ADD1B2" rx="11" ry="11" style="stroke:#181818;stroke-width:1.0;"/><path d="M23.8438,155.8594 Q21.8594,155.8594 20.6875,154.3906 Q19.5313,152.9063 19.5313,149.8281 Q19.5313,147.2188 20.75,145.4688 Q21.9844,143.7188 24.1094,143.7188 Q24.6094,143.7188 25.1406,143.8594 Q25.5781,144.0469 25.8438,144.0469 Q26.0625,144.0469 26.1563,144 Q26.2656,143.9531 26.7188,143.3594 L27.4844,147.0938 L26.5938,147.3594 Q26.1406,145.9063 25.5313,145.3125 Q24.9375,144.7031 23.9844,144.7031 Q22.7656,144.7031 22.0469,146.1406 Q21.3281,147.5625 21.3281,149.75 Q21.3281,152.1563 21.9375,153.4531 Q22.5625,154.7344 23.9219,154.7344 Q24.875,154.7344 25.5625,154.0469 Q26.25,153.3438 26.5781,151.8438 L27.4844,152.25 Q27.0781,153.9531 26.1094,154.9063 Q25.1563,155.8594 23.8438,155.8594 Z " fill="#000000"/><text fill="#000000" font-family="sans-serif" font-size="14" lengthAdjust="spacing" textLength="95" x="38.5" y="156.4839">TelephoneLine</text><line style="stroke:#181818;stroke-width:0.5;" x1="10.5" x2="135.5" y1="166" y2="166"/><line style="stroke:#181818;stroke-width:0.5;" x1="10.5" x2="135.5" y1="174" y2="174"/></g><!--class LandlineModem--><g id="elem_LandlineModem"><rect fill="#F1F1F1" height="48" id="LandlineModem" rx="2.5" ry="2.5" style="stroke:#181818;stroke-width:0.5;" width="132" x="7" y="261"/><ellipse cx="22" cy="277" fill="#ADD1B2" rx="11" ry="11" style="stroke:#181818;stroke-width:1.0;"/><path d="M21.3438,282.8594 Q19.3594,282.8594 18.1875,281.3906 Q17.0313,279.9063 17.0313,276.8281 Q17.0313,274.2188 18.25,272.4688 Q19.4844,270.7188 21.6094,270.7188 Q22.1094,270.7188 22.6406,270.8594 Q23.0781,271.0469 23.3438,271.0469 Q23.5625,271.0469 23.6563,271 Q23.7656,270.9531 24.2188,270.3594 L24.9844,274.0938 L24.0938,274.3594 Q23.6406,272.9063 23.0313,272.3125 Q22.4375,271.7031 21.4844,271.7031 Q20.2656,271.7031 19.5469,273.1406 Q18.8281,274.5625 18.8281,276.75 Q18.8281,279.1563 19.4375,280.4531 Q20.0625,281.7344 21.4219,281.7344 Q22.375,281.7344 23.0625,281.0469 Q23.75,280.3438 24.0781,278.8438 L24.9844,279.25 Q24.5781,280.9531 23.6094,281.9063 Q22.6563,282.8594 21.3438,282.8594 Z " fill="#000000"/><text fill="#000000" font-family="sans-serif" font-size="14" lengthAdjust="spacing" textLength="100" x="36" y="283.4839">LandlineModem</text><line style="stroke:#181818;stroke-width:0.5;" x1="8" x2="138" y1="293" y2="293"/><line style="stroke:#181818;stroke-width:0.5;" x1="8" x2="138" y1="301" y2="301"/></g><!--class WallJack--><g id="elem_WallJack"><rect fill="#F1F1F1" height="48" id="WallJack" rx="2.5" ry="2.5" style="stroke:#181818;stroke-width:0.5;" width="87" x="29.5" y="7"/><ellipse cx="44.5" cy="23" fill="#ADD1B2" rx="11" ry="11" style="stroke:#181818;stroke-width:1.0;"/><path d="M43.8438,28.8594 Q41.8594,28.8594 40.6875,27.3906 Q39.5313,25.9063 39.5313,22.8281 Q39.5313,20.2188 40.75,18.4688 Q41.9844,16.7188 44.1094,16.7188 Q44.6094,16.7188 45.1406,16.8594 Q45.5781,17.0469 45.8438,17.0469 Q46.0625,17.0469 46.1563,17 Q46.2656,16.9531 46.7188,16.3594 L47.4844,20.0938 L46.5938,20.3594 Q46.1406,18.9063 45.5313,18.3125 Q44.9375,17.7031 43.9844,17.7031 Q42.7656,17.7031 42.0469,19.1406 Q41.3281,20.5625 41.3281,22.75 Q41.3281,25.1563 41.9375,26.4531 Q42.5625,27.7344 43.9219,27.7344 Q44.875,27.7344 45.5625,27.0469 Q46.25,26.3438 46.5781,24.8438 L47.4844,25.25 Q47.0781,26.9531 46.1094,27.9063 Q45.1563,28.8594 43.8438,28.8594 Z " fill="#000000"/><text fill="#000000" font-family="sans-serif" font-size="14" lengthAdjust="spacing" textLength="55" x="58.5" y="29.4839">WallJack</text><line style="stroke:#181818;stroke-width:0.5;" x1="30.5" x2="115.5" y1="39" y2="39"/><line style="stroke:#181818;stroke-width:0.5;" x1="30.5" x2="115.5" y1="47" y2="47"/></g><!--link TelephoneLine to LandlineModem--><g id="link_TelephoneLine_LandlineModem"><path codeLine="1" d="M73,182.22 C73,204.67 73,232.5 73,254.91 " fill="none" id="TelephoneLine-to-LandlineModem" style="stroke:#181818;stroke-width:1.0;stroke-dasharray:7.0,7.0;"/><polygon fill="#181818" points="73,260.91,77,251.91,73,255.91,69,251.91,73,260.91" style="stroke:#181818;stroke-width:1.0;"/><text fill="#000000" font-family="sans-serif" font-size="13" lengthAdjust="spacing" textLength="67" x="74" y="227.8979">depends on</text></g><!--link WallJack to TelephoneLine--><g id="link_WallJack_TelephoneLine"><path codeLine="2" d="M73,55.22 C73,77.67 73,105.5 73,127.91 " fill="none" id="WallJack-to-TelephoneLine" style="stroke:#181818;stroke-width:1.0;stroke-dasharray:7.0,7.0;"/><polygon fill="#181818" points="73,133.91,77,124.91,73,128.91,69,124.91,73,133.91" style="stroke:#181818;stroke-width:1.0;"/><text fill="#000000" font-family="sans-serif" font-size="13" lengthAdjust="spacing" textLength="67" x="74" y="100.8979">depends on</text></g><!--SRC=[2qdDIIt8oCzBzSdCIrNGqxDJy4dCIya1SdppKr9p5QmKKb8BKlDIYXNoyxZ24tDol1AJiy7gGb1q8gi30000]--></g></svg>