<?xml version="1.0" encoding="us-ascii" standalone="no"?><svg xmlns="http://www.w3.org/2000/svg" xmlns:xlink="http://www.w3.org/1999/xlink" contentStyleType="text/css" height="316px" preserveAspectRatio="none" style="width:201px;height:316px;background:#FFFFFF;" version="1.1" viewBox="0 0 201 316" width="201px" zoomAndPan="magnify"><defs/><g><!--class Battery--><g id="elem_Battery"><rect fill="#F1F1F1" height="48" id="Battery" rx="2.5" ry="2.5" style="stroke:#181818;stroke-width:0.5;" width="77" x="62" y="134"/><ellipse cx="77" cy="150" fill="#ADD1B2" rx="11" ry="11" style="stroke:#181818;stroke-width:1.0;"/><path d="M76.3438,155.8594 Q74.3594,155.8594 73.1875,154.3906 Q72.0313,152.9063 72.0313,149.8281 Q72.0313,147.2188 73.25,145.4688 Q74.4844,143.7188 76.6094,143.7188 Q77.1094,143.7188 77.6406,143.8594 Q78.0781,144.0469 78.3438,144.0469 Q78.5625,144.0469 78.6563,144 Q78.7656,143.9531 79.2188,143.3594 L79.9844,147.0938 L79.0938,147.3594 Q78.6406,145.9063 78.0313,145.3125 Q77.4375,144.7031 76.4844,144.7031 Q75.2656,144.7031 74.5469,146.1406 Q73.8281,147.5625 73.8281,149.75 Q73.8281,152.1563 74.4375,153.4531 Q75.0625,154.7344 76.4219,154.7344 Q77.375,154.7344 78.0625,154.0469 Q78.75,153.3438 79.0781,151.8438 L79.9844,152.25 Q79.5781,153.9531 78.6094,154.9063 Q77.6563,155.8594 76.3438,155.8594 Z " fill="#000000"/><text fill="#000000" font-family="sans-serif" font-size="14" lengthAdjust="spacing" textLength="45" x="91" y="156.4839">Battery</text><line style="stroke:#181818;stroke-width:0.5;" x1="63" x2="138" y1="166" y2="166"/><line style="stroke:#181818;stroke-width:0.5;" x1="63" x2="138" y1="174" y2="174"/></g><!--class WallClock--><g id="elem_WallClock"><rect fill="#F1F1F1" height="48" id="WallClock" rx="2.5" ry="2.5" style="stroke:#181818;stroke-width:0.5;" width="94" x="53.5" y="261"/><ellipse cx="68.5" cy="277" fill="#ADD1B2" rx="11" ry="11" style="stroke:#181818;stroke-width:1.0;"/><path d="M67.8438,282.8594 Q65.8594,282.8594 64.6875,281.3906 Q63.5313,279.9063 63.5313,276.8281 Q63.5313,274.2188 64.75,272.4688 Q65.9844,270.7188 68.1094,270.7188 Q68.6094,270.7188 69.1406,270.8594 Q69.5781,271.0469 69.8438,271.0469 Q70.0625,271.0469 70.1563,271 Q70.2656,270.9531 70.7188,270.3594 L71.4844,274.0938 L70.5938,274.3594 Q70.1406,272.9063 69.5313,272.3125 Q68.9375,271.7031 67.9844,271.7031 Q66.7656,271.7031 66.0469,273.1406 Q65.3281,274.5625 65.3281,276.75 Q65.3281,279.1563 65.9375,280.4531 Q66.5625,281.7344 67.9219,281.7344 Q68.875,281.7344 69.5625,281.0469 Q70.25,280.3438 70.5781,278.8438 L71.4844,279.25 Q71.0781,280.9531 70.1094,281.9063 Q69.1563,282.8594 67.8438,282.8594 Z " fill="#000000"/><text fill="#000000" font-family="sans-serif" font-size="14" lengthAdjust="spacing" textLength="62" x="82.5" y="283.4839">WallClock</text><line style="stroke:#181818;stroke-width:0.5;" x1="54.5" x2="146.5" y1="293" y2="293"/><line style="stroke:#181818;stroke-width:0.5;" x1="54.5" x2="146.5" y1="301" y2="301"/></g><!--class ElectrochemicalReaction--><g id="elem_ElectrochemicalReaction"><rect fill="#F1F1F1" height="48" id="ElectrochemicalReaction" rx="2.5" ry="2.5" style="stroke:#181818;stroke-width:0.5;" width="187" x="7" y="7"/><ellipse cx="22" cy="23" fill="#ADD1B2" rx="11" ry="11" style="stroke:#181818;stroke-width:1.0;"/><path d="M21.3438,28.8594 Q19.3594,28.8594 18.1875,27.3906 Q17.0313,25.9063 17.0313,22.8281 Q17.0313,20.2188 18.25,18.4688 Q19.4844,16.7188 21.6094,16.7188 Q22.1094,16.7188 22.6406,16.8594 Q23.0781,17.0469 23.3438,17.0469 Q23.5625,17.0469 23.6563,17 Q23.7656,16.9531 24.2188,16.3594 L24.9844,20.0938 L24.0938,20.3594 Q23.6406,18.9063 23.0313,18.3125 Q22.4375,17.7031 21.4844,17.7031 Q20.2656,17.7031 19.5469,19.1406 Q18.8281,20.5625 18.8281,22.75 Q18.8281,25.1563 19.4375,26.4531 Q20.0625,27.7344 21.4219,27.7344 Q22.375,27.7344 23.0625,27.0469 Q23.75,26.3438 24.0781,24.8438 L24.9844,25.25 Q24.5781,26.9531 23.6094,27.9063 Q22.6563,28.8594 21.3438,28.8594 Z " fill="#000000"/><text fill="#000000" font-family="sans-serif" font-size="14" lengthAdjust="spacing" textLength="155" x="36" y="29.4839">ElectrochemicalReaction</text><line style="stroke:#181818;stroke-width:0.5;" x1="8" x2="193" y1="39" y2="39"/><line style="stroke:#181818;stroke-width:0.5;" x1="8" x2="193" y1="47" y2="47"/></g><!--link Battery to WallClock--><g id="link_Battery_WallClock"><path codeLine="1" d="M100.5,182.22 C100.5,204.67 100.5,232.5 100.5,254.91 " fill="none" id="Battery-to-WallClock" style="stroke:#181818;stroke-width:1.0;stroke-dasharray:7.0,7.0;"/><polygon fill="#181818" points="100.5,260.91,104.5,251.91,100.5,255.91,96.5,251.91,100.5,260.91" style="stroke:#181818;stroke-width:1.0;"/><text fill="#000000" font-family="sans-serif" font-size="13" lengthAdjust="spacing" textLength="67" x="101.5" y="227.8979">depends on</text></g><!--link ElectrochemicalReaction to Battery--><g id="link_ElectrochemicalReaction_Battery"><path codeLine="2" d="M100.5,55.22 C100.5,77.67 100.5,105.5 100.5,127.91 " fill="none" id="ElectrochemicalReaction-to-Battery" style="stroke:#181818;stroke-width:1.0;stroke-dasharray:7.0,7.0;"/><polygon fill="#181818" points="100.5,133.91,104.5,124.91,100.5,128.91,96.5,124.91,100.5,133.91" style="stroke:#181818;stroke-width:1.0;"/><text fill="#000000" font-family="sans-serif" font-size="13" lengthAdjust="spacing" textLength="67" x="101.5" y="100.8979">depends on</text></g><!--SRC=[SqeiAKajgbJGqxDJ24_CoN7EoK_ELh1II4ajICrBALR8p-DopKbDBYdAJyv8pSrCJim9IarCBidCpmDhSO9gHzO00000]--></g></svg>