<?xml version="1.0" encoding="us-ascii" standalone="no"?><svg xmlns="http://www.w3.org/2000/svg" xmlns:xlink="http://www.w3.org/1999/xlink" contentStyleType="text/css" height="316px" preserveAspectRatio="none" style="width:161px;height:316px;background:#FFFFFF;" version="1.1" viewBox="0 0 161 316" width="161px" zoomAndPan="magnify"><defs/><g><!--class FuelDeliveryTruck--><g id="elem_FuelDeliveryTruck"><rect fill="#F1F1F1" height="48" id="FuelDeliveryTruck" rx="2.5" ry="2.5" style="stroke:#181818;stroke-width:0.5;" width="147" x="7" y="134"/><ellipse cx="22" cy="150" fill="#ADD1B2" rx="11" ry="11" style="stroke:#181818;stroke-width:1.0;"/><path d="M21.3438,155.8594 Q19.3594,155.8594 18.1875,154.3906 Q17.0313,152.9063 17.0313,149.8281 Q17.0313,147.2188 18.25,145.4688 Q19.4844,143.7188 21.6094,143.7188 Q22.1094,143.7188 22.6406,143.8594 Q23.0781,144.0469 23.3438,144.0469 Q23.5625,144.0469 23.6563,144 Q23.7656,143.9531 24.2188,143.3594 L24.9844,147.0938 L24.0938,147.3594 Q23.6406,145.9063 23.0313,145.3125 Q22.4375,144.7031 21.4844,144.7031 Q20.2656,144.7031 19.5469,146.1406 Q18.8281,147.5625 18.8281,149.75 Q18.8281,152.1563 19.4375,153.4531 Q20.0625,154.7344 21.4219,154.7344 Q22.375,154.7344 23.0625,154.0469 Q23.75,153.3438 24.0781,151.8438 L24.9844,152.25 Q24.5781,153.9531 23.6094,154.9063 Q22.6563,155.8594 21.3438,155.8594 Z " fill="#000000"/><text fill="#000000" font-family="sans-serif" font-size="14" lengthAdjust="spacing" textLength="115" x="36" y="156.4839">FuelDeliveryTruck</text><line style="stroke:#181818;stroke-width:0.5;" x1="8" x2="153" y1="166" y2="166"/><line style="stroke:#181818;stroke-width:0.5;" x1="8" x2="153" y1="174" y2="174"/></g><!--class DepotFuelPump--><g id="elem_DepotFuelPump"><rect fill="#F1F1F1" height="48" id="DepotFuelPump" rx="2.5" ry="2.5" style="stroke:#181818;stroke-width:0.5;" width="134" x="13.5" y="261"/><ellipse cx="28.5" cy="277" fill="#ADD1B2" rx="11" ry="11" style="stroke:#181818;stroke-width:1.0;"/><path d="M27.8438,282.8594 Q25.8594,282.8594 24.6875,281.3906 Q23.5313,279.9063 23.5313,276.8281 Q23.5313,274.2188 24.75,272.4688 Q25.9844,270.7188 28.1094,270.7188 Q28.6094,270.7188 29.1406,270.8594 Q29.5781,271.0469 29.8438,271.0469 Q30.0625,271.0469 30.1563,271 Q30.2656,270.9531 30.7188,270.3594 L31.4844,274.0938 L30.5938,274.3594 Q30.1406,272.9063 29.5313,272.3125 Q28.9375,271.7031 27.9844,271.7031 Q26.7656,271.7031 26.0469,273.1406 Q25.3281,274.5625 25.3281,276.75 Q25.3281,279.1563 25.9375,280.4531 Q26.5625,281.7344 27.9219,281.7344 Q28.875,281.7344 29.5625,281.0469 Q30.25,280.3438 30.5781,278.8438 L31.4844,279.25 Q31.0781,280.9531 30.1094,281.9063 Q29.1563,282.8594 27.8438,282.8594 Z " fill="#000000"/><text fill="#000000" font-family="sans-serif" font-size="14" lengthAdjust="spacing" textLength="102" x="42.5" y="283.4839">DepotFuelPump</text><line style="stroke:#181818;stroke-width:0.5;" x1="14.5" x2="146.5" y1="293" y2="293"/><line style="stroke:#181818;stroke-width:0.5;" x1="14.5" x2="146.5" y1="301" y2="301"/></g><!--class FuelTerminal--><g id="elem_FuelTerminal"><rect fill="#F1F1F1" height="48" id="FuelTerminal" rx="2.5" ry="2.5" style="stroke:#181818;stroke-width:0.5;" width="115" x="23" y="7"/><ellipse cx="38" cy="23" fill="#ADD1B2" rx="11" ry="11" style="stroke:#181818;stroke-width:1.0;"/><path d="M37.3438,28.8594 Q35.3594,28.8594 34.1875,27.3906 Q33.0313,25.9063 33.0313,22.8281 Q33.0313,20.2188 34.25,18.4688 Q35.4844,16.7188 37.6094,16.7188 Q38.1094,16.7188 38.6406,16.8594 Q39.0781,17.0469 39.3438,17.0469 Q39.5625,17.0469 39.6563,17 Q39.7656,16.9531 40.2188,16.3594 L40.9844,20.0938 L40.0938,20.3594 Q39.6406,18.9063 39.0313,18.3125 Q38.4375,17.7031 37.4844,17.7031 Q36.2656,17.7031 35.5469,19.1406 Q34.8281,20.5625 34.8281,22.75 Q34.8281,25.1563 35.4375,26.4531 Q36.0625,27.7344 37.4219,27.7344 Q38.375,27.7344 39.0625,27.0469 Q39.75,26.3438 40.0781,24.8438 L40.9844,25.25 Q40.5781,26.9531 39.6094,27.9063 Q38.6563,28.8594 37.3438,28.8594 Z " fill="#000000"/><text fill="#000000" font-family="sans-serif" font-size="14" lengthAdjust="spacing" textLength="83" x="52" y="29.4839">FuelTerminal</text><line style="stroke:#181818;stroke-width:0.5;" x1="24" x2="137" y1="39" y2="39"/><line style="stroke:#181818;stroke-width:0.5;" x1="24" x2="137" y1="47" y2="47"/></g><!--link FuelDeliveryTruck to DepotFuelPump--><g id="link_FuelDeliveryTruck_DepotFuelPump"><path codeLine="1" d="M80.5,182.22 C80.5,204.67 80.5,232.5 80.5,254.91 " fill="none" id="FuelDeliveryTruck-to-DepotFuelPump" style="stroke:#181818;stroke-width:1.0;stroke-dasharray:7.0,7.0;"/><polygon fill="#181818" points="80.5,260.91,84.5,251.91,80.5,255.91,76.5,251.91,80.5,260.91" style="stroke:#181818;stroke-width:1.0;"/><text fill="#000000" font-family="sans-serif" font-size="13" lengthAdjust="spacing" textLength="67" x="81.5" y="227.8979">depends on</text></g><!--link FuelTerminal to FuelDeliveryTruck--><g id="link_FuelTerminal_FuelDeliveryTruck"><path codeLine="2" d="M80.5,55.22 C80.5,77.67 80.5,105.5 80.5,127.91 " fill="none" id="FuelTerminal-to-FuelDeliveryTruck" style="stroke:#181818;stroke-width:1.0;stroke-dasharray:7.0,7.0;"/><polygon fill="#181818" points="80.5,133.91,84.5,124.91,80.5,128.91,76.5,124.91,80.5,133.91" style="stroke:#181818;stroke-width:1.0;"/><text fill="#000000" font-family="sans-serif" font-size="13" lengthAdjust="spacing" textLength="67" x="81.5" y="100.8979">depends on</text></g><!--SRC=[SojDpN59pSaiIosg32agJSvMqDEpKt19BSWlSGDA1PJc5YXOAQIa5gJcfHGhvETnWKH3KejoC_CISy1gtJ1CG5OF0000]--></g></svg>