<?xml version="1.0" encoding="us-ascii" standalone="no"?><svg xmlns="http://www.w3.org/2000/svg" xmlns:xlink="http://www.w3.org/1999/xlink" contentStyleType="text/css" height="316px" preserveAspectRatio="none" style="width:157px;height:316px;background:#FFFFFF;" version="1.1" viewBox="0 0 157 316" width="157px" zoomAndPan="magnify"><defs/><g><!--class ChargingDepot--><g id="elem_ChargingDepot"><rect fill="#F1F1F1" height="48" id="ChargingDepot" rx="2.5" ry="2.5" style="stroke:#181818;stroke-width:0.5;" width="128" x="14.5" y="134"/><ellipse cx="29.5" cy="150" fill="#ADD1B2" rx="11" ry="11" style="stroke:#181818;stroke-width:1.0;"/><path d="M28.8438,155.8594 Q26.8594,155.8594 25.6875,154.3906 Q24.5313,152.9063 24.5313,149.8281 Q24.5313,147.2188 25.75,145.4688 Q26.9844,143.7188 29.1094,143.7188 Q29.6094,143.7188 30.1406,143.8594 Q30.5781,144.0469 30.8438,144.0469 Q31.0625,144.0469 31.1563,144 Q31.2656,143.9531 31.7188,143.3594 L32.4844,147.0938 L31.5938,147.3594 Q31.1406,145.9063 30.5313,145.3125 Q29.9375,144.7031 28.9844,144.7031 Q27.7656,144.7031 27.0469,146.1406 Q26.3281,147.5625 26.3281,149.75 Q26.3281,152.1563 26.9375,153.4531 Q27.5625,154.7344 28.9219,154.7344 Q29.875,154.7344 30.5625,154.0469 Q31.25,153.3438 31.5781,151.8438 L32.4844,152.25 Q32.0781,153.9531 31.1094,154.9063 Q30.1563,155.8594 28.8438,155.8594 Z " fill="#000000"/><text fill="#000000" font-family="sans-serif" font-size="14" lengthAdjust="spacing" textLength="96" x="43.5" y="156.4839">ChargingDepot</text><line style="stroke:#181818;stroke-width:0.5;" x1="15.5" x2="141.5" y1="166" y2="166"/><line style="stroke:#181818;stroke-width:0.5;" x1="15.5" x2="141.5" y1="174" y2="174"/></g><!--class ElectricBus--><g id="elem_ElectricBus"><rect fill="#F1F1F1" height="48" id="ElectricBus" rx="2.5" ry="2.5" style="stroke:#181818;stroke-width:0.5;" width="102" x="27.5" y="261"/><ellipse cx="42.5" cy="277" fill="#ADD1B2" rx="11" ry="11" style="stroke:#181818;stroke-width:1.0;"/><path d="M41.8438,282.8594 Q39.8594,282.8594 38.6875,281.3906 Q37.5313,279.9063 37.5313,276.8281 Q37.5313,274.2188 38.75,272.4688 Q39.9844,270.7188 42.1094,270.7188 Q42.6094,270.7188 43.1406,270.8594 Q43.5781,271.0469 43.8438,271.0469 Q44.0625,271.0469 44.1563,271 Q44.2656,270.9531 44.7188,270.3594 L45.4844,274.0938 L44.5938,274.3594 Q44.1406,272.9063 43.5313,272.3125 Q42.9375,271.7031 41.9844,271.7031 Q40.7656,271.7031 40.0469,273.1406 Q39.3281,274.5625 39.3281,276.75 Q39.3281,279.1563 39.9375,280.4531 Q40.5625,281.7344 41.9219,281.7344 Q42.875,281.7344 43.5625,281.0469 Q44.25,280.3438 44.5781,278.8438 L45.4844,279.25 Q45.0781,280.9531 44.1094,281.9063 Q43.1563,282.8594 41.8438,282.8594 Z " fill="#000000"/><text fill="#000000" font-family="sans-serif" font-size="14" lengthAdjust="spacing" textLength="70" x="56.5" y="283.4839">ElectricBus</text><line style="stroke:#181818;stroke-width:0.5;" x1="28.5" x2="128.5" y1="293" y2="293"/><line style="stroke:#181818;stroke-width:0.5;" x1="28.5" x2="128.5" y1="301" y2="301"/></g><!--class UtilityTransformer--><g id="elem_UtilityTransformer"><rect fill="#F1F1F1" height="48" id="UtilityTransformer" rx="2.5" ry="2.5" style="stroke:#181818;stroke-width:0.5;" width="143" x="7" y="7"/><ellipse cx="22" cy="23" fill="#ADD1B2" rx="11" ry="11" style="stroke:#181818;stroke-width:1.0;"/><path d="M21.3438,28.8594 Q19.3594,28.8594 18.1875,27.3906 Q17.0313,25.9063 17.0313,22.8281 Q17.0313,20.2188 18.25,18.4688 Q19.4844,16.7188 21.6094,16.7188 Q22.1094,16.7188 22.6406,16.8594 Q23.0781,17.0469 23.3438,17.0469 Q23.5625,17.0469 23.6563,17 Q23.7656,16.9531 24.2188,16.3594 L24.9844,20.0938 L24.0938,20.3594 Q23.6406,18.9063 23.0313,18.3125 Q22.4375,17.7031 21.4844,17.7031 Q20.2656,17.7031 19.5469,19.1406 Q18.8281,20.5625 18.8281,22.75 Q18.8281,25.1563 19.4375,26.4531 Q20.0625,27.7344 21.4219,27.7344 Q22.375,27.7344 23.0625,27.0469 Q23.75,26.3438 24.0781,24.8438 L24.9844,25.25 Q24.5781,26.9531 23.6094,27.9063 Q22.6563,28.8594 21.3438,28.8594 Z " fill="#000000"/><text fill="#000000" font-family="sans-serif" font-size="14" lengthAdjust="spacing" textLength="111" x="36" y="29.4839">UtilityTransformer</text><line style="stroke:#181818;stroke-width:0.5;" x1="8" x2="149" y1="39" y2="39"/><line style="stroke:#181818;stroke-width:0.5;" x1="8" x2="149" y1="47" y2="47"/></g><!--link ChargingDepot to ElectricBus--><g id="link_ChargingDepot_ElectricBus"><path codeLine="1" d="M78.5,182.22 C78.5,204.67 78.5,232.5 78.5,254.91 " fill="none" id="ChargingDepot-to-ElectricBus" style="stroke:#181818;stroke-width:1.0;stroke-dasharray:7.0,7.0;"/><polygon fill="#181818" points="78.5,260.91,82.5,251.91,78.5,255.91,74.5,251.91,78.5,260.91" style="stroke:#181818;stroke-width:1.0;"/><text fill="#000000" font-family="sans-serif" font-size="13" lengthAdjust="spacing" textLength="67" x="79.5" y="227.8979">depends on</text></g><!--link UtilityTransformer to ChargingDepot--><g id="link_UtilityTransformer_ChargingDepot"><path codeLine="2" d="M78.5,55.22 C78.5,77.67 78.5,105.5 78.5,127.91 " fill="none" id="UtilityTransformer-to-ChargingDepot" style="stroke:#181818;stroke-width:1.0;stroke-dasharray:7.0,7.0;"/><polygon fill="#181818" points="78.5,133.91,82.5,124.91,78.5,128.91,74.5,124.91,78.5,133.91" style="stroke:#181818;stroke-width:1.0;"/><text fill="#000000" font-family="sans-serif" font-size="13" lengthAdjust="spacing" textLength="67" x="79.5" y="100.8979">depends on</text></g><!--SRC=[Syv8B4hFp4jtIIt8Br7GqxDJSCr9JIufoansAYrMi598IIr8pKifLiZFumejoSp9BAaCAKhCAqxBByfDBGAhTqOn0La70000]--></g></svg>