<?xml version="1.0" encoding="us-ascii" standalone="no"?><svg xmlns="http://www.w3.org/2000/svg" xmlns:xlink="http://www.w3.org/1999/xlink" contentStyleType="text/css" height="316px" preserveAspectRatio="none" style="width:139px;height:316px;background:#FFFFFF;" version="1.1" viewBox="0 0 139 316" width="139px" zoomAndPan="magnify"><defs/><g><!--class Helicopter--><g id="elem_Helicopter"><rect fill="#F1F1F1" height="48" id="Helicopter" rx="2.5" ry="2.5" style="stroke:#181818;stroke-width:0.5;" width="95" x="15.5" y="134"/><ellipse cx="30.5" cy="150" fill="#ADD1B2" rx="11" ry="11" style="stroke:#181818;stroke-width:1.0;"/><path d="M29.8438,155.8594 Q27.8594,155.8594 26.6875,154.3906 Q25.5313,152.9063 25.5313,149.8281 Q25.5313,147.2188 26.75,145.4688 Q27.9844,143.7188 30.1094,143.7188 Q30.6094,143.7188 31.1406,143.8594 Q31.5781,144.0469 31.8438,144.0469 Q32.0625,144.0469 32.1563,144 Q32.2656,143.9531 32.7188,143.3594 L33.4844,147.0938 L32.5938,147.3594 Q32.1406,145.9063 31.5313,145.3125 Q30.9375,144.7031 29.9844,144.7031 Q28.7656,144.7031 28.0469,146.1406 Q27.3281,147.5625 27.3281,149.75 Q27.3281,152.1563 27.9375,153.4531 Q28.5625,154.7344 29.9219,154.7344 Q30.875,154.7344 31.5625,154.0469 Q32.25,153.3438 32.5781,151.8438 L33.4844,152.25 Q33.0781,153.9531 32.1094,154.9063 Q31.1563,155.8594 29.8438,155.8594 Z " fill="#000000"/><text fill="#000000" font-family="sans-serif" font-size="14" lengthAdjust="spacing" textLength="63" x="44.5" y="156.4839">Helicopter</text><line style="stroke:#181818;stroke-width:0.5;" x1="16.5" x2="109.5" y1="166" y2="166"/><line style="stroke:#181818;stroke-width:0.5;" x1="16.5" x2="109.5" y1="174" y2="174"/></g><!--class JetFuel--><g id="elem_JetFuel"><rect fill="#F1F1F1" height="48" id="JetFuel" rx="2.5" ry="2.5" style="stroke:#181818;stroke-width:0.5;" width="78" x="24" y="261"/><ellipse cx="39" cy="277" fill="#ADD1B2" rx="11" ry="11" style="stroke:#181818;stroke-width:1.0;"/><path d="M38.3438,282.8594 Q36.3594,282.8594 35.1875,281.3906 Q34.0313,279.9063 34.0313,276.8281 Q34.0313,274.2188 35.25,272.4688 Q36.4844,270.7188 38.6094,270.7188 Q39.1094,270.7188 39.6406,270.8594 Q40.0781,271.0469 40.3438,271.0469 Q40.5625,271.0469 40.6563,271 Q40.7656,270.9531 41.2188,270.3594 L41.9844,274.0938 L41.0938,274.3594 Q40.6406,272.9063 40.0313,272.3125 Q39.4375,271.7031 38.4844,271.7031 Q37.2656,271.7031 36.5469,273.1406 Q35.8281,274.5625 35.8281,276.75 Q35.8281,279.1563 36.4375,280.4531 Q37.0625,281.7344 38.4219,281.7344 Q39.375,281.7344 40.0625,281.0469 Q40.75,280.3438 41.0781,278.8438 L41.9844,279.25 Q41.5781,280.9531 40.6094,281.9063 Q39.6563,282.8594 38.3438,282.8594 Z " fill="#000000"/><text fill="#000000" font-family="sans-serif" font-size="14" lengthAdjust="spacing" textLength="46" x="53" y="283.4839">JetFuel</text><line style="stroke:#181818;stroke-width:0.5;" x1="25" x2="101" y1="293" y2="293"/><line style="stroke:#181818;stroke-width:0.5;" x1="25" x2="101" y1="301" y2="301"/></g><!--class AerialSurvey--><g id="elem_AerialSurvey"><rect fill="#F1F1F1" height="48" id="AerialSurvey" rx="2.5" ry="2.5" style="stroke:#181818;stroke-width:0.5;" width="112" x="7" y="7"/><ellipse cx="22" cy="23" fill="#ADD1B2" rx="11" ry="11" style="stroke:#181818;stroke-width:1.0;"/><path d="M21.3438,28.8594 Q19.3594,28.8594 18.1875,27.3906 Q17.0313,25.9063 17.0313,22.8281 Q17.0313,20.2188 18.25,18.4688 Q19.4844,16.7188 21.6094,16.7188 Q22.1094,16.7188 22.6406,16.8594 Q23.0781,17.0469 23.3438,17.0469 Q23.5625,17.0469 23.6563,17 Q23.7656,16.9531 24.2188,16.3594 L24.9844,20.0938 L24.0938,20.3594 Q23.6406,18.9063 23.0313,18.3125 Q22.4375,17.7031 21.4844,17.7031 Q20.2656,17.7031 19.5469,19.1406 Q18.8281,20.5625 18.8281,22.75 Q18.8281,25.1563 19.4375,26.4531 Q20.0625,27.7344 21.4219,27.7344 Q22.375,27.7344 23.0625,27.0469 Q23.75,26.3438 24.0781,24.8438 L24.9844,25.25 Q24.5781,26.9531 23.6094,27.9063 Q22.6563,28.8594 21.3438,28.8594 Z " fill="#000000"/><text fill="#000000" font-family="sans-serif" font-size="14" lengthAdjust="spacing" textLength="80" x="36" y="29.4839">AerialSurvey</text><line style="stroke:#181818;stroke-width:0.5;" x1="8" x2="118" y1="39" y2="39"/><line style="stroke:#181818;stroke-width:0.5;" x1="8" x2="118" y1="47" y2="47"/></g><!--link Helicopter to JetFuel--><g id="link_Helicopter_JetFuel"><path codeLine="1" d="M63,182.22 C63,204.67 63,232.5 63,254.91 " fill="none" id="Helicopter-to-JetFuel" style="stroke:#181818;stroke-width:1.0;stroke-dasharray:7.0,7.0;"/><polygon fill="#181818" points="63,260.91,67,251.91,63,255.91,59,251.91,63,260.91" style="stroke:#181818;stroke-width:1.0;"/><text fill="#000000" font-family="sans-serif" font-size="13" lengthAdjust="spacing" textLength="67" x="64" y="227.8979">depends on</text></g><!--link AerialSurvey to Helicopter--><g id="link_AerialSurvey_Helicopter"><path codeLine="2" d="M63,55.22 C63,77.67 63,105.5 63,127.91 " fill="none" id="AerialSurvey-to-Helicopter" style="stroke:#181818;stroke-width:1.0;stroke-dasharray:7.0,7.0;"/><polygon fill="#181818" points="63,133.91,67,124.91,63,128.91,59,124.91,63,133.91" style="stroke:#181818;stroke-width:1.0;"/><text fill="#000000" font-family="sans-serif" font-size="13" lengthAdjust="spacing" textLength="67" x="64" y="100.8979">depends on</text></g><!--SRC=[yqZDoKpEBoX9BLBGqxDJy4ejSIjDpL6mKaX9BKZDIobMoC_ZSamjoapC2IujAakj1AloG6X2LWW0]--></g></svg>