<?xml version="1.0" encoding="us-ascii" standalone="no"?><svg xmlns="http://www.w3.org/2000/svg" xmlns:xlink="http://www.w3.org/1999/xlink" contentStyleType="text/css" height="316px" preserveAspectRatio="none" style="width:140px;height:316px;background:#FFFFFF;" version="1.1" viewBox="0 0 140 316" width="140px" zoomAndPan="magnify"><defs/><g><!--class LEDStrip--><g id="elem_LEDStrip"><rect fill="#F1F1F1" height="48" id="LEDStrip" rx="2.5" ry="2.5" style="stroke:#181818;stroke-width:0.5;" width="88" x="20" y="134"/><ellipse cx="35" cy="150" fill="#ADD1B2" rx="11" ry="11" style="stroke:#181818;stroke-width:1.0;"/><path d="M34.3438,155.8594 Q32.3594,155.8594 31.1875,154.3906 Q30.0313,152.9063 30.0313,149.8281 Q30.0313,147.2188 31.25,145.4688 Q32.4844,143.7188 34.6094,143.7188 Q35.1094,143.7188 35.6406,143.8594 Q36.0781,144.0469 36.3438,144.0469 Q36.5625,144.0469 36.6563,144 Q36.7656,143.9531 37.2188,143.3594 L37.9844,147.0938 L37.0938,147.3594 Q36.6406,145.9063 36.0313,145.3125 Q35.4375,144.7031 34.4844,144.7031 Q33.2656,144.7031 32.5469,146.1406 Q31.8281,147.5625 31.8281,149.75 Q31.8281,152.1563 32.4375,153.4531 Q33.0625,154.7344 34.4219,154.7344 Q35.375,154.7344 36.0625,154.0469 Q36.75,153.3438 37.0781,151.8438 L37.9844,152.25 Q37.5781,153.9531 36.6094,154.9063 Q35.6563,155.8594 34.3438,155.8594 Z " fill="#000000"/><text fill="#000000" font-family="sans-serif" font-size="14" lengthAdjust="spacing" textLength="56" x="49" y="156.4839">LEDStrip</text><line style="stroke:#181818;stroke-width:0.5;" x1="21" x2="107" y1="166" y2="166"/><line style="stroke:#181818;stroke-width:0.5;" x1="21" x2="107" y1="174" y2="174"/></g><!--class Electricity--><g id="elem_Electricity"><rect fill="#F1F1F1" height="48" id="Electricity" rx="2.5" ry="2.5" style="stroke:#181818;stroke-width:0.5;" width="92" x="18" y="261"/><ellipse cx="33" cy="277" fill="#ADD1B2" rx="11" ry="11" style="stroke:#181818;stroke-width:1.0;"/><path d="M32.3438,282.8594 Q30.3594,282.8594 29.1875,281.3906 Q28.0313,279.9063 28.0313,276.8281 Q28.0313,274.2188 29.25,272.4688 Q30.4844,270.7188 32.6094,270.7188 Q33.1094,270.7188 33.6406,270.8594 Q34.0781,271.0469 34.3438,271.0469 Q34.5625,271.0469 34.6563,271 Q34.7656,270.9531 35.2188,270.3594 L35.9844,274.0938 L35.0938,274.3594 Q34.6406,272.9063 34.0313,272.3125 Q33.4375,271.7031 32.4844,271.7031 Q31.2656,271.7031 30.5469,273.1406 Q29.8281,274.5625 29.8281,276.75 Q29.8281,279.1563 30.4375,280.4531 Q31.0625,281.7344 32.4219,281.7344 Q33.375,281.7344 34.0625,281.0469 Q34.75,280.3438 35.0781,278.8438 L35.9844,279.25 Q35.5781,280.9531 34.6094,281.9063 Q33.6563,282.8594 32.3438,282.8594 Z " fill="#000000"/><text fill="#000000" font-family="sans-serif" font-size="14" lengthAdjust="spacing" textLength="60" x="47" y="283.4839">Electricity</text><line style="stroke:#181818;stroke-width:0.5;" x1="19" x2="109" y1="293" y2="293"/><line style="stroke:#181818;stroke-width:0.5;" x1="19" x2="109" y1="301" y2="301"/></g><!--class NightLighting--><g id="elem_NightLighting"><rect fill="#F1F1F1" height="48" id="NightLighting" rx="2.5" ry="2.5" style="stroke:#181818;stroke-width:0.5;" width="114" x="7" y="7"/><ellipse cx="22" cy="23" fill="#ADD1B2" rx="11" ry="11" style="stroke:#181818;stroke-width:1.0;"/><path d="M21.3438,28.8594 Q19.3594,28.8594 18.1875,27.3906 Q17.0313,25.9063 17.0313,22.8281 Q17.0313,20.2188 18.25,18.4688 Q19.4844,16.7188 21.6094,16.7188 Q22.1094,16.7188 22.6406,16.8594 Q23.0781,17.0469 23.3438,17.0469 Q23.5625,17.0469 23.6563,17 Q23.7656,16.9531 24.2188,16.3594 L24.9844,20.0938 L24.0938,20.3594 Q23.6406,18.9063 23.0313,18.3125 Q22.4375,17.7031 21.4844,17.7031 Q20.2656,17.7031 19.5469,19.1406 Q18.8281,20.5625 18.8281,22.75 Q18.8281,25.1563 19.4375,26.4531 Q20.0625,27.7344 21.4219,27.7344 Q22.375,27.7344 23.0625,27.0469 Q23.75,26.3438 24.0781,24.8438 L24.9844,25.25 Q24.5781,26.9531 23.6094,27.9063 Q22.6563,28.8594 21.3438,28.8594 Z " fill="#000000"/><text fill="#000000" font-family="sans-serif" font-size="14" lengthAdjust="spacing" textLength="82" x="36" y="29.4839">NightLighting</text><line style="stroke:#181818;stroke-width:0.5;" x1="8" x2="120" y1="39" y2="39"/><line style="stroke:#181818;stroke-width:0.5;" x1="8" x2="120" y1="47" y2="47"/></g><!--link LEDStrip to Electricity--><g id="link_LEDStrip_Electricity"><path codeLine="1" d="M64,182.22 C64,204.67 64,232.5 64,254.91 " fill="none" id="LEDStrip-to-Electricity" style="stroke:#181818;stroke-width:1.0;stroke-dasharray:7.0,7.0;"/><polygon fill="#181818" points="64,260.91,68,251.91,64,255.91,60,251.91,64,260.91" style="stroke:#181818;stroke-width:1.0;"/><text fill="#000000" font-family="sans-serif" font-size="13" lengthAdjust="spacing" textLength="67" x="65" y="227.8979">depends on</text></g><!--link NightLighting to LEDStrip--><g id="link_NightLighting_LEDStrip"><path codeLine="2" d="M64,55.22 C64,77.67 64,105.5 64,127.91 " fill="none" id="NightLighting-to-LEDStrip" style="stroke:#181818;stroke-width:1.0;stroke-dasharray:7.0,7.0;"/><polygon fill="#181818" points="64,133.91,68,124.91,64,128.91,60,124.91,64,133.91" style="stroke:#181818;stroke-width:1.0;"/><text fill="#000000" font-family="sans-serif" font-size="13" lengthAdjust="spacing" textLength="67" x="65" y="100.8979">depends on</text></g><!--SRC=[yt5r2IufoYnGqDEpKt3DIKq6Sf8pIoeLh1HIKWjIyrAA5VBpkFmoqpDAV414PbuwMAaFJ1-oEW00]--></g></svg>