<?xml version="1.0" encoding="us-ascii" standalone="no"?><svg xmlns="http://www.w3.org/2000/svg" xmlns:xlink="http://www.w3.org/1999/xlink" contentStyleType="text/css" height="316px" preserveAspectRatio="none" style="width:152px;height:316px;background:#FFFFFF;" version="1.1" viewBox="0 0 152 316" width="152px" zoomAndPan="magnify"><defs/><g><!--class WirelessCharger--><g id="elem_WirelessCharger"><rect fill="#F1F1F1" height="48" id="WirelessCharger" rx="2.5" ry="2.5" style="stroke:#181818;stroke-width:0.5;" width="138" x="7" y="134"/><ellipse cx="22" cy="150" fill="#ADD1B2" rx="11" ry="11" style="stroke:#181818;stroke-width:1.0;"/><path d="M21.3438,155.8594 Q19.3594,155.8594 18.1875,154.3906 Q17.0313,152.9063 17.0313,149.8281 Q17.0313,147.2188 18.25,145.4688 Q19.4844,143.7188 21.6094,143.7188 Q22.1094,143.7188 22.6406,143.8594 Q23.0781,144.0469 23.3438,144.0469 Q23.5625,144.0469 23.6563,144 Q23.7656,143.9531 24.2188,143.3594 L24.9844,147.0938 L24.0938,147.3594 Q23.6406,145.9063 23.0313,145.3125 Q22.4375,144.7031 21.4844,144.7031 Q20.2656,144.7031 19.5469,146.1406 Q18.8281,147.5625 18.8281,149.75 Q18.8281,152.1563 19.4375,153.4531 Q20.0625,154.7344 21.4219,154.7344 Q22.375,154.7344 23.0625,154.0469 Q23.75,153.3438 24.0781,151.8438 L24.9844,152.25 Q24.5781,153.9531 23.6094,154.9063 Q22.6563,155.8594 21.3438,155.8594 Z " fill="#000000"/><text fill="#000000" font-family="sans-serif" font-size="14" lengthAdjust="spacing" textLength="106" x="36" y="156.4839">WirelessCharger</text><line style="stroke:#181818;stroke-width:0.5;" x1="8" x2="144" y1="166" y2="166"/><line style="stroke:#181818;stroke-width:0.5;" x1="8" x2="144" y1="174" y2="174"/></g><!--class Electricity--><g id="elem_Electricity"><rect fill="#F1F1F1" height="48" id="Electricity" rx="2.5" ry="2.5" style="stroke:#181818;stroke-width:0.5;" width="92" x="30" y="261"/><ellipse cx="45" cy="277" fill="#ADD1B2" rx="11" ry="11" style="stroke:#181818;stroke-width:1.0;"/><path d="M44.3438,282.8594 Q42.3594,282.8594 41.1875,281.3906 Q40.0313,279.9063 40.0313,276.8281 Q40.0313,274.2188 41.25,272.4688 Q42.4844,270.7188 44.6094,270.7188 Q45.1094,270.7188 45.6406,270.8594 Q46.0781,271.0469 46.3438,271.0469 Q46.5625,271.0469 46.6563,271 Q46.7656,270.9531 47.2188,270.3594 L47.9844,274.0938 L47.0938,274.3594 Q46.6406,272.9063 46.0313,272.3125 Q45.4375,271.7031 44.4844,271.7031 Q43.2656,271.7031 42.5469,273.1406 Q41.8281,274.5625 41.8281,276.75 Q41.8281,279.1563 42.4375,280.4531 Q43.0625,281.7344 44.4219,281.7344 Q45.375,281.7344 46.0625,281.0469 Q46.75,280.3438 47.0781,278.8438 L47.9844,279.25 Q47.5781,280.9531 46.6094,281.9063 Q45.6563,282.8594 44.3438,282.8594 Z " fill="#000000"/><text fill="#000000" font-family="sans-serif" font-size="14" lengthAdjust="spacing" textLength="60" x="59" y="283.4839">Electricity</text><line style="stroke:#181818;stroke-width:0.5;" x1="31" x2="121" y1="293" y2="293"/><line style="stroke:#181818;stroke-width:0.5;" x1="31" x2="121" y1="301" y2="301"/></g><!--class BatteryCharging--><g id="elem_BatteryCharging"><rect fill="#F1F1F1" height="48" id="BatteryCharging" rx="2.5" ry="2.5" style="stroke:#181818;stroke-width:0.5;" width="135" x="8.5" y="7"/><ellipse cx="23.5" cy="23" fill="#ADD1B2" rx="11" ry="11" style="stroke:#181818;stroke-width:1.0;"/><path d="M22.8438,28.8594 Q20.8594,28.8594 19.6875,27.3906 Q18.5313,25.9063 18.5313,22.8281 Q18.5313,20.2188 19.75,18.4688 Q20.9844,16.7188 23.1094,16.7188 Q23.6094,16.7188 24.1406,16.8594 Q24.5781,17.0469 24.8438,17.0469 Q25.0625,17.0469 25.1563,17 Q25.2656,16.9531 25.7188,16.3594 L26.4844,20.0938 L25.5938,20.3594 Q25.1406,18.9063 24.5313,18.3125 Q23.9375,17.7031 22.9844,17.7031 Q21.7656,17.7031 21.0469,19.1406 Q20.3281,20.5625 20.3281,22.75 Q20.3281,25.1563 20.9375,26.4531 Q21.5625,27.7344 22.9219,27.7344 Q23.875,27.7344 24.5625,27.0469 Q25.25,26.3438 25.5781,24.8438 L26.4844,25.25 Q26.0781,26.9531 25.1094,27.9063 Q24.1563,28.8594 22.8438,28.8594 Z " fill="#000000"/><text fill="#000000" font-family="sans-serif" font-size="14" lengthAdjust="spacing" textLength="103" x="37.5" y="29.4839">BatteryCharging</text><line style="stroke:#181818;stroke-width:0.5;" x1="9.5" x2="142.5" y1="39" y2="39"/><line style="stroke:#181818;stroke-width:0.5;" x1="9.5" x2="142.5" y1="47" y2="47"/></g><!--link WirelessCharger to Electricity--><g id="link_WirelessCharger_Electricity"><path codeLine="1" d="M76,182.22 C76,204.67 76,232.5 76,254.91 " fill="none" id="WirelessCharger-to-Electricity" style="stroke:#181818;stroke-width:1.0;stroke-dasharray:7.0,7.0;"/><polygon fill="#181818" points="76,260.91,80,251.91,76,255.91,72,251.91,76,260.91" style="stroke:#181818;stroke-width:1.0;"/><text fill="#000000" font-family="sans-serif" font-size="13" lengthAdjust="spacing" textLength="67" x="77" y="227.8979">depends on</text></g><!--link BatteryCharging to WirelessCharger--><g id="link_BatteryCharging_WirelessCharger"><path codeLine="2" d="M76,55.22 C76,77.67 76,105.5 76,127.91 " fill="none" id="BatteryCharging-to-WirelessCharger" style="stroke:#181818;stroke-width:1.0;stroke-dasharray:7.0,7.0;"/><polygon fill="#181818" points="76,133.91,80,124.91,76,128.91,72,124.91,76,133.91" style="stroke:#181818;stroke-width:1.0;"/><text fill="#000000" font-family="sans-serif" font-size="13" lengthAdjust="spacing" textLength="67" x="77" y="100.8979">depends on</text></g><!--SRC=[2yyiIir9BIvspaWiIayjKj3JirDmpKbDBYdAJCuigLImKaX9BKZDIobMoC_ZSaeiAKajgWIhpSnB1oiEHpC0MGC0]--></g></svg>