<?xml version="1.0" encoding="us-ascii" standalone="no"?><svg xmlns="http://www.w3.org/2000/svg" xmlns:xlink="http://www.w3.org/1999/xlink" contentStyleType="text/css" height="316px" preserveAspectRatio="none" style="width:119px;height:316px;background:#FFFFFF;" version="1.1" viewBox="0 0 119 316" width="119px" zoomAndPan="magnify"><defs/><g><!--class Rabbit--><g id="elem_Rabbit"><rect fill="#F1F1F1" height="48" id="Rabbit" rx="2.5" ry="2.5" style="stroke:#181818;stroke-width:0.5;" width="73" x="7" y="134"/><ellipse cx="22" cy="150" fill="#ADD1B2" rx="11" ry="11" style="stroke:#181818;stroke-width:1.0;"/><path d="M21.3438,155.8594 Q19.3594,155.8594 18.1875,154.3906 Q17.0313,152.9063 17.0313,149.8281 Q17.0313,147.2188 18.25,145.4688 Q19.4844,143.7188 21.6094,143.7188 Q22.1094,143.7188 22.6406,143.8594 Q23.0781,144.0469 23.3438,144.0469 Q23.5625,144.0469 23.6563,144 Q23.7656,143.9531 24.2188,143.3594 L24.9844,147.0938 L24.0938,147.3594 Q23.6406,145.9063 23.0313,145.3125 Q22.4375,144.7031 21.4844,144.7031 Q20.2656,144.7031 19.5469,146.1406 Q18.8281,147.5625 18.8281,149.75 Q18.8281,152.1563 19.4375,153.4531 Q20.0625,154.7344 21.4219,154.7344 Q22.375,154.7344 23.0625,154.0469 Q23.75,153.3438 24.0781,151.8438 L24.9844,152.25 Q24.5781,153.9531 23.6094,154.9063 Q22.6563,155.8594 21.3438,155.8594 Z " fill="#000000"/><text fill="#000000" font-family="sans-serif" font-size="14" lengthAdjust="spacing" textLength="41" x="36" y="156.4839">Rabbit</text><line style="stroke:#181818;stroke-width:0.5;" x1="8" x2="79" y1="166" y2="166"/><line style="stroke:#181818;stroke-width:0.5;" x1="8" x2="79" y1="174" y2="174"/></g><!--class Fox--><g id="elem_Fox"><rect fill="#F1F1F1" height="48" id="Fox" rx="2.5" ry="2.5" style="stroke:#181818;stroke-width:0.5;" width="55" x="16" y="261"/><ellipse cx="31" cy="277" fill="#ADD1B2" rx="11" ry="11" style="stroke:#181818;stroke-width:1.0;"/><path d="M30.3438,282.8594 Q28.3594,282.8594 27.1875,281.3906 Q26.0313,279.9063 26.0313,276.8281 Q26.0313,274.2188 27.25,272.4688 Q28.4844,270.7188 30.6094,270.7188 Q31.1094,270.7188 31.6406,270.8594 Q32.0781,271.0469 32.3438,271.0469 Q32.5625,271.0469 32.6563,271 Q32.7656,270.9531 33.2188,270.3594 L33.9844,274.0938 L33.0938,274.3594 Q32.6406,272.9063 32.0313,272.3125 Q31.4375,271.7031 30.4844,271.7031 Q29.2656,271.7031 28.5469,273.1406 Q27.8281,274.5625 27.8281,276.75 Q27.8281,279.1563 28.4375,280.4531 Q29.0625,281.7344 30.4219,281.7344 Q31.375,281.7344 32.0625,281.0469 Q32.75,280.3438 33.0781,278.8438 L33.9844,279.25 Q33.5781,280.9531 32.6094,281.9063 Q31.6563,282.8594 30.3438,282.8594 Z " fill="#000000"/><text fill="#000000" font-family="sans-serif" font-size="14" lengthAdjust="spacing" textLength="23" x="45" y="283.4839">Fox</text><line style="stroke:#181818;stroke-width:0.5;" x1="17" x2="70" y1="293" y2="293"/><line style="stroke:#181818;stroke-width:0.5;" x1="17" x2="70" y1="301" y2="301"/></g><!--class Grass--><g id="elem_Grass"><rect fill="#F1F1F1" height="48" id="Grass" rx="2.5" ry="2.5" style="stroke:#181818;stroke-width:0.5;" width="70" x="8.5" y="7"/><ellipse cx="23.5" cy="23" fill="#ADD1B2" rx="11" ry="11" style="stroke:#181818;stroke-width:1.0;"/><path d="M22.8438,28.8594 Q20.8594,28.8594 19.6875,27.3906 Q18.5313,25.9063 18.5313,22.8281 Q18.5313,20.2188 19.75,18.4688 Q20.9844,16.7188 23.1094,16.7188 Q23.6094,16.7188 24.1406,16.8594 Q24.5781,17.0469 24.8438,17.0469 Q25.0625,17.0469 25.1563,17 Q25.2656,16.9531 25.7188,16.3594 L26.4844,20.0938 L25.5938,20.3594 Q25.1406,18.9063 24.5313,18.3125 Q23.9375,17.7031 22.9844,17.7031 Q21.7656,17.7031 21.0469,19.1406 Q20.3281,20.5625 20.3281,22.75 Q20.3281,25.1563 20.9375,26.4531 Q21.5625,27.7344 22.9219,27.7344 Q23.875,27.7344 24.5625,27.0469 Q25.25,26.3438 25.5781,24.8438 L26.4844,25.25 Q26.0781,26.9531 25.1094,27.9063 Q24.1563,28.8594 22.8438,28.8594 Z " fill="#000000"/><text fill="#000000" font-family="sans-serif" font-size="14" lengthAdjust="spacing" textLength="38" x="37.5" y="29.4839">Grass</text><line style="stroke:#181818;stroke-width:0.5;" x1="9.5" x2="77.5" y1="39" y2="39"/><line style="stroke:#181818;stroke-width:0.5;" x1="9.5" x2="77.5" y1="47" y2="47"/></g><!--link Rabbit to Fox--><g id="link_Rabbit_Fox"><path codeLine="1" d="M43.5,182.22 C43.5,204.67 43.5,232.5 43.5,254.91 " fill="none" id="Rabbit-to-Fox" style="stroke:#181818;stroke-width:1.0;stroke-dasharray:7.0,7.0;"/><polygon fill="#181818" points="43.5,260.91,47.5,251.91,43.5,255.91,39.5,251.91,43.5,260.91" style="stroke:#181818;stroke-width:1.0;"/><text fill="#000000" font-family="sans-serif" font-size="13" lengthAdjust="spacing" textLength="67" x="44.5" y="227.8979">depends on</text></g><!--link Grass to Rabbit--><g id="link_Grass_Rabbit"><path codeLine="2" d="M43.5,55.22 C43.5,77.67 43.5,105.5 43.5,127.91 " fill="none" id="Grass-to-Rabbit" style="stroke:#181818;stroke-width:1.0;stroke-dasharray:7.0,7.0;"/><polygon fill="#181818" points="43.5,133.91,47.5,124.91,43.5,128.91,39.5,124.91,43.5,133.91" style="stroke:#181818;stroke-width:1.0;"/><text fill="#000000" font-family="sans-serif" font-size="13" lengthAdjust="spacing" textLength="67" x="44.5" y="100.8979">depends on</text></g><!--SRC=[2qfCIieiKT3JirDmowzGi598IIr8pKifLiZFut8lIYmk1ai5GLGXom80]--></g></svg>